<svg width="51" height="50" viewBox="0 0 51 50" fill="none" xmlns="http://www.w3.org/2000/svg">
<path d="M39.8186 24.3196C39.1077 23.4616 38.1172 22.8816 37.0212 22.6815L38.7097 20.5142C38.8043 20.3958 38.8743 20.2597 38.9155 20.1139C38.9566 19.9681 38.9682 19.8155 38.9494 19.6652C38.9306 19.5148 38.8818 19.3697 38.806 19.2385C38.7303 19.1073 38.6289 18.9927 38.5081 18.9013C38.2665 18.7167 37.9621 18.6343 37.6604 18.672C37.3587 18.7098 37.0839 18.8645 36.8952 19.1029L34.2238 22.6815H15.9778L13.0292 19.2541C12.813 19.0447 12.5238 18.9276 12.2228 18.9276C11.9218 18.9276 11.6326 19.0447 11.4163 19.2541C11.3097 19.3596 11.225 19.4851 11.1672 19.6236C11.1094 19.762 11.0796 19.9105 11.0796 20.0605C11.0796 20.2106 11.1094 20.3591 11.1672 20.4975C11.225 20.6359 11.3097 20.7615 11.4163 20.867L13.0544 22.6815C12.4367 22.8361 11.8558 23.1117 11.3453 23.4924C10.8349 23.8731 10.405 24.3513 10.0807 24.8993C9.39229 26.0033 9.15751 27.3307 9.42542 28.6039L11.2399 39.617C11.3761 40.7552 11.9119 41.808 12.7519 42.588C13.5919 43.368 14.6815 43.8245 15.8266 43.8761H34.5262C35.6514 43.8247 36.722 43.3763 37.5478 42.6104C38.3737 41.8445 38.9014 40.8107 39.0373 39.6926L40.877 28.6543C40.891 28.4193 40.891 28.1837 40.877 27.9486C40.9503 27.3038 40.8945 26.6508 40.7127 26.0277C40.531 25.4046 40.227 24.824 39.8186 24.3196ZM38.6089 28.2259L36.7692 39.365C36.7005 39.9464 36.4315 40.4858 36.0084 40.8905C35.5853 41.2952 35.0345 41.5399 34.4506 41.5827H16.003C15.4025 41.5495 14.8336 41.3027 14.3991 40.8867C13.9647 40.4708 13.6933 39.9131 13.6341 39.3146L11.7944 28.1503C11.7015 27.8062 11.6827 27.4463 11.7392 27.0945C11.7957 26.7426 11.9261 26.4067 12.122 26.1089C12.5068 25.5021 13.1122 25.0684 13.8105 24.8993H14.0877H36.2147C36.5694 24.9295 36.9146 25.0298 37.2303 25.1941C37.5461 25.3585 37.8262 25.5838 38.0545 25.8569C38.2858 26.1256 38.4608 26.4381 38.5691 26.7758C38.6773 27.1135 38.7165 27.4695 38.6845 27.8226C38.6742 27.9594 38.6488 28.0946 38.6089 28.2259Z" fill="#008DD2"/>
<path d="M18.9516 29.0322C18.6462 29.0387 18.355 29.1629 18.139 29.3789C17.923 29.5949 17.7988 29.8861 17.7924 30.1915V36.8195C17.7924 37.127 17.9145 37.4218 18.1319 37.6393C18.3493 37.8567 18.6442 37.9788 18.9516 37.9788C19.2591 37.9788 19.554 37.8567 19.7714 37.6393C19.9888 37.4218 20.1109 37.127 20.1109 36.8195V30.2419C20.1143 30.0863 20.0869 29.9317 20.0305 29.7867C19.974 29.6417 19.8895 29.5092 19.7819 29.3969C19.6742 29.2846 19.5455 29.1945 19.403 29.132C19.2606 29.0694 19.1072 29.0355 18.9516 29.0322Z" fill="#008DD2"/>
<path d="M25.0252 29.0322C24.8729 29.0322 24.7222 29.0622 24.5815 29.1205C24.4409 29.1787 24.3131 29.2641 24.2054 29.3718C24.0978 29.4794 24.0124 29.6072 23.9541 29.7479C23.8959 29.8885 23.8659 30.0393 23.8659 30.1915V36.8195C23.9068 37.0944 24.045 37.3455 24.2555 37.527C24.466 37.7085 24.7347 37.8083 25.0126 37.8083C25.2905 37.8083 25.5592 37.7085 25.7696 37.527C25.9801 37.3455 26.1184 37.0944 26.1593 36.8195V30.2419C26.166 30.0876 26.1418 29.9335 26.0882 29.7886C26.0345 29.6437 25.9525 29.5111 25.8468 29.3984C25.7412 29.2857 25.6141 29.1952 25.473 29.1324C25.3319 29.0695 25.1796 29.0354 25.0252 29.0322Z" fill="#008DD2"/>
<path d="M31.25 29.0324C30.9605 29.0701 30.6959 29.2156 30.5091 29.4398C30.3222 29.6641 30.2268 29.9506 30.2419 30.2421V36.8701C30.2828 37.145 30.421 37.3961 30.6315 37.5776C30.842 37.7591 31.1107 37.8589 31.3886 37.8589C31.6665 37.8589 31.9352 37.7591 32.1457 37.5776C32.3561 37.3961 32.4944 37.145 32.5353 36.8701V30.2421C32.5436 30.0745 32.5154 29.907 32.4527 29.7514C32.3899 29.5957 32.2942 29.4555 32.1719 29.3405C32.0497 29.2255 31.904 29.1383 31.7448 29.0851C31.5856 29.032 31.4168 29.014 31.25 29.0324Z" fill="#008DD2"/>
<path d="M24.1683 21.5979C24.277 21.7171 24.4093 21.8123 24.5569 21.8775C24.7044 21.9426 24.8639 21.9763 25.0252 21.9763C25.1865 21.9763 25.346 21.9426 25.4936 21.8775C25.6411 21.8123 25.7734 21.7171 25.8821 21.5979L32.9637 13.7602C33.0704 13.6547 33.1551 13.5291 33.2129 13.3907C33.2707 13.2522 33.3004 13.1037 33.3004 12.9537C33.3004 12.8037 33.2707 12.6552 33.2129 12.5167C33.1551 12.3783 33.0704 12.2527 32.9637 12.1473C32.7464 11.9303 32.4518 11.8084 32.1447 11.8084C31.8375 11.8084 31.543 11.9303 31.3256 12.1473L26.2349 17.6412V7.28335C26.2594 7.11851 26.2481 6.95033 26.2017 6.79027C26.1553 6.63021 26.075 6.48202 25.9661 6.35582C25.8573 6.22962 25.7225 6.12836 25.571 6.05895C25.4195 5.98954 25.2549 5.95361 25.0882 5.95361C24.9216 5.95361 24.7569 5.98954 24.6054 6.05895C24.4539 6.12836 24.3191 6.22962 24.2103 6.35582C24.1014 6.48202 24.0211 6.63021 23.9747 6.79027C23.9284 6.95033 23.917 7.11851 23.9415 7.28335V17.8932L18.9012 12.2229C18.6881 12.0357 18.4137 11.9331 18.1301 11.9346C17.8464 11.9361 17.5732 12.0415 17.362 12.2309C17.1509 12.4203 17.0165 12.6806 16.9843 12.9624C16.9522 13.2442 17.0245 13.528 17.1875 13.7602L24.1683 21.5979Z" fill="#008DD2"/>
</svg>
