<svg width="40" height="40" viewBox="0 0 40 40" fill="none" xmlns="http://www.w3.org/2000/svg">
<path d="M13.75 32.5V31.25C13.7518 30.2197 13.5264 29.2017 13.0898 28.2684C12.6533 27.3352 12.0163 26.5097 11.2244 25.8506L10.3556 24.0431C10.2427 23.7995 10.0697 23.5885 9.8529 23.4301C9.63607 23.2716 9.38252 23.1709 9.11608 23.1373C8.84963 23.1038 8.57902 23.1385 8.32968 23.2382C8.08034 23.338 7.86044 23.4994 7.69063 23.7075C7.53377 23.8974 7.42101 24.1197 7.36049 24.3585C7.29996 24.5972 7.29318 24.8464 7.34063 25.0881L7.70688 26.9925C7.71688 27.0455 7.73368 27.097 7.75688 27.1456L7.78001 27.1937C6.37486 25.7065 5.4539 23.8279 5.13876 21.8062L4.90251 20.3312C4.83902 19.8943 4.6211 19.4946 4.28825 19.2045C3.9554 18.9144 3.52964 18.7532 3.08813 18.75C2.83106 18.7509 2.57708 18.8062 2.34298 18.9125C2.10887 19.0187 1.89995 19.1734 1.73001 19.3663C1.5509 19.5693 1.41677 19.8079 1.33641 20.0664C1.25605 20.3249 1.2313 20.5975 1.26376 20.8663L1.60813 23.7294C2.0024 27.0923 3.47096 30.2382 5.79563 32.7C5.68633 32.8145 5.62524 32.9667 5.62501 33.125V38.125C5.62501 38.2908 5.69086 38.4497 5.80807 38.5669C5.92528 38.6842 6.08425 38.75 6.25001 38.75H13.75C13.9158 38.75 14.0747 38.6842 14.192 38.5669C14.3092 38.4497 14.375 38.2908 14.375 38.125V33.125C14.375 32.9592 14.3092 32.8003 14.192 32.6831C14.0747 32.5658 13.9158 32.5 13.75 32.5ZM2.84876 23.5825L2.50501 20.7194C2.49313 20.6257 2.50124 20.5306 2.52882 20.4403C2.5564 20.3501 2.60282 20.2666 2.66501 20.1956C2.71746 20.1347 2.78236 20.0857 2.85535 20.0519C2.92834 20.0182 3.00772 20.0005 3.08813 20C3.23213 20.0043 3.36982 20.0601 3.47622 20.1572C3.58263 20.2543 3.65071 20.3864 3.66813 20.5294L3.90438 22.0038C4.1524 23.6301 4.75565 25.1818 5.67124 26.5486C6.58683 27.9154 7.79227 29.0637 9.20188 29.9119C9.31722 29.9805 9.4516 30.0102 9.58513 29.9966C9.71865 29.9829 9.84424 29.9266 9.9433 29.8361C10.0424 29.7455 10.1096 29.6254 10.1351 29.4936C10.1607 29.3619 10.1431 29.2254 10.085 29.1044L8.91876 26.6775L8.56813 24.8519C8.55569 24.791 8.55697 24.7281 8.57189 24.6678C8.58681 24.6074 8.61499 24.5512 8.65438 24.5031C8.68592 24.4642 8.72573 24.4328 8.77092 24.4112C8.81611 24.3896 8.86554 24.3783 8.91563 24.3781C8.98214 24.3801 9.04674 24.4008 9.10202 24.4378C9.1573 24.4749 9.20101 24.5267 9.22813 24.5875L10.1581 26.525C10.1998 26.6117 10.261 26.6877 10.3369 26.7469C11.0134 27.286 11.5593 27.9711 11.9339 28.7508C12.3085 29.5306 12.502 30.3849 12.5 31.25V32.5H7.36001C4.84351 30.1587 3.24404 26.9969 2.84876 23.5825ZM13.125 37.5H6.87501V33.75H13.125V37.5Z" fill="#008DD2"/>
<path d="M36.9119 18.75C36.4707 18.7536 36.0454 18.9151 35.7129 19.2051C35.3805 19.4952 35.1628 19.8946 35.0994 20.3312L34.8631 21.8062C34.548 23.8279 33.627 25.7065 32.2219 27.1937L32.245 27.1456C32.2682 27.097 32.285 27.0455 32.295 26.9925L32.6612 25.0887C32.7087 24.847 32.7019 24.5977 32.6414 24.3588C32.5809 24.12 32.4681 23.8975 32.3113 23.7075C32.1414 23.4995 31.9215 23.338 31.6721 23.2383C31.4227 23.1386 31.1521 23.104 30.8856 23.1376C30.6192 23.1712 30.3656 23.272 30.1488 23.4305C29.932 23.589 29.7591 23.8 29.6462 24.0438L28.7775 25.8506C27.9852 26.5095 27.3479 27.3349 26.911 28.2682C26.4742 29.2014 26.2485 30.2196 26.25 31.25V32.5C26.0842 32.5 25.9253 32.5658 25.8081 32.6831C25.6908 32.8003 25.625 32.9592 25.625 33.125V38.125C25.625 38.2908 25.6908 38.4497 25.8081 38.5669C25.9253 38.6842 26.0842 38.75 26.25 38.75H33.75C33.9158 38.75 34.0747 38.6842 34.1919 38.5669C34.3092 38.4497 34.375 38.2908 34.375 38.125V33.125C34.3743 32.9676 34.3135 32.8165 34.205 32.7025C36.5297 30.2407 37.9982 27.0948 38.3925 23.7319L38.7369 20.8687C38.7693 20.6 38.7446 20.3274 38.6642 20.0689C38.5839 19.8104 38.4497 19.5718 38.2706 19.3687C38.1008 19.1753 37.8919 19.0201 37.6577 18.9135C37.4235 18.8068 37.1692 18.7511 36.9119 18.75ZM33.125 37.5H26.875V33.75H33.125V37.5ZM37.1513 23.5825C36.756 26.9969 35.1565 30.1587 32.64 32.5H27.5V31.25C27.4972 30.3843 27.6902 29.5292 28.0646 28.7486C28.439 27.968 28.985 27.2822 29.6619 26.7425C29.7377 26.6833 29.7989 26.6074 29.8406 26.5206L30.7706 24.5831C30.7976 24.5222 30.8413 24.4702 30.8966 24.433C30.9519 24.3958 31.0165 24.3751 31.0831 24.3731C31.1332 24.3733 31.1827 24.3846 31.2278 24.4062C31.273 24.4278 31.3128 24.4592 31.3444 24.4981C31.3838 24.5463 31.412 24.6027 31.4269 24.6631C31.4418 24.7235 31.4431 24.7865 31.4306 24.8475L31.08 26.6725L29.9137 29.0994C29.8557 29.2204 29.8381 29.3569 29.8636 29.4886C29.8891 29.6204 29.9564 29.7405 30.0555 29.8311C30.1545 29.9216 30.2801 29.9779 30.4136 29.9916C30.5472 30.0052 30.6815 29.9755 30.7969 29.9069C32.2065 29.0587 33.4119 27.9104 34.3275 26.5436C35.2431 25.1768 35.8464 23.6251 36.0944 21.9988L36.3306 20.5244C36.3492 20.3821 36.4179 20.2511 36.5245 20.1549C36.631 20.0588 36.7684 20.0039 36.9119 20C36.9923 20.0005 37.0717 20.0182 37.1447 20.0519C37.2176 20.0857 37.2826 20.1347 37.335 20.1956C37.3972 20.2666 37.4436 20.3501 37.4712 20.4403C37.4988 20.5306 37.5069 20.6257 37.495 20.7194L37.1513 23.5825Z" fill="#008DD2"/>
<path d="M26.25 16.8749V14.5549C27.2361 13.3678 27.8637 11.9245 28.0594 10.3938C28.2551 8.86302 28.0109 7.3082 27.3552 5.91121C26.6995 4.51422 25.6596 3.33285 24.357 2.5053C23.0545 1.67776 21.5432 1.23828 20 1.23828C18.4568 1.23828 16.9455 1.67776 15.643 2.5053C14.3404 3.33285 13.3005 4.51422 12.6448 5.91121C11.9892 7.3082 11.7449 8.86302 11.9406 10.3938C12.1363 11.9245 12.7639 13.3678 13.75 14.5549V16.8749C13.7499 16.9719 13.7724 17.0675 13.8156 17.1543L15.0656 19.6543C15.1175 19.7582 15.1974 19.8456 15.2962 19.9066C15.395 19.9677 15.5089 20 15.625 19.9999V23.1249C15.625 23.6222 15.8225 24.0991 16.1742 24.4507C16.5258 24.8024 17.0027 24.9999 17.5 24.9999H22.5C22.9973 24.9999 23.4742 24.8024 23.8258 24.4507C24.1775 24.0991 24.375 23.6222 24.375 23.1249V19.9999C24.4917 20.0006 24.6062 19.9685 24.7056 19.9074C24.805 19.8464 24.8854 19.7587 24.9375 19.6543L26.1875 17.1543C26.2297 17.0673 26.2511 16.9716 26.25 16.8749ZM23.125 23.1249C23.125 23.2907 23.0592 23.4497 22.9419 23.5669C22.8247 23.6841 22.6658 23.7499 22.5 23.7499H17.5C17.3342 23.7499 17.1753 23.6841 17.0581 23.5669C16.9409 23.4497 16.875 23.2907 16.875 23.1249V19.9999H23.125V23.1249ZM19.375 13.1249C19.375 13.0013 19.4117 12.8805 19.4803 12.7777C19.549 12.6749 19.6466 12.5948 19.7608 12.5475C19.875 12.5002 20.0007 12.4878 20.1219 12.5119C20.2432 12.536 20.3545 12.5956 20.4419 12.683C20.5294 12.7704 20.5889 12.8818 20.613 13.003C20.6371 13.1242 20.6247 13.2499 20.5774 13.3641C20.5301 13.4783 20.45 13.5759 20.3472 13.6446C20.2445 13.7133 20.1236 13.7499 20 13.7499C19.8342 13.7499 19.6753 13.6841 19.5581 13.5669C19.4409 13.4497 19.375 13.2907 19.375 13.1249ZM25 14.3243V16.7274L23.9888 18.7499H23.125V15.9418L24.1194 15.2124C24.1986 15.1544 24.2631 15.0784 24.3075 14.9908C24.3519 14.9032 24.375 14.8063 24.375 14.708V9.88492C24.792 9.73749 25.1435 9.44738 25.3673 9.06587C25.5911 8.68436 25.6728 8.23602 25.598 7.80009C25.5232 7.36415 25.2967 6.96869 24.9585 6.68361C24.6204 6.39852 24.1923 6.24215 23.75 6.24215C23.3077 6.24215 22.8796 6.39852 22.5415 6.68361C22.2033 6.96869 21.9768 7.36415 21.902 7.80009C21.8272 8.23602 21.9089 8.68436 22.1327 9.06587C22.3565 9.44738 22.708 9.73749 23.125 9.88492V14.3912L22.1306 15.1205C22.0514 15.1786 21.9869 15.2545 21.9425 15.3422C21.8981 15.4298 21.875 15.5267 21.875 15.6249V18.7499H20.625V14.8849C21.042 14.7375 21.3935 14.4474 21.6173 14.0659C21.8411 13.6844 21.9228 13.236 21.848 12.8001C21.7732 12.3642 21.5467 11.9687 21.2085 11.6836C20.8704 11.3985 20.4423 11.2422 20 11.2422C19.5577 11.2422 19.1296 11.3985 18.7915 11.6836C18.4533 11.9687 18.2268 12.3642 18.152 12.8001C18.0772 13.236 18.1589 13.6844 18.3827 14.0659C18.6065 14.4474 18.958 14.7375 19.375 14.8849V18.7499H18.125V15.6249C18.125 15.5267 18.1019 15.4298 18.0575 15.3422C18.0131 15.2545 17.9486 15.1786 17.8694 15.1205L16.875 14.3912V9.88492C17.292 9.73749 17.6435 9.44738 17.8673 9.06587C18.0911 8.68436 18.1728 8.23602 18.098 7.80009C18.0232 7.36415 17.7967 6.96869 17.4585 6.68361C17.1204 6.39852 16.6923 6.24215 16.25 6.24215C15.8077 6.24215 15.3796 6.39852 15.0415 6.68361C14.7033 6.96869 14.4768 7.36415 14.402 7.80009C14.3272 8.23602 14.4089 8.68436 14.6327 9.06587C14.8565 9.44738 15.208 9.73749 15.625 9.88492V14.708C15.625 14.8063 15.6481 14.9032 15.6925 14.9908C15.7369 15.0784 15.8014 15.1544 15.8806 15.2124L16.875 15.9418V18.7499H16.0113L15 16.7274V14.3243C14.9999 14.1722 14.9444 14.0253 14.8438 13.9112C13.9686 12.9189 13.3984 11.6951 13.2015 10.3868C13.0047 9.07842 13.1895 7.74105 13.7339 6.53515C14.2782 5.32925 15.159 4.30604 16.2705 3.5883C17.382 2.87056 18.6769 2.48879 20 2.48879C21.3231 2.48879 22.6181 2.87056 23.7295 3.5883C24.841 4.30604 25.7218 5.32925 26.2661 6.53515C26.8105 7.74105 26.9953 9.07842 26.7985 10.3868C26.6016 11.6951 26.0314 12.9189 25.1563 13.9112C25.0556 14.0253 25.0001 14.1722 25 14.3243ZM23.125 8.12492C23.125 8.00131 23.1617 7.88047 23.2303 7.77769C23.299 7.67491 23.3966 7.5948 23.5108 7.5475C23.625 7.50019 23.7507 7.48781 23.8719 7.51193C23.9932 7.53605 24.1045 7.59557 24.1919 7.68298C24.2794 7.77039 24.3389 7.88175 24.363 8.00299C24.3871 8.12423 24.3747 8.2499 24.3274 8.3641C24.2801 8.4783 24.2 8.57591 24.0972 8.64459C23.9945 8.71327 23.8736 8.74992 23.75 8.74992C23.5842 8.74992 23.4253 8.68407 23.3081 8.56686C23.1909 8.44965 23.125 8.29068 23.125 8.12492ZM16.25 8.74992C16.1264 8.74992 16.0056 8.71327 15.9028 8.64459C15.8 8.57591 15.7199 8.4783 15.6726 8.3641C15.6253 8.2499 15.6129 8.12423 15.637 8.00299C15.6611 7.88175 15.7207 7.77039 15.8081 7.68298C15.8955 7.59557 16.0068 7.53605 16.1281 7.51193C16.2493 7.48781 16.375 7.50019 16.4892 7.5475C16.6034 7.5948 16.701 7.67491 16.7697 7.77769C16.8383 7.88047 16.875 8.00131 16.875 8.12492C16.875 8.29068 16.8092 8.44965 16.6919 8.56686C16.5747 8.68407 16.4158 8.74992 16.25 8.74992Z" fill="#008DD2"/>
</svg>
