<svg width="40" height="35" viewBox="0 0 40 35" fill="none" xmlns="http://www.w3.org/2000/svg">
<path fill-rule="evenodd" clip-rule="evenodd" d="M38.3333 34.0318H1.66665C1.20581 34.0318 0.833313 33.6593 0.833313 33.1985C0.833313 32.7377 1.20581 32.3652 1.66665 32.3652H38.3333C38.7941 32.3652 39.1666 32.7377 39.1666 33.1985C39.1666 33.6593 38.7941 34.0318 38.3333 34.0318ZM13.3333 25.6985C13.7941 25.6985 14.1666 26.071 14.1666 26.5318C14.1666 26.9927 13.7941 27.3652 13.3333 27.3652H6.66665C6.20581 27.3652 5.83331 26.9927 5.83331 26.5318C5.83331 26.071 6.20581 25.6985 6.66665 25.6985H7.49998V14.8652H6.66665C6.20581 14.8652 5.83331 14.4927 5.83331 14.0318C5.83331 13.5718 6.20581 13.1985 6.66665 13.1985H13.3333C13.7941 13.1985 14.1666 13.5718 14.1666 14.0318C14.1666 14.4927 13.7941 14.8652 13.3333 14.8652H12.5V25.6985H13.3333ZM10.8333 14.8652H9.16665V25.6985H10.8333V14.8652ZM23.3333 25.6985C23.7941 25.6985 24.1666 26.071 24.1666 26.5318C24.1666 26.9927 23.7941 27.3652 23.3333 27.3652H16.6666C16.2058 27.3652 15.8333 26.9927 15.8333 26.5318C15.8333 26.071 16.2058 25.6985 16.6666 25.6985H17.5V14.8652H16.6666C16.2058 14.8652 15.8333 14.4927 15.8333 14.0318C15.8333 13.5718 16.2058 13.1985 16.6666 13.1985H23.3333C23.7941 13.1985 24.1666 13.5718 24.1666 14.0318C24.1666 14.4927 23.7941 14.8652 23.3333 14.8652H22.5V25.6985H23.3333ZM20.8333 14.8652H19.1666V25.6985H20.8333V14.8652ZM36.6666 29.8652C36.6666 30.326 36.2941 30.6985 35.8333 30.6985H4.16665C3.70581 30.6985 3.33331 30.326 3.33331 29.8652C3.33331 29.4043 3.70581 29.0318 4.16665 29.0318H35.8333C36.2941 29.0318 36.6666 29.4043 36.6666 29.8652ZM33.3333 25.6985C33.7941 25.6985 34.1666 26.071 34.1666 26.5318C34.1666 26.9927 33.7941 27.3652 33.3333 27.3652H26.6666C26.2058 27.3652 25.8333 26.9927 25.8333 26.5318C25.8333 26.071 26.2058 25.6985 26.6666 25.6985H27.5V14.8652H26.6666C26.2058 14.8652 25.8333 14.4927 25.8333 14.0318C25.8333 13.5718 26.2058 13.1985 26.6666 13.1985H33.3333C33.7941 13.1985 34.1666 13.5718 34.1666 14.0318C34.1666 14.4927 33.7941 14.8652 33.3333 14.8652H32.5V25.6985H33.3333ZM30.8333 14.8652H29.1666V25.6985H30.8333V14.8652ZM2.49998 9.86516L20 0.333496L37.5 9.86516V11.5318H2.49998V9.86516ZM33.7841 9.86516L20 2.7385L6.16331 9.86516H33.7841Z" fill="#008DD2"/>
</svg>
