<svg width="35" height="41" viewBox="0 0 35 41" fill="none" xmlns="http://www.w3.org/2000/svg">
<path d="M33.7321 18.3303C33.4911 18.1696 33.0893 18.2499 32.8482 18.4106L26.6607 23.3124V18.6517C26.6607 18.3303 26.5 18.0892 26.2589 17.9285C26.0179 17.7678 25.6964 17.8481 25.4554 18.0089L17.9018 23.4731L17.5 18.4106C17.5 18.1696 17.3393 17.8481 17.0982 17.7678C16.8571 17.6071 16.5357 17.6874 16.2946 17.7678L7.21429 23.2321V15.8392C7.77679 15.5178 8.25893 15.116 8.58036 14.5535C8.98214 14.7142 9.46429 14.7142 9.94643 14.7142C11.7143 14.7142 13.2411 13.7499 14.0446 12.3035C14.2857 12.3035 14.5268 12.3839 14.8482 12.3839C18.1429 12.3839 20.7946 9.73207 20.7946 6.43743C20.7946 3.14279 18.1429 0.410645 14.8482 0.410645C11.875 0.410645 9.46429 2.49993 8.98214 5.39279C6.89286 5.79457 5.36607 7.56243 5.20536 9.73207C3.67857 9.97314 2.47322 11.3392 2.47322 12.9464C2.47322 13.0267 2.47322 13.1071 2.47322 13.1071H1.66965C1.1875 13.1071 0.866074 13.4285 0.866074 13.9106V39.7856C0.866074 40.2678 1.1875 40.5892 1.66965 40.5892H33.4107C33.8929 40.5892 34.2143 40.2678 34.2143 39.7856V19.0535C34.1339 18.7321 33.9732 18.491 33.7321 18.3303ZM4.08036 12.9464C4.08036 11.9821 4.80357 11.2589 5.76786 11.2589C5.84822 11.2589 5.92857 11.2589 6.00893 11.2589C6.25 11.2589 6.49107 11.1785 6.65179 11.0178C6.8125 10.8571 6.89286 10.616 6.89286 10.3749C6.89286 10.2142 6.89286 10.1339 6.89286 9.97314C6.89286 8.366 8.17857 6.91957 9.78572 6.83922C10.1875 6.83922 10.5089 6.51779 10.5089 6.116C10.5893 3.78564 12.5179 2.01779 14.8482 2.01779C17.2589 2.01779 19.1875 3.94636 19.1875 6.43743C19.1875 8.84814 17.2589 10.7767 14.8482 10.7767C14.5268 10.7767 14.125 10.6964 13.8036 10.616C13.4018 10.5356 13 10.6964 12.8393 11.0981C12.3571 12.3035 11.2321 13.1071 9.94643 13.1071C9.46429 13.1071 8.98214 13.0267 8.5 12.7856C8.25893 12.7053 8.01786 12.7053 7.77679 12.7856C7.53572 12.866 7.375 13.1071 7.29464 13.3481C7.29464 13.5089 7.21429 13.6696 7.13393 13.8303C7.05357 13.4285 6.73214 13.1874 6.33036 13.1874H4C4.08036 13.1071 4.08036 13.0267 4.08036 12.9464ZM3.4375 14.7142H5.60714V15.9999H2.47322V14.7142H3.4375ZM32.5268 38.9821H2.47322V17.6874H5.60714V24.6785C5.60714 24.9999 5.76786 25.241 6.00893 25.4017C6.25 25.5624 6.57143 25.5624 6.8125 25.4017L15.9732 19.9374L16.375 25.0803C16.375 25.4017 16.5357 25.6428 16.8571 25.7231C17.0982 25.8839 17.4196 25.8035 17.6607 25.6428L25.1339 20.2589V24.9999C25.1339 25.3214 25.2946 25.5624 25.6161 25.7231C25.8571 25.8839 26.2589 25.8035 26.5 25.6428L32.6875 20.741V38.9821H32.5268Z" fill="#008DD2"/>
</svg>
