<svg width="24" height="24" viewBox="0 0 24 24" fill="none" xmlns="http://www.w3.org/2000/svg">
<path d="M17.8734 1.1001H6.12656C3.35056 1.1001 1.10016 3.3505 1.10016 6.1265V17.8734C1.10016 20.6494 3.35056 22.8998 6.12656 22.8998H17.8734C20.6494 22.8998 22.8998 20.6494 22.8998 17.8734V6.1265C22.8998 3.3505 20.6494 1.1001 17.8734 1.1001Z" fill="url(#paint0_linear_2233_61)"/>
<path d="M15.5156 5.40086C16.3432 5.40419 17.1359 5.73442 17.7211 6.3196C18.3063 6.90479 18.6365 7.69751 18.6398 8.52508V15.4748C18.6365 16.3023 18.3063 17.0951 17.7211 17.6802C17.1359 18.2654 16.3432 18.5957 15.5156 18.599H8.48437C7.6568 18.5957 6.86408 18.2654 6.27889 17.6802C5.69371 17.0951 5.36348 16.3023 5.36015 15.4748V8.52508C5.36348 7.69751 5.69371 6.90479 6.27889 6.3196C6.86408 5.73442 7.6568 5.40419 8.48437 5.40086H15.5156ZM15.5156 3.94773H8.48437C5.96671 3.94773 3.90656 6.01023 3.90656 8.52555V15.4748C3.90656 17.9924 5.96906 20.0526 8.48437 20.0526H15.5156C18.0333 20.0526 20.0934 17.9901 20.0934 15.4748V8.52508C20.0934 6.00742 18.0333 3.94727 15.5156 3.94727V3.94773Z" fill="white"/>
<path d="M12 9.28735C12.5365 9.28735 13.061 9.44645 13.5071 9.74452C13.9532 10.0426 14.3009 10.4662 14.5062 10.9619C14.7115 11.4576 14.7652 12.003 14.6605 12.5292C14.5559 13.0554 14.2975 13.5388 13.9181 13.9181C13.5388 14.2975 13.0554 14.5559 12.5292 14.6605C12.003 14.7652 11.4576 14.7115 10.9619 14.5062C10.4663 14.3009 10.0426 13.9532 9.74452 13.5071C9.44645 13.061 9.28736 12.5365 9.28736 12C9.28822 11.2808 9.5743 10.5914 10.0828 10.0828C10.5914 9.5743 11.2808 9.28822 12 9.28735ZM12 7.83423C11.1761 7.83423 10.3707 8.07855 9.68563 8.53629C9.00057 8.99403 8.46663 9.64464 8.15133 10.4058C7.83603 11.167 7.75354 12.0046 7.91427 12.8127C8.07501 13.6208 8.47176 14.3631 9.05436 14.9457C9.63695 15.5283 10.3792 15.925 11.1873 16.0857C11.9954 16.2465 12.833 16.164 13.5942 15.8487C14.3554 15.5334 15.006 14.9995 15.4637 14.3144C15.9215 13.6293 16.1658 12.8239 16.1658 12C16.1658 10.8952 15.7269 9.83559 14.9457 9.05436C14.1644 8.27312 13.1048 7.83423 12 7.83423Z" fill="white"/>
<path d="M16.2567 8.63913C16.8022 8.63913 17.2444 8.19694 17.2444 7.65147C17.2444 7.10601 16.8022 6.66382 16.2567 6.66382C15.7112 6.66382 15.269 7.10601 15.269 7.65147C15.269 8.19694 15.7112 8.63913 16.2567 8.63913Z" fill="white"/>
<defs>
<linearGradient id="paint0_linear_2233_61" x1="15.3877" y1="23.8148" x2="8.61235" y2="0.185097" gradientUnits="userSpaceOnUse">
<stop stop-color="#FFDB73"/>
<stop offset="0.08" stop-color="#FDAD4E"/>
<stop offset="0.15" stop-color="#FB832E"/>
<stop offset="0.19" stop-color="#FA7321"/>
<stop offset="0.23" stop-color="#F6692F"/>
<stop offset="0.37" stop-color="#E84A5A"/>
<stop offset="0.48" stop-color="#E03675"/>
<stop offset="0.55" stop-color="#DD2F7F"/>
<stop offset="0.68" stop-color="#B43D97"/>
<stop offset="0.97" stop-color="#4D60D4"/>
<stop offset="1" stop-color="#4264DB"/>
</linearGradient>
</defs>
</svg>
