<svg width="40" height="40" viewBox="0 0 40 40" fill="none" xmlns="http://www.w3.org/2000/svg">
<path d="M40 20C40 22.3359 39.5938 24.5781 38.8594 26.6719C36.1016 34.4297 28.6953 40 20 40C11.3047 40 3.89844 34.4297 1.14062 26.6719C0.40625 24.5781 0 22.3359 0 20C0 17.6641 0.40625 15.4219 1.14062 13.3281C3.89844 5.57031 11.3047 0 20 0C28.6953 0 36.1016 5.57031 38.8594 13.3281C39.5938 15.4219 40 17.6641 40 20Z" fill="white"/>
<path d="M38.8594 13.3281H1.14062C3.89844 5.57031 11.3047 0 20 0C28.6953 0 36.1016 5.57031 38.8594 13.3281Z" fill="#FF9933"/>
<path d="M38.8594 26.6719C36.1016 34.4297 28.6953 40 20 40C11.3047 40 3.89844 34.4297 1.14062 26.6719H38.8594Z" fill="#128807"/>
<path d="M20.7109 20.6016L20.7266 20.5938L20.7344 20.5859L20.75 20.5703C20.7578 20.5625 20.7578 20.5547 20.7578 20.5547L20.7734 20.5391L20.7812 20.5312C20.7812 20.5312 20.7891 20.5234 20.7969 20.5156L20.8047 20.5078L21.5312 21.0625L24.0547 22.3359L21.6953 20.7813L20.8594 20.4297L20.8672 20.4219L20.875 20.4063C20.875 20.4063 20.8828 20.3984 20.8828 20.3906L20.8906 20.375C20.8906 20.375 20.8984 20.3672 20.8984 20.3594L20.9062 20.3438L20.9141 20.3281L20.9219 20.3125L20.9297 20.2969C20.9297 20.2891 20.9297 20.2891 20.9297 20.2891L21.7734 20.6328L24.5391 21.2109L21.8594 20.3203L20.9609 20.1953L20.9687 20.1875V20.1719C20.9687 20.1641 20.9766 20.1641 20.9766 20.1641V20.1484L20.9844 20.1328C20.9844 20.125 20.9844 20.125 20.9844 20.125L20.9922 20.1094V20.0781C20.9922 20.0703 20.9922 20.0625 20.9922 20.0625V20.0469L21.8984 20.1563L24.7187 19.9922L21.8984 19.8281L20.9922 19.9375V19.9297C20.9922 19.9219 20.9922 19.9141 20.9922 19.9141V19.8984L20.9844 19.8828C20.9844 19.875 20.9844 19.875 20.9844 19.875L20.9766 19.8516V19.8438C20.9766 19.8359 20.9687 19.8281 20.9687 19.8281V19.8125L20.9609 19.7969L21.8594 19.6719L24.5391 18.7891L21.7734 19.3672L20.9297 19.7109V19.7031L20.9219 19.6875L20.9141 19.6719C20.9141 19.6641 20.9141 19.6641 20.9141 19.6641L20.9062 19.6484C20.8984 19.6406 20.8984 19.6328 20.8984 19.6328C20.8906 19.625 20.8906 19.6172 20.8906 19.6172L20.8828 19.6016L20.875 19.5859L20.8672 19.5781L21.7031 19.2266L24.0625 17.6797L21.5391 18.9531L20.8125 19.5C20.8125 19.4922 20.8047 19.4922 20.8047 19.4922L20.7891 19.4766L20.7812 19.4609L20.7734 19.4531C20.7656 19.4453 20.7656 19.4453 20.7656 19.4453L20.75 19.4297L20.7422 19.4219C20.7422 19.4219 20.7344 19.4141 20.7266 19.4062L20.7188 19.3906L20.7109 19.3828L21.4297 18.8281L23.3125 16.7188L21.1875 18.5938L20.625 19.3125L20.6172 19.3047L20.6016 19.2969L20.5938 19.2891C20.5859 19.2812 20.5859 19.2813 20.5859 19.2813L20.5703 19.2656L20.5547 19.25L20.5469 19.2422L20.5312 19.2344L20.5156 19.2266L20.5078 19.2188L21.0547 18.4922L22.3281 15.9688L20.7734 18.3281L20.4219 19.1641L20.4141 19.1563C20.4062 19.1563 20.4063 19.1484 20.4063 19.1484L20.3906 19.1406L20.375 19.1328L20.3594 19.125L20.3437 19.1172L20.3281 19.1094L20.3125 19.1016L20.2969 19.0938L20.2812 19.0859L20.625 18.2422L21.2031 15.4766L20.3203 18.1562L20.1953 19.0547H20.1875C20.1797 19.0469 20.1719 19.0469 20.1719 19.0469L20.1562 19.0391C20.1562 19.0391 20.1484 19.0391 20.1406 19.0391L20.125 19.0313H20.1094H20.1016L20.0859 19.0234H20.0703C20.0703 19.0234 20.0625 19.0234 20.0547 19.0234L20.1641 18.125L20 15.3047L19.8359 18.125L19.9453 19.0234H19.9375H19.9219L19.9062 19.0313H19.8906H19.875L19.8594 19.0391H19.8437L19.8281 19.0469C19.8281 19.0469 19.8203 19.0469 19.8125 19.0547H19.8047L19.6797 18.1562L18.7969 15.4766L19.375 18.2422L19.7187 19.0859L19.7031 19.0938L19.6875 19.1016L19.6719 19.1094L19.6562 19.1172C19.6562 19.1172 19.6484 19.125 19.6406 19.125L19.625 19.1328L19.6094 19.1406L19.6016 19.1484C19.5937 19.1563 19.5859 19.1563 19.5859 19.1563L19.5703 19.1641L19.2187 18.3281L17.6719 15.9688L18.9453 18.4922L19.4922 19.2188C19.4844 19.2266 19.4844 19.2266 19.4844 19.2266L19.4687 19.2422C19.4609 19.2422 19.4609 19.25 19.4609 19.25L19.4453 19.2578L19.4297 19.2734L19.4141 19.2813L19.4062 19.2891L19.3984 19.2969L19.3828 19.3047L19.375 19.3125L18.8125 18.5938L16.7109 16.7109L18.5937 18.8203L19.3125 19.375L19.3047 19.3828L19.2969 19.3984C19.2891 19.4063 19.2891 19.4062 19.2891 19.4062L19.2812 19.4219L19.2656 19.4375C19.2656 19.4375 19.2578 19.4453 19.2578 19.4531L19.25 19.4609L19.2422 19.4766L19.2266 19.4922L19.2187 19.5L18.4922 18.9531L15.9687 17.6797L18.3281 19.2266L19.1641 19.5781C19.1641 19.5859 19.1562 19.5859 19.1562 19.5859L19.1484 19.6016L19.1406 19.6172L19.1328 19.625L19.125 19.6406L19.1172 19.6563L19.1094 19.6641L19.1016 19.6797L19.0937 19.6953V19.7031L18.25 19.3594L15.4844 18.7812L18.1719 19.6641L19.0703 19.7891L19.0625 19.8047V19.8203L19.0547 19.8359V19.8438L19.0469 19.8594V19.875L19.0391 19.8906V19.9063C19.0391 19.9063 19.0391 19.9141 19.0391 19.9219V19.9297L18.1328 19.8203L15.3125 19.9844L18.1328 20.1484L19.0391 20.0391V20.0547C19.0391 20.0547 19.0391 20.0625 19.0391 20.0703V20.0859L19.0469 20.0938V20.1094L19.0547 20.125V20.1406C19.0547 20.1406 19.0625 20.1484 19.0625 20.1563V20.1719L19.0703 20.1797L18.1719 20.3047L15.4844 21.1953L18.25 20.6172L19.0937 20.2734C19.0937 20.2734 19.0937 20.2813 19.0937 20.2891L19.1016 20.3047L19.1094 20.3203L19.1172 20.3359C19.1172 20.3437 19.125 20.3438 19.125 20.3438L19.1328 20.3672L19.1406 20.3828C19.1406 20.3906 19.1484 20.3906 19.1484 20.3906L19.1562 20.4063L19.1641 20.4141L18.3281 20.7656L15.9687 22.3203L18.4922 21.0469L19.2187 20.4922L19.2266 20.5C19.2344 20.5078 19.2344 20.5156 19.2344 20.5156L19.2422 20.5312C19.25 20.5391 19.25 20.5391 19.25 20.5391C19.25 20.5391 19.2578 20.5469 19.2656 20.5547L19.2812 20.5703L19.2891 20.5781C19.2891 20.5781 19.2969 20.5859 19.3047 20.5859C19.3047 20.5859 19.3125 20.5938 19.3125 20.6016L19.3203 20.6094L18.6016 21.1719L16.7187 23.2734L18.8203 21.3984L19.3828 20.6797C19.3906 20.6797 19.3906 20.6875 19.3906 20.6875C19.3984 20.6953 19.4062 20.6953 19.4062 20.6953L19.4219 20.7109L19.4297 20.7188L19.4453 20.7344L19.4609 20.7422L19.4687 20.75C19.4687 20.75 19.4766 20.7578 19.4844 20.7578L19.5 20.7656L19.5078 20.7734L18.9609 21.5L17.6875 24.0234L19.2344 21.6641L19.5859 20.8281L19.5938 20.8359C19.6016 20.8438 19.6094 20.8437 19.6094 20.8437L19.6172 20.8516L19.6328 20.8594L19.6484 20.8672C19.6562 20.875 19.6562 20.875 19.6562 20.875L19.6719 20.8828L19.6875 20.8906C19.6875 20.8906 19.6953 20.8984 19.7031 20.8984L19.7187 20.9063L19.375 21.75L18.7969 24.5156L19.6797 21.8359L19.8047 20.9375L19.8125 20.9453H19.8281L19.8437 20.9531H19.8594L19.875 20.9609H19.8906C19.8984 20.9687 19.8984 20.9688 19.8984 20.9688H19.9141H19.9297H19.9375L19.8281 21.875L19.9922 24.6953L20.1562 21.875L20.0469 20.9688C20.0547 20.9688 20.0547 20.9688 20.0547 20.9688H20.0703H20.0859C20.0859 20.9688 20.0938 20.9687 20.0938 20.9609H20.1094L20.125 20.9531C20.1328 20.9531 20.1328 20.9531 20.1328 20.9531L20.1484 20.9453H20.1641L20.1719 20.9375L20.2969 21.8359L21.1797 24.5156L20.6016 21.75L20.2578 20.9063L20.2734 20.8984C20.2812 20.8906 20.2812 20.8906 20.2812 20.8906L20.2969 20.8828L20.3125 20.875L20.3281 20.8672L20.3437 20.8594L20.3594 20.8516L20.3672 20.8437L20.3828 20.8359L20.3906 20.8281L20.7422 21.6641L22.2969 24.0234L21.0234 21.5L20.4766 20.7734L20.4844 20.7656L20.5 20.7578L20.5156 20.75C20.5234 20.7422 20.5234 20.7422 20.5234 20.7422L20.5391 20.7266L20.5547 20.7109L20.5625 20.7031L20.5703 20.6953C20.5703 20.6953 20.5781 20.6875 20.5859 20.6797L20.5938 20.6719L21.1562 21.3906L23.2578 23.2656L21.4062 21.1875L20.6875 20.625L20.6953 20.6172C20.7031 20.6094 20.7109 20.6094 20.7109 20.6016Z" fill="#000088"/>
<path d="M20 14.6484C17.0391 14.6484 14.6484 17.0469 14.6484 20C14.6484 22.9531 17.0469 25.3516 20 25.3516C22.9531 25.3516 25.3516 22.9531 25.3516 20C25.3516 17.0469 22.9609 14.6484 20 14.6484ZM24.5703 20.8594L24.6016 20.8672C24.5547 21.1172 24.4922 21.3594 24.4062 21.5937C24.2969 21.5469 24.1641 21.5859 24.1094 21.6875C24.0391 21.8047 24.0781 21.9453 24.1953 22.0156C24.1953 22.0156 24.2188 22.0234 24.2266 22.0312C24.1172 22.2578 23.9922 22.4766 23.8516 22.6797C23.7578 22.6016 23.6172 22.6094 23.5313 22.6953C23.4453 22.7812 23.4453 22.9375 23.5313 23.0312C23.5313 23.0312 23.5469 23.0469 23.5547 23.0547C23.3906 23.25 23.2109 23.4219 23.0234 23.5859C22.9531 23.4922 22.8203 23.4609 22.7109 23.5234C22.6016 23.5938 22.5547 23.7344 22.625 23.8438C22.6328 23.8594 22.6406 23.8594 22.6406 23.8594C22.4375 24.0156 22.2266 24.1406 21.9922 24.2422C21.9531 24.1328 21.8281 24.0703 21.7109 24.1016C21.5859 24.1406 21.5078 24.2656 21.5469 24.3906L21.5547 24.4219C21.3203 24.5 21.0781 24.5703 20.8281 24.6172C20.8125 24.4922 20.7188 24.4062 20.5938 24.4062C20.4609 24.4062 20.3594 24.5078 20.3594 24.6406L20.3672 24.6719C20.2422 24.6797 20.125 24.6875 20 24.6875C19.8672 24.6875 19.7422 24.6797 19.6172 24.6719C19.6328 24.5469 19.5625 24.4375 19.4453 24.4062C19.3125 24.3672 19.1875 24.4453 19.1562 24.5703L19.1484 24.6016C18.8984 24.5547 18.6562 24.4922 18.4219 24.4062C18.4688 24.2969 18.4297 24.1719 18.3281 24.1094C18.2109 24.0391 18.0703 24.0859 18.0078 24.1953C18 24.2031 17.9922 24.2188 17.9922 24.2188C17.7656 24.1172 17.5469 23.9922 17.3438 23.8516C17.4141 23.7578 17.4141 23.625 17.3281 23.5313C17.2344 23.4453 17.0859 23.4453 16.9844 23.5313C16.9844 23.5313 16.9687 23.5469 16.9687 23.5547C16.7812 23.3906 16.6016 23.2109 16.4375 23.0234C16.5312 22.9531 16.5625 22.8203 16.5 22.7187C16.4297 22.6016 16.2891 22.5625 16.1797 22.6328C16.1641 22.6406 16.1641 22.6484 16.1641 22.6484C16.0078 22.4531 15.8906 22.2344 15.7812 22C15.8906 21.9609 15.9531 21.8359 15.9219 21.7188C15.8906 21.5938 15.7578 21.5156 15.6328 21.5547C15.6172 21.5547 15.6094 21.5625 15.5938 21.5625C15.5156 21.3281 15.4453 21.0859 15.3984 20.8437C15.5234 20.8281 15.6172 20.7344 15.6172 20.6094C15.6172 20.4766 15.5078 20.375 15.375 20.375C15.375 20.375 15.3594 20.375 15.3437 20.3828C15.3359 20.2578 15.3281 20.1406 15.3281 20.0156C15.3281 19.8828 15.3359 19.7578 15.3437 19.6328C15.4609 19.6484 15.5781 19.5781 15.6094 19.4609C15.6406 19.3281 15.5625 19.2031 15.4375 19.1719L15.3906 19.1406C15.4375 18.8906 15.5 18.6484 15.5859 18.4219C15.6953 18.4688 15.8281 18.4297 15.8828 18.3203C15.9531 18.2109 15.9062 18.0625 15.7969 18L15.7656 17.9844C15.875 17.7578 16 17.5469 16.1406 17.3359C16.2344 17.4062 16.375 17.4062 16.4609 17.3203C16.5469 17.2266 16.5469 17.0781 16.4609 16.9844C16.4531 16.9766 16.4453 16.9687 16.4453 16.9687C16.6016 16.7656 16.7812 16.5938 16.9687 16.4297C17.0391 16.5234 17.1719 16.5547 17.2812 16.4922C17.3906 16.4297 17.4375 16.2812 17.3672 16.1719L17.3516 16.1484C17.5547 16.0078 17.7734 15.8828 18 15.7734C18.0391 15.8828 18.1641 15.9453 18.2812 15.9141C18.4062 15.875 18.4844 15.75 18.4453 15.625C18.4453 15.625 18.4375 15.6016 18.4375 15.5859C18.6719 15.5078 18.9141 15.4375 19.1641 15.3984C19.1797 15.5156 19.2734 15.6094 19.3984 15.6094C19.5313 15.6094 19.6328 15.5 19.6328 15.375C19.6328 15.3594 19.6328 15.3516 19.6328 15.3516C19.75 15.3281 19.8672 15.3281 19.9922 15.3281C20.125 15.3281 20.25 15.3359 20.3828 15.3437C20.3672 15.4609 20.4375 15.5703 20.5547 15.6094C20.6875 15.6406 20.8125 15.5625 20.8437 15.4375C20.8437 15.4375 20.8516 15.4141 20.8516 15.4062C21.1016 15.4531 21.3438 15.5156 21.5781 15.6016C21.5313 15.7109 21.5703 15.8438 21.6719 15.9063C21.7891 15.9688 21.9297 15.9297 21.9922 15.8203L22.0078 15.7891C22.2344 15.8984 22.4531 16.0234 22.6562 16.1719C22.5781 16.2578 22.5859 16.3984 22.6719 16.4844C22.7656 16.5781 22.9219 16.5781 23.0078 16.4844L23.0312 16.4609C23.2187 16.625 23.3984 16.8047 23.5625 16.9922C23.4688 17.0625 23.4375 17.1953 23.5 17.3047C23.5703 17.4141 23.7109 17.4609 23.8203 17.3906L23.8438 17.375C23.9844 17.5781 24.1094 17.7969 24.2188 18.0234C24.1094 18.0703 24.0469 18.1875 24.0781 18.3047C24.1172 18.4297 24.2422 18.5078 24.3672 18.4766L24.3984 18.4609C24.4766 18.6953 24.5469 18.9375 24.5937 19.1875C24.4687 19.2031 24.3828 19.2969 24.3828 19.4219C24.3828 19.5547 24.4844 19.6563 24.6172 19.6563H24.6484C24.6562 19.7734 24.6641 19.8906 24.6641 20.0156C24.6641 20.1484 24.6562 20.2734 24.6484 20.4063C24.5234 20.3906 24.4141 20.4609 24.3828 20.5781C24.3672 20.6875 24.4453 20.8203 24.5703 20.8594Z" fill="#000088"/>
</svg>
