<svg width="54" height="54" viewBox="0 0 54 54" fill="none" xmlns="http://www.w3.org/2000/svg">
<g clip-path="url(#clip0_723_33383)">
<path d="M53.7204 42.875C53.425 42.4108 52.9186 42.031 52.4122 41.82C51.6526 41.5246 50.8086 41.4824 50.0068 41.4824C46.04 41.4824 39.6678 43.2126 37.389 43.8878C36.8826 42.7062 35.49 41.609 32.1141 41.609C30.0885 41.609 28.1895 42.031 28.1051 42.031C27.4721 42.1576 26.9235 42.1154 26.1639 41.9044C24.6447 41.4824 23.3787 40.554 22.0283 39.6256C20.6357 38.655 19.2431 37.6844 17.5129 37.1358C14.6855 36.2918 12.0269 36.0808 9.66376 36.545C8.52436 36.756 7.42717 37.178 6.32997 37.5578C5.35938 37.9376 4.43098 38.2752 3.46038 38.4862C3.24939 38.5284 3.03839 38.6128 2.78519 38.655C2.27879 38.7816 1.73019 38.9504 1.35039 38.9504C1.22379 38.9504 1.18159 38.9504 1.13939 38.9082L0 38.5706C0 38.5706 0 47.0527 0 49.8801C0 50.5553 0.590797 51.0195 1.30819 51.0195C1.64579 51.0195 2.02559 50.8929 2.36319 50.8085C2.53199 50.7663 2.74299 50.6819 2.82739 50.6819L2.99619 50.6397C4.43098 50.4287 5.86577 50.2177 7.25837 50.2177C9.24176 50.2177 19.1165 52.7497 22.7457 53.7203H22.7879C23.5897 53.8891 24.3493 53.9735 25.1089 53.9735C26.7125 53.9735 27.5987 53.5937 27.6831 53.5515C28.9069 53.0029 31.1857 52.3699 31.1857 52.3699C35.1102 51.2727 50.4288 46.4619 50.5554 46.4197C52.6654 45.8289 53.7626 45.0694 53.9736 44.141C54.058 43.6768 53.9314 43.2548 53.7204 42.875ZM50.049 44.774C49.8802 44.8162 34.6038 49.6269 30.6793 50.7241C30.5949 50.7663 28.2739 51.3993 26.9235 52.0323C26.9235 52.0323 26.2905 52.3277 25.0667 52.3277C24.4759 52.3277 23.8007 52.2433 23.1255 52.1167C21.6485 51.7369 9.79036 48.5719 7.25837 48.5719C5.73918 48.5719 4.21998 48.7829 2.74299 49.0361L2.57419 49.0783C2.32099 49.1205 2.10999 49.2049 1.85679 49.2471H1.81459C1.81459 45.6601 1.81459 42.2842 1.77239 40.6806C2.27879 40.6384 2.78519 40.4696 3.24939 40.343C3.46038 40.3008 3.67138 40.2164 3.84018 40.1742C4.93738 39.921 5.95017 39.5412 6.96297 39.2036C8.01796 38.8238 8.98856 38.444 10.0014 38.2752C12.0691 37.8532 14.4745 38.0642 17.0065 38.8238C18.4835 39.2458 19.7073 40.132 21.0155 41.0604C22.4081 42.031 23.8851 43.0438 25.6575 43.5924C26.6703 43.8878 27.5143 43.93 28.4005 43.719C28.4849 43.719 30.2151 43.3392 32.0297 43.3392C33.6755 43.3392 35.701 43.6346 35.8698 45.0694L35.912 45.5757C35.7854 45.6179 35.6166 45.7023 35.49 45.7445C34.6882 46.0399 33.8865 46.2087 33.0425 46.4197C32.1985 46.5885 31.3545 46.7995 30.5105 47.0105C29.7087 47.2637 28.9069 47.4325 28.1473 47.3059C27.3877 47.1793 26.5015 46.9261 25.6575 46.7995C24.8135 46.6729 23.9273 46.5463 23.0833 46.5041C22.2393 46.4619 21.3531 46.4619 20.4669 46.5041C19.6229 46.5885 18.7789 46.6307 17.8927 46.5463C18.6945 46.8417 19.5807 46.8839 20.4669 46.9261C21.3109 46.9683 22.1549 47.0527 22.9989 47.1371C23.8429 47.2637 24.6869 47.3903 25.4887 47.6013C25.9107 47.6857 26.3327 47.7701 26.7125 47.8967C27.1345 47.9811 27.5565 48.1077 28.0207 48.1921C28.9491 48.3187 29.9197 48.1077 30.7215 47.8123C31.5233 47.5591 32.3251 47.3481 33.1691 47.0949C34.0131 46.8417 34.8148 46.5463 35.6166 46.1665C35.701 46.1243 35.8276 46.2087 35.912 46.1243L36.8826 45.8289C36.967 45.7867 45.2804 43.2548 49.838 43.2548C51.4416 43.2548 51.948 43.5924 52.0324 43.7612L52.0746 43.8878C52.0746 44.0566 51.526 44.352 50.049 44.774Z" fill="#393185"/>
<path d="M27.0086 17.7239C21.8602 17.7239 17.7246 21.8595 17.7246 27.0079C17.7246 32.1563 21.8602 36.2919 27.0086 36.2919C32.1569 36.2919 36.2925 32.1563 36.2925 27.0079C36.2925 21.8595 32.1569 17.7239 27.0086 17.7239ZM27.0086 34.6039C22.8308 34.6039 19.4126 31.1857 19.4126 27.0079C19.4126 22.8301 22.8308 19.4119 27.0086 19.4119C31.1863 19.4119 34.6045 22.8301 34.6045 27.0079C34.6045 31.1857 31.1863 34.6039 27.0086 34.6039Z" fill="#393185"/>
<path d="M27.8514 26.2905C26.8808 25.9107 26.501 25.6575 26.5432 25.2777C26.5854 24.9401 26.8386 24.6447 27.556 24.6869C28.4 24.7713 28.9064 25.0245 29.1596 25.1933L29.5816 23.9695C29.2018 23.7585 28.6954 23.5897 27.978 23.5053L28.0202 22.5347L26.923 22.4503L26.8808 23.5053C25.657 23.6319 24.8974 24.3493 24.8552 25.3621C24.813 26.4171 25.5726 27.0501 26.7542 27.5143C27.5982 27.8519 27.9358 28.1473 27.8936 28.5693C27.8514 28.9913 27.3872 29.2445 26.7542 29.2023C26.0368 29.1601 25.4038 28.9069 24.9396 28.6115L24.5176 29.8775C24.8974 30.1307 25.6148 30.3839 26.3744 30.4683L26.29 31.5233L27.3872 31.5655L27.4716 30.4261C28.7798 30.2995 29.5394 29.4977 29.5816 28.4849C29.6238 27.4721 29.1596 26.8391 27.8514 26.2905Z" fill="#393185"/>
<path d="M0.29526 11.0986C0.590659 11.5627 1.09706 11.9425 1.60345 12.1535C2.36305 12.4489 3.20705 12.4911 4.00884 12.4911C7.97563 12.4911 14.3478 10.761 16.6266 10.0858C17.133 11.2674 18.5256 12.3645 21.9016 12.3645C23.9272 12.3645 25.8261 11.9425 25.9105 11.9425C26.5435 11.8159 27.0921 11.8581 27.8517 12.0691C29.3709 12.4911 30.6369 13.4195 31.9873 14.3479C33.3799 15.3185 34.7725 16.2891 36.5027 16.8377C39.3301 17.6817 41.9887 17.8927 44.3519 17.4285C45.4913 17.2175 46.5885 16.7955 47.6857 16.4157C48.6562 16.0359 49.5846 15.6983 50.5552 15.4873C50.7662 15.4451 50.9772 15.3607 51.2304 15.3185C51.7368 15.1919 52.2854 15.0231 52.6652 15.0231C52.7918 15.0231 52.834 15.0231 52.8762 15.0653L53.9734 15.4029C53.9734 15.4029 53.9734 6.92077 53.9734 4.09338C53.9734 3.41818 53.3826 2.95399 52.6652 2.95399C52.3276 2.95399 51.9478 3.08059 51.6102 3.16499C51.4414 3.20719 51.2304 3.29159 51.146 3.29159L50.9772 3.33379C49.5424 3.54478 48.1077 3.75578 46.7151 3.75578C44.7317 3.75578 34.8569 1.22379 31.2277 0.253199C30.4259 0.0843996 29.6663 0 28.9067 0C27.3031 0 26.4169 0.379798 26.3325 0.421998C25.1088 0.970596 22.83 1.60359 22.83 1.60359C18.9054 2.70079 3.58685 7.51157 3.46025 7.55377C1.35026 8.14456 0.253061 8.90416 0.0420616 9.83256C-0.042338 10.2968 0.0842614 10.7188 0.29526 11.0986ZM3.96664 9.19956C4.13544 9.15736 19.4118 4.34658 23.3364 3.24939C23.4208 3.20719 25.7417 2.57419 27.0921 1.94119C27.0921 1.94119 27.7251 1.64579 28.9489 1.64579C29.5397 1.64579 30.2149 1.73019 30.8901 1.85679C32.3671 2.23659 44.2253 5.40158 46.7573 5.40158C48.2765 5.40158 49.7956 5.19058 51.2726 4.93738L51.4414 4.89518C51.6946 4.85298 51.9056 4.76858 52.1588 4.72638H52.201C52.201 8.31336 52.201 11.6893 52.2432 13.2929C51.7368 13.3351 51.2304 13.5039 50.7662 13.6305C50.5552 13.6727 50.3442 13.7571 50.1754 13.7993C49.0782 14.0525 48.0654 14.4323 47.0527 14.7699C45.9977 15.1497 45.0271 15.5295 44.0143 15.6983C41.9465 16.1203 39.5411 15.9093 37.0091 15.1497C35.5321 14.7277 34.3083 13.8415 33.0001 12.9131C31.6075 11.9425 30.1305 10.9298 28.3581 10.3812C27.3453 10.0858 26.5013 10.0436 25.6152 10.2546C25.5308 10.2546 23.8006 10.6344 21.986 10.6344C20.3402 10.6344 18.3146 10.339 18.1458 8.90416L18.1036 8.39776C18.2302 8.35556 18.399 8.27116 18.5256 8.22896C19.3274 7.93357 20.1292 7.76477 20.9732 7.55377C21.8172 7.38497 22.6612 7.17397 23.5052 6.96297C24.307 6.70977 25.1088 6.54097 25.8683 6.66757C26.6279 6.79417 27.5141 7.04737 28.3581 7.17397C29.2021 7.30057 30.0883 7.42717 30.9323 7.46937C31.7763 7.51157 32.6625 7.51157 33.5487 7.46937C34.3927 7.38497 35.2367 7.34277 36.1229 7.42717C35.3211 7.13177 34.4349 7.08957 33.5487 7.04737C32.7047 7.00517 31.8607 6.92077 31.0167 6.83637C30.1727 6.70977 29.3287 6.58317 28.5269 6.37217C28.1049 6.28777 27.6829 6.20337 27.3031 6.07677C26.8811 5.99237 26.4591 5.86577 25.9949 5.78137C25.0666 5.65478 24.096 5.86577 23.2942 6.16117C22.4924 6.41437 21.6906 6.62537 20.8466 6.87857C20.0026 7.13177 19.2008 7.42717 18.399 7.80697C18.3146 7.84917 18.188 7.76477 18.1036 7.84917L17.133 8.14456C17.0486 8.18676 8.73522 10.7188 4.17764 10.7188C2.57405 10.7188 2.06765 10.3812 1.98325 10.2124L1.94105 10.0858C1.94105 9.91696 2.48965 9.62156 3.96664 9.19956Z" fill="#393185"/>
</g>
<defs>
<clipPath id="clip0_723_33383">
<rect width="54" height="54" fill="white"/>
</clipPath>
</defs>
</svg>
