<svg width="80" height="80" viewBox="0 0 80 80" fill="none" xmlns="http://www.w3.org/2000/svg">
<path d="M63.7252 40.3977V20.9873C63.7252 20.7653 63.6371 20.5525 63.4801 20.3955C63.3232 20.2385 63.1103 20.1504 62.8883 20.1504H48.3128V15.4835C48.3109 13.803 47.6425 12.1918 46.4543 11.0036C45.266 9.81526 43.6548 9.14687 41.9743 9.14502H26.7501C25.0688 9.14667 23.4568 9.81564 22.2683 11.005C21.0799 12.1943 20.4121 13.8068 20.4117 15.4881V20.155H5.83927C5.61764 20.1542 5.40475 20.2414 5.24738 20.3975C5.09001 20.5535 5.00103 20.7657 5 20.9873V59.6728C4.9999 59.7827 5.02145 59.8915 5.06343 59.9931C5.1054 60.0946 5.16697 60.1869 5.24463 60.2646C5.32228 60.3423 5.41449 60.404 5.51599 60.4461C5.61749 60.4881 5.72628 60.5098 5.83615 60.5098H44.4603C45.3287 63.0602 46.8394 65.344 48.8466 67.1411C50.8539 68.9382 53.2902 70.1881 55.9207 70.7704C58.5513 71.3527 61.2875 71.2477 63.8657 70.4656C66.4439 69.6835 68.7772 68.2506 70.6409 66.305C72.5046 64.3594 73.8359 61.9665 74.5064 59.3571C75.1769 56.7476 75.1641 54.0095 74.4692 51.4064C73.7744 48.8033 72.4208 46.4231 70.5391 44.4949C68.6573 42.5668 66.3106 41.1557 63.7252 40.3977ZM59.3166 39.7661C55.8719 39.763 52.5229 40.8993 49.7914 42.998V35.2883L62.0514 32.0471V40.0057C61.1472 39.8459 60.2308 39.7657 59.3127 39.7661H59.3166ZM22.0848 15.4881C22.0858 14.2507 22.5778 13.0643 23.4528 12.1893C24.3278 11.3143 25.5142 10.8222 26.7517 10.8212H41.9743C43.2121 10.8212 44.3991 11.3129 45.2743 12.1881C46.1496 13.0633 46.6413 14.2504 46.6413 15.4881V20.155H44.2145V15.4881C44.2138 14.8941 43.9777 14.3246 43.5577 13.9045C43.1378 13.4844 42.5683 13.2481 41.9743 13.2472H26.7501C26.156 13.2478 25.5864 13.4841 25.1663 13.9043C24.7461 14.3244 24.5098 14.894 24.5092 15.4881V20.155H22.0848V15.4881ZM42.5414 20.155H26.1831V15.4881C26.1866 15.3389 26.2475 15.1967 26.3531 15.0911C26.4587 14.9855 26.6009 14.9246 26.7501 14.9211H41.9743C42.1236 14.9248 42.2656 14.9858 42.3712 15.0913C42.4767 15.1969 42.5376 15.3389 42.5414 15.4881V20.155ZM21.2478 21.8234H62.0475V30.3164L44.6967 34.9056H38.4368V32.359C38.4368 32.2491 38.4152 32.1403 38.3731 32.0388C38.331 31.9373 38.2694 31.8451 38.1917 31.7675C38.1139 31.6898 38.0217 31.6282 37.9201 31.5863C37.8186 31.5443 37.7098 31.5227 37.5999 31.5228H31.1246C31.0147 31.5227 30.9059 31.5443 30.8043 31.5863C30.7028 31.6282 30.6105 31.6898 30.5328 31.7675C30.4551 31.8451 30.3934 31.9373 30.3514 32.0388C30.3093 32.1403 30.2876 32.2491 30.2876 32.359V34.9032H24.0278L6.6762 30.3141V21.8234H21.2478ZM36.763 33.1959V38.874C36.763 39.5108 36.51 40.1215 36.0597 40.5718C35.6094 41.0221 34.9987 41.2751 34.3618 41.2751C33.725 41.2751 33.1143 41.0221 32.664 40.5718C32.2137 40.1215 31.9607 39.5108 31.9607 38.874V33.1959H36.763ZM6.6762 32.0471L18.9362 35.2883V58.8359H6.6762V32.0471ZM20.6092 58.8359V35.7347L23.705 36.553C23.7747 36.5716 23.8466 36.581 23.9189 36.581H30.2876V38.8787C30.3024 39.9496 30.7382 40.9716 31.5008 41.7236C32.2633 42.4757 33.2912 42.8974 34.3622 42.8974C35.4332 42.8974 36.4612 42.4757 37.2237 41.7236C37.9862 40.9716 38.422 39.9496 38.4368 38.8787V36.5771H44.8056C44.8776 36.5771 44.9492 36.5677 45.0187 36.5491L48.1144 35.7308V44.4789C46.2863 46.3396 44.9518 48.6273 44.2319 51.1344C43.512 53.6416 43.4295 56.2888 43.992 58.8359H20.6092ZM59.3127 69.4687C56.5408 69.4687 53.8312 68.6467 51.5264 67.1067C49.2217 65.5667 47.4254 63.3779 46.3647 60.817C45.304 58.2561 45.0265 55.4381 45.5673 52.7195C46.1081 50.0009 47.443 47.5037 49.4031 45.5438C51.3631 43.5838 53.8604 42.2491 56.579 41.7084C59.2977 41.1678 62.1156 41.4454 64.6764 42.5063C67.2373 43.5671 69.426 45.3635 70.9659 47.6684C72.5057 49.9732 73.3276 52.6828 73.3274 55.4547C73.3229 59.1702 71.8448 62.7322 69.2175 65.3594C66.5902 67.9865 63.0282 69.4643 59.3127 69.4687ZM59.3127 43.2018C56.8895 43.2018 54.5207 43.9203 52.5058 45.2666C50.491 46.6128 48.9206 48.5263 47.9932 50.7651C47.0659 53.0038 46.8232 55.4673 47.2959 57.844C47.7686 60.2206 48.9354 62.4038 50.6488 64.1173C52.3622 65.8308 54.5453 66.9978 56.9219 67.4706C59.2986 67.9435 61.762 67.7009 64.0009 66.7737C66.2397 65.8465 68.1532 64.2762 69.4996 62.2615C70.846 60.2467 71.5647 57.878 71.5649 55.4547C71.5614 52.2063 70.2694 49.092 67.9724 46.795C65.6754 44.498 62.5611 43.2053 59.3127 43.2018ZM59.3127 66.0323C57.2205 66.0323 55.1753 65.4119 53.4357 64.2495C51.6961 63.0872 50.3402 61.435 49.5396 59.5021C48.7389 57.5692 48.5295 55.4422 48.9376 53.3902C49.3458 51.3382 50.3533 49.4534 51.8327 47.974C53.3121 46.4945 55.197 45.4871 57.249 45.0789C59.3009 44.6707 61.4279 44.8802 63.3608 45.6809C65.2938 46.4815 66.9459 47.8374 68.1082 49.577C69.2706 51.3166 69.891 53.3618 69.891 55.454C69.8879 58.2586 68.7725 60.9476 66.7893 62.9308C64.8062 64.9141 62.1174 66.0298 59.3127 66.0331V66.0323ZM62.9552 58.2603C62.9542 59.0811 62.6765 59.8775 62.167 60.5209C61.6575 61.1644 60.9459 61.6173 60.1473 61.8064V63.3683C60.1507 63.4803 60.1316 63.5918 60.0911 63.6963C60.0506 63.8008 59.9895 63.896 59.9115 63.9765C59.8335 64.0569 59.7401 64.1208 59.6369 64.1645C59.5337 64.2082 59.4228 64.2307 59.3107 64.2307C59.1987 64.2307 59.0878 64.2082 58.9846 64.1645C58.8814 64.1208 58.788 64.0569 58.71 63.9765C58.632 63.896 58.5709 63.8008 58.5304 63.6963C58.4899 63.5918 58.4708 63.4803 58.4742 63.3683V61.8079C57.6767 61.6197 56.9664 61.1671 56.4589 60.5238C56.3258 60.3495 56.2664 60.13 56.2934 59.9125C56.3205 59.6949 56.4318 59.4966 56.6035 59.3603C56.7752 59.224 56.9935 59.1604 57.2116 59.1834C57.4296 59.2063 57.63 59.3139 57.7695 59.4831C57.9768 59.744 58.247 59.9481 58.5548 60.0762C58.8625 60.2043 59.1977 60.2522 59.529 60.2154C59.8603 60.1786 60.1769 60.0583 60.449 59.8657C60.7211 59.6732 60.9399 59.4148 61.0849 59.1147C61.2299 58.8145 61.2963 58.4825 61.278 58.1497C61.2597 57.8168 61.1571 57.4941 60.98 57.2117C60.803 56.9293 60.5571 56.6965 60.2655 56.535C59.9738 56.3735 59.646 56.2887 59.3127 56.2886C58.4194 56.2888 57.5572 55.9608 56.8899 55.3669C56.2227 54.773 55.797 53.9546 55.6936 53.0673C55.5903 52.18 55.8167 51.2857 56.3296 50.5544C56.8425 49.8231 57.6063 49.3058 58.4757 49.1007V47.5412C58.4723 47.4292 58.4914 47.3177 58.5319 47.2132C58.5725 47.1087 58.6335 47.0134 58.7115 46.933C58.7896 46.8526 58.8829 46.7886 58.9861 46.7449C59.0893 46.7013 59.2002 46.6788 59.3123 46.6788C59.4243 46.6788 59.5353 46.7013 59.6385 46.7449C59.7417 46.7886 59.835 46.8526 59.913 46.933C59.9911 47.0134 60.0521 47.1087 60.0926 47.2132C60.1331 47.3177 60.1523 47.4292 60.1488 47.5412V49.1015C60.9479 49.2878 61.6602 49.7394 62.1696 50.3826C62.3076 50.5568 62.3708 50.7787 62.3452 50.9995C62.3196 51.2202 62.2073 51.4218 62.0331 51.5598C61.8589 51.6978 61.637 51.761 61.4162 51.7354C61.1954 51.7098 60.9939 51.5975 60.8559 51.4233C60.6487 51.1618 60.3784 50.9571 60.0705 50.8286C59.7626 50.7001 59.4271 50.6519 59.0954 50.6885C58.7638 50.7251 58.4468 50.8454 58.1744 51.038C57.9019 51.2306 57.6828 51.4892 57.5376 51.7896C57.3925 52.0901 57.326 52.4225 57.3444 52.7556C57.3628 53.0888 57.4656 53.4118 57.643 53.6944C57.8204 53.977 58.0667 54.2099 58.3587 54.3713C58.6508 54.5326 58.979 54.6172 59.3127 54.617C60.2786 54.6183 61.2046 55.0026 61.8875 55.6858C62.5704 56.369 62.9544 57.2944 62.9552 58.2603Z" fill="#393185"/>
</svg>
