<svg width="54" height="54" viewBox="0 0 54 54" fill="none" xmlns="http://www.w3.org/2000/svg">
<path fill-rule="evenodd" clip-rule="evenodd" d="M8.6954 30.1445C8.80427 29.5994 9.02748 29.0835 9.35031 28.6309C9.67314 28.1783 10.0883 27.7993 10.5683 27.5188V23.3625V23.3069C10.8703 19.1613 12.7252 15.2823 15.7625 12.4446C18.7999 9.60703 22.7959 8.01979 26.9525 8C31.0862 7.9999 35.0631 9.58212 38.067 12.4219C41.0974 15.2728 42.9423 19.1609 43.2339 23.3114V23.3669L43.2289 27.4127C43.7594 27.6821 44.2217 28.0683 44.5813 28.5423C44.9408 29.0162 45.1881 29.5656 45.3046 30.149C46.3273 30.1947 47.327 30.4672 48.2314 30.9468C49.3678 31.5474 50.3204 32.4443 50.9883 33.5425C51.6499 34.6271 52 35.873 52 37.1435C52 38.414 51.6499 39.66 50.9883 40.7446C50.3301 41.8263 49.3838 42.7036 48.2553 43.278C47.3391 43.7453 46.3318 44.0066 45.3041 44.0436C45.1266 44.9333 44.6463 45.734 43.9449 46.3094C43.2435 46.8848 42.3644 47.1993 41.4572 47.1994H40.0965C39.5815 47.1994 39.0715 47.098 38.5957 46.901C38.1199 46.7039 37.6875 46.415 37.3234 46.0508C36.9592 45.6866 36.6704 45.2542 36.4734 44.7784C36.2764 44.3025 36.1751 43.7925 36.1752 43.2775C36.1752 39.1761 36.2502 35.0048 36.1752 30.9124C36.1756 30.2099 36.3645 29.5203 36.722 28.9157C37.0796 28.311 37.5928 27.8133 38.2081 27.4744L38.1831 23.4703C37.9403 20.6526 36.6488 18.0287 34.5641 16.1177C32.4794 14.2066 29.7534 13.1476 26.9253 13.1501C24.0972 13.1526 21.373 14.2165 19.2917 16.1312C17.2104 18.046 15.9236 20.6722 15.6858 23.4903V27.4683C16.3044 27.806 16.8207 28.3041 17.1805 28.9102C17.5402 29.5163 17.7301 30.2081 17.7303 30.9129V43.273C17.7305 43.7881 17.6291 44.2981 17.4321 44.774C17.2351 45.2499 16.9462 45.6823 16.582 46.0465C16.2178 46.4108 15.7854 46.6996 15.3095 46.8967C14.8336 47.0937 14.3235 47.1951 13.8084 47.1949C13.3773 47.1949 12.9423 47.201 12.5117 47.1949C11.6099 47.1876 10.7381 46.8698 10.0431 46.295C9.34817 45.7202 8.87241 44.9236 8.69595 44.0392C7.6679 44.0022 6.66041 43.7407 5.74412 43.273C4.61574 42.6989 3.66958 41.8218 3.01175 40.7401C2.35006 39.6555 2 38.4096 2 37.1391C2 35.8686 2.35006 34.6226 3.01175 33.5381C3.6796 32.4399 4.63221 31.5429 5.76857 30.9424C6.67297 30.4627 7.6727 30.1902 8.6954 30.1445ZM10.8411 29.2062C10.6172 29.4293 10.4397 29.6946 10.3187 29.9867C10.1977 30.2787 10.1356 30.5918 10.136 30.9079V43.273C10.136 43.5891 10.1982 43.9021 10.3191 44.1942C10.44 44.4862 10.6173 44.7515 10.8408 44.9751C11.0643 45.1986 11.3297 45.3758 11.6217 45.4968C11.9137 45.6177 12.2267 45.6799 12.5428 45.6798H13.8084C14.1245 45.6799 14.4375 45.6177 14.7296 45.4968C15.0216 45.3758 15.287 45.1986 15.5105 44.9751C15.734 44.7515 15.9113 44.4862 16.0322 44.1942C16.1531 43.9021 16.2153 43.5891 16.2152 43.273V30.9079C16.2151 30.2696 15.9615 29.6575 15.5102 29.2062C15.0588 28.7549 14.4467 28.5013 13.8084 28.5011H12.5428C12.2267 28.5007 11.9136 28.5628 11.6216 28.6838C11.3295 28.8047 11.0643 28.9823 10.8411 29.2062ZM12.0834 27.0127C12.2359 26.9948 12.3893 26.9859 12.5428 26.986H13.8084C13.9307 26.986 14.0514 26.9916 14.1707 27.0027V23.4597L14.1735 23.4003C14.4236 20.192 15.873 17.1956 18.233 15.0079C20.593 12.8202 23.6904 11.6017 26.9084 11.5951C30.1264 11.5884 33.2289 12.7941 35.5979 14.972C37.9669 17.1499 39.4287 20.1403 39.6921 23.3475V23.4031L39.7143 27.0033C39.8402 26.991 39.9676 26.9849 40.0965 26.9849H41.46C41.5483 26.9849 41.6361 26.9877 41.7227 26.9938L41.7277 23.4136C41.4608 19.6441 39.7841 16.1133 37.0314 13.5242C34.3072 10.9496 30.7008 9.51567 26.9525 9.51675C23.1857 9.53517 19.5641 10.9716 16.8086 13.5399C14.0532 16.1083 12.3661 19.6202 12.0834 23.3764V27.011V27.0127ZM45.3818 42.5219C46.145 42.4784 46.8908 42.2767 47.572 41.9296C48.4507 41.483 49.1879 40.8006 49.701 39.959C50.2159 39.1085 50.4881 38.1333 50.4881 37.1391C50.4881 36.1449 50.2159 35.1697 49.701 34.3192C49.1745 33.4562 48.4245 32.7517 47.5303 32.2802C46.8649 31.9273 46.1331 31.7172 45.3818 31.6635V42.5219ZM37.6897 30.9324V43.273C37.6895 43.5891 37.7516 43.9021 37.8725 44.1942C37.9933 44.4863 38.1705 44.7517 38.394 44.9752C38.6175 45.1987 38.8828 45.376 39.1749 45.4969C39.4669 45.6178 39.7799 45.68 40.096 45.6798H41.4594C41.7755 45.6799 42.0885 45.6177 42.3805 45.4968C42.6726 45.3758 42.9379 45.1986 43.1614 44.9751C43.3849 44.7515 43.5622 44.4862 43.6831 44.1942C43.8041 43.9021 43.8663 43.5891 43.8662 43.273V30.9079C43.866 30.2696 43.6124 29.6575 43.1611 29.2062C42.7098 28.7549 42.0977 28.5013 41.4594 28.5011H40.0965C39.7805 28.5011 39.4676 28.5634 39.1756 28.6843C38.8836 28.8053 38.6183 28.9826 38.3949 29.2061C38.1714 29.4296 37.9942 29.6949 37.8733 29.9869C37.7524 30.2789 37.6902 30.5919 37.6903 30.9079L37.6897 30.9324ZM6.43083 41.9296C7.11194 42.2767 7.85775 42.4784 8.62095 42.5219V31.6635C7.86967 31.7172 7.13789 31.9273 6.4725 32.2802C5.578 32.7523 4.82793 33.4576 4.30182 34.3214C3.78692 35.1719 3.51471 36.1471 3.51471 37.1413C3.51471 38.1355 3.78692 39.1107 4.30182 39.9612C4.8151 40.8022 5.55226 41.4837 6.43083 41.9296Z" fill="#393185"/>
</svg>
