<svg width="54" height="54" viewBox="0 0 54 54" fill="none" xmlns="http://www.w3.org/2000/svg">
<g clip-path="url(#clip0_774_49679)">
<path d="M52.7946 36.4278L50.1279 34.8905C49.5717 34.5701 48.9228 34.4856 48.2994 34.6522C47.6766 34.8188 47.1564 35.2167 46.8354 35.7713L46.2028 36.865L38.1752 32.238C37.2141 31.684 35.9111 31.5498 34.8475 31.8922L23.2048 35.0067C22.2726 35.256 21.4922 35.8552 21.0067 36.6944C20.5212 37.5336 20.392 38.5076 20.6417 39.4382C20.6603 39.5071 20.6806 39.5742 20.7026 39.6413L9.06107 32.9315C7.14689 31.8286 4.68986 32.4856 3.58503 34.3965C3.05145 35.3196 2.91009 36.3977 3.18817 37.4324C3.46568 38.4677 4.12788 39.3307 5.05253 39.8633L22.0044 49.6338C22.7662 50.0728 23.6098 50.2972 24.4631 50.2972C24.8878 50.2972 25.3159 50.2417 25.7366 50.1289L37.3485 47.0231C38.1185 46.8524 38.3178 46.8461 38.8224 47.137L39.9029 47.7599L39.2702 48.8536C38.6057 50.0023 39.0014 51.4765 40.1526 52.1405L42.8193 53.6778C43.189 53.8913 43.6003 54 44.0174 54C44.2277 54 44.4392 53.9722 44.6478 53.9167C45.2706 53.7501 45.7908 53.3522 46.1118 52.7976L53.6775 39.7153C54.3421 38.5666 53.9464 37.0918 52.7952 36.4284L52.7946 36.4278ZM39.6926 45.6309C38.6312 45.0196 37.918 45.1144 36.9517 45.3296C36.9395 45.3325 36.9273 45.3354 36.9152 45.3382L25.2852 48.4493C24.4695 48.6674 23.6132 48.5534 22.8751 48.1283L5.9233 38.3578C5.40188 38.0571 5.0282 37.5689 4.87061 36.9825C4.71303 36.396 4.7924 35.7864 5.09366 35.2658C5.71878 34.1849 7.10807 33.8135 8.1903 34.4376L20.6249 41.6048C21.9905 42.3914 22.5837 42.5921 23.6364 42.3139L25.0338 41.9449C25.0338 41.9449 25.0355 41.9443 25.0367 41.9438L33.804 39.6262C34.2687 39.503 34.5462 39.0276 34.4228 38.5632C34.2994 38.0993 33.8237 37.8223 33.3579 37.9454L24.5819 40.2653C23.5779 40.5279 22.5866 39.968 22.3242 38.9888C22.195 38.5071 22.2628 38.001 22.5154 37.5643C22.768 37.1276 23.1729 36.8159 23.6555 36.6869L35.3208 33.5666C35.337 33.5619 35.3532 33.5573 35.3694 33.5521C35.9685 33.3543 36.7639 33.433 37.3039 33.7447L45.3314 38.3717L40.7725 46.2544L39.692 45.6315L39.6926 45.6309ZM52.1683 38.8448L44.6026 51.9271C44.5145 52.0798 44.3697 52.1897 44.1964 52.236C44.0232 52.2822 43.843 52.2591 43.6901 52.1712L41.0233 50.6339C40.7041 50.4499 40.5946 50.041 40.7789 49.7223L48.3446 36.6401C48.4327 36.4874 48.5775 36.3775 48.7507 36.3312C48.8092 36.3156 48.8689 36.3075 48.9274 36.3075C49.0427 36.3075 49.1557 36.3376 49.2571 36.3954L51.9239 37.9327C52.2431 38.1167 52.3526 38.5261 52.1683 38.8448ZM12.4648 30.1842C14.6385 32.3543 17.493 33.4388 20.3486 33.4388C23.2042 33.4388 26.0593 32.3537 28.2324 30.1842C32.5793 25.8441 32.5793 18.7827 28.2324 14.4432C23.8849 10.1036 16.8116 10.1036 12.4648 14.4432C8.1173 18.7833 8.1173 25.8447 12.4648 30.1842ZM14.7109 29.8308C15.5446 27.4641 17.7873 25.8539 20.3439 25.8522C20.3457 25.8522 20.3468 25.8522 20.3486 25.8522C20.3503 25.8522 20.3515 25.8522 20.3532 25.8522C22.9099 25.8539 25.1526 27.4647 25.9863 29.8308C22.6579 32.3219 18.0399 32.3219 14.7115 29.8308H14.7109ZM17.3927 21.1622C17.3927 19.5352 18.7189 18.2113 20.3486 18.2113C21.9783 18.2113 23.3044 19.5352 23.3044 21.1622C23.3044 22.7891 21.9812 24.1101 20.3532 24.113C20.3515 24.113 20.3503 24.113 20.3486 24.113C20.3468 24.113 20.3457 24.113 20.3439 24.113C18.716 24.1107 17.3927 22.788 17.3927 21.1622ZM13.6965 15.6728C15.5307 13.8417 17.9396 12.9267 20.3486 12.9267C22.7575 12.9267 25.1671 13.8422 27.0007 15.6728C30.5463 19.2125 30.6639 24.8979 27.3547 28.5804C26.5482 26.836 25.1242 25.4745 23.3879 24.7336C24.4011 23.873 25.046 22.5913 25.046 21.1622C25.046 18.5762 22.9389 16.4727 20.3486 16.4727C17.7583 16.4727 15.6506 18.5762 15.6506 21.1622C15.6506 22.5913 16.2954 23.8724 17.3087 24.7336C15.5724 25.4745 14.1484 26.836 13.3419 28.5804C10.0326 24.8973 10.1508 19.2125 13.6965 15.6728ZM19.4778 7.85836V2.8693C19.4778 2.38925 19.8677 2 20.3486 2C20.8294 2 21.2193 2.38925 21.2193 2.8693V7.85779C21.2193 8.33784 20.8294 8.72708 20.3486 8.72708C19.8677 8.72708 19.4778 8.33842 19.4778 7.85836ZM29.9716 12.7075C29.6315 12.368 29.6315 11.8173 29.9716 11.4778L33.5051 7.95033C33.8452 7.61082 34.3967 7.61082 34.7368 7.95033C35.0769 8.28983 35.0769 8.84045 34.7368 9.17995L31.2033 12.7075C31.033 12.8769 30.8105 12.9619 30.5875 12.9619C30.3644 12.9619 30.142 12.8769 29.9716 12.7075ZM34.8283 21.4444H39.8258C40.3067 21.4444 40.6966 21.8336 40.6966 22.3137C40.6966 22.7938 40.3067 23.183 39.8258 23.183H34.8283C34.3475 23.183 33.9576 22.7938 33.9576 22.3137C33.9576 21.8336 34.3475 21.4444 34.8283 21.4444ZM5.95979 9.17937C5.61972 8.83987 5.61972 8.28925 5.95979 7.94975C6.29987 7.61024 6.85142 7.61024 7.1915 7.94975L10.725 11.4773C11.065 11.8168 11.065 12.3674 10.725 12.7069C10.5546 12.8764 10.3322 12.9614 10.1091 12.9614C9.88606 12.9614 9.66359 12.8764 9.49326 12.7069L5.95979 9.17937ZM5.86826 23.1836H0.870766C0.389904 23.1836 0 22.7943 0 22.3143C0 21.8342 0.389904 21.445 0.870766 21.445H5.86826C6.34912 21.445 6.73902 21.8342 6.73902 22.3143C6.73902 22.7943 6.34912 23.1836 5.86826 23.1836Z" fill="#393185"/>
</g>
<defs>
<clipPath id="clip0_774_49679">
<rect width="54" height="54" fill="white"/>
</clipPath>
</defs>
</svg>
