<svg width="56" height="174" viewBox="0 0 56 174" fill="none" xmlns="http://www.w3.org/2000/svg">
<path d="M56 0H12C5.37258 0 0 5.37258 0 12V162C0 168.627 5.37258 174 12 174H56V0Z" fill="#393185"/>
<path d="M21.84 22.9301C21.84 22.1301 21.984 21.3781 22.272 20.6741C22.5707 19.9808 22.9867 19.3675 23.52 18.8341C24.0533 18.3115 24.6667 17.9008 25.36 17.6021C26.064 17.3141 26.8213 17.1701 27.632 17.1701C28.4533 17.1701 29.2107 17.3195 29.904 17.6181C30.608 17.9168 31.2213 18.3328 31.744 18.8661C32.2773 19.3995 32.688 20.0235 32.976 20.7381C33.2747 21.4528 33.424 22.2261 33.424 23.0581C33.424 23.9861 33.248 24.8395 32.896 25.6181C32.5547 26.3968 32.0693 27.0421 31.44 27.5541L29.968 26.0821C30.4267 25.7301 30.7787 25.2928 31.024 24.7701C31.2693 24.2475 31.392 23.6715 31.392 23.0421C31.392 22.3275 31.232 21.6928 30.912 21.1381C30.6027 20.5941 30.1653 20.1675 29.6 19.8581C29.0453 19.5488 28.3947 19.3941 27.648 19.3941C26.9013 19.3941 26.24 19.5435 25.664 19.8421C25.0987 20.1515 24.656 20.5675 24.336 21.0901C24.016 21.6235 23.856 22.2315 23.856 22.9141C23.856 23.6181 23.984 24.2208 24.24 24.7221C24.5067 25.2235 24.8907 25.6075 25.392 25.8741C25.904 26.1408 26.528 26.2741 27.264 26.2741L26.288 27.6981L26.336 22.7861L28.224 22.7861L28.224 28.5141L27.92 28.5141C26.576 28.5141 25.4507 28.2741 24.544 27.7941C23.648 27.3141 22.9707 26.6528 22.512 25.8101C22.064 24.9781 21.84 24.0181 21.84 22.9301ZM21.84 33.6552C21.84 32.8446 22.0107 32.1246 22.352 31.4952C22.704 30.8659 23.184 30.3646 23.792 29.9912C24.4 29.6286 25.0933 29.4472 25.872 29.4472C26.64 29.4472 27.3227 29.6232 27.92 29.9752C28.528 30.3379 29.008 30.8286 29.36 31.4472C29.7227 32.0659 29.904 32.7539 29.904 33.5112C29.904 34.2579 29.7333 34.9139 29.392 35.4793C29.0613 36.0552 28.6027 36.5032 28.016 36.8232C27.44 37.1539 26.784 37.3192 26.048 37.3192C25.9093 37.3192 25.7653 37.3086 25.616 37.2872C25.4773 37.2766 25.3173 37.2499 25.136 37.2072L25.12 30.7112L26.688 30.7112L26.704 36.2312L26.048 35.3832C26.5067 35.3619 26.8907 35.2766 27.2 35.1272C27.5093 34.9886 27.744 34.7806 27.904 34.5032C28.0747 34.2366 28.16 33.9059 28.16 33.5112C28.16 33.0952 28.064 32.7326 27.872 32.4232C27.6907 32.1139 27.4293 31.8739 27.088 31.7032C26.7573 31.5432 26.3627 31.4632 25.904 31.4632C25.4347 31.4632 25.024 31.5486 24.672 31.7192C24.3307 31.9006 24.064 32.1566 23.872 32.4872C23.6907 32.8179 23.6 33.2019 23.6 33.6392C23.6 34.0339 23.664 34.3912 23.792 34.7112C23.9307 35.0312 24.1333 35.3086 24.4 35.5432L23.168 36.7752C22.7307 36.4019 22.4 35.9432 22.176 35.3992C21.952 34.8659 21.84 34.2846 21.84 33.6552ZM22 39.5796L32.944 39.5796L32.944 41.6756L22 41.6756L22 39.5796ZM27.888 37.7716L29.728 37.7716L29.728 43.4836L27.888 43.4836L27.888 37.7716ZM26.336 51.0462L33.248 46.6942L33.248 49.2062L27.712 52.5822L27.712 51.1422L33.248 54.5183L33.248 56.9983L26.336 52.5982L26.336 51.0462ZM22 50.7582L27.504 50.7582L27.504 52.9502L22 52.9502L22 50.7582ZM21.84 59.5287C21.84 58.7501 22.016 58.0461 22.368 57.4167C22.7307 56.7981 23.216 56.3021 23.824 55.9287C24.4427 55.5661 25.1307 55.3847 25.888 55.3847C26.6453 55.3847 27.3227 55.5661 27.92 55.9287C28.528 56.2914 29.008 56.7874 29.36 57.4167C29.7227 58.0461 29.904 58.7447 29.904 59.5127C29.904 60.3021 29.7227 61.0061 29.36 61.6247C29.008 62.2541 28.528 62.7501 27.92 63.1127C27.3227 63.4754 26.6453 63.6568 25.888 63.6568C25.1307 63.6568 24.4427 63.4754 23.824 63.1127C23.216 62.7501 22.7307 62.2541 22.368 61.6247C22.016 61.0061 21.84 60.3074 21.84 59.5287ZM23.792 59.5127C23.792 59.9074 23.8773 60.2541 24.048 60.5527C24.2293 60.8621 24.4747 61.0967 24.784 61.2567C25.104 61.4274 25.4667 61.5127 25.872 61.5127C26.2773 61.5127 26.6347 61.4274 26.944 61.2567C27.2533 61.0861 27.4933 60.8514 27.664 60.5527C27.8453 60.2541 27.936 59.9074 27.936 59.5127C27.936 59.1287 27.8453 58.7874 27.664 58.4887C27.4933 58.1901 27.2533 57.9554 26.944 57.7847C26.6347 57.6141 26.2773 57.5287 25.872 57.5287C25.4667 57.5287 25.104 57.6141 24.784 57.7847C24.4747 57.9554 24.2293 58.1901 24.048 58.4887C23.8773 58.7874 23.792 59.1287 23.792 59.5127ZM21.84 68.3021C21.84 67.6195 21.984 67.0115 22.272 66.4781C22.56 65.9555 22.96 65.5448 23.472 65.2461C23.984 64.9475 24.576 64.7981 25.248 64.7981L29.728 64.7981L29.728 66.9101L25.296 66.9101C24.976 66.9101 24.6987 66.9635 24.464 67.0701C24.24 67.1768 24.0693 67.3368 23.952 67.5501C23.8347 67.7635 23.776 68.0141 23.776 68.3021C23.776 68.7395 23.9093 69.0808 24.176 69.3261C24.4427 69.5715 24.816 69.6941 25.296 69.6941L29.728 69.6941L29.728 71.7901L25.248 71.7901C24.5653 71.7901 23.968 71.6408 23.456 71.3421C22.944 71.0541 22.544 70.6435 22.256 70.1101C21.9787 69.5875 21.84 68.9848 21.84 68.3021ZM22 73.4592L29.728 73.4592L29.728 75.5552L22 75.5552L22 73.4592ZM26.272 75.5552L26.816 74.7392C27.7653 74.8352 28.512 75.1126 29.056 75.5712C29.6107 76.0299 29.888 76.6912 29.888 77.5552C29.888 77.9286 29.824 78.2646 29.696 78.5632C29.5787 78.8619 29.3813 79.1339 29.104 79.3793L27.6 78.0672C27.728 77.9499 27.824 77.8059 27.888 77.6352C27.952 77.4752 27.984 77.2886 27.984 77.0752C27.984 76.6272 27.84 76.2592 27.552 75.9712C27.2747 75.6939 26.848 75.5552 26.272 75.5552ZM22 83.7457L33.248 83.7457L33.248 85.9217L22 85.9217L22 83.7457ZM22 90.8017L33.248 90.8017L33.248 92.9778L22 92.9778L22 90.8017ZM26.848 85.1217L28.768 85.1217L28.768 91.4097L26.848 91.4097L26.848 85.1217ZM21.84 98.285C21.84 97.581 22.016 96.9463 22.368 96.381C22.72 95.8157 23.2 95.373 23.808 95.053C24.416 94.733 25.0987 94.573 25.856 94.573C26.624 94.573 27.312 94.733 27.92 95.053C28.528 95.373 29.008 95.8157 29.36 96.381C29.712 96.9463 29.888 97.581 29.888 98.285C29.888 98.8397 29.776 99.3357 29.552 99.773C29.328 100.21 29.0133 100.557 28.608 100.813C28.2133 101.08 27.7653 101.224 27.264 101.245L24.48 101.245C23.968 101.224 23.5147 101.08 23.12 100.813C22.7253 100.557 22.4107 100.21 22.176 99.773C21.952 99.3357 21.84 98.8397 21.84 98.285ZM23.776 98.669C23.776 99.2557 23.968 99.7303 24.352 100.093C24.7467 100.456 25.2533 100.637 25.872 100.637C26.2773 100.637 26.6347 100.552 26.944 100.381C27.264 100.221 27.5093 99.9917 27.68 99.693C27.8613 99.405 27.952 99.0637 27.952 98.669C27.952 98.285 27.8613 97.9437 27.68 97.645C27.5093 97.357 27.264 97.1277 26.944 96.957C26.6347 96.797 26.2773 96.717 25.872 96.717C25.456 96.717 25.088 96.797 24.768 96.957C24.4587 97.1277 24.2133 97.357 24.032 97.645C23.8613 97.9437 23.776 98.285 23.776 98.669ZM22 100.525L24.08 100.525L25.968 100.861L27.824 100.525L29.728 100.525L29.728 102.605L22 102.605L22 100.525ZM22 109.659L26.432 109.659C26.8907 109.659 27.264 109.515 27.552 109.227C27.84 108.939 27.984 108.566 27.984 108.107C27.984 107.809 27.92 107.542 27.792 107.307C27.664 107.073 27.4827 106.886 27.248 106.747C27.0133 106.619 26.7413 106.555 26.432 106.555L26.848 105.739C27.456 105.739 27.984 105.867 28.432 106.123C28.8907 106.39 29.248 106.753 29.504 107.211C29.76 107.681 29.888 108.209 29.888 108.795C29.888 109.361 29.744 109.867 29.456 110.315C29.1787 110.763 28.8107 111.115 28.352 111.371C27.904 111.627 27.4187 111.755 26.896 111.755L22 111.755L22 109.659ZM22 104.459L29.728 104.459L29.728 106.555L22 106.555L22 104.459ZM21.84 116.708C21.84 115.993 22.016 115.353 22.368 114.788C22.72 114.222 23.2 113.774 23.808 113.444C24.416 113.124 25.0987 112.964 25.856 112.964C26.624 112.964 27.312 113.124 27.92 113.444C28.528 113.774 29.008 114.217 29.36 114.772C29.712 115.337 29.888 115.982 29.888 116.708C29.888 117.262 29.776 117.758 29.552 118.196C29.328 118.644 29.0133 119.001 28.608 119.268C28.2133 119.545 27.7653 119.694 27.264 119.716L24.512 119.716C24.0107 119.694 23.5573 119.55 23.152 119.284C22.7467 119.017 22.4267 118.66 22.192 118.212C21.9573 117.764 21.84 117.262 21.84 116.708ZM23.776 117.06C23.776 117.454 23.8613 117.796 24.032 118.084C24.2133 118.382 24.4587 118.612 24.768 118.772C25.088 118.942 25.456 119.028 25.872 119.028C26.2773 119.028 26.6347 118.942 26.944 118.772C27.264 118.612 27.5093 118.382 27.68 118.084C27.8613 117.796 27.952 117.46 27.952 117.076C27.952 116.681 27.8613 116.334 27.68 116.036C27.4987 115.748 27.2533 115.518 26.944 115.348C26.6347 115.188 26.2773 115.108 25.872 115.108C25.456 115.108 25.088 115.188 24.768 115.348C24.4587 115.518 24.2133 115.753 24.032 116.052C23.8613 116.35 23.776 116.686 23.776 117.06ZM22 120.996L22 118.916L24.08 118.916L25.968 119.252L27.824 118.9L33.568 118.9L33.568 120.996L22 120.996ZM21.84 127.138C21.84 126.583 21.9573 126.082 22.192 125.634C22.4267 125.186 22.7467 124.829 23.152 124.562C23.5573 124.295 24.0107 124.151 24.512 124.13L27.264 124.13C27.7653 124.151 28.2133 124.295 28.608 124.562C29.0133 124.839 29.328 125.202 29.552 125.65C29.776 126.098 29.888 126.594 29.888 127.138C29.888 127.853 29.712 128.493 29.36 129.058C29.008 129.623 28.528 130.066 27.92 130.386C27.312 130.717 26.624 130.882 25.856 130.882C25.0987 130.882 24.416 130.717 23.808 130.386C23.2 130.066 22.72 129.623 22.368 129.058C22.016 128.493 21.84 127.853 21.84 127.138ZM22 122.85L33.568 122.85L33.568 124.946L27.824 124.946L25.968 124.594L24.08 124.93L22 124.93L22 122.85ZM23.776 126.786C23.776 127.17 23.8613 127.506 24.032 127.794C24.2133 128.093 24.4587 128.322 24.768 128.482C25.088 128.653 25.456 128.738 25.872 128.738C26.2773 128.738 26.6347 128.653 26.944 128.482C27.264 128.322 27.5093 128.093 27.68 127.794C27.8613 127.495 27.952 127.154 27.952 126.77C27.952 126.386 27.8613 126.045 27.68 125.746C27.5093 125.458 27.264 125.229 26.944 125.058C26.6347 124.898 26.2773 124.818 25.872 124.818C25.456 124.818 25.088 124.898 24.768 125.058C24.4587 125.229 24.2133 125.463 24.032 125.762C23.8613 126.061 23.776 126.402 23.776 126.786ZM21.84 135.888C21.84 135.109 22.016 134.405 22.368 133.776C22.7307 133.157 23.216 132.661 23.824 132.288C24.4427 131.925 25.1307 131.744 25.888 131.744C26.6453 131.744 27.3227 131.925 27.92 132.288C28.528 132.651 29.008 133.147 29.36 133.776C29.7227 134.405 29.904 135.104 29.904 135.872C29.904 136.661 29.7227 137.365 29.36 137.984C29.008 138.613 28.528 139.109 27.92 139.472C27.3227 139.835 26.6453 140.016 25.888 140.016C25.1307 140.016 24.4427 139.835 23.824 139.472C23.216 139.109 22.7307 138.613 22.368 137.984C22.016 137.365 21.84 136.667 21.84 135.888ZM23.792 135.872C23.792 136.267 23.8773 136.613 24.048 136.912C24.2293 137.221 24.4747 137.456 24.784 137.616C25.104 137.787 25.4667 137.872 25.872 137.872C26.2773 137.872 26.6347 137.787 26.944 137.616C27.2533 137.445 27.4933 137.211 27.664 136.912C27.8453 136.613 27.936 136.267 27.936 135.872C27.936 135.488 27.8453 135.147 27.664 134.848C27.4933 134.549 27.2533 134.315 26.944 134.144C26.6347 133.973 26.2773 133.888 25.872 133.888C25.4667 133.888 25.104 133.973 24.784 134.144C24.4747 134.315 24.2293 134.549 24.048 134.848C23.8773 135.147 23.792 135.488 23.792 135.872ZM21.84 144.997C21.84 144.219 22.016 143.515 22.368 142.885C22.7307 142.267 23.216 141.771 23.824 141.397C24.4427 141.035 25.1307 140.853 25.888 140.853C26.6453 140.853 27.3227 141.035 27.92 141.397C28.528 141.76 29.008 142.256 29.36 142.885C29.7227 143.515 29.904 144.213 29.904 144.981C29.904 145.771 29.7227 146.475 29.36 147.093C29.008 147.723 28.528 148.219 27.92 148.581C27.3227 148.944 26.6453 149.126 25.888 149.126C25.1307 149.126 24.4427 148.944 23.824 148.581C23.216 148.219 22.7307 147.723 22.368 147.093C22.016 146.475 21.84 145.776 21.84 144.997ZM23.792 144.981C23.792 145.376 23.8773 145.723 24.048 146.021C24.2293 146.331 24.4747 146.565 24.784 146.725C25.104 146.896 25.4667 146.981 25.872 146.981C26.2773 146.981 26.6347 146.896 26.944 146.725C27.2533 146.555 27.4933 146.32 27.664 146.021C27.8453 145.723 27.936 145.376 27.936 144.981C27.936 144.597 27.8453 144.256 27.664 143.957C27.4933 143.659 27.2533 143.424 26.944 143.253C26.6347 143.083 26.2773 142.997 25.872 142.997C25.4667 142.997 25.104 143.083 24.784 143.253C24.4747 143.424 24.2293 143.659 24.048 143.957C23.8773 144.256 23.792 144.597 23.792 144.981ZM22 155.403L25.984 152.411L29.728 155.387L29.728 157.803L25.504 154.315L26.528 154.395L22 157.963L22 155.403ZM22 150.475L33.568 150.475L33.568 152.571L22 152.571L22 150.475Z" fill="white"/>
</svg>
