<svg width="60" height="60" viewBox="0 0 60 60" fill="none" xmlns="http://www.w3.org/2000/svg">
<g clip-path="url(#clip0_774_49705)">
<path d="M42.2705 36.6268C42.1809 36.3582 42.36 35.9999 42.5392 35.8208L53.4645 25.7014C53.8227 25.3432 53.8227 24.8059 53.5541 24.4477C53.375 24.2686 53.1959 24.1791 53.0168 24.1791L38.6884 22.4776C38.4197 22.4776 38.1511 22.2985 37.972 22.0298L31.2556 9.40293C30.9869 8.95517 30.4496 8.86562 30.0018 9.13427C29.9123 9.22383 29.8227 9.31338 29.7332 9.40293L23.0168 22.0298C22.8377 22.2985 22.6586 22.4776 22.3003 22.4776L7.97199 24.1791C7.52422 24.2686 7.16602 24.7164 7.16602 25.1641C7.16602 25.3432 7.25557 25.6119 7.43467 25.7014L18.36 35.8208C18.6287 35.9999 18.7183 36.3582 18.6287 36.6268L16.1212 50.9552C16.0317 51.4029 16.3899 51.9402 16.8377 52.0298C17.0168 52.0298 17.1959 52.0298 17.375 51.9402L29.9123 45.2238C30.1809 45.0447 30.4496 45.0447 30.7183 45.2238L43.3451 51.9402C43.7929 52.2089 44.3302 52.0298 44.5989 51.582C44.778 51.3134 44.778 51.0447 44.778 50.8656L42.2705 36.6268ZM31.7033 43.5223C30.8974 43.0746 30.0018 43.0746 29.1959 43.5223L18.2705 49.3432L20.4197 36.8955C20.5989 35.9999 20.2406 35.1044 19.6138 34.4776L10.1212 25.7014L22.4794 24.2686C23.375 24.1791 24.0914 23.6417 24.5391 22.8358L30.4496 11.7313L36.36 22.8358C36.8078 23.6417 37.5242 24.1791 38.4197 24.2686L50.778 25.7014L41.2854 34.4776C40.569 35.1044 40.3003 35.9999 40.4794 36.8955L42.7183 49.3432L31.7033 43.5223Z" fill="#393185"/>
<path d="M30.4493 30.4476C32.4194 30.4476 34.0314 28.8357 34.0314 26.8655C34.0314 24.8954 32.4194 23.2834 30.4493 23.2834C28.4791 23.2834 26.8672 24.8954 26.8672 26.8655C26.8672 28.8357 28.4791 30.4476 30.4493 30.4476ZM30.4493 25.0745C31.4344 25.0745 32.2403 25.8805 32.2403 26.8655C32.2403 27.8506 31.4344 28.6566 30.4493 28.6566C29.4642 28.6566 28.6582 27.8506 28.6582 26.8655C28.6582 25.8805 29.4642 25.0745 30.4493 25.0745Z" fill="#393185"/>
<path d="M30.4493 32.2388C26.509 32.2388 23.2852 35.4627 23.2852 39.4029V42.985C23.2852 43.5224 23.6434 43.8806 24.1807 43.8806C24.718 43.8806 25.0762 43.5224 25.0762 42.985V39.4029C25.0762 36.4477 27.4941 34.0298 30.4493 34.0298C33.4046 34.0298 35.8225 36.4477 35.8225 39.4029V42.985C35.8225 43.5224 36.1807 43.8806 36.718 43.8806C37.2553 43.8806 37.6135 43.5224 37.6135 42.985V39.4029C37.6135 35.4627 34.3896 32.2388 30.4493 32.2388Z" fill="#393185"/>
<path d="M1.79201 8.05969C4.29947 8.05969 6.26962 10.0298 6.26962 12.5373C6.26962 13.0746 6.62783 13.4328 7.16514 13.4328C7.70245 13.4328 8.06066 13.0746 8.06066 12.5373C8.06066 10.0298 10.0308 8.05969 12.5383 8.05969C13.0756 8.05969 13.4338 7.70148 13.4338 7.16416C13.4338 6.62685 13.0756 6.26864 12.5383 6.26864C10.0308 6.26864 8.06066 4.29849 8.06066 1.79103C8.06066 1.25372 7.70245 0.895508 7.16514 0.895508C6.62783 0.895508 6.26962 1.25372 6.26962 1.79103C6.26962 4.29849 4.29947 6.26864 1.79201 6.26864C1.25469 6.26864 0.896484 6.62685 0.896484 7.16416C0.896484 7.70148 1.25469 8.05969 1.79201 8.05969ZM7.16514 5.01491C7.70245 5.91043 8.41887 6.62685 9.31439 7.16416C8.41887 7.70148 7.70245 8.4179 7.16514 9.31342C6.62783 8.4179 5.91141 7.70148 5.01589 7.16416C5.91141 6.62685 6.62783 5.91043 7.16514 5.01491Z" fill="#393185"/>
<path d="M42.0908 12.5372C44.5983 12.5372 46.5684 14.5074 46.5684 17.0148C46.5684 17.5522 46.9267 17.9104 47.464 17.9104C48.0013 17.9104 48.3595 17.5522 48.3595 17.0148C48.3595 14.5074 50.3296 12.5372 52.8371 12.5372C53.3744 12.5372 53.7326 12.179 53.7326 11.6417C53.7326 11.1044 53.3744 10.7462 52.8371 10.7462C50.3296 10.7462 48.3595 8.77603 48.3595 6.26857C48.3595 5.73126 48.0013 5.37305 47.464 5.37305C46.9267 5.37305 46.5684 5.73126 46.5684 6.26857C46.5684 8.77603 44.5983 10.7462 42.0908 10.7462C41.5535 10.7462 41.1953 11.1044 41.1953 11.6417C41.1953 12.179 41.5535 12.5372 42.0908 12.5372ZM47.464 9.49245C48.0013 10.388 48.7177 11.1044 49.6132 11.6417C48.7177 12.179 48.0013 12.8954 47.464 13.791C46.9267 12.8954 46.2102 12.179 45.3147 11.6417C46.2102 11.1044 46.9267 10.388 47.464 9.49245Z" fill="#393185"/>
<path d="M59.1047 52.8358C56.5972 52.8358 54.6271 50.8656 54.6271 48.3582C54.6271 47.8209 54.2689 47.4626 53.7315 47.4626C53.1942 47.4626 52.836 47.8209 52.836 48.3582C52.836 50.8656 50.8659 52.8358 48.3584 52.8358C47.8211 52.8358 47.4629 53.194 47.4629 53.7313C47.4629 54.2686 47.8211 54.6268 48.3584 54.6268C50.8659 54.6268 52.836 56.597 52.836 59.1044C52.836 59.6418 53.1942 60 53.7315 60C54.2689 60 54.6271 59.6418 54.6271 59.1044C54.6271 56.597 56.5972 54.6268 59.1047 54.6268C59.642 54.6268 60.0002 54.2686 60.0002 53.7313C60.0002 53.194 59.642 52.8358 59.1047 52.8358ZM53.7315 55.8806C53.1942 54.985 52.4778 54.2686 51.5823 53.7313C52.4778 53.194 53.1942 52.4776 53.7315 51.582C54.2689 52.4776 54.9853 53.194 55.8808 53.7313C54.9853 54.2686 54.2689 54.985 53.7315 55.8806Z" fill="#393185"/>
<path d="M12.5383 42.985C10.0308 42.985 8.06066 41.0148 8.06066 38.5073C8.06066 37.97 7.70245 37.6118 7.16514 37.6118C6.62783 37.6118 6.26962 37.97 6.26962 38.5073C6.26962 41.0148 4.29947 42.985 1.79201 42.985C1.25469 42.985 0.896484 43.3432 0.896484 43.8805C0.896484 44.4178 1.25469 44.776 1.79201 44.776C4.29947 44.776 6.26962 46.7461 6.26962 49.2536C6.26962 49.7909 6.62783 50.1491 7.16514 50.1491C7.70245 50.1491 8.06066 49.7909 8.06066 49.2536C8.06066 46.7461 10.0308 44.776 12.5383 44.776C13.0756 44.776 13.4338 44.4178 13.4338 43.8805C13.4338 43.3432 13.0756 42.985 12.5383 42.985ZM7.16514 46.0297C6.62783 45.1342 5.91141 44.4178 5.01589 43.8805C5.91141 43.3432 6.62783 42.6267 7.16514 41.7312C7.70245 42.6267 8.41887 43.3432 9.31439 43.8805C8.41887 44.4178 7.70245 45.1342 7.16514 46.0297Z" fill="#393185"/>
</g>
<defs>
<clipPath id="clip0_774_49705">
<rect width="59.1045" height="59.1045" fill="white" transform="translate(0.896484 0.895508)"/>
</clipPath>
</defs>
</svg>
