<svg width="54" height="54" viewBox="0 0 54 54" fill="none" xmlns="http://www.w3.org/2000/svg">
<g clip-path="url(#clip0_723_49164)">
<path fill-rule="evenodd" clip-rule="evenodd" d="M34.1014 3.29586C31.6171 2.42266 28.9753 2.08856 26.3518 2.31578C23.7058 2.52984 21.1481 3.36702 18.8877 4.75889C16.5862 6.19165 14.7268 8.23432 13.5162 10.66C12.1359 13.4141 11.4614 16.8514 11.8214 20.9704C11.8328 21.1001 11.8032 21.2301 11.7369 21.3422L7.32833 30.527L11.7487 31.2541C11.9014 31.279 12.0393 31.3599 12.1356 31.481C12.2319 31.6021 12.2796 31.7547 12.2695 31.9091L12.0691 35.8566L13.9394 36.2112C14.06 36.2342 14.171 36.2922 14.2586 36.3782C14.3463 36.4641 14.4065 36.574 14.4318 36.694C14.4571 36.8141 14.4462 36.939 14.4007 37.0529C14.3552 37.1669 14.2769 37.2648 14.1759 37.3344L12.1891 38.9221L12.422 42.9607C12.5816 43.5124 13.089 43.8527 13.9442 43.9815C15.5083 44.1015 17.0813 43.9394 18.588 43.5027C18.7454 43.464 18.9096 43.462 19.0679 43.4968C19.2263 43.5317 19.3744 43.6025 19.501 43.7037C19.6277 43.8049 19.7293 43.9339 19.7981 44.0807C19.8669 44.2275 19.9011 44.3881 19.8979 44.5502L19.8116 50.8752C25.1514 52.3222 29.4863 53.0144 32.8163 52.9518C35.8795 52.8939 38.055 52.2001 39.3428 50.8704C38.1593 48.7935 37.2467 46.5735 36.6272 44.2647C36.0772 42.3064 36.1184 40.2293 36.7455 38.2944C36.7828 38.1879 36.8487 38.0936 36.9358 38.0219C38.0957 37.0676 39.199 36.0466 40.2402 34.964L37.2568 31.9806C37.1989 31.9227 37.1529 31.8539 37.1216 31.7783C37.0903 31.7026 37.0741 31.6215 37.0741 31.5396C37.0741 31.4577 37.0903 31.3766 37.1216 31.301C37.1529 31.2253 37.1989 31.1566 37.2568 31.0986L37.6233 30.7316L36.2933 29.4004C34.5801 30.681 32.5688 31.5038 30.4492 31.791C28.3297 32.0781 26.1719 31.8202 24.1797 31.0415C22.1876 30.2628 20.4269 28.9891 19.0639 27.3407C17.7009 25.6922 16.7807 23.7236 16.3902 21.6206C15.9997 19.5176 16.1517 17.3498 16.832 15.322C17.5123 13.2941 18.6983 11.4732 20.2781 10.0312C21.8578 8.58915 23.7791 7.57371 25.8604 7.08074C27.9418 6.58778 30.1144 6.63358 32.1731 7.21381C32.3167 7.04769 32.5132 6.93619 32.7294 6.89815L33.2614 6.8018C33.3948 6.32802 33.5837 5.87167 33.8241 5.44222L33.5138 4.99474C33.3867 4.81019 33.328 4.58701 33.348 4.3638C33.3679 4.14058 33.4653 3.93136 33.6232 3.77231L34.0996 3.29586H34.1014ZM37.6907 9.52391C37.6199 9.48293 37.558 9.42841 37.5083 9.36348C37.4587 9.29855 37.4223 9.22448 37.4013 9.14549C37.3803 9.0665 37.375 8.98415 37.3858 8.90313C37.3966 8.82211 37.4233 8.74401 37.4643 8.67329C37.5052 8.60257 37.5598 8.54062 37.6247 8.49097C37.6896 8.44132 37.7637 8.40494 37.8427 8.38392C37.9217 8.3629 38.004 8.35764 38.085 8.36844C38.1661 8.37925 38.2442 8.4059 38.3149 8.44689L39.0544 8.87427L40.0882 7.08731C40.1292 7.01663 40.1836 6.9547 40.2484 6.90506C40.3133 6.85541 40.3873 6.81903 40.4662 6.79798C40.5451 6.77693 40.6273 6.77162 40.7083 6.78237C40.7893 6.79312 40.8673 6.81971 40.938 6.86062C41.0087 6.90153 41.0706 6.95596 41.1202 7.0208C41.1699 7.08564 41.2063 7.15963 41.2273 7.23853C41.2484 7.31744 41.2537 7.39972 41.2429 7.48067C41.2322 7.56163 41.2056 7.63967 41.1647 7.71035L39.9824 9.75977C39.966 9.79488 39.9462 9.82834 39.9233 9.85967C39.8055 10.0306 39.6318 10.1551 39.4321 10.2118C39.2325 10.2686 39.0193 10.254 38.8292 10.1706C38.7842 10.1534 38.7414 10.1312 38.7015 10.1044L37.6966 9.52391H37.6907ZM39.3133 4.41958C40.2601 4.41874 41.1778 4.74625 41.9102 5.34629C42.6425 5.94634 43.1441 6.78179 43.3295 7.71025C43.5149 8.63871 43.3725 9.60271 42.9267 10.438C42.4809 11.2732 41.7592 11.928 40.8847 12.2908C40.0102 12.6536 39.0369 12.7018 38.1308 12.4274C37.2247 12.1529 36.4418 11.5727 35.9155 10.7856C35.3893 9.99858 35.1522 9.05339 35.2448 8.11115C35.3374 7.16891 35.7539 6.28793 36.4233 5.61838C36.8028 5.23782 37.2537 4.93601 37.7501 4.73028C38.2466 4.52455 38.7788 4.41896 39.3162 4.41958H39.3133ZM41.3231 6.49974C41.7887 6.96514 42.0785 7.5776 42.1431 8.23273C42.2077 8.88787 42.0431 9.54513 41.6774 10.0925C41.3116 10.6399 40.7674 11.0435 40.1374 11.2345C39.5074 11.4256 38.8307 11.3923 38.2225 11.1402C37.6144 10.8882 37.1124 10.4331 36.8023 9.85241C36.4921 9.27175 36.3929 8.60149 36.5215 7.95587C36.6502 7.31026 36.9988 6.72924 37.5078 6.31184C38.0169 5.89444 38.655 5.66649 39.3133 5.66685C39.6866 5.66663 40.0563 5.74009 40.4012 5.88301C40.7461 6.02594 41.0594 6.23552 41.3231 6.49974ZM31.9396 8.4398V9.18283C31.9397 9.40749 32.0189 9.62495 32.1633 9.79704C32.3077 9.96914 32.5081 10.0849 32.7294 10.1239L33.2614 10.2208C33.2862 10.3089 33.3134 10.3982 33.3424 10.4845C32.0039 9.79002 30.5251 9.40875 29.0176 9.36946C27.5102 9.33017 26.0135 9.63389 24.6407 10.2577C23.2678 10.8815 22.0546 11.809 21.0927 12.9703C20.1307 14.1316 19.4452 15.4962 19.0879 16.9612C18.7306 18.4262 18.7108 19.9533 19.03 21.427C19.3492 22.9008 19.999 24.2828 20.9305 25.4686C21.862 26.6545 23.0507 27.6132 24.407 28.2724C25.7632 28.9316 27.2515 29.274 28.7594 29.2739C30.3834 29.2728 31.9825 28.8746 33.4174 28.114C34.8523 27.3534 36.0794 26.2534 36.9918 24.9099C37.9042 23.5664 38.4742 22.0202 38.6522 20.406C38.8301 18.7918 38.6106 17.1585 38.0128 15.6485L38.0252 15.6586C38.1973 15.8034 38.4151 15.8827 38.64 15.8826H39.5639C40.1743 17.7999 40.2633 19.8451 39.8218 21.8082C39.3803 23.7713 38.4243 25.5815 37.0519 27.053C35.6795 28.5244 33.9402 29.604 32.0126 30.181C30.0849 30.7579 28.0385 30.8114 26.0833 30.336C24.1282 29.8605 22.3349 28.8732 20.8875 27.4755C19.4401 26.0777 18.3908 24.3199 17.8474 22.3826C17.304 20.4452 17.286 18.3982 17.7953 16.4516C18.3047 14.505 19.3229 12.7291 20.7456 11.3061C22.2308 9.817 24.1028 8.77278 26.1502 8.29142C28.0601 7.84195 30.0537 7.89326 31.9379 8.44039L31.9396 8.4398ZM40.7473 15.5055C40.8378 15.3845 40.8985 15.244 40.9247 15.0952L41.021 14.5632C41.2575 14.4967 41.4898 14.4161 41.7168 14.322C41.9441 14.2278 42.1658 14.1204 42.3806 14.0005L42.8287 14.3108C43.0131 14.4379 43.2362 14.4965 43.4593 14.4766C43.6825 14.4566 43.8916 14.3593 44.0505 14.2015L44.6363 13.6162C44.8424 14.1577 45.0275 14.7187 45.1914 15.2992C45.572 16.67 45.8214 18.0739 45.9362 19.492C46.2716 22.6429 45.7972 25.8273 44.5577 28.7436C44.3402 29.2358 44.0939 29.7284 43.8188 30.2214L41.4183 27.8209C41.3604 27.763 41.2917 27.7171 41.2161 27.6857C41.1405 27.6544 41.0594 27.6383 40.9776 27.6383C40.8957 27.6383 40.8147 27.6544 40.7391 27.6857C40.6635 27.7171 40.5948 27.763 40.5369 27.8209L40.1698 28.188L38.8386 26.8544C40.0361 25.2506 40.8339 23.3844 41.1659 21.4106C41.498 19.4368 41.3547 17.4122 40.7479 15.5049L40.7473 15.5055ZM44.962 11.2719C45.5568 12.4524 46.0353 13.6879 46.3908 14.961C46.7945 16.4084 47.0593 17.8909 47.1817 19.3885V19.3933C47.5357 22.7493 47.0259 26.1401 45.7009 29.2437C45.4142 29.8916 45.0918 30.5231 44.7351 31.1353L47.4294 33.8296C47.9708 34.3836 48.272 35.1287 48.2675 35.9034C48.2631 36.678 47.9534 37.4196 47.4056 37.9673C46.8578 38.515 46.1161 38.8246 45.3415 38.829C44.5669 38.8333 43.8218 38.532 43.2679 37.9905L41.1227 35.8453C40.0951 36.9137 39.008 37.9234 37.8668 38.8695C37.3777 40.5359 37.3679 42.3063 37.8384 43.978C38.4784 46.3179 39.4228 48.5636 40.6474 50.6576C40.7069 50.766 40.7326 50.8896 40.7215 51.0127C40.7103 51.1358 40.6627 51.2528 40.5848 51.3487C39.1019 53.1776 36.5206 54.1267 32.8411 54.1961C29.2944 54.2627 24.6884 53.5139 19.0231 51.9498C18.891 51.9131 18.7747 51.8338 18.6923 51.7243C18.6099 51.6147 18.566 51.481 18.5673 51.3439L18.6578 44.7654C17.0665 45.2069 15.409 45.3595 13.7639 45.2158C12.3428 45.0014 11.4914 44.3388 11.2096 43.2279C11.198 43.1848 11.1908 43.1406 11.1883 43.096L10.9336 38.6756C10.9282 38.5769 10.9465 38.4783 10.9869 38.388C11.0273 38.2978 11.0887 38.2184 11.1659 38.1566L12.383 37.1842L11.3078 36.9803C11.1603 36.9526 11.0278 36.8726 10.9347 36.755C10.8416 36.6373 10.7942 36.49 10.8012 36.3401L11.001 32.3938L6.89326 31.7181C6.72993 31.6921 6.57497 31.6281 6.44075 31.5315C6.30653 31.4348 6.19678 31.3081 6.12027 31.1615C6.04377 31.0148 6.00262 30.8523 6.00012 30.6869C5.99762 30.5216 6.03385 30.3579 6.10589 30.209L10.5671 20.9142C10.1707 17.2112 10.8074 13.4707 12.4066 10.1073C13.7191 7.4766 15.7349 5.26105 18.2304 3.70669C20.6565 2.20902 23.4026 1.30681 26.2442 1.07384C29.7451 0.769933 33.2636 1.40771 36.4351 2.92109C36.59 2.84227 36.7476 2.76937 36.908 2.70238C37.1355 2.60823 37.3685 2.52769 37.6055 2.4612L37.7025 1.92919C37.7412 1.7078 37.8568 1.50718 38.029 1.3627C38.2012 1.21822 38.4188 1.13916 38.6436 1.13945H39.9866C40.2114 1.13902 40.4292 1.21802 40.6015 1.36251C40.7738 1.507 40.8895 1.7077 40.9282 1.92919L41.0246 2.4612C41.4983 2.59486 41.9546 2.78374 42.3842 3.02395L42.8322 2.71361C43.0146 2.58622 43.2361 2.5272 43.4576 2.54691C43.6808 2.56674 43.89 2.66422 44.0488 2.82237L44.9987 3.77231C45.1567 3.93114 45.2542 4.14027 45.2742 4.36343C45.2968 4.58634 45.2397 4.81006 45.1128 4.99474L44.8024 5.44222C44.9229 5.65684 45.0303 5.87851 45.124 6.10605C45.2181 6.33299 45.2986 6.56532 45.3652 6.8018L45.8972 6.89815C46.1186 6.9371 46.3191 7.05288 46.4636 7.22512C46.608 7.39735 46.6871 7.61502 46.6869 7.83981V9.18283C46.6872 9.40759 46.6082 9.62523 46.4637 9.79739C46.3192 9.96956 46.1186 10.0852 45.8972 10.1239L45.3652 10.2208C45.2986 10.4573 45.2181 10.6897 45.124 10.9166C45.0749 11.0348 45.0212 11.153 44.9644 11.2713L44.962 11.2719ZM37.6558 14.8511C37.601 14.7423 37.5441 14.6342 37.485 14.5266C37.5246 14.539 37.5636 14.5502 37.6032 14.5614L37.6558 14.8511ZM35.8535 14.2694C36.781 15.5719 37.3321 17.1046 37.4462 18.6996C37.5604 20.2945 37.2332 21.8901 36.5005 23.3114C35.7678 24.7327 34.6579 25.9248 33.2926 26.757C31.9272 27.5893 30.359 28.0296 28.76 28.0295C27.4045 28.0291 26.0678 27.7123 24.8563 27.1043C23.6449 26.4962 22.592 25.6138 21.7816 24.5273C20.9712 23.4407 20.4257 22.18 20.1883 20.8454C19.951 19.5108 20.0285 18.1393 20.4146 16.84C20.8007 15.5406 21.4847 14.3493 22.4123 13.3609C23.3399 12.3725 24.4854 11.6142 25.7576 11.1465C27.0299 10.6788 28.3937 10.5144 29.7406 10.6666C31.0876 10.8188 32.3804 11.2833 33.5162 12.0232C33.389 12.2077 33.3304 12.4309 33.3503 12.6541C33.3703 12.8773 33.4676 13.0866 33.6255 13.2456L34.5749 14.1949C34.7339 14.3528 34.9431 14.4502 35.1664 14.4701C35.3896 14.4901 35.6128 14.4315 35.7973 14.3043L35.8564 14.2647L35.8535 14.2694ZM37.3809 3.85152C37.6674 3.73289 37.9642 3.64107 38.2676 3.57724C38.3946 3.55076 38.5102 3.48525 38.5982 3.38986C38.6861 3.29447 38.7421 3.17398 38.7582 3.04523L38.8764 2.38494H39.7436L39.8689 3.07833C39.8908 3.20033 39.9487 3.313 40.035 3.40189C40.1214 3.49079 40.2323 3.55185 40.3537 3.57724C40.657 3.64134 40.9538 3.73316 41.2403 3.85152C41.5268 3.97023 41.8017 4.11528 42.0614 4.28481C42.1665 4.35323 42.2898 4.38826 42.4151 4.38531C42.5404 4.38235 42.6619 4.34155 42.7637 4.26826L43.3335 3.8728L43.9518 4.48638L43.5493 5.06686C43.4782 5.1704 43.4402 5.29302 43.4402 5.41858C43.4402 5.54413 43.4782 5.66675 43.5493 5.77029C43.8855 6.28826 44.1228 6.86409 44.2491 7.46858C44.2755 7.59565 44.341 7.71128 44.4364 7.79926C44.5318 7.88724 44.6524 7.94317 44.7812 7.95921L45.4414 8.07744V8.94461L44.7481 9.07052C44.6261 9.0924 44.5134 9.15023 44.4245 9.2366C44.3356 9.32297 44.2745 9.43393 44.2491 9.55524C44.1849 9.85853 44.0931 10.1553 43.9749 10.4419C43.8563 10.7283 43.7112 11.003 43.5416 11.2624C43.4732 11.3675 43.4381 11.4908 43.4411 11.6161C43.444 11.7414 43.4848 11.8629 43.5581 11.9646L43.9536 12.5351L43.3394 13.1498L42.7589 12.7473C42.6554 12.6761 42.5328 12.638 42.4072 12.638C42.2816 12.638 42.159 12.6761 42.0555 12.7473C41.7994 12.9137 41.5285 13.0562 41.2463 13.1729C40.9598 13.2916 40.663 13.3836 40.3596 13.4478C40.2325 13.4742 40.117 13.5398 40.029 13.6351C39.941 13.7305 39.8851 13.851 39.8689 13.9798L39.7507 14.6395H38.88L38.7541 13.9443C38.7322 13.8224 38.6743 13.7098 38.588 13.621C38.5016 13.5322 38.3906 13.4713 38.2694 13.446C37.6601 13.3181 37.0802 13.0775 36.5593 12.7367C36.4541 12.6685 36.3308 12.6336 36.2055 12.6367C36.0802 12.6398 35.9587 12.6806 35.857 12.7538L35.2866 13.1493L34.6748 12.5374L35.0773 11.9564C35.1485 11.8529 35.1866 11.7303 35.1866 11.6047C35.1866 11.4791 35.1485 11.3564 35.0773 11.2529C34.9109 10.9968 34.7684 10.7259 34.6517 10.4437C34.5329 10.1572 34.4409 9.86042 34.3768 9.55701C34.3505 9.42988 34.285 9.31417 34.1896 9.22608C34.0942 9.138 33.9737 9.08195 33.8448 9.06579L33.1845 8.94757V8.07744L33.8779 7.95212C33.9998 7.93014 34.1124 7.87226 34.2011 7.7859C34.2899 7.69954 34.3509 7.58863 34.3762 7.4674C34.5044 6.85826 34.745 6.27833 35.0856 5.75729C35.1538 5.65224 35.1887 5.52902 35.1856 5.40381C35.1825 5.27859 35.1417 5.15723 35.0685 5.05563L34.6748 4.48638L35.2872 3.87398L35.8682 4.27653C35.9718 4.34754 36.0944 4.38555 36.22 4.38555C36.3455 4.38555 36.4681 4.34754 36.5717 4.27653C36.8279 4.11035 37.0988 3.96789 37.3809 3.85092V3.85152ZM29.3848 18.6266C29.6835 18.503 29.9388 18.2935 30.1184 18.0248C30.298 17.7561 30.3939 17.4401 30.3939 17.1169C30.3964 17.0334 30.3822 16.9502 30.352 16.8724C30.3219 16.7945 30.2764 16.7235 30.2182 16.6635C30.1601 16.6036 30.0905 16.5559 30.0136 16.5234C29.9367 16.4908 29.854 16.474 29.7705 16.474C29.687 16.474 29.6044 16.4908 29.5274 16.5234C29.4505 16.5559 29.381 16.6036 29.3228 16.6635C29.2647 16.7235 29.2192 16.7945 29.189 16.8724C29.1588 16.9502 29.1446 17.0334 29.1472 17.1169C29.1433 17.2167 29.1009 17.3111 29.0289 17.3804C28.9568 17.4497 28.8608 17.4883 28.7609 17.4883C28.661 17.4883 28.5649 17.4497 28.4929 17.3804C28.4209 17.3111 28.3785 17.2167 28.3746 17.1169C28.3772 17.0334 28.3629 16.9502 28.3328 16.8724C28.3026 16.7945 28.2571 16.7235 28.199 16.6635C28.1408 16.6036 28.0712 16.5559 27.9943 16.5234C27.9174 16.4908 27.8348 16.474 27.7513 16.474C27.6677 16.474 27.5851 16.4908 27.5082 16.5234C27.4313 16.5559 27.3617 16.6036 27.3035 16.6635C27.2454 16.7235 27.1999 16.7945 27.1697 16.8724C27.1396 16.9502 27.1254 17.0334 27.1279 17.1169C27.1278 17.4402 27.2237 17.7563 27.4034 18.0251C27.5832 18.2938 27.8387 18.5032 28.1376 18.6266V21.9292H26.9731C26.9372 21.6987 26.8737 21.4735 26.7839 21.2583C26.6286 20.8916 26.4013 20.5599 26.1153 20.2829C25.5829 19.7581 25.2187 19.0867 25.0689 18.3542C24.9191 17.6218 24.9906 16.8613 25.2742 16.1696C25.5579 15.4779 26.0408 14.8862 26.6617 14.4697C27.2826 14.0533 28.0133 13.8309 28.7609 13.8309C29.5085 13.8309 30.2392 14.0533 30.8601 14.4697C31.481 14.8862 31.9639 15.4779 32.2476 16.1696C32.5312 16.8613 32.6027 17.6218 32.4529 18.3542C32.3031 19.0867 31.9389 19.7581 31.4065 20.2829C31.1207 20.5601 30.8934 20.8918 30.7379 21.2583C30.6483 21.4735 30.585 21.6988 30.5493 21.9292H29.3848V18.6266ZM25.5118 23.1782C25.3464 23.1782 25.1878 23.1125 25.0708 22.9956C24.9539 22.8786 24.8882 22.72 24.8882 22.5546C24.8882 22.3892 24.9539 22.2306 25.0708 22.1136C25.1878 21.9967 25.3464 21.9309 25.5118 21.9309H25.701C25.683 21.8651 25.6606 21.8005 25.6342 21.7377C25.5432 21.5246 25.4105 21.3318 25.244 21.1708C24.5345 20.4727 24.0487 19.5793 23.8486 18.6042C23.6484 17.6292 23.7429 16.6167 24.1201 15.6955C24.4972 14.7744 25.14 13.9863 25.9665 13.4316C26.793 12.8769 27.7658 12.5807 28.7612 12.5807C29.7566 12.5807 30.7294 12.8769 31.5559 13.4316C32.3824 13.9863 33.0251 14.7744 33.4023 15.6955C33.7795 16.6167 33.874 17.6292 33.6738 18.6042C33.4737 19.5793 32.9879 20.4727 32.2784 21.1708C32.1115 21.3317 31.9786 21.5244 31.8876 21.7377C31.8613 21.8006 31.8392 21.8651 31.8214 21.9309H32.01C32.1754 21.9309 32.334 21.9967 32.451 22.1136C32.5679 22.2306 32.6336 22.3892 32.6336 22.5546C32.6336 22.72 32.5679 22.8786 32.451 22.9956C32.334 23.1125 32.1754 23.1782 32.01 23.1782H31.757C31.7257 23.9519 31.3968 24.6835 30.8389 25.2204C30.281 25.7573 29.5372 26.0578 28.763 26.0593H28.7588C27.9846 26.058 27.2408 25.7574 26.6829 25.2205C26.1251 24.6836 25.7963 23.9519 25.7654 23.1782H25.5118ZM30.508 23.1782C30.4779 23.6208 30.2811 24.0356 29.9572 24.3388C29.6334 24.642 29.2066 24.8111 28.763 24.8121H28.7588C28.3152 24.8111 27.8884 24.642 27.5646 24.3388C27.2407 24.0356 27.0439 23.6208 27.0138 23.1782H30.508ZM39.2938 32.2531L38.5844 31.5438L40.982 29.1456L41.6949 29.8585L39.2967 32.2561L39.2938 32.2531ZM42.5739 30.7369L43.1579 31.3209C42.5331 32.2766 41.8403 33.1862 41.0849 34.0424L40.1757 33.1333L42.5739 30.7351V30.7369ZM38.0394 27.8179L39.2902 29.0687L38.5076 29.8514L37.2568 28.6006C37.392 28.4764 37.5252 28.3489 37.6564 28.2181C37.7876 28.0873 37.9153 27.9539 38.0394 27.8179ZM44.057 32.22C43.4221 33.1691 42.7238 34.0742 41.9668 34.9291L44.1475 37.1103C44.467 37.4212 44.896 37.5938 45.3418 37.5908C45.7875 37.5877 46.2142 37.4093 46.5294 37.0941C46.8446 36.7789 47.023 36.3522 47.0261 35.9065C47.0291 35.4607 46.8565 35.0317 46.5457 34.7122L44.057 32.22Z" fill="#393185"/>
</g>
<defs>
<clipPath id="clip0_723_49164">
<rect width="54" height="54" fill="white"/>
</clipPath>
</defs>
</svg>
