<svg width="80" height="80" viewBox="0 0 80 80" fill="none" xmlns="http://www.w3.org/2000/svg">
<path d="M69.2836 49.8588C68.5708 48.6243 67.4148 47.7405 66.0288 47.3698C64.6435 46.9991 63.1993 47.1871 61.9643 47.8992L47.9423 55.9852C47.8539 55.2082 47.6083 54.4482 47.2062 53.7462C46.433 52.3965 45.1864 51.4291 43.6949 51.0243L27.8227 46.7088C27.7755 46.6957 27.7274 46.6864 27.6786 46.6794C25.276 46.3621 23.0826 46.9464 21.1596 48.4177L16.9487 51.6388L16.7813 51.0158C16.4908 49.9315 15.3712 49.286 14.2865 49.5763L10.5102 50.587C9.98569 50.7279 9.54639 51.0645 9.27444 51.5359C9.00172 52.0072 8.92967 52.5551 9.0699 53.0799L14.5453 73.4908C14.6863 74.0148 15.0233 74.4536 15.4952 74.726C15.8097 74.9079 16.1584 75 16.5117 75C16.6883 75 16.8658 74.9768 17.0401 74.9304L20.8164 73.9196C21.9011 73.6294 22.548 72.511 22.2567 71.4268L22.0506 70.659C24.2905 68.9865 26.3499 68.5168 28.8447 69.0879L37.936 71.1698C38.7255 71.3509 39.4956 71.4407 40.2433 71.4407C41.792 71.4407 43.2471 71.0529 44.5867 70.2798L67.3219 57.1701C69.8802 55.695 70.7604 52.4143 69.2836 49.8588ZM16.6264 72.768L11.2346 52.6674L14.6995 51.7402L20.0912 71.8408L16.6264 72.768ZM66.2232 55.2686L43.488 68.3798C41.9764 69.2512 40.3215 69.4641 38.4279 69.0307L29.3366 66.9488C26.4552 66.2894 23.9697 66.7367 21.4455 68.4022L17.5646 53.9343L22.4961 50.1614C23.9411 49.0562 25.5193 48.6251 27.3191 48.8472L43.1177 53.1426C44.042 53.3941 44.816 53.9954 45.2979 54.8367C45.7798 55.6772 45.9061 56.6493 45.6543 57.5726C45.1314 59.4927 43.1417 60.6288 41.2203 60.1064L32.7418 57.8016C32.1561 57.6422 31.5517 57.9874 31.3921 58.5725C31.2325 59.1576 31.5781 59.7612 32.1638 59.9199L40.6423 62.2247C41.1513 62.3632 41.6627 62.429 42.167 62.429C44.527 62.429 46.7088 60.9794 47.5835 58.7273L63.0629 49.7999C63.7896 49.3805 64.6411 49.2706 65.4593 49.4896C66.2775 49.7086 66.9593 50.2295 67.3792 50.9554C68.2501 52.4638 67.7317 54.3979 66.2232 55.2686ZM28.0931 33.1952C27.4857 33.1952 26.9937 33.6866 26.9937 34.2934V42.9831C26.9937 43.5899 27.4857 44.0813 28.0931 44.0813H34.6129C35.2203 44.0813 35.7123 43.5899 35.7123 42.9831V34.2934C35.7123 33.6866 35.2203 33.1952 34.6129 33.1952H28.0931ZM33.5135 41.8849H29.1925V35.3908H33.5135V41.8849ZM38.641 28.5384C38.0336 28.5384 37.5416 29.0299 37.5416 29.6366V42.9831C37.5416 43.5899 38.0336 44.0813 38.641 44.0813H45.1608C45.7682 44.0813 46.2602 43.5899 46.2602 42.9831V29.6366C46.2602 29.0299 45.7682 28.5384 45.1608 28.5384H38.641ZM44.0614 41.8849H39.7396V30.7348H44.0606L44.0614 41.8849ZM49.1881 23.8817C48.5807 23.8817 48.0887 24.3731 48.0887 24.9799V42.9839C48.0887 43.5907 48.5807 44.0821 49.1881 44.0821H55.7079C56.3153 44.0821 56.8073 43.5907 56.8073 42.9839V24.9791C56.8073 24.3723 56.3153 23.8809 55.7079 23.8809L49.1881 23.8817ZM54.6085 41.8849H50.2875V26.0773H54.6085V41.8849ZM49.832 13.2161C49.9497 12.6209 50.5285 12.2347 51.1235 12.3524L56.0558 13.3275C56.3665 13.3887 56.6361 13.5814 56.7941 13.8554C56.9522 14.1293 56.9847 14.4582 56.8825 14.7585L55.2624 19.5136C55.1067 19.9702 54.6798 20.2581 54.2219 20.2581C54.1041 20.2581 53.9848 20.2395 53.8678 20.1993C53.2929 20.0035 52.9861 19.3797 53.1813 18.8062L53.8593 16.8164L32.043 29.399C31.8702 29.4989 31.6811 29.5461 31.4944 29.5461C31.1148 29.5461 30.7452 29.3495 30.5414 28.9966C30.2377 28.4711 30.4182 27.8001 30.9435 27.4967L52.7599 14.9149L50.6958 14.507C50.1016 14.3894 49.7142 13.8112 49.832 13.2161ZM59.736 44.0813H66.2558C66.8632 44.0813 67.3552 43.5899 67.3552 42.9831V20.3223C67.3552 19.7156 66.8632 19.2241 66.2558 19.2241H59.736C59.1286 19.2241 58.6366 19.7156 58.6366 20.3223V42.9831C58.6366 43.5899 59.1286 44.0813 59.736 44.0813ZM60.8346 21.4206H65.1556V41.8849H60.8346V21.4206ZM27.8018 24.2578C33.1168 24.2578 37.4416 19.9385 37.4416 14.6285C37.4416 9.31855 33.1168 5 27.8018 5C22.4868 5 18.162 9.31933 18.162 14.6293C18.162 19.9392 22.4868 24.2578 27.8018 24.2578ZM27.8018 7.19642C31.905 7.19642 35.2428 10.5305 35.2428 14.6293C35.2428 18.728 31.905 22.0621 27.8018 22.0621C23.6986 22.0621 20.3608 18.728 20.3608 14.6293C20.3608 10.5305 23.6986 7.19642 27.8018 7.19642ZM24.7259 12.8523C24.7259 11.5815 25.5557 10.5003 26.7032 10.1219V9.55847C26.7032 8.95171 27.1951 8.46026 27.8026 8.46026C28.41 8.46026 28.902 8.95171 28.902 9.55847V10.0755C29.5358 10.2449 30.1029 10.6288 30.4965 11.1721C30.8521 11.6636 30.7421 12.3501 30.2501 12.7053C29.7581 13.0605 29.0709 12.9506 28.7153 12.4592C28.5859 12.2804 28.3798 12.1744 28.1644 12.1744H27.6042C27.2362 12.1744 26.9255 12.4847 26.9255 12.8531C26.9255 13.2215 27.2362 13.5318 27.6042 13.5318H28.0017C29.5884 13.5318 30.8792 14.8212 30.8792 16.4062C30.8792 17.677 30.0494 18.7582 28.902 19.1367V19.7001C28.902 20.3069 28.41 20.7983 27.8026 20.7983C27.1951 20.7983 26.7032 20.3069 26.7032 19.7001V19.1831C26.0694 19.0136 25.5023 18.6298 25.1087 18.0864C24.753 17.595 24.8631 16.9085 25.355 16.5533C25.847 16.1981 26.5343 16.3087 26.8899 16.7994C27.0193 16.9782 27.2254 17.0842 27.4408 17.0842H28.0009C28.3689 17.0842 28.6796 16.7739 28.6796 16.4055C28.6796 16.0371 28.3689 15.7267 28.0009 15.7267H27.6035C26.0167 15.7267 24.7259 14.4374 24.7259 12.8523Z" fill="#393185"/>
</svg>
