<svg width="33" height="31" viewBox="0 0 33 31" fill="none" xmlns="http://www.w3.org/2000/svg">
<path d="M26.7543 14.819C26.7881 15.1568 26.8219 15.5284 26.8219 15.9C26.8219 22.3521 21.5859 27.5882 15.1337 27.5882C8.68164 27.5882 3.44563 22.3521 3.44563 15.9C3.44563 9.44791 8.68164 4.2119 15.1337 4.2119C16.8903 4.2119 18.5456 4.58349 20.0319 5.29288C21.0116 4.48215 22.025 3.73897 23.0384 3.02958C20.7413 1.61079 18.0389 0.800049 15.1337 0.800049C6.78992 0.800049 0 7.55619 0 15.9C0 24.2439 6.78992 31 15.1 31C23.4438 31 30.2337 24.2439 30.2337 15.9C30.2337 14.4475 30.031 13.0624 29.6257 11.7112C28.6122 12.7584 27.6664 13.7718 26.7543 14.819Z" fill="#393185"/>
<path d="M30.7787 3.12722C26.3535 4.57979 20.7121 8.46457 15.5099 15.1194L12.4358 11.7075C11.9629 11.167 11.0846 11.167 10.6117 11.7075L8.34837 14.2411C7.90922 14.7478 7.943 15.491 8.41593 15.9301L15.3747 22.6187C15.949 23.1592 16.8949 23.024 17.3002 22.3147C21.0161 15.5923 25.0022 10.5928 31.7584 4.85003C32.5691 4.14064 31.8259 2.78941 30.7787 3.12722Z" fill="#393185"/>
</svg>
