<svg width="54" height="54" viewBox="0 0 54 54" fill="none" xmlns="http://www.w3.org/2000/svg">
<path d="M49.1 48H5.9C5.4023 48 5 47.5977 5 47.1V3.9C5 3.4023 5.4023 3 5.9 3H49.1C49.5977 3 50 3.4023 50 3.9V47.1C50 47.5977 49.5977 48 49.1 48ZM6.8 46.2H48.2V4.8H6.8V46.2Z" fill="#393185"/>
<path d="M27.4969 22.8C25.9579 22.8 24.7969 20.8659 24.7969 18.3C24.7969 15.7341 25.9579 13.8 27.4969 13.8C29.0359 13.8 30.1969 15.7341 30.1969 18.3C30.1969 20.8659 29.0359 22.8 27.4969 22.8ZM27.4969 15.6C27.2728 15.6 26.5969 16.5576 26.5969 18.3C26.5969 20.0424 27.2728 21 27.4969 21C27.721 21 28.3969 20.0424 28.3969 18.3C28.3969 16.5576 27.721 15.6 27.4969 15.6Z" fill="#393185"/>
<path d="M31.098 8.40083H23.898C23.4003 8.40083 22.998 7.99853 22.998 7.50083C22.998 7.00313 23.4003 6.60083 23.898 6.60083H31.098C31.5957 6.60083 31.998 7.00313 31.998 7.50083C31.998 7.99853 31.5957 8.40083 31.098 8.40083Z" fill="#393185"/>
<path d="M20.2988 12.0003C19.8011 12.0003 19.3988 11.598 19.3988 11.1003V8.40034H16.6988C16.2011 8.40034 15.7988 7.99804 15.7988 7.50034C15.7988 7.00264 16.2011 6.60034 16.6988 6.60034H20.2988C20.7965 6.60034 21.1988 7.00264 21.1988 7.50034V11.1003C21.1988 11.598 20.7965 12.0003 20.2988 12.0003Z" fill="#393185"/>
<path d="M34.7066 12.0008C34.2089 12.0008 33.8066 11.5985 33.8066 11.1008V7.50083C33.8066 7.00313 34.2089 6.60083 34.7066 6.60083H38.3066C38.8043 6.60083 39.2066 7.00313 39.2066 7.50083C39.2066 7.99853 38.8043 8.40083 38.3066 8.40083H35.6066V11.1008C35.6066 11.5985 35.2043 12.0008 34.7066 12.0008Z" fill="#393185"/>
<path d="M29.2969 11.9992H25.6969C25.1992 11.9992 24.7969 11.5969 24.7969 11.0992C24.7969 10.6015 25.1992 10.1992 25.6969 10.1992H29.2969C29.7946 10.1992 30.1969 10.6015 30.1969 11.0992C30.1969 11.5969 29.7946 11.9992 29.2969 11.9992Z" fill="#393185"/>
<path d="M27.4969 37.2C25.9579 37.2 24.7969 35.2659 24.7969 32.7C24.7969 30.1341 25.9579 28.2 27.4969 28.2C29.0359 28.2 30.1969 30.1341 30.1969 32.7C30.1969 35.2659 29.0359 37.2 27.4969 37.2ZM27.4969 30C27.2728 30 26.5969 30.9576 26.5969 32.7C26.5969 34.4424 27.2728 35.4 27.4969 35.4C27.721 35.4 28.3969 34.4424 28.3969 32.7C28.3969 30.9576 27.721 30 27.4969 30Z" fill="#393185"/>
<path d="M31.098 44.3989H23.898C23.4003 44.3989 22.998 43.9966 22.998 43.4989C22.998 43.0012 23.4003 42.5989 23.898 42.5989H31.098C31.5957 42.5989 31.998 43.0012 31.998 43.4989C31.998 43.9966 31.5957 44.3989 31.098 44.3989Z" fill="#393185"/>
<path d="M20.2988 44.3998H16.6988C16.2011 44.3998 15.7988 43.9975 15.7988 43.4998C15.7988 43.0021 16.2011 42.5998 16.6988 42.5998H19.3988V39.8998C19.3988 39.4021 19.8011 38.9998 20.2988 38.9998C20.7965 38.9998 21.1988 39.4021 21.1988 39.8998V43.4998C21.1988 43.9975 20.7965 44.3998 20.2988 44.3998Z" fill="#393185"/>
<path d="M38.3066 44.3998H34.7066C34.2089 44.3998 33.8066 43.9975 33.8066 43.4998V39.8998C33.8066 39.4021 34.2089 38.9998 34.7066 38.9998C35.2043 38.9998 35.6066 39.4021 35.6066 39.8998V42.5998H38.3066C38.8043 42.5998 39.2066 43.0021 39.2066 43.4998C39.2066 43.9975 38.8043 44.3998 38.3066 44.3998Z" fill="#393185"/>
<path d="M29.2969 40.7998H25.6969C25.1992 40.7998 24.7969 40.3975 24.7969 39.8998C24.7969 39.4021 25.1992 38.9998 25.6969 38.9998H29.2969C29.7946 38.9998 30.1969 39.4021 30.1969 39.8998C30.1969 40.3975 29.7946 40.7998 29.2969 40.7998Z" fill="#393185"/>
<path d="M20.2988 28.2C17.7329 28.2 15.7988 27.039 15.7988 25.5C15.7988 23.961 17.7329 22.8 20.2988 22.8C22.8647 22.8 24.7988 23.961 24.7988 25.5C24.7988 27.039 22.8647 28.2 20.2988 28.2ZM20.2988 24.6C18.5564 24.6 17.5988 25.2759 17.5988 25.5C17.5988 25.7241 18.5564 26.4 20.2988 26.4C22.0412 26.4 22.9988 25.7241 22.9988 25.5C22.9988 25.2759 22.0412 24.6 20.2988 24.6Z" fill="#393185"/>
<path d="M9.49961 30.0005C9.00191 30.0005 8.59961 29.5982 8.59961 29.1005V21.9005C8.59961 21.4028 9.00191 21.0005 9.49961 21.0005C9.99731 21.0005 10.3996 21.4028 10.3996 21.9005V29.1005C10.3996 29.5982 9.99731 30.0005 9.49961 30.0005Z" fill="#393185"/>
<path d="M9.49961 37.2005C9.00191 37.2005 8.59961 36.7982 8.59961 36.3005V32.7005C8.59961 32.2028 9.00191 31.8005 9.49961 31.8005H13.0996C13.5973 31.8005 13.9996 32.2028 13.9996 32.7005C13.9996 33.1982 13.5973 33.6005 13.0996 33.6005H10.3996V36.3005C10.3996 36.7982 9.99731 37.2005 9.49961 37.2005Z" fill="#393185"/>
<path d="M13.0996 19.2H9.49961C9.00191 19.2 8.59961 18.7977 8.59961 18.3V14.7C8.59961 14.2023 9.00191 13.8 9.49961 13.8C9.99731 13.8 10.3996 14.2023 10.3996 14.7V17.4H13.0996C13.5973 17.4 13.9996 17.8023 13.9996 18.3C13.9996 18.7977 13.5973 19.2 13.0996 19.2Z" fill="#393185"/>
<path d="M13.0992 28.2003C12.6015 28.2003 12.1992 27.798 12.1992 27.3003V23.7003C12.1992 23.2026 12.6015 22.8003 13.0992 22.8003C13.5969 22.8003 13.9992 23.2026 13.9992 23.7003V27.3003C13.9992 27.798 13.5969 28.2003 13.0992 28.2003Z" fill="#393185"/>
<path d="M34.7031 28.2C32.1372 28.2 30.2031 27.039 30.2031 25.5C30.2031 23.961 32.1372 22.8 34.7031 22.8C37.269 22.8 39.2031 23.961 39.2031 25.5C39.2031 27.039 37.269 28.2 34.7031 28.2ZM34.7031 24.6C32.9607 24.6 32.0031 25.2759 32.0031 25.5C32.0031 25.7241 32.9607 26.4 34.7031 26.4C36.4455 26.4 37.4031 25.7241 37.4031 25.5C37.4031 25.2759 36.4455 24.6 34.7031 24.6Z" fill="#393185"/>
<path d="M45.5055 29.9993C45.0078 29.9993 44.6055 29.597 44.6055 29.0993V21.8993C44.6055 21.4016 45.0078 20.9993 45.5055 20.9993C46.0032 20.9993 46.4055 21.4016 46.4055 21.8993V29.0993C46.4055 29.597 46.0032 29.9993 45.5055 29.9993Z" fill="#393185"/>
<path d="M45.5059 37.1993C45.0082 37.1993 44.6059 36.797 44.6059 36.2993V33.5993H41.9059C41.4082 33.5993 41.0059 33.197 41.0059 32.6993C41.0059 32.2016 41.4082 31.7993 41.9059 31.7993H45.5059C46.0036 31.7993 46.4059 32.2016 46.4059 32.6993V36.2993C46.4059 36.797 46.0036 37.1993 45.5059 37.1993Z" fill="#393185"/>
<path d="M45.5059 19.2H41.9059C41.4082 19.2 41.0059 18.7977 41.0059 18.3C41.0059 17.8023 41.4082 17.4 41.9059 17.4H44.6059V14.7C44.6059 14.2023 45.0082 13.8 45.5059 13.8C46.0036 13.8 46.4059 14.2023 46.4059 14.7V18.3C46.4059 18.7977 46.0036 19.2 45.5059 19.2Z" fill="#393185"/>
<path d="M41.9059 28.2C41.4082 28.2 41.0059 27.7977 41.0059 27.3V23.7C41.0059 23.2023 41.4082 22.8 41.9059 22.8C42.4036 22.8 42.8059 23.2023 42.8059 23.7V27.3C42.8059 27.7977 42.4036 28.2 41.9059 28.2Z" fill="#393185"/>
</svg>
