<svg width="80" height="80" viewBox="0 0 80 80" fill="none" xmlns="http://www.w3.org/2000/svg">
<path d="M58.9254 57.5139H56.427V59.043C55.6247 59.3717 54.9612 59.9685 54.5495 60.7316C54.1378 61.4947 54.0035 62.3769 54.1694 63.2279C54.3353 64.079 54.7912 64.8462 55.4593 65.3988C56.1275 65.9514 56.9666 66.2552 57.8336 66.2585C58.0807 66.2585 58.3222 66.3318 58.5277 66.469C58.7331 66.6063 58.8932 66.8014 58.9878 67.0297C59.0823 67.2579 59.107 67.5091 59.0588 67.7515C59.0106 67.9938 58.8917 68.2164 58.717 68.3911C58.5423 68.5658 58.3197 68.6848 58.0773 68.733C57.835 68.7812 57.5838 68.7564 57.3556 68.6619C57.1273 68.5673 56.9322 68.4072 56.7949 68.2018C56.6577 67.9963 56.5844 67.7548 56.5844 67.5077H54.0859C54.0871 68.253 54.3105 68.9811 54.7275 69.5988C55.1445 70.2165 55.7362 70.6959 56.427 70.9756V72.5047H58.9254V71.0743C59.7852 70.8154 60.5231 70.2556 61.0039 69.4973C61.4847 68.739 61.6764 67.8329 61.5438 66.9448C61.4112 66.0568 60.9633 65.2461 60.282 64.6613C59.6007 64.0765 58.7315 63.7565 57.8336 63.7601C57.5865 63.7601 57.345 63.6868 57.1396 63.5495C56.9341 63.4123 56.774 63.2172 56.6795 62.9889C56.5849 62.7606 56.5602 62.5094 56.6084 62.2671C56.6566 62.0248 56.7756 61.8022 56.9503 61.6275C57.125 61.4528 57.3476 61.3338 57.5899 61.2856C57.8322 61.2374 58.0834 61.2621 58.3117 61.3567C58.5399 61.4512 58.7351 61.6114 58.8723 61.8168C59.0096 62.0222 59.0828 62.2638 59.0828 62.5108H61.5813C61.5773 61.7107 61.3174 60.9328 60.8395 60.2911C60.3616 59.6493 59.6909 59.1774 58.9254 58.9443V57.5139Z" fill="#393185"/>
<path d="M23.4895 32.5292C24.1794 32.5292 24.7387 31.9699 24.7387 31.28C24.7387 30.5901 24.1794 30.0308 23.4895 30.0308C22.7995 30.0308 22.2402 30.5901 22.2402 31.28C22.2402 31.9699 22.7995 32.5292 23.4895 32.5292Z" fill="#393185"/>
<path d="M33.4816 32.5292C34.1716 32.5292 34.7309 31.9699 34.7309 31.28C34.7309 30.5901 34.1716 30.0308 33.4816 30.0308C32.7917 30.0308 32.2324 30.5901 32.2324 31.28C32.2324 31.9699 32.7917 32.5292 33.4816 32.5292Z" fill="#393185"/>
<path d="M25.1046 38.6244C26.0024 39.5195 27.2185 40.0222 28.4862 40.0222C29.754 40.0222 30.9701 39.5195 31.8679 38.6244C32.0955 38.3888 32.2214 38.0732 32.2185 37.7457C32.2157 37.4182 32.0843 37.1048 31.8527 36.8732C31.6211 36.6416 31.3077 36.5102 30.9802 36.5074C30.6527 36.5045 30.3371 36.6304 30.1015 36.858C29.6727 37.2856 29.0918 37.5258 28.4862 37.5258C27.8806 37.5258 27.2998 37.2856 26.871 36.858C26.6354 36.6304 26.3198 36.5045 25.9923 36.5074C25.6647 36.5102 25.3514 36.6416 25.1198 36.8732C24.8882 37.1048 24.7568 37.4182 24.754 37.7457C24.7511 38.0732 24.877 38.3888 25.1046 38.6244Z" fill="#393185"/>
<path d="M20.6484 47.0304L14.5622 48.7693C14.4473 48.7693 14.3348 48.7868 14.2212 48.793C14.0675 48.803 13.9139 48.808 13.764 48.8255C13.614 48.843 13.4829 48.8667 13.343 48.8892C13.203 48.9117 13.0494 48.9342 12.9057 48.9654C12.7621 48.9967 12.6297 49.0354 12.491 49.0716C12.3523 49.1078 12.2137 49.1428 12.0787 49.1853C11.9438 49.2278 11.8064 49.284 11.6702 49.3352C11.5341 49.3864 11.4117 49.4289 11.2855 49.4826C11.1593 49.5363 11.0206 49.6075 10.8882 49.675C10.7558 49.7424 10.6471 49.7899 10.5297 49.8536C10.4123 49.9173 10.2799 50.0073 10.1549 50.0847C10.03 50.1622 9.93007 50.2197 9.82264 50.2934C9.7152 50.3671 9.57904 50.4745 9.45786 50.5657C9.35792 50.6431 9.25424 50.7156 9.1568 50.7968C9.03188 50.8967 8.92569 51.0054 8.81201 51.1104C8.72207 51.1941 8.62838 51.2728 8.54343 51.3602C8.431 51.4726 8.32731 51.5938 8.22238 51.7125C8.14243 51.8024 8.05998 51.8874 7.98377 51.9798C7.88259 52.1047 7.79014 52.2297 7.6952 52.3658C7.62525 52.4608 7.55154 52.552 7.48533 52.6507C7.39414 52.7868 7.31419 52.9292 7.23549 53.0704C7.17552 53.1703 7.11056 53.2665 7.05685 53.3677C6.9769 53.5151 6.90944 53.6688 6.83823 53.8212C6.78951 53.9236 6.7358 54.0236 6.69207 54.1297C6.62461 54.2871 6.56715 54.4508 6.51468 54.6132C6.47721 54.7181 6.43348 54.8206 6.39975 54.928C6.34853 55.0966 6.30981 55.269 6.26734 55.4414C6.2411 55.5489 6.20862 55.6525 6.18614 55.7625C6.14741 55.9549 6.12242 56.1535 6.09619 56.3509C6.0837 56.4421 6.06371 56.532 6.05497 56.6232C6.02142 56.919 6.00307 57.2163 6 57.5139V76.2523C6 77.2463 6.39484 78.1995 7.09767 78.9023C7.8005 79.6051 8.75374 80 9.74768 80H73.0623C73.2938 79.9999 73.5206 79.9354 73.7176 79.8139C73.9146 79.6924 74.0739 79.5185 74.1779 79.3117L74.3115 79.0456C74.7162 78.2327 74.8127 77.3007 74.583 76.4222C74.3533 75.5436 73.8131 74.7781 73.0623 74.2673V63.76C73.0578 60.9989 72.2224 58.303 70.6648 56.023C69.1072 53.7431 66.8995 51.9848 64.3289 50.9767C64.7037 50.7943 65.0785 50.6244 65.437 50.4095L66.3877 49.8399C66.5348 49.7589 66.664 49.649 66.7677 49.517C66.8714 49.3849 66.9473 49.2332 66.9911 49.0711C67.0348 48.909 67.0455 48.7397 67.0223 48.5734C66.9991 48.4071 66.9427 48.2471 66.8563 48.1031C66.77 47.9591 66.6554 47.834 66.5196 47.7352C66.3838 47.6365 66.2295 47.5661 66.0658 47.5284C65.9022 47.4907 65.7327 47.4863 65.5673 47.5155C65.402 47.5448 65.2442 47.6071 65.1035 47.6987L64.1516 48.2684C63.9017 48.4145 63.6519 48.5244 63.402 48.6519L64.0704 43.9498C64.0959 43.772 64.0827 43.5908 64.0319 43.4186C63.981 43.2464 63.8936 43.0871 63.7757 42.9517C63.6577 42.8163 63.5119 42.708 63.3483 42.634C63.1846 42.56 63.007 42.5222 62.8274 42.5232H52.8336C52.6545 42.5231 52.4775 42.5616 52.3146 42.636C52.1518 42.7103 52.0068 42.8188 51.8895 42.9541C51.7722 43.0894 51.6853 43.2483 51.6349 43.4201C51.5844 43.5919 51.5714 43.7725 51.5968 43.9498L52.2727 48.6519C52.0228 48.5269 51.758 48.4145 51.5144 48.2684L50.1277 47.4364C49.987 47.3407 49.8281 47.2748 49.661 47.2427C49.4939 47.2106 49.3219 47.2131 49.1558 47.2498C48.9896 47.2866 48.8327 47.3569 48.6946 47.4565C48.5566 47.556 48.4404 47.6828 48.3531 47.8289C48.2658 47.975 48.2093 48.1374 48.187 48.3061C48.1648 48.4748 48.1772 48.6463 48.2236 48.8101C48.27 48.9738 48.3493 49.1264 48.4568 49.2583C48.5643 49.3903 48.6976 49.4989 48.8485 49.5775L50.2352 50.4095C50.6592 50.6545 51.0954 50.8779 51.5419 51.0791C50.7384 51.4164 49.9687 51.8293 49.2433 52.3121C49.1771 52.2222 49.1258 52.121 49.0559 52.0335C48.856 51.7924 48.6436 51.5626 48.4188 51.3377C48.2164 51.1328 48.004 50.9405 47.7854 50.7593C47.7117 50.6981 47.633 50.6456 47.5568 50.5869C47.4082 50.472 47.262 50.3558 47.1071 50.2509C47.0159 50.1884 46.9185 50.136 46.8248 50.0785C46.6799 49.9873 46.5362 49.8949 46.3863 49.8137C46.2838 49.7587 46.1777 49.7137 46.0752 49.6625C45.9266 49.59 45.7804 49.5138 45.628 49.4501C45.5193 49.4052 45.4069 49.3689 45.297 49.3252C45.1446 49.2677 44.9934 49.2078 44.8372 49.1603C44.7236 49.1253 44.6061 49.0991 44.4912 49.0679C44.3338 49.0266 44.1789 48.9829 44.019 48.9504C43.9016 48.9255 43.7816 48.9105 43.6617 48.8917C43.5006 48.8655 43.3394 48.8368 43.1758 48.8193C43.0508 48.8068 42.9347 48.803 42.8147 48.7955C42.6948 48.788 42.5437 48.7693 42.41 48.7693L36.3225 47.0291L34.7322 44.6469V43.0928C36.0905 42.189 37.2341 40.9985 38.0828 39.6051C38.9314 38.2118 39.4644 36.6493 39.6442 35.0278H39.7292C40.8279 35.0316 41.8971 34.6719 42.7702 34.0048C43.6433 33.3377 44.2713 32.4006 44.5564 31.3395C44.8415 30.2783 44.7677 29.1527 44.3465 28.1378C43.9253 27.123 43.1803 26.2759 42.2276 25.7285V23.7847C42.2348 21.0031 41.392 18.2857 39.812 15.9963C38.2319 13.707 35.9902 11.9551 33.3868 10.9752C33.4476 10.6681 33.4798 10.3562 33.483 10.0432C33.4895 9.34436 33.3493 8.6519 33.0715 8.01058C32.7936 7.36927 32.3844 6.79336 31.8701 6.32008C31.3558 5.8468 30.748 5.48666 30.0859 5.26293C29.4237 5.03921 28.722 4.95687 28.0261 5.02124C27.3302 5.08561 26.6555 5.29525 26.0456 5.63663C25.4357 5.978 24.9043 6.44352 24.4855 7.0031C24.0668 7.56267 23.7701 8.20387 23.6146 8.88526C23.4591 9.56666 23.4483 10.2731 23.5829 10.9589C20.9859 11.9529 18.7512 13.7106 17.1734 16.0003C15.5956 18.29 14.7488 21.0041 14.7446 23.7847V25.7285C13.7919 26.2759 13.0469 27.123 12.6257 28.1378C12.2045 29.1527 12.1307 30.2783 12.4158 31.3395C12.7009 32.4006 13.3289 33.3377 14.202 34.0048C15.0751 34.6719 16.1443 35.0316 17.2431 35.0278H17.328C17.5075 36.6494 18.0403 38.212 18.889 39.6054C19.7376 40.9988 20.8815 42.1892 22.24 43.0928V44.6469L20.6484 47.0304ZM27.5317 70.0062L24.7384 68.6133V58.978C24.8796 59.2891 25.017 59.6026 25.1694 59.9074L27.368 64.3172C27.4716 64.5251 27.6312 64.6999 27.8287 64.8222C28.0262 64.9444 28.2538 65.0092 28.4861 65.0092C28.7184 65.0092 28.946 64.9444 29.1435 64.8222C29.341 64.6999 29.5006 64.5251 29.6042 64.3172L31.8016 59.9087C31.9552 59.6026 32.0926 59.2841 32.2338 58.978V70.0062H27.5317ZM22.24 49.1441V54.4945L20.1 52.3546L22.24 49.1441ZM22.24 58.0273V64.7619L20.0076 59.1854L21.9476 57.735L22.24 58.0273ZM34.7322 58.0273L35.0246 57.735L36.9646 59.1854L34.7322 64.7694V58.0273ZM34.7322 54.4945V49.1441L36.8722 52.3546L34.7322 54.4945ZM32.2338 44.3545V47.5201C32.2274 51.4329 31.3144 55.291 29.5667 58.7919L28.4861 60.9605L27.4055 58.7906C25.6576 55.2903 24.7447 51.4325 24.7384 47.5201V44.357C27.1584 45.2424 29.8138 45.2424 32.2338 44.357V44.3545ZM17.6091 53.4002L20.1625 55.9536L17.7427 57.7637C17.5224 57.9286 17.3627 58.1616 17.2883 58.4266C17.214 58.6916 17.2293 58.9737 17.3317 59.2291L20.8658 68.0486L16.6871 70.1373C16.5647 70.2021 16.4537 70.2865 16.3586 70.3872L15.7802 70.236L15.3967 68.6945C14.9988 67.0949 14.9988 65.4221 15.3967 63.8225L15.9588 61.5614C15.9828 61.4633 15.9945 61.3626 15.9938 61.2616V60.0124C15.9938 59.681 15.8622 59.3633 15.6279 59.129C15.3937 58.8947 15.0759 58.7631 14.7446 58.7631H8.49846V57.5139C8.50044 55.8579 9.15915 54.2703 10.3301 53.0994C11.501 51.9285 13.0886 51.2697 14.7446 51.2678C14.8607 51.2677 14.9763 51.2517 15.0881 51.2203L18.5073 50.2421L17.4529 51.8237C17.2927 52.064 17.2207 52.3524 17.2491 52.6398C17.2776 52.9273 17.4048 53.196 17.6091 53.4002ZM8.49846 76.2523V61.2616H13.4579L12.9707 63.2191C12.4735 65.2145 12.4735 67.3013 12.9707 69.2966L13.5328 71.5565C13.5564 71.6298 13.5874 71.7005 13.6253 71.7676C13.6428 71.8165 13.6636 71.864 13.6877 71.91C13.7651 72.0384 13.865 72.1518 13.9826 72.2448C13.9826 72.2448 13.9976 72.2448 14.0038 72.256C14.121 72.3412 14.252 72.4054 14.3911 72.4459C14.4048 72.4459 14.4148 72.4609 14.4298 72.4647L16.5098 73.0056L18.0088 77.5028H9.74768C9.58353 77.5028 9.42098 77.4704 9.26934 77.4076C9.11769 77.3447 8.97992 77.2526 8.8639 77.1365C8.74789 77.0203 8.65589 76.8825 8.59319 76.7308C8.53048 76.579 8.49829 76.4165 8.49846 76.2523ZM18.7709 71.8888L22.24 70.1561L26.6785 72.3797C26.8524 72.464 27.0436 72.5068 27.2369 72.5046H43.0808V74.2673C42.5582 74.6248 42.1346 75.109 41.8498 75.6746C41.5649 76.2402 41.428 76.8687 41.4518 77.5015H20.6422L18.7709 71.8888ZM70.5638 63.76V75.0031C70.5626 75.2363 70.6266 75.4652 70.7487 75.6639C70.8708 75.8626 71.0461 76.0232 71.2547 76.1274L71.5182 76.2523C71.7458 76.3662 71.9332 76.5468 72.0553 76.77C72.1774 76.9933 72.2285 77.2485 72.2016 77.5015H43.9416C43.9147 77.2485 43.9657 76.9933 44.0878 76.77C44.2099 76.5468 44.3973 76.3662 44.6249 76.2523L44.8885 76.1274C45.0971 76.0232 45.2724 75.8626 45.3944 75.6639C45.5165 75.4652 45.5806 75.2363 45.5793 75.0031V63.76C45.5826 60.7792 46.7682 57.9214 48.876 55.8136C50.9837 53.7059 53.8415 52.5203 56.8223 52.517H59.3208C62.3016 52.5203 65.1594 53.7059 67.2672 55.8136C69.3749 57.9214 70.5605 60.7792 70.5638 63.76ZM54.2752 45.0216H61.3858L60.7324 49.63C58.8268 50.0791 56.8429 50.0791 54.9373 49.63L54.2752 45.0216ZM41.8841 51.2203C41.9959 51.2517 42.1115 51.2677 42.2276 51.2678C43.0479 51.2639 43.8608 51.4239 44.6185 51.7384C45.3761 52.0529 46.0634 52.5155 46.6399 53.0991C46.811 53.2715 46.9722 53.4414 47.1058 53.5988C47.1721 53.6825 47.2308 53.7874 47.2907 53.8786C45.8667 55.2535 44.7562 56.9197 44.0352 58.7631H42.2276C41.8963 58.7631 41.5785 58.8947 41.3443 59.129C41.11 59.3633 40.9784 59.681 40.9784 60.0124V61.2616C40.9784 61.3631 40.991 61.4642 41.0159 61.5626L41.578 63.825C41.9759 65.4246 41.9759 67.0974 41.578 68.697L41.252 70.0062H35.3281L39.6405 59.2266C39.7423 58.9715 39.7572 58.6899 39.6829 58.4255C39.6086 58.1611 39.4493 57.9285 39.2295 57.7637L36.811 55.9549L39.3644 53.4014C39.5687 53.1972 39.6959 52.9285 39.7243 52.6411C39.7528 52.3537 39.6808 52.0652 39.5205 51.8249L38.4662 50.2434L41.8841 51.2203ZM39.7292 32.5293V27.5324C40.3918 27.5324 41.0273 27.7957 41.4958 28.2642C41.9644 28.7328 42.2276 29.3682 42.2276 30.0309C42.2276 30.6935 41.9644 31.329 41.4958 31.7976C41.0273 32.2661 40.3918 32.5293 39.7292 32.5293ZM28.4861 7.54478C29.1487 7.54478 29.7842 7.80801 30.2528 8.27656C30.7213 8.74511 30.9846 9.3806 30.9846 10.0432C30.9791 10.1295 30.9687 10.2155 30.9533 10.3006C29.3219 9.99889 27.649 9.99889 26.0176 10.3006C26.0032 10.2154 25.9932 10.1295 25.9876 10.0432C25.9876 9.3806 26.2509 8.74511 26.7194 8.27656C27.188 7.80801 27.8235 7.54478 28.4861 7.54478ZM25.488 12.9564C27.1569 12.4933 28.9104 12.4223 30.6114 12.749C32.3123 13.0756 33.9148 13.791 35.2935 14.8393C36.6723 15.8877 37.79 17.2406 38.5595 18.7923C39.3289 20.3441 39.7292 22.0527 39.7292 23.7847V25.034H38.4799C38.1486 25.034 37.8309 25.1656 37.5966 25.3999C37.3623 25.6341 37.2307 25.9519 37.2307 26.2832V27.5324H33.5705C30.9334 27.5394 28.3212 27.0234 25.8849 26.0143C23.4486 25.0052 21.2365 23.5231 19.3767 21.6536C19.2388 21.513 19.0692 21.4075 18.8821 21.346C18.695 21.2845 18.4959 21.2687 18.3015 21.3001C18.1071 21.3314 17.923 21.4089 17.7647 21.526C17.6064 21.6432 17.4785 21.7966 17.3917 21.9734C17.7399 19.8544 18.6872 17.8793 20.1219 16.2815C21.5565 14.6837 23.4186 13.5299 25.488 12.9564ZM14.7446 30.0309C14.7446 29.3682 15.0078 28.7328 15.4764 28.2642C15.9449 27.7957 16.5804 27.5324 17.2431 27.5324V32.5293C16.5804 32.5293 15.9449 32.2661 15.4764 31.7976C15.0078 31.329 14.7446 30.6935 14.7446 30.0309ZM19.7415 33.7786V25.2763C22.0605 27.0874 24.7148 28.4218 27.5517 29.2026C27.4397 29.3286 27.3547 29.4761 27.3018 29.6361L26.0526 33.3838C25.9794 33.6039 25.9689 33.84 26.0223 34.0657C26.0757 34.2914 26.1909 34.4978 26.3549 34.6618L27.6041 35.911C27.8398 36.1386 28.1553 36.2645 28.4829 36.2616C28.8104 36.2588 29.1237 36.1274 29.3553 35.8958C29.587 35.6642 29.7183 35.3508 29.7212 35.0233C29.724 34.6958 29.5981 34.3802 29.3706 34.1446L28.6672 33.44L29.6729 30.4256C29.7478 30.1808 29.7438 29.9186 29.6616 29.6761C30.9519 29.907 32.2597 30.0257 33.5705 30.0309H37.2307V33.7786C37.2327 35.3442 36.8128 36.8815 36.015 38.2286C35.2172 39.5758 34.0711 40.683 32.6973 41.4338C31.4029 42.1376 29.9528 42.5056 28.4795 42.5043C27.0062 42.503 25.5568 42.1324 24.2637 41.4263C22.8924 40.6754 21.7488 39.5688 20.953 38.2231C20.1573 36.8773 19.7388 35.342 19.7415 33.7786Z" fill="#393185"/>
</svg>
