<svg width="54" height="54" viewBox="0 0 54 54" fill="none" xmlns="http://www.w3.org/2000/svg">
<g clip-path="url(#clip0_723_33395)">
<path d="M45.1552 36.8996H41.3822C41.2462 36.8996 41.1119 36.9305 40.9895 36.9898C40.8671 37.0491 40.7598 37.1354 40.6756 37.2422C40.5913 37.349 40.5324 37.4735 40.5032 37.6063C40.474 37.7392 40.4753 37.8769 40.5069 38.0092L42.7632 47.431C43.0092 48.4211 43.6362 49.2741 44.5079 49.8043C45.3796 50.3345 46.4254 50.499 47.4178 50.2621C48.4102 50.0251 49.2688 49.4059 49.8069 48.539C50.345 47.6722 50.5191 46.6279 50.2912 45.6335L48.9197 39.8735C48.7203 39.0255 48.2397 38.27 47.5561 37.73C46.8725 37.19 46.0263 36.8973 45.1552 36.8996ZM48.1509 47.8125C47.91 48.1174 47.5882 48.3483 47.2223 48.4788C46.8564 48.6094 46.4611 48.6343 46.0817 48.5508C45.7022 48.4672 45.354 48.2786 45.0767 48.0064C44.7994 47.7343 44.6044 47.3896 44.5138 47.0118L42.5231 38.6996H45.1556C45.6215 38.6983 46.0742 38.8548 46.4399 39.1436C46.8055 39.4324 47.0626 39.8364 47.1693 40.29L48.5408 46.0499C48.6141 46.354 48.617 46.6708 48.5494 46.9763C48.4819 47.2817 48.3456 47.5677 48.1509 47.8125ZM52.4218 39.0392C52.0367 37.4025 51.1089 35.9444 49.7894 34.9022C48.47 33.86 46.8366 33.2952 45.1552 33.2997H42.0455C41.9633 32.9761 41.5055 31.2233 41.4208 30.9192C41.4103 30.8815 46.5146 10.9591 46.5146 10.9591C46.8137 9.80013 46.8764 8.5928 46.6992 7.40903C46.5219 6.22527 46.1083 5.08928 45.4828 4.06872C44.8574 3.04815 44.033 2.16388 43.0587 1.46857C42.0844 0.773249 40.9802 0.281106 39.8117 0.0214444C39.5856 -0.0288223 39.3487 0.0100501 39.1505 0.129972C38.9523 0.249894 38.808 0.441629 38.7476 0.665274L35.9801 10.9038L33.2126 0.665274C33.1522 0.441653 33.0079 0.249937 32.8097 0.130018C32.6115 0.0100983 32.3748 -0.0287899 32.1486 0.0214444C30.79 0.31755 29.5202 0.92964 28.4423 1.8081C27.3643 2.68655 26.5086 3.80665 25.9443 5.07758L27.586 5.81557C27.9775 4.93336 28.5458 4.14081 29.2557 3.4869C29.9656 2.833 30.802 2.33163 31.7134 2.0138C31.7134 2.0138 39.9168 32.2388 40.1883 33.2997H37.526L36.8191 30.3874C36.7715 30.1913 36.6594 30.0169 36.5008 29.8922C36.3422 29.7675 36.1462 29.6997 35.9444 29.6997H32.142L27.1895 10.5095C26.9109 9.44387 26.886 8.32779 27.1168 7.25083L25.3563 6.87554C25.0668 8.2251 25.0976 9.62374 25.4463 10.9592L30.5702 30.8134C30.5605 30.8472 30.5507 30.8818 30.5401 30.9194C30.4549 31.2232 29.9975 32.9763 29.9154 33.2999H28.7605C28.553 30.8577 27.5225 28.5583 25.8376 26.7783C24.1527 24.9983 21.9134 23.8431 19.4862 23.5019L22.3516 18.4437C22.4292 18.3067 22.4695 18.1519 22.4686 17.9945C22.4676 17.8371 22.4254 17.6827 22.3462 17.5467C22.267 17.4107 22.1534 17.2979 22.017 17.2195C21.8805 17.1411 21.7259 17.0998 21.5685 17.0999H8.9999C8.84226 17.0999 8.68738 17.1413 8.55077 17.2199C8.41416 17.2986 8.30062 17.4118 8.22149 17.5481C8.14237 17.6845 8.10044 17.8392 8.09991 17.9968C8.09938 18.1545 8.14027 18.3095 8.21848 18.4464L11.1067 23.501C8.67147 23.8325 6.42493 24.9931 4.74554 26.7875L6.05434 28.0233C6.89253 27.1278 7.90644 26.4148 9.03269 25.929C10.1589 25.4432 11.3733 25.1949 12.5999 25.1998C12.7575 25.1998 12.9124 25.1584 13.049 25.0797C13.1856 25.001 13.2991 24.8879 13.3783 24.7515C13.4574 24.6152 13.4993 24.4604 13.4998 24.3028C13.5004 24.1452 13.4595 23.9901 13.3813 23.8533L10.5508 18.8998H20.0248L17.2171 23.8562C17.1396 23.9931 17.0993 24.1479 17.1002 24.3052C17.1012 24.4625 17.1434 24.6168 17.2225 24.7528C17.3017 24.8887 17.4152 25.0015 17.5515 25.08C17.6879 25.1584 17.8425 25.1997 17.9998 25.1998C20.3859 25.2025 22.6735 26.1515 24.3607 27.8388C26.0479 29.526 26.997 31.8136 26.9997 34.1997V47.072C26.9991 47.6589 27.1729 48.2328 27.4989 48.7208L28.6028 50.3767C28.7204 50.5533 28.7879 50.7585 28.7981 50.9704C28.8083 51.1823 28.7608 51.393 28.6607 51.5801C28.5606 51.7671 28.4115 51.9235 28.2295 52.0325C28.0475 52.1416 27.8394 52.1992 27.6272 52.1992H2.97244C2.76028 52.1992 2.5521 52.1416 2.3701 52.0325C2.1881 51.9235 2.03909 51.7671 1.93896 51.5801C1.83883 51.393 1.79133 51.1823 1.80153 50.9704C1.81172 50.7585 1.87923 50.5533 1.99686 50.3767L3.44876 48.1989C3.54737 48.051 3.59998 47.8772 3.59996 47.6995V34.1997C3.5969 32.4153 4.12693 30.6707 5.12207 29.1896L3.62775 28.1864C2.433 29.9639 1.79654 32.0579 1.79998 34.1997V47.427L0.499274 49.3781C0.200821 49.8257 0.0294616 50.346 0.00347099 50.8834C-0.0225196 51.4208 0.0978329 51.9551 0.351694 52.4295C0.605555 52.9039 0.983405 53.3004 1.44495 53.5769C1.90649 53.8534 2.43443 53.9994 2.97244 53.9994H27.6272C28.2239 53.9987 28.8065 53.8186 29.2996 53.4827C29.7927 53.1467 30.1734 52.6703 30.3924 52.1153C31.5408 51.1029 32.3466 49.759 32.6986 48.2691L35.9801 34.5649L39.262 48.2693C39.6294 49.8029 40.4727 51.181 41.6711 52.2061C42.8695 53.2312 44.3615 53.8509 45.9335 53.9763C47.5056 54.1018 49.077 53.7266 50.4227 52.9044C51.7685 52.0823 52.8196 50.8554 53.4256 49.3995L51.7648 48.7053C51.3052 49.8108 50.5076 50.7425 49.4861 51.3669C48.4647 51.9914 47.2718 52.2766 46.0784 52.1817C44.885 52.0868 43.7522 51.6166 42.8422 50.8386C41.9323 50.0606 41.292 49.0146 41.0128 47.8503L37.9593 35.0996H45.1552C46.4314 35.0963 47.6712 35.525 48.6727 36.316C49.6742 37.1071 50.3784 38.2138 50.6707 39.4562L52.0422 45.2161C52.146 45.65 52.1987 46.0946 52.1994 46.5408L53.9994 46.5401C53.9987 45.9537 53.9295 45.3694 53.7931 44.7992L52.4218 39.0392ZM28.7997 38.6996H29.4373L28.7997 41.3631V38.6996ZM30.9484 47.8503C30.8032 48.4614 30.557 49.0439 30.2201 49.5738C30.1826 49.5073 30.1427 49.4421 30.1005 49.3782L29.0747 47.8393C29.1236 47.7055 29.1649 47.5691 29.1985 47.4307L31.4541 38.0092C31.4857 37.8769 31.487 37.7391 31.4578 37.6062C31.4285 37.4733 31.3696 37.3488 31.2853 37.242C31.201 37.1352 31.0935 37.0489 30.9711 36.9896C30.8486 36.9303 30.7143 36.8995 30.5783 36.8996H28.7997V35.0996H34.0014L30.9484 47.8503ZM34.4347 33.2997H31.7727C31.9527 32.5973 32.1249 31.9407 32.2466 31.4997H34.8719L34.4347 33.2997ZM36.9128 14.3533L40.2471 2.01616C41.9286 2.60713 43.3268 3.8081 44.1647 5.38116C45.0027 6.95422 45.2192 8.78463 44.7715 10.5098L40.4255 27.3502L36.9128 14.3533ZM35.0445 27.8997C34.6885 27.8997 34.3404 27.7942 34.0444 27.5964C33.7484 27.3986 33.5177 27.1175 33.3815 26.7886C33.2453 26.4597 33.2096 26.0978 33.2791 25.7486C33.3485 25.3994 33.5199 25.0787 33.7717 24.827C34.0234 24.5752 34.3441 24.4038 34.6933 24.3344C35.0425 24.2649 35.4044 24.3006 35.7333 24.4368C36.0622 24.573 36.3433 24.8037 36.5411 25.0997C36.7389 25.3957 36.8444 25.7438 36.8444 26.0998C36.8439 26.577 36.654 27.0345 36.3166 27.3719C35.9792 27.7093 35.5217 27.8992 35.0445 27.8997ZM11.521 27.9177L11.879 29.6817C11.3389 29.7913 10.8191 29.9836 10.3377 30.2519L9.46204 28.6793C10.105 28.321 10.7995 28.0641 11.5209 27.9177H11.521ZM7.55474 34.9742V38.5742H5.75476V34.9742C5.75214 34.0155 5.94248 33.0661 6.31445 32.1825C6.68642 31.2989 7.23241 30.4992 7.91991 29.831L9.17989 31.1172C8.66407 31.6182 8.25436 32.2178 7.97516 32.8805C7.69596 33.5431 7.55298 34.2552 7.55474 34.9742ZM14.3998 30.5997V32.3997C13.4451 32.3997 12.5294 32.779 11.8543 33.4541C11.1792 34.1292 10.7999 35.0449 10.7999 35.9996C10.7999 36.9544 11.1792 37.8701 11.8543 38.5452C12.5294 39.2203 13.4451 39.5996 14.3998 39.5996V43.1995C13.9226 43.199 13.4651 43.0092 13.1277 42.6717C12.7902 42.3343 12.6004 41.8768 12.5999 41.3996H10.7999C10.8009 42.354 11.1806 43.269 11.8555 43.9439C12.5304 44.6188 13.4454 44.9985 14.3998 44.9995V46.7995H16.1998V44.9995C17.1546 44.9995 18.0702 44.6202 18.7454 43.9451C19.4205 43.27 19.7998 42.3543 19.7998 41.3996C19.7998 40.4448 19.4205 39.5291 18.7454 38.854C18.0702 38.1789 17.1546 37.7996 16.1998 37.7996V34.1997C16.677 34.2002 17.1345 34.39 17.472 34.7275C17.8094 35.0649 17.9992 35.5224 17.9998 35.9996H19.7998C19.7987 35.0452 19.4191 34.1302 18.7442 33.4553C18.0693 32.7804 17.1542 32.4007 16.1998 32.3997V30.5997H14.3998ZM14.3998 37.7996C13.9224 37.7996 13.4646 37.61 13.1271 37.2724C12.7895 36.9348 12.5999 36.477 12.5999 35.9996C12.5999 35.5222 12.7895 35.0644 13.1271 34.7269C13.4646 34.3893 13.9224 34.1997 14.3998 34.1997V37.7996ZM17.9998 41.3996C17.9992 41.8768 17.8094 42.3343 17.472 42.6717C17.1345 43.0092 16.677 43.199 16.1998 43.1995V39.5996C16.677 39.6002 17.1345 39.79 17.472 40.1274C17.8094 40.4649 17.9992 40.9224 17.9998 41.3996Z" fill="#393185"/>
</g>
<defs>
<clipPath id="clip0_723_33395">
<rect width="54" height="54" fill="white"/>
</clipPath>
</defs>
</svg>
