<svg width="70" height="80" viewBox="0 0 70 80" fill="none" xmlns="http://www.w3.org/2000/svg">
<path d="M58.8948 58.7344H10.2302C6.51915 58.7344 3.5 55.7152 3.5 52.0042V18.8708C3.5 15.1598 6.51915 12.1406 10.2302 12.1406H30.6797C31.3945 12.1406 31.974 12.7201 31.974 13.4349C31.974 14.1497 31.3945 14.7292 30.6797 14.7292H10.2302C7.94647 14.7292 6.08854 16.5871 6.08854 18.8708V52.0042C6.08854 54.2879 7.94647 56.1458 10.2302 56.1458H58.8948C61.1785 56.1458 63.0365 54.2879 63.0365 52.0042V18.8708C63.0365 16.5871 61.1785 14.7292 58.8948 14.7292H57.8594C57.1446 14.7292 56.5651 14.1497 56.5651 13.4349C56.5651 12.7201 57.1446 12.1406 57.8594 12.1406H58.8948C62.6059 12.1406 65.625 15.1598 65.625 18.8708V52.0042C65.625 55.7152 62.6059 58.7344 58.8948 58.7344Z" fill="#393185"/>
<path d="M64.3307 48.3803H4.79427C4.07945 48.3803 3.5 47.8007 3.5 47.086C3.5 46.3712 4.07945 45.7917 4.79427 45.7917H64.3307C65.0456 45.7917 65.625 46.3712 65.625 47.086C65.625 47.8007 65.0456 48.3803 64.3307 48.3803Z" fill="#393185"/>
<path d="M35.2096 53.5573H33.9154C33.2005 53.5573 32.6211 52.9777 32.6211 52.263C32.6211 51.5482 33.2005 50.9688 33.9154 50.9688H35.2096C35.9245 50.9688 36.5039 51.5482 36.5039 52.263C36.5039 52.9777 35.9245 53.5573 35.2096 53.5573Z" fill="#393185"/>
<path d="M25.5033 66.4999C24.7884 66.4999 24.209 65.9203 24.209 65.2056C24.209 64.4908 24.7884 63.9114 25.5033 63.9114C27.6442 63.9114 29.3861 62.1695 29.3861 60.0286V57.44C29.3861 56.7252 29.9655 56.1458 30.6803 56.1458C31.3952 56.1458 31.9746 56.7252 31.9746 57.44V60.0286C31.9746 63.5969 29.0716 66.4999 25.5033 66.4999Z" fill="#393185"/>
<path d="M43.6217 66.4999C40.0534 66.4999 37.1504 63.5969 37.1504 60.0286V57.44C37.1504 56.7252 37.7298 56.1458 38.4447 56.1458C39.1595 56.1458 39.7389 56.7252 39.7389 57.44V60.0286C39.7389 62.1695 41.4808 63.9114 43.6217 63.9114C44.3366 63.9114 44.916 64.4908 44.916 65.2056C44.916 65.9203 44.3366 66.4999 43.6217 66.4999Z" fill="#393185"/>
<path d="M43.623 66.4999H25.5033C24.7884 66.4999 24.209 65.9203 24.209 65.2056C24.209 64.4908 24.7884 63.9114 25.5033 63.9114H43.623C44.3379 63.9114 44.9173 64.4908 44.9173 65.2056C44.9173 65.9203 44.3379 66.4999 43.623 66.4999Z" fill="#393185"/>
<path d="M57.8587 27.6719H30.679C29.9642 27.6719 29.3848 27.0924 29.3848 26.3776V5.66927C29.3848 4.95445 29.9642 4.375 30.679 4.375H57.8587C58.5735 4.375 59.153 4.95445 59.153 5.66927V26.3776C59.153 27.0924 58.5735 27.6719 57.8587 27.6719ZM31.9733 25.0833H56.5645V6.96354H31.9733V25.0833Z" fill="#393185"/>
<path d="M25.5033 40.6147H9.97201C9.25718 40.6147 8.67773 40.0351 8.67773 39.3204V19.9063C8.67773 19.1915 9.25718 18.6121 9.97201 18.6121H20.8439C21.1871 18.6121 21.5164 18.7485 21.7591 18.9912L26.4184 23.6505C26.6611 23.8932 26.7975 24.2225 26.7975 24.5657V39.3204C26.7975 40.0351 26.2181 40.6147 25.5033 40.6147ZM11.2663 38.0261H24.209V25.1018L20.3078 21.2006H11.2663V38.0261Z" fill="#393185"/>
<path d="M20.3249 34.1432H15.1478C14.433 34.1432 13.8535 33.5638 13.8535 32.849C13.8535 32.1341 14.433 31.5547 15.1478 31.5547H20.3249C21.0397 31.5547 21.6191 32.1341 21.6191 32.849C21.6191 33.5638 21.0397 34.1432 20.3249 34.1432Z" fill="#393185"/>
<path d="M17.7363 28.9662H15.1478C14.433 28.9662 13.8535 28.3868 13.8535 27.672C13.8535 26.9571 14.433 26.3777 15.1478 26.3777H17.7363C18.4512 26.3777 19.0306 26.9571 19.0306 27.672C19.0306 28.3868 18.4512 28.9662 17.7363 28.9662Z" fill="#393185"/>
<path d="M57.86 40.6147H33.2689C32.5541 40.6147 31.9746 40.0351 31.9746 39.3204C31.9746 38.6056 32.5541 38.0261 33.2689 38.0261H57.86C58.5749 38.0261 59.1543 38.6056 59.1543 39.3204C59.1543 40.0351 58.5749 40.6147 57.86 40.6147Z" fill="#393185"/>
<path d="M57.86 35.4374H33.2689C32.5541 35.4374 31.9746 34.858 31.9746 34.1431C31.9746 33.4283 32.5541 32.8489 33.2689 32.8489H57.86C58.5749 32.8489 59.1543 33.4283 59.1543 34.1431C59.1543 34.858 58.5749 35.4374 57.86 35.4374Z" fill="#393185"/>
<path d="M57.8587 12.1405H30.679C29.9642 12.1405 29.3848 11.5611 29.3848 10.8463C29.3848 10.1314 29.9642 9.552 30.679 9.552H57.8587C58.5735 9.552 59.153 10.1314 59.153 10.8463C59.153 11.5611 58.5735 12.1405 57.8587 12.1405Z" fill="#393185"/>
<path d="M46.2109 17.3178H35.8568C35.1419 17.3178 34.5625 16.7383 34.5625 16.0235C34.5625 15.3087 35.1419 14.7292 35.8568 14.7292H46.2109C46.9258 14.7292 47.5052 15.3087 47.5052 16.0235C47.5052 16.7383 46.9258 17.3178 46.2109 17.3178Z" fill="#393185"/>
<path d="M52.6823 22.4948H35.8568C35.1419 22.4948 34.5625 21.9153 34.5625 21.2005C34.5625 20.4857 35.1419 19.9062 35.8568 19.9062H52.6823C53.3971 19.9062 53.9766 20.4857 53.9766 21.2005C53.9766 21.9153 53.3971 22.4948 52.6823 22.4948Z" fill="#393185"/>
</svg>
