<svg width="1722" height="90" viewBox="0 0 1722 90" fill="none" xmlns="http://www.w3.org/2000/svg">
<path d="M221.839 29.962V61H216.337V35.317C216.197 35.457 215.826 35.646 215.224 35.884C214.636 36.108 213.922 36.325 213.082 36.535C212.256 36.731 211.395 36.871 210.499 36.955V32.461C211.395 32.349 212.256 32.153 213.082 31.873C213.922 31.593 214.643 31.285 215.245 30.949C215.847 30.599 216.253 30.27 216.463 29.962H221.839Z" fill="#ffffff"/>
<circle cx="218" cy="45" r="44" stroke="#ffffff" stroke-width="2"/>
<path d="M849.142 61V56.401C849.254 55.995 849.604 55.456 850.192 54.784C850.794 54.098 851.522 53.349 852.376 52.537C853.244 51.725 854.147 50.906 855.085 50.08C856.023 49.254 856.898 48.491 857.71 47.791C858.69 46.937 859.649 46.048 860.587 45.124C861.525 44.2 862.302 43.227 862.918 42.205C863.534 41.183 863.842 40.098 863.842 38.95C863.842 37.424 863.478 36.227 862.75 35.359C862.022 34.477 860.909 34.036 859.411 34.036C858.193 34.036 857.227 34.302 856.513 34.834C855.799 35.352 855.288 36.08 854.98 37.018C854.672 37.956 854.518 39.048 854.518 40.294H848.953C848.953 38.124 849.352 36.241 850.15 34.645C850.948 33.035 852.131 31.789 853.699 30.907C855.267 30.025 857.192 29.584 859.474 29.584C861.672 29.584 863.506 29.997 864.976 30.823C866.446 31.635 867.545 32.755 868.273 34.183C869.015 35.597 869.386 37.2 869.386 38.992C869.386 40.21 869.155 41.358 868.693 42.436C868.245 43.5 867.657 44.494 866.929 45.418C866.201 46.342 865.424 47.189 864.598 47.959C863.772 48.729 862.981 49.429 862.225 50.059C860.993 51.067 859.894 51.998 858.928 52.852C857.976 53.692 857.199 54.427 856.597 55.057C856.009 55.687 855.645 56.205 855.505 56.611H869.344V61H849.142Z" fill="#ffffff"/>
<circle cx="860" cy="45" r="44" stroke="#ffffff" stroke-width="2"/>
<path d="M1505.97 44.683C1507.2 44.725 1508.23 45.068 1509.06 45.712C1509.9 46.356 1510.53 47.217 1510.97 48.295C1511.4 49.359 1511.62 50.549 1511.62 51.865C1511.62 53.615 1511.26 55.218 1510.55 56.674C1509.85 58.13 1508.75 59.292 1507.27 60.16C1505.79 61.028 1503.89 61.462 1501.58 61.462C1499.62 61.462 1497.98 61.21 1496.67 60.706C1495.35 60.188 1494.3 59.467 1493.52 58.543C1492.73 57.605 1492.16 56.513 1491.81 55.267C1491.46 54.021 1491.29 52.677 1491.29 51.235C1491.29 51.221 1491.29 51.207 1491.29 51.193C1491.29 51.179 1491.29 51.165 1491.29 51.151H1496.83C1496.83 51.165 1496.83 51.179 1496.83 51.193C1496.83 51.207 1496.83 51.221 1496.83 51.235C1496.83 52.761 1497.03 53.944 1497.42 54.784C1497.81 55.624 1498.37 56.212 1499.08 56.548C1499.79 56.884 1500.65 57.052 1501.64 57.052C1502.97 57.052 1504.04 56.632 1504.83 55.792C1505.65 54.938 1506.05 53.58 1506.05 51.718C1506.05 51.004 1505.98 50.353 1505.82 49.765C1505.67 49.163 1505.4 48.652 1505.02 48.232C1504.66 47.798 1504.16 47.462 1503.53 47.224C1502.9 46.986 1502.1 46.867 1501.14 46.867H1500.05V42.835H1501.14C1502.09 42.835 1502.88 42.709 1503.51 42.457C1504.14 42.205 1504.64 41.869 1505 41.449C1505.38 41.015 1505.65 40.525 1505.8 39.979C1505.97 39.433 1506.05 38.866 1506.05 38.278C1506.05 36.794 1505.65 35.716 1504.86 35.044C1504.07 34.372 1503.03 34.036 1501.73 34.036C1500.28 34.036 1499.11 34.428 1498.2 35.212C1497.29 35.996 1496.83 37.41 1496.83 39.454H1491.29C1491.29 38.082 1491.49 36.801 1491.88 35.611C1492.28 34.421 1492.9 33.378 1493.73 32.482C1494.55 31.572 1495.62 30.865 1496.92 30.361C1498.23 29.843 1499.8 29.584 1501.62 29.584C1503.95 29.584 1505.84 29.976 1507.29 30.76C1508.76 31.544 1509.85 32.58 1510.55 33.868C1511.26 35.142 1511.62 36.514 1511.62 37.984C1511.62 39.16 1511.4 40.245 1510.97 41.239C1510.53 42.233 1509.9 43.045 1509.06 43.675C1508.23 44.291 1507.2 44.627 1505.97 44.683Z" fill="#ffffff"/>
<circle cx="1502" cy="45" r="44" stroke="#ffffff" stroke-width="2"/>
<path opacity="0.2" d="M153.061 50.0607C153.646 49.4749 153.646 48.5251 153.061 47.9393L143.515 38.3934C142.929 37.8076 141.979 37.8076 141.393 38.3934C140.808 38.9792 140.808 39.9289 141.393 40.5147L149.879 49L141.393 57.4853C140.808 58.0711 140.808 59.0208 141.393 59.6066C141.979 60.1924 142.929 60.1924 143.515 59.6066L153.061 50.0607ZM0 50.5L152 50.5V47.5L0 47.5L0 50.5Z" fill="#ffffff"/>
<path d="M795.061 50.0607C795.646 49.4749 795.646 48.5252 795.061 47.9394L785.515 38.3934C784.929 37.8077 783.979 37.8077 783.393 38.3934C782.808 38.9792 782.808 39.929 783.393 40.5148L791.879 49L783.393 57.4853C782.808 58.0711 782.808 59.0209 783.393 59.6066C783.979 60.1924 784.929 60.1924 785.515 59.6066L795.061 50.0607ZM261 50.5L794 50.5L794 47.5L261 47.5L261 50.5Z" fill="#ffffff"/>
<path d="M1437.06 50.0607C1437.65 49.4749 1437.65 48.5252 1437.06 47.9394L1427.51 38.3934C1426.93 37.8077 1425.98 37.8077 1425.39 38.3934C1424.81 38.9792 1424.81 39.929 1425.39 40.5148L1433.88 49L1425.39 57.4853C1424.81 58.0711 1424.81 59.0209 1425.39 59.6066C1425.98 60.1924 1426.93 60.1924 1427.51 59.6066L1437.06 50.0607ZM904 50.5L1436 50.5L1436 47.5L904 47.5L904 50.5Z" fill="#ffffff"/>
<path opacity="0.2" d="M1721.06 50.0607C1721.65 49.4749 1721.65 48.5251 1721.06 47.9393L1711.51 38.3934C1710.93 37.8076 1709.98 37.8076 1709.39 38.3934C1708.81 38.9792 1708.81 39.9289 1709.39 40.5147L1717.88 49L1709.39 57.4853C1708.81 58.0711 1708.81 59.0208 1709.39 59.6066C1709.98 60.1924 1710.93 60.1924 1711.51 59.6066L1721.06 50.0607ZM1549 50.5H1720V47.5H1549V50.5Z" fill="#ffffff"/>
</svg>
