<svg width="35" height="35" viewBox="0 0 35 35" fill="none" xmlns="http://www.w3.org/2000/svg">
<path d="M17.5 34.8438C14.0697 34.8438 10.7165 33.8266 7.86434 31.9208C5.01217 30.0151 2.78918 27.3063 1.47647 24.1372C0.163765 20.968 -0.179699 17.4808 0.489513 14.1164C1.15873 10.7521 2.81056 7.66169 5.23612 5.23612C7.66169 2.81056 10.7521 1.15873 14.1164 0.489513C17.4808 -0.179699 20.968 0.163765 24.1372 1.47647C27.3063 2.78918 30.0151 5.01217 31.9208 7.86434C33.8266 10.7165 34.8438 14.0697 34.8438 17.5C34.8438 22.0999 33.0165 26.5113 29.7639 29.7639C26.5113 33.0165 22.0999 34.8438 17.5 34.8438ZM17.5 2.46876C14.5271 2.46876 11.621 3.35033 9.14909 5.00198C6.67722 6.65364 4.75062 9.00119 3.61294 11.7478C2.47526 14.4944 2.17759 17.5167 2.75758 20.4325C3.33756 23.3482 4.76915 26.0266 6.87131 28.1287C8.97347 30.2309 11.6518 31.6625 14.5676 32.2424C17.4833 32.8224 20.5056 32.5248 23.2522 31.3871C25.9988 30.2494 28.3464 28.3228 29.998 25.8509C31.6497 23.379 32.5313 20.4729 32.5313 17.5C32.5313 13.5135 30.9476 9.69022 28.1287 6.87131C25.3098 4.0524 21.4865 2.46876 17.5 2.46876Z" fill="#24C617"/>
<path d="M14.806 24.4375C14.6474 24.437 14.4907 24.4039 14.3455 24.3403C14.2003 24.2766 14.0697 24.1838 13.9619 24.0675L8.56224 18.2863C8.37774 18.0587 8.28647 17.7697 8.30689 17.4774C8.32731 17.1852 8.45788 16.9116 8.67222 16.712C8.88657 16.5123 9.16871 16.4014 9.46165 16.4018C9.75458 16.4021 10.0365 16.5136 10.2504 16.7138L14.806 21.5816L24.7497 10.9325C24.8496 10.8094 24.9737 10.7081 25.1143 10.635C25.2549 10.5618 25.4091 10.5184 25.5672 10.5073C25.7254 10.4963 25.8841 10.5179 26.0335 10.5707C26.183 10.6236 26.3199 10.7067 26.4359 10.8147C26.5519 10.9228 26.6445 11.0535 26.7078 11.1988C26.7711 11.3441 26.8039 11.5009 26.8041 11.6594C26.8043 11.818 26.7718 11.9748 26.7088 12.1203C26.6458 12.2658 26.5536 12.3967 26.4379 12.505L15.65 24.0675C15.5422 24.1838 15.4117 24.2766 15.2665 24.3403C15.1213 24.4039 14.9645 24.437 14.806 24.4375Z" fill="#24C617"/>
</svg>
