<svg width="40" height="40" viewBox="0 0 40 40" fill="none" xmlns="http://www.w3.org/2000/svg">
<path d="M8.94092 5.59928V34.369C8.94092 34.7001 9.20908 34.9683 9.5402 34.9683H30.5851C30.9165 34.9683 31.1844 34.6999 31.1844 34.369L31.1846 5.59928C31.1846 5.26816 30.9165 5 30.5854 5H9.54045C9.20907 5 8.94092 5.26816 8.94092 5.59928ZM10.1397 6.19857H29.9857V33.7693L10.1397 33.7696V6.19857Z" fill="#494B4C" stroke="#494B4C" stroke-width="0.5"/>
<path d="M20.0628 19.4563C21.7151 19.4563 23.1834 18.6676 24.1221 17.4505C24.1228 17.449 24.1243 17.448 24.1251 17.4465C24.7911 16.581 25.1919 15.5014 25.1919 14.3274C25.1919 11.4995 22.8911 9.19849 20.0628 9.19849C17.2344 9.19849 14.9336 11.4993 14.9336 14.3274C14.9336 17.1555 17.2344 19.4563 20.0628 19.4563ZM17.3435 17.1587C18.0662 16.4556 19.0312 16.058 20.0623 16.058C21.0908 16.058 22.0563 16.4551 22.783 17.158C22.0761 17.8373 21.1183 18.2577 20.0628 18.2577C19.0074 18.2577 18.0502 17.8375 17.3435 17.1587ZM20.065 14.8592C19.5352 14.8592 19.1045 14.4284 19.1045 13.8986C19.1045 13.3688 19.5352 12.9381 20.065 12.9381C20.5948 12.9381 21.0255 13.3688 21.0255 13.8986C21.0255 14.4284 20.5948 14.8592 20.065 14.8592ZM20.0628 10.3975C22.2301 10.3975 23.9931 12.1604 23.9931 14.3276C23.9931 15.0076 23.8193 15.6476 23.5142 16.2059C23.014 15.7471 22.4363 15.3924 21.8057 15.1649C22.0658 14.8082 22.2244 14.373 22.2244 13.8988C22.2244 12.7083 21.2556 11.7395 20.065 11.7395C18.8745 11.7395 17.9057 12.7083 17.9057 13.8988C17.9057 14.3722 18.0632 14.8064 18.3224 15.1629C17.6897 15.3904 17.111 15.7464 16.6115 16.207C16.306 15.6483 16.1322 15.0081 16.1322 14.3278C16.1324 12.1602 17.8954 10.3975 20.0628 10.3975Z" fill="#494B4C" stroke="#494B4C" stroke-width="0.5"/>
<path d="M27.0305 21.9285H13.0951C12.7638 21.9285 12.4958 22.1969 12.4958 22.5278C12.4958 22.8589 12.764 23.127 13.0951 23.127H27.0305C27.3618 23.127 27.6297 22.8586 27.6297 22.5278C27.6297 22.1969 27.3618 21.9285 27.0305 21.9285Z" fill="#494B4C" stroke="#494B4C" stroke-width="0.5"/>
<path d="M27.0305 25.7498H13.0951C12.7638 25.7498 12.4958 26.0182 12.4958 26.349C12.4958 26.6802 12.764 26.9483 13.0951 26.9483H27.0305C27.3618 26.9483 27.6297 26.6799 27.6297 26.349C27.6297 26.0182 27.3618 25.7498 27.0305 25.7498Z" fill="#494B4C" stroke="#494B4C" stroke-width="0.5"/>
<path d="M27.0305 29.5706H13.0951C12.7638 29.5706 12.4958 29.839 12.4958 30.1698C12.4958 30.501 12.764 30.7691 13.0951 30.7691H27.0305C27.3618 30.7691 27.6297 30.5007 27.6297 30.1698C27.6297 29.839 27.3618 29.5706 27.0305 29.5706Z" fill="#494B4C" stroke="#494B4C" stroke-width="0.5"/>
</svg>
