<svg width="40" height="40" viewBox="0 0 40 40" fill="none" xmlns="http://www.w3.org/2000/svg">
<path d="M35.9956 17.2008C35.9956 15.4722 34.5948 14.0709 32.8661 14.0709C31.1379 14.0709 29.7362 15.4726 29.7362 17.2008C29.7362 18.9295 31.1374 20.3303 32.8661 20.3303C34.5948 20.3303 35.9956 18.9295 35.9956 17.2008ZM13.9679 14.112C12.6795 14.112 12.6795 12.1532 13.9679 12.1532H21.793C23.0813 12.1532 23.0813 14.112 21.793 14.112H13.9679ZM13.9679 21.2143C12.6795 21.2143 12.6795 19.255 13.9679 19.255H21.793C23.0813 19.255 23.0813 21.2143 21.793 21.2143H13.9679ZM13.9679 23.7659C12.6795 23.7659 12.6795 21.8067 13.9679 21.8067H21.793C23.0813 21.8067 23.0813 23.7659 21.793 23.7659H13.9679ZM13.9679 16.6637C12.6795 16.6637 12.6795 14.7049 13.9679 14.7049H21.793C23.0813 14.7049 23.0813 16.6637 21.793 16.6637H13.9679ZM6.52543 11.0898H11.2036C11.7441 11.0898 12.183 11.5287 12.183 12.0696V16.7478C12.183 17.2887 11.7441 17.7271 11.2036 17.7271H6.52543C5.98448 17.7271 5.54558 17.2887 5.54558 16.7478V12.0696C5.54558 11.5287 5.98448 11.0898 6.52543 11.0898ZM10.2237 13.049H7.50481V15.7679H10.2237V13.049ZM6.52543 18.192H11.2036C11.7441 18.192 12.183 18.6309 12.183 19.1714V23.8496C12.183 24.3905 11.7441 24.8294 11.2036 24.8294H6.52543C5.98448 24.8294 5.54558 24.3905 5.54558 23.8496V19.1714C5.54558 18.6309 5.98448 18.192 6.52543 18.192ZM10.2237 20.1513H7.50481V22.8702H10.2237V20.1513ZM25.4086 29.2817L26.9776 31.8783C27.3735 32.535 26.8887 33.3622 26.1399 33.3618L8.95663 33.3627C8.16482 33.3627 7.71221 32.4754 8.1445 31.8353L9.68798 29.2817H4.52794C2.2602 29.2817 0.408691 27.4302 0.408691 25.1625V10.7567C0.408691 8.48896 2.2602 6.63745 4.52794 6.63745H30.5686C32.8364 6.63745 34.6879 8.48896 34.6879 10.7567V12.448C36.6509 13.2011 37.9548 15.0881 37.9548 17.2008C37.9548 18.3938 37.5443 19.4908 36.8569 20.3587L39.3452 23.2637C40.1796 24.2388 38.6947 25.5093 37.8603 24.5341L35.3734 21.63C35.1546 21.7538 34.9255 21.8625 34.6879 21.9536V25.1625C34.6879 27.4302 32.8364 29.2817 30.5686 29.2817H25.4086ZM11.9746 29.2817L10.6919 31.4035H24.4046L23.1219 29.2817H11.9746ZM32.7291 12.114V10.7567C32.7291 9.57086 31.7549 8.59668 30.5686 8.59668H4.52794C3.3421 8.59668 2.36745 9.57086 2.36745 10.7567V25.1625C2.36745 26.3483 3.3421 27.3225 4.52794 27.3225H23.6733H30.5686C31.7545 27.3225 32.7291 26.3483 32.7291 25.1625V22.2877C29.9743 22.2149 27.7774 19.9576 27.7774 17.2008C27.7774 14.4441 29.9743 12.1868 32.7291 12.114Z" fill="#494B4C"/>
</svg>
