<svg width="40" height="40" viewBox="0 0 40 40" fill="none" xmlns="http://www.w3.org/2000/svg">
<path d="M23.1105 7.73401C23.1105 9.24412 21.8671 10.468 20.3332 10.468C18.7992 10.468 17.5559 9.24412 17.5559 7.73401C17.5559 6.2239 18.7993 5 20.3332 5C21.8672 5 23.1105 6.2239 23.1105 7.73401Z" stroke="#494B4C" stroke-width="1.55" stroke-miterlimit="10" stroke-linecap="round" stroke-linejoin="round"/>
<path d="M20.3338 11.7041C17.6024 11.7041 15.3896 13.7475 15.3896 16.2683H25.2779C25.2779 13.7482 23.0645 11.7041 20.3338 11.7041Z" stroke="#494B4C" stroke-width="1.55" stroke-miterlimit="10" stroke-linecap="round" stroke-linejoin="round"/>
<path d="M10.982 27.6693C10.982 28.8439 10.0188 29.7962 8.83059 29.7962C7.64236 29.7962 6.6792 28.844 6.6792 27.6693C6.6792 26.4948 7.64243 25.5427 8.83059 25.5427C10.0188 25.5427 10.982 26.4948 10.982 27.6693Z" stroke="#494B4C" stroke-width="1.55" stroke-miterlimit="10" stroke-linecap="round" stroke-linejoin="round"/>
<path d="M8.83004 31.76C6.71525 31.76 5 33.5101 5 35.6682H12.6609C12.6607 33.5101 10.9462 31.76 8.83004 31.76Z" stroke="#494B4C" stroke-width="1.55" stroke-miterlimit="10" stroke-linecap="round" stroke-linejoin="round"/>
<path d="M22.4852 27.6693C22.4852 28.8439 21.5219 29.7962 20.3338 29.7962C19.1456 29.7962 18.1824 28.844 18.1824 27.6693C18.1824 26.4948 19.1456 25.5427 20.3338 25.5427C21.5219 25.5427 22.4852 26.4948 22.4852 27.6693Z" stroke="#494B4C" stroke-width="1.55" stroke-miterlimit="10" stroke-linecap="round" stroke-linejoin="round"/>
<path d="M20.333 31.76C18.2182 31.76 16.5029 33.5101 16.5029 35.6682H24.1645C24.1643 33.5101 22.4491 31.76 20.333 31.76Z" stroke="#494B4C" stroke-width="1.55" stroke-miterlimit="10" stroke-linecap="round" stroke-linejoin="round"/>
<path d="M33.9874 27.6693C33.9874 28.8439 33.0241 29.7962 31.836 29.7962C30.6477 29.7962 29.6846 28.844 29.6846 27.6693C29.6846 26.4948 30.6478 25.5427 31.836 25.5427C33.0242 25.5427 33.9874 26.4948 33.9874 27.6693Z" stroke="#494B4C" stroke-width="1.55" stroke-miterlimit="10" stroke-linecap="round" stroke-linejoin="round"/>
<path d="M31.8362 31.76C29.7214 31.76 28.0068 33.5101 28.0068 35.6682H35.6677C35.6677 33.5101 33.9523 31.76 31.8362 31.76Z" stroke="#494B4C" stroke-width="1.55" stroke-miterlimit="10" stroke-linecap="round" stroke-linejoin="round"/>
<path d="M20.3337 17.8604V23.5759" stroke="#494B4C" stroke-width="1.55" stroke-miterlimit="10" stroke-linecap="round" stroke-linejoin="round"/>
<path d="M8.63208 23.5759V20.7932H32.0354V23.5759" stroke="#494B4C" stroke-width="1.55" stroke-miterlimit="10" stroke-linecap="round" stroke-linejoin="round"/>
</svg>
