<svg width="40" height="40" viewBox="0 0 40 40" fill="none" xmlns="http://www.w3.org/2000/svg">
<path d="M33.4977 9.375L24.7812 17.9879V9.375H22.4886L14.1562 17.8263V4.0625H4.0625V35.9375H35.9375V9.375H33.4977ZM33.8125 33.8125H6.1875V6.1875H12.0312V20.5312H14.4735L22.6562 12.2317V20.5312H25.2304L33.8125 12.0512V33.8125Z" fill="#494B4C"/>
<path d="M12.0312 24.7812V25.3125H14.1562V24.7812V23.1875H12.0312V24.7812Z" fill="#494B4C"/>
<path d="M14.1562 27.9688H12.0312V30.0938H14.1562V27.9688Z" fill="#494B4C"/>
<path d="M17.3438 24.7812V25.3125H19.4688V24.7812V23.1875H17.3438V24.7812Z" fill="#494B4C"/>
<path d="M19.4688 27.9688H17.3438V30.0938H19.4688V27.9688Z" fill="#494B4C"/>
<path d="M22.6562 24.7812V25.3125H24.7812V24.7812V23.1875H22.6562V24.7812Z" fill="#494B4C"/>
<path d="M24.7812 27.9688H22.6562V30.0938H24.7812V27.9688Z" fill="#494B4C"/>
<path d="M30.0938 23.1875H27.9688V25.3125H30.0938V23.1875Z" fill="#494B4C"/>
<path d="M30.0938 27.9688H27.9688V30.0938H30.0938V27.9688Z" fill="#494B4C"/>
</svg>
