<svg width="40" height="40" viewBox="0 0 40 40" fill="none" xmlns="http://www.w3.org/2000/svg">
<path d="M6.90829 6.00022C5.85897 6.00022 5 6.86605 5 7.91628V24.0306C5 25.0806 5.85891 25.9466 6.90829 25.9466L15.8889 25.9464V29.7737H11.3929C11.1183 29.7748 10.896 29.9971 10.8949 30.2716V33.1027C10.896 33.3772 11.1183 33.5996 11.3929 33.6007H27.6117C27.8878 33.6018 28.1126 33.3788 28.1137 33.1027V30.2716C28.1126 29.9955 27.8878 29.7725 27.6117 29.7737H23.1155V25.9464H32.0961C33.1454 25.9464 34.0043 25.0806 34.0043 24.0303V7.91606C34.0043 6.86606 33.1454 6 32.0961 6L6.90829 6.00022ZM6.90829 7.00022H32.0957C32.6064 7.00022 33.004 7.40089 33.004 7.91628V24.0306C33.004 24.5457 32.6065 24.9455 32.0957 24.9455L6.90829 24.9458C6.39757 24.9458 6.00114 24.546 6.00114 24.0308V7.9165C6.00114 7.88436 6.00204 7.85199 6.00516 7.82074C6.0507 7.35222 6.42972 7.00046 6.90853 7.00046L6.90829 7.00022ZM14.1654 11.3967C14.0333 11.4043 13.9096 11.4641 13.8217 11.5627L10.2416 15.6449V15.6447C10.0773 15.8331 10.0773 16.1137 10.2416 16.3021L13.8217 20.384C14.0043 20.5907 14.3197 20.6103 14.5266 20.428C14.7344 20.2463 14.7558 19.9309 14.5746 19.7228L11.2826 15.9728L14.5746 12.2228C14.7558 12.0148 14.7344 11.6994 14.5266 11.5177C14.427 11.4313 14.2971 11.3878 14.1654 11.3967ZM24.8389 11.3967C24.7072 11.3878 24.5773 11.4313 24.4778 11.5177C24.2708 11.7003 24.2507 12.0157 24.4327 12.2228L27.7258 15.9728L24.4327 19.7228C24.2508 19.9299 24.2708 20.2456 24.4778 20.4279C24.6847 20.6103 25.0001 20.5907 25.1827 20.384L28.7666 16.302H28.7668C28.9309 16.1136 28.9309 15.8331 28.7668 15.6447L25.1829 11.5625L25.1827 11.5627C25.0947 11.464 24.9711 11.4043 24.8389 11.3967ZM21.7249 11.6134C21.692 11.6154 21.6597 11.6208 21.628 11.629C21.501 11.6625 21.3923 11.7447 21.3253 11.8576L16.8155 19.5833C16.6773 19.8217 16.7581 20.1271 16.9963 20.2659C17.2336 20.4047 17.5387 20.3257 17.6789 20.0891L22.1896 12.3634C22.3275 12.1248 22.2463 11.8194 22.0079 11.6808C21.9224 11.6308 21.8237 11.6074 21.7249 11.6136L21.7249 11.6134ZM16.8887 25.9466H22.1153V29.7738H16.8887V25.9466ZM11.8916 30.7738H27.1122V32.6011L11.8916 32.6009V30.7738Z" fill="white"/>
<path d="M24.8391 11.3967H24.8389M24.8389 11.3967C24.7072 11.3878 24.5773 11.4313 24.4778 11.5177C24.2708 11.7003 24.2508 12.0157 24.4327 12.2228L27.7258 15.9728L24.4327 19.7228C24.2508 19.9299 24.2708 20.2456 24.4778 20.4279C24.6847 20.6103 25.0001 20.5907 25.1827 20.384L28.7666 16.302H28.7668C28.9309 16.1136 28.9309 15.8331 28.7668 15.6447L25.1829 11.5625L25.1827 11.5627C25.0947 11.464 24.9711 11.4043 24.8389 11.3967ZM6.90829 6.00022C5.85897 6.00022 5 6.86605 5 7.91628V24.0306C5 25.0806 5.85891 25.9466 6.90829 25.9466L15.8889 25.9464V29.7737H11.3929C11.1183 29.7748 10.896 29.9971 10.8949 30.2716V33.1027C10.896 33.3772 11.1183 33.5996 11.3929 33.6007H27.6117C27.8878 33.6018 28.1126 33.3788 28.1137 33.1027V30.2716C28.1126 29.9955 27.8878 29.7725 27.6117 29.7737H23.1155V25.9464H32.0961C33.1454 25.9464 34.0043 25.0806 34.0043 24.0303V7.91606C34.0043 6.86606 33.1454 6 32.0961 6L6.90829 6.00022ZM6.90829 7.00022H32.0957C32.6064 7.00022 33.004 7.40089 33.004 7.91628V24.0306C33.004 24.5457 32.6065 24.9455 32.0957 24.9455L6.90829 24.9458C6.39757 24.9458 6.00114 24.546 6.00114 24.0308V7.9165C6.00114 7.88436 6.00204 7.85199 6.00516 7.82074C6.0507 7.35222 6.42972 7.00046 6.90853 7.00046L6.90829 7.00022ZM14.1654 11.3967C14.0333 11.4043 13.9096 11.4641 13.8217 11.5627L10.2416 15.6449V15.6447C10.0773 15.8331 10.0773 16.1137 10.2416 16.3021L13.8217 20.384C14.0043 20.5907 14.3197 20.6103 14.5266 20.428C14.7344 20.2463 14.7558 19.9309 14.5746 19.7228L11.2826 15.9728L14.5746 12.2228C14.7558 12.0148 14.7344 11.6994 14.5266 11.5177C14.427 11.4313 14.2971 11.3878 14.1654 11.3967ZM21.7249 11.6134C21.692 11.6154 21.6597 11.6208 21.628 11.629C21.501 11.6625 21.3923 11.7447 21.3253 11.8576L16.8155 19.5833C16.6773 19.8217 16.7581 20.1271 16.9963 20.2659C17.2336 20.4047 17.5387 20.3257 17.6789 20.0891L22.1896 12.3634C22.3275 12.1248 22.2463 11.8194 22.0079 11.6808C21.9224 11.6308 21.8237 11.6074 21.7249 11.6136L21.7249 11.6134ZM16.8887 25.9466H22.1153V29.7738H16.8887V25.9466ZM11.8916 30.7738H27.1122V32.6011L11.8916 32.6009V30.7738Z" stroke="white"/>
</svg>
