<svg xmlns="http://www.w3.org/2000/svg" xmlns:xlink="http://www.w3.org/1999/xlink" width="338" height="112" fill="none" xmlns:v="https://vecta.io/nano"><style><![CDATA[.B{fill:#fff}.C{stroke-linejoin:round}.D{stroke:#494b4c}.E{stroke-miterlimit:10}.F{stroke-width:1.5}.G{fill:#e8f2fc}.H{stroke-linecap:round}.I{fill:#d8dbd7}.J{stroke:#d8dbd7}.K{stroke:#646464}.L{stroke-dasharray:8.8 8.8}]]></style><g clip-path="url(#A)"><g class="E F H J"><path d="M256.436 19.652v1.686"/><path d="M256.436 24.635v11.539" class="L"/><path d="M256.436 37.823v1.686"/></g><g class="C D E F"><path d="M51.011 121.891H30.555c.15-8.917-4.579-17.609-4.842-26.601-.263-8.917 4.467-17.609 4.842-26.6h20.456c-.338 8.992-5.067 17.684-4.842 26.6.263 8.955 4.992 17.647 4.842 26.601z" class="I"/><path d="M44.105 121.891H23.649c.15-8.917-4.579-17.609-4.842-26.601-.263-8.917 4.467-17.609 4.842-26.6h20.456c-.338 8.992-5.067 17.684-4.842 26.6.263 8.955 4.992 17.647 4.842 26.601z" class="G"/></g><path d="M25.338 72.137s-1.314 7.83-2.815 10.415h4.279s1.989-5.77 2.778-10.415h-4.241z" class="B"/><g class="C D E F H"><path d="M39.826 100.835H19.37m1.238 5.358h20.456m1.427 5.32H22.072"/><path d="M19.37 100.835h20.456m-.6-5.32H18.77M43.392 74.16H22.936m-1.239 5.32h20.456m-2.59 10.678H19.145"/><path d="M18.77 95.515h20.456M22.936 74.16h20.456M19.145 90.158h20.419m1.163-5.321H20.271"/></g><g class="I"><path d="M249.379 102.521c-.112.15-4.316 6.032-4.316 8.355 0 2.36 1.914 4.308 4.316 4.308 2.365 0 4.317-1.91 4.317-4.308 0-2.361-4.317-8.355-4.317-8.355zm71.24-.937c-.112.188-4.766 6.669-4.766 9.254a4.77 4.77 0 0 0 4.766 4.759 4.77 4.77 0 0 0 4.767-4.759c0-2.622-4.767-9.254-4.767-9.254zm-213.269 7.494c-.075.112-3.002 4.196-3.002 5.844a3.01 3.01 0 0 0 3.002 2.997 3.01 3.01 0 0 0 3.003-2.997c0-1.686-3.003-5.844-3.003-5.844zm135.874 2.472c-.075.075-2.29 3.222-2.29 4.459 0 1.274 1.014 2.285 2.29 2.285a2.27 2.27 0 0 0 2.289-2.285c0-1.274-2.289-4.459-2.289-4.459z"/></g><path d="M206.778 62.358v57.922" class="C D E F H"/><use xlink:href="#D" fill="#d0d4d7"/><g class="C D E F G"><use xlink:href="#D"/><path d="M203.288 62.995c-.188-.787-.939-1.274-1.727-1.086s-1.276.937-1.088 1.723c.488 2.248 3.678 11.952 4.541 14.274.038.112.226.075.226-.075-.226-2.51-1.502-12.701-1.952-14.836z"/><path d="M199.759 62.846c.751.225 1.577-.187 1.802-.937s-.188-1.574-.938-1.798c-2.177-.674-12.199-2.772-14.676-3.184-.113-.037-.188.15-.075.225 2.289 1.049 11.785 5.058 13.887 5.695z"/><path d="M201.636 59.886c-.601.524-.638 1.461-.075 2.023a1.4 1.4 0 0 0 2.027.075c1.689-1.536 8.52-9.142 10.096-11.09.076-.112-.037-.225-.15-.15-2.064 1.461-10.284 7.643-11.898 9.142z"/></g><path d="M202.161 62.546c-.45.412-1.126.375-1.538-.075s-.376-1.124.075-1.536a1.08 1.08 0 0 1 1.539.075c.375.45.337 1.124-.076 1.536z" class="B"/><g class="F C D"><g class="E"><path d="M228.51 35.121h-8.52v9.441h8.52v-9.441z" class="G"/><path d="M219.99 39.017h8.52" class="H"/><g class="G"><path d="M233.953 69.702H214.36v50.241h19.593V69.702z"/><path d="M231.138 48.234h-13.85v21.468h13.85V48.234z"/></g><g class="H"><path d="M214.36 72.624h19.593m-19.593 4.159h19.593m-19.593 4.158h19.593m-19.593 4.196h19.593m-19.593 4.159h19.593m-19.593 4.159h19.593m-19.593 4.158h19.593m-19.593 4.159h19.593m-19.593 4.158h19.593m-19.593 4.197h19.593m-16.665-45.933h13.85m-13.85-4.158h13.85m-13.85-4.159h13.85m-13.85-4.159h13.85"/></g><path d="M228.473 44.487h-8.52l-3.153 3.559v.375c0 .225.187.412.413.412h14c.225 0 .413-.187.413-.412v-.375l-3.153-3.559z" class="G"/></g><path d="M69.666 30.363H50.861v91.078h18.805V30.363z" class="B"/><g class="E"><g class="H"><path d="M54.765 35.945v79.314"/><path d="M51.049 38.68h18.579m-18.579 3.41h18.579m-18.579 3.371h18.579m-18.579 3.41h18.579M51.049 52.28h18.579m-18.579 3.41h18.579m-18.579 3.372h18.579M51.049 62.47h18.579m-18.579 3.41h18.579m-18.579 3.41h18.579m-18.579 3.372h18.579m-18.579 3.409h18.579M51.049 79.48h18.579m-18.579 3.409h18.579m-18.579 3.372h18.579M51.049 89.67h18.579m-18.579 3.41h18.579m-18.579 3.409h18.579m-18.579 3.372h18.579m-18.579 3.41h18.579m-18.579 3.409h18.579m-18.579 3.409h18.579M50.974 35.271h18.655"/></g><path d="M69.29 29.501a1.24 1.24 0 0 1 0 1.761l-8.182 11.165c-.488.637-1.276.637-1.764 0l-8.145-11.165a1.24 1.24 0 0 1 0-1.761l8.182-11.165c.488-.637 1.276-.637 1.764 0l8.145 11.165z" class="G"/><g class="I"><path d="M313.601 4.624h-2.853l-17.603 12.588v.337 50.204h3.04v-6.819h17.453l-.037-56.31z"/><path d="M310.748 45.049l-23.497 16.822h-.075v54.775h26.462V45.049h-2.89z"/></g></g></g><g class="B"><path d="M312.024 38.193h-16.215v2.847h16.215v-2.847zm-10.36 6.857h-5.855v2.847h5.855V45.05zm10.36-13.713h-16.215v2.847h16.215v-2.847zm0-6.894h-16.215v2.847h16.215v-2.847zm0-6.856h-10.773v2.847h10.773v-2.847zm0-6.856h-4.054v2.847h4.054v-2.847z"/><use xlink:href="#E"/><path d="M312.024 98.288h-21.17v2.847h21.17v-2.847zm0-7.193h-21.17v2.847h21.17v-2.847zm0-7.157h-21.17v2.847h21.17v-2.847zm0-7.193h-21.17v2.847h21.17v-2.847zm0-7.156h-21.17v2.847h21.17v-2.847zm0-7.193h-15.69v2.847h15.69v-2.847zm-.263-7.156h-7.169v2.847h7.169V55.24z"/></g><g class="F"><path d="M79.838 68.728c1.689-2.323 6.231-9.704 6.231-9.704.676-.674 2.29-1.686 3.566-.637 1.314 1.087-.037 4.271-.037 4.271.826-.937 3.491-4.421 5.255-2.548 1.276 1.349.113 2.922.113 2.922s1.051-.899 2.139.075c1.351 1.199-.188 3.222-.188 3.222l-.826 1.349s.863-.674 1.914.412c.938.974-.338 2.772-.338 2.772l-5.03 7.83v5.732c0 5.245-2.815 5.919-2.815 5.919v8.58l-12.011.037V75.434c.038 0-.225-3.672 2.027-6.706z" class="C D E G"/><g class="B"><path d="M102.434 51.606c2.102 0 3.791 1.686 3.791 3.784v28.474c0 2.098-1.689 3.784-3.791 3.784h-13.55c-2.102 0-3.791-1.686-3.791-3.784V55.39c0-2.098 1.689-3.784 3.791-3.784h13.55z" class="K"/><path d="M106.224 55.352c0-2.098-1.689-3.784-3.79-3.784h-13.55c-2.102 0-3.791 1.686-3.791 3.784v28.474c0 2.098 1.689 3.784 3.791 3.784h13.587c2.102 0 3.791-1.686 3.791-3.784V55.352h-.038z" class="C D E"/></g></g><path d="M104.31 54.903H87.007V81.84h17.303V54.903z" class="B"/><path d="M89.221 56.701h15.089v-1.798H87.007V81.84h2.215V56.701zm6.419 26.938a1.13 1.13 0 0 0-1.126 1.124 1.13 1.13 0 0 0 1.126 1.124 1.13 1.13 0 0 0 1.126-1.124c0-.637-.488-1.124-1.126-1.124z" class="B"/><path d="M89.56 67.154c-.038.562-.113.375-.113 1.199 0 1.536.6 3.072 1.764 4.271l4.279-4.271v-6.107c-2.89 0-5.367 2.061-5.93 4.908z" class="G"/><path d="M95.528 68.353l-4.279 4.271c1.689 1.686 4.054 2.173 6.193 1.499.901-.3 1.727-.787 2.44-1.499a5.86 5.86 0 0 0 1.088-1.499l-5.442-2.772z" class="B"/><path d="M98.305 62.92a5.6 5.6 0 0 0-2.778-.637v6.069l5.443 2.772c1.539-2.997.375-6.706-2.665-8.205z" class="I"/><use xlink:href="#F" class="G"/><g class="C D E F"><use xlink:href="#F" class="H"/><g class="B"><path d="M90.986 100.686c.225 0 .375-.188.375-.375l-.038-6.107c0-.225-.188-.375-.375-.375l-14.413.037c-.225 0-.375.187-.375.375v6.107c0 .224.188.374.375.374l14.451-.037z"/><path d="M93.162 98.999l-.038 22.48c0 .224-.188.374-.375.374l-17.003-.037c-.225 0-.375-.188-.375-.375l.038-22.479 17.754.037z"/></g></g><path d="M91.361 112.637a1.014 1.014 0 1 0-2.027 0 1.014 1.014 0 1 0 2.027 0zm0-4.009c0-.562-.45-1.011-1.013-1.011s-1.013.449-1.013 1.011a1.01 1.01 0 0 0 1.013 1.012c.563-.038 1.013-.487 1.013-1.012zm0-4.046c0-.562-.45-1.011-1.013-1.011s-1.013.449-1.013 1.011a1.014 1.014 0 1 0 2.027 0z" class="B"/><g class="F"><path d="M272.688 51.119c-1.802-2.435-6.569-10.19-6.569-10.19-.713-.674-2.402-1.798-3.753-.674-1.389 1.124.038 4.496.038 4.496-.864-1.011-3.641-4.646-5.518-2.697-1.351 1.424-.113 3.072-.113 3.072s-1.088-.937-2.252.075c-1.388 1.236.188 3.372.188 3.372l.901 1.424s-.938-.712-1.989.45c-.976 1.049.375 2.922.375 2.922l5.255 8.205v6.032c0 5.507 2.927 6.219 2.927 6.219v9.029l12.612.038V58.162c0-.037.225-3.859-2.102-7.044z" class="C D E G"/><g class="B"><path d="M263.793 33.81c2.177 0 3.978 1.761 3.978 3.971v29.897a3.98 3.98 0 0 1-3.978 3.971H249.53c-2.177 0-3.979-1.761-3.979-3.971V37.781a3.98 3.98 0 0 1 3.979-3.971h14.263z" class="K"/><path d="M267.771 37.743a3.98 3.98 0 0 0-3.979-3.971h-14.263c-2.177 0-3.978 1.761-3.978 3.971v29.897a3.98 3.98 0 0 0 3.978 3.971h14.263c2.177 0 3.979-1.761 3.979-3.971V37.743z" class="C D E"/></g></g><path d="M265.782 37.256h-18.204v28.286h18.204V37.256z" class="B"/><path d="M249.905 39.13h15.877v-1.873h-18.204V65.58h2.327V39.13zm6.756 28.324a1.17 1.17 0 0 0-1.164 1.161 1.17 1.17 0 0 0 1.164 1.162 1.17 1.17 0 0 0 1.163-1.162c0-.637-.488-1.161-1.163-1.161z" class="B"/><g class="D E F"><path d="M264.468 52.73c0 4.271-3.491 7.755-7.77 7.755a7.78 7.78 0 0 1-7.769-7.755 7.78 7.78 0 0 1 7.769-7.755c4.279 0 7.77 3.447 7.77 7.755z" class="B"/><path d="M261.09 52.73c0 4.271-1.99 7.755-4.392 7.755-2.44 0-4.391-3.484-4.391-7.755s1.989-7.755 4.391-7.755c2.402-.037 4.392 3.447 4.392 7.755z"/><path d="M256.661 44.937v15.511"/><path d="M249.454 49.62h14.451m-14.451 6.182h14.451"/></g><use xlink:href="#G" class="G"/><g class="C D E F"><use xlink:href="#G" class="H"/><g class="B"><path d="M260.977 84.65c-.225 0-.413-.187-.413-.412l.038-6.407c0-.225.188-.412.413-.412l15.126.038c.225 0 .413.187.413.412l-.038 6.407c0 .225-.187.412-.412.412l-15.127-.038z"/><path d="M258.65 121.816l.038-38.589c0-.225.188-.412.413-.412l17.866.037c.225 0 .413.187.413.412l-.038 38.589-18.692-.037z"/></g></g><path d="M260.564 86.636a1.051 1.051 0 1 0 1.051-1.049c-.563 0-1.051.487-1.051 1.049zm0 4.233a1.051 1.051 0 1 0 2.102 0 1.051 1.051 0 1 0-2.102 0zm0 4.234a1.051 1.051 0 1 0 2.102 0 1.051 1.051 0 1 0-2.102 0z" class="B"/><g class="E F C D"><g class="I"><path d="M100.098 93.561l8.408-3.896c1.201-.562 2.552-.862 3.904-.862h5.442 26.987c.488 0 .901.412.901.899v9.554c0 .487-.413.899-.901.899h-26.987-17.491c-1.501 0-2.74-1.237-2.74-2.735 0-1.648.976-3.185 2.477-3.859z"/><use xlink:href="#H"/><path d="M222.272 99.256c0 .487-.413.899-.901.899h-36.408c-.488 0-.901-.412-.901-.899v-9.554c0-.487.413-.899.901-.899h36.408c.488 0 .901.412.901.899v9.554z"/></g><g class="B"><path d="M109.369 94.198c1.426 0 2.552-1.124 2.552-2.548v-2.847c-1.163.075-2.327.337-3.378.862l-8.408 3.896a4.78 4.78 0 0 0-1.013.674h10.247v-.037z"/></g></g><use xlink:href="#I" class="B"/><path d="M177.231 93.411c0 .225-.188.375-.375.375h-24.322c-.226 0-.376-.187-.376-.375v-1.836c0-.225.188-.375.376-.375h24.322c.225 0 .375.187.375.375v1.836zm38.547 0c0 .225-.187.375-.375.375h-24.322c-.225 0-.375-.187-.375-.375v-1.836c0-.225.187-.375.375-.375h24.322c.225 0 .375.187.375.375v1.836z" class="B"/><path d="M260.519 99.256c0 .487-.413.899-.9.899H223.21c-.488 0-.9-.412-.9-.899v-9.554c0-.487.412-.899.9-.899h36.409c.487 0 .9.412.9.899v9.554z" class="C D E F I"/><g class="B"><path d="M254.026 93.411c0 .225-.188.375-.375.375h-24.323c-.225 0-.375-.187-.375-.375v-1.836c0-.225.188-.375.375-.375h24.323c.225 0 .375.187.375.375v1.836z"/><use xlink:href="#J"/><use xlink:href="#K"/><path d="M220.808 97.832a.59.59 0 0 1-.6.599h-2.402a.59.59 0 0 1-.601-.599v-6.669a.59.59 0 0 1 .601-.599h2.402a.59.59 0 0 1 .6.599v6.669zm-103.857 0a.59.59 0 0 1-.601.599h-2.402a.59.59 0 0 1-.6-.599v-6.669a.59.59 0 0 1 .6-.599h2.402a.59.59 0 0 1 .601.599v6.669zm33.781 0a.59.59 0 0 1-.601.599h-2.402a.59.59 0 0 1-.601-.599v-6.669a.59.59 0 0 1 .601-.599h2.402a.59.59 0 0 1 .601.599v6.669zm31.566 0a.59.59 0 0 1-.6.599h-2.403a.59.59 0 0 1-.6-.599v-6.669a.59.59 0 0 1 .6-.599h2.403a.59.59 0 0 1 .6.599v6.669zm6.944 0a.59.59 0 0 1-.601.599h-2.402a.59.59 0 0 1-.6-.599v-6.669a.59.59 0 0 1 .6-.599h2.402a.59.59 0 0 1 .601.599v6.669z"/></g><g class="C E F H J"><path d="M33.37 101.884v20.007m33.894-20.007v20.007m33.93-20.007v20.007m33.894-20.007v20.007m33.892-20.007v20.007m33.932-20.007v20.007m33.893-20.007v20.007m33.893-20.007v20.007m33.931-20.007v20.007"/></g><g class="D G C E F"><path d="M327 100.611H11v3.821h316v-3.821zM186.284 68.354c-1.689-2.323-6.23-9.704-6.23-9.704-.676-.674-2.29-1.686-3.566-.637-1.314 1.087.038 4.271.038 4.271-.826-.937-3.491-4.421-5.255-2.548-1.276 1.349-.113 2.922-.113 2.922s-1.051-.899-2.139.075c-1.352 1.199.187 3.222.187 3.222l.826 1.349s-.863-.674-1.914.412c-.938.974.338 2.772.338 2.772l4.992 7.83v5.732c0 5.245 2.815 5.92 2.815 5.92v8.579l11.973.037V75.06c.038 0 .3-3.672-1.952-6.706z"/></g><g class="B"><path d="M177.276 49.471c2.102 0 3.791 1.686 3.791 3.784v28.474c0 2.098-1.689 3.784-3.791 3.784h-13.587c-2.102 0-3.791-1.686-3.791-3.784V53.255c0-2.098 1.689-3.784 3.791-3.784h13.587z" class="F K"/><path d="M181.03 53.217c0-2.098-1.689-3.784-3.791-3.784h-13.588c-2.102 0-3.791 1.686-3.791 3.784V81.69c0 2.098 1.689 3.784 3.791 3.784h13.588c2.102 0 3.791-1.686 3.791-3.784V53.217z" class="C D E F"/><path d="M179.116 52.767h-17.304v26.938h17.304V52.767z"/><path d="M164.027 54.565h15.089v-1.798h-17.304v26.938h2.215v-25.14zm6.455 26.938a1.13 1.13 0 0 0-1.126 1.124 1.13 1.13 0 0 0 1.126 1.124 1.13 1.13 0 0 0 1.126-1.124c-.037-.637-.525-1.124-1.126-1.124z"/><g class="C D E F"><path d="M177.164 69.065a1.21 1.21 0 0 1-1.201 1.199h-11.035a1.21 1.21 0 0 1-1.201-1.199v-7.381h13.399v7.381h.038z"/><path d="M171.421 67.379c-.525.525-1.351.525-1.877 0l-5.78-5.695v7.381a1.21 1.21 0 0 0 1.201 1.199H176a1.21 1.21 0 0 0 1.201-1.199v-7.381l-5.78 5.695z"/></g></g><use xlink:href="#L" class="G"/><g class="C D E F"><use xlink:href="#L" class="H"/><g class="B"><path d="M175.137 100.311c-.225 0-.375-.188-.375-.375l.037-6.107c0-.225.188-.375.376-.375l14.413.037c.225 0 .375.187.375.375v6.107c0 .224-.188.374-.375.374l-14.451-.037z"/><path d="M172.96 121.891l.037-22.892c0-.225.188-.375.376-.375l17.003.038c.225 0 .375.187.375.375l-.037 22.854H172.96z"/></g></g><path d="M174.762 102.184c0 .562.45 1.011 1.013 1.011a1.01 1.01 0 1 0 0-2.023c-.563.038-1.013.487-1.013 1.012z" class="B"/><use xlink:href="#M" class="B"/><path d="M174.762 110.239a1.013 1.013 0 1 0 2.027 0 1.01 1.01 0 0 0-1.014-1.011c-.563 0-1.013.449-1.013 1.011zm-24.885.412a4.391 4.391 0 1 1-8.783 0c0-2.435 4.391-8.542 4.391-8.542s4.392 6.145 4.392 8.542z" class="B"/><path d="M145.485 102.147v12.925a4.37 4.37 0 0 0 4.392-4.383c0-2.435-4.392-8.58-4.392-8.542 0-.038 0-.038 0 0z" class="B"/><path d="M145.485 102.109c-.112.15-4.391 6.145-4.391 8.542a4.37 4.37 0 1 0 8.783 0c0-2.435-4.392-8.542-4.392-8.542z" class="C D E F"/><g class="B"><path d="M22.448 112.824a3.52 3.52 0 0 1-7.056 0c0-1.948 3.528-6.894 3.528-6.894s3.528 4.946 3.528 6.894z"/><path d="M18.882 105.968v10.416a3.52 3.52 0 0 0 3.528-3.522c.038-1.986-3.528-6.894-3.528-6.894z"/></g><path d="M18.882 105.968c-.075.113-3.528 4.946-3.528 6.894a3.52 3.52 0 0 0 7.056 0c.038-1.986-3.528-6.894-3.528-6.894z" class="C D E F"/><g class="I"><path d="M283.535 19.723c-.375 0-.713-.187-.863-.524a8.18 8.18 0 0 0-.601-1.311c-.187-.3-.187-.712.038-.974.45-.487.413-1.274-.075-1.723a1.24 1.24 0 0 0-1.727.075.81.81 0 0 1-.938.187c-.488-.225-.976-.412-1.501-.524-.338-.075-.563-.337-.563-.674-.038-.637-.563-1.161-1.239-1.124h-.038c-.638.037-1.163.599-1.126 1.236 0 .337-.225.637-.563.749-.525.187-1.013.412-1.463.712-.263.187-.638.15-.864-.075-.45-.412-1.201-.375-1.614.075l-.075.075a1.14 1.14 0 0 0 .075 1.648c.263.225.301.599.151.937-.226.487-.413 1.012-.526 1.536-.075.337-.338.562-.638.562-.638.037-1.126.562-1.089 1.199v.112c.038.637.563 1.124 1.202 1.124.337 0 .638.187.75.487.188.525.451 1.049.751 1.536a.68.68 0 0 1-.075.862c-.413.487-.413 1.199.075 1.611l.037.038c.488.45 1.239.412 1.689-.075.226-.262.601-.3.939-.15.488.225.976.412 1.539.487.338.075.563.337.563.674.037.674.6 1.161 1.238 1.124.676-.038 1.201-.599 1.164-1.274 0-.375.188-.712.525-.824.451-.15.901-.375 1.314-.637.3-.187.713-.225.976.037a1.24 1.24 0 0 0 1.727-.075c.45-.487.412-1.274-.075-1.723-.301-.262-.376-.674-.188-1.049a7.65 7.65 0 0 0 .45-1.311c.075-.337.376-.637.713-.674.676-.038 1.201-.599 1.164-1.274 0-.599-.563-1.124-1.239-1.087zm-6.906 4.046c-1.351.075-2.515-.937-2.59-2.285s.939-2.51 2.29-2.585 2.515.937 2.59 2.285-.939 2.51-2.29 2.585zm-13.062-14.95c0-3.784-3.078-6.819-6.831-6.819-3.791 0-6.831 3.072-6.831 6.819 0 2.023.901 3.859 2.289 5.095l4.542 4.533 4.542-4.533c1.388-1.236 2.289-3.072 2.289-5.095z"/></g><path d="M259.852 8.594a3.17 3.17 0 0 1-3.153 3.147 3.17 3.17 0 0 1-3.153-3.147 3.17 3.17 0 0 1 3.153-3.147 3.17 3.17 0 0 1 3.153 3.147z" class="B"/><path d="M201.148 25.867c-4.579 0-8.257 2.772-8.257 6.219 0 2.36 1.764 4.421 4.354 5.47-.488 1.161-1.277 2.548-2.553 3.372 1.727-.187 4.279-1.236 6.156-2.66h.3c4.579 0 8.258-2.772 8.258-6.219 0-3.409-3.679-6.182-8.258-6.182z" class="I"/><g class="B"><path d="M197.958 32.049a1.17 1.17 0 0 1-1.164 1.161 1.17 1.17 0 0 1-1.163-1.161 1.17 1.17 0 0 1 1.163-1.161 1.17 1.17 0 0 1 1.164 1.161z"/><use xlink:href="#N"/><path d="M206.891 32.087a1.17 1.17 0 0 1-1.163 1.161 1.17 1.17 0 0 1-1.164-1.161 1.17 1.17 0 0 1 1.164-1.162c.638-.037 1.163.487 1.163 1.162z"/></g><g class="I"><path d="M34.647 11.405H32.02v7.156h2.627v-7.156zm4.729-4.046h-2.627v11.127h2.627V7.359zm4.729-2.885h-2.627v14.012h2.627V4.474z"/></g><g class="E F J"><g class="H"><path d="M32.02 20.809h12.048" class="C"/><path d="M94.814 28.115v1.686"/><path d="M94.814 33.098v11.539" class="L"/><path d="M94.814 46.286v1.686"/><path d="M169.619 46.473v-6.856c0-2.473 2.027-4.496 4.504-4.496h14" stroke-dasharray="9 9"/></g><path d="M143.308 32.461c0 3.709-3.002 6.706-6.718 6.706s-6.719-2.997-6.719-6.706 3.003-6.706 6.719-6.706c3.716.037 6.718 3.035 6.718 6.706z"/><path d="M139.104 32.461a2.5 2.5 0 0 1-2.477 2.473 2.5 2.5 0 0 1-2.478-2.473 2.5 2.5 0 0 1 2.478-2.473 2.5 2.5 0 0 1 2.477 2.473zm-2.477-5.657v-2.473 2.473zm0 11.352v2.473-2.473zm5.667-5.695h2.478-2.478zm-11.372 0h-2.478 2.478z"/></g><path d="M106.149 23.132c0 .824-.676 1.536-1.539 1.536H84.98c-.826 0-1.539-.674-1.539-1.536v-11.09c0-.824.676-1.536 1.539-1.536h19.63c.826 0 1.539.674 1.539 1.536v11.09z" class="I"/><g class="B"><path d="M106.149 13.503H83.441v1.948h22.708v-1.948zm-4.466 5.396a.77.77 0 0 1-.789.787H88.658c-.45 0-.788-.337-.788-.787s.338-.787.788-.787h12.236a.77.77 0 0 1 .789.787zm-.075 2.136c0 .262-.188.45-.451.45H88.546a.43.43 0 0 1-.45-.45.43.43 0 0 1 .45-.45h12.611c.225 0 .451.187.451.45z"/></g><g clip-path="url(#B)"><path fill-rule="evenodd" d="M147.948 86.067a.73.73 0 0 0-.731-.731h-.008a.73.73 0 0 0-.726.731c0 .403.33.731.734.731a.73.73 0 0 0 .731-.731zm-16.815.731c-.404 0-.727.327-.727.731s.33.731.734.731a.73.73 0 1 0 0-1.462h-.007zm3.661-3.654a.73.73 0 0 0-.731-.731h-.008c-.403 0-.726.327-.726.731s.33.731.734.731a.73.73 0 0 0 .731-.731zm13.132-12.423c0 .806.656 1.462 1.462 1.462s1.461-.656 1.461-1.462-.656-1.462-1.461-1.462-1.462.655-1.462 1.462zm-29.231 1.462c0 .806.655 1.462 1.461 1.462s1.462-.656 1.462-1.462-.656-1.462-1.462-1.462-1.461.656-1.461 1.462zm-1.462-12.423a.73.73 0 1 0 1.462 0 .73.73 0 1 0-1.462 0zm-1.461 0c0-1.209.983-2.192 2.192-2.192s2.192.984 2.192 2.192-.983 2.192-2.192 2.192-2.192-.984-2.192-2.192zm17.538-2.192c0 .806.656 1.462 1.462 1.462s1.462-.655 1.462-1.462-.657-1.462-1.462-1.462-1.462.656-1.462 1.462zm-1.461 0c0-1.612 1.311-2.923 2.923-2.923s2.923 1.311 2.923 2.923-1.311 2.923-2.923 2.923-2.923-1.311-2.923-2.923zm-10.962 33.616a.73.73 0 0 0-.731.731c0 .806-.655 1.462-1.461 1.462a.73.73 0 1 0 0 1.462 2.93 2.93 0 0 0 2.923-2.923.73.73 0 0 0-.731-.731zm27.039 3.654c1.612 0 2.923-1.311 2.923-2.923a.73.73 0 1 0-1.461 0c0 .806-.657 1.462-1.462 1.462a.73.73 0 1 0 0 1.462zm-15.346-.731a.73.73 0 0 0 .73.731c1.613 0 2.924-1.311 2.924-2.923a.73.73 0 1 0-1.462 0c0 .806-.656 1.462-1.462 1.462a.73.73 0 0 0-.73.731zm22.654-28.501a.73.73 0 0 1-.731.731h-10.962v14.616h6.577a.73.73 0 1 1 0 1.462h-6.577v10.231a4.39 4.39 0 0 0 4.385 4.385 4.39 4.39 0 0 0 4.385-4.385V68.528a.73.73 0 1 1 1.461 0v24.116c0 3.224-2.622 5.846-5.846 5.846s-5.846-2.623-5.846-5.846V66.336h-13.154v8.769h6.577a.73.73 0 1 1 0 1.462h-6.577v16.077a4.39 4.39 0 0 0 4.384 4.385 4.39 4.39 0 0 0 4.385-4.385V68.528a.73.73 0 1 1 1.462 0v24.116c0 3.224-2.623 5.846-5.847 5.846s-5.846-2.623-5.846-5.846V66.336H114.31v11.692h6.577a.73.73 0 1 1 0 1.462h-6.577v13.154a4.39 4.39 0 0 0 4.385 4.385 4.39 4.39 0 0 0 4.384-4.385V68.528a.73.73 0 0 1 1.462 0v24.116c0 3.224-2.623 5.846-5.846 5.846s-5.846-2.623-5.846-5.846V66.336h-.731a.73.73 0 1 1 0-1.462h.731V61.22a.73.73 0 1 1 1.461 0v3.654h8.769V61.22a.73.73 0 0 1 1.462 0v3.654h2.923V61.22a.73.73 0 1 1 1.462 0v3.654h8.769V61.22a.73.73 0 1 1 1.462 0v3.654h2.923V61.22a.73.73 0 1 1 1.461 0v3.654h8.77V61.22a.73.73 0 1 1 1.461 0v3.654h.731a.73.73 0 0 1 .731.731z" fill="#494b4c"/></g><g clip-path="url(#C)" fill="#494b4c"><path d="M40.574 46.633a2.18 2.18 0 0 1 2.192 2.193l-.001 1.749c.001.585-.227 1.136-.641 1.551a2.18 2.18 0 0 1-1.043.584l5.043 11.783a2.63 2.63 0 0 1-2.459 3.584l-15.677-.087a2.61 2.61 0 0 1-1.811-.724l-.049-.048a2.71 2.71 0 0 1-.34-.416c-.488-.744-.567-1.674-.216-2.482l4.978-11.598a2.17 2.17 0 0 1-1.74-2.145l.001-1.744c-.002-.589.226-1.141.641-1.556s.968-.643 1.549-.642l9.574-.002zM27.183 65.01a.88.88 0 0 0 .071.83.92.92 0 0 0 .129.155.87.87 0 0 0 .604.242l15.687.087a.87.87 0 0 0 .724-.383c.164-.241.198-.543.092-.813l-2.309-5.395c-3.459-1.733-5.224-5.16-10.591-4.987L27.183 65.01zm3.38-16.185l.001 1.752c-.001.242.196.439.438.438l2.19.001-1.337 3.111.114-.262c3.727.003 5.857 1.664 7.778 3.164.617.482 1.221.944 1.857 1.355l-3.154-7.369h2.125a.44.44 0 0 0 .438-.438l.001-1.753a.44.44 0 0 0-.438-.438l-9.575.001c-.244-.002-.44.194-.439.437zm1.903 11.1c-.854-.854-.855-2.244 0-3.098s2.244-.855 3.098 0 .855 2.244 0 3.098-2.244.854-3.098 0zm2.479-2.479c-.513-.513-1.346-.513-1.859 0s-.513 1.346 0 1.859 1.346.513 1.859 0 .514-1.345 0-1.859zm2.478-18.589c.854.854.854 2.244 0 3.098s-2.244.854-3.098 0-.854-2.244 0-3.098 2.244-.854 3.098 0zm-2.479 2.479c.513.513 1.346.513 1.859 0s.513-1.346 0-1.859-1.346-.513-1.859 0-.513 1.346 0 1.859zm5.267 21.377c-.683.684-1.795.684-2.479 0s-.683-1.795 0-2.478 1.795-.684 2.479 0 .683 1.795 0 2.478zm-.62-1.859c-.342-.342-.897-.343-1.239 0s-.342.897 0 1.239.897.343 1.239 0 .342-.897 0-1.239zm-6.815 3.098c-.342-.342-.342-.897 0-1.239s.897-.342 1.239 0 .342.897 0 1.239-.897.342-1.239 0zm-.62-19.209c-.342-.342-.342-.897 0-1.239s.897-.342 1.239 0 .342.897 0 1.239-.897.342-1.239 0z"/></g></g><defs><clipPath id="A"><path d="M0 0h338v112H0z" class="B"/></clipPath><clipPath id="B"><path transform="translate(111.387 54.643)" d="M0 0h43.847v43.847H0z" class="B"/></clipPath><clipPath id="C"><path transform="matrix(-.707107 -.707107 -.707107 .707107 55.7021 57.1362)" d="M0 0h28.042v28.042H0z" class="B"/></clipPath><path id="D" d="M208.88 61.609c0 .749-.601 1.349-1.351 1.349h-5.893v-2.66h5.893c.75 0 1.351.599 1.351 1.311z"/><path id="E" d="M312.024 105.444h-21.17v2.847h21.17v-2.847z"/><path id="F" d="M80.776 77.42l8.708-8.168s1.614-1.873 3.265-.262c1.389 1.349.525 3.26-.338 4.271l-5.292 6.556v4.496s.263 2.885-.901 4.159c-.751.824-1.501 1.311-2.215 1.536"/><path id="G" d="M271.712 60.223l-9.158-8.58s-1.689-1.948-3.416-.3c-1.464 1.424-.563 3.409.376 4.496l5.592 6.856v4.721s-.262 3.035.939 4.346c.788.862 1.614 1.349 2.327 1.611"/><path id="H" d="M184.024 99.256c0 .487-.413.899-.901.899h-36.408c-.488 0-.901-.412-.901-.899v-9.554c0-.487.413-.899.901-.899h36.408c.488 0 .901.412.901.899v9.554z"/><path id="I" d="M144.05 93.411c0 .225-.187.375-.375.375h-24.322c-.225 0-.375-.187-.375-.375v-1.836c0-.225.187-.375.375-.375h24.322c.225 0 .375.187.375.375v1.836z"/><path id="J" d="M227.489 97.832a.59.59 0 0 1-.601.599h-2.402a.59.59 0 0 1-.6-.599v-6.669a.59.59 0 0 1 .6-.599h2.402a.59.59 0 0 1 .601.599v6.669z"/><path id="K" d="M259.055 97.832a.59.59 0 0 1-.6.599h-2.402a.59.59 0 0 1-.601-.599v-6.669a.59.59 0 0 1 .601-.599h2.402a.59.59 0 0 1 .6.599v6.669z"/><path id="L" d="M185.346 77.045l-8.708-8.167s-1.614-1.873-3.265-.262c-1.389 1.349-.526 3.26.338 4.271l5.292 6.556v4.496s-.263 2.885.901 4.159c.75.824 1.501 1.311 2.214 1.536"/><path id="M" d="M174.762 106.23a1.01 1.01 0 1 0 2.027 0 1.01 1.01 0 0 0-1.014-1.011c-.563 0-1.013.449-1.013 1.011z"/><path id="N" d="M202.424 32.087a1.17 1.17 0 0 1-1.163 1.161 1.17 1.17 0 0 1-1.164-1.161 1.17 1.17 0 0 1 1.164-1.162c.638-.037 1.163.487 1.163 1.162z"/></defs></svg>