<svg width="624" height="213" viewBox="0 0 624 213" fill="none" xmlns="http://www.w3.org/2000/svg">
<path d="M483.389 34.791V38.04" stroke="#D8DBD7" stroke-width="3" stroke-miterlimit="10" stroke-linecap="round"/>
<path d="M483.389 44.3936V66.6311" stroke="#D8DBD7" stroke-width="3" stroke-miterlimit="10" stroke-linecap="round" stroke-dasharray="8.8 8.8"/>
<path d="M483.389 69.8081V73.0571" stroke="#D8DBD7" stroke-width="3" stroke-miterlimit="10" stroke-linecap="round"/>
<path d="M80.477 231.816C67.0785 231.816 53.7536 231.816 40.3551 231.816C40.6496 214.632 31.3737 197.882 30.8583 180.554C30.343 163.37 39.6189 146.62 40.3551 129.292C53.7536 129.292 67.0785 129.292 80.477 129.292C79.8144 146.62 70.5385 163.37 70.9802 180.554C71.4956 197.81 80.7715 214.56 80.477 231.816Z" fill="#D8DBD7" stroke="#494B4C" stroke-width="3" stroke-miterlimit="10" stroke-linejoin="round"/>
<path d="M66.9313 231.816C53.5328 231.816 40.2079 231.816 26.8094 231.816C27.1039 214.632 17.828 197.882 17.3127 180.554C16.7974 163.37 26.0732 146.62 26.8094 129.292C40.2079 129.292 53.5328 129.292 66.9313 129.292C66.2688 146.62 56.9929 163.37 57.4346 180.554C57.9499 197.81 67.2258 214.56 66.9313 231.816Z" fill="#E8F2FC" stroke="#494B4C" stroke-width="3" stroke-miterlimit="10" stroke-linecap="round" stroke-linejoin="round"/>
<path d="M30.1222 135.935C30.1222 135.935 27.5456 151.024 24.6008 156.006H32.9933C32.9933 156.006 36.8951 144.887 38.441 135.935H30.1222Z" fill="white"/>
<path d="M58.5389 191.239H18.417" stroke="#494B4C" stroke-width="3" stroke-miterlimit="10" stroke-linecap="round" stroke-linejoin="round"/>
<path d="M20.8462 201.564H60.9681" stroke="#494B4C" stroke-width="3" stroke-miterlimit="10" stroke-linecap="round" stroke-linejoin="round"/>
<path d="M63.7658 211.816H23.7175" stroke="#494B4C" stroke-width="3" stroke-miterlimit="10" stroke-linecap="round" stroke-linejoin="round"/>
<path d="M18.417 191.239H58.5389" stroke="#494B4C" stroke-width="3" stroke-miterlimit="10" stroke-linecap="round" stroke-linejoin="round"/>
<path d="M57.3609 180.987H17.239" stroke="#494B4C" stroke-width="3" stroke-miterlimit="10" stroke-linecap="round" stroke-linejoin="round"/>
<path d="M65.5326 139.833H25.4106" stroke="#494B4C" stroke-width="3" stroke-miterlimit="10" stroke-linecap="round" stroke-linejoin="round"/>
<path d="M22.9812 150.085H63.1031" stroke="#494B4C" stroke-width="3" stroke-miterlimit="10" stroke-linecap="round" stroke-linejoin="round"/>
<path d="M58.0234 170.662H17.9751" stroke="#494B4C" stroke-width="3" stroke-miterlimit="10" stroke-linecap="round" stroke-linejoin="round"/>
<path d="M17.239 180.987H57.3609" stroke="#494B4C" stroke-width="3" stroke-miterlimit="10" stroke-linecap="round" stroke-linejoin="round"/>
<path d="M25.4106 139.833H65.5326" stroke="#494B4C" stroke-width="3" stroke-miterlimit="10" stroke-linecap="round" stroke-linejoin="round"/>
<path d="M17.9751 170.662H58.0234" stroke="#494B4C" stroke-width="3" stroke-miterlimit="10" stroke-linecap="round" stroke-linejoin="round"/>
<path d="M60.3057 160.41H20.1838" stroke="#494B4C" stroke-width="3" stroke-miterlimit="10" stroke-linecap="round" stroke-linejoin="round"/>
<path d="M469.549 194.488C469.328 194.777 461.083 206.112 461.083 210.588C461.083 215.137 464.838 218.891 469.549 218.891C474.187 218.891 478.015 215.209 478.015 210.588C478.015 206.04 469.549 194.488 469.549 194.488Z" fill="#D8DBD7"/>
<path d="M609.277 192.683C609.056 193.044 599.927 205.535 599.927 210.516C599.927 215.57 604.123 219.686 609.277 219.686C614.43 219.686 618.626 215.57 618.626 210.516C618.626 205.462 609.277 192.683 609.277 192.683Z" fill="#D8DBD7"/>
<path d="M190.978 207.123C190.831 207.34 185.088 215.209 185.088 218.386C185.088 221.563 187.739 224.162 190.978 224.162C194.217 224.162 196.867 221.563 196.867 218.386C196.867 215.137 190.978 207.123 190.978 207.123Z" fill="#D8DBD7"/>
<path d="M457.476 211.888C457.329 212.033 452.985 218.097 452.985 220.48C452.985 222.935 454.973 224.884 457.476 224.884C459.979 224.884 461.967 222.935 461.967 220.48C461.967 218.025 457.476 211.888 457.476 211.888Z" fill="#D8DBD7"/>
<path d="M385.992 117.09V228.711" stroke="#494B4C" stroke-width="3" stroke-miterlimit="10" stroke-linecap="round" stroke-linejoin="round"/>
<path d="M390.115 115.646C390.115 117.09 388.937 118.245 387.465 118.245H375.907V113.119H387.465C388.937 113.119 390.115 114.274 390.115 115.646Z" fill="#D0D4D7"/>
<path d="M390.115 115.646C390.115 117.09 388.937 118.245 387.465 118.245H375.907V113.119H387.465C388.937 113.119 390.115 114.274 390.115 115.646Z" fill="#E8F2FC" stroke="#494B4C" stroke-width="3" stroke-miterlimit="10" stroke-linecap="round" stroke-linejoin="round"/>
<path d="M379.146 118.318C378.778 116.801 377.306 115.863 375.76 116.224C374.214 116.585 373.257 118.029 373.625 119.545C374.582 123.877 380.839 142.577 382.533 147.053C382.606 147.27 382.974 147.197 382.974 146.909C382.532 142.071 380.029 122.433 379.146 118.318Z" fill="#E8F2FC" stroke="#494B4C" stroke-width="3" stroke-miterlimit="10" stroke-linecap="round" stroke-linejoin="round"/>
<path d="M372.226 118.029C373.698 118.462 375.318 117.668 375.76 116.224C376.201 114.78 375.392 113.191 373.919 112.758C369.649 111.459 349.993 107.415 345.134 106.621C344.914 106.549 344.766 106.91 344.987 107.054C349.478 109.076 368.103 116.801 372.226 118.029Z" fill="#E8F2FC" stroke="#494B4C" stroke-width="3" stroke-miterlimit="10" stroke-linecap="round" stroke-linejoin="round"/>
<path d="M375.907 112.325C374.729 113.336 374.655 115.141 375.76 116.224C376.79 117.379 378.631 117.451 379.735 116.368C383.048 113.408 396.446 98.7516 399.538 94.9972C399.685 94.7806 399.465 94.564 399.244 94.7084C395.195 97.5242 379.072 109.437 375.907 112.325Z" fill="#E8F2FC" stroke="#494B4C" stroke-width="3" stroke-miterlimit="10" stroke-linecap="round" stroke-linejoin="round"/>
<path d="M376.937 117.451C376.054 118.245 374.729 118.173 373.919 117.307C373.109 116.44 373.183 115.141 374.066 114.347C374.95 113.552 376.275 113.625 377.085 114.491C377.821 115.357 377.747 116.657 376.937 117.451Z" fill="white"/>
<path d="M428.617 64.6006H411.906V82.7949H428.617V64.6006Z" fill="#E8F2FC" stroke="#494B4C" stroke-width="3" stroke-miterlimit="10" stroke-linecap="round" stroke-linejoin="round"/>
<path d="M411.906 72.1094H428.617" stroke="#494B4C" stroke-width="3" stroke-miterlimit="10" stroke-linecap="round" stroke-linejoin="round"/>
<path d="M439.292 131.241H400.863V228.061H439.292V131.241Z" fill="#E8F2FC" stroke="#494B4C" stroke-width="3" stroke-miterlimit="10" stroke-linecap="round" stroke-linejoin="round"/>
<path d="M433.771 89.8706H406.605V131.241H433.771V89.8706Z" fill="#E8F2FC" stroke="#494B4C" stroke-width="3" stroke-miterlimit="10" stroke-linecap="round" stroke-linejoin="round"/>
<path d="M400.863 136.873H439.292" stroke="#494B4C" stroke-width="3" stroke-miterlimit="10" stroke-linecap="round" stroke-linejoin="round"/>
<path d="M400.863 144.887H439.292" stroke="#494B4C" stroke-width="3" stroke-miterlimit="10" stroke-linecap="round" stroke-linejoin="round"/>
<path d="M400.863 152.901H439.292" stroke="#494B4C" stroke-width="3" stroke-miterlimit="10" stroke-linecap="round" stroke-linejoin="round"/>
<path d="M400.863 160.987H439.292" stroke="#494B4C" stroke-width="3" stroke-miterlimit="10" stroke-linecap="round" stroke-linejoin="round"/>
<path d="M400.863 169.001H439.292" stroke="#494B4C" stroke-width="3" stroke-miterlimit="10" stroke-linecap="round" stroke-linejoin="round"/>
<path d="M400.863 177.016H439.292" stroke="#494B4C" stroke-width="3" stroke-miterlimit="10" stroke-linecap="round" stroke-linejoin="round"/>
<path d="M400.863 185.03H439.292" stroke="#494B4C" stroke-width="3" stroke-miterlimit="10" stroke-linecap="round" stroke-linejoin="round"/>
<path d="M400.863 193.044H439.292" stroke="#494B4C" stroke-width="3" stroke-miterlimit="10" stroke-linecap="round" stroke-linejoin="round"/>
<path d="M400.863 201.058H439.292" stroke="#494B4C" stroke-width="3" stroke-miterlimit="10" stroke-linecap="round" stroke-linejoin="round"/>
<path d="M400.863 209.145H439.292" stroke="#494B4C" stroke-width="3" stroke-miterlimit="10" stroke-linecap="round" stroke-linejoin="round"/>
<path d="M406.605 120.627H433.771" stroke="#494B4C" stroke-width="3" stroke-miterlimit="10" stroke-linecap="round" stroke-linejoin="round"/>
<path d="M406.605 112.613H433.771" stroke="#494B4C" stroke-width="3" stroke-miterlimit="10" stroke-linecap="round" stroke-linejoin="round"/>
<path d="M406.605 104.599H433.771" stroke="#494B4C" stroke-width="3" stroke-miterlimit="10" stroke-linecap="round" stroke-linejoin="round"/>
<path d="M406.605 96.585H433.771" stroke="#494B4C" stroke-width="3" stroke-miterlimit="10" stroke-linecap="round" stroke-linejoin="round"/>
<path d="M428.544 82.6504H411.832L405.648 89.5094V90.2314C405.648 90.6646 406.017 91.0256 406.458 91.0256H433.918C434.36 91.0256 434.728 90.6646 434.728 90.2314V89.5094L428.544 82.6504Z" fill="#E8F2FC" stroke="#494B4C" stroke-width="3" stroke-miterlimit="10" stroke-linecap="round" stroke-linejoin="round"/>
<path d="M117.065 55.4312H80.1824V230.949H117.065V55.4312Z" fill="white" stroke="#494B4C" stroke-width="3" stroke-linecap="round" stroke-linejoin="round"/>
<path d="M87.8386 66.189V219.036" stroke="#494B4C" stroke-width="3" stroke-miterlimit="10" stroke-linecap="round" stroke-linejoin="round"/>
<path d="M80.5505 71.4595H116.992" stroke="#494B4C" stroke-width="3" stroke-miterlimit="10" stroke-linecap="round" stroke-linejoin="round"/>
<path d="M80.5505 78.0293H116.992" stroke="#494B4C" stroke-width="3" stroke-miterlimit="10" stroke-linecap="round" stroke-linejoin="round"/>
<path d="M80.5505 84.5273H116.992" stroke="#494B4C" stroke-width="3" stroke-miterlimit="10" stroke-linecap="round" stroke-linejoin="round"/>
<path d="M80.5505 91.0977H116.992" stroke="#494B4C" stroke-width="3" stroke-miterlimit="10" stroke-linecap="round" stroke-linejoin="round"/>
<path d="M80.5505 97.668H116.992" stroke="#494B4C" stroke-width="3" stroke-miterlimit="10" stroke-linecap="round" stroke-linejoin="round"/>
<path d="M80.5505 104.238H116.992" stroke="#494B4C" stroke-width="3" stroke-miterlimit="10" stroke-linecap="round" stroke-linejoin="round"/>
<path d="M80.5505 110.736H116.992" stroke="#494B4C" stroke-width="3" stroke-miterlimit="10" stroke-linecap="round" stroke-linejoin="round"/>
<path d="M80.5505 117.306H116.992" stroke="#494B4C" stroke-width="3" stroke-miterlimit="10" stroke-linecap="round" stroke-linejoin="round"/>
<path d="M80.5505 123.876H116.992" stroke="#494B4C" stroke-width="3" stroke-miterlimit="10" stroke-linecap="round" stroke-linejoin="round"/>
<path d="M80.5505 130.446H116.992" stroke="#494B4C" stroke-width="3" stroke-miterlimit="10" stroke-linecap="round" stroke-linejoin="round"/>
<path d="M80.5505 136.944H116.992" stroke="#494B4C" stroke-width="3" stroke-miterlimit="10" stroke-linecap="round" stroke-linejoin="round"/>
<path d="M80.5505 143.515H116.992" stroke="#494B4C" stroke-width="3" stroke-miterlimit="10" stroke-linecap="round" stroke-linejoin="round"/>
<path d="M80.5505 150.085H116.992" stroke="#494B4C" stroke-width="3" stroke-miterlimit="10" stroke-linecap="round" stroke-linejoin="round"/>
<path d="M80.5505 156.655H116.992" stroke="#494B4C" stroke-width="3" stroke-miterlimit="10" stroke-linecap="round" stroke-linejoin="round"/>
<path d="M80.5505 163.153H116.992" stroke="#494B4C" stroke-width="3" stroke-miterlimit="10" stroke-linecap="round" stroke-linejoin="round"/>
<path d="M80.5505 169.723H116.992" stroke="#494B4C" stroke-width="3" stroke-miterlimit="10" stroke-linecap="round" stroke-linejoin="round"/>
<path d="M80.5505 176.293H116.992" stroke="#494B4C" stroke-width="3" stroke-miterlimit="10" stroke-linecap="round" stroke-linejoin="round"/>
<path d="M80.5505 182.863H116.992" stroke="#494B4C" stroke-width="3" stroke-miterlimit="10" stroke-linecap="round" stroke-linejoin="round"/>
<path d="M80.5505 189.361H116.992" stroke="#494B4C" stroke-width="3" stroke-miterlimit="10" stroke-linecap="round" stroke-linejoin="round"/>
<path d="M80.5505 195.932H116.992" stroke="#494B4C" stroke-width="3" stroke-miterlimit="10" stroke-linecap="round" stroke-linejoin="round"/>
<path d="M80.5505 202.502H116.992" stroke="#494B4C" stroke-width="3" stroke-miterlimit="10" stroke-linecap="round" stroke-linejoin="round"/>
<path d="M80.5505 209.072H116.992" stroke="#494B4C" stroke-width="3" stroke-miterlimit="10" stroke-linecap="round" stroke-linejoin="round"/>
<path d="M80.4033 64.8892H116.992" stroke="#494B4C" stroke-width="3" stroke-miterlimit="10" stroke-linecap="round" stroke-linejoin="round"/>
<path d="M116.329 53.7705C117.286 54.7091 117.286 56.2253 116.329 57.1639L100.28 78.6794C99.3231 79.9068 97.7772 79.9068 96.8201 78.6794L80.845 57.1639C79.8879 56.2253 79.8879 54.7091 80.845 53.7705L96.8937 32.255C97.8508 31.0276 99.3968 31.0276 100.354 32.255L116.329 53.7705Z" fill="#E8F2FC" stroke="#494B4C" stroke-width="3" stroke-miterlimit="10" stroke-linecap="round" stroke-linejoin="round"/>
<path d="M595.51 5.83008H589.915L555.388 30.0892V30.739V127.487H561.351V114.346H595.583L595.51 5.83008Z" fill="#D8DBD7" stroke="#494B4C" stroke-width="3" stroke-miterlimit="10" stroke-linejoin="round"/>
<path d="M589.915 83.7334L543.83 116.151H543.683C543.683 121.927 543.683 219.036 543.683 221.707H595.583V83.7334H589.915Z" fill="#D8DBD7" stroke="#494B4C" stroke-width="3" stroke-miterlimit="10" stroke-linejoin="round"/>
<path d="M592.418 70.521H560.615V76.0082H592.418V70.521Z" fill="white"/>
<path d="M572.099 83.7334H560.615V89.2206H572.099V83.7334Z" fill="white"/>
<path d="M592.418 57.3086H560.615V62.7958H592.418V57.3086Z" fill="white"/>
<path d="M592.418 44.0239H560.615V49.5111H592.418V44.0239Z" fill="white"/>
<path d="M592.418 30.811H571.289V36.2982H592.418V30.811Z" fill="white"/>
<path d="M592.418 17.5986H584.467V23.0858H592.418V17.5986Z" fill="white"/>
<path d="M592.418 200.12H550.897V205.607H592.418V200.12Z" fill="white"/>
<path d="M592.418 186.33H550.897V191.817H592.418V186.33Z" fill="white"/>
<path d="M592.418 172.467H550.897V177.954H592.418V172.467Z" fill="white"/>
<path d="M592.418 158.677H550.897V164.164H592.418V158.677Z" fill="white"/>
<path d="M592.418 144.815H550.897V150.302H592.418V144.815Z" fill="white"/>
<path d="M592.418 131.024H550.897V136.512H592.418V131.024Z" fill="white"/>
<path d="M592.418 117.162H561.646V122.649H592.418V117.162Z" fill="white"/>
<path d="M591.903 103.372H577.842V108.859H591.903V103.372Z" fill="white"/>
<path d="M137.016 129.364C140.328 124.888 149.236 110.664 149.236 110.664C150.561 109.365 153.727 107.415 156.23 109.437C158.807 111.531 156.156 117.668 156.156 117.668C157.776 115.863 163.003 109.148 166.463 112.758C168.966 115.357 166.684 118.39 166.684 118.39C166.684 118.39 168.745 116.657 170.88 118.534C173.53 120.844 170.512 124.743 170.512 124.743L168.892 127.342C168.892 127.342 170.586 126.043 172.647 128.137C174.487 130.014 171.984 133.479 171.984 133.479L162.119 148.569C162.119 153.623 162.119 155.5 162.119 159.616C162.119 169.724 156.598 171.023 156.598 171.023V187.557L133.04 187.629V142.288C133.114 142.288 132.599 135.212 137.016 129.364Z" fill="#E8F2FC" stroke="#494B4C" stroke-width="3" stroke-miterlimit="10" stroke-linecap="round" stroke-linejoin="round"/>
<path d="M181.334 96.3687C185.456 96.3687 188.769 99.6176 188.769 103.661V158.533C188.769 162.576 185.456 165.825 181.334 165.825H154.758C150.635 165.825 147.322 162.576 147.322 158.533V103.661C147.322 99.6176 150.635 96.3687 154.758 96.3687H181.334Z" fill="white" stroke="#646464" stroke-width="3"/>
<path d="M188.769 103.589C188.769 99.5454 185.456 96.2964 181.334 96.2964H154.758C150.635 96.2964 147.322 99.5454 147.322 103.589V158.46C147.322 162.504 150.635 165.753 154.758 165.753H181.407C185.53 165.753 188.843 162.504 188.843 158.46V103.589H188.769Z" fill="white" stroke="#494B4C" stroke-width="3" stroke-miterlimit="10" stroke-linecap="round" stroke-linejoin="round"/>
<path d="M185.015 102.722H151.077V154.634H185.015V102.722Z" fill="white"/>
<path d="M155.42 106.188H185.015V102.722H151.077V154.634H155.42V106.188Z" fill="white"/>
<path d="M168.009 158.099C166.831 158.099 165.801 159.038 165.801 160.265C165.801 161.42 166.758 162.431 168.009 162.431C169.187 162.431 170.218 161.493 170.218 160.265C170.218 159.038 169.261 158.099 168.009 158.099Z" fill="white"/>
<path d="M156.083 126.332C156.009 127.415 155.862 127.054 155.862 128.642C155.862 131.602 157.04 134.562 159.322 136.873L167.715 128.642V116.874C162.046 116.874 157.187 120.845 156.083 126.332Z" fill="#E8F2FC"/>
<path d="M167.788 128.642L159.396 136.873C162.709 140.122 167.347 141.06 171.543 139.761C173.31 139.183 174.929 138.245 176.328 136.873C177.211 136.006 177.948 134.996 178.463 133.985L167.788 128.642Z" fill="white"/>
<path d="M173.236 118.173C171.543 117.307 169.629 116.874 167.788 116.946V128.642L178.463 133.985C181.481 128.209 179.199 121.061 173.236 118.173Z" fill="#D8DBD7"/>
<path d="M138.856 146.114L155.936 130.375C155.936 130.375 159.101 126.765 162.34 129.869C165.064 132.469 163.371 136.151 161.678 138.1L151.298 150.735V159.399C151.298 159.399 151.813 164.958 149.531 167.413C148.058 169.002 146.586 169.94 145.187 170.373" fill="#E8F2FC"/>
<path d="M138.856 146.114L155.936 130.375C155.936 130.375 159.101 126.765 162.34 129.869C165.064 132.469 163.371 136.151 161.678 138.1L151.298 150.735V159.399C151.298 159.399 151.813 164.958 149.531 167.413C148.058 169.002 146.586 169.94 145.187 170.373" stroke="#494B4C" stroke-width="3" stroke-miterlimit="10" stroke-linecap="round" stroke-linejoin="round"/>
<path d="M158.88 190.95C159.322 190.95 159.616 190.589 159.616 190.228L159.543 178.46C159.543 178.027 159.175 177.738 158.807 177.738L130.537 177.81C130.095 177.81 129.801 178.171 129.801 178.532V190.301C129.801 190.734 130.169 191.023 130.537 191.023L158.88 190.95Z" fill="white" stroke="#494B4C" stroke-width="3" stroke-miterlimit="10" stroke-linecap="round" stroke-linejoin="round"/>
<path d="M163.15 187.701L163.077 231.021C163.077 231.454 162.708 231.743 162.34 231.743L128.991 231.671C128.55 231.671 128.255 231.31 128.255 230.949L128.329 187.629L163.15 187.701Z" fill="white" stroke="#494B4C" stroke-width="3" stroke-miterlimit="10" stroke-linecap="round" stroke-linejoin="round"/>
<path d="M159.617 213.982C159.617 212.899 158.733 212.032 157.629 212.032C156.525 212.032 155.641 212.899 155.641 213.982C155.641 215.065 156.525 215.931 157.629 215.931C158.733 215.931 159.617 215.065 159.617 213.982Z" fill="white"/>
<path d="M159.617 206.257C159.617 205.174 158.733 204.307 157.629 204.307C156.525 204.307 155.641 205.174 155.641 206.257C155.641 207.34 156.525 208.206 157.629 208.206C158.733 208.134 159.617 207.267 159.617 206.257Z" fill="white"/>
<path d="M159.617 198.459C159.617 197.376 158.733 196.509 157.629 196.509C156.525 196.509 155.641 197.376 155.641 198.459C155.641 199.542 156.525 200.408 157.629 200.408C158.733 200.408 159.617 199.542 159.617 198.459Z" fill="white"/>
<path d="M515.266 95.4301C511.732 90.7372 502.383 75.7918 502.383 75.7918C500.984 74.4922 497.671 72.3262 495.021 74.4922C492.297 76.6582 495.095 83.1562 495.095 83.1562C493.401 81.2068 487.954 74.2034 484.273 77.9578C481.622 80.7014 484.052 83.8782 484.052 83.8782C484.052 83.8782 481.917 82.0732 479.635 84.0226C476.911 86.4052 480.003 90.5205 480.003 90.5205L481.77 93.2641C481.77 93.2641 479.929 91.8923 477.868 94.1305C475.954 96.1521 478.604 99.7621 478.604 99.7621L488.911 115.574C488.911 120.917 488.911 122.866 488.911 127.198C488.911 137.811 494.653 139.183 494.653 139.183V156.583L519.389 156.655V109.004C519.389 108.931 519.83 101.567 515.266 95.4301Z" fill="#E8F2FC" stroke="#494B4C" stroke-width="3" stroke-miterlimit="10" stroke-linecap="round" stroke-linejoin="round"/>
<path d="M497.818 62.0737C502.088 62.0737 505.622 65.4671 505.622 69.7269V127.342C505.622 131.53 502.162 134.995 497.818 134.995H469.844C465.574 134.995 462.04 131.602 462.04 127.342V69.7269C462.04 65.5393 465.5 62.0737 469.844 62.0737H497.818Z" fill="white" stroke="#646464" stroke-width="3"/>
<path d="M505.622 69.6546C505.622 65.4671 502.162 62.0015 497.818 62.0015H469.844C465.574 62.0015 462.04 65.3949 462.04 69.6546V127.27C462.04 131.458 465.5 134.923 469.844 134.923H497.818C502.088 134.923 505.622 131.53 505.622 127.27V69.6546Z" fill="white" stroke="#494B4C" stroke-width="3" stroke-miterlimit="10" stroke-linecap="round" stroke-linejoin="round"/>
<path d="M501.72 68.7158H466.015V123.227H501.72V68.7158Z" fill="white"/>
<path d="M470.58 72.3258H501.72V68.7158H466.015V123.299H470.58V72.3258Z" fill="white"/>
<path d="M483.831 126.909C482.579 126.909 481.549 127.92 481.549 129.147C481.549 130.375 482.579 131.386 483.831 131.386C485.082 131.386 486.113 130.375 486.113 129.147C486.113 127.92 485.156 126.909 483.831 126.909Z" fill="white"/>
<path d="M499.144 98.5347C499.144 106.765 492.297 113.48 483.905 113.48C475.512 113.48 468.666 106.765 468.666 98.5347C468.666 90.3039 475.512 83.5894 483.905 83.5894C492.297 83.5894 499.144 90.2317 499.144 98.5347Z" fill="white" stroke="#494B4C" stroke-width="3" stroke-miterlimit="10"/>
<path d="M492.518 98.5348C492.518 106.766 488.616 113.48 483.905 113.48C479.12 113.48 475.292 106.766 475.292 98.5348C475.292 90.304 479.193 83.5894 483.905 83.5894C488.616 83.5172 492.518 90.2318 492.518 98.5348Z" stroke="#494B4C" stroke-width="3" stroke-miterlimit="10"/>
<path d="M483.831 83.5171V113.408" stroke="#494B4C" stroke-width="3" stroke-miterlimit="10"/>
<path d="M469.696 92.542H498.039" stroke="#494B4C" stroke-width="3" stroke-miterlimit="10"/>
<path d="M469.696 104.455H498.039" stroke="#494B4C" stroke-width="3" stroke-miterlimit="10"/>
<path d="M513.352 112.975L495.389 96.4408C495.389 96.4408 492.076 92.6864 488.69 95.8632C485.819 98.6068 487.585 102.433 489.426 104.527L500.395 117.74V126.837C500.395 126.837 499.88 132.685 502.235 135.212C503.781 136.873 505.401 137.811 506.8 138.317" fill="#E8F2FC"/>
<path d="M513.352 112.975L495.389 96.4408C495.389 96.4408 492.076 92.6864 488.69 95.8632C485.819 98.6068 487.585 102.433 489.426 104.527L500.395 117.74V126.837C500.395 126.837 499.88 132.685 502.235 135.212C503.781 136.873 505.401 137.811 506.8 138.317" stroke="#494B4C" stroke-width="3" stroke-miterlimit="10" stroke-linecap="round" stroke-linejoin="round"/>
<path d="M492.297 160.049C491.855 160.049 491.487 159.688 491.487 159.255L491.561 146.908C491.561 146.475 491.929 146.114 492.371 146.114L522.039 146.186C522.481 146.186 522.849 146.547 522.849 146.981L522.775 159.327C522.775 159.76 522.407 160.121 521.965 160.121L492.297 160.049Z" fill="white" stroke="#494B4C" stroke-width="3" stroke-miterlimit="10" stroke-linecap="round" stroke-linejoin="round"/>
<path d="M487.733 231.671L487.806 157.305C487.806 156.872 488.174 156.511 488.616 156.511L523.658 156.583C524.1 156.583 524.468 156.944 524.468 157.377L524.395 231.743L487.733 231.671Z" fill="white" stroke="#494B4C" stroke-width="3" stroke-miterlimit="10" stroke-linecap="round" stroke-linejoin="round"/>
<path d="M491.487 163.875C491.487 165.03 492.444 165.897 493.549 165.897C494.726 165.897 495.61 164.958 495.61 163.875C495.61 162.72 494.653 161.854 493.549 161.854C492.444 161.854 491.487 162.792 491.487 163.875Z" fill="white"/>
<path d="M491.487 172.034C491.487 173.189 492.444 174.055 493.549 174.055C494.726 174.055 495.61 173.117 495.61 172.034C495.61 170.879 494.653 170.012 493.549 170.012C492.444 170.012 491.487 170.879 491.487 172.034Z" fill="white"/>
<path d="M491.487 180.192C491.487 181.348 492.444 182.214 493.549 182.214C494.726 182.214 495.61 181.275 495.61 180.192C495.61 179.037 494.653 178.171 493.549 178.171C492.444 178.171 491.487 179.037 491.487 180.192Z" fill="white"/>
<path d="M176.755 177.221L193.245 169.712C195.601 168.629 198.251 168.051 200.901 168.051C203.846 168.051 207.969 168.051 211.576 168.051H264.507C265.464 168.051 266.274 168.845 266.274 169.784V188.195C266.274 189.134 265.464 189.928 264.507 189.928H211.576C206.717 189.928 186.914 189.928 177.27 189.928C174.325 189.928 171.896 187.545 171.896 184.657C171.896 181.48 173.81 178.52 176.755 177.221Z" fill="#D8DBD7" stroke="#494B4C" stroke-width="3" stroke-miterlimit="10" stroke-linejoin="round"/>
<path d="M341.365 188.195C341.365 189.134 340.555 189.928 339.598 189.928H268.188C267.231 189.928 266.421 189.134 266.421 188.195V169.784C266.421 168.845 267.231 168.051 268.188 168.051H339.598C340.555 168.051 341.365 168.845 341.365 169.784V188.195Z" fill="#D8DBD7" stroke="#494B4C" stroke-width="3" stroke-miterlimit="10" stroke-linejoin="round"/>
<path d="M416.382 188.195C416.382 189.134 415.572 189.928 414.615 189.928H343.205C342.248 189.928 341.438 189.134 341.438 188.195V169.784C341.438 168.845 342.248 168.051 343.205 168.051H414.615C415.572 168.051 416.382 168.845 416.382 169.784V188.195Z" fill="#D8DBD7" stroke="#494B4C" stroke-width="3" stroke-miterlimit="10" stroke-linejoin="round"/>
<path d="M194.938 178.448C197.736 178.448 199.944 176.282 199.944 173.538V168.051C197.662 168.196 195.38 168.701 193.319 169.712L176.828 177.221C176.092 177.582 175.43 178.015 174.841 178.52H194.938V178.448Z" fill="white" stroke="#494B4C" stroke-width="3" stroke-miterlimit="10" stroke-linecap="round" stroke-linejoin="round"/>
<path d="M262.961 176.932C262.961 177.365 262.593 177.654 262.225 177.654H214.521C214.079 177.654 213.784 177.293 213.784 176.932V173.394C213.784 172.961 214.153 172.672 214.521 172.672H262.225C262.667 172.672 262.961 173.033 262.961 173.394V176.932Z" fill="white"/>
<path d="M328.04 176.932C328.04 177.365 327.672 177.654 327.304 177.654H279.599C279.158 177.654 278.863 177.293 278.863 176.932V173.394C278.863 172.961 279.231 172.672 279.599 172.672H327.304C327.746 172.672 328.04 173.033 328.04 173.394V176.932Z" fill="white"/>
<path d="M403.646 176.932C403.646 177.365 403.278 177.654 402.91 177.654H355.205C354.763 177.654 354.469 177.293 354.469 176.932V173.394C354.469 172.961 354.837 172.672 355.205 172.672H402.91C403.351 172.672 403.646 173.033 403.646 173.394V176.932Z" fill="white"/>
<path d="M491.399 188.195C491.399 189.134 490.589 189.928 489.632 189.928H418.222C417.265 189.928 416.455 189.134 416.455 188.195V169.784C416.455 168.845 417.265 168.051 418.222 168.051H489.632C490.589 168.051 491.399 168.845 491.399 169.784V188.195Z" fill="#D8DBD7" stroke="#494B4C" stroke-width="3" stroke-miterlimit="10" stroke-linejoin="round"/>
<path d="M478.663 176.932C478.663 177.365 478.295 177.654 477.927 177.654H430.222C429.78 177.654 429.486 177.293 429.486 176.932V173.394C429.486 172.961 429.854 172.672 430.222 172.672H477.927C478.368 172.672 478.663 173.033 478.663 173.394V176.932Z" fill="white"/>
<path d="M426.615 185.452C426.615 186.101 426.099 186.607 425.437 186.607H420.725C420.063 186.607 419.547 186.101 419.547 185.452V172.6C419.547 171.95 420.063 171.445 420.725 171.445H425.437C426.099 171.445 426.615 171.95 426.615 172.6V185.452Z" fill="white"/>
<path d="M488.528 185.452C488.528 186.101 488.012 186.607 487.35 186.607H482.638C481.976 186.607 481.46 186.101 481.46 185.452V172.6C481.46 171.95 481.976 171.445 482.638 171.445H487.35C488.012 171.445 488.528 171.95 488.528 172.6V185.452Z" fill="white"/>
<path d="M413.511 185.452C413.511 186.101 412.995 186.607 412.333 186.607H407.621C406.959 186.607 406.443 186.101 406.443 185.452V172.6C406.443 171.95 406.959 171.445 407.621 171.445H412.333C412.995 171.445 413.511 171.95 413.511 172.6V185.452Z" fill="white"/>
<path d="M209.809 185.452C209.809 186.101 209.294 186.607 208.631 186.607H203.92C203.257 186.607 202.742 186.101 202.742 185.452V172.6C202.742 171.95 203.257 171.445 203.92 171.445H208.631C209.294 171.445 209.809 171.95 209.809 172.6V185.452Z" fill="white"/>
<path d="M276.065 185.452C276.065 186.101 275.55 186.607 274.888 186.607H270.176C269.513 186.607 268.998 186.101 268.998 185.452V172.6C268.998 171.95 269.513 171.445 270.176 171.445H274.888C275.55 171.445 276.065 171.95 276.065 172.6V185.452Z" fill="white"/>
<path d="M337.978 185.452C337.978 186.101 337.463 186.607 336.801 186.607H332.089C331.426 186.607 330.911 186.101 330.911 185.452V172.6C330.911 171.95 331.426 171.445 332.089 171.445H336.801C337.463 171.445 337.978 171.95 337.978 172.6V185.452Z" fill="white"/>
<path d="M351.598 185.452C351.598 186.101 351.082 186.607 350.42 186.607H345.708C345.046 186.607 344.53 186.101 344.53 185.452V172.6C344.53 171.95 345.046 171.445 345.708 171.445H350.42C351.082 171.445 351.598 171.95 351.598 172.6V185.452Z" fill="white"/>
<path d="M45.8765 193.26V231.815" stroke="#D8DBD7" stroke-width="3" stroke-miterlimit="10" stroke-linecap="round" stroke-linejoin="round"/>
<path d="M112.354 193.26V231.815" stroke="#D8DBD7" stroke-width="3" stroke-miterlimit="10" stroke-linecap="round" stroke-linejoin="round"/>
<path d="M178.905 193.26V231.815" stroke="#D8DBD7" stroke-width="3" stroke-miterlimit="10" stroke-linecap="round" stroke-linejoin="round"/>
<path d="M245.382 193.26V231.815" stroke="#D8DBD7" stroke-width="3" stroke-miterlimit="10" stroke-linecap="round" stroke-linejoin="round"/>
<path d="M311.859 193.26V231.815" stroke="#D8DBD7" stroke-width="3" stroke-miterlimit="10" stroke-linecap="round" stroke-linejoin="round"/>
<path d="M378.41 193.26V231.815" stroke="#D8DBD7" stroke-width="3" stroke-miterlimit="10" stroke-linecap="round" stroke-linejoin="round"/>
<path d="M444.887 193.26V231.815" stroke="#D8DBD7" stroke-width="3" stroke-miterlimit="10" stroke-linecap="round" stroke-linejoin="round"/>
<path d="M511.364 193.26V231.815" stroke="#D8DBD7" stroke-width="3" stroke-miterlimit="10" stroke-linecap="round" stroke-linejoin="round"/>
<path d="M577.915 193.26V231.815" stroke="#D8DBD7" stroke-width="3" stroke-miterlimit="10" stroke-linecap="round" stroke-linejoin="round"/>
<path d="M621.792 190.806H2V198.17H621.792V190.806Z" fill="#E8F2FC" stroke="#494B4C" stroke-width="3" stroke-miterlimit="10" stroke-linecap="round" stroke-linejoin="round"/>
<path d="M345.797 128.642C342.484 124.165 333.576 109.942 333.576 109.942C332.251 108.643 329.085 106.693 326.582 108.715C324.006 110.808 326.656 116.945 326.656 116.945C325.036 115.14 319.81 108.426 316.35 112.036C313.847 114.635 316.129 117.667 316.129 117.667C316.129 117.667 314.067 115.935 311.932 117.812C309.282 120.122 312.301 124.021 312.301 124.021L313.92 126.62C313.92 126.62 312.227 125.321 310.166 127.414C308.325 129.292 310.828 132.757 310.828 132.757L320.619 147.847C320.619 152.901 320.619 154.778 320.619 158.894C320.619 169.001 326.141 170.301 326.141 170.301V186.835L349.625 186.907V141.566C349.699 141.566 350.214 134.49 345.797 128.642Z" fill="#E8F2FC" stroke="#494B4C" stroke-width="3" stroke-miterlimit="10" stroke-linecap="round" stroke-linejoin="round"/>
<path d="M328.129 92.2534C332.251 92.2534 335.564 95.5024 335.564 99.5456V154.417C335.564 158.461 332.251 161.71 328.129 161.71H301.479C297.356 161.71 294.043 158.461 294.043 154.417V99.5456C294.043 95.5024 297.356 92.2534 301.479 92.2534H328.129Z" fill="white" stroke="#646464" stroke-width="3"/>
<path d="M335.49 99.4733C335.49 95.4301 332.178 92.1812 328.055 92.1812H301.405C297.283 92.1812 293.97 95.4301 293.97 99.4733V154.345C293.97 158.388 297.283 161.637 301.405 161.637H328.055C332.178 161.637 335.49 158.388 335.49 154.345V99.4733Z" fill="white" stroke="#494B4C" stroke-width="3" stroke-miterlimit="10" stroke-linecap="round" stroke-linejoin="round"/>
<path d="M331.736 98.6069H297.798V150.519H331.736V98.6069Z" fill="white"/>
<path d="M302.141 102.073H331.736V98.6069H297.798V150.519H302.141V102.073Z" fill="white"/>
<path d="M314.804 153.984C313.626 153.984 312.595 154.922 312.595 156.15C312.595 157.305 313.552 158.316 314.804 158.316C315.982 158.316 317.012 157.377 317.012 156.15C316.939 154.922 315.982 153.984 314.804 153.984Z" fill="white"/>
<path d="M327.908 130.014C327.908 131.241 326.877 132.324 325.552 132.324H303.908C302.657 132.324 301.552 131.313 301.552 130.014V115.791H327.834V130.014H327.908Z" fill="white" stroke="#494B4C" stroke-width="3" stroke-miterlimit="10" stroke-linejoin="round"/>
<path d="M316.644 126.765C315.614 127.776 313.994 127.776 312.963 126.765L301.626 115.791V130.014C301.626 131.241 302.657 132.324 303.982 132.324H325.626C326.877 132.324 327.982 131.313 327.982 130.014V115.791L316.644 126.765Z" fill="white" stroke="#494B4C" stroke-width="3" stroke-miterlimit="10" stroke-linejoin="round"/>
<path d="M343.956 145.393L326.877 129.653C326.877 129.653 323.711 126.043 320.472 129.148C317.748 131.747 319.442 135.429 321.135 137.378L331.515 150.013V158.677C331.515 158.677 331 164.237 333.282 166.692C334.754 168.28 336.226 169.218 337.625 169.652" fill="#E8F2FC"/>
<path d="M343.956 145.393L326.877 129.653C326.877 129.653 323.711 126.043 320.472 129.148C317.748 131.747 319.442 135.429 321.135 137.378L331.515 150.013V158.677C331.515 158.677 331 164.237 333.282 166.692C334.754 168.28 336.226 169.218 337.625 169.652" stroke="#494B4C" stroke-width="3" stroke-miterlimit="10" stroke-linecap="round" stroke-linejoin="round"/>
<path d="M323.932 190.228C323.491 190.228 323.196 189.867 323.196 189.506L323.27 177.738C323.27 177.304 323.638 177.016 324.006 177.016L352.275 177.088C352.717 177.088 353.011 177.449 353.011 177.81V189.578C353.011 190.012 352.643 190.3 352.275 190.3L323.932 190.228Z" fill="white" stroke="#494B4C" stroke-width="3" stroke-miterlimit="10" stroke-linecap="round" stroke-linejoin="round"/>
<path d="M319.662 231.816L319.736 187.701C319.736 187.268 320.104 186.979 320.472 186.979L353.821 187.052C354.263 187.052 354.557 187.413 354.557 187.774L354.484 231.816H319.662Z" fill="white" stroke="#494B4C" stroke-width="3" stroke-miterlimit="10" stroke-linecap="round" stroke-linejoin="round"/>
<path d="M323.196 193.839C323.196 194.922 324.079 195.788 325.184 195.788C326.288 195.788 327.171 194.922 327.171 193.839C327.171 192.756 326.288 191.889 325.184 191.889C324.079 191.961 323.196 192.828 323.196 193.839Z" fill="white"/>
<path d="M323.196 201.636C323.196 202.719 324.079 203.585 325.184 203.585C326.288 203.585 327.171 202.719 327.171 201.636C327.171 200.553 326.288 199.687 325.184 199.687C324.079 199.687 323.196 200.553 323.196 201.636Z" fill="white"/>
<path d="M323.196 209.361C323.196 210.444 324.079 211.311 325.184 211.311C326.288 211.311 327.171 210.444 327.171 209.361C327.171 208.278 326.288 207.412 325.184 207.412C324.079 207.412 323.196 208.278 323.196 209.361Z" fill="white"/>
<path d="M274.387 210.155C274.387 214.848 270.559 218.603 265.774 218.603C260.989 218.603 257.161 214.848 257.161 210.155C257.161 205.462 265.774 193.694 265.774 193.694C265.774 193.694 274.387 205.535 274.387 210.155Z" fill="white"/>
<path d="M265.774 193.766V218.675C270.559 218.675 274.387 214.921 274.387 210.228C274.387 205.535 265.774 193.694 265.774 193.766C265.774 193.694 265.774 193.694 265.774 193.766Z" fill="white"/>
<path d="M265.774 193.694C265.553 193.983 257.161 205.535 257.161 210.155C257.161 214.848 260.989 218.603 265.774 218.603C270.559 218.603 274.387 214.848 274.387 210.155C274.387 205.462 265.774 193.694 265.774 193.694Z" stroke="#494B4C" stroke-width="3" stroke-miterlimit="10" stroke-linejoin="round"/>
<path d="M24.4537 214.343C24.4537 218.097 21.3618 221.13 17.5336 221.13C13.7055 221.13 10.6135 218.097 10.6135 214.343C10.6135 210.588 17.5336 201.058 17.5336 201.058C17.5336 201.058 24.4537 210.588 24.4537 214.343Z" fill="white"/>
<path d="M17.46 201.13V221.202C21.2881 221.202 24.3801 218.17 24.3801 214.415C24.4537 210.589 17.46 201.13 17.46 201.13Z" fill="white"/>
<path d="M17.4599 201.13C17.3127 201.347 10.5398 210.661 10.5398 214.415C10.5398 218.17 13.6318 221.202 17.4599 221.202C21.288 221.202 24.38 218.17 24.38 214.415C24.4536 210.589 17.4599 201.13 17.4599 201.13Z" stroke="#494B4C" stroke-width="3" stroke-miterlimit="10" stroke-linejoin="round"/>
<path d="M536.542 34.9266C535.805 34.9266 535.143 34.5656 534.848 33.9158C534.554 33.0494 534.112 32.183 533.671 31.3888C533.302 30.8112 533.302 30.017 533.744 29.5116C534.628 28.573 534.554 27.0568 533.597 26.1904C532.64 25.3241 531.094 25.3963 530.21 26.3349C529.769 26.8402 528.959 26.9846 528.37 26.6958C527.413 26.2627 526.456 25.9017 525.425 25.6851C524.763 25.5407 524.321 25.0353 524.321 24.3855C524.247 23.1581 523.217 22.1473 521.892 22.2195H521.818C520.566 22.2917 519.536 23.3747 519.609 24.6021C519.609 25.2519 519.168 25.8295 518.505 26.0461C517.475 26.407 516.518 26.8402 515.634 27.4178C515.119 27.7788 514.383 27.7066 513.941 27.2734C513.057 26.4792 511.585 26.5514 510.775 27.4178L510.628 27.5622C509.745 28.5008 509.818 29.8726 510.775 30.739C511.291 31.1722 511.364 31.8942 511.07 32.544C510.628 33.4826 510.26 34.4934 510.039 35.5042C509.892 36.154 509.377 36.5872 508.788 36.5872C507.536 36.6594 506.579 37.6702 506.653 38.8976V39.1142C506.726 40.3416 507.757 41.2802 509.008 41.2802C509.671 41.2802 510.26 41.6412 510.481 42.2188C510.849 43.2296 511.364 44.2404 511.953 45.179C512.321 45.6844 512.248 46.4064 511.806 46.8396C510.996 47.7782 510.996 49.15 511.953 49.9442L512.027 50.0164C512.984 50.8828 514.456 50.8105 515.34 49.872C515.781 49.3666 516.517 49.2944 517.18 49.5832C518.137 50.0164 519.094 50.3774 520.198 50.5218C520.861 50.6662 521.303 51.1716 521.303 51.8214C521.376 53.1209 522.481 54.0595 523.732 53.9873C525.057 53.9151 526.088 52.8321 526.014 51.5325C526.014 50.8106 526.382 50.1608 527.045 49.9442C527.928 49.6554 528.812 49.2222 529.622 48.7168C530.21 48.3558 531.02 48.2836 531.536 48.789C532.493 49.6554 534.039 49.5832 534.922 48.6446C535.805 47.706 535.732 46.1898 534.775 45.3234C534.186 44.818 534.039 44.0238 534.407 43.3018C534.775 42.5076 535.069 41.6412 535.29 40.7748C535.437 40.125 536.026 39.5474 536.689 39.4752C538.014 39.403 539.045 38.32 538.971 37.0204C538.971 35.8652 537.867 34.8544 536.542 34.9266ZM522.996 42.7242C520.346 42.8686 518.063 40.9192 517.916 38.32C517.769 35.7208 519.757 33.4826 522.407 33.3382C525.057 33.1938 527.339 35.1432 527.487 37.7424C527.634 40.3416 525.646 42.5798 522.996 42.7242Z" fill="#D8DBD7"/>
<path d="M497.377 13.9133C497.377 6.62112 491.34 0.772949 483.978 0.772949C476.543 0.772949 470.58 6.69332 470.58 13.9133C470.58 17.8121 472.347 21.3499 475.071 23.7325L483.978 32.4686L492.886 23.7325C495.61 21.3499 497.377 17.8121 497.377 13.9133Z" fill="#D8DBD7"/>
<path d="M490.089 13.4803C490.089 16.8015 487.291 19.5451 483.905 19.5451C480.518 19.5451 477.721 16.8015 477.721 13.4803C477.721 10.1591 480.518 7.41553 483.905 7.41553C487.291 7.41553 490.089 10.1591 490.089 13.4803Z" fill="white"/>
<path d="M374.95 46.7671C365.968 46.7671 358.754 52.1099 358.754 58.7522C358.754 63.3008 362.214 67.2718 367.293 69.2934C366.336 71.5316 364.79 74.203 362.287 75.7914C365.674 75.4304 370.68 73.4088 374.361 70.6652C374.582 70.6652 374.802 70.6652 374.95 70.6652C383.931 70.6652 391.146 65.3224 391.146 58.68C391.146 52.1099 383.931 46.7671 374.95 46.7671Z" fill="#D8DBD7"/>
<path d="M368.692 58.6801C368.692 59.9075 367.661 60.9183 366.41 60.9183C365.158 60.9183 364.128 59.9075 364.128 58.6801C364.128 57.4527 365.158 56.4419 366.41 56.4419C367.661 56.4419 368.692 57.4527 368.692 58.6801Z" fill="white"/>
<path d="M377.453 58.7521C377.453 59.9795 376.422 60.9903 375.171 60.9903C373.919 60.9903 372.888 59.9795 372.888 58.7521C372.888 57.5247 373.919 56.5139 375.171 56.5139C376.422 56.4417 377.453 57.4525 377.453 58.7521Z" fill="white"/>
<path d="M386.213 58.7521C386.213 59.9795 385.183 60.9903 383.931 60.9903C382.68 60.9903 381.649 59.9795 381.649 58.7521C381.649 57.5247 382.68 56.5139 383.931 56.5139C385.183 56.4417 386.213 57.4525 386.213 58.7521Z" fill="white"/>
<path d="M48.3796 18.8979H43.2263V32.6881H48.3796V18.8979Z" fill="#D8DBD7"/>
<path d="M57.6555 11.1006H52.5022V32.5439H57.6555V11.1006Z" fill="#D8DBD7"/>
<path d="M66.9313 5.54102H61.7781V32.5437H66.9313V5.54102Z" fill="#D8DBD7"/>
<path d="M43.2263 37.02H66.8578" stroke="#D8DBD7" stroke-width="3" stroke-miterlimit="10" stroke-linecap="round" stroke-linejoin="round"/>
<path d="M166.389 51.0996V54.3486" stroke="#D8DBD7" stroke-width="3" stroke-miterlimit="10" stroke-linecap="round"/>
<path d="M166.389 60.7021V82.9397" stroke="#D8DBD7" stroke-width="3" stroke-miterlimit="10" stroke-linecap="round" stroke-dasharray="8.8 8.8"/>
<path d="M166.389 86.1167V89.3657" stroke="#D8DBD7" stroke-width="3" stroke-miterlimit="10" stroke-linecap="round"/>
<path d="M313.11 86.4771V73.2646C313.11 68.4994 317.086 64.6006 321.945 64.6006H349.404" stroke="#D8DBD7" stroke-width="3" stroke-miterlimit="10" stroke-linecap="round" stroke-dasharray="9 9"/>
<path d="M261.504 59.4745C261.504 66.6223 255.615 72.3983 248.327 72.3983C241.038 72.3983 235.149 66.6223 235.149 59.4745C235.149 52.3268 241.038 46.5508 248.327 46.5508C255.615 46.623 261.504 52.399 261.504 59.4745Z" stroke="#D8DBD7" stroke-width="3" stroke-miterlimit="10"/>
<path d="M253.259 59.4746C253.259 62.0738 251.05 64.2398 248.4 64.2398C245.75 64.2398 243.541 62.0738 243.541 59.4746C243.541 56.8755 245.75 54.7095 248.4 54.7095C251.05 54.7095 253.259 56.8755 253.259 59.4746Z" stroke="#D8DBD7" stroke-width="3" stroke-miterlimit="10"/>
<path d="M248.4 48.5723V43.8071V48.5723Z" stroke="#D8DBD7" stroke-width="3" stroke-miterlimit="10"/>
<path d="M248.4 70.4487V75.2139V70.4487Z" stroke="#D8DBD7" stroke-width="3" stroke-miterlimit="10"/>
<path d="M259.516 59.4746H264.375H259.516Z" stroke="#D8DBD7" stroke-width="3" stroke-miterlimit="10"/>
<path d="M237.21 59.4746H232.351H237.21Z" stroke="#D8DBD7" stroke-width="3" stroke-miterlimit="10"/>
<path d="M188.622 41.4968C188.622 43.0852 187.297 44.457 185.604 44.457H147.101C145.482 44.457 144.083 43.1574 144.083 41.4968V20.1257C144.083 18.5373 145.408 17.1655 147.101 17.1655H185.604C187.223 17.1655 188.622 18.4651 188.622 20.1257V41.4968Z" fill="#D8DBD7"/>
<path d="M188.622 22.9414H144.083V26.6958H188.622V22.9414Z" fill="white"/>
<path d="M179.862 33.3385C179.862 34.2049 179.199 34.8547 178.316 34.8547H154.316C153.433 34.8547 152.77 34.2049 152.77 33.3385C152.77 32.4721 153.433 31.8223 154.316 31.8223H178.316C179.199 31.8223 179.862 32.4721 179.862 33.3385Z" fill="white"/>
<path d="M179.714 37.4538C179.714 37.9592 179.346 38.3202 178.831 38.3202H154.095C153.58 38.3202 153.212 37.9592 153.212 37.4538C153.212 36.9484 153.58 36.5874 154.095 36.5874H178.831C179.273 36.5874 179.714 36.9484 179.714 37.4538Z" fill="white"/>
<g clip-path="url(#clip0_684_25)">
<path fill-rule="evenodd" clip-rule="evenodd" d="M270.606 162.778C270.606 162.001 269.964 161.37 269.172 161.37H269.157C268.367 161.37 267.732 162.001 267.732 162.778C267.732 163.555 268.38 164.186 269.172 164.186C269.964 164.186 270.606 163.555 270.606 162.778ZM237.625 164.186C236.833 164.186 236.198 164.817 236.198 165.595C236.198 166.372 236.846 167.003 237.639 167.003C238.43 167.003 239.072 166.372 239.072 165.595C239.072 164.817 238.43 164.186 237.639 164.186H237.625ZM244.806 157.145C244.806 156.367 244.164 155.736 243.372 155.736H243.357C242.567 155.736 241.932 156.367 241.932 157.145C241.932 157.922 242.58 158.553 243.372 158.553C244.164 158.553 244.806 157.922 244.806 157.145ZM270.563 133.204C270.563 134.757 271.848 136.02 273.429 136.02C275.009 136.02 276.296 134.757 276.296 133.204C276.296 131.65 275.009 130.387 273.429 130.387C271.848 130.387 270.563 131.65 270.563 133.204ZM213.229 136.02C213.229 137.574 214.515 138.837 216.096 138.837C217.677 138.837 218.963 137.574 218.963 136.02C218.963 134.467 217.677 133.204 216.096 133.204C214.515 133.204 213.229 134.467 213.229 136.02ZM210.363 112.079C210.363 112.855 211.005 113.488 211.796 113.488C212.586 113.488 213.229 112.855 213.229 112.079C213.229 111.303 212.586 110.671 211.796 110.671C211.005 110.671 210.363 111.303 210.363 112.079ZM207.496 112.079C207.496 109.75 209.424 107.854 211.796 107.854C214.167 107.854 216.096 109.75 216.096 112.079C216.096 114.409 214.167 116.304 211.796 116.304C209.424 116.304 207.496 114.409 207.496 112.079ZM241.896 107.854C241.896 109.408 243.182 110.671 244.763 110.671C246.342 110.671 247.629 109.408 247.629 107.854C247.629 106.301 246.342 105.038 244.763 105.038C243.182 105.038 241.896 106.301 241.896 107.854ZM239.029 107.854C239.029 104.748 241.601 102.221 244.763 102.221C247.925 102.221 250.496 104.748 250.496 107.854C250.496 110.961 247.925 113.488 244.763 113.488C241.601 113.488 239.029 110.961 239.029 107.854ZM217.529 172.636C216.737 172.636 216.096 173.267 216.096 174.044C216.096 175.598 214.81 176.861 213.229 176.861C212.437 176.861 211.796 177.492 211.796 178.269C211.796 179.047 212.437 179.678 213.229 179.678C216.39 179.678 218.963 177.151 218.963 174.044C218.963 173.267 218.321 172.636 217.529 172.636ZM270.563 179.678C273.725 179.678 276.296 177.151 276.296 174.044C276.296 173.267 275.654 172.636 274.863 172.636C274.07 172.636 273.429 173.267 273.429 174.044C273.429 175.598 272.142 176.861 270.563 176.861C269.77 176.861 269.129 177.492 269.129 178.269C269.129 179.047 269.77 179.678 270.563 179.678ZM240.463 178.269C240.463 179.047 241.103 179.678 241.896 179.678C245.058 179.678 247.629 177.151 247.629 174.044C247.629 173.267 246.987 172.636 246.196 172.636C245.403 172.636 244.763 173.267 244.763 174.044C244.763 175.598 243.476 176.861 241.896 176.861C241.103 176.861 240.463 177.492 240.463 178.269ZM284.896 123.346C284.896 124.123 284.254 124.754 283.463 124.754H261.963V152.92H274.863C275.654 152.92 276.296 153.551 276.296 154.328C276.296 155.106 275.654 155.736 274.863 155.736H261.963V175.453C261.963 180.113 265.82 183.902 270.563 183.902C275.304 183.902 279.163 180.113 279.163 175.453V128.979C279.163 128.201 279.803 127.571 280.596 127.571C281.387 127.571 282.029 128.201 282.029 128.979V175.453C282.029 181.665 276.885 186.719 270.563 186.719C264.24 186.719 259.096 181.665 259.096 175.453V124.754H233.296V141.654H246.196C246.987 141.654 247.629 142.284 247.629 143.062C247.629 143.839 246.987 144.47 246.196 144.47H233.296V175.453C233.296 180.113 237.153 183.902 241.896 183.902C246.637 183.902 250.496 180.113 250.496 175.453V128.979C250.496 128.201 251.137 127.571 251.929 127.571C252.721 127.571 253.363 128.201 253.363 128.979V175.453C253.363 181.665 248.218 186.719 241.896 186.719C235.574 186.719 230.429 181.665 230.429 175.453V124.754H204.629V147.287H217.529C218.321 147.287 218.963 147.918 218.963 148.695C218.963 149.472 218.321 150.103 217.529 150.103H204.629V175.453C204.629 180.113 208.486 183.902 213.229 183.902C217.971 183.902 221.829 180.113 221.829 175.453V128.979C221.829 128.201 222.47 127.571 223.263 127.571C224.054 127.571 224.696 128.201 224.696 128.979V175.453C224.696 181.665 219.552 186.719 213.229 186.719C206.907 186.719 201.763 181.665 201.763 175.453V124.754H200.329C199.537 124.754 198.896 124.123 198.896 123.346C198.896 122.568 199.537 121.937 200.329 121.937H201.763V114.896C201.763 114.118 202.403 113.488 203.196 113.488C203.987 113.488 204.629 114.118 204.629 114.896V121.937H221.829V114.896C221.829 114.118 222.47 113.488 223.263 113.488C224.054 113.488 224.696 114.118 224.696 114.896V121.937H230.429V114.896C230.429 114.118 231.07 113.488 231.863 113.488C232.654 113.488 233.296 114.118 233.296 114.896V121.937H250.496V114.896C250.496 114.118 251.137 113.488 251.929 113.488C252.721 113.488 253.363 114.118 253.363 114.896V121.937H259.096V114.896C259.096 114.118 259.737 113.488 260.529 113.488C261.321 113.488 261.963 114.118 261.963 114.896V121.937H279.163V114.896C279.163 114.118 279.803 113.488 280.596 113.488C281.387 113.488 282.029 114.118 282.029 114.896V121.937H283.463C284.254 121.937 284.896 122.568 284.896 123.346Z" fill="#494B4C"/>
</g>
<g clip-path="url(#clip1_684_25)">
<path d="M60.0061 88.5424C61.1546 88.5436 62.2326 88.9897 63.0444 89.8015C63.8563 90.6134 64.3023 91.6914 64.3047 92.8435L64.3023 96.2732C64.3035 97.4217 63.8575 98.5021 63.0444 99.3152C62.472 99.8876 61.7671 100.279 60.9978 100.46L70.8882 123.571C71.5068 125.159 71.3027 126.946 70.345 128.348C69.3824 129.761 67.7879 130.602 66.0658 130.6L35.3177 130.43C33.9857 130.43 32.7229 129.924 31.7665 129.011C31.7434 128.99 31.6923 128.939 31.6704 128.917C31.4249 128.672 31.2013 128.397 31.0044 128.101C30.0468 126.642 29.8924 124.818 30.5803 123.233L40.3443 100.484C39.5337 100.318 38.7863 99.9156 38.1883 99.3176C37.374 98.5034 36.9292 97.4241 36.9304 96.2781L36.9317 92.8569C36.928 91.7011 37.3752 90.6194 38.1895 89.8052C39.0038 88.9909 40.0879 88.5436 41.2279 88.5461L60.0061 88.5424ZM33.7402 124.587C33.5105 125.118 33.5615 125.731 33.8799 126.214C33.9529 126.326 34.0391 126.427 34.1327 126.518C34.4487 126.82 34.8704 126.993 35.3165 126.992L66.084 127.162C66.6516 127.163 67.1827 126.883 67.5035 126.411C67.8232 125.943 67.8912 125.345 67.6834 124.817L63.1538 114.235C56.3698 110.837 52.9085 104.113 42.3812 104.454L33.7402 124.587ZM40.3686 92.8423L40.3698 96.2781C40.3686 96.7533 40.7539 97.1385 41.2291 97.1373L45.5253 97.1385L42.9038 103.241L43.1275 102.728C50.4377 102.734 54.6161 105.991 58.3824 108.933C59.5929 109.879 60.7766 110.786 62.0248 111.591L55.8387 97.1385L60.0073 97.1385C60.4813 97.1385 60.8665 96.7533 60.8665 96.2793L60.8678 92.8411C60.8678 92.3671 60.4825 91.9818 60.0085 91.9818L41.2291 91.9843C40.7515 91.9806 40.3662 92.3659 40.3686 92.8423Z" fill="#494B4C"/>
<path d="M44.1022 114.612C42.4275 112.937 42.4263 110.211 44.1022 108.535C45.7782 106.859 48.503 106.859 50.1789 108.535C51.8549 110.211 51.8549 112.936 50.1789 114.612C48.503 116.288 45.777 116.286 44.1022 114.612ZM48.9636 109.75C47.9573 108.744 46.3239 108.744 45.3176 109.75C44.3113 110.757 44.3113 112.39 45.3176 113.396C46.3251 114.404 47.9573 114.403 48.9636 113.396C49.9699 112.39 49.9711 110.758 48.9636 109.75Z" fill="#494B4C"/>
<path d="M53.8249 73.2898C55.5009 74.9657 55.5009 77.6905 53.8249 79.3665C52.149 81.0424 49.4242 81.0424 47.7482 79.3665C46.0723 77.6905 46.0723 74.9657 47.7482 73.2898C49.4242 71.6138 52.149 71.6138 53.8249 73.2898ZM48.9636 78.1511C49.9699 79.1574 51.6033 79.1574 52.6096 78.1511C53.6159 77.1448 53.6159 75.5114 52.6096 74.5051C51.6033 73.4988 49.9699 73.4988 48.9636 74.5051C47.9573 75.5114 47.9573 77.1448 48.9636 78.1511Z" fill="#494B4C"/>
<path d="M59.2939 120.081C57.9534 121.421 55.7731 121.421 54.4326 120.081C53.0921 118.74 53.0921 116.56 54.4326 115.219C55.7731 113.879 57.9534 113.879 59.2939 115.219C60.6344 116.56 60.6344 118.74 59.2939 120.081ZM58.0786 116.435C57.4077 115.764 56.32 115.762 55.6479 116.435C54.9758 117.107 54.977 118.194 55.6479 118.865C56.3188 119.536 57.4065 119.537 58.0786 118.865C58.7507 118.193 58.7495 117.105 58.0786 116.435Z" fill="#494B4C"/>
<path d="M44.7099 122.511C44.0387 121.84 44.0387 120.752 44.7099 120.081C45.3812 119.409 46.4694 119.409 47.1406 120.081C47.8118 120.752 47.8118 121.84 47.1406 122.511C46.4694 123.182 45.3812 123.182 44.7099 122.511Z" fill="#494B4C"/>
<path d="M43.4946 84.8359C42.8234 84.1647 42.8234 83.0765 43.4946 82.4053C44.1658 81.7341 45.2541 81.7341 45.9253 82.4053C46.5965 83.0765 46.5965 84.1647 45.9253 84.8359C45.2541 85.5072 44.1658 85.5072 43.4946 84.8359Z" fill="#494B4C"/>
</g>
<defs>
<clipPath id="clip0_684_25">
<rect width="86" height="84.4978" fill="white" transform="translate(198.896 102.221)"/>
</clipPath>
<clipPath id="clip1_684_25">
<rect width="55" height="55" fill="white" transform="matrix(-0.707107 -0.707107 -0.707107 0.707107 89.6775 109.143)"/>
</clipPath>
</defs>
</svg>
