<svg width="50" height="50" viewBox="0 0 50 50" fill="none" xmlns="http://www.w3.org/2000/svg">
<path d="M40.3483 34.7802C40.824 37.0963 42.8902 41.5019 42.9777 41.6884L44.1089 41.1566C44.0882 41.1122 42.0187 36.7003 41.5726 34.5316C41.3901 33.6415 40.8128 32.8826 40.004 32.4691C39.1457 32.0006 38.3184 31.4771 37.5277 30.9021V25.8396C37.5277 25.3424 37.3301 24.8652 36.9786 24.5137C36.627 24.1622 36.1499 23.9646 35.6527 23.9646H14.4027C13.9055 23.9646 13.4284 24.1621 13.0769 24.5137C12.7254 24.8653 12.5277 25.3424 12.5277 25.8396V30.9021C11.7367 31.4757 10.9097 31.9975 10.0515 32.4646C9.2426 32.8781 8.66532 33.637 8.48282 34.5271C8.03723 36.6989 5.96525 41.1121 5.94653 41.1565L7.07768 41.6883C7.16529 41.5008 9.23139 37.0965 9.7071 34.7801C9.8148 34.2611 10.1524 33.8189 10.6245 33.5775C11.2799 33.2296 11.9155 32.8451 12.5277 32.4257V37.0895C12.5277 37.3228 12.6575 37.5365 12.8642 37.6439C13.071 37.7516 13.3207 37.7352 13.5116 37.6015C14.6781 36.8222 15.8885 36.1104 17.1366 35.4695C17.3327 35.3657 17.5651 35.3546 17.7702 35.4394C18.0487 35.5549 18.2317 35.8247 18.2359 36.126C18.2404 36.4274 18.0651 36.7025 17.7903 36.8258C16.5459 37.4034 14.9298 38.3958 14.2978 39.8465C13.7289 41.114 12.9499 42.2762 11.9934 43.284L12.8684 44.1746C13.9407 43.0566 14.8106 41.7611 15.4401 40.3457C15.4593 40.3008 15.49 40.2589 15.5132 40.2145H34.5425C34.5656 40.2589 34.5963 40.3008 34.6156 40.3457C35.245 41.7617 36.1159 43.0575 37.1886 44.1757L38.0636 43.2851C37.1071 42.2776 36.3279 41.1152 35.7592 39.8476C35.1272 38.397 33.5092 37.4045 32.2667 36.827C31.9199 36.6679 31.7441 36.2767 31.856 35.912C31.9224 35.7 32.0792 35.5284 32.2843 35.4433C32.4894 35.3579 32.7215 35.3679 32.9185 35.4706C34.1651 36.1118 35.3741 36.8236 36.5399 37.6026C36.731 37.7391 36.9824 37.7569 37.1908 37.6487C37.3992 37.5404 37.5295 37.3244 37.5279 37.0895V32.4257C38.14 32.8451 38.7756 33.2296 39.4311 33.5775C39.9032 33.8189 40.2408 34.2611 40.3485 34.7801L40.3483 34.7802ZM36.2777 35.9328C35.3402 35.3516 34.3045 34.7847 33.5052 34.3633C32.9789 34.0862 32.3565 34.0578 31.8071 34.2857C31.2577 34.5137 30.8384 34.9743 30.6628 35.5427C30.5202 36.0081 30.5509 36.5095 30.7496 36.954C30.9482 37.3985 31.3009 37.7559 31.7429 37.9602C32.3391 38.2339 32.9044 38.5704 33.4289 38.9646H16.6268C17.1516 38.5703 17.7175 38.2336 18.3143 37.9602C18.79 37.7423 19.1617 37.3466 19.3497 36.8583C19.5381 36.37 19.528 35.8273 19.3216 35.3463C19.1154 34.8656 18.7292 34.4842 18.2457 34.2841C17.6974 34.057 17.0769 34.086 16.5523 34.3633C15.7524 34.7847 14.7161 35.3513 13.7792 35.9328V25.84C13.7792 25.4948 14.0591 25.215 14.4042 25.215H35.6528C35.8185 25.215 35.9775 25.2808 36.0947 25.398C36.2119 25.5152 36.2778 25.6742 36.2778 25.84L36.2777 35.9328Z" fill="white" stroke="white" stroke-width="0.4"/>
<path d="M17.5276 30.2144C16.5055 30.2121 15.5075 30.5255 14.6702 31.1112L15.3845 32.1363C16.3552 31.4588 17.5887 31.2797 18.712 31.6525C19.8354 32.0255 20.7165 32.9067 21.0895 34.03C21.4623 35.1533 21.2832 36.3868 20.6057 37.3576L21.6309 38.0718C22.3304 37.0674 22.637 35.8411 22.493 34.6254C22.3487 33.41 21.7636 32.2895 20.8485 31.4764C19.9334 30.6633 18.7517 30.2144 17.5276 30.2144Z" fill="white"/>
<path d="M27.5276 34.5894C27.0303 34.5894 26.5532 34.7869 26.2017 35.1385C25.8502 35.49 25.6526 35.9672 25.6526 36.4643C25.6526 36.9615 25.8501 37.4387 26.2017 37.7902C26.5533 38.1417 27.0304 38.3393 27.5276 38.3393C28.0247 38.3393 28.5019 38.1417 28.8534 37.7902C29.2049 37.4386 29.4025 36.9615 29.4025 36.4643C29.4025 35.9672 29.205 35.49 28.8534 35.1385C28.5018 34.787 28.0247 34.5894 27.5276 34.5894ZM27.5276 37.0894C27.2748 37.0894 27.0468 36.937 26.9503 36.7035C26.8534 36.4699 26.9067 36.2012 27.0856 36.0224C27.2644 35.8435 27.5331 35.7902 27.7667 35.8871C28.0002 35.9836 28.1526 36.2116 28.1526 36.4644C28.1526 36.6301 28.0867 36.7891 27.9695 36.9063C27.8523 37.0235 27.6933 37.0894 27.5276 37.0894Z" fill="white"/>
<path d="M29.4026 30.2144C28.9053 30.2144 28.4282 30.4119 28.0767 30.7635C27.7252 31.115 27.5276 31.5922 27.5276 32.0893C27.5276 32.5865 27.7251 33.0637 28.0767 33.4152C28.4283 33.7667 28.9054 33.9643 29.4026 33.9643C29.8997 33.9643 30.3769 33.7667 30.7284 33.4152C31.0799 33.0636 31.2775 32.5865 31.2775 32.0893C31.2775 31.5922 31.08 31.115 30.7284 30.7635C30.3768 30.412 29.8997 30.2144 29.4026 30.2144ZM29.4026 32.7144C29.1498 32.7144 28.9218 32.562 28.8253 32.3285C28.7284 32.0949 28.7817 31.8262 28.9606 31.6474C29.1394 31.4685 29.4081 31.4152 29.6417 31.5121C29.8752 31.6086 30.0276 31.8366 30.0276 32.0894C30.0276 32.2551 29.9617 32.4141 29.8445 32.5313C29.7273 32.6485 29.5683 32.7144 29.4026 32.7144Z" fill="white"/>
<path d="M33.7776 28.9644C33.2803 28.9644 32.8032 29.1619 32.4517 29.5135C32.1002 29.865 31.9026 30.3422 31.9026 30.8393C31.9026 31.3365 32.1001 31.8137 32.4517 32.1652C32.8033 32.5167 33.2804 32.7143 33.7776 32.7143C34.2747 32.7143 34.7519 32.5167 35.1034 32.1652C35.4549 31.8136 35.6525 31.3365 35.6525 30.8393C35.6525 30.3422 35.455 29.865 35.1034 29.5135C34.7518 29.162 34.2747 28.9644 33.7776 28.9644ZM33.7776 31.4644C33.5248 31.4644 33.2968 31.312 33.2003 31.0785C33.1034 30.8449 33.1567 30.5762 33.3356 30.3974C33.5144 30.2185 33.7831 30.1652 34.0167 30.2621C34.2502 30.3586 34.4026 30.5866 34.4026 30.8394C34.4026 31.0051 34.3367 31.1641 34.2195 31.2813C34.1023 31.3985 33.9433 31.4644 33.7776 31.4644Z" fill="white"/>
<path d="M25.0275 5.83936C22.4856 5.83936 20.1168 7.12671 18.734 9.25957C17.3515 11.3926 17.1431 14.0807 18.1807 16.401C19.2183 18.7216 21.3609 20.3586 23.8724 20.7498C26.3841 21.1412 28.9229 20.2339 30.6177 18.3394L29.6863 17.5062C28.3775 18.9696 26.457 19.7334 24.5005 19.5676C22.544 19.4021 20.7789 18.3265 19.7348 16.6639C18.6905 15.0012 18.4882 12.9446 19.1888 11.1103C19.8891 9.276 21.4109 7.87757 23.2976 7.33407C25.1843 6.79057 27.2169 7.16526 28.7856 8.34607C30.3545 9.52657 31.2772 11.3759 31.2775 13.3394C31.2775 13.533 31.2588 13.7244 31.2412 13.9164L30.5275 12.9644L29.5275 13.7144L31.4025 16.2144C31.5205 16.3717 31.7058 16.4644 31.9025 16.4644C32.0992 16.4644 32.2845 16.3717 32.4025 16.2144L34.2775 13.7144L33.2775 12.9644L32.4851 14.0213C32.5052 13.795 32.5275 13.5682 32.5275 13.3394C32.5253 11.3508 31.7345 9.44458 30.3286 8.0383C28.9223 6.6323 27.0161 5.84157 25.0275 5.83936Z" fill="white" stroke="white" stroke-width="0.4"/>
<path d="M24.4026 13.578L22.2483 14.655L22.8072 15.7738L25.3072 14.5238L25.3069 14.5235C25.5189 14.4175 25.6526 14.201 25.6526 13.9641V8.96411H24.4026L24.4026 13.578Z" fill="white"/>
</svg>
