<svg width="40" height="40" viewBox="0 0 40 40" fill="none" xmlns="http://www.w3.org/2000/svg">
<path d="M17.523 30.1823C19.4744 30.1823 21.3174 29.7299 22.9735 28.9446L28.4637 34.4348C29.667 35.6388 31.6268 35.6395 32.8317 34.4339L34.5543 32.7055C35.7721 31.4955 35.7558 29.5348 34.5556 28.3433L29.0679 22.8493C29.8525 21.1939 30.3046 19.3515 30.3046 17.4013C30.3046 10.3538 24.5708 4.62012 17.5234 4.62012C10.4754 4.62034 4.7417 10.3538 4.7417 17.4013C4.7417 24.4487 10.4754 30.1824 17.5228 30.1824L17.523 30.1823ZM33.6516 29.2495C34.3528 29.946 34.3639 31.0888 33.6498 31.7998L31.9262 33.5296C31.2411 34.214 30.0536 34.214 29.3686 33.5296L24.1487 28.3098C25.8974 27.2435 27.3672 25.7734 28.4333 24.0245L33.6516 29.2495ZM17.523 5.90038C23.8648 5.90038 29.0242 11.0598 29.0242 17.4015C29.0242 23.7432 23.8648 28.9027 17.523 28.9027C11.1813 28.9029 6.0219 23.7435 6.0219 17.4015C6.0219 11.0598 11.1813 5.90038 17.523 5.90038Z" fill="white" stroke="white" stroke-width="0.5"/>
<path d="M17.514 17.6668C19.4459 17.6668 21.0178 15.6999 21.0178 13.2824C21.0178 11.0264 19.6428 9.5686 17.514 9.5686C15.3852 9.5686 14.0095 11.0264 14.0095 13.2824C14.0097 15.6999 15.5816 17.6668 17.514 17.6668ZM17.514 10.8485C18.9064 10.8485 19.7376 11.7581 19.7376 13.2823C19.7376 14.9941 18.7401 16.3867 17.514 16.3867C16.2876 16.3867 15.2896 14.9943 15.2896 13.2823C15.2896 11.7584 16.1209 10.8485 17.514 10.8485Z" fill="white" stroke="white" stroke-width="0.5"/>
<path d="M11.207 25.2348H23.8401C24.5482 25.2348 25.1245 24.6584 25.1245 23.9502V22.0109C25.1245 21.169 24.6252 20.4094 23.8807 20.0892C19.7294 18.0457 15.4139 18.0555 11.1944 20.0758C10.4212 20.4093 9.92188 21.1689 9.92188 22.0109V23.9502C9.9221 24.6586 10.4982 25.2348 11.2069 25.2348L11.207 25.2348ZM11.202 22.0107C11.202 21.6801 11.3983 21.3819 11.7246 21.2404C13.6822 20.3038 15.6478 19.8288 17.5663 19.8288C19.4819 19.8288 21.417 20.3024 23.3446 21.2507C23.6484 21.3819 23.8446 21.6801 23.8446 22.0107L23.8415 23.9547H23.8401L11.2018 23.95L11.202 22.0107Z" fill="white" stroke="white" stroke-width="0.5"/>
</svg>
