<svg width="40" height="40" viewBox="0 0 40 40" fill="none" xmlns="http://www.w3.org/2000/svg">
<path d="M17.3959 14.8686C17.5192 14.8686 17.6397 14.832 17.7422 14.7635C17.8447 14.695 17.9246 14.5976 17.9718 14.4837C18.019 14.3698 18.0313 14.2445 18.0072 14.1236C17.9832 14.0026 17.9238 13.8916 17.8366 13.8044C17.7494 13.7172 17.6383 13.6578 17.5174 13.6338C17.3965 13.6098 17.2712 13.6221 17.1573 13.6693C17.0434 13.7165 16.946 13.7964 16.8775 13.8989C16.809 14.0014 16.7725 14.1219 16.7725 14.2452C16.7727 14.4105 16.8384 14.569 16.9553 14.6858C17.0722 14.8027 17.2306 14.8684 17.3959 14.8686Z" fill="white" stroke="white" stroke-width="1.3"/>
<path d="M23.6007 13.6218C23.4774 13.6218 23.3569 13.6584 23.2544 13.7269C23.1519 13.7954 23.0719 13.8927 23.0248 14.0066C22.9776 14.1205 22.9652 14.2459 22.9893 14.3668C23.0133 14.4877 23.0727 14.5988 23.1599 14.686C23.247 14.7732 23.3581 14.8325 23.479 14.8566C23.5999 14.8807 23.7253 14.8683 23.8392 14.8212C23.9531 14.774 24.0505 14.6941 24.119 14.5916C24.1875 14.4891 24.2241 14.3686 24.2241 14.2453C24.2239 14.08 24.1582 13.9215 24.0413 13.8047C23.9244 13.6878 23.766 13.622 23.6007 13.6218Z" fill="white" stroke="white" stroke-width="1.3"/>
<path d="M20.5236 20.7661C20.5415 20.7661 20.5594 20.7659 20.5773 20.7655C20.8897 20.7578 21.1968 20.6839 21.4785 20.5488C21.7602 20.4136 22.01 20.2202 22.2114 19.9813C22.2382 19.95 22.2586 19.9136 22.2713 19.8744C22.284 19.8352 22.2888 19.7938 22.2855 19.7527C22.2821 19.7116 22.2707 19.6716 22.2518 19.6349C22.2329 19.5982 22.2069 19.5657 22.1754 19.5391C22.1439 19.5125 22.1074 19.4925 22.0681 19.4801C22.0287 19.4676 21.9873 19.4631 21.9463 19.4668C21.9052 19.4705 21.8652 19.4822 21.8287 19.5014C21.7922 19.5206 21.7599 19.5468 21.7335 19.5785C21.5892 19.7498 21.4101 19.8885 21.2081 19.9854C21.0062 20.0823 20.786 20.1352 20.562 20.1407C20.3381 20.1461 20.1156 20.104 19.9092 20.017C19.7027 19.93 19.5171 19.8002 19.3646 19.6361C19.3082 19.5754 19.23 19.5396 19.1471 19.5366C19.0643 19.5336 18.9837 19.5636 18.923 19.62C18.8623 19.6765 18.8265 19.7547 18.8234 19.8375C18.8204 19.9204 18.8504 20.001 18.9069 20.0617C19.1135 20.2839 19.3637 20.4611 19.6419 20.5823C19.92 20.7035 20.2202 20.7661 20.5236 20.7661Z" fill="white" stroke="white" stroke-width="1.3"/>
<path d="M25.6838 21.7493C26.2571 21.1852 26.7135 20.5136 27.0267 19.7728C27.3399 19.032 27.5037 18.2367 27.5089 17.4324C27.9624 17.433 28.4013 17.2723 28.7472 16.979C29.0932 16.6858 29.3235 16.2791 29.3972 15.8316L29.6922 14.0677C29.7439 13.7594 29.7194 13.4431 29.6207 13.1465C29.522 12.8498 29.3522 12.5819 29.126 12.366C29.1538 12.2543 29.1678 12.1396 29.1678 12.0244V11.0421C29.1671 10.5105 28.9612 9.99968 28.593 9.61622C28.2248 9.23276 27.7227 9.00631 27.1915 8.98411C26.7974 7.84738 26.0593 6.86149 25.0795 6.16324C24.0998 5.46499 22.927 5.08898 21.7239 5.0874H19.2726C18.0695 5.08899 16.8967 5.46499 15.9169 6.16324C14.9372 6.86149 14.199 7.84738 13.8049 8.98411C13.2738 9.00631 12.7717 9.23276 12.4035 9.61622C12.0352 9.99968 11.8293 10.5105 11.8287 11.0421V12.0244C11.8287 12.1396 11.8427 12.2543 11.8704 12.366C11.6443 12.5819 11.4745 12.8498 11.3758 13.1465C11.2771 13.4431 11.2526 13.7594 11.3043 14.0677L11.5993 15.8316C11.6729 16.2791 11.9033 16.6858 12.2492 16.979C12.5952 17.2723 13.0341 17.433 13.4876 17.4324C13.4927 18.2366 13.6566 19.032 13.9698 19.7727C14.283 20.5135 14.7393 21.1852 15.3127 21.7492C10.2428 23.8055 6.65747 28.7816 6.65747 34.5805C6.65747 34.6634 6.69039 34.7429 6.749 34.8015C6.8076 34.8601 6.88709 34.893 6.96997 34.893H34.0265C34.1094 34.893 34.1889 34.8601 34.2475 34.8015C34.3061 34.7429 34.339 34.6634 34.339 34.5805C34.339 28.7817 30.7536 23.8056 25.6838 21.7493ZM22.0644 15.145V12.9822H26.885V15.145C26.8844 15.6717 26.6749 16.1766 26.3024 16.5491C25.93 16.9215 25.425 17.131 24.8983 17.1316H24.0511C23.5244 17.131 23.0194 16.9215 22.647 16.5491C22.2745 16.1766 22.065 15.6717 22.0644 15.145ZM29.0757 13.9646L28.7808 15.7285C28.7312 16.0298 28.5762 16.3036 28.3434 16.5012C28.1107 16.6988 27.8153 16.8073 27.51 16.8073V12.4594H27.8013C27.989 12.4594 28.1745 12.5003 28.3448 12.5793C28.5151 12.6582 28.6661 12.7734 28.7874 12.9166C28.9087 13.0599 28.9973 13.2278 29.0471 13.4088C29.0969 13.5898 29.1067 13.7795 29.0757 13.9646ZM28.5428 11.0421V11.9839C28.308 11.8853 28.0559 11.8345 27.8013 11.8345H27.51V10.8735C27.5097 10.4563 27.4644 10.0403 27.3746 9.63289C27.7028 9.69536 27.9989 9.87023 28.2121 10.1274C28.4253 10.3846 28.5423 10.7081 28.5428 11.0421ZM19.2726 5.71239H21.7239C23.0922 5.71393 24.404 6.25819 25.3716 7.22575C26.3392 8.19331 26.8834 9.50515 26.885 10.8735V12.3572H21.7519C21.6691 12.3572 21.5896 12.3901 21.531 12.4487C21.4724 12.5073 21.4394 12.5868 21.4394 12.6697V14.188H19.557V12.6697C19.557 12.5868 19.5241 12.5073 19.4655 12.4487C19.4069 12.3901 19.3274 12.3572 19.2445 12.3572H14.1115V10.8735C14.113 9.50515 14.6573 8.19331 15.6248 7.22575C16.5924 6.25819 17.9042 5.71393 19.2726 5.71239ZM21.3743 14.813V16.5681C21.3743 16.8004 21.282 17.0232 21.1177 17.1875C20.9534 17.3518 20.7305 17.4441 20.4982 17.4441C20.2659 17.4441 20.043 17.3518 19.8787 17.1875C19.7144 17.0232 19.6221 16.8004 19.6221 16.5681V14.813H21.3743ZM14.1115 12.9822H18.932V15.145C18.9314 15.6717 18.7219 16.1766 18.3494 16.5491C17.977 16.9215 17.4721 17.131 16.9454 17.1316H16.0981C15.5714 17.131 15.0665 16.9215 14.694 16.5491C14.3216 16.1766 14.1121 15.6717 14.1115 15.145L14.1115 12.9822ZM13.6218 9.63282C13.5321 10.0403 13.4867 10.4562 13.4865 10.8734V11.8344H13.1951C12.9405 11.8344 12.6884 11.8853 12.4536 11.9839V11.0421C12.4541 10.7081 12.5711 10.3846 12.7843 10.1274C12.9975 9.87017 13.2936 9.69529 13.6218 9.63282ZM12.2157 15.7285L11.9207 13.9646C11.8898 13.7795 11.8995 13.5898 11.9493 13.4088C11.9991 13.2278 12.0877 13.0599 12.209 12.9166C12.3303 12.7733 12.4814 12.6582 12.6517 12.5793C12.822 12.5003 13.0074 12.4594 13.1951 12.4594H13.4865V16.8073C13.1811 16.8073 12.8858 16.6988 12.653 16.5012C12.4203 16.3036 12.2653 16.0298 12.2157 15.7285ZM14.1115 17.3895V16.8375C14.3561 17.1256 14.6606 17.357 15.0036 17.5157C15.3467 17.6744 15.7201 17.7566 16.0981 17.7566H16.9454C17.2254 17.7566 17.5036 17.7114 17.7693 17.6227C17.2785 18.2941 16.8636 19.1424 16.8636 20.0932H17.4886C17.4886 18.797 18.432 17.6899 19.0879 17.077C19.1913 17.365 19.3804 17.6145 19.6299 17.7918C19.8793 17.9692 20.177 18.0659 20.4831 18.069C20.7891 18.0722 21.0888 17.9815 21.3417 17.8092C21.5947 17.637 21.7889 17.3914 21.8981 17.1055C22.5523 17.7237 23.4673 18.8163 23.4673 20.0932H24.0923C24.0923 19.1337 23.6696 18.2786 23.173 17.6043C23.4547 17.7053 23.7518 17.7568 24.0511 17.7566H24.8983C25.2763 17.7567 25.6498 17.6745 25.9928 17.5157C26.3359 17.357 26.6403 17.1256 26.885 16.8375V17.3895C26.8833 18.8489 26.3028 20.2481 25.2708 21.2801C24.2388 22.3121 22.8396 22.8926 21.3802 22.8943H19.6163C18.1568 22.8926 16.7576 22.3121 15.7256 21.2801C14.6936 20.2481 14.1131 18.8489 14.1115 17.3895ZM21.1985 28.4663C20.992 28.6067 20.748 28.6818 20.4982 28.6818C20.2485 28.6818 20.0045 28.6067 19.7979 28.4663C19.1408 28.0232 18.6025 27.4253 18.2306 26.7254C17.8587 26.0254 17.6645 25.2448 17.665 24.4522V23.199C18.2937 23.4111 18.9527 23.5193 19.6163 23.5193H21.3801C22.0437 23.5193 22.7027 23.4111 23.3314 23.199V24.4521C23.332 25.2448 23.1377 26.0254 22.7658 26.7253C22.3939 27.4253 21.8557 28.0232 21.1985 28.4663ZM7.28601 34.2681C7.41469 28.7543 10.9377 24.0662 15.8412 22.2136C16.2112 22.504 16.6135 22.751 17.04 22.9496V24.4522C17.0394 25.3471 17.2587 26.2284 17.6786 27.0187C18.0985 27.8089 18.7062 28.4839 19.4482 28.9843C19.7579 29.1948 20.1237 29.3073 20.4982 29.3073C20.8727 29.3073 21.2386 29.1948 21.5483 28.9843C22.2902 28.4839 22.8979 27.8089 23.3178 27.0187C23.7377 26.2284 23.957 25.347 23.9564 24.4521V22.9496C24.3829 22.751 24.7851 22.504 25.1552 22.2135C30.0587 24.0662 33.5817 28.7543 33.7103 34.2681L7.28601 34.2681Z" fill="white" stroke="white" stroke-width="1.3"/>
</svg>
