<svg width="40" height="40" viewBox="0 0 40 40" fill="none" xmlns="http://www.w3.org/2000/svg">
<path d="M19.8899 20.0137C19.616 20.0137 19.4332 20.1962 19.4332 20.4704V24.7626L15.6888 26.9542C15.4605 27.0911 15.4149 27.3651 15.5063 27.5934C15.5978 27.7304 15.7347 27.8218 15.9172 27.8218C16.0086 27.8218 16.0542 27.8218 16.1456 27.7762L19.8899 25.5846L23.6342 27.7759C23.7256 27.8215 23.7712 27.8215 23.8626 27.8215C23.9995 27.8215 24.1824 27.73 24.2734 27.5931C24.4104 27.3647 24.319 27.0908 24.0909 26.9539L20.3466 24.7622V20.4704C20.3466 20.1962 20.1638 20.0137 19.8899 20.0137Z" fill="#494B4C" stroke="#494B4C" stroke-width="0.7"/>
<path d="M14.228 19.557H25.7344C26.0084 19.557 26.1912 19.3745 26.1912 19.1002V18.1412C26.1912 15.9038 24.7299 13.8491 22.4928 12.9359C23.0865 12.2967 23.4973 11.4291 23.4973 10.5159C23.4973 8.5982 21.899 7 19.9814 7C18.0636 7 16.4654 8.59828 16.4654 10.5159C16.4654 11.475 16.8308 12.3422 17.47 12.9359C15.2325 13.8491 13.7716 15.8582 13.7716 18.1412L13.7712 19.1006C13.7712 19.3745 13.9538 19.557 14.228 19.557ZM19.9812 7.91358C21.3965 7.91358 22.584 9.10067 22.584 10.5164C22.584 11.4295 22.0817 12.2516 21.3511 12.708C20.9402 12.9364 20.4834 13.1189 19.9812 13.1189C19.4789 13.1189 19.0221 12.9819 18.6113 12.708C17.8806 12.2513 17.3784 11.4295 17.3784 10.5164C17.3784 9.10067 18.5657 7.91358 19.9812 7.91358ZM14.6845 18.1415C14.6845 16.041 16.1458 14.2602 18.3374 13.621C18.8397 13.895 19.3875 14.0319 19.9812 14.0319C20.5748 14.0319 21.1227 13.895 21.6249 13.621C23.771 14.2603 25.2778 16.1325 25.2778 18.1415V18.6438H14.6846L14.6845 18.1415Z" fill="#494B4C" stroke="#494B4C" stroke-width="0.7"/>
<path d="M32.1724 26.3148C32.7661 25.6756 33.1314 24.808 33.1314 23.8948C33.1314 21.9771 31.5331 20.3789 29.6155 20.3789C27.6978 20.3789 26.0996 21.9772 26.0996 23.8948C26.0996 24.8539 26.4649 25.7211 27.1041 26.3603C24.9125 27.2735 23.4512 29.237 23.4512 31.52V32.4791C23.4512 32.753 23.6337 32.9358 23.9079 32.9358H35.4143C35.6882 32.9358 35.8711 32.7533 35.8711 32.4791V31.52C35.8707 29.2826 34.3639 27.2279 32.1723 26.3148L32.1724 26.3148ZM29.6155 21.292C31.0309 21.292 32.2183 22.4791 32.2183 23.8948C32.2183 25.3102 31.0312 26.4976 29.6155 26.4976C29.1588 26.4976 28.7479 26.4062 28.3826 26.1779C28.337 26.1323 28.2456 26.0865 28.1542 26.0409C27.4694 25.5842 26.9671 24.7624 26.9671 23.8493C27.0127 22.4791 28.2001 21.292 29.6155 21.292ZM34.9578 32.0222H24.3645V31.5199C24.3645 29.4653 25.8258 27.6386 27.9716 26.9995C28.4738 27.2734 29.0217 27.4104 29.6153 27.4104C30.209 27.4104 30.8024 27.2734 31.3047 26.9995C33.4507 27.6387 34.9576 29.5109 34.9576 31.5199L34.9578 32.0222Z" fill="#494B4C" stroke="#494B4C" stroke-width="0.7"/>
<path d="M12.7212 26.3148C13.3149 25.6756 13.6802 24.808 13.6802 23.8948C13.6802 21.9771 12.082 20.3789 10.1643 20.3789C8.24658 20.3789 6.64838 21.9772 6.64838 23.8948C6.64838 24.8539 7.01371 25.7211 7.65291 26.3603C5.4613 27.2735 4 29.237 4 31.52V32.4791C4 32.753 4.1825 32.9358 4.45674 32.9358H15.9632C16.2371 32.9358 16.4199 32.7533 16.4199 32.4791V31.52C16.4196 29.2826 14.9128 27.2279 12.7212 26.3148L12.7212 26.3148ZM10.1643 21.292C11.5797 21.292 12.7671 22.4791 12.7671 23.8948C12.7671 25.3102 11.58 26.4976 10.1643 26.4976C9.70758 26.4976 9.29669 26.4062 8.9314 26.1779C8.88586 26.1323 8.79445 26.0865 8.70304 26.0409C8.01826 25.5842 7.51595 24.7624 7.51595 23.8493C7.56149 22.4791 8.7486 21.292 10.1643 21.292ZM15.5066 32.0222H4.91337V31.5199C4.91337 29.4653 6.37467 27.6386 8.52038 26.9995C9.02266 27.2734 9.57049 27.4104 10.1642 27.4104C10.7578 27.4104 11.3512 27.2734 11.8535 26.9995C13.9995 27.6387 15.5064 29.5109 15.5064 31.5199L15.5066 32.0222Z" fill="#494B4C" stroke="#494B4C" stroke-width="0.7"/>
</svg>
