<svg id="Layer_1" enable-background="new 0 0 512 512" viewBox="0 0 512 512" xmlns="http://www.w3.org/2000/svg"><g><g><path clip-rule="evenodd" d="m145.728 278.003 62.612-15.157c30.664 11.389 51.894 19.391 59.896 34.723 6.483 12.353 10.484 27.597 15.945 49.587v7.359c0 15.828-12.908 28.736-28.736 28.736h-113.104-113.105c-15.828 0-28.736-12.908-28.736-28.736v-7.359c5.461-21.99 9.462-37.234 15.945-49.587 8.002-15.332 29.232-23.333 59.896-34.723l62.758 17.288z" fill="#60b7ff" fill-rule="evenodd"/></g><g><path clip-rule="evenodd" d="m103.121 210.456h77.622v66.321h-77.622z" fill="#ffaa7b" fill-rule="evenodd"/></g><g><path clip-rule="evenodd" d="m108.319 302.651-30.401-36.504c-1.314-1.577-1.811-3.475-1.402-5.49.38-1.986 1.548-3.563 3.358-4.527l18.018-9.666c2.512-1.343 5.432-.993 7.593.876l27.685 24.005-13.813 29.846c-.964 2.132-2.804 3.475-5.111 3.796-2.306.292-4.438-.555-5.927-2.336z" fill="#e3f5ff" fill-rule="evenodd"/></g><g><path clip-rule="evenodd" d="m142.165 287.377 15.507 15.595 16.179 80.28h-31.51-31.511l16.208-81.186z" fill="#e3f5ff" fill-rule="evenodd"/></g><g><path clip-rule="evenodd" d="m141.844 316.464 21.319-18.165-12.383-26.955h-8.936-8.673l-11.652 25.378z" fill="#ec5a6e" fill-rule="evenodd"/></g><g><path clip-rule="evenodd" d="m175.633 302.651 30.401-36.504c1.314-1.577 1.782-3.475 1.402-5.49-.409-1.986-1.548-3.563-3.358-4.527l-18.018-9.666c-2.511-1.343-5.461-.993-7.593.876l-27.685 24.005 13.813 29.846c.964 2.132 2.803 3.475 5.111 3.796 2.305.292 4.437-.555 5.927-2.336z" fill="#e3f5ff" fill-rule="evenodd"/></g><g><path clip-rule="evenodd" d="m45.444 153.538h192.976v-76.513c0-42.082-34.431-76.513-76.513-76.513h-39.95c-42.082 0-76.513 34.431-76.513 76.513z" fill="#945230" fill-rule="evenodd"/></g><g><path clip-rule="evenodd" d="m360.139 403.256 18.427-13.579 18.457-13.609 73.154 91.173c9.549 11.886 6.425 29.729-5.87 38.782-12.265 9.024-30.225 6.746-38.753-5.899z" fill="#60b7ff" fill-rule="evenodd"/></g><g><path clip-rule="evenodd" d="m274.866 251.253c42.053-30.985 101.277-22.019 132.262 20.034 31.014 42.053 22.049 101.277-20.034 132.262-42.053 30.985-101.248 22.019-132.262-20.034-30.985-42.053-22.019-101.278 20.034-132.262z" fill="#ec5a6e" fill-rule="evenodd"/></g><g><path clip-rule="evenodd" d="m307.193 267.168c33.263-13.141 70.877 3.154 84.018 36.416 13.171 33.263-3.125 70.877-36.387 84.018-33.263 13.141-70.877-3.154-84.018-36.388-13.171-33.261 3.154-70.875 36.387-84.046z" fill="#cc2f44" fill-rule="evenodd"/></g><g><path clip-rule="evenodd" d="m312.012 279.375c-26.487 10.455-39.512 40.534-29.028 67.022 10.484 26.487 40.534 39.483 67.022 29.028 26.487-10.484 39.512-40.534 29.028-67.022-10.484-26.487-40.534-39.512-67.022-29.028z" fill="#dbedff" fill-rule="evenodd"/></g><g><path clip-rule="evenodd" d="m395.68 199.417h115.82v-41.498c0-22.808-18.69-41.469-41.498-41.469h-32.854c-22.808 0-41.469 18.661-41.469 41.469v41.498z" fill="#94e368" fill-rule="evenodd"/></g><g><path clip-rule="evenodd" d="m453.59 116.45c22.311 0 40.505-18.223 40.505-40.534s-18.194-40.534-40.505-40.534c-22.341 0-40.534 18.223-40.534 40.534s18.193 40.534 40.534 40.534z" fill="#ffc7ab" fill-rule="evenodd"/></g><g><path clip-rule="evenodd" d="m279.83 199.417h115.85v-41.498c0-22.808-18.69-41.469-41.498-41.469h-32.854c-22.808 0-41.498 18.661-41.498 41.469z" fill="#ec5a6e" fill-rule="evenodd"/></g><g><path clip-rule="evenodd" d="m337.74 116.45c22.341 0 40.534-18.223 40.534-40.534s-18.194-40.534-40.534-40.534c-22.311 0-40.505 18.223-40.505 40.534s18.194 40.534 40.505 40.534z" fill="#ffc7ab" fill-rule="evenodd"/></g><g><path clip-rule="evenodd" d="m72.048 405.534 16.734 35.57 38.986 4.906-28.678 26.896 7.389 38.578-34.431-18.953-34.431 18.953 7.389-38.578-28.649-26.896 38.987-4.906z" fill="#fee55a" fill-rule="evenodd"/></g><g><path clip-rule="evenodd" d="m212.633 405.534 16.704 35.57 38.987 4.906-28.649 26.896 7.389 38.578-34.431-18.953-34.431 18.953 7.389-38.578-28.678-26.896 38.987-4.906z" fill="#fee55a" fill-rule="evenodd"/></g><g><path clip-rule="evenodd" d="m215.291 153.538h23.129v-76.513c0-42.082-34.431-76.513-76.513-76.513h-23.129c42.082 0 76.513 34.431 76.513 76.513z" fill="#6b2e10" fill-rule="evenodd"/></g><g><path clip-rule="evenodd" d="m73.246 122.145h137.343c15.945 0 28.97 13.025 28.97 28.94 0 15.916-13.025 28.94-28.97 28.94h-137.343c-15.916 0-28.941-13.025-28.941-28.94 0-15.916 13.025-28.94 28.941-28.94z" fill="#ffaa7b" fill-rule="evenodd"/></g><g><path clip-rule="evenodd" d="m73.246 100.68h61.356c5.227 0 9.754-1.752 13.609-5.286l18.427-16.85c2.803-2.541 6.6-3.183 10.046-1.665 3.475 1.519 5.578 4.76 5.578 8.527v9.053c0 3.446 2.774 6.22 6.191 6.22h22.165c2.57 0 4.673 2.103 4.673 4.673v52.274c0 40.359-33.029 73.359-73.359 73.359-40.359 0-73.359-33-73.359-73.359v-52.274c0-2.569 2.103-4.672 4.673-4.672z" fill="#ffc7ab" fill-rule="evenodd"/></g><g><path clip-rule="evenodd" d="m491.175 199.417h20.325v-41.498c0-22.808-18.69-41.469-41.498-41.469h-20.296c22.808 0 41.469 18.661 41.469 41.469z" fill="#61ce5b" fill-rule="evenodd"/></g><g><path clip-rule="evenodd" d="m375.354 199.417h20.326v-41.498c0-22.808-18.69-41.469-41.498-41.469h-20.296c22.808 0 41.469 18.661 41.469 41.469v41.498z" fill="#cc2f44" fill-rule="evenodd"/></g></g></svg>