<svg height="512" viewBox="0 0 64 64" width="512" xmlns="http://www.w3.org/2000/svg"><g id="Layer_5" data-name="Layer 5"><path d="m3 2h44v60h-44z" fill="#c1cfe8"/><path d="m5 16a44 44 0 0 0 42 43.949v-57.949h-42z" fill="#d7e0ef"/><path d="m33.642 40.642 3.358 3.358 6-6-3.358-3.358" fill="#0059be"/><path d="m16.185 11.461a17 17 0 1 0 17.415-.129" fill="#0059be"/><path d="m33.6 11.332-17.415.129a17.05 17.05 0 0 0 -2.177 1.581 16.993 16.993 0 0 0 23.965 23.931 16.99 16.99 0 0 0 -4.373-25.641z" fill="#006bdb"/><path d="m16 16.62a13 13 0 1 0 18 0" fill="#fff"/><path d="m32.119 30.03-4.119-1.03v-2.8h-6v2.8l-4.119 1.03a5.121 5.121 0 0 0 -3.6 3.282l-.006.037a12.994 12.994 0 0 0 21.447-.01l-.013-.027a5.121 5.121 0 0 0 -3.59-3.282z" fill="#e73844"/><path d="m18.881 30.03-.052.013a3.05 3.05 0 0 0 -.927 5.394c2.121 1.565 5.148 3.438 7.6 3.532a12.978 12.978 0 0 0 10.227-5.63l-.013-.027a5.121 5.121 0 0 0 -3.595-3.282l-4.121-1.03v-2.8h-5v2.8z" fill="#ff4d55"/><path d="m39.879 40.172h4.243v5.657h-4.243z" fill="#5e5e5e" transform="matrix(.707 -.707 .707 .707 -18.104 42.293)"/><path d="m7 50h8v8h-8z" fill="#fff"/><g fill="#95afd1"><path d="m18 49h16v2h-16z"/><path d="m18 53h22v2h-22z"/><path d="m18 57h20v2h-20z"/></g><path d="m34 49h-14.088q1.184 1.044 2.443 2h11.645z" fill="#a5badb"/><path d="m40 53h-14.812q1.668 1.075 3.436 2h11.376z" fill="#a5badb"/><path d="m33.041 57a43.569 43.569 0 0 0 4.959 1.6v-1.6z" fill="#a5badb"/><path d="m25 33a4.722 4.722 0 0 0 4.588-3.6l-1.588-.4v-2.8h-6v2.8l-1.588.4a4.722 4.722 0 0 0 4.588 3.6z" fill="#d08d78"/><path d="m16 17.5v-4.5a7 7 0 0 1 7-7h3.838a4.387 4.387 0 0 1 4.162 3 4.388 4.388 0 0 1 3 4.162v4.338" fill="#383838"/><path d="m18 13v4.5h16v-4.338a4.388 4.388 0 0 0 -3-4.162 4.387 4.387 0 0 0 -4.162-3h-1.838a7 7 0 0 0 -7 7z" fill="#4c4c4c"/><path d="m25 27a6 6 0 0 0 6-6v-6a2 2 0 0 0 -2-2 10.242 10.242 0 0 1 -7.243 3h-2.757v5a6 6 0 0 0 6 6z" fill="#d08d78"/><path d="m20 17h-2.5a2.5 2.5 0 0 0 -2.5 2.5 2.5 2.5 0 0 0 2.5 2.5h2.5" fill="#d08d78"/><path d="m30 17h2.5a2.5 2.5 0 0 1 2.5 2.5 2.5 2.5 0 0 1 -2.5 2.5h-2.5" fill="#d08d78"/><path d="m26 26.91a6 6 0 0 0 5-5.91v-6a2 2 0 0 0 -2-2 10.242 10.242 0 0 1 -7.243 3h-.757v5a6 6 0 0 0 5 5.91z" fill="#f2b9a1"/><path d="m29.588 29.4-1.588-.4v-1.809a5.933 5.933 0 0 1 -4.588.59v1.219a1.349 1.349 0 0 0 -.8 2.077 4.731 4.731 0 0 0 3.095 1.863 4.72 4.72 0 0 0 3.881-3.54z" fill="#f2b9a1"/><path d="m56.757 62a4.243 4.243 0 0 1 -3-1.243l-12.757-12.757 6-6 12.757 12.757a4.243 4.243 0 0 1 1.243 3 4.242 4.242 0 0 1 -4.243 4.243z" fill="#0059be"/><path d="m41.5 39.5-1.75 1.75 1.379 1.379a1.939 1.939 0 0 0 2.742 0l.379-.379z" fill="#666"/><path d="m47 42-4.5 4.5 11.257 11.257a4.231 4.231 0 0 0 6.957-1.5 4.229 4.229 0 0 0 -.957-1.5z" fill="#006bdb"/></g></svg>