<svg width="24" height="24" viewBox="0 0 24 24" fill="none" xmlns="http://www.w3.org/2000/svg">
<g clip-path="url(#clip0_70_162)">
<path d="M19.0015 13H7.83147L12.7115 17.88C13.1015 18.27 13.1015 18.91 12.7115 19.3C12.3215 19.69 11.6915 19.69 11.3015 19.3L4.71147 12.71C4.32147 12.32 4.32147 11.69 4.71147 11.3L11.2915 4.69997C11.6815 4.30997 12.3115 4.30997 12.7015 4.69997C13.0915 5.08997 13.0915 5.71997 12.7015 6.10997L7.83147 11H19.0015C19.5515 11 20.0015 11.45 20.0015 12C20.0015 12.55 19.5515 13 19.0015 13Z" fill="#1D1A33"/>
</g>
<defs>
<clipPath id="clip0_70_162">
<rect width="24" height="24" fill="white" transform="matrix(-1 0 0 1 24 0)"/>
</clipPath>
</defs>
</svg>
