<svg width="70" height="78" viewBox="0 0 70 78" fill="none" xmlns="http://www.w3.org/2000/svg">
<path d="M64.0493 19.5488C63.3625 19.5487 62.691 19.7523 62.1199 20.1337C61.5488 20.5152 61.1036 21.0575 60.8407 21.692C60.5778 22.3265 60.5089 23.0247 60.6428 23.6984C60.7767 24.372 61.1074 24.9908 61.593 25.4765C62.0786 25.9622 62.6974 26.293 63.371 26.427C64.0446 26.5611 64.7428 26.4923 65.3774 26.2295C66.0119 25.9667 66.5543 25.5217 66.9359 24.9506C67.3175 24.3795 67.5212 23.7081 67.5212 23.0213C67.5202 22.1008 67.1541 21.2182 66.5033 20.5672C65.8524 19.9162 64.9699 19.5499 64.0493 19.5488ZM64.0493 24.6103C63.735 24.6105 63.4277 24.5174 63.1663 24.3428C62.9049 24.1683 62.7011 23.9202 62.5808 23.6298C62.4604 23.3395 62.4289 23.02 62.4901 22.7117C62.5513 22.4034 62.7026 22.1202 62.9248 21.8979C63.147 21.6756 63.4302 21.5242 63.7384 21.4629C64.0467 21.4015 64.3662 21.4329 64.6566 21.5532C64.947 21.6734 65.1952 21.8771 65.3698 22.1384C65.5445 22.3998 65.6377 22.707 65.6377 23.0213C65.6374 23.4426 65.4699 23.8465 65.1721 24.1444C64.8743 24.4423 64.4705 24.61 64.0493 24.6105V24.6103Z" fill="#008DD2"/>
<path d="M23.6982 11.0435C24.5073 11.0438 25.2984 10.8042 25.9713 10.3549C26.6442 9.90565 27.1688 9.26691 27.4787 8.51948C27.7885 7.77206 27.8698 6.94952 27.7121 6.15591C27.5545 5.3623 27.1651 4.63327 26.593 4.06102C26.021 3.48877 25.2922 3.09901 24.4986 2.94103C23.7051 2.78306 22.8825 2.86396 22.135 3.17352C21.3874 3.48307 20.7484 4.00737 20.2989 4.6801C19.8493 5.35283 19.6094 6.14377 19.6094 6.95289C19.6103 8.03719 20.0414 9.07683 20.8079 9.8437C21.5745 10.6106 22.6139 11.0421 23.6982 11.0435ZM23.6982 4.74578C24.1348 4.74543 24.5617 4.87459 24.9249 5.1169C25.2881 5.35921 25.5713 5.7038 25.7386 6.10707C25.9059 6.51033 25.9498 6.95416 25.8649 7.38241C25.7799 7.81067 25.5698 8.2041 25.2612 8.51294C24.9526 8.82178 24.5594 9.03216 24.1312 9.11746C23.703 9.20277 23.2591 9.15916 22.8557 8.99216C22.4523 8.82516 22.1075 8.54227 21.8649 8.17927C21.6223 7.81628 21.4928 7.38949 21.4928 6.95289C21.4933 6.36795 21.7257 5.80707 22.1391 5.39329C22.5526 4.97952 23.1133 4.74665 23.6982 4.74578Z" fill="#008DD2"/>
<path d="M39.5058 34.8147C39.5055 34.006 39.2654 33.2157 38.8159 32.5435C38.3664 31.8713 37.7277 31.3475 36.9805 31.0383C36.2334 30.7291 35.4113 30.6484 34.6182 30.8063C33.8252 30.9643 33.0968 31.3538 32.5251 31.9257C31.9535 32.4977 31.5642 33.2262 31.4066 34.0193C31.2489 34.8124 31.33 35.6345 31.6395 36.3815C31.9491 37.1286 32.4731 37.7671 33.1455 38.2163C33.8179 38.6655 34.6084 38.9053 35.417 38.9053C36.5013 38.9038 37.5407 38.4723 38.3072 37.7054C39.0738 36.9386 39.5048 35.899 39.5058 34.8147ZM35.417 37.0218C34.9804 37.0221 34.5535 36.893 34.1903 36.6507C33.8271 36.4083 33.544 36.0638 33.3766 35.6605C33.2093 35.2572 33.1654 34.8134 33.2503 34.3851C33.3353 33.9569 33.5454 33.5635 33.854 33.2546C34.1626 32.9458 34.5558 32.7354 34.984 32.6501C35.4122 32.5648 35.8561 32.6084 36.2595 32.7754C36.6629 32.9424 37.0077 33.2253 37.2503 33.5883C37.4929 33.9513 37.6224 34.3781 37.6224 34.8147C37.622 35.3997 37.3895 35.9606 36.976 36.3744C36.5624 36.7882 36.0017 37.021 35.4167 37.0218H35.417Z" fill="#008DD2"/>
<path d="M8.41698 23.8228C9.22609 23.8231 10.0171 23.5835 10.6901 23.1342C11.363 22.6849 11.8875 22.0462 12.1974 21.2988C12.5073 20.5514 12.5885 19.7288 12.4309 18.9352C12.2733 18.1416 11.8838 17.4126 11.3118 16.8403C10.7398 16.2681 10.0109 15.8783 9.21738 15.7203C8.42383 15.5624 7.60126 15.6433 6.85371 15.9528C6.10615 16.2624 5.46719 16.7867 5.01763 17.4594C4.56808 18.1321 4.32813 18.9231 4.32812 19.7322C4.32912 20.8165 4.76018 21.8561 5.52672 22.623C6.29326 23.3898 7.3327 23.8213 8.41698 23.8228ZM8.41698 17.5251C8.85358 17.5247 9.28047 17.6539 9.64366 17.8962C10.0068 18.1385 10.29 18.4831 10.4573 18.8864C10.6246 19.2896 10.6686 19.7335 10.5836 20.1617C10.4987 20.59 10.2886 20.9834 9.97998 21.2922C9.67138 21.6011 9.27811 21.8115 8.84993 21.8968C8.42174 21.9821 7.97788 21.9385 7.57448 21.7715C7.17108 21.6045 6.82628 21.3216 6.58368 20.9586C6.34108 20.5956 6.2116 20.1688 6.2116 19.7322C6.21201 19.1472 6.44444 18.5864 6.85789 18.1726C7.27134 17.7588 7.83204 17.5259 8.41698 17.5251Z" fill="#008DD2"/>
<path d="M69.9898 22.79C69.7878 19.6823 67.2487 17.2483 64.2094 17.2483C62.8049 17.2513 61.451 17.7733 60.408 18.714C57.3219 15.6993 53.4691 13.1027 49.2041 11.1724C44.368 8.98368 39.3401 7.82676 34.6642 7.82676C33.3744 7.83851 32.0861 7.91846 30.8047 8.06627C30.8689 7.60714 30.8859 7.14264 30.8555 6.68004C30.612 2.93413 27.5545 0 23.8949 0C20.2353 0 17.1772 2.93413 16.9342 6.67847C16.8469 8.39223 17.3635 10.0823 18.3939 11.4545L18.5884 11.7146C16.8652 12.6895 15.2051 13.7717 13.6176 14.9547C12.9763 14.2704 12.2019 13.7244 11.342 13.3502C10.4821 12.976 9.55476 12.7815 8.61695 12.7787C4.95721 12.7787 1.89924 15.7138 1.65643 19.4572C1.56924 21.171 2.08577 22.8611 3.11612 24.2333L4.23883 25.7348C1.57843 30.8512 7.8485e-05 37.0814 7.8485e-05 42.5245C-0.00962122 47.0829 0.879837 51.5984 2.61753 55.8126C4.35523 60.0268 6.90704 63.8568 10.1269 67.0835C13.3467 70.3102 17.1713 72.8702 21.3818 74.6169C25.5923 76.3635 30.1059 77.2626 34.6643 77.2626C39.2227 77.2626 43.7363 76.3635 47.9468 74.6169C52.1573 72.8702 55.9819 70.3102 59.2017 67.0835C62.4216 63.8568 64.9734 60.0268 66.7111 55.8126C68.4488 51.5984 69.3382 47.0829 69.3286 42.5245C69.3286 38.6612 68.3446 32.8675 67.0594 29.0505L68.7792 26.7511C69.6436 25.618 70.0731 24.2127 69.9898 22.79ZM18.8136 6.80215C18.9705 4.38503 20.9144 1.88347 23.8949 1.88347C26.8753 1.88347 28.8187 4.3844 28.9762 6.80466C29.0461 8.07112 28.6598 9.3207 27.8874 10.3267L23.8949 15.6672L19.9091 10.336C19.1425 9.32215 18.7549 8.0719 18.8136 6.80215ZM3.53629 19.5809C3.69325 17.1637 5.63699 14.6622 8.61742 14.6622C11.5979 14.6622 13.5414 17.1631 13.6987 19.5835C13.7688 20.85 13.3825 22.0995 12.6099 23.1055L8.61695 28.4459L4.63169 23.1147C3.86506 22.1008 3.47751 20.8506 3.53629 19.5809ZM5.50169 27.4239L7.86356 30.5825C7.95125 30.6998 8.06508 30.795 8.19601 30.8606C8.32695 30.9262 8.47137 30.9604 8.61782 30.9604C8.76426 30.9604 8.90868 30.9262 9.03962 30.8606C9.17055 30.795 9.28438 30.6998 9.37207 30.5825L14.1178 24.234C14.9582 23.1388 15.4627 21.8232 15.5701 20.4469C15.6774 19.0705 15.383 17.6926 14.7225 16.4804C16.3177 15.2905 17.9897 14.2073 19.7275 13.2377L23.1409 17.8032C23.2285 17.9205 23.3424 18.0157 23.4733 18.0813C23.6042 18.1469 23.7487 18.181 23.8951 18.181C24.0415 18.181 24.186 18.1469 24.3169 18.0813C24.4478 18.0157 24.5617 17.9205 24.6494 17.8032L29.3954 11.4548C29.727 11.0128 30.0091 10.5356 30.2365 10.032C30.6278 9.98192 31.0188 9.93515 31.4043 9.89606L35.3596 15.6023C35.8178 16.2605 36.054 17.0478 36.0337 17.8495C36.0135 18.6513 35.738 19.4256 35.2472 20.0599L34.13 21.5106C33.8574 21.8633 33.4976 22.1387 33.0861 22.3098C32.6746 22.4809 32.2255 22.5417 31.7833 22.4863L30.5161 22.3243C29.6231 22.2097 28.7161 22.3602 27.908 22.7569C27.0999 23.1537 26.4262 23.7793 25.9708 24.5559C25.7142 24.9933 25.3349 25.3458 24.8798 25.5695C24.4247 25.7932 23.9139 25.8783 23.4108 25.8142L20.4848 25.4422C19.6097 25.3284 18.7202 25.4608 17.9161 25.8246C17.1121 26.1884 16.4254 26.7692 15.9331 27.5016C15.4725 28.1821 15.2204 28.9822 15.2078 29.8038C15.1951 30.6254 15.4224 31.4328 15.8619 32.1271L17.7948 35.1823C18.151 35.742 18.6429 36.2026 19.2248 36.5214C19.8067 36.8401 20.4597 37.0066 21.1232 37.0055C21.766 37.006 22.3988 36.8472 22.9652 36.5432L24.9554 35.4759C25.9304 34.9531 27.5138 34.9479 28.655 35.4182C28.764 36.8286 29.2694 38.1796 30.113 39.3152L34.86 45.6657C34.9476 45.783 35.0615 45.8782 35.1924 45.9438C35.3233 46.0094 35.4678 46.0435 35.6142 46.0435C35.7607 46.0435 35.9051 46.0094 36.036 45.9438C36.1669 45.8782 36.2808 45.783 36.3685 45.6657L38.776 42.4452L39.0821 42.8646C39.2117 43.0454 39.3506 43.2234 39.4952 43.3936L41.9123 46.2404C42.02 46.3673 42.1009 46.5147 42.1499 46.6738C42.199 46.8328 42.2152 47.0002 42.1977 47.1657C42.1801 47.3312 42.1292 47.4914 42.0479 47.6367C41.9666 47.7819 41.8567 47.9091 41.7247 48.0106L38.0619 50.8272C37.087 51.5738 36.3698 52.6064 36.0106 53.7806L34.7896 57.744C34.6937 58.0566 34.5367 58.3471 34.3276 58.5985L33.1396 60.0287C32.2546 61.092 31.7067 62.3949 31.5659 63.7711C31.5315 64.1058 31.4077 64.425 31.2074 64.6953C31.0071 64.9656 30.7377 65.177 30.4275 65.3073C30.2975 65.3617 30.1569 65.386 30.0161 65.3783C29.8754 65.3707 29.7382 65.3312 29.6149 65.263C29.4915 65.1948 29.3852 65.0995 29.304 64.9844C29.2227 64.8692 29.1685 64.7372 29.1455 64.5981L28.0264 57.8774C27.8867 57.0423 27.5458 56.2536 27.0332 55.5796L22.9334 50.199C22.565 49.7164 22.2926 49.1676 22.131 48.5824L20.7779 43.6965C20.5387 42.8404 20.0821 42.0608 19.4526 41.4333C18.823 40.8059 18.0419 40.3519 17.185 40.1155L16.8909 40.0353C16.2957 39.8723 15.7495 39.5659 15.3 39.1431L12.7763 36.7645C12.3743 36.386 12.0294 35.951 11.7525 35.4733C11.1652 34.4607 10.2763 33.6568 9.21001 33.1739C8.14371 32.691 6.95322 32.5531 5.80477 32.7796C5.76798 32.7868 5.73166 32.7962 5.696 32.8078L3.16729 33.6304C3.75724 31.4956 4.53854 29.4184 5.50169 27.4239ZM30.5333 34.664C30.6903 32.2469 32.634 29.7453 35.6144 29.7453C38.5949 29.7453 40.5385 32.2463 40.6957 34.6667C40.7658 35.9331 40.3795 37.1827 39.6069 38.1886L35.6144 43.529L31.6287 38.1979C30.8621 37.184 30.4745 35.9337 30.5333 34.664ZM67.4451 42.5245C67.4451 60.6184 52.7396 75.3388 34.6642 75.3388C16.5889 75.3388 1.88355 60.6184 1.88355 42.5245C1.89892 40.2572 2.15185 37.9977 2.63819 35.7831L6.22196 34.6174C6.97862 34.4794 7.75944 34.5783 8.45777 34.9007C9.1561 35.223 9.7379 35.7531 10.1237 36.4185C10.4921 37.0537 10.9507 37.632 11.4852 38.1355L14.009 40.5133C14.6835 41.1474 15.5028 41.6069 16.3957 41.8516L16.6898 41.9317C17.232 42.0815 17.7262 42.369 18.1245 42.7662C18.5227 43.1635 18.8115 43.657 18.9627 44.1988L20.3158 49.0854C20.5412 49.9021 20.9212 50.6679 21.4352 51.3413L25.5351 56.7221C25.862 57.152 26.0795 57.655 26.1685 58.1877L27.2876 64.9084C27.3566 65.3282 27.5198 65.7268 27.7651 66.0743C28.0103 66.4218 28.3312 66.7092 28.7035 66.9148C29.0759 67.1204 29.49 67.2389 29.9148 67.2613C30.3396 67.2837 30.7639 67.2095 31.1558 67.0443C31.7777 66.7833 32.3179 66.3596 32.7196 65.8178C33.1213 65.276 33.3697 64.6361 33.4387 63.9651C33.5415 62.9601 33.9416 62.0086 34.5878 61.2321L35.7758 59.8019C36.1439 59.3595 36.4204 58.8484 36.5891 58.2982L37.8096 54.3348C38.0546 53.534 38.5437 52.8298 39.2084 52.3206L42.8729 49.5039C43.207 49.2469 43.4855 48.9248 43.6915 48.5571C43.8974 48.1893 44.0265 47.7835 44.071 47.3644C44.1154 46.9452 44.0743 46.5214 43.9501 46.1186C43.8258 45.7159 43.6211 45.3425 43.3483 45.0212L40.9312 42.1743C40.82 42.0434 40.7132 41.9066 40.6091 41.7614L39.9566 40.8667L41.1151 39.3173C42.1571 37.9513 42.675 36.257 42.5748 34.5419C42.3314 30.796 39.2739 27.8619 35.6141 27.8619C32.3071 27.8619 29.4929 30.2581 28.8008 33.4826C27.2365 33.0215 25.3635 33.1216 24.0655 33.8172L22.0753 34.8845C21.6202 35.1264 21.0907 35.1878 20.5924 35.0565C20.094 34.9253 19.6635 34.611 19.3866 34.1763L17.4536 31.121C17.2101 30.7363 17.0841 30.2889 17.0911 29.8337C17.0981 29.3785 17.2378 28.9352 17.493 28.5581C17.7908 28.1148 18.2064 27.7634 18.6929 27.5432C19.1795 27.323 19.7178 27.2429 20.2474 27.3117L23.1733 27.6835C24.0421 27.7946 24.9244 27.6479 25.7104 27.2617C26.4965 26.8755 27.1517 26.2667 27.5946 25.5111C27.8631 25.0524 28.2606 24.6828 28.7377 24.4484C29.2147 24.214 29.7501 24.125 30.2773 24.1927L31.5444 24.3547C32.3129 24.4511 33.0931 24.3454 33.8083 24.0481C34.5234 23.7509 35.1486 23.2723 35.6223 22.6596L36.7395 21.2088C37.4751 20.2584 37.8881 19.098 37.9183 17.8965C37.9486 16.695 37.5945 15.5153 36.9076 14.5291L33.5839 9.73534C33.9648 9.71964 34.3274 9.71023 34.6642 9.71023C39.0747 9.71023 43.8336 10.8089 48.4275 12.8884C49.8668 13.5416 51.2656 14.2806 52.6162 15.1015L50.0864 19.4377C49.7238 20.0741 49.5682 20.8075 49.6413 21.5363C49.7145 22.2651 50.0126 22.953 50.4945 23.5046C51.2214 24.3373 52.2301 24.8723 53.3272 25.007L53.786 25.0635C54.23 25.1185 54.6486 25.3013 54.9908 25.5896C55.3329 25.8778 55.5841 26.2593 55.7137 26.6875C55.8363 27.0944 55.8399 27.5278 55.7241 27.9367C55.6083 28.3455 55.3778 28.7127 55.06 28.9948L50.5171 33.0116C50.0566 33.419 49.6879 33.9196 49.4353 34.4802C49.1828 35.0408 49.0521 35.6487 49.0521 36.2635V37.3294C49.0506 37.9611 49.2082 38.5829 49.5102 39.1377C49.8122 39.6924 50.249 40.1622 50.7803 40.5039C51.0444 40.6736 51.2667 40.9011 51.4303 41.169C51.594 41.437 51.6948 41.7386 51.7252 42.0511L51.8314 43.1153C51.9147 43.9768 52.3163 44.7763 52.9579 45.3574C53.5994 45.9384 54.4346 46.2592 55.3002 46.2571H57.9591C59.0607 46.2567 60.1383 45.9356 61.0603 45.3329C61.9824 44.7302 62.7089 43.872 63.1512 42.8632L63.311 42.4989C63.4676 42.1378 63.7227 41.828 64.0471 41.6051C64.3716 41.3822 64.7522 41.2553 65.1455 41.2387L65.7694 41.2105C65.8709 41.206 65.9722 41.1986 66.0733 41.1883L67.3997 41.0548C67.4292 41.5707 67.4451 42.0642 67.4451 42.5245ZM67.2434 39.1762L65.8846 39.3129C65.8184 39.3196 65.7518 39.3243 65.6847 39.3275L65.0598 39.3559C64.3152 39.3871 63.5944 39.6275 62.98 40.0494C62.3657 40.4714 61.8826 41.0578 61.5861 41.7416L61.4263 42.1059C61.131 42.7797 60.6458 43.3528 60.0301 43.7554C59.4144 44.158 58.6948 44.3725 57.9591 44.3728H55.2998C54.9018 44.3737 54.5177 44.226 54.2228 43.9587C53.9279 43.6914 53.7433 43.3236 53.7052 42.9274L53.5988 41.8631C53.541 41.2688 53.3492 40.6953 53.038 40.1857C52.7267 39.6761 52.304 39.2437 51.8016 38.921C51.5352 38.7496 51.3162 38.5139 51.1647 38.2356C51.0133 37.9573 50.9343 37.6454 50.9351 37.3286V36.2628C50.9351 35.9147 51.009 35.5706 51.1519 35.2532C51.2949 34.9359 51.5036 34.6525 51.7643 34.4218L56.3072 30.405C56.8944 29.8837 57.3203 29.2053 57.5344 28.4499C57.7486 27.6945 57.7421 26.8935 57.5157 26.1416C57.2802 25.3642 56.8242 24.6719 56.2029 24.1486C55.5816 23.6254 54.8218 23.2937 54.0156 23.1938L53.5568 23.1373C52.9197 23.0591 52.3338 22.7484 51.9116 22.2648C51.688 22.0092 51.5492 21.6904 51.5144 21.3526C51.4796 21.0147 51.5506 20.6743 51.7175 20.3785L54.2035 16.1173C55.9952 17.3168 57.6729 18.6782 59.2156 20.1845C58.7571 20.9812 58.4881 21.8727 58.4292 22.79C58.3564 24.2114 58.7845 25.6134 59.639 26.7517L63.4553 31.8547C63.5429 31.9719 63.6568 32.0671 63.7877 32.1327C63.9186 32.1982 64.063 32.2324 64.2094 32.2324C64.3559 32.2324 64.5003 32.1982 64.6312 32.1327C64.7621 32.0671 64.8759 31.9719 64.9636 31.8547L65.6654 30.9162C66.4149 33.6221 66.9426 36.3846 67.2434 39.1762ZM67.2715 25.6219L64.2094 29.7164L61.1543 25.6309C60.5635 24.8511 60.2643 23.8891 60.3086 22.9118C60.4295 21.0534 61.9216 19.1313 64.2094 19.1313C66.4972 19.1313 67.9896 21.0534 68.1104 22.914C68.1639 23.888 67.8662 24.8489 67.2713 25.6221L67.2715 25.6219Z" fill="#008DD2"/>
</svg>
