<svg width="71" height="70" viewBox="0 0 71 70" fill="none" xmlns="http://www.w3.org/2000/svg">
<path d="M51.9501 47.5352H41.196C40.7562 47.5352 40.4043 47.887 40.4043 48.3269V52.3624C40.4043 52.8022 40.7562 53.1541 41.196 53.1541H51.9501C52.3899 53.1541 52.7418 52.8022 52.7418 52.3624V48.3269C52.7418 47.887 52.3899 47.5352 51.9501 47.5352ZM51.1584 51.5707H41.9877V49.1076H51.1584V51.5707Z" fill="#008DD2"/>
<path d="M51.9501 55.5723H41.196C40.7562 55.5723 40.4043 55.9241 40.4043 56.364V60.3995C40.4043 60.8393 40.7562 61.1912 41.196 61.1912H51.9501C52.3899 61.1912 52.7418 60.8393 52.7418 60.3995V56.364C52.7418 55.9241 52.3899 55.5723 51.9501 55.5723ZM51.1584 59.6078H41.9877V57.1447H51.1584V59.6078Z" fill="#008DD2"/>
<path d="M24.3393 60.3789C24.7021 60.3789 25.021 60.137 25.109 59.7631C25.2079 59.3342 24.944 58.9164 24.5152 58.8174C11.309 55.7716 2.08342 44.1598 2.08342 30.5798C2.08342 29.1613 2.19338 27.7538 2.39131 26.3903C4.50253 26.0275 6.95463 24.51 7.8563 23.6303C7.99925 23.4984 8.1312 23.3554 8.27415 23.2015C9.03287 22.4318 9.74761 21.695 10.5063 21.794C10.9242 21.849 11.364 22.1789 11.7049 22.7067C11.9468 23.0805 12.1227 23.5094 12.3097 23.9602C12.4086 24.1911 12.5076 24.422 12.6066 24.642C13.9151 27.5449 16.5431 29.7661 19.633 30.5688C20.1718 30.7117 20.7656 30.7997 21.3594 30.7997C22.6349 30.7997 23.8994 30.3929 24.6362 29.2823C25.2959 28.3256 25.3949 26.9951 24.9001 25.6426C24.6801 24.9938 24.3613 24.4001 24.0534 23.8173C23.8774 23.4874 23.7015 23.1575 23.5585 22.8276C22.5799 20.6394 22.5689 18.2093 22.5469 15.6363C22.5359 13.4481 22.5139 11.1829 21.8652 9.03869C21.3484 7.27933 20.3367 5.60794 19.0062 4.24444C20.1058 3.73863 21.2494 3.28779 22.415 2.92493C22.4699 4.1015 22.7888 5.24508 23.4046 6.25671C24.8341 8.57686 27.5281 10.1053 30.618 10.3472C30.8269 10.3582 31.0248 10.3692 31.2337 10.3802C32.1464 10.4242 33.0151 10.4572 33.6199 10.919C34.1587 11.3149 34.4556 12.0296 34.7744 12.7883L34.9174 13.1292C35.5771 14.6356 36.4238 15.4713 37.4794 15.6693C38.645 15.9222 39.9205 15.3394 40.9102 14.0968C41.1521 13.7999 41.361 13.4811 41.5809 13.1512C41.9438 12.6234 42.2737 12.1176 42.7135 11.7327C43.4283 11.1059 44.5059 10.853 45.4515 11.1059C46.3752 11.3478 47.1889 12.1066 47.5078 13.0302C47.6287 13.3931 47.7057 13.7999 47.7717 14.2288C47.9146 15.0645 48.0686 16.0101 48.7173 16.7579C49.3441 17.4726 50.2238 17.7805 51.1144 17.7805C51.8402 17.7805 52.5659 17.5716 53.1487 17.2087C54.0284 16.6809 54.7101 15.7902 55.2269 14.6246C58.2508 19.199 60.0212 24.675 60.0212 30.5578C60.0212 30.9976 60.3731 31.3495 60.8129 31.3495C61.2527 31.3495 61.6046 30.9976 61.6046 30.5578C61.6046 13.701 47.9036 0 31.0578 0C14.212 0.0219919 0.5 13.734 0.5 30.5798C0.5 44.8965 10.2314 57.1351 24.1523 60.3569C24.2183 60.3789 24.2733 60.3789 24.3393 60.3789ZM54.1823 13.1512C54.1493 13.2062 54.1163 13.2501 54.0944 13.3051C53.6765 14.5587 53.0827 15.4163 52.324 15.8782C51.6093 16.318 50.4767 16.373 49.9269 15.7352C49.564 15.3174 49.465 14.7016 49.3441 13.9759C49.2671 13.4921 49.1792 12.9972 49.0142 12.5134C48.5194 11.0839 47.3098 9.96235 45.8694 9.57749C44.3959 9.19263 42.8015 9.56649 41.6799 10.5451C41.0971 11.0619 40.6793 11.6667 40.2834 12.2605C40.0855 12.5464 39.8986 12.8323 39.6896 13.0962C39.2278 13.679 38.4911 14.2398 37.8093 14.0968C37.2815 13.9979 36.8197 13.4701 36.3798 12.4804L36.2479 12.1615C35.885 11.2819 35.4672 10.2702 34.5875 9.63247C33.6089 8.87375 32.3883 8.82976 31.3217 8.77478C31.1238 8.76379 30.9368 8.75279 30.7499 8.7418C28.1988 8.54387 25.9117 7.26834 24.7681 5.39902C24.2403 4.53034 23.9764 3.48572 23.9874 2.4631C26.2526 1.89131 28.6277 1.58342 31.0688 1.58342C40.5033 1.60541 48.8933 6.14675 54.1823 13.1512ZM17.4888 4.99217C18.8303 6.23471 19.8639 7.80714 20.3697 9.51151C20.9525 11.4468 20.9635 13.4921 20.9855 15.6693C21.0075 18.2863 21.0185 21.0023 22.1401 23.4984C22.305 23.8613 22.4919 24.2131 22.6789 24.576C22.9648 25.1258 23.2397 25.6316 23.4266 26.1814C23.5695 26.5992 23.8664 27.6329 23.3386 28.4026C22.7009 29.3592 21.1724 29.3482 20.0398 29.0513C17.4448 28.3806 15.1576 26.4453 14.058 24.0042C13.9591 23.7953 13.8711 23.5864 13.7831 23.3664C13.5742 22.8716 13.3653 22.3658 13.0464 21.86C12.4416 20.9253 11.6059 20.3535 10.7153 20.2326C9.16482 20.0237 8.05423 21.1782 7.15256 22.1019C7.02061 22.2338 6.88866 22.3768 6.75671 22.4978C5.99798 23.2235 4.21664 24.2791 2.6882 24.7079C4.44755 16.1641 9.98952 8.98371 17.4888 4.99217Z" fill="#008DD2"/>
<path d="M53.4131 24.6524C50.884 24.4325 48.9047 26.4228 48.091 28.3581C47.4972 29.7326 47.3103 31.217 47.2113 32.4816C47.1783 32.9214 47.4972 33.2953 47.9371 33.3283C47.9591 33.3283 47.981 33.3283 48.003 33.3283C48.4099 33.3283 48.7618 33.0204 48.7947 32.6025C48.8827 31.4699 49.0477 30.1504 49.5535 28.9739C50.1802 27.5004 51.6537 26.0929 53.2811 26.2249C54.3367 26.3128 55.3923 27.0606 56.184 28.2701C56.6019 28.9079 56.9098 29.6226 57.0967 30.3923C57.2067 30.8102 57.6355 31.0741 58.0534 30.9641C58.4712 30.8542 58.7351 30.4253 58.6251 30.0075C58.3942 29.0728 58.0094 28.1931 57.5036 27.4014C56.4479 25.785 54.9525 24.7844 53.4131 24.6524Z" fill="#008DD2"/>
<path d="M18.2802 43.511C19.6217 42.6973 21.1611 42.2575 22.7885 41.7957C23.3053 41.6527 23.8221 41.4988 24.3279 41.3448C26.1753 40.762 28.7813 39.7394 30.2108 37.5072C30.8925 36.4406 31.2224 35.2641 31.5413 34.1205C31.7392 33.4277 31.9152 32.768 32.1791 32.1412C33.1247 29.8101 35.2139 27.9517 37.6331 27.281C39.0735 26.8741 41.0198 26.9841 41.8995 28.2046C42.2294 28.6775 42.4053 29.2823 42.4163 30.052C42.4273 30.4808 42.7792 30.8327 43.208 30.8327H43.219C43.6589 30.8217 43.9997 30.4588 43.9997 30.03C43.9777 28.9304 43.7138 28.0397 43.186 27.292C41.8665 25.4337 39.2275 25.1808 37.2042 25.7635C34.3233 26.5553 31.8382 28.7764 30.7166 31.5584C30.4307 32.2622 30.2218 32.9989 30.0238 33.7026C29.727 34.7802 29.4411 35.8029 28.8913 36.6605C27.7477 38.4639 25.4715 39.3326 23.8661 39.8384C23.3713 39.9923 22.8655 40.1353 22.3597 40.2782C20.6993 40.751 18.9839 41.2349 17.4555 42.1585C15.5861 43.3131 13.5739 45.6333 14.0357 48.3932C14.4646 51.0983 17.0486 52.7257 19.1378 53.2974C20.3474 53.6163 21.557 53.7263 23.0084 53.7923C23.0194 53.7923 23.0304 53.7923 23.0414 53.7923C23.4593 53.7923 23.8111 53.4624 23.8331 53.0335C23.8551 52.5937 23.5142 52.2308 23.0744 52.2088C21.7329 52.1539 20.6223 52.0549 19.5557 51.769C17.9283 51.3182 15.905 50.1086 15.5971 48.1403C15.2783 46.282 16.7187 44.4677 18.2802 43.511Z" fill="#008DD2"/>
<path d="M23.5153 36.484C23.5922 36.0332 23.5372 35.3625 22.8445 34.6697C21.0192 32.8224 18.721 34.2958 17.7424 34.9226C16.9836 35.4064 16.126 35.8683 15.4332 35.6374C15.0594 35.5164 14.7075 35.1645 14.3336 34.8017L14.0257 34.5048C12.9041 33.4492 11.9585 33.3942 11.3647 33.5371C10.617 33.7241 9.99021 34.3288 9.69332 35.1535C9.45141 35.8133 9.44041 36.495 9.44041 37.0448C9.42942 37.7596 9.41842 38.8592 10.0342 39.7169C10.65 40.5855 11.7166 41.0254 13.201 41.0254C13.432 41.0254 13.6849 41.0144 13.9378 40.9924C16.4229 40.7835 18.809 40.1127 21.0412 39.0021C22.5256 38.2544 23.3613 37.4077 23.5153 36.484ZM13.8058 39.42C12.5303 39.5299 11.7056 39.321 11.3317 38.8042C11.0458 38.3973 11.0238 37.7486 11.0348 37.0668C11.0458 36.616 11.0458 36.0992 11.1998 35.6923C11.3097 35.3734 11.5406 35.1205 11.7606 35.0656C11.7936 35.0546 11.8375 35.0546 11.8815 35.0546C12.1674 35.0546 12.5523 35.2635 12.9591 35.6483L13.234 35.9232C13.6959 36.3741 14.2127 36.8909 14.9494 37.1328C16.2689 37.5726 17.5334 36.9349 18.6001 36.2531C20.2165 35.2305 21.0632 35.0986 21.7339 35.7803C21.9098 35.9562 21.9868 36.1102 21.9648 36.2311C21.9208 36.506 21.47 37.0228 20.3374 37.5946C18.3142 38.5843 16.049 39.222 13.8058 39.42Z" fill="#008DD2"/>
<path d="M69.7082 67.7129H68.1468V35.4947C68.1468 34.3621 67.2341 33.4494 66.1016 33.4494H51.5869C50.4543 33.4494 49.5416 34.3621 49.5416 35.4947V37.397C49.5416 37.8368 49.8935 38.1887 50.3333 38.1887C50.7732 38.1887 51.125 37.8368 51.125 37.397V35.4947C51.125 35.2418 51.334 35.0328 51.5869 35.0328H66.0906C66.3435 35.0328 66.5524 35.2418 66.5524 35.4947V38.4966H60.8345C60.0758 38.4966 59.46 39.1123 59.46 39.8711V42.697C59.46 43.4558 60.0758 44.0715 60.8345 44.0715H66.5524V47.4693H60.8345C60.0758 47.4693 59.46 48.0851 59.46 48.8438V51.6697C59.46 52.4285 60.0758 53.0442 60.8345 53.0442H66.5524V56.442H60.8345C60.0758 56.442 59.46 57.0578 59.46 57.8165V60.6425C59.46 61.4012 60.0758 62.0169 60.8345 62.0169H66.5524V67.7458H56.568V45.1271C56.568 44.3904 55.9633 43.7856 55.2265 43.7856H54.017V41.1026C54.017 40.2559 53.3242 39.5632 52.4775 39.5632H40.6459C39.7992 39.5632 39.1064 40.2559 39.1064 41.1026V43.7856H37.8969C37.1602 43.7856 36.5554 44.3904 36.5554 45.1271V67.7129H27.7036V61.984H33.4215C34.1803 61.984 34.796 61.3682 34.796 60.6095V57.7835C34.796 57.0248 34.1803 56.409 33.4215 56.409H27.7036V53.0222H33.4215C34.1803 53.0222 34.796 52.4065 34.796 51.6478V48.8218C34.796 48.0631 34.1803 47.4473 33.4215 47.4473H27.7036V43.5987C27.7036 43.4008 27.7916 43.2028 27.9565 43.0819L39.0845 34.0982C39.2054 33.9992 39.3484 33.9552 39.5023 33.9552H41.8334C42.1963 33.9552 42.5042 34.2521 42.5042 34.626V36.8142C42.5042 37.254 42.8561 37.6059 43.2959 37.6059C43.7358 37.6059 44.0876 37.254 44.0876 36.8142V34.626C44.0876 33.3834 43.076 32.3828 41.8444 32.3828H39.5133C38.9965 32.3828 38.5017 32.5587 38.1058 32.8776L26.9779 41.8613C26.4501 42.2902 26.1422 42.9279 26.1422 43.6097V67.7129H24.5808C24.1409 67.7129 23.7891 68.0647 23.7891 68.5046C23.7891 68.9444 24.1409 69.2963 24.5808 69.2963H69.7082C70.1481 69.2963 70.4999 68.9444 70.4999 68.5046C70.4999 68.0647 70.1481 67.7129 69.7082 67.7129ZM61.0544 42.4771V40.069H66.5634V42.4771H61.0544ZM61.0544 51.4388V49.0307H66.5634V51.4388H61.0544ZM61.0544 60.4005V57.9924H66.5634V60.4005H61.0544ZM33.2236 58.0034V60.4115H27.7146V58.0034H33.2236ZM33.2236 49.0417V51.4498H27.7146V49.0417H33.2236ZM40.6459 41.1466L52.4446 41.1026V43.7856H40.6789L40.6459 41.1466ZM38.1498 67.7129V45.3691H54.9956V67.7129H38.1498Z" fill="#008DD2"/>
</svg>
