<svg width="72" height="65" viewBox="0 0 72 65" fill="none" xmlns="http://www.w3.org/2000/svg">
<path d="M67.1467 15.5277H52.1609V10.3161C52.1609 4.62771 47.5338 0 41.8461 0H30.1546C24.467 0 19.8399 4.62771 19.8399 10.3161V15.5277H4.85411C2.17817 15.5277 0 17.7054 0 20.3824V60.1453C0 62.8224 2.17738 65 4.85411 65H67.1467C69.8226 65 72 62.8224 72 60.1453V20.3824C72 17.7054 69.8226 15.5277 67.1467 15.5277ZM21.5962 10.3161C21.5962 5.59599 25.4352 1.75652 30.1546 1.75652H41.8461C46.5656 1.75652 50.4046 5.59599 50.4046 10.3161V15.5277H47.7702V10.3161C47.7702 7.0488 45.1122 4.39131 41.8454 4.39131H30.1546C26.8878 4.39131 24.2306 7.04958 24.2306 10.3161V15.5277H21.5962V10.3161ZM46.0146 15.5277H25.9862V10.3161C25.9862 8.01708 27.8559 6.14705 30.1546 6.14705H41.8461C44.1448 6.14705 46.0146 8.01708 46.0146 10.3161V15.5277ZM4.85411 17.2842H67.1467C68.8545 17.2842 70.2445 18.6736 70.2445 20.3824V28.4386L59.2871 31.2229V27.4156C59.2871 26.9302 58.8942 26.5373 58.409 26.5373H52.0506C51.5653 26.5373 51.1724 26.9302 51.1724 27.4156V33.2847L36.0004 37.1391L20.8284 33.2839V27.4148C20.8284 26.9295 20.4355 26.5365 19.9502 26.5365H13.5918C13.1066 26.5365 12.7137 26.9295 12.7137 27.4148V31.2221L1.75631 28.4378V20.3824C1.75631 18.6736 3.14633 17.2842 4.85411 17.2842ZM57.5308 36.0518H52.9287V28.293H57.5308V36.0518ZM52.9287 37.8083H57.5308V40.8282C57.5308 42.0971 56.4985 43.1296 55.2298 43.1296C53.9611 43.1296 52.9287 42.0971 52.9287 40.8282V37.8083ZM19.0721 36.0518H14.47V28.293H19.0721V36.0518ZM14.47 37.8083H19.0721V40.8282C19.0721 42.0971 18.0397 43.1296 16.771 43.1296C15.5023 43.1296 14.47 42.0971 14.47 40.8282V37.8083ZM67.1467 63.2427H4.85411C3.14633 63.2427 1.75631 61.8525 1.75631 60.1445V30.2507L12.7137 33.035V40.8282C12.7137 43.0654 14.5334 44.8861 16.771 44.8861C19.0087 44.8861 20.8284 43.0662 20.8284 40.8282V35.0968L35.7844 38.8971C35.8556 38.9152 35.9276 38.9245 36.0004 38.9245C36.0732 38.9245 36.146 38.9152 36.2164 38.8971L51.1724 35.0968V40.8282C51.1724 43.0654 52.9929 44.8861 55.2298 44.8861C57.4666 44.8861 59.2871 43.0662 59.2871 40.8282V33.035L70.2445 30.2507V60.1445C70.2445 61.8533 68.8545 63.2427 67.1467 63.2427Z" fill="#008DD2"/>
</svg>
