<svg width="24" height="18" viewBox="0 0 24 18" fill="none" xmlns="http://www.w3.org/2000/svg">
<path d="M20.0159 0.42857H4.4603C2.32141 0.42857 0.571411 2.17857 0.571411 4.31746V14.0397C0.571411 16.1786 2.32141 17.9286 4.4603 17.9286H20.0159C22.1547 17.9286 23.9047 16.1786 23.9047 14.0397V4.31746C23.9047 2.17857 22.1547 0.42857 20.0159 0.42857ZM21.5714 6.06746L13.8909 11.2202C13.4047 11.5119 12.8214 11.7063 12.2381 11.7063C11.6547 11.7063 11.0714 11.5119 10.5853 11.2202L2.90474 6.06746C2.51586 5.77579 2.41863 5.19246 2.7103 4.70635C3.00197 4.31746 3.5853 4.22024 4.07141 4.5119L11.752 9.66468C12.0436 9.85913 12.5297 9.85913 12.8214 9.66468L20.502 4.5119C20.9881 4.22024 21.5714 4.31746 21.8631 4.80357C22.0575 5.19246 21.9603 5.77579 21.5714 6.06746Z" fill="white"/>
</svg>
