<svg width="26" height="26" viewBox="0 0 26 26" fill="none" xmlns="http://www.w3.org/2000/svg">
<path d="M13.3572 0.142857C6.50935 0.142857 0.857178 5.79503 0.857178 12.6429C0.857178 15.2516 1.61805 17.6429 3.03109 19.7081L1.61805 23.9472C1.50935 24.1646 1.61805 24.382 1.72674 24.4907C1.94413 24.5994 2.16153 24.7081 2.37892 24.5994L6.72674 23.1863C8.68326 24.4907 11.0746 25.1429 13.3572 25.1429C20.205 25.1429 25.8572 19.4907 25.8572 12.6429C25.8572 5.79503 20.205 0.142857 13.3572 0.142857ZM20.8572 17.7516C20.5311 18.7298 19.2267 19.5994 18.1398 19.8168C17.9224 19.8168 17.705 19.9255 17.3789 19.9255C16.5094 19.9255 15.4224 19.5994 13.6833 18.9472C11.5094 18.0776 9.33544 16.1211 7.59631 13.6211L7.48761 13.5124C6.83544 12.6429 5.85718 11.1211 5.85718 9.49068C5.85718 7.64286 6.83544 6.6646 7.16153 6.22981C7.59631 5.79503 8.13979 5.57764 8.79196 5.57764C8.90066 5.57764 9.00935 5.57764 9.11805 5.57764H9.22674C9.77022 5.57764 10.0963 5.79503 10.4224 6.4472L10.6398 6.88199C10.9659 7.64286 11.4007 8.83851 11.5094 9.0559C11.7267 9.49068 11.7267 9.81677 11.5094 10.1429C11.4007 10.3602 11.292 10.5776 11.0746 10.795C10.9659 10.9037 10.8572 11.0124 10.8572 11.1211C10.7485 11.2298 10.6398 11.3385 10.5311 11.4472C10.5311 11.5559 10.5311 11.5559 10.5311 11.5559C10.8572 12.0994 11.5094 13.0776 12.3789 13.8385C13.5746 14.9255 14.4441 15.2516 14.8789 15.4689H14.9876C15.0963 15.4689 15.205 15.5776 15.205 15.4689C15.4224 15.2516 15.6398 14.8168 15.9659 14.4907L16.0746 14.382C16.4007 13.9472 16.8354 13.8385 17.0528 13.8385C17.1615 13.8385 17.3789 13.8385 17.4876 13.9472C17.5963 13.9472 17.8137 14.0559 19.8789 15.1429L20.0963 15.2516C20.4224 15.3602 20.6398 15.4689 20.7485 15.795C21.1833 16.0124 21.0746 16.9907 20.8572 17.7516Z" fill="white"/>
</svg>
