<svg width="40" height="35" viewBox="0 0 40 35" fill="none" xmlns="http://www.w3.org/2000/svg">
<path fill-rule="evenodd" clip-rule="evenodd" d="M38.3333 34.0318H1.66667C1.20583 34.0318 0.833332 33.6593 0.833332 33.1985C0.833332 32.7377 1.20583 32.3652 1.66667 32.3652H38.3333C38.7942 32.3652 39.1667 32.7377 39.1667 33.1985C39.1667 33.6593 38.7942 34.0318 38.3333 34.0318ZM13.3333 25.6985C13.7942 25.6985 14.1667 26.071 14.1667 26.5318C14.1667 26.9927 13.7942 27.3652 13.3333 27.3652H6.66667C6.20583 27.3652 5.83333 26.9927 5.83333 26.5318C5.83333 26.071 6.20583 25.6985 6.66667 25.6985H7.5V14.8652H6.66667C6.20583 14.8652 5.83333 14.4927 5.83333 14.0318C5.83333 13.5718 6.20583 13.1985 6.66667 13.1985H13.3333C13.7942 13.1985 14.1667 13.5718 14.1667 14.0318C14.1667 14.4927 13.7942 14.8652 13.3333 14.8652H12.5V25.6985H13.3333ZM10.8333 14.8652H9.16667V25.6985H10.8333V14.8652ZM23.3333 25.6985C23.7942 25.6985 24.1667 26.071 24.1667 26.5318C24.1667 26.9927 23.7942 27.3652 23.3333 27.3652H16.6667C16.2058 27.3652 15.8333 26.9927 15.8333 26.5318C15.8333 26.071 16.2058 25.6985 16.6667 25.6985H17.5V14.8652H16.6667C16.2058 14.8652 15.8333 14.4927 15.8333 14.0318C15.8333 13.5718 16.2058 13.1985 16.6667 13.1985H23.3333C23.7942 13.1985 24.1667 13.5718 24.1667 14.0318C24.1667 14.4927 23.7942 14.8652 23.3333 14.8652H22.5V25.6985H23.3333ZM20.8333 14.8652H19.1667V25.6985H20.8333V14.8652ZM36.6667 29.8652C36.6667 30.326 36.2942 30.6985 35.8333 30.6985H4.16667C3.70583 30.6985 3.33333 30.326 3.33333 29.8652C3.33333 29.4043 3.70583 29.0318 4.16667 29.0318H35.8333C36.2942 29.0318 36.6667 29.4043 36.6667 29.8652ZM33.3333 25.6985C33.7942 25.6985 34.1667 26.071 34.1667 26.5318C34.1667 26.9927 33.7942 27.3652 33.3333 27.3652H26.6667C26.2058 27.3652 25.8333 26.9927 25.8333 26.5318C25.8333 26.071 26.2058 25.6985 26.6667 25.6985H27.5V14.8652H26.6667C26.2058 14.8652 25.8333 14.4927 25.8333 14.0318C25.8333 13.5718 26.2058 13.1985 26.6667 13.1985H33.3333C33.7942 13.1985 34.1667 13.5718 34.1667 14.0318C34.1667 14.4927 33.7942 14.8652 33.3333 14.8652H32.5V25.6985H33.3333ZM30.8333 14.8652H29.1667V25.6985H30.8333V14.8652ZM2.5 9.86516L20 0.333496L37.5 9.86516V11.5318H2.5V9.86516ZM33.7842 9.86516L20 2.7385L6.16333 9.86516H33.7842Z" fill="#008DD2"/>
</svg>
