<svg width="40" height="40" viewBox="0 0 40 40" fill="none" xmlns="http://www.w3.org/2000/svg">
<path d="M15 16.25L12.5 5C17.25 2.625 22.75 2.625 27.5 5L25 16.25" stroke="#008DD2" stroke-width="2" stroke-miterlimit="10" stroke-linecap="round" stroke-linejoin="round"/>
<path d="M27.125 7C31.125 9.375 33.75 13.75 33.75 18.75V21.25L36.25 23.75H20H3.75L6.25 21.25V18.75C6.25 13.75 8.875 9.375 12.875 7" stroke="#008DD2" stroke-width="2" stroke-miterlimit="10" stroke-linecap="round" stroke-linejoin="round"/>
<path d="M9.875 23.875C9.75 24.625 9.625 25.5 9.625 26.25C9.625 27.125 9.75 27.875 9.875 28.625C11.125 28.5 12.375 29 13 30.25C13.625 31.375 13.5 32.75 12.75 33.75C13.875 34.875 15.375 35.75 17 36.25C17.5 35.125 18.625 34.25 20 34.25C21.375 34.25 22.5 35.125 23 36.25C24.625 35.75 26 34.875 27.25 33.75C26.5 32.75 26.375 31.375 27 30.25C27.625 29.125 29 28.5 30.125 28.625C30.25 27.875 30.375 27 30.375 26.25C30.375 25.375 30.25 24.625 30.125 23.875" stroke="#008DD2" stroke-width="2" stroke-miterlimit="10" stroke-linecap="round" stroke-linejoin="round"/>
<path d="M17.25 23.75C16.625 24.375 16.25 25.25 16.25 26.25C16.25 28.375 17.875 30 20 30C22.125 30 23.75 28.375 23.75 26.25C23.75 25.25 23.375 24.375 22.75 23.75" stroke="#008DD2" stroke-width="2" stroke-miterlimit="10" stroke-linecap="round" stroke-linejoin="round"/>
</svg>
