<svg width="45" height="45" viewBox="0 0 45 45" fill="none" xmlns="http://www.w3.org/2000/svg">
<path d="M38.7321 20.3303C38.4911 20.1696 38.0893 20.2499 37.8482 20.4106L31.6607 25.3124V20.6517C31.6607 20.3303 31.5 20.0892 31.2589 19.9285C31.0179 19.7678 30.6964 19.8481 30.4554 20.0089L22.9018 25.4731L22.5 20.4106C22.5 20.1696 22.3393 19.8481 22.0982 19.7678C21.8571 19.6071 21.5357 19.6874 21.2946 19.7678L12.2143 25.2321V17.8392C12.7768 17.5178 13.2589 17.116 13.5804 16.5535C13.9821 16.7142 14.4643 16.7142 14.9464 16.7142C16.7143 16.7142 18.2411 15.7499 19.0446 14.3035C19.2857 14.3035 19.5268 14.3839 19.8482 14.3839C23.1429 14.3839 25.7946 11.7321 25.7946 8.43743C25.7946 5.14279 23.1429 2.41064 19.8482 2.41064C16.875 2.41064 14.4643 4.49993 13.9821 7.39279C11.8929 7.79457 10.3661 9.56243 10.2054 11.7321C8.67857 11.9731 7.47322 13.3392 7.47322 14.9464C7.47322 15.0267 7.47322 15.1071 7.47322 15.1071H6.66965C6.1875 15.1071 5.86607 15.4285 5.86607 15.9106V41.7856C5.86607 42.2678 6.1875 42.5892 6.66965 42.5892H38.4107C38.8929 42.5892 39.2143 42.2678 39.2143 41.7856V21.0535C39.1339 20.7321 38.9732 20.491 38.7321 20.3303ZM9.08036 14.9464C9.08036 13.9821 9.80357 13.2589 10.7679 13.2589C10.8482 13.2589 10.9286 13.2589 11.0089 13.2589C11.25 13.2589 11.4911 13.1785 11.6518 13.0178C11.8125 12.8571 11.8929 12.616 11.8929 12.3749C11.8929 12.2142 11.8929 12.1339 11.8929 11.9731C11.8929 10.366 13.1786 8.91957 14.7857 8.83922C15.1875 8.83922 15.5089 8.51779 15.5089 8.116C15.5893 5.78564 17.5179 4.01779 19.8482 4.01779C22.2589 4.01779 24.1875 5.94636 24.1875 8.43743C24.1875 10.8481 22.2589 12.7767 19.8482 12.7767C19.5268 12.7767 19.125 12.6964 18.8036 12.616C18.4018 12.5356 18 12.6964 17.8393 13.0981C17.3571 14.3035 16.2321 15.1071 14.9464 15.1071C14.4643 15.1071 13.9821 15.0267 13.5 14.7856C13.2589 14.7053 13.0179 14.7053 12.7768 14.7856C12.5357 14.866 12.375 15.1071 12.2946 15.3481C12.2946 15.5089 12.2143 15.6696 12.1339 15.8303C12.0536 15.4285 11.7321 15.1874 11.3304 15.1874H9C9.08036 15.1071 9.08036 15.0267 9.08036 14.9464ZM8.4375 16.7142H10.6071V17.9999H7.47322V16.7142H8.4375ZM37.5268 40.9821H7.47322V19.6874H10.6071V26.6785C10.6071 26.9999 10.7679 27.241 11.0089 27.4017C11.25 27.5624 11.5714 27.5624 11.8125 27.4017L20.9732 21.9374L21.375 27.0803C21.375 27.4017 21.5357 27.6428 21.8571 27.7231C22.0982 27.8839 22.4196 27.8035 22.6607 27.6428L30.1339 22.2589V26.9999C30.1339 27.3214 30.2946 27.5624 30.6161 27.7231C30.8571 27.8839 31.2589 27.8035 31.5 27.6428L37.6875 22.741V40.9821H37.5268Z" fill="#008DD2"/>
<path d="M32.3839 38.5713H35.8393C36.3214 38.5713 36.6429 38.2499 36.6429 37.7677V34.3124C36.6429 33.8302 36.3214 33.5088 35.8393 33.5088H32.3839C31.9018 33.5088 31.5804 33.8302 31.5804 34.3124V37.7677C31.5804 38.2499 31.9018 38.5713 32.3839 38.5713ZM33.1875 35.1159H35.0357V36.9641H33.1875V35.1159Z" fill="#008DD2"/>
<path d="M22.2589 33.5088H18.8036C18.3214 33.5088 18 33.8302 18 34.3124V37.7677C18 38.2499 18.3214 38.5713 18.8036 38.5713H22.2589C22.7411 38.5713 23.0625 38.2499 23.0625 37.7677V34.3124C23.0625 33.9106 22.6607 33.5088 22.2589 33.5088ZM21.4554 36.9641H19.6071V35.1159H21.4554V36.9641Z" fill="#008DD2"/>
<path d="M15.5089 29.1694H12.0536C11.5714 29.1694 11.25 29.4909 11.25 29.973V33.4284C11.25 33.9105 11.5714 34.2319 12.0536 34.2319H15.5089C15.9911 34.2319 16.3125 33.9105 16.3125 33.4284V29.973C16.3125 29.5712 15.9107 29.1694 15.5089 29.1694ZM14.7054 32.7051H12.8571V30.8569H14.7054V32.7051Z" fill="#008DD2"/>
<path d="M29.0089 29.1694H25.5536C25.0714 29.1694 24.75 29.4909 24.75 29.973V33.4284C24.75 33.9105 25.0714 34.2319 25.5536 34.2319H29.0089C29.4911 34.2319 29.8125 33.9105 29.8125 33.4284V29.973C29.8125 29.5712 29.4911 29.1694 29.0089 29.1694ZM28.2054 32.7051H26.3572V30.8569H28.2054V32.7051Z" fill="#008DD2"/>
</svg>
