<svg width="24" height="24" viewBox="0 0 24 24" fill="none" xmlns="http://www.w3.org/2000/svg">
<path d="M22.7735 14.4286C22.9402 13.6845 23.0236 12.9167 23.0236 12.125C23.0236 6.19048 18.1414 1.375 12.116 1.375C11.479 1.375 10.8598 1.42857 10.2525 1.52976C9.28197 0.92262 8.13287 0.571429 6.89446 0.571429C3.40547 0.571429 0.571411 3.3631 0.571411 6.80357C0.571411 7.95833 0.886968 9.03572 1.44068 9.95833C1.29779 10.6548 1.22039 11.381 1.22039 12.119C1.22039 18.0595 6.10259 22.869 12.122 22.869C12.8067 22.869 13.4735 22.8095 14.1165 22.6905C15.0096 23.1607 16.0277 23.4286 17.1054 23.4286C20.6003 23.4286 23.4284 20.6369 23.4284 17.1964C23.4344 16.2024 23.1962 15.2619 22.7735 14.4286ZM17.7127 17.256C17.2066 17.9583 16.4624 18.5179 15.4978 18.9107C14.5393 19.3036 13.3961 19.5 12.0863 19.5C10.5204 19.5 9.21052 19.2262 8.1805 18.6905C7.44817 18.2976 6.84683 17.7738 6.38242 17.119C5.91802 16.4643 5.68581 15.8095 5.68581 15.1786C5.68581 14.7857 5.84062 14.4464 6.13831 14.1607C6.43601 13.8869 6.82301 13.744 7.27551 13.744C7.6506 13.744 7.97211 13.8512 8.23408 14.0714C8.48415 14.2798 8.69849 14.5893 8.87115 14.994C9.06763 15.4286 9.27602 15.7976 9.50227 16.0893C9.71661 16.369 10.0203 16.6012 10.4132 16.7857C10.8121 16.9702 11.342 17.0655 11.997 17.0655C12.896 17.0655 13.6343 16.875 14.188 16.5C14.7357 16.1369 14.9977 15.6964 14.9977 15.1607C14.9977 14.7381 14.8608 14.4048 14.575 14.1429C14.2773 13.869 13.8903 13.6548 13.408 13.5119C12.9139 13.3571 12.2411 13.1964 11.4075 13.0238C10.2763 12.7857 9.31769 12.5 8.54964 12.1786C7.76968 11.8512 7.13857 11.3929 6.67416 10.8274C6.2038 10.25 5.9716 9.52381 5.9716 8.67262C5.9716 7.85714 6.22167 7.13095 6.70989 6.5C7.19811 5.875 7.90662 5.38691 8.82947 5.05357C9.73447 4.72024 10.8121 4.55357 12.0267 4.55357C13.0032 4.55357 13.8546 4.66667 14.569 4.88095C15.2895 5.10119 15.8908 5.39881 16.3731 5.76786C16.8494 6.13691 17.2066 6.52976 17.4329 6.94048C17.6591 7.35714 17.7722 7.76786 17.7722 8.16667C17.7722 8.54762 17.6234 8.89881 17.3257 9.20238C17.028 9.50595 16.6529 9.66667 16.2064 9.66667C15.8015 9.66667 15.4859 9.57143 15.2656 9.38095C15.0632 9.20238 14.8489 8.92857 14.6167 8.52976C14.3428 8.02381 14.0153 7.61905 13.6402 7.33333C13.2711 7.05953 12.6638 6.91667 11.8183 6.91667C11.0384 6.91667 10.4013 7.07143 9.93095 7.375C9.47845 7.66667 9.25816 8.00595 9.25816 8.40476C9.25816 8.64881 9.3296 8.85119 9.47845 9.02976C9.63325 9.21429 9.84759 9.38095 10.1274 9.51786C10.4132 9.66072 10.7109 9.77381 11.0026 9.85119C11.3063 9.93452 11.8124 10.0595 12.509 10.2143C13.3961 10.3988 14.2058 10.6131 14.9203 10.8333C15.6467 11.0655 16.2719 11.3452 16.7839 11.6726C17.3078 12.006 17.7187 12.4405 18.0163 12.9524C18.3081 13.4643 18.4569 14.1071 18.4569 14.8452C18.4808 15.744 18.2247 16.5536 17.7127 17.256Z" fill="white"/>
</svg>
