<svg width="21" height="33" viewBox="0 0 21 33" fill="none" xmlns="http://www.w3.org/2000/svg">
<path d="M4.52082 9.2085V7.021H16.4792V9.2085H4.52082ZM2.47916 32.5418C1.89582 32.5418 1.38541 32.3231 0.947906 31.8856C0.510406 31.4481 0.291656 30.9377 0.291656 30.3543V2.646C0.291656 2.06266 0.510406 1.55225 0.947906 1.11475C1.38541 0.677246 1.89582 0.458496 2.47916 0.458496H18.5208C19.1042 0.458496 19.6146 0.677246 20.0521 1.11475C20.4896 1.55225 20.7083 2.06266 20.7083 2.646V30.3543C20.7083 30.9377 20.4896 31.4481 20.0521 31.8856C19.6146 32.3231 19.1042 32.5418 18.5208 32.5418H2.47916ZM2.47916 29.2606V30.3543H18.5208V29.2606H2.47916ZM2.47916 27.0731H18.5208V5.92725H2.47916V27.0731ZM2.47916 3.73975H18.5208V2.646H2.47916V3.73975Z" fill="#008DD2"/>
</svg>
