<svg width="18" height="18" viewBox="0 0 18 18" fill="none" xmlns="http://www.w3.org/2000/svg">
<path d="M16.9681 8.16812L11.75 1.29312C11.5233 1.02103 11.2003 0.846918 10.8484 0.807052C10.4965 0.767186 10.1428 0.864645 9.86096 1.07912C9.57912 1.2936 9.39092 1.60855 9.33555 1.95836C9.28018 2.30816 9.36193 2.66584 9.56375 2.95687L13.125 7.625H2.125C1.76033 7.625 1.41059 7.76986 1.15273 8.02773C0.894866 8.28559 0.75 8.63532 0.75 9C0.75 9.36467 0.894866 9.71441 1.15273 9.97227C1.41059 10.2301 1.76033 10.375 2.125 10.375H13.125L9.57062 15.0431C9.4444 15.1844 9.34875 15.3503 9.28967 15.5304C9.23059 15.7104 9.20936 15.9007 9.2273 16.0893C9.24525 16.278 9.30199 16.4608 9.39397 16.6265C9.48594 16.7922 9.61116 16.937 9.76177 17.052C9.91238 17.167 10.0851 17.2496 10.2692 17.2946C10.4532 17.3397 10.6446 17.3462 10.8313 17.3138C11.018 17.2814 11.196 17.2108 11.3541 17.1063C11.5121 17.0019 11.6469 16.8659 11.75 16.7069L16.9887 9.83187C17.1676 9.59039 17.2624 9.29698 17.2586 8.99652C17.2549 8.69606 17.1529 8.40509 16.9681 8.16812Z" fill="#008DD2"/>
</svg>
