<svg width="820" height="413" viewBox="0 0 820 413" fill="none" xmlns="http://www.w3.org/2000/svg">
<rect width="820" height="413" rx="8" fill="#F2F7F9"/>
<g opacity="0.5">
<mask id="mask0_229_434" style="mask-type:alpha" maskUnits="userSpaceOnUse" x="0" y="1" width="819" height="412">
<g opacity="0.1">
<rect y="1" width="819" height="412" rx="8" fill="#F2F7F9"/>
<rect x="0.5" y="1.5" width="818" height="411" rx="7.5" stroke="black" stroke-opacity="0.7"/>
</g>
</mask>
<g mask="url(#mask0_229_434)">
<path d="M-61.6699 850.478C-27.7482 807.459 -1.79607 758.617 14.9392 706.299C54.0227 582.229 15.1716 510.839 53.8196 482.378C113.543 438.407 222.981 596.702 373.574 570.18C484.032 550.742 562.421 441.383 580.559 416.055C651.349 317.316 637.69 243.522 704.692 215.516C753.683 194.976 782.084 225.608 865.359 211.038C923.332 200.892 967.94 175.852 996.877 156.003" stroke="black" stroke-opacity="0.7" stroke-miterlimit="10"/>
<path d="M-64.7539 842.221C-30.8314 799.192 -4.87554 750.343 11.8678 698.018C50.946 573.93 12.1002 502.558 50.7303 474.103C110.472 430.127 219.909 588.422 370.484 561.905C480.955 542.443 559.344 433.084 577.488 407.774C648.277 309.036 634.601 235.248 701.62 207.236C750.612 186.696 778.995 217.333 862.288 202.757C920.279 192.607 964.868 167.572 993.806 147.723" stroke="black" stroke-opacity="0.7" stroke-miterlimit="10"/>
<path d="M-67.8379 833.963C-33.9092 790.939 -7.95271 742.089 8.78381 689.761C47.862 565.673 9.01621 494.301 47.6642 465.841C107.334 421.885 216.843 580.159 367.418 553.643C477.871 534.186 556.26 424.827 574.404 399.517C645.188 300.76 631.535 226.985 698.536 198.979C747.528 178.439 775.934 209.088 859.209 194.518C917.2 184.368 961.79 159.332 990.727 139.484" stroke="black" stroke-opacity="0.7" stroke-miterlimit="10"/>
<path d="M-70.8867 825.697C-36.9711 782.663 -11.0231 733.809 5.71176 681.482C44.79 557.394 5.94418 486.022 44.5742 457.567C104.316 413.59 213.753 571.885 364.329 545.369C474.799 525.907 553.188 416.548 571.332 391.238C642.116 292.481 628.445 218.711 695.464 190.699C744.456 170.159 772.844 200.814 856.137 186.239C914.128 176.088 958.718 151.053 987.655 131.205" stroke="black" stroke-opacity="0.7" stroke-miterlimit="10"/>
<path d="M-73.9922 817.446C-40.0697 774.417 -14.1138 725.568 2.62953 673.243C41.7257 549.15 2.85663 477.765 41.51 449.323C101.233 405.351 210.689 563.641 361.264 537.125C471.735 517.663 550.106 408.309 568.267 382.994C639.034 284.242 625.381 210.467 692.382 182.461C741.373 161.921 769.78 192.57 853.055 178C911.046 167.85 955.63 142.796 984.573 122.966" stroke="black" stroke-opacity="0.7" stroke-miterlimit="10"/>
<path d="M-77.0586 809.183C-43.1416 766.151 -17.1862 717.303 -0.436863 664.98C38.6413 540.892 -0.20976 469.502 38.4256 441.066C98.1132 397.105 207.605 555.384 358.219 528.935C468.671 509.478 547.061 400.119 565.204 374.809C635.989 276.052 622.318 202.282 689.337 174.271C738.328 153.731 766.717 184.386 850.01 169.81C908.001 159.66 952.585 134.606 981.545 114.771" stroke="black" stroke-opacity="0.7" stroke-miterlimit="10"/>
<path d="M-80.1133 800.898C-46.1984 757.863 -20.2577 709.004 -3.53805 656.67C35.5581 532.577 -3.31095 461.192 35.3424 432.75C95.0606 388.761 204.516 547.05 355.091 520.534C465.567 501.09 543.939 391.737 562.1 366.421C632.866 267.67 619.213 193.894 686.214 165.888C735.206 145.348 763.612 175.998 846.888 161.428C904.873 151.259 949.463 126.224 978.405 106.393" stroke="black" stroke-opacity="0.7" stroke-miterlimit="10"/>
<path d="M-83.1914 792.721C-49.2627 749.697 -23.3062 700.846 -6.56969 648.519C32.5138 524.449 -6.33728 453.059 32.2928 424.604C92.0342 380.627 201.472 538.922 352.065 512.401C462.523 492.962 540.912 383.603 559.05 358.275C629.84 259.536 616.169 185.766 683.183 157.736C732.174 137.196 760.581 167.846 843.85 153.258C901.823 143.113 946.413 118.077 975.368 98.2236" stroke="black" stroke-opacity="0.7" stroke-miterlimit="10"/>
<path d="M-86.2988 784.394C-52.3697 741.364 -26.4078 692.514 -9.65919 640.186C29.4243 516.116 -9.44474 444.731 29.2033 416.271C88.8909 372.31 198.382 530.589 348.973 504.127C459.449 484.683 537.821 375.33 555.977 349.996C626.748 251.263 613.09 177.469 680.091 149.463C729.083 128.923 757.484 159.555 840.759 144.984C898.75 134.834 943.339 109.799 972.277 89.9503" stroke="black" stroke-opacity="0.7" stroke-miterlimit="10"/>
<path d="M-89.3301 776.121C-55.4214 733.07 -29.4847 684.199 -12.7655 631.857C26.3127 507.769 -12.533 436.397 26.115 407.937C85.8385 363.965 195.276 522.26 345.869 495.739C456.327 476.3 534.716 366.941 552.855 341.613C623.644 242.874 609.968 169.086 676.987 141.075C725.978 120.535 754.38 151.166 837.655 136.596C895.628 126.451 940.218 101.416 969.172 81.5618" stroke="black" stroke-opacity="0.7" stroke-miterlimit="10"/>
<path d="M-92.4219 767.905C-58.5049 724.872 -32.5495 676.024 -15.8002 623.702C23.278 499.614 -15.5677 428.242 23.0623 399.787C82.7858 355.816 192.241 514.105 342.817 487.589C453.287 468.127 531.658 358.774 549.82 333.458C620.592 234.725 606.933 160.931 673.952 132.92C722.926 112.385 751.327 143.017 834.62 128.441C892.611 118.291 937.201 93.2555 966.138 73.407" stroke="black" stroke-opacity="0.7" stroke-miterlimit="10"/>
<path d="M-95.5176 759.613C-61.5951 716.584 -35.6392 667.735 -18.8959 615.411C20.1823 491.323 -18.6635 419.951 19.9845 391.49C79.708 347.519 189.145 505.814 339.739 479.292C450.191 459.836 528.581 350.477 546.724 325.167C617.508 226.41 603.837 152.64 670.856 124.628C719.848 104.088 748.254 134.738 831.529 120.168C889.502 110.023 934.092 84.9873 963.047 65.1336" stroke="black" stroke-opacity="0.7" stroke-miterlimit="10"/>
<path d="M-98.5488 751.34C-64.6373 708.304 -38.6825 659.457 -21.9271 607.138C17.1511 483.05 -21.6947 411.678 16.9354 383.223C76.6283 339.28 186.136 497.613 336.654 471.036C447.124 451.573 525.496 342.22 543.657 316.904C614.423 218.153 600.77 144.377 667.789 116.366C716.763 95.8313 745.169 126.481 828.463 111.905C886.453 101.755 931.038 76.7016 959.98 56.8712" stroke="black" stroke-opacity="0.7" stroke-miterlimit="10"/>
<path d="M-101.67 743.094C-67.7474 700.065 -41.7915 651.216 -25.0482 598.891C14.03 474.803 -24.8211 403.413 13.8322 374.971C73.5557 331 182.993 489.295 333.587 462.773C444.039 443.316 522.428 333.957 540.554 308.653C611.338 209.896 597.667 136.126 664.686 108.114C713.678 87.5743 742.084 118.224 825.359 103.654C883.332 93.5086 927.917 68.4552 956.877 48.6195" stroke="black" stroke-opacity="0.7" stroke-miterlimit="10"/>
<path d="M-104.736 734.832C-70.8193 691.8 -44.864 642.952 -28.1146 590.63C10.9636 466.542 -27.8875 395.152 10.7479 366.715C70.4534 322.749 179.927 481.033 330.497 454.499C440.967 435.037 519.339 325.683 537.5 300.368C608.266 201.616 594.613 127.841 661.632 99.8294C710.606 79.2948 739.012 109.944 822.305 95.3688C880.291 85.2004 924.881 60.1651 953.823 40.3348" stroke="black" stroke-opacity="0.7" stroke-miterlimit="10"/>
<path d="M-107.773 726.541C-73.8396 683.52 -47.8826 634.669 -31.1517 582.339C7.93179 458.269 -30.9193 386.879 7.73401 358.437C67.3984 314.463 176.906 472.796 327.429 446.237C437.887 426.798 516.276 317.439 534.42 292.129C605.204 193.372 591.533 119.602 658.552 91.5906C707.544 71.0507 735.95 101.7 819.225 87.13C877.193 76.9669 921.783 51.9316 950.743 32.0959" stroke="black" stroke-opacity="0.7" stroke-miterlimit="10"/>
<path d="M-110.898 718.278C-76.9697 675.254 -51.0132 626.403 -34.2767 574.076C4.80678 450.006 -34.0443 378.616 4.58575 350.161C64.3092 306.189 173.765 464.479 324.34 437.963C434.816 418.519 513.187 309.165 531.343 283.832C602.115 185.098 588.457 111.305 655.475 83.2933C704.467 62.7533 732.85 93.3902 816.143 78.8146C874.134 68.6643 918.724 43.629 947.661 23.7806" stroke="black" stroke-opacity="0.7" stroke-miterlimit="10"/>
<path d="M-113.979 710.039C-80.0498 667.014 -54.0933 618.164 -37.3568 565.836C1.72669 441.767 -37.1244 370.376 1.52359 341.916C61.2291 297.95 170.685 456.24 321.267 429.682C431.725 410.243 510.114 300.884 528.252 275.556C599.042 176.818 585.366 103.029 652.385 75.0178C701.376 54.4779 729.777 85.1093 813.053 70.5391C871.025 60.3941 915.615 35.3588 944.57 15.505" stroke="black" stroke-opacity="0.7" stroke-miterlimit="10"/>
<path d="M-116.99 701.761C-83.0677 658.732 -57.1118 609.883 -40.3685 557.559C-1.29032 433.471 -40.1361 362.098 -1.50604 333.644C58.153 289.652 167.678 447.98 318.194 421.462C428.665 402 507.054 292.641 525.198 267.331C595.969 168.597 582.311 94.8038 649.33 66.7923C698.322 46.2523 726.705 76.8891 809.998 62.3135C867.989 52.1631 912.578 27.1279 941.515 7.27945" stroke="black" stroke-opacity="0.7" stroke-miterlimit="10"/>
<path d="M-120.145 693.467C-86.2158 650.443 -60.2593 601.592 -43.5228 549.265C-4.44465 425.177 -43.2904 353.805 -4.64242 325.344C55.0811 281.373 164.519 439.668 315.112 413.146C425.58 393.744 503.97 284.385 522.113 259.075C592.897 160.318 579.226 86.5482 646.245 58.5366C695.237 37.9966 723.643 68.6462 806.918 54.076C864.891 43.931 909.481 18.8957 938.436 -0.958074" stroke="black" stroke-opacity="0.7" stroke-miterlimit="10"/>
<path d="M-123.197 685.258C-89.2748 642.23 -63.3189 593.381 -46.5756 541.056C-7.49737 416.968 -46.3432 345.596 -7.71309 317.141C52.0104 273.17 161.466 431.459 312.02 404.871C422.49 385.408 500.88 276.05 519.023 250.739C589.79 151.988 576.136 78.2127 643.155 50.2012C692.147 29.6612 720.535 60.3162 803.829 45.7406C861.819 35.5902 906.409 10.5549 935.346 -9.29349" stroke="black" stroke-opacity="0.7" stroke-miterlimit="10"/>
<path d="M-126.211 676.98C-92.2884 633.951 -66.3326 585.102 -49.5892 532.778C-10.511 408.69 -49.3621 337.299 -10.7088 308.857C48.9217 264.835 158.447 423.163 308.974 396.681C419.426 377.224 497.815 267.865 515.959 242.555C586.743 143.798 573.072 70.0282 640.091 42.0167C689.083 21.4767 717.489 52.1262 800.764 37.556C858.737 27.411 903.34 2.35227 932.282 -17.478" stroke="black" stroke-opacity="0.7" stroke-miterlimit="10"/>
<path d="M-129.373 668.65C-95.456 625.618 -69.5007 576.77 -52.7513 524.448C-13.6732 400.36 -52.5242 328.97 -13.8889 300.533C45.8346 256.562 155.29 414.851 305.865 388.335C416.362 368.963 494.752 259.605 512.895 234.294C583.679 135.538 570.008 61.7678 637.027 33.7562C686.019 13.2162 714.407 43.8712 797.701 29.2956C855.691 19.1453 900.276 -5.90815 929.218 -25.7385" stroke="black" stroke-opacity="0.7" stroke-miterlimit="10"/>
<path d="M-132.438 660.465C-98.5088 617.446 -72.5506 568.602 -55.8105 516.281C-16.7323 392.193 -55.5834 320.803 -16.9301 292.361C42.7881 248.371 152.226 406.666 302.824 380.163C413.277 360.706 491.666 251.347 509.809 226.037C580.594 127.28 566.941 53.5047 633.942 25.4985C682.933 4.95849 711.34 35.608 794.615 21.0378C852.582 10.8747 897.19 -14.1659 926.133 -33.9962" stroke="black" stroke-opacity="0.7" stroke-miterlimit="10"/>
<path d="M-135.434 652.185C-101.505 609.16 -75.5484 560.31 -58.8119 507.982C-19.7284 383.912 -58.5795 312.522 -19.9494 284.068C39.6937 240.022 149.219 398.349 299.733 371.891C410.209 352.447 488.598 243.088 506.736 217.76C577.526 119.021 563.855 45.2511 630.869 17.2214C679.86 -3.31856 708.249 27.3364 791.536 12.7427C849.527 2.59232 894.117 -22.443 923.054 -42.2914" stroke="black" stroke-opacity="0.7" stroke-miterlimit="10"/>
<path d="M-138.59 643.949C-104.661 600.925 -78.7047 552.074 -61.9681 499.747C-22.8846 375.677 -61.7357 304.287 -23.0877 275.827C36.6357 231.855 146.091 390.145 296.667 363.629C407.124 344.19 485.53 234.885 503.67 209.497C574.441 110.764 560.783 36.9706 627.784 8.96445C676.776 -11.5755 705.177 19.056 788.452 4.48579C846.443 -5.66456 891.033 -30.6999 919.97 -50.5483" stroke="black" stroke-opacity="0.7" stroke-miterlimit="10"/>
<path d="M-141.656 635.688C-107.734 592.659 -81.7779 543.81 -65.0345 491.485C-25.9564 367.397 -64.8021 296.025 -26.1721 267.57C33.5694 223.593 143.007 381.888 293.582 355.372C404.058 335.928 482.447 226.569 500.585 201.241C571.375 102.502 557.699 28.7144 624.718 0.702855C673.709 -19.8371 702.092 10.7997 785.386 -3.77591C843.376 -13.9263 887.966 -38.9615 916.903 -58.81" stroke="black" stroke-opacity="0.7" stroke-miterlimit="10"/>
</g>
</g>
</svg>
