<svg width="32" height="33" viewBox="0 0 32 33" fill="none" xmlns="http://www.w3.org/2000/svg">
<path d="M23.2445 32.1609C22.0224 32.1519 20.8056 31.9985 19.6195 31.7039C15.5234 30.7156 11.3055 28.2086 7.74453 24.6445C4.18359 21.0805 1.67343 16.8617 0.68515 12.7695C-0.355475 8.46484 0.386713 4.78203 2.77265 2.39609L3.4539 1.71484C4.07199 1.09798 4.90957 0.751541 5.78281 0.751541C6.65605 0.751541 7.49362 1.09798 8.11171 1.71484L12.0266 5.6289C12.6438 6.24679 12.9905 7.08444 12.9905 7.95781C12.9905 8.83117 12.6438 9.66882 12.0266 10.2867L9.71406 12.5984C10.8227 14.5437 12.3305 16.4906 14.1125 18.2726C15.8945 20.0547 17.843 21.5633 19.7875 22.6719L22.0992 20.3594C22.405 20.0535 22.7681 19.8108 23.1677 19.6452C23.5673 19.4797 23.9956 19.3945 24.4281 19.3945C24.8607 19.3945 25.289 19.4797 25.6886 19.6452C26.0882 19.8108 26.4512 20.0535 26.757 20.3594L30.6711 24.2734C31.2885 24.8911 31.6353 25.7286 31.6353 26.6019C31.6353 27.4752 31.2885 28.3128 30.6711 28.9305L29.9891 29.6117C28.307 31.2969 25.9789 32.1609 23.2445 32.1609ZM5.78281 3.09375C5.65807 3.09313 5.53446 3.11741 5.41923 3.16516C5.30399 3.21292 5.19945 3.2832 5.11171 3.37187L4.42968 4.05312C2.64296 5.83984 2.12109 8.74062 2.96015 12.2164C3.84843 15.8984 6.13515 19.7242 9.39843 22.9867C12.6617 26.2492 16.4867 28.5336 20.1695 29.425C23.6461 30.2641 26.5453 29.7422 28.332 27.9555L29.0133 27.2742C29.1913 27.0961 29.2913 26.8546 29.2913 26.6027C29.2913 26.3509 29.1913 26.1094 29.0133 25.9312L25.1 22.0172C24.9219 21.8392 24.6803 21.7392 24.4285 21.7392C24.1767 21.7392 23.9352 21.8392 23.757 22.0172L20.8266 24.9476C20.6507 25.1236 20.4235 25.239 20.1777 25.2772C19.9319 25.3154 19.6803 25.2744 19.4594 25.1601C17.057 23.918 14.6352 22.1094 12.4555 19.9297C10.2758 17.75 8.47109 15.3297 7.22578 12.9273C7.11142 12.7065 7.07029 12.455 7.10835 12.2092C7.14641 11.9634 7.26169 11.7361 7.43749 11.5602L10.3687 8.62968C10.5467 8.45154 10.6467 8.21002 10.6467 7.9582C10.6467 7.70637 10.5467 7.46485 10.3687 7.28671L6.45468 3.37187C6.36667 3.28335 6.26197 3.21318 6.14663 3.16544C6.0313 3.1177 5.90763 3.09333 5.78281 3.09375Z" fill="white"/>
<path d="M24.4961 18.0727C24.1853 18.0727 23.8872 17.9492 23.6675 17.7294C23.4477 17.5096 23.3242 17.2116 23.3242 16.9008C23.3219 14.8449 22.5043 12.8739 21.0507 11.4202C19.5971 9.9664 17.6261 9.14857 15.5703 9.14609C15.2595 9.14609 14.9614 9.02262 14.7417 8.80285C14.5219 8.58308 14.3984 8.28501 14.3984 7.97421C14.3984 7.66341 14.5219 7.36534 14.7417 7.14557C14.9614 6.9258 15.2595 6.80234 15.5703 6.80234C21.1383 6.80234 25.668 11.3336 25.668 16.9008C25.668 17.2116 25.5445 17.5096 25.3247 17.7294C25.105 17.9492 24.8069 18.0727 24.4961 18.0727Z" fill="white"/>
<path d="M29.4492 18.0726C29.1384 18.0726 28.8403 17.9492 28.6206 17.7294C28.4008 17.5096 28.2773 17.2116 28.2773 16.9008C28.2773 9.89374 22.5742 4.19296 15.5703 4.19296C15.2595 4.19296 14.9614 4.0695 14.7417 3.84973C14.5219 3.62996 14.3984 3.33189 14.3984 3.02109C14.3984 2.71029 14.5219 2.41222 14.7417 2.19245C14.9614 1.97268 15.2595 1.84921 15.5703 1.84921C23.8695 1.84921 30.6211 8.60155 30.6211 16.9008C30.6211 17.2116 30.4976 17.5096 30.2779 17.7294C30.0581 17.9492 29.76 18.0726 29.4492 18.0726Z" fill="white"/>
</svg>
