<svg width="48" height="48" viewBox="0 0 48 48" fill="none" xmlns="http://www.w3.org/2000/svg">
<path d="M44.5667 40.5058L37.3691 33.1197C37.0825 32.8255 36.615 32.8255 36.3283 33.1197L36.174 33.2781L33.6072 30.644C35.9579 27.6253 37.3691 23.801 37.3691 19.6372C37.3691 9.89759 29.6732 2 20.1824 2C10.6915 2 3 9.90212 3 19.6417C3 29.3813 10.6959 37.2789 20.1868 37.2789C24.2442 37.2789 27.9709 35.8307 30.9125 33.4184L33.4749 36.0479L33.3205 36.2063C33.0339 36.5005 33.0339 36.9802 33.3205 37.2744L40.5181 44.6606C40.9591 45.1131 41.6692 45.1131 42.1102 44.6606L44.5667 42.1397C45.0077 41.6871 45.0077 40.9584 44.5667 40.5058ZM20.1868 33.355C12.804 33.355 6.82369 27.2135 6.82369 19.6417C6.82369 12.07 12.8084 5.92843 20.1868 5.92843C27.5651 5.92843 33.5499 12.07 33.5499 19.6417C33.5499 27.2135 27.5651 33.355 20.1868 33.355ZM20.1868 21.3253C23.0226 21.3253 25.3203 18.9674 25.3203 16.0573C25.3203 13.1471 23.0226 10.7892 20.1868 10.7892C17.351 10.7892 15.0532 13.1471 15.0532 16.0573C15.0532 18.9674 17.351 21.3253 20.1868 21.3253ZM24.4515 22.8867H15.9176C15.0135 22.8867 14.277 23.6471 14.277 24.5704V30.5128C16.0279 31.5175 18.039 32.0923 20.1824 32.0923C22.3258 32.0923 24.3412 31.5175 26.0877 30.5128V24.5749C26.0921 23.6471 25.3512 22.8867 24.4515 22.8867Z" fill="#898989"/>
</svg>
