<svg width="11" height="11" viewBox="0 0 11 11" fill="none" xmlns="http://www.w3.org/2000/svg">
<path d="M5.39998 3.19922C3.98869 3.19922 2.81934 4.34841 2.81934 5.77986C2.81934 7.21132 3.96853 8.36051 5.39998 8.36051C6.83143 8.36051 7.98063 7.19115 7.98063 5.77986C7.98063 4.36857 6.81127 3.19922 5.39998 3.19922ZM5.39998 7.43309C4.49272 7.43309 3.74676 6.68712 3.74676 5.77986C3.74676 4.87261 4.49272 4.12664 5.39998 4.12664C6.30724 4.12664 7.05321 4.87261 7.05321 5.77986C7.05321 6.68712 6.30724 7.43309 5.39998 7.43309Z" fill="white"/>
<path d="M8.08126 3.72355C8.40417 3.72355 8.66594 3.46179 8.66594 3.13888C8.66594 2.81597 8.40417 2.5542 8.08126 2.5542C7.75835 2.5542 7.49658 2.81597 7.49658 3.13888C7.49658 3.46179 7.75835 3.72355 8.08126 3.72355Z" fill="white"/>
<path d="M9.59345 1.62666C9.06926 1.08231 8.32329 0.800049 7.47651 0.800049H3.32329C1.56926 0.800049 0.399902 1.9694 0.399902 3.72344V7.8565C0.399902 8.72344 0.68216 9.4694 1.24668 10.0138C1.79103 10.538 2.51684 10.8 3.34345 10.8H7.45635C8.32329 10.8 9.0491 10.5178 9.57329 10.0138C10.1176 9.48956 10.3999 8.7436 10.3999 7.87666V3.72344C10.3999 2.87666 10.1176 2.15086 9.59345 1.62666ZM9.5128 7.87666C9.5128 8.50166 9.29103 9.00569 8.92813 9.34844C8.56522 9.69118 8.06119 9.87263 7.45635 9.87263H3.34345C2.73861 9.87263 2.23458 9.69118 1.87168 9.34844C1.50877 8.98553 1.32732 8.4815 1.32732 7.8565V3.72344C1.32732 3.1186 1.50877 2.61456 1.87168 2.25166C2.21442 1.90892 2.73861 1.72747 3.34345 1.72747H7.49668C8.10151 1.72747 8.60555 1.90892 8.96845 2.27182C9.31119 2.63473 9.5128 3.13876 9.5128 3.72344V7.87666Z" fill="white"/>
</svg>
