<svg width="48" height="48" viewBox="0 0 48 48" fill="none" xmlns="http://www.w3.org/2000/svg">
<path d="M21.2094 21.9682C19.52 23.6576 19.52 26.4263 21.2094 28.1626C22.8988 29.852 25.6675 29.852 27.4038 28.1626C29.0932 26.4732 29.0932 23.7045 27.4038 21.9682C25.6675 20.2788 22.8988 20.2788 21.2094 21.9682Z" fill="#898989"/>
<path d="M39.6034 12.4436H32.7989V9.11173C32.7989 7.93855 31.8604 7 30.6872 7H17.5475C16.3743 7 15.4358 7.93855 15.4358 9.11173V12.4436H8.63129C5.53408 12.4436 3 14.9777 3 18.0749V34.9687C3 38.0659 5.53408 40.6 8.63129 40.6H39.6034C42.7006 40.6 45.2347 38.0659 45.2347 34.9687V18.0749C45.2347 14.9777 42.7006 12.4436 39.6034 12.4436ZM16.8905 9.58101C16.8905 9.01788 17.3598 8.50168 17.9698 8.50168H30.3587C30.9218 8.50168 31.438 8.97095 31.438 9.58101V12.4436H16.8905V9.58101ZM32.4235 34.5933L27.7308 29.9006C25.4313 31.543 22.1933 31.3084 20.1285 29.2436C17.8291 26.9441 17.8291 23.1899 20.1285 20.8905C22.428 18.5911 26.1821 18.5911 28.4816 20.8905C30.5464 22.9553 30.7341 26.1464 29.1386 28.4927L33.8313 33.1855L32.4235 34.5933Z" fill="#898989"/>
</svg>
