<svg width="10" height="10" viewBox="0 0 10 10" fill="none" xmlns="http://www.w3.org/2000/svg">
<path d="M0.717251 3.76479H2.68892V9.56316H0.717251V3.76479ZM1.71628 0.969727C1.04146 0.969727 0.600586 1.40267 0.600586 1.97092C0.600586 2.52748 1.02856 2.97301 1.69048 2.97301H1.70305C2.39077 2.97301 2.81906 2.52746 2.81906 1.97092C2.80615 1.40267 2.3908 0.969727 1.71628 0.969727ZM7.52992 3.62858C6.48333 3.62858 6.01446 4.19114 5.75289 4.58566V3.76479H3.78063C3.80674 4.30875 3.78063 9.56316 3.78063 9.56316H5.75289V6.32494C5.75289 6.15151 5.7658 5.97871 5.81769 5.85447C5.96048 5.50825 6.28498 5.14971 6.82929 5.14971C7.54343 5.14971 7.82863 5.68168 7.82863 6.46081V9.56313H9.80059V6.23824C9.80059 4.45726 8.82797 3.62858 7.52992 3.62858Z" fill="white"/>
</svg>
