<svg width="300" height="202" viewBox="0 0 300 202" fill="none" xmlns="http://www.w3.org/2000/svg">
<circle cx="40.5" cy="197.5" r="4.5" fill="#393185"/>
<path d="M130.017 158.971L38.5772 168.691C38.2472 168.691 37.9172 168.761 37.5772 168.771C27.5172 169.091 29.5773 170.231 29.0673 161.121C28.9073 158.481 28.4973 155.861 28.2073 153.221C29.4973 151.771 31.2072 152.731 32.6672 152.511C34.382 152.94 36.1544 153.092 37.9172 152.961C40.7872 153.101 43.6272 153.881 46.5272 153.361C44.6862 153.516 42.8345 153.496 40.9972 153.301C38.9972 152.691 36.9073 153.081 34.8673 152.911C32.4773 152.241 30.0173 152.531 27.5873 152.371C26.8973 152.041 26.8973 151.721 27.5873 151.371C28.2373 140.881 26.2973 130.541 25.6573 120.131C24.5373 101.901 22.6573 83.7314 21.1573 65.5314C20.4573 57.2614 19.8972 48.9714 19.0572 40.7114C18.7172 37.4414 19.8773 36.7114 22.9273 37.0914C46.0873 40.3314 69.2372 43.6914 92.4472 46.5214C99.0572 47.3314 105.647 49.8814 112.447 47.8814C112.781 47.8779 113.105 47.9955 113.359 48.2125C113.612 48.4294 113.779 48.731 113.827 49.0614C122.537 51.1614 131.467 51.7614 140.287 53.0614C159.017 55.7514 177.767 58.2514 196.507 60.7814C214.441 63.2014 232.371 65.5847 250.297 67.9314L283.357 72.3314C285.597 72.6314 286.767 73.2214 286.237 76.1414C282.297 97.8414 278.557 119.581 274.847 141.321C274.337 144.321 272.097 144.431 270.057 144.661C259.167 145.851 248.257 146.871 237.357 148.001C219.197 149.871 201.037 151.801 182.877 153.681C171.964 154.808 161.057 155.895 150.157 156.941C148.157 157.131 146.157 156.941 144.747 158.761C142.747 160.151 140.537 159.121 138.447 159.411C135.675 158.847 132.834 158.699 130.017 158.971Z" fill="#393185"/>
<path fill-rule="evenodd" clip-rule="evenodd" d="M241.497 2.00378C241.497 4.34278 241.136 4.56279 237.297 4.56279C232.608 4.56279 233.105 6.19979 237.957 6.73579C240.123 6.97479 241.103 7.73379 241.608 9.56279L242.298 12.0628L242.397 9.39578C242.452 7.92978 243.06 6.46678 243.747 6.14578C244.651 5.72378 244.68 5.41078 243.853 5.01478C243.224 4.71378 242.926 3.63879 243.19 2.62779C243.455 1.61579 243.182 0.485789 242.584 0.116789C241.909 -0.300211 241.497 0.415782 241.497 2.00378ZM171.03 4.50979C170.15 5.93279 171.272 7.56279 173.129 7.56279C174.005 7.56279 174.507 6.85978 174.32 5.89578C173.931 3.88678 171.934 3.04679 171.03 4.50979ZM294.497 33.5628C293.327 34.3188 293.597 34.5358 295.728 34.5478C298.388 34.5628 298.446 34.6868 297.96 39.3128C297.598 42.7558 297.721 43.5128 298.408 42.0628C298.93 40.9628 299.388 38.3758 299.427 36.3128C299.501 32.3698 297.806 31.4238 294.497 33.5628ZM250.497 36.5628C250.497 37.7638 255.202 37.7638 257.997 36.5628C259.502 35.9158 258.821 35.6858 255.247 35.6328C252.634 35.5948 250.497 36.0128 250.497 36.5628ZM217.785 38.0108C208.868 38.6388 201.218 39.5298 200.785 39.9898C200.057 40.7618 205.754 40.5438 228.727 38.9238C233.529 38.5848 237.215 37.9148 236.918 37.4358C236.622 36.9558 235.843 36.6308 235.188 36.7148C234.533 36.7988 226.702 37.3818 217.785 38.0108ZM183.747 40.2998C180.86 40.5018 178.497 41.1458 178.497 41.7318C178.497 42.3478 179.445 42.5418 180.747 42.1928C181.985 41.8618 185.584 41.5838 188.747 41.5768C191.91 41.5688 194.497 41.1128 194.497 40.5628C194.497 40.0128 193.259 39.6458 191.747 39.7478C190.235 39.8498 186.634 40.0978 183.747 40.2998ZM138.997 43.5628L134.997 44.2788L139.747 44.4208C142.36 44.4988 144.497 44.1128 144.497 43.5628C144.497 43.0128 144.16 42.6268 143.747 42.7048C143.334 42.7828 141.197 43.1688 138.997 43.5628ZM110.497 45.5628C108.682 46.1438 109.846 46.3908 114.747 46.4628C118.647 46.5208 121.497 46.1408 121.497 45.5628C121.497 44.3968 114.138 44.3968 110.497 45.5628ZM293.392 68.1278C292.02 77.7888 291.258 85.9148 291.698 86.1868C292.137 86.4588 292.497 86.2298 292.497 85.6778C292.497 85.1258 293.622 77.1548 294.997 67.9638C297.897 48.5828 297.704 50.5628 296.691 50.5628C296.248 50.5628 294.763 58.4668 293.392 68.1278ZM6.72198 52.2718C4.59598 52.6798 4.49097 53.0468 5.11697 57.8858C6.17197 66.0498 7.56398 67.9738 6.87298 60.3128L6.26397 53.5628H10.821C13.328 53.5628 15.657 53.1128 15.997 52.5628C16.616 51.5608 11.296 51.3938 6.72198 52.2718ZM8.05196 79.0148C9.21296 88.5368 10.561 91.1028 9.91598 82.5628C9.60498 78.4378 8.89498 74.6128 8.33798 74.0628C7.65598 73.3888 7.56296 75.0028 8.05196 79.0148ZM288.092 103.697C287.502 107.385 287.861 109.63 288.858 108.48C289.74 107.461 290.43 99.5628 289.637 99.5628C289.15 99.5628 288.455 101.423 288.092 103.697ZM14.567 125.254C14.606 126.799 15.024 128.963 15.497 130.063C16.165 131.618 16.372 131.13 16.427 127.872C16.465 125.567 16.047 123.403 15.497 123.063C14.916 122.704 14.526 123.622 14.567 125.254ZM282.019 146.813C281.659 149.15 281.11 152.638 280.798 154.563C280.474 156.569 280.609 157.709 281.114 157.235C282.241 156.178 284.355 142.563 283.393 142.563C282.997 142.563 282.379 144.476 282.019 146.813ZM17.677 147.813C17.974 149.899 18.653 150.11 26.997 150.708C46.855 152.132 50.497 152.266 50.497 151.574C50.497 150.767 39.664 149.587 31.997 149.559C24.461 149.532 19.497 148.489 19.497 146.932C19.497 146.179 19.016 145.563 18.427 145.563C17.839 145.563 17.502 146.575 17.677 147.813ZM57.497 151.649C57.497 152.517 63.912 153.538 69.447 153.552C72.117 153.559 73.517 153.204 72.947 152.664C71.844 151.62 57.497 150.678 57.497 151.649ZM82.497 153.622C82.497 154.204 82.947 154.403 83.497 154.063C84.047 153.723 84.497 153.247 84.497 153.004C84.497 152.761 84.047 152.563 83.497 152.563C82.947 152.563 82.497 153.04 82.497 153.622ZM110.497 155.572C112.972 155.99 115.425 155.933 115.947 155.447C116.505 154.928 114.647 154.615 111.447 154.688L105.997 154.813L110.497 155.572ZM131.056 156.451C132.188 156.949 139.613 157.664 147.556 158.04C155.498 158.415 162.785 158.942 163.747 159.21C164.709 159.478 165.497 159.27 165.497 158.748C165.497 157.741 157.978 156.954 139.997 156.08C133.034 155.741 129.753 155.878 131.056 156.451ZM172.58 158.941C172.81 159.15 176.538 159.643 180.866 160.038C186.48 160.55 188.54 160.442 188.057 159.659C187.661 159.02 184.21 158.563 179.771 158.563C175.587 158.563 172.351 158.733 172.58 158.941ZM221.58 161.972C222.356 162.734 230.407 162.987 231.121 162.272C231.511 161.882 229.43 161.563 226.497 161.563C223.564 161.563 221.351 161.747 221.58 161.972ZM244.829 163.194C245.793 164.201 280.5 166.378 280.498 165.431C280.497 165.084 276.785 164.531 272.247 164.203C250.343 162.619 244.058 162.387 244.829 163.194ZM0.120973 167.101C-0.219027 167.986 0.17797 168.887 1.05697 169.224C3.01397 169.975 3.90597 169.072 3.15197 167.106C2.39297 165.128 0.878973 165.125 0.120973 167.101Z" fill="#898989"/>
<path d="M64.0391 98.0117H57.4482V118H52.3018V98.0117H45.7109V93.7285H64.0391V98.0117ZM82.5498 93.7285H87.6797V118H82.5498V107.524H72.9209V118H67.791V93.7285H72.9209V103.241H82.5498V93.7285ZM105.593 93.6289L114.192 118H108.647L106.888 112.223H98.0391L96.2793 118H90.7344L99.3008 93.6289H105.593ZM101.077 102.262L99.334 107.906H105.659L103.899 102.262L103.451 100.784C103.296 100.264 103.119 99.6774 102.92 99.0244C102.721 98.3604 102.571 97.818 102.472 97.3975C102.416 97.6188 102.344 97.8734 102.256 98.1611C102.178 98.4378 102.095 98.7422 102.007 99.0742C101.819 99.7493 101.636 100.386 101.459 100.983C101.293 101.581 101.166 102.007 101.077 102.262ZM134.164 93.7285H138.779V118H132.255L121.68 99.6387H121.547L121.696 103.108C121.718 103.684 121.741 104.259 121.763 104.835C121.796 105.41 121.824 105.992 121.846 106.578V118H117.264V93.7285H123.755L134.297 111.907H134.396C134.352 110.8 134.308 109.694 134.264 108.587C134.219 107.469 134.186 106.346 134.164 105.217V93.7285ZM164.362 93.7285L155.912 104.47L164.445 118H158.585L152.227 107.773L150.052 109.334V118H144.922V93.7285H150.052V104.835L151.081 103.407C151.247 103.164 151.413 102.926 151.579 102.693C151.745 102.461 151.917 102.223 152.094 101.979L158.651 93.7285H164.362ZM173.277 93.7285H178.855L183.886 103.723L188.949 93.7285H194.494L186.442 108.554V118H181.329V108.72L173.277 93.7285ZM218.55 105.831C218.55 108.332 218.135 110.524 217.305 112.405C216.475 114.276 215.202 115.731 213.486 116.771C211.782 117.812 209.613 118.332 206.979 118.332C204.355 118.332 202.192 117.812 200.487 116.771C198.783 115.731 197.51 114.27 196.669 112.389C195.839 110.507 195.424 108.31 195.424 105.798C195.424 103.274 195.839 101.083 196.669 99.2236C197.499 97.3753 198.766 95.9365 200.471 94.9072C202.186 93.8669 204.367 93.3467 207.012 93.3467C209.646 93.3467 211.815 93.8613 213.52 94.8906C215.213 95.931 216.475 97.3864 217.305 99.2568C218.135 101.116 218.55 103.308 218.55 105.831ZM200.836 105.831C200.836 108.366 201.323 110.363 202.297 111.824C203.271 113.285 204.831 114.016 206.979 114.016C209.181 114.016 210.758 113.285 211.71 111.824C212.662 110.363 213.138 108.366 213.138 105.831C213.138 103.285 212.662 101.282 211.71 99.8213C210.758 98.3604 209.192 97.6299 207.012 97.6299C204.842 97.6299 203.271 98.3604 202.297 99.8213C201.323 101.282 200.836 103.285 200.836 105.831ZM238.206 108.554V93.7285H243.336V109.434C243.336 111.105 242.971 112.616 242.24 113.966C241.499 115.316 240.381 116.384 238.887 117.17C237.393 117.945 235.522 118.332 233.275 118.332C230.055 118.332 227.603 117.513 225.921 115.875C224.25 114.237 223.414 112.068 223.414 109.367V93.7285H228.544V108.587C228.544 110.601 228.953 112.012 229.772 112.82C230.591 113.617 231.803 114.016 233.408 114.016C235.09 114.016 236.308 113.578 237.061 112.704C237.824 111.819 238.206 110.435 238.206 108.554ZM248.217 93.7285H253.961L253.114 109.948H249.063L248.217 93.7285ZM248.15 115.626C248.15 114.575 248.433 113.844 248.997 113.435C249.562 113.014 250.253 112.804 251.072 112.804C251.869 112.804 252.55 113.014 253.114 113.435C253.679 113.844 253.961 114.575 253.961 115.626C253.961 116.622 253.679 117.341 253.114 117.784C252.55 118.227 251.869 118.448 251.072 118.448C250.253 118.448 249.562 118.227 248.997 117.784C248.433 117.341 248.15 116.622 248.15 115.626Z" fill="white"/>
<circle cx="157.5" cy="11.5" r="4.5" fill="#393185"/>
<circle cx="274" cy="152" r="2" fill="#393185"/>
</svg>
