<svg width="12" height="10" viewBox="0 0 12 10" fill="none" xmlns="http://www.w3.org/2000/svg">
<path d="M11.5999 1.98697C11.1882 2.15976 10.7451 2.27632 10.2801 2.32848C10.7548 2.06017 11.1188 1.63515 11.2905 1.12814C10.8465 1.37692 10.3549 1.55745 9.83134 1.6549C9.41233 1.23332 8.81508 0.969727 8.15417 0.969727C6.88532 0.969727 5.85656 1.94103 5.85656 3.13923C5.85656 3.30902 5.87679 3.47452 5.91612 3.63357C4.00637 3.54299 2.31306 2.67944 1.17972 1.36683C0.981921 1.6871 0.868701 2.05974 0.868701 2.4577C0.868701 3.21028 1.2743 3.87441 1.89087 4.26337C1.51438 4.25199 1.15994 4.15432 0.850058 3.99183C0.84983 4.00085 0.84983 4.01008 0.84983 4.01931C0.84983 5.07025 1.64192 5.94689 2.69319 6.14652C2.5004 6.19589 2.29738 6.22251 2.08776 6.22251C1.93952 6.22251 1.79561 6.20898 1.65534 6.18344C1.94794 7.04527 2.79641 7.6727 3.80176 7.69009C3.01535 8.27202 2.02478 8.6189 0.948046 8.6189C0.762755 8.6189 0.579737 8.60859 0.399902 8.58841C1.41707 9.20426 2.62476 9.56316 3.92225 9.56316C8.14894 9.56316 10.46 6.25749 10.46 3.39059C10.46 3.29657 10.4579 3.20276 10.4536 3.1096C10.9024 2.80437 11.2921 2.42207 11.5999 1.98697Z" fill="white"/>
</svg>
