<svg width="32" height="32" viewBox="0 0 32 32" fill="none" xmlns="http://www.w3.org/2000/svg">
<path d="M23.543 19.7709L21.6573 17.8853L23.543 15.9997C25.6258 13.9169 25.6258 10.5401 23.543 8.45728C21.4602 6.37448 18.0833 6.37448 16.0005 8.45728L14.1149 10.3429L12.2293 8.45728L14.1149 6.57167C17.239 3.44747 22.3043 3.44747 25.4286 6.57167C28.5527 9.69585 28.5527 14.7612 25.4286 17.8853L23.543 19.7709ZM19.7717 23.5423L17.8861 25.4279C14.7619 28.552 9.69659 28.552 6.57239 25.4279C3.4482 22.3036 3.4482 17.2383 6.57239 14.1141L8.45801 12.2285L10.3436 14.1141L8.45801 15.9997C6.37521 18.0825 6.37521 21.4595 8.45801 23.5423C10.5408 25.6251 13.9177 25.6251 16.0005 23.5423L17.8861 21.6567L19.7717 23.5423ZM19.7717 10.3429L21.6573 12.2285L12.2293 21.6567L10.3436 19.7709L19.7717 10.3429Z" fill="#275570"/>
</svg>
