<svg width="33" height="32" viewBox="0 0 33 32" fill="none" xmlns="http://www.w3.org/2000/svg">
<path d="M24.9482 24.452H21.3942V18.8829C21.3942 17.5549 21.3672 15.846 19.5422 15.846C17.6892 15.846 17.4062 17.2911 17.4062 18.7849V24.452H13.8522V13H17.2662V14.5609H17.3122C17.7892 13.6609 18.9492 12.711 20.6822 12.711C24.2832 12.711 24.9492 15.0811 24.9492 18.166L24.9482 24.452ZM9.83822 11.433C8.69422 11.433 7.77522 10.507 7.77522 9.368C7.77522 8.23 8.69522 7.305 9.83822 7.305C10.9782 7.305 11.9022 8.23 11.9022 9.368C11.9022 10.507 10.9772 11.433 9.83822 11.433ZM11.6202 24.452H8.05622V13H11.6202V24.452ZM26.7262 4H6.27222C5.29322 4 4.50122 4.774 4.50122 5.729V26.2711C4.50122 27.2269 5.29322 28 6.27222 28H26.7232C27.7012 28 28.5012 27.2269 28.5012 26.2711V5.729C28.5012 4.774 27.7012 4 26.7232 4H26.7262Z" fill="#275570"/>
</svg>
