<svg width="32" height="32" viewBox="0 0 32 32" fill="none" xmlns="http://www.w3.org/2000/svg">
<path d="M17.8289 2.79258C11.2334 1.8836 4.97836 5.98009 3.1741 12.3901C1.36985 18.8002 4.5694 25.559 10.6702 28.2252C10.5901 27.2011 10.6631 26.1707 10.8866 25.1682C11.1328 24.0499 12.6149 17.8843 12.6149 17.8843C12.3195 17.2231 12.1718 16.5054 12.182 15.7812C12.182 13.8012 13.3246 12.324 14.7462 12.324C15.2629 12.3163 15.7574 12.5337 16.101 12.9198C16.4446 13.3058 16.6034 13.8223 16.5359 14.3347C16.5359 15.535 15.7647 17.3508 15.3637 19.0538C15.2018 19.6875 15.3507 20.3604 15.7649 20.8667C16.179 21.3728 16.8091 21.6519 17.4622 21.6186C19.9925 21.6186 21.6899 18.3767 21.6899 14.5502C21.6899 11.6161 19.7463 9.42069 16.1657 9.42069C14.4346 9.35377 12.7518 9.99949 11.5096 11.2073C10.2673 12.415 9.57437 14.0794 9.59222 15.812C9.55409 16.763 9.8608 17.6956 10.4558 18.4383C10.6847 18.6086 10.773 18.91 10.6722 19.177C10.6107 19.4231 10.4558 20.0079 10.3943 20.2234C10.3683 20.3707 10.274 20.4971 10.1401 20.5638C10.0062 20.6306 9.8486 20.6299 9.7153 20.5619C7.86912 19.8232 6.99934 17.7919 6.99934 15.4735C6.99934 11.6776 10.1789 7.13296 16.5381 7.13296C21.5997 7.13296 24.9639 10.8364 24.9639 14.7963C24.9639 20.0079 22.0623 23.9268 17.773 23.9268C16.4701 23.9682 15.2363 23.3415 14.5011 22.2648C14.5011 22.2648 13.7298 25.3528 13.5779 25.9375C13.2679 26.9466 12.8103 27.9042 12.22 28.7792C13.4502 29.1524 14.7294 29.3392 16.015 29.3334C19.5514 29.3356 22.9436 27.9312 25.4438 25.4294C27.9439 22.9276 29.3465 19.5339 29.3425 15.9967C29.3386 9.33744 24.4243 3.70157 17.8289 2.79258Z" fill="#275570"/>
</svg>
