<svg width="35" height="29" viewBox="0 0 35 29" fill="none" xmlns="http://www.w3.org/2000/svg">
<g id="Group">
<g id="Group_2">
<path id="Vector" d="M8.91911 25.5014L8.92223 25.3769L8.9117 25.5014C3.46242 25.5014 0.209092 23.3621 0.209092 23.3621C-0.00394686 22.8192 0.0155623 21.4812 0.0155623 21.4812C-0.0515489 20.5183 0.0292183 18.5734 1.69451 18.1446C3.92908 17.5697 5.78244 16.6933 5.78244 16.6933C6.14843 16.1827 6.21398 15.1135 6.21398 15.1135C5.51478 14.352 5.20458 13.399 5.07426 12.5929C5.02783 12.6272 4.97477 12.6502 4.91585 12.6486C4.70593 12.6442 4.42461 12.3329 4.12105 11.1542C3.73945 9.66999 4.09764 9.37759 4.44412 9.38035C4.52411 9.38114 4.53698 9.37956 4.60644 9.4005L4.60722 9.3681C4.60722 9.3681 3.57987 5.89993 6.05089 4.37468C6.05089 4.37468 5.61701 4.01866 5.65017 3.50615C5.65017 3.50615 6.78287 3.63616 7.86835 3.63853C8.36154 3.63971 8.84537 3.61403 9.20823 3.53816C9.35338 3.50774 9.50009 3.49549 9.64563 3.49944C10.6652 3.52552 11.6418 4.32963 11.8139 5.1053C11.8139 5.1053 11.8287 5.10411 11.856 5.10411C12.1783 5.10332 14.2026 5.2602 13.2314 9.38154C13.2314 9.38154 13.2306 9.38707 13.2291 9.39695C13.2759 9.38667 13.3254 9.38035 13.375 9.37956C13.7226 9.37522 14.0839 9.66525 13.7008 11.1534C13.3949 12.3423 13.1116 12.6486 12.9009 12.6478C12.8307 12.6474 12.7686 12.6134 12.7167 12.5664C12.5888 13.3792 12.279 14.3453 11.5704 15.1155L11.6078 15.1131C11.6078 15.1131 11.6656 16.0599 11.9777 16.5972C11.991 16.604 13.7894 17.5148 15.9299 18.0925C15.6115 18.1916 15.2693 18.2948 14.901 18.4011C14.7738 18.4378 14.6848 18.4635 14.6111 18.4888C14.6052 18.4904 14.599 18.492 14.5923 18.4939C14.5596 18.503 14.5202 18.5137 14.4741 18.5267C14.4663 18.5291 14.4585 18.5311 14.4507 18.5334C13.6977 18.7476 12.84 19.0827 11.9013 19.53C9.92851 20.47 9.3171 22.3912 9.26676 23.3787C9.2652 23.406 9.26481 23.4332 9.26481 23.4609V24.0469V25.4982C9.15088 25.4998 9.03577 25.5014 8.91911 25.5014ZM33.2676 20.9889C32.2207 20.4902 31.5024 20.2456 31.1021 20.1255C30.9039 20.0658 30.7837 20.0366 30.7412 20.0223C30.7392 20.0216 30.7381 20.0212 30.7365 20.0208C30.7326 20.0196 30.7291 20.018 30.7271 20.0168C30.6776 19.9899 27.9206 19.2566 26.656 18.5595C26.3587 18.3667 26.1721 18.2225 26.1721 18.2225V18.0668H26.1714V18.0273H26.1706V16.8371C26.1706 16.8371 26.1737 16.8371 26.1796 16.8375C26.1819 16.8375 26.1854 16.8375 26.1889 16.8375C26.1936 16.8375 26.1979 16.8375 26.2045 16.8379C26.2123 16.8379 26.2217 16.8383 26.2318 16.8383C26.2361 16.8383 26.2397 16.8383 26.2443 16.8383C26.2572 16.8383 26.2713 16.8383 26.2876 16.8387C26.2915 16.8387 26.2951 16.8387 26.299 16.8387C26.3169 16.8387 26.336 16.8387 26.3575 16.8387C26.3594 16.8387 26.361 16.8387 26.3629 16.8387C26.4835 16.8379 26.6568 16.8339 26.869 16.8221C26.9104 16.8197 26.9537 16.8173 26.9978 16.8142C27.0009 16.8138 27.004 16.8138 27.0071 16.8134C27.0512 16.8106 27.0961 16.8071 27.1429 16.8035C27.1449 16.8035 27.1468 16.8031 27.1484 16.8031C27.3427 16.7881 27.5581 16.7668 27.7883 16.7363C29.0103 16.5759 30.6425 16.1665 31.6441 15.1301C31.6441 15.1301 29.0809 14.3947 29.5414 9.6692C29.5546 9.53327 29.5663 9.39853 29.5769 9.26379C29.5827 9.1895 29.5878 9.11521 29.5929 9.04132C29.5968 8.98284 29.6015 8.92396 29.605 8.86548C29.6096 8.78685 29.6135 8.709 29.6178 8.63077C29.6202 8.57979 29.6229 8.52921 29.6253 8.47864C29.6288 8.39447 29.6319 8.3107 29.6342 8.22732C29.6354 8.18821 29.6366 8.14869 29.6373 8.10957C29.6397 8.01632 29.6416 7.92306 29.6424 7.8306C29.6424 7.81558 29.6424 7.80057 29.6424 7.78555C29.6502 6.66019 29.5538 5.60515 29.3346 4.68052C29.3342 4.67933 29.3338 4.67815 29.3338 4.67696C29.3018 4.54301 29.2675 4.41182 29.2304 4.2838C29.2277 4.27392 29.2249 4.26404 29.2218 4.25416C29.1656 4.06212 29.1032 3.8768 29.0349 3.69898C29.0279 3.6812 29.0209 3.66342 29.0138 3.64564C28.9756 3.54844 28.935 3.4536 28.8929 3.36074C28.8835 3.34019 28.8745 3.31965 28.8652 3.29949C28.8414 3.24892 28.8172 3.19873 28.7922 3.14974C28.7801 3.12563 28.7672 3.10271 28.7548 3.07901C28.7146 3.00314 28.6736 2.92885 28.6307 2.85693C28.6127 2.8269 28.5948 2.79727 28.5764 2.76803C28.5433 2.71508 28.5093 2.66292 28.4746 2.61234C28.4469 2.57164 28.4188 2.53173 28.3899 2.49261C28.3654 2.45942 28.3404 2.42662 28.315 2.39462C28.2838 2.35471 28.2514 2.31598 28.219 2.27805C28.187 2.24091 28.1547 2.20455 28.1219 2.16899C28.0883 2.13264 28.0544 2.09747 28.0197 2.0627C27.9962 2.03938 27.9728 2.01567 27.9486 1.99315C27.8979 1.94534 27.8456 1.8999 27.7922 1.85564C27.7695 1.83707 27.7461 1.81889 27.7231 1.80072C27.6755 1.76357 27.6267 1.72762 27.5772 1.69363C27.5557 1.67901 27.5347 1.664 27.5132 1.64977C27.4562 1.61263 27.3981 1.57746 27.3388 1.54387C27.3169 1.53162 27.2947 1.51898 27.2725 1.50713C27.2057 1.47156 27.1375 1.43798 27.0676 1.40715C27.0489 1.39886 27.0298 1.39135 27.011 1.38384C26.947 1.35697 26.8815 1.33247 26.8152 1.30955C26.7996 1.30442 26.7843 1.29849 26.7687 1.29335C26.6911 1.26846 26.6111 1.24673 26.5299 1.22697C26.5093 1.22183 26.4886 1.21709 26.4675 1.21274C26.384 1.19417 26.299 1.17797 26.2116 1.16533C26.1999 1.16375 26.1878 1.16256 26.1757 1.16098C26.0933 1.14992 26.0094 1.14201 25.924 1.13609C25.9064 1.1349 25.8889 1.13332 25.8709 1.13253C25.7785 1.12779 25.6836 1.12621 25.5873 1.12739C25.567 1.12779 25.5463 1.12858 25.526 1.12897C25.4253 1.13174 25.3231 1.13688 25.2182 1.14675C25.2182 1.14675 23.5923 -0.834492 20.3573 0.411394C20.3346 0.420087 20.3108 0.429175 20.2867 0.438658C20.28 0.441029 20.2742 0.4434 20.2675 0.446166C20.2398 0.456835 20.2117 0.467899 20.1821 0.479358C20.179 0.480544 20.1755 0.482125 20.1719 0.48331C20.1446 0.493979 20.1169 0.505043 20.0884 0.516502C20.0845 0.518082 20.0806 0.519663 20.0767 0.521244C20.0459 0.533888 20.0143 0.546928 19.9823 0.560363C19.9776 0.562338 19.9729 0.564314 19.9683 0.56629C19.9019 0.594345 19.8325 0.625166 19.7607 0.658753C19.756 0.660729 19.7517 0.6631 19.747 0.665076C19.7104 0.682462 19.6733 0.700243 19.6354 0.718815C19.5976 0.737782 19.559 0.757539 19.5199 0.778086C19.5168 0.779667 19.5137 0.781248 19.5106 0.782828C19.4716 0.803376 19.4318 0.825109 19.392 0.847632C19.3896 0.848817 19.3869 0.850398 19.3846 0.851978C19.3034 0.897815 19.2207 0.947998 19.1368 1.00253C19.1333 1.0049 19.1298 1.00687 19.1266 1.00925C19.0424 1.06417 18.9569 1.12344 18.8711 1.18785C18.8687 1.18943 18.8664 1.19141 18.8641 1.19299C18.8204 1.22578 18.7767 1.25977 18.7326 1.29533C18.6436 1.36725 18.5546 1.44469 18.4661 1.52846C18.4641 1.53044 18.4622 1.53202 18.4602 1.534C18.3724 1.61698 18.2854 1.70588 18.1988 1.80111C18.1972 1.80309 18.1953 1.80506 18.1937 1.80664C18.0622 1.95245 17.9327 2.11328 17.807 2.29148C17.8063 2.29267 17.8055 2.29386 17.8043 2.29504C17.7212 2.41319 17.6401 2.53845 17.5612 2.6724C17.5597 2.67517 17.5581 2.67754 17.5566 2.68031C17.4773 2.81465 17.4009 2.95691 17.3271 3.10825C17.3267 3.10943 17.326 3.11022 17.3256 3.11141C17.2885 3.18727 17.2522 3.26551 17.2167 3.34612C17.2163 3.34691 17.2159 3.3481 17.2155 3.34889C17.1453 3.50892 17.0782 3.67765 17.015 3.85625C17.0134 3.86099 17.0119 3.86574 17.0099 3.87048C16.9475 4.04711 16.889 4.23322 16.8347 4.42921C16.8335 4.43395 16.832 4.43869 16.8308 4.44343C16.8035 4.54222 16.7774 4.64338 16.7524 4.74769C16.7524 4.74809 16.752 4.74888 16.752 4.74927C16.6057 5.35819 16.4999 6.05522 16.448 6.8542C16.448 6.85657 16.4477 6.85894 16.4477 6.86131C16.4371 7.02332 16.4289 7.18889 16.4231 7.35959C16.4227 7.3667 16.4227 7.37421 16.4223 7.38132C16.4168 7.54886 16.4133 7.72036 16.4125 7.89619C16.4125 7.90489 16.4125 7.91398 16.4125 7.92306C16.4118 8.10088 16.4133 8.28225 16.4176 8.46876C16.42 8.5632 16.4211 8.65566 16.4223 8.74773C16.4231 8.81016 16.4235 8.87141 16.4235 8.93226C16.4235 8.95755 16.4239 8.98323 16.4239 9.00852C16.4239 9.08558 16.4235 9.16184 16.4231 9.23731C16.4231 9.24363 16.4231 9.25035 16.4231 9.25667C16.4223 9.33649 16.4211 9.41552 16.4196 9.49336C16.3045 15.0183 14.1183 15.0534 14.1183 15.0534C14.1183 15.0534 15.0785 16.4665 18.1637 16.8039C18.3833 16.828 18.6147 16.8466 18.8566 16.8584C18.8652 16.8588 18.8734 16.8596 18.882 16.86C18.9901 16.8652 19.1013 16.8687 19.214 16.8715C19.2324 16.8719 19.2496 16.8731 19.2675 16.8731C19.3978 16.8754 19.5313 16.8762 19.6678 16.875V18.2059C19.6678 18.2059 19.4813 18.3497 19.184 18.5429C17.9194 19.2396 15.1624 19.973 15.1128 20.0002C15.0976 20.0085 15.0247 20.0267 14.8975 20.0623C14.5483 20.1606 13.7784 20.3977 12.5724 20.9723C10.9266 21.7562 10.8396 23.4605 10.8396 23.4605V24.0465V26.0605C11.5626 26.5003 15.9779 29 22.9617 29L22.9766 28.825L22.9723 29C29.6986 29 34.0429 26.6809 35 26.1166V24.0461V23.4763C35 23.4771 34.9134 21.7732 33.2676 20.9889Z" fill="#393185"/>
</g>
</g>
</svg>
