<svg width="40" height="40" viewBox="0 0 40 40" fill="none" xmlns="http://www.w3.org/2000/svg">
<circle cx="20" cy="20" r="19" stroke="#3B71FE" stroke-width="2"/>
<g clip-path="url(#clip0_108_4893)">
<path d="M24.386 11.4908C25.1735 12.1677 25.2352 13.1096 24.386 13.9368L17.7739 20.0016L24.386 26.0663C25.2352 26.8937 25.1735 27.8373 24.386 28.5085C23.9984 28.8245 23.4894 29 22.9609 29C22.4325 29 21.9235 28.8245 21.5359 28.5085C20.798 27.8782 13.5913 21.2227 13.5913 21.2227C13.4043 21.0643 13.2555 20.8744 13.154 20.6644C13.0524 20.4543 13 20.2284 13 20.0001C13 19.7718 13.0524 19.5459 13.154 19.3358C13.2555 19.1258 13.4043 18.9359 13.5913 18.7775C13.5913 18.7775 20.798 12.1251 21.5359 11.4918C21.9234 11.1757 22.4324 11 22.961 11C23.4895 11 23.9985 11.1757 24.386 11.4918L24.386 11.4908Z" fill="#3B71FE"/>
</g>
<defs>
<clipPath id="clip0_108_4893">
<rect width="24" height="15" fill="white" transform="translate(27 8) rotate(90)"/>
</clipPath>
</defs>
</svg>
