<svg width="37" height="37" viewBox="0 0 37 37" fill="none" xmlns="http://www.w3.org/2000/svg">
<g id="vuesax/bold/quote-up">
<g id="vuesax/bold/quote-up_2">
<g id="quote-up">
<path id="Vector" d="M12.2876 17.9404H5.13508C5.25708 10.7803 6.66013 9.5997 11.037 6.99323C11.5403 6.68658 11.7081 6.04263 11.4031 5.52134C11.1133 5.01538 10.4575 4.84672 9.95425 5.15337C4.79956 8.2198 3 10.0903 3 18.9983V27.2624C3 29.8842 5.11983 32 7.71242 32H12.2876C14.9717 32 17 29.9608 17 27.2624V22.6627C17 19.9796 14.9717 17.9404 12.2876 17.9404Z" fill="url(#paint0_linear_108_4853)"/>
<path id="Vector_2" d="M29.3028 17.9331H22.1503C22.2723 10.777 23.6754 9.59709 28.0522 6.9921C28.5555 6.68563 28.7233 6.04204 28.4182 5.52104C28.1132 5.01537 27.4727 4.84681 26.9542 5.15328C21.7996 8.21797 20 10.0874 20 19.0057V27.265C20 29.8854 22.1198 32 24.7124 32H29.2875C31.9716 32 33.9999 29.962 33.9999 27.265V22.668C34.0152 19.9711 31.9869 17.9331 29.3028 17.9331Z" fill="url(#paint1_linear_108_4853)"/>
</g>
</g>
</g>
<defs>
<linearGradient id="paint0_linear_108_4853" x1="19.1254" y1="201" x2="-17.0092" y2="199.516" gradientUnits="userSpaceOnUse">
<stop offset="0.25249" stop-color="#40B4A6"/>
<stop offset="0.637527" stop-color="#A6D8D2"/>
</linearGradient>
<linearGradient id="paint1_linear_108_4853" x1="36.1254" y1="201" x2="-0.00922129" y2="199.516" gradientUnits="userSpaceOnUse">
<stop offset="0.25249" stop-color="#40B4A6"/>
<stop offset="0.637527" stop-color="#A6D8D2"/>
</linearGradient>
</defs>
</svg>
