<svg width="29" height="32" viewBox="0 0 29 32" fill="none" xmlns="http://www.w3.org/2000/svg">
<path id="Vector" d="M28.5171 31.0021C28.2058 31.3121 27.7848 31.486 27.346 31.486C26.9073 31.486 26.4863 31.3121 26.175 31.0021L23.8618 28.683C23.8082 28.6289 23.7782 28.5557 23.7782 28.4795C23.7782 28.4032 23.8082 28.3301 23.8618 28.276L25.7966 26.336C25.8507 26.2823 25.9237 26.2522 25.9997 26.2522C26.0758 26.2522 26.1488 26.2823 26.2028 26.336L28.516 28.6545C28.8258 28.9662 28.9998 29.3882 29 29.8281C29.0002 30.268 28.8266 30.6901 28.5171 31.0021ZM23.6414 17.9916C24.5702 18.9227 25.1517 20.1452 25.2888 21.4545C25.4259 22.7639 25.1101 24.0807 24.3944 25.1847L25.1288 25.921L23.4463 27.6071L22.7115 26.8707C21.8037 27.4631 20.7469 27.7856 19.6636 27.8009C18.5803 27.8162 17.5149 27.5237 16.5907 26.9572C15.6665 26.3907 14.9214 25.5734 14.4416 24.6C13.9618 23.6266 13.767 22.5369 13.8798 21.4572C13.9926 20.3774 14.4083 19.3517 15.0787 18.499C15.7492 17.6462 16.6471 17.0012 17.6683 16.6388C18.6895 16.2763 19.7923 16.2111 20.8489 16.4509C21.9055 16.6906 22.8728 17.2254 23.6386 17.9933L23.6414 17.9916ZM22.4139 19.2206C21.8548 18.6603 21.1426 18.2787 20.3671 18.124C19.5917 17.9694 18.7879 18.0486 18.0574 18.3518C17.3269 18.655 16.7025 19.1684 16.2632 19.8272C15.8239 20.486 15.5895 21.2605 15.5895 22.0528C15.5895 22.8451 15.8239 23.6197 16.2632 24.2785C16.7025 24.9372 17.3269 25.4507 18.0574 25.7538C18.7879 26.057 19.5917 26.1363 20.3671 25.9816C21.1426 25.827 21.8548 25.4453 22.4139 24.885C23.1622 24.1332 23.5824 23.1147 23.5824 22.0528C23.5824 20.991 23.1622 19.9724 22.4139 19.2206ZM17.3033 19.764C17.8317 19.2345 18.527 18.905 19.2707 18.8317C20.0144 18.7584 20.7604 18.9458 21.3817 19.3619C22.003 19.778 22.4611 20.3971 22.678 21.1137C22.8948 21.8303 22.857 22.6001 22.571 23.2919C22.285 23.9837 21.7684 24.5548 21.1094 24.9077C20.4503 25.2607 19.6895 25.3737 18.9566 25.2276C18.2237 25.0814 17.5641 24.6851 17.09 24.1063C16.616 23.5274 16.3569 22.8017 16.357 22.0528C16.3564 21.6276 16.4397 21.2065 16.6021 20.8137C16.7645 20.4209 17.0028 20.0642 17.3033 19.764ZM17.7472 22.1313L18.9222 23.3084C18.9578 23.3441 19 23.3724 19.0465 23.3917C19.093 23.411 19.1428 23.421 19.1931 23.421C19.2435 23.421 19.2933 23.411 19.3398 23.3917C19.3863 23.3724 19.4285 23.3441 19.464 23.3084L21.4277 21.3406C21.4652 21.3054 21.4952 21.263 21.5159 21.216C21.5367 21.169 21.5479 21.1182 21.5487 21.0668C21.5496 21.0154 21.5401 20.9643 21.5209 20.9166C21.5016 20.8689 21.473 20.8256 21.4368 20.7892C21.4005 20.7528 21.3574 20.7241 21.3098 20.7047C21.2623 20.6854 21.2113 20.6758 21.16 20.6765C21.1087 20.6773 21.058 20.6883 21.0111 20.7091C20.9641 20.7298 20.9218 20.7598 20.8866 20.7972L19.1938 22.4939L18.2901 21.5883C18.2545 21.5526 18.2123 21.5243 18.1658 21.505C18.1193 21.4857 18.0695 21.4757 18.0191 21.4757C17.9688 21.4757 17.919 21.4856 17.8725 21.5049C17.826 21.5242 17.7837 21.5525 17.7481 21.5881C17.7125 21.6238 17.6843 21.6661 17.665 21.7127C17.6457 21.7593 17.6358 21.8092 17.6358 21.8597C17.6358 21.9101 17.6456 21.96 17.6649 22.0066C17.6841 22.0532 17.7117 22.0956 17.7472 22.1313ZM23.8848 29.792C23.8209 29.9187 23.7233 30.0252 23.6026 30.0996C23.482 30.174 23.3432 30.2134 23.2015 30.2135H2.5491V32H25.751V31.6539C25.7108 31.6194 25.6713 31.5826 25.6332 31.5444L23.8848 29.792ZM6.52349 22.3253C6.41075 22.3253 6.30054 22.3588 6.2068 22.4216C6.11306 22.4844 6.04 22.5736 5.99687 22.678C5.95374 22.7824 5.94247 22.8973 5.9645 23.0081C5.98652 23.1189 6.04083 23.2207 6.12058 23.3005C6.20033 23.3804 6.30192 23.4348 6.41251 23.4568C6.5231 23.4788 6.63771 23.4674 6.74185 23.4241C6.846 23.3808 6.93499 23.3076 6.99758 23.2136C7.06017 23.1196 7.09354 23.0092 7.09347 22.8962C7.09338 22.7447 7.0333 22.5995 6.92643 22.4924C6.81956 22.3853 6.67463 22.3254 6.52349 22.3253ZM5.12636 0L0 5.13858H5.12636V0ZM25.751 19.9914V2.55449H23.9679V17.2422C24.0407 17.311 24.1125 17.3774 24.1828 17.4486C24.8948 18.1632 25.4316 19.0336 25.751 19.9914ZM25.751 24.1125C25.6434 24.4378 25.5104 24.7541 25.353 25.0584L25.751 25.4572V24.1125ZM6.52281 18.6495C6.41008 18.6495 6.29988 18.683 6.20615 18.7457C6.11241 18.8085 6.03936 18.8977 5.99622 19.0021C5.95308 19.1064 5.94179 19.2213 5.96378 19.3321C5.98578 19.4429 6.04006 19.5447 6.11977 19.6245C6.19949 19.7044 6.30105 19.7588 6.41161 19.7809C6.52218 19.8029 6.63678 19.7916 6.74093 19.7483C6.84508 19.7051 6.9341 19.6319 6.99673 19.538C7.05936 19.444 7.09279 19.3336 7.09279 19.2206C7.0926 19.0693 7.03259 18.9243 6.92589 18.8172C6.81918 18.7101 6.6738 18.6498 6.52281 18.6495ZM5.14731 9.87217C5.14731 9.77033 5.18768 9.67266 5.25954 9.60064C5.3314 9.52863 5.42887 9.48817 5.5305 9.48817C5.63213 9.48817 5.72959 9.52863 5.80145 9.60064C5.87332 9.67266 5.91369 9.77033 5.91369 9.87217V10.2507H7.79633V9.87217C7.79633 9.77033 7.8367 9.67266 7.90856 9.60064C7.98043 9.52863 8.07789 9.48817 8.17952 9.48817C8.28115 9.48817 8.37861 9.52863 8.45048 9.60064C8.52234 9.67266 8.56271 9.77033 8.56271 9.87217V10.2507H9.11964C9.02463 9.89234 8.84673 9.56148 8.60036 9.28489C8.354 9.00829 8.04608 8.79373 7.70156 8.65858C7.47511 8.80939 7.22631 8.92342 6.96437 8.99647C6.89213 9.01815 6.81514 9.01815 6.7429 8.99647C6.48103 8.92336 6.23234 8.8092 6.00605 8.65824C5.66161 8.79413 5.35394 9.00938 5.10794 9.28657C4.86193 9.56376 4.68451 9.89509 4.59004 10.2538H5.14731V9.87217ZM6.52349 14.9753C6.41075 14.9753 6.30054 15.0088 6.2068 15.0716C6.11306 15.1344 6.04 15.2236 5.99687 15.328C5.95374 15.4324 5.94247 15.5472 5.9645 15.6581C5.98652 15.7689 6.04083 15.8706 6.12058 15.9505C6.20033 16.0304 6.30192 16.0847 6.41251 16.1067C6.5231 16.1287 6.63771 16.1174 6.74185 16.0741C6.846 16.0308 6.93499 15.9576 6.99758 15.8636C7.06017 15.7696 7.09354 15.6591 7.09347 15.5461C7.09329 15.3948 7.03317 15.2496 6.92631 15.1426C6.81945 15.0356 6.67457 14.9754 6.52349 14.9753ZM23.2015 29.4455H0V5.90658H5.12636C5.15609 5.90649 5.18578 5.90465 5.21529 5.90108C5.23329 6.10198 5.27822 6.29954 5.34886 6.48843C5.47739 6.77139 5.67054 7.02008 5.91271 7.2144C6.15488 7.40873 6.43927 7.54323 6.7429 7.60705C6.81509 7.62908 6.89218 7.62908 6.96437 7.60705C7.50653 7.44327 8.15995 7.15424 8.39961 6.36834C8.48741 6.04597 8.52482 5.71192 8.51052 5.37806C8.5107 5.0733 8.4271 4.77437 8.26892 4.51408C8.11073 4.25379 7.88405 4.04218 7.61376 3.90249C7.34347 3.76279 7.04 3.7004 6.73666 3.72215C6.43331 3.7439 6.1418 3.84896 5.89412 4.02581V0H23.2015V16.6383C22.3402 16.063 21.3547 15.7013 20.3264 15.5831C19.298 15.465 18.2564 15.5937 17.2875 15.9587H9.31295C9.21132 15.9587 9.11386 15.9992 9.04199 16.0712C8.97013 16.1432 8.92976 16.2409 8.92976 16.3427C8.92976 16.4446 8.97013 16.5422 9.04199 16.6142C9.11386 16.6863 9.21132 16.7267 9.31295 16.7267H15.8454C15.3253 17.0956 14.8615 17.5382 14.4685 18.0408H9.31295C9.21132 18.0408 9.11386 18.0812 9.04199 18.1532C8.97013 18.2253 8.92976 18.3229 8.92976 18.4248C8.92976 18.5266 8.97013 18.6243 9.04199 18.6963C9.11386 18.7683 9.21132 18.8088 9.31295 18.8088H13.9524C13.8002 19.0742 13.6673 19.3501 13.5545 19.6346H9.31295C9.21132 19.6346 9.11386 19.675 9.04199 19.7471C8.97013 19.8191 8.92976 19.9167 8.92976 20.0186C8.92976 20.1204 8.97013 20.2181 9.04199 20.2901C9.11386 20.3621 9.21132 20.4026 9.31295 20.4026H13.3031C13.1914 20.8326 13.1237 21.2729 13.1009 21.7166H9.31295C9.21132 21.7166 9.11386 21.7571 9.04199 21.8291C8.97013 21.9011 8.92976 21.9988 8.92976 22.1006C8.92976 22.2025 8.97013 22.3002 9.04199 22.3722C9.11386 22.4442 9.21132 22.4846 9.31295 22.4846H13.1064C13.1245 22.7619 13.1601 23.0377 13.2128 23.3105H9.31295C9.21132 23.3105 9.11386 23.3509 9.04199 23.4229C8.97013 23.4949 8.92976 23.5926 8.92976 23.6945C8.92976 23.7963 8.97013 23.894 9.04199 23.966C9.11386 24.038 9.21132 24.0785 9.31295 24.0785H13.4116C13.7051 24.9764 14.19 25.7996 14.8326 26.491C15.4753 27.1824 16.2604 27.7254 17.1334 28.0824C18.0064 28.4394 18.9464 28.6018 19.8883 28.5583C20.8302 28.5149 21.7514 28.2666 22.5879 27.8307L23.0316 28.2756C23.0045 28.415 23.0058 28.5585 23.0353 28.6974C23.0648 28.8363 23.1219 28.9679 23.2032 29.0842L23.2015 29.4455ZM15.4848 14.7499C15.4848 14.6481 15.4445 14.5504 15.3726 14.4784C15.3008 14.4064 15.2033 14.3659 15.1017 14.3659H9.31295C9.21132 14.3659 9.11386 14.4064 9.04199 14.4784C8.97013 14.5504 8.92976 14.6481 8.92976 14.7499C8.92976 14.8518 8.97013 14.9495 9.04199 15.0215C9.11386 15.0935 9.21132 15.1339 9.31295 15.1339H15.1017C15.2033 15.1339 15.3008 15.0935 15.3726 15.0215C15.4445 14.9495 15.4848 14.8518 15.4848 14.7499ZM19.5533 8.02374H15.5703C15.4687 8.02374 15.3712 8.0642 15.2994 8.13621C15.2275 8.20823 15.1872 8.3059 15.1872 8.40774C15.1872 8.50959 15.2275 8.60726 15.2994 8.67927C15.3712 8.75128 15.4687 8.79174 15.5703 8.79174H19.5533C19.6549 8.79174 19.7524 8.75128 19.8243 8.67927C19.8961 8.60726 19.9365 8.50959 19.9365 8.40774C19.9365 8.3059 19.8961 8.20823 19.8243 8.13621C19.7524 8.0642 19.6549 8.02374 19.5533 8.02374ZM19.5533 10.1244H19.0211C18.9195 10.1244 18.822 10.1648 18.7502 10.2369C18.6783 10.3089 18.6379 10.4065 18.6379 10.5084C18.6379 10.6102 18.6783 10.7079 18.7502 10.7799C18.822 10.8519 18.9195 10.8924 19.0211 10.8924H19.5533C19.6549 10.8924 19.7524 10.8519 19.8243 10.7799C19.8961 10.7079 19.9365 10.6102 19.9365 10.5084C19.9365 10.4065 19.8961 10.3089 19.8243 10.2369C19.7524 10.1648 19.6549 10.1244 19.5533 10.1244ZM11.8974 6.3071C11.8974 6.40894 11.9378 6.50661 12.0097 6.57863C12.0815 6.65064 12.179 6.6911 12.2806 6.6911H15.4502C15.5518 6.6911 15.6493 6.65064 15.7211 6.57863C15.793 6.50661 15.8334 6.40894 15.8334 6.3071C15.8334 6.20525 15.793 6.10758 15.7211 6.03557C15.6493 5.96355 15.5518 5.9231 15.4502 5.9231H12.2806C12.179 5.9231 12.0815 5.96355 12.0097 6.03557C11.9378 6.10758 11.8974 6.20525 11.8974 6.3071ZM11.8974 8.40774C11.8974 8.50959 11.9378 8.60726 12.0097 8.67927C12.0815 8.75128 12.179 8.79174 12.2806 8.79174H14.0414C14.143 8.79174 14.2405 8.75128 14.3123 8.67927C14.3842 8.60726 14.4246 8.50959 14.4246 8.40774C14.4246 8.3059 14.3842 8.20823 14.3123 8.13621C14.2405 8.0642 14.143 8.02374 14.0414 8.02374H12.2806C12.179 8.02374 12.0815 8.0642 12.0097 8.13621C11.9378 8.20823 11.8974 8.3059 11.8974 8.40774ZM11.8974 10.5084C11.8974 10.6102 11.9378 10.7079 12.0097 10.7799C12.0815 10.8519 12.179 10.8924 12.2806 10.8924H17.4908C17.5924 10.8924 17.6898 10.8519 17.7617 10.7799C17.8336 10.7079 17.8739 10.6102 17.8739 10.5084C17.8739 10.4065 17.8336 10.3089 17.7617 10.2369C17.6898 10.1648 17.5924 10.1244 17.4908 10.1244H12.2806C12.179 10.1244 12.0815 10.1648 12.0097 10.2369C11.9378 10.3089 11.8974 10.4065 11.8974 10.5084ZM3.85765 10.8972C3.89359 10.9359 3.93711 10.9668 3.98549 10.988C4.03387 11.0091 4.08608 11.02 4.13886 11.02H9.57116C9.62393 11.0201 9.67614 11.0092 9.72452 10.9881C9.7729 10.967 9.8164 10.9361 9.85228 10.8973C9.88817 10.8585 9.91567 10.8127 9.93305 10.7628C9.95044 10.7129 9.95734 10.6599 9.95332 10.6071C9.90342 9.97835 9.66495 9.37937 9.26922 8.88885C8.87349 8.39833 8.33899 8.03919 7.7359 7.85858C7.67122 7.83943 7.60263 7.83775 7.53709 7.8537C7.47155 7.86966 7.41138 7.90267 7.36267 7.94942C7.21589 8.07669 7.04334 8.1706 6.8569 8.22469C6.67017 8.17054 6.4973 8.07665 6.3501 7.94942C6.30136 7.90294 6.24128 7.87014 6.17588 7.85432C6.11048 7.83849 6.04208 7.8402 5.97755 7.85927C5.37414 8.03958 4.83927 8.3986 4.44321 8.88914C4.04716 9.37969 3.80844 9.97882 3.75842 10.6078C3.75428 10.6603 3.76096 10.7131 3.77803 10.7628C3.7951 10.8126 3.8222 10.8584 3.85765 10.8972ZM3.6482 12.993H19.5255C19.6271 12.993 19.7246 12.9526 19.7965 12.8806C19.8683 12.8085 19.9087 12.7109 19.9087 12.609C19.9087 12.5072 19.8683 12.4095 19.7965 12.3375C19.7246 12.2655 19.6271 12.225 19.5255 12.225H3.64992C3.54829 12.225 3.45082 12.2655 3.37896 12.3375C3.3071 12.4095 3.26673 12.5072 3.26673 12.609C3.26673 12.7109 3.3071 12.8085 3.37896 12.8806C3.45082 12.9526 3.54829 12.993 3.64992 12.993H3.6482ZM7.85985 22.8958C7.85985 22.631 7.78148 22.372 7.63464 22.1518C7.48779 21.9316 7.27908 21.7599 7.0349 21.6586C6.79071 21.5572 6.52201 21.5307 6.26278 21.5824C6.00356 21.6341 5.76544 21.7616 5.57855 21.9489C5.39166 22.1362 5.26438 22.3748 5.21282 22.6346C5.16125 22.8943 5.18772 23.1636 5.28886 23.4083C5.39001 23.653 5.56129 23.8622 5.78105 24.0093C6.00082 24.1565 6.25919 24.235 6.52349 24.235C6.8777 24.2343 7.21718 24.093 7.46764 23.842C7.7181 23.591 7.85913 23.2508 7.85985 22.8958ZM7.85985 19.2213C7.85992 18.9565 7.7816 18.6975 7.6348 18.4772C7.488 18.257 7.27932 18.0853 7.03513 17.9838C6.79095 17.8824 6.52225 17.8559 6.263 17.9075C6.00375 17.9591 5.7656 18.0866 5.57867 18.2739C5.39174 18.4612 5.26443 18.6998 5.21284 18.9596C5.16125 19.2194 5.18769 19.4887 5.28883 19.7334C5.38996 19.9781 5.56125 20.1873 5.78102 20.3345C6.00079 20.4816 6.25917 20.5602 6.52349 20.5602C6.87764 20.5594 7.21707 20.4182 7.46752 20.1673C7.71797 19.9163 7.85904 19.5762 7.85985 19.2213ZM7.85985 15.5461C7.85985 15.2813 7.78148 15.0224 7.63464 14.8021C7.48779 14.5819 7.27908 14.4103 7.0349 14.3089C6.79071 14.2075 6.52201 14.181 6.26278 14.2327C6.00356 14.2844 5.76544 14.4119 5.57855 14.5992C5.39166 14.7865 5.26438 15.0251 5.21282 15.2849C5.16125 15.5447 5.18772 15.8139 5.28886 16.0586C5.39001 16.3033 5.56129 16.5125 5.78105 16.6596C6.00082 16.8068 6.25919 16.8853 6.52349 16.8853C6.8777 16.8846 7.21718 16.7433 7.46764 16.4923C7.7181 16.2413 7.85913 15.9011 7.85985 15.5461ZM6.85518 6.8363C7.33589 6.67492 7.56697 6.47501 7.66826 6.14297C7.73202 5.89295 7.75806 5.63478 7.74551 5.37703C7.74784 5.25837 7.72652 5.14043 7.68282 5.03012C7.63911 4.91981 7.57389 4.81934 7.49096 4.7346C7.40804 4.64986 7.30909 4.58254 7.19989 4.53658C7.09069 4.49062 6.97345 4.46695 6.85501 4.46695C6.73657 4.46695 6.61933 4.49062 6.51013 4.53658C6.40093 4.58254 6.30198 4.64986 6.21905 4.7346C6.13613 4.81934 6.07091 4.91981 6.0272 5.03012C5.98349 5.14043 5.96218 5.25837 5.96451 5.37703C5.94577 5.6601 5.98072 5.94416 6.06751 6.21419C6.14151 6.37211 6.25122 6.51057 6.38796 6.61856C6.52469 6.72655 6.68467 6.80111 6.85518 6.8363Z" fill="#393185"/>
</svg>
