<svg width="41" height="41" viewBox="0 0 41 41" fill="none" xmlns="http://www.w3.org/2000/svg">
<circle cx="20.0169" cy="20.9831" r="19" transform="rotate(-179.952 20.0169 20.9831)" stroke="#3B71FE" stroke-width="2"/>
<g clip-path="url(#clip0_108_4897)">
<path d="M15.6173 29.5114C14.8304 28.8338 14.7695 27.8919 15.6194 27.0654L22.2366 21.0062L15.6297 14.9359C14.7811 14.1078 14.8436 13.1643 15.6317 12.4937C16.0196 12.1781 16.5287 12.003 17.0572 12.0034C17.5857 12.0039 18.0945 12.1798 18.4818 12.4961C19.2192 13.1271 26.4203 19.7887 26.4203 19.7887C26.6071 19.9472 26.7557 20.1372 26.8571 20.3474C26.9586 20.5575 27.0107 20.7835 27.0105 21.0118C27.0103 21.24 26.9578 21.4659 26.856 21.6759C26.7542 21.8859 26.6054 22.0756 26.4182 22.2338C26.4182 22.2338 19.2059 28.8801 18.4675 29.5128C18.0797 29.8286 17.5705 30.0039 17.042 30.0034C16.5134 30.003 16.0045 29.8269 15.6173 29.5104L15.6173 29.5114Z" fill="#3B71FE"/>
</g>
<defs>
<clipPath id="clip0_108_4897">
<rect width="24" height="15" fill="white" transform="translate(13 33) rotate(-89.9516)"/>
</clipPath>
</defs>
</svg>
