<svg width="31" height="32" viewBox="0 0 31 32" fill="none" xmlns="http://www.w3.org/2000/svg">
<path id="Vector" d="M13.3949 19.9891C13.7641 20.7706 13.9523 21.554 13.3949 22.5228C14.9585 21.496 16.3496 21.6201 17.6051 22.5228C17.1487 21.6922 17.126 20.8336 17.6051 19.9891C16.3408 20.844 14.9823 21.0586 13.3949 19.9891ZM1.39954 22.1211C0.634686 22.9101 0 26.3545 0 26.3545C0 29.2017 5.62938 31.557 12.9972 32L9.87079 17.7421C6.30406 18.8081 2.88995 20.5853 1.39954 22.1211ZM29.6008 22.1211C28.1111 20.5853 24.697 18.8084 21.1292 17.7421L18.0052 32C25.3713 31.557 31 29.2021 31 26.3545C31.0028 26.3545 30.3685 22.9101 29.6008 22.1211ZM15.4998 18.8349C19.8202 18.8349 23.3224 13.1485 23.3224 8.47235C23.3224 3.79368 19.8205 0 15.4998 0C11.1798 0 7.67728 3.79332 7.67728 8.47235C7.67728 13.1485 11.1798 18.8349 15.4998 18.8349Z" fill="#393185"/>
</svg>
