<svg width="57" height="57" viewBox="0 0 57 57" fill="none" xmlns="http://www.w3.org/2000/svg">
<g id="Sketch-annotation-element-stroke-abstract-stars-plus-wink-filled">
<path id="Vector" fill-rule="evenodd" clip-rule="evenodd" d="M43.2866 19.4404C25.7558 30.0679 22.8027 31.3312 15.9024 25.0923C17.6134 31.0542 16.8317 35.39 13.6426 39.8247C21.5357 37.419 22.9757 39.6169 26.9823 42.3676C24.5161 34.5814 27.9747 32.0197 43.2866 19.4404Z" stroke="#FFB23F" stroke-width="3" stroke-miterlimit="1.5" stroke-linecap="round" stroke-linejoin="round"/>
<path id="Vector_2" d="M36.7061 35.2725C36.9564 36.0903 37.0557 36.9587 37.2167 37.7973" stroke="#FFB23F" stroke-width="3" stroke-miterlimit="1.5" stroke-linecap="round" stroke-linejoin="round"/>
<path id="Vector_3" d="M33.4092 40.544C34.0588 40.4444 34.7148 40.2597 35.3569 40.1099" stroke="#FFB23F" stroke-width="3" stroke-miterlimit="1.5" stroke-linecap="round" stroke-linejoin="round"/>
<path id="Vector_4" d="M38.0039 41.645C38.0018 42.4483 38.1457 43.4867 38.3983 44.2614" stroke="#FFB23F" stroke-width="3" stroke-miterlimit="1.5" stroke-linecap="round" stroke-linejoin="round"/>
<path id="Vector_5" d="M40.0762 39.3306C40.9424 39.4007 41.8548 39.0513 42.7204 38.9434" stroke="#FFB23F" stroke-width="3" stroke-miterlimit="1.5" stroke-linecap="round" stroke-linejoin="round"/>
<path id="Vector_6" d="M20.9736 12.4253C21.0673 13.3427 21.2228 14.2487 21.4049 15.1512" stroke="#FFB23F" stroke-width="3" stroke-miterlimit="1.5" stroke-linecap="round" stroke-linejoin="round"/>
<path id="Vector_7" d="M17.3682 17.5712C18.0547 17.5097 18.7122 17.4245 19.3882 17.3013" stroke="#FFB23F" stroke-width="3" stroke-miterlimit="1.5" stroke-linecap="round" stroke-linejoin="round"/>
<path id="Vector_8" d="M22.1309 18.9561C22.1451 19.8142 22.3161 20.7264 22.4902 21.5703" stroke="#FFB23F" stroke-width="3" stroke-miterlimit="1.5" stroke-linecap="round" stroke-linejoin="round"/>
<path id="Vector_9" d="M24.2988 16.6073C25.0804 16.4124 25.8034 16.1491 26.6118 16.0566" stroke="#FFB23F" stroke-width="3" stroke-miterlimit="1.5" stroke-linecap="round" stroke-linejoin="round"/>
</g>
</svg>
