<svg width="286" height="75" viewBox="0 0 286 75" fill="none" xmlns="http://www.w3.org/2000/svg">
<g clip-path="url(#clip0_850_109)">
<path d="M85.1216 61.62H83.1357V52.6734H85.1216V61.62ZM95.9509 61.62H93.965C93.6617 61.62 93.3964 61.5371 93.1689 61.3716C92.9826 61.2408 92.7895 61.0236 92.5896 60.72L89.166 55.6109C89.1316 55.5351 89.0728 55.4972 88.9899 55.4972V61.62H87.004V52.6734H88.9899C89.2868 52.6734 89.5522 52.7563 89.7867 52.9217C89.9795 53.0596 90.1726 53.2732 90.366 53.563L93.7787 58.6721C93.8134 58.755 93.8754 58.7962 93.965 58.7962V52.6734H95.9509V61.62ZM105.983 54.6593H102.508V61.62H100.522V54.6593H97.0369V52.6734H105.983V54.6593ZM115.023 61.62H107.069V52.6734H115.023V54.6593H109.055V56.1488H114.527V58.1346H109.055V59.6341H115.023V61.62ZM124.187 61.62H122.201V58.3412C122.201 58.2034 122.132 58.1346 121.994 58.1346H118.219V61.62H116.233V52.6734H122.201C122.739 52.6734 123.204 52.8662 123.597 53.2523C123.99 53.6389 124.187 54.1076 124.187 54.6593V56.1488C124.187 56.3415 124.154 56.5314 124.089 56.7174C124.023 56.9038 123.931 57.0451 123.815 57.1415C123.931 57.2379 124.023 57.3777 124.089 57.5605C124.154 57.7433 124.187 57.9345 124.187 58.1346V61.62ZM122.201 55.9521V54.8559C122.201 54.7245 122.132 54.6593 121.994 54.6593H118.219V56.1488H121.994C122.056 56.1488 122.106 56.1295 122.144 56.0916C122.182 56.0537 122.201 56.0071 122.201 55.9521ZM134.984 61.62H132.999C132.695 61.62 132.43 61.5371 132.203 61.3716C132.017 61.2408 131.824 61.0236 131.624 60.72L128.2 55.6109C128.166 55.5351 128.107 55.4972 128.024 55.4972V61.62H126.038V52.6734H128.024C128.321 52.6734 128.586 52.7563 128.821 52.9217C129.014 53.0596 129.206 53.2732 129.4 53.563L132.813 58.6721C132.847 58.755 132.909 58.7962 132.999 58.7962V52.6734H134.984V61.62ZM146.62 61.62H144.438L143.745 60.1305H139.122L138.429 61.62H136.246L140.063 53.4284C140.339 52.8282 140.797 52.5288 141.439 52.5288C141.749 52.5288 142.02 52.6062 142.25 52.7611C142.482 52.9163 142.666 53.1386 142.804 53.4284L146.62 61.62ZM143.042 58.6413L141.614 55.4763C141.573 55.3937 141.515 55.352 141.439 55.352C141.349 55.352 141.286 55.3937 141.252 55.4763L139.825 58.6413H143.042ZM153.767 54.6593H150.292V61.62H148.307V54.6593H144.821V52.6734H153.767V54.6593ZM156.756 61.62H154.771V52.6734H156.756V61.62ZM167.534 59.6341C167.534 60.1722 167.341 60.6375 166.955 61.0304C166.569 61.4233 166.1 61.62 165.548 61.62H160.573C160.022 61.62 159.553 61.4272 159.167 61.041C158.781 60.6545 158.587 60.1857 158.587 59.6341V54.6593C158.587 54.1076 158.781 53.6389 159.167 53.2523C159.553 52.8662 160.022 52.6734 160.573 52.6734H165.548C166.1 52.6734 166.569 52.8662 166.955 53.2523C167.341 53.6389 167.534 54.1076 167.534 54.6593V59.6341ZM165.548 59.4275V54.8559C165.548 54.8003 165.529 54.754 165.491 54.7161C165.453 54.6782 165.407 54.6593 165.352 54.6593H160.77C160.715 54.6593 160.668 54.6782 160.631 54.7161C160.593 54.754 160.573 54.8003 160.573 54.8559V59.4275C160.573 59.4892 160.593 59.5393 160.631 59.5772C160.668 59.6151 160.715 59.6341 160.77 59.6341H165.352C165.483 59.6341 165.548 59.565 165.548 59.4275ZM178.312 61.62H176.326C176.022 61.62 175.757 61.5371 175.529 61.3716C175.343 61.2408 175.15 61.0236 174.95 60.72L171.526 55.6109C171.492 55.5351 171.433 55.4972 171.351 55.4972V61.62H169.365V52.6734H171.351C171.647 52.6734 171.913 52.7563 172.147 52.9217C172.34 53.0596 172.533 53.2732 172.726 53.563L176.139 58.6721C176.174 58.755 176.236 58.7962 176.326 58.7962V52.6734H178.312V61.62ZM189.947 61.62H187.765L187.071 60.1305H182.448L181.756 61.62H179.573L183.39 53.4284C183.666 52.8282 184.124 52.5288 184.765 52.5288C185.075 52.5288 185.346 52.6062 185.577 52.7611C185.808 52.9163 185.992 53.1386 186.13 53.4284L189.947 61.62ZM186.368 58.6413L184.941 55.4763C184.9 55.3937 184.841 55.352 184.765 55.352C184.675 55.352 184.613 55.3937 184.579 55.4763L183.152 58.6413H186.368ZM198.159 61.62H191.199V52.6734H193.185V59.6341H198.159V61.62ZM211.605 59.6341C211.605 60.1787 211.411 60.6465 211.021 61.0359C210.631 61.4256 210.164 61.62 209.619 61.62H203.651V59.6341H209.413C209.55 59.6341 209.619 59.565 209.619 59.4275V58.3412C209.619 58.2034 209.55 58.1346 209.413 58.1346H205.637C205.085 58.1346 204.617 57.9412 204.23 57.5553C203.845 57.1692 203.651 56.7004 203.651 56.1488V54.6593C203.651 54.1076 203.845 53.6389 204.23 53.2523C204.617 52.8662 205.085 52.6734 205.637 52.6734H210.612V54.6593H205.834C205.779 54.6593 205.732 54.6782 205.694 54.7161C205.656 54.754 205.637 54.8003 205.637 54.8559V55.9521C205.637 56.0071 205.656 56.0537 205.694 56.0916C205.732 56.1295 205.779 56.1488 205.834 56.1488H209.619C210.164 56.1488 210.631 56.3435 211.021 56.7329C211.411 57.1226 211.605 57.5897 211.605 58.1346V59.6341ZM221.038 61.62H213.084V52.6734H221.038V54.6593H215.07V56.1488H220.541V58.1346H215.07V59.6341H221.038V61.62ZM230.202 61.62H228.216V58.3412C228.216 58.2034 228.147 58.1346 228.009 58.1346H224.234V61.62H222.248V52.6734H228.216C228.753 52.6734 229.219 52.8662 229.612 53.2523C230.005 53.6389 230.202 54.1076 230.202 54.6593V56.1488C230.202 56.3415 230.169 56.5314 230.103 56.7174C230.038 56.9038 229.946 57.0451 229.829 57.1415C229.946 57.2379 230.038 57.3777 230.103 57.5605C230.169 57.7433 230.202 57.9345 230.202 58.1346V61.62ZM228.216 55.9521V54.8559C228.216 54.7245 228.147 54.6593 228.009 54.6593H224.234V56.1488H228.009C228.071 56.1488 228.121 56.1295 228.159 56.0916C228.197 56.0537 228.216 56.0071 228.216 55.9521ZM239.613 52.6734L236.687 60.8739C236.466 61.4683 236.041 61.7652 235.414 61.7652C235.104 61.7652 234.841 61.6871 234.623 61.5322C234.406 61.3771 234.246 61.1579 234.142 60.8739L231.226 52.6734H233.408L235.239 58.2172C235.259 58.3001 235.318 58.3412 235.414 58.3412C235.504 58.3412 235.566 58.3001 235.6 58.2172L237.431 52.6734H239.613ZM243.006 61.62H241.02V52.6734H243.006V61.62ZM252.79 61.62H246.823C246.271 61.62 245.802 61.4272 245.416 61.041C245.03 60.6545 244.837 60.1857 244.837 59.6341V54.6593C244.837 54.1076 245.03 53.6389 245.416 53.2523C245.802 52.8662 246.271 52.6734 246.823 52.6734H252.79V54.6593H247.019C246.964 54.6593 246.917 54.6782 246.879 54.7161C246.842 54.754 246.823 54.8003 246.823 54.8559V59.4275C246.823 59.4892 246.842 59.5393 246.879 59.5772C246.917 59.6151 246.964 59.6341 247.019 59.6341H252.79V61.62ZM261.727 61.62H253.773V52.6734H261.727V54.6593H255.759V56.1488H261.23V58.1346H255.759V59.6341H261.727V61.62ZM270.683 59.6341C270.683 60.1787 270.489 60.6465 270.099 61.0359C269.71 61.4256 269.243 61.62 268.698 61.62H262.73V59.6341H268.491C268.629 59.6341 268.698 59.565 268.698 59.4275V58.3412C268.698 58.2034 268.629 58.1346 268.491 58.1346H264.716C264.164 58.1346 263.696 57.9412 263.309 57.5553C262.923 57.1692 262.73 56.7004 262.73 56.1488V54.6593C262.73 54.1076 262.923 53.6389 263.309 53.2523C263.696 52.8662 264.164 52.6734 264.716 52.6734H269.69V54.6593H264.913C264.858 54.6593 264.811 54.6782 264.773 54.7161C264.735 54.754 264.716 54.8003 264.716 54.8559V55.9521C264.716 56.0071 264.735 56.0537 264.773 56.0916C264.811 56.1295 264.858 56.1488 264.913 56.1488H268.698C269.243 56.1488 269.71 56.3435 270.099 56.7329C270.489 57.1226 270.683 57.5897 270.683 58.1346V59.6341Z" fill="#393185"/>
<path d="M121.992 47.2868H94.9842L98.5029 39.8487H110.37L103.242 24.6242C103.087 24.3398 102.868 24.1978 102.584 24.1978C102.222 24.1978 101.99 24.3398 101.886 24.6242L91.3103 47.2868H83.1367L97.4314 16.6052C98.4644 14.3581 100.182 13.2349 102.584 13.2349C104.96 13.2349 106.664 14.3581 107.697 16.6052L121.992 47.2868ZM155.6 21.882C153.503 20.6714 152.784 17.9902 153.995 15.8935C155.206 13.7965 157.887 13.0781 159.983 14.2887C162.081 15.4993 162.799 18.1804 161.588 20.2775C160.378 22.3742 157.697 23.0926 155.6 21.882Z" fill="#393185"/>
<path fill-rule="evenodd" clip-rule="evenodd" d="M134.528 15.4741V47.2867H125.8V15.4741H134.528ZM148.336 15.4741V47.2867H139.608V15.4741H148.336ZM162.143 24.0592V47.2867H153.415V24.0592H162.143ZM180.171 38.5744V47.5887C179.456 47.7079 178.804 47.7635 178.216 47.7635C174.726 47.7635 171.825 46.611 169.496 44.3135C167.167 42.0163 166.006 39.1389 166.006 35.6731C166.006 32.3025 167.183 29.4488 169.536 27.1038C171.88 24.759 174.742 23.5821 178.112 23.5821C181.864 23.5821 184.822 24.6793 186.992 26.8811C189.153 29.0832 190.235 32.0879 190.235 35.8955V47.2867H181.507V36.5236C181.507 35.2991 181.213 34.3215 180.617 33.5902C180.028 32.8667 179.225 32.5011 178.224 32.5011C177.318 32.5011 176.531 32.8352 175.871 33.5028C175.211 34.1705 174.877 34.9573 174.877 35.8717C174.877 36.8336 175.179 37.6285 175.775 38.2486C176.379 38.8683 177.143 39.1784 178.065 39.1784C178.82 39.1784 179.527 38.9798 180.171 38.5744ZM215.982 47.2867H207.254V34.1705C207.254 32.8352 206.713 32.1672 205.624 32.1672C204.551 32.1672 204.01 32.8352 204.01 34.1705V47.2867H195.282V34.3295C195.282 31.3088 196.284 28.7571 198.287 26.6903C200.29 24.6157 202.738 23.5821 205.648 23.5821C208.962 23.5821 211.625 24.7828 213.628 27.1915C215.194 29.0671 215.982 31.6824 215.982 35.0289V47.2867ZM235.321 36.5952L243.962 36.2691C243.715 39.6156 242.468 42.3742 240.218 44.5281C237.968 46.6827 235.226 47.7635 231.999 47.7635C228.581 47.7635 225.703 46.5792 223.35 44.2023C220.997 41.8255 219.821 38.9162 219.821 35.4743C219.821 32.1994 221.005 29.4013 223.382 27.0719C225.759 24.7429 228.604 23.5821 231.927 23.5821C234.829 23.5821 237.388 24.4965 239.614 26.3246C241.831 28.1611 243.215 30.4901 243.755 33.3277L234.932 33.6538C234.169 32.6604 233.207 32.1672 232.046 32.1672C231.053 32.1672 230.234 32.4933 229.598 33.1452C228.962 33.7971 228.644 34.6238 228.644 35.6172C228.644 36.6267 228.978 37.4694 229.654 38.1531C230.329 38.8368 231.172 39.1784 232.182 39.1784C233.652 39.1784 234.701 38.3202 235.321 36.5952ZM270.575 37.08H257.372C257.189 36.4121 257.093 35.8081 257.093 35.2516C257.093 34.4808 257.229 33.7174 257.491 32.9782H261.919C261.609 31.2294 260.639 30.3549 259.009 30.3549C257.92 30.3549 257.038 30.8159 256.354 31.746C255.671 32.6681 255.329 33.8604 255.329 35.3075C255.329 36.8176 255.655 38.0339 256.314 38.9718C256.974 39.9019 257.841 40.371 258.914 40.371C259.78 40.371 260.623 39.9337 261.426 39.0592L266.386 45.029C264.073 46.8494 261.497 47.7635 258.667 47.7635C255.226 47.7635 252.324 46.603 249.979 44.2897C247.634 41.9688 246.458 39.107 246.458 35.6808C246.458 32.2787 247.642 29.4013 250.011 27.0562C252.388 24.7111 255.297 23.5346 258.747 23.5346C262.117 23.5346 264.955 24.6793 267.244 26.9765C269.542 29.266 270.686 32.0879 270.686 35.4505C270.686 35.7923 270.646 36.3327 270.575 37.08Z" fill="#898989"/>
<path fill-rule="evenodd" clip-rule="evenodd" d="M18.7531 69.9699C0.820098 59.6161 -5.3242 36.6865 5.0296 18.7532C15.3834 0.819596 38.313 -5.32406 56.2463 5.02974C74.1793 15.3832 80.3236 38.3129 69.9698 56.2465C59.6157 74.1801 36.6863 80.3237 18.7531 69.9699ZM63.8104 60.5578H27.2341L31.9997 50.4845H48.0712L38.4181 29.8662C38.208 29.4816 37.9105 29.2892 37.5259 29.2892C37.0362 29.2892 36.7214 29.4816 36.5819 29.8662L22.2593 60.5578H11.189L30.5485 19.0064C31.947 15.9635 34.2728 14.4419 37.5259 14.4419C40.7439 14.4419 43.052 15.9635 44.4509 19.0064L63.8104 60.5578Z" fill="#393185"/>
<path d="M63.8103 60.5578H27.234L31.9997 50.4849H48.0708L38.4181 29.8662C38.2079 29.4817 37.9104 29.2892 37.5258 29.2892C37.0362 29.2892 36.7213 29.4817 36.5816 29.8662L22.2592 60.5578H11.189L30.5484 19.0064C31.947 15.9635 34.2728 14.4419 37.5258 14.4419C40.7439 14.4419 43.0523 15.9635 44.4509 19.0064L63.8103 60.5578Z" fill="#FEFEFE"/>
<path d="M276.918 19.3676V14.3346H275.954V13.2349H279.312V14.3346H278.348V19.3676H276.918ZM279.83 19.3676V13.2349H281.9L282.723 18.0747L283.586 13.2349H285.624V19.3676H284.33L284.417 14.1849L283.466 19.3676H281.884L280.962 14.1849L281.065 19.3676H279.83Z" fill="#393185"/>
</g>
<defs>
<clipPath id="clip0_850_109">
<rect width="285.624" height="75" fill="white"/>
</clipPath>
</defs>
</svg>
