<svg width="32" height="32" viewBox="0 0 32 32" fill="none" xmlns="http://www.w3.org/2000/svg">
<g clip-path="url(#clip0_789_100)">
<path d="M28.6938 6.26875C25.7625 2.45625 21.1625 0 16 0C10.8375 0 6.2375 2.45625 3.3125 6.26875C3.1125 6.525 2.91875 6.79375 2.73125 7.06875C2.55 7.3375 2.375 7.6125 2.2125 7.89375C2.1 8.08125 1.99375 8.26875 1.89375 8.4625C1.8375 8.55625 1.79375 8.65 1.74375 8.74375C1.6125 8.99375 1.49375 9.25 1.375 9.5125C1.275 9.725 1.1875 9.9375 1.1 10.1562C0.85 10.7875 0.64375 11.4375 0.48125 12.1C0.425 12.3125 0.375 12.525 0.33125 12.7437C0.225 13.2625 0.14375 13.8 0.0875 14.3375C0.05 14.7062 0.025 15.0813 0.0125 15.4563C0.00625 15.6438 0 15.8187 0 16C0 19.6625 1.2375 23.0375 3.3125 25.7313C6.2375 29.5375 10.8375 32 16 32C21.1625 32 25.7625 29.5375 28.6875 25.7313C30.7687 23.0313 32 19.6562 32 16C32 12.3438 30.7688 8.9625 28.6938 6.26875Z" fill="#032774"/>
<path d="M3.27539 12.7568L0.0878906 14.3506C0.144141 13.8131 0.225391 13.2756 0.331641 12.7568H3.27539Z" fill="#032774"/>
<path d="M7.06172 6.26895V9.2377L2.73047 7.0627C2.91172 6.7877 3.10547 6.5252 3.31172 6.2627H7.06172V6.26895Z" fill="#032774"/>
<path d="M3.275 9.51289H1.375C1.4875 9.25039 1.6125 8.99414 1.74375 8.74414L3.275 9.51289Z" fill="#032774"/>
<path d="M18.4188 9.51309V7.35059L14.0938 9.51309H18.4188Z" fill="#032774"/>
<path d="M16.2316 6.2627H10.3066V9.23145L16.2316 6.2627Z" fill="#032774"/>
<path d="M18.4188 14.9131V12.7568H14.0938L18.4188 14.9131Z" fill="#032774"/>
<path d="M1.13672 16H7.06172V13.0312L1.13672 16Z" fill="#032774"/>
<path d="M10.3066 16H16.2316L10.3066 13.0312V16Z" fill="#032774"/>
<path d="M18.418 7.35039L14.093 9.51914H18.418V12.7566H14.093L18.418 14.9191V15.2879L13.3617 12.7566H11.9117L18.3992 16.0004H16.2305L10.2992 13.0316V16.0004H7.06172V13.0316L1.13672 16.0004H0.405469L6.89297 12.7566H5.44297L0.0117188 15.4691C0.0242188 15.0941 0.0492187 14.7191 0.0867187 14.3504L3.27422 12.7566H0.330469C0.374219 12.5379 0.430469 12.3191 0.480469 12.1129C0.642969 11.4441 0.855469 10.7941 1.09922 10.1691C1.18672 9.95039 1.27422 9.73164 1.37422 9.52539H3.27422L1.74297 8.75664C1.79297 8.65664 1.84297 8.56914 1.89297 8.47539L3.99297 9.52539H5.44922L2.21172 7.90039C2.37422 7.61914 2.54922 7.34414 2.73047 7.07539L7.06172 9.24414V6.27539H10.2992V9.24414L16.2305 6.27539H16.9555L10.468 9.51914H11.9242L18.4117 6.27539H18.4242V7.35039H18.418Z" fill="white"/>
<path d="M5.45078 9.5123H3.99453L1.89453 8.4623C1.99453 8.26855 2.10078 8.08105 2.21328 7.89355L5.45078 9.5123Z" fill="#DF0333"/>
<path d="M11.9121 12.7568L18.3996 16.0006H18.4184V15.2818L13.3684 12.7568H11.9121Z" fill="#DF0333"/>
<path d="M10.4629 9.5127H11.9191L18.4129 6.2627H16.9566L10.4629 9.5127Z" fill="#DF0333"/>
<path d="M6.89375 12.7568L0.40625 16.0006H0C0 15.8193 0.00625 15.6443 0.0125 15.4693L5.44375 12.7568H6.89375Z" fill="#DF0333"/>
<path d="M18.418 10.1623V12.1061H9.65547V15.9998H7.71172V12.1061H0.480469C0.642969 11.4373 0.855469 10.7873 1.09922 10.1623H7.70547V6.26855H9.64922V10.1623H18.418Z" fill="#DF0333"/>
<path d="M8.68164 22.1939L7.41914 23.5002L7.64414 21.6939L5.83789 21.5189L7.39414 20.5752L6.40039 19.0502L8.10664 19.6752L8.68164 17.9502L9.25664 19.6752L10.9629 19.0502L9.97539 20.5752L11.5254 21.5189L9.71914 21.6939L9.95039 23.5002L8.68164 22.1939Z" fill="white"/>
<path d="M24.632 23.1313L24.0258 23.7563L24.1383 22.8875L23.2695 22.8062L24.0133 22.3563L23.5383 21.625L24.357 21.925L24.632 21.0938L24.907 21.925L25.7258 21.625L25.2508 22.3563L25.9945 22.8062L25.1258 22.8875L25.2383 23.7563L24.632 23.1313Z" fill="white"/>
<path d="M21.175 15.4189L20.5688 16.0439L20.675 15.1814L19.8125 15.0939L20.5562 14.6439L20.0812 13.9127L20.9 14.2127L21.175 13.3877L21.45 14.2127L22.2687 13.9127L21.7938 14.6439L22.5375 15.0939L21.6688 15.1814L21.7812 16.0439L21.175 15.4189Z" fill="white"/>
<path d="M24.632 10.1504L24.0258 10.7691L24.132 9.90664L23.2695 9.82539L24.007 9.37539L23.5383 8.64414L24.357 8.94414L24.632 8.11914L24.907 8.94414L25.7258 8.64414L25.2508 9.37539L25.9945 9.82539L25.1258 9.90664L25.232 10.7691L24.632 10.1504Z" fill="white"/>
<path d="M28.9504 14.1191L28.3441 14.7441L28.4504 13.8816L27.5879 13.8004L28.3316 13.3441L27.8566 12.6191L28.6754 12.9129L28.9504 12.0879L29.2254 12.9129L30.0379 12.6191L29.5691 13.3441L30.3129 13.8004L29.4441 13.8816L29.5566 14.7441L28.9504 14.1191Z" fill="white"/>
<path d="M26.575 17.1621L26.0875 17.4871L26.2437 16.9184L25.7812 16.5496L26.375 16.5246L26.575 15.9746L26.7812 16.5246L27.375 16.5496L26.9125 16.9184L27.0688 17.4871L26.575 17.1621Z" fill="white"/>
</g>
<defs>
<clipPath id="clip0_789_100">
<rect width="32" height="32" fill="white"/>
</clipPath>
</defs>
</svg>
