<svg width="161" height="161" viewBox="0 0 161 161" fill="none" xmlns="http://www.w3.org/2000/svg">
<rect width="161" height="161" fill="white"/>
<path fill-rule="evenodd" clip-rule="evenodd" d="M136.275 30.2892C136.349 30.2892 136.421 30.3111 136.483 30.3522C136.544 30.3933 136.592 30.4516 136.621 30.5199C136.649 30.5882 136.656 30.6633 136.642 30.7359C136.627 30.8083 136.592 30.8749 136.54 30.9272C136.487 30.9795 136.421 31.015 136.348 31.0295C136.276 31.0439 136.201 31.0365 136.132 31.0082C136.064 30.9799 136.006 30.932 135.965 30.8706C135.924 30.8091 135.902 30.7368 135.902 30.663C135.902 30.5638 135.941 30.4688 136.011 30.3987C136.081 30.3286 136.176 30.2892 136.275 30.2892ZM126.222 18.6274H122.235V19.2681C122.236 19.7457 122.426 20.2037 122.763 20.542C123.1 20.8804 123.557 21.0719 124.035 21.0747C124.53 21.0747 125.367 20.8718 125.694 20.5429C125.862 20.3747 125.995 20.1748 126.086 19.9549C126.176 19.7351 126.222 19.4994 126.222 19.2617V18.621V18.6274ZM122.418 17.9868H126.335L126.975 14.3714H123.986L122.418 17.9825V17.9868ZM137.394 14.3672L137.666 17.9825H142.045L141.307 14.3672H137.394ZM136.809 17.9825L136.54 14.3672H132.696L132.429 17.9825H136.809ZM131.573 17.9825L131.838 14.3672H127.834L127.193 17.9825H131.573ZM142.159 14.3672L142.895 17.9825H146.801L145.112 14.3672H142.159ZM143.013 18.6381V19.2787C143.012 19.5165 143.058 19.7521 143.149 19.972C143.239 20.1919 143.372 20.3917 143.54 20.56C143.867 20.8889 144.704 21.0918 145.199 21.0918C145.677 21.0889 146.134 20.8975 146.472 20.5591C146.809 20.2207 146.999 19.7628 147 19.2852V18.6445L143.013 18.6381ZM137.73 18.6274V19.2681C137.729 19.506 137.775 19.7418 137.866 19.9618C137.957 20.1817 138.091 20.3814 138.259 20.5494C138.586 20.8782 139.421 21.0811 139.916 21.0811C140.412 21.0811 141.247 20.8782 141.573 20.5494C141.742 20.3814 141.876 20.1817 141.967 19.9618C142.058 19.7418 142.104 19.506 142.103 19.2681V18.6274H137.73ZM132.429 18.6274V19.2681C132.428 19.506 132.475 19.7418 132.566 19.9618C132.657 20.1817 132.79 20.3814 132.959 20.5494C133.286 20.8782 134.121 21.0811 134.616 21.0811C135.112 21.0811 135.947 20.8782 136.273 20.5494C136.442 20.3814 136.576 20.1817 136.666 19.9618C136.757 19.7418 136.804 19.506 136.803 19.2681V18.6274H132.429ZM127.129 18.6274V19.2681C127.128 19.506 127.175 19.7418 127.265 19.9618C127.356 20.1817 127.49 20.3814 127.659 20.5494C127.985 20.8782 128.82 21.0811 129.316 21.0811C129.811 21.0811 130.646 20.8782 130.973 20.5494C131.142 20.3814 131.275 20.1817 131.366 19.9618C131.457 19.7418 131.504 19.506 131.503 19.2681V18.6274H127.129ZM144.151 21.5722C143.884 21.4484 143.226 21.2775 143.019 21.0704C142.838 20.8892 142.686 20.6819 142.566 20.4554C142.447 20.6819 142.295 20.8892 142.114 21.0704C141.657 21.5274 140.619 21.8093 139.916 21.8093C139.214 21.8093 138.18 21.5274 137.73 21.0704C137.549 20.8892 137.396 20.6819 137.277 20.4554C137.158 20.6819 137.005 20.8892 136.824 21.0704C136.367 21.5274 135.329 21.8093 134.627 21.8093C133.924 21.8093 132.886 21.5274 132.429 21.0704C132.244 20.8901 132.087 20.6827 131.964 20.4554C131.844 20.6819 131.692 20.8892 131.511 21.0704C131.054 21.5274 130.016 21.8093 129.314 21.8093C128.611 21.8093 127.573 21.5274 127.116 21.0704C126.936 20.8892 126.783 20.6819 126.664 20.4554C126.544 20.6819 126.392 20.8892 126.211 21.0704C125.91 21.3715 125.118 21.5958 124.699 21.711C124.608 21.7224 124.514 21.731 124.417 21.7367V34.2207C124.417 34.284 124.443 34.3446 124.488 34.3893C124.533 34.4355 124.596 34.4616 124.661 34.4619H134.27V25.8411C134.271 25.2897 134.491 24.7614 134.881 24.3715C135.27 23.9817 135.799 23.7622 136.35 23.7611H139.788C140.339 23.7628 140.867 23.9826 141.256 24.3723C141.646 24.762 141.865 25.2901 141.866 25.8411V34.464H144.574C144.606 34.4638 144.637 34.4573 144.666 34.4448C144.696 34.4324 144.722 34.4142 144.745 34.3914C144.789 34.3463 144.813 34.2858 144.813 34.2228V21.7538C144.813 21.7302 144.813 21.7068 144.813 21.6854C144.589 21.6619 144.368 21.6241 144.149 21.5722H144.151ZM135.238 34.464H140.901V25.8411C140.9 25.5457 140.782 25.2629 140.573 25.0541C140.364 24.8453 140.081 24.7275 139.786 24.7263H136.352C136.057 24.7275 135.774 24.8453 135.565 25.0541C135.356 25.2629 135.239 25.5457 135.238 25.8411V34.464ZM127.906 25.3499H131.345C131.473 25.3499 131.596 25.4007 131.687 25.4911C131.777 25.5816 131.829 25.7043 131.829 25.8325V30.9427C131.829 31.0713 131.778 31.1946 131.687 31.2855C131.596 31.3764 131.473 31.4274 131.345 31.4274H127.906C127.778 31.4274 127.655 31.3764 127.564 31.2855C127.473 31.1946 127.422 31.0713 127.422 30.9427V25.8325C127.422 25.7043 127.474 25.5816 127.564 25.4911C127.655 25.4007 127.778 25.3499 127.906 25.3499ZM130.862 26.3172H128.387V30.4601H130.862V26.3172ZM123.287 21.6513C122.894 21.5592 122.532 21.3621 122.241 21.0811C122.005 20.8464 121.818 20.5671 121.691 20.2596C121.564 19.952 121.499 19.6223 121.5 19.2894V18.2985C121.5 18.2487 121.513 18.1995 121.536 18.1555L123.518 13.8974C123.543 13.8526 123.579 13.8153 123.623 13.7894C123.667 13.7634 123.717 13.7498 123.768 13.75H145.315C145.369 13.7502 145.422 13.7655 145.467 13.7942C145.513 13.8228 145.55 13.8638 145.573 13.9123L147.709 18.147C147.733 18.1878 147.747 18.234 147.749 18.2815C147.75 18.2907 147.75 18.3 147.749 18.3093V19.2873C147.749 19.6183 147.684 19.9461 147.556 20.2517C147.429 20.5573 147.243 20.8348 147.008 21.0683C146.719 21.3518 146.356 21.5473 145.96 21.6321C145.968 21.6713 145.973 21.7114 145.973 21.7516V34.2207C145.971 34.5881 145.823 34.9399 145.562 35.1987C145.434 35.328 145.281 35.4306 145.112 35.5006C144.943 35.5706 144.763 35.6066 144.58 35.6065H124.667C124.485 35.6063 124.304 35.5701 124.136 35.5002C123.968 35.4302 123.815 35.3277 123.687 35.1987C123.558 35.0706 123.455 34.9182 123.385 34.7504C123.315 34.5825 123.279 34.4025 123.279 34.2207V21.7538C123.276 21.7161 123.276 21.6783 123.279 21.6406L123.287 21.6513Z" fill="#393185"/>
<path d="M38.7717 140.242H37.0476V125.5C37.0476 124.121 35.9268 123 34.5475 123H15.4091C14.0299 123 12.909 124.121 12.909 125.5V140.242H11.1849C11.0557 140.242 10.9263 140.328 10.84 140.414C10.7539 140.543 10.7108 140.673 10.797 140.802C11.8747 144.078 14.8919 146.276 18.3833 146.276H31.6161C35.0213 146.276 38.0817 144.121 39.2023 140.802C39.2454 140.673 39.2454 140.543 39.1591 140.414C39.0297 140.328 38.901 140.242 38.7717 140.242ZM13.7712 125.5C13.7712 124.595 14.504 123.862 15.4091 123.862H34.5904C35.4955 123.862 36.2283 124.595 36.2283 125.5L36.2285 140.242H29.8492C29.6769 140.242 29.5475 140.328 29.4614 140.5L28.7286 142.052H21.2282L20.4954 140.5C20.4093 140.328 20.2368 140.242 20.1076 140.242H13.7712L13.7712 125.5ZM31.5733 145.414H18.3835C15.4956 145.414 12.9092 143.69 11.7886 141.104H19.8061L20.5389 142.655C20.6252 142.785 20.7544 142.914 20.9268 142.914H28.9872C29.1596 142.914 29.289 142.828 29.3751 142.655L30.1512 141.104H38.1687C37.0481 143.69 34.4613 145.414 31.5733 145.414Z" fill="#393185" stroke="#393185" stroke-width="0.3"/>
<path d="M23.2117 138.259C23.2979 138.302 23.3409 138.345 23.4272 138.345H25.841C26.0133 139.035 26.66 139.509 27.3928 139.509C28.2548 139.509 28.9875 138.776 28.9875 137.914C28.9875 137.052 28.2548 136.32 27.3928 136.32C26.66 136.32 26.0564 136.794 25.841 137.483H23.5134L21.8756 136.449C23.4703 136.061 24.7635 134.94 25.3239 133.431H27.9101C28.0393 133.431 28.1255 133.388 28.2118 133.302L29.2895 132.224C29.505 132.354 29.7636 132.44 30.0654 132.44C30.9274 132.44 31.6602 131.707 31.6602 130.845C31.6602 129.983 30.9274 129.25 30.0654 129.25C29.2034 129.25 28.4706 129.983 28.4706 130.845C28.4706 131.147 28.5569 131.406 28.6862 131.621L27.7379 132.569H25.5827C25.6259 132.267 25.669 131.923 25.669 131.578C25.669 130.328 25.1948 129.207 24.4621 128.345L26.1431 126.707L28.4273 126.707C28.5996 127.397 29.2463 127.871 29.9791 127.871C30.8411 127.871 31.5738 127.138 31.5738 126.276C31.5738 125.414 30.8411 124.681 29.9791 124.681C29.2463 124.681 28.6428 125.198 28.4273 125.845H25.9703C25.8412 125.845 25.7549 125.888 25.6686 125.974L23.9012 127.741C23.0393 127.009 21.9185 126.578 20.7116 126.578C17.9528 126.578 15.7114 128.819 15.7114 131.578C15.7114 134.293 17.8666 136.492 20.539 136.578L23.2117 138.259ZM27.3928 137.181C27.7807 137.181 28.1256 137.526 28.1256 137.914C28.1256 138.302 27.7807 138.647 27.3928 138.647C27.005 138.647 26.66 138.302 26.66 137.914C26.66 137.483 27.005 137.181 27.3928 137.181ZM30.1084 130.112C30.4962 130.112 30.8411 130.457 30.8411 130.845C30.8411 131.233 30.4962 131.578 30.1084 131.578C29.7206 131.578 29.3756 131.233 29.3756 130.845C29.3756 130.457 29.6774 130.112 30.1084 130.112ZM29.9792 125.543C30.3671 125.543 30.7119 125.888 30.7119 126.276C30.7119 126.664 30.3671 127.009 29.9792 127.009C29.5913 127.009 29.2464 126.664 29.2464 126.276C29.2464 125.845 29.5911 125.543 29.9792 125.543ZM23.5999 128.604C24.2895 129.25 24.7205 130.155 24.85 131.147H21.143V127.44C22.0913 127.569 22.9532 127.957 23.5999 128.604ZM24.85 132.009C24.7637 132.828 24.419 133.604 23.9448 134.207L21.7466 132.009H24.85ZM16.5309 131.578C16.5309 129.423 18.1688 127.656 20.2379 127.44C20.2379 131.793 20.1948 131.707 20.3672 131.88L23.2982 134.811C22.5654 135.371 21.6603 135.759 20.669 135.759C18.4275 135.759 16.5309 133.862 16.5309 131.578Z" fill="#393185" stroke="#393185" stroke-width="0.3"/>
<path d="M24.5705 88.4596C21.7055 88.4596 18.8012 87.6433 15.9395 86.0306C15.7658 85.9322 15.6543 85.7454 15.6543 85.5454V77.6388C15.6543 77.3307 15.9034 77.0815 16.2116 77.0815C16.5197 77.0815 16.7688 77.3307 16.7688 77.6388V85.2176C19.3716 86.6305 21.994 87.3484 24.5705 87.3484C27.1471 87.3484 29.7761 86.6305 32.3822 85.2176V77.9305C32.3822 77.6224 32.6312 77.3733 32.9394 77.3733C33.2475 77.3733 33.4967 77.6224 33.4967 77.9305V85.5454C33.4967 85.7454 33.3885 85.9322 33.2115 86.0306C30.3432 87.6433 27.4355 88.4596 24.5705 88.4596Z" fill="#393185"/>
<path d="M24.5706 81.9493C24.4919 81.9493 24.4133 81.933 24.3412 81.9002L11.7797 76.1898C11.5896 76.1046 11.4618 75.9177 11.4552 75.708C11.4454 75.4981 11.5535 75.3015 11.7371 75.1998L24.2953 68.0734C24.4625 67.9783 24.6657 67.9751 24.8329 68.0668L38.0958 75.19C38.2827 75.2917 38.3974 75.4916 38.3876 75.7047C38.3777 75.9177 38.2466 76.1079 38.0499 76.1931L32.7002 78.4975C32.4182 78.6189 32.0905 78.4877 31.9692 78.2058C31.8479 77.9239 31.979 77.5961 32.261 77.4748L36.5519 75.626L24.5772 69.1945L13.2352 75.626L24.5772 80.7823L28.1207 79.2548C28.4027 79.1335 28.7305 79.2646 28.8518 79.5465C28.973 79.8285 28.8419 80.1562 28.56 80.2775L24.7903 81.9002C24.7214 81.933 24.6461 81.9493 24.5706 81.9493Z" fill="#393185"/>
<path d="M30.5689 84.4178C30.2608 84.4178 30.0117 84.1686 30.0117 83.8604V79.0778L24.7603 75.4031C24.5078 75.2261 24.4456 74.8787 24.6226 74.6262C24.7996 74.3738 25.147 74.3115 25.3995 74.4886L30.8902 78.3304C31.0377 78.4353 31.1295 78.6058 31.1295 78.7861V83.8572C31.1262 84.1686 30.877 84.4178 30.5689 84.4178ZM14.7425 90.9771C14.713 90.9771 14.6803 90.9738 14.6475 90.9705C14.3426 90.9181 14.1394 90.6329 14.1918 90.3281L14.6049 87.8892C14.6573 87.5843 14.9425 87.3811 15.2474 87.4335C15.5522 87.486 15.7555 87.7712 15.703 88.076L15.29 90.5149C15.2441 90.787 15.0081 90.9771 14.7425 90.9771ZM17.0372 90.9771C17.0077 90.9771 16.9749 90.9738 16.9421 90.9705C16.6373 90.9181 16.434 90.6329 16.4865 90.3281L16.8995 87.8892C16.9519 87.5843 17.2371 87.3811 17.542 87.4335C17.8468 87.486 18.0501 87.7712 17.9977 88.076L17.5846 90.5149C17.5387 90.787 17.3027 90.9771 17.0372 90.9771ZM19.6596 90.9771C19.6366 90.9771 19.6105 90.9771 19.5875 90.9738C19.2826 90.9345 19.0663 90.6558 19.1056 90.351L19.3121 88.748C19.3515 88.4432 19.6301 88.2268 19.935 88.2662C20.2398 88.3055 20.4562 88.5842 20.4169 88.889L20.2103 90.4919C20.1742 90.7739 19.935 90.9771 19.6596 90.9771ZM31.8637 90.6689C30.841 90.6689 30.0117 89.9478 30.0117 89.0594C30.0117 88.1711 30.841 87.4499 31.8637 87.4499C32.8865 87.4499 33.7159 88.1711 33.7159 89.0594C33.7159 89.9478 32.8865 90.6689 31.8637 90.6689ZM31.8637 88.5644C31.4704 88.5644 31.1262 88.7972 31.1262 89.0594C31.1262 89.3249 31.4704 89.5544 31.8637 89.5544C32.2571 89.5544 32.6013 89.3217 32.6013 89.0594C32.6013 88.7939 32.2571 88.5644 31.8637 88.5644Z" fill="#393185"/>
<path d="M38.951 92.6259H11.3072C11.1368 92.6259 10.9761 92.5472 10.8712 92.416C10.7663 92.2849 10.727 92.1112 10.7631 91.9441L12.0579 86.296C12.1169 86.0436 12.3398 85.8633 12.602 85.8633H15.1163C15.4244 85.8633 15.6736 86.1124 15.6736 86.4205C15.6736 86.7286 15.4244 86.9778 15.1163 86.9778H13.0446L12.0054 91.5113H37.997L35.4434 86.9778H34.0667C33.7585 86.9778 33.5094 86.7286 33.5094 86.4205C33.5094 86.1124 33.7585 85.8633 34.0667 85.8633H35.768C35.9679 85.8633 36.1547 85.9714 36.2531 86.1484L39.4361 91.7965C39.5345 91.9702 39.5312 92.18 39.4329 92.3505C39.3312 92.521 39.1509 92.6259 38.951 92.6259Z" fill="#393185"/>
<path d="M75.0362 66.532C73.9396 66.713 72.9813 67.5648 72.6084 68.6774C72.4754 69.0766 72.4754 69.8751 72.6084 70.2746C72.9438 71.2808 73.7265 72.0474 74.7008 72.3349L75.0362 72.4308V72.8674V73.3093H74.8234H74.6106V74.587V75.8647H74.8182H75.026L75.0526 77.0998C75.0793 78.4147 75.1219 78.6862 75.388 79.3729C75.6596 80.0542 75.9896 80.5442 76.5965 81.1509L77.1658 81.7258V82.2475V82.764L75.3185 83.1791C74.3016 83.4081 73.2849 83.6635 73.0667 83.7489C71.5549 84.3292 70.3251 85.6335 69.7821 87.2305C69.5372 87.9546 69.5 88.3963 69.5 90.7282V92.9H80.1471H90.7944V90.7546C90.7944 89.1574 90.7731 88.4866 90.7147 88.1086C90.4218 86.1709 89.043 84.4461 87.2277 83.7486C87.0094 83.6635 85.9925 83.4079 84.9759 83.1789L83.1286 82.7637V82.2473V81.7258L83.7035 81.1509C84.3051 80.544 84.6351 80.0542 84.9066 79.3729C85.1728 78.6862 85.2153 78.4147 85.242 77.0998L85.2687 75.8647H85.4763H85.684V74.587V73.3093H85.4713H85.2582V72.8674V72.4257L85.5297 72.3564C86.52 72.1008 87.3397 71.3131 87.6859 70.2749C87.819 69.8756 87.819 69.0772 87.6859 68.6777C87.5208 68.1825 87.2707 67.7674 86.93 67.4266C86.2272 66.7079 85.2902 66.3884 84.3587 66.5481C83.8476 66.6333 83.214 66.9528 82.8094 67.3307L82.4894 67.6233L82.1701 67.3304C81.4994 66.7076 80.5783 66.4094 79.7373 66.5371C79.1891 66.6222 78.5501 66.9363 78.1242 67.3304L77.8047 67.6233L77.496 67.3358C76.8199 66.7127 75.8509 66.3935 75.0362 66.532ZM76.3301 67.522C76.6867 67.6817 77.0434 68.0063 77.2724 68.363L77.4427 68.6238H77.8047H78.1668L78.337 68.363C78.566 68.0063 78.9227 67.6815 79.2847 67.5166C79.5509 67.3889 79.6521 67.3727 80.1473 67.3727C80.6424 67.3727 80.7435 67.3886 81.0099 67.5166C81.372 67.6868 81.7286 68.0063 81.9576 68.363L82.1278 68.6238H82.4899H82.852L83.0225 68.363C83.4217 67.7348 83.9756 67.4048 84.6994 67.3568C86.0517 67.2771 87.0417 68.2779 86.9461 69.6353C86.8877 70.4979 86.4192 71.1525 85.6418 71.4666C85.4874 71.5251 85.1946 71.573 84.9018 71.5943L84.4066 71.621V72.462V73.3084H80.1471H75.888V72.462V71.621L75.3983 71.5943C75.1 71.573 74.8075 71.5251 74.6529 71.4666C73.881 71.1579 73.4123 70.503 73.3485 69.662C73.2633 68.5758 73.8541 67.7135 74.8765 67.4153C75.2598 67.3038 75.9734 67.3571 76.3301 67.522ZM84.832 74.5867V75.0126H80.1471H75.4621V74.5867V74.1608H80.1471H84.832V74.5867ZM84.3899 77.1259C84.3633 78.5422 84.3312 78.7336 83.9748 79.4683C83.4584 80.5437 82.4468 81.3796 81.265 81.6988C80.7807 81.8319 79.5135 81.8319 79.0291 81.6988C77.8473 81.3793 76.8357 80.5437 76.3193 79.4683C75.9626 78.7336 75.9306 78.5419 75.9039 77.1259L75.8773 75.8641H80.1471H84.4166L84.3899 77.1259ZM78.6352 82.423C79.2581 82.6357 80.0089 82.7158 80.6848 82.6357C81.1373 82.5824 81.7868 82.4068 82.186 82.2311C82.266 82.194 82.2766 82.2204 82.2766 82.4335V82.6783H82.0051C81.5578 82.6783 81.3235 82.7796 80.9935 83.1043C80.7591 83.3386 80.6793 83.4555 80.626 83.6791L80.5514 83.956H80.1471H79.7425L79.6678 83.6791C79.6145 83.4555 79.5347 83.3383 79.3003 83.1043C78.9703 82.7796 78.736 82.6783 78.2888 82.6783H78.0172V82.4335C78.0172 82.2204 78.028 82.194 78.1131 82.2311C78.1614 82.2527 78.4008 82.3378 78.6352 82.423ZM78.7629 83.6368C78.8535 83.7274 78.8694 83.8125 78.8694 84.2755V84.8078H79.2952H79.7212V85.303V85.7981L77.5916 86.6499L75.4621 87.4963V89.7697V92.0482H75.0362H74.6103V91.1964V90.3446H74.1844H73.7585V91.1964V92.0482H72.0549H70.3513V90.2436C70.3513 88.2897 70.3884 87.9013 70.6495 87.2092C71.1126 85.9794 72.1454 84.9679 73.4123 84.5048C73.5295 84.4622 74.4982 84.2281 75.5686 83.983C77.3147 83.5837 77.5704 83.5412 78.0865 83.5358C78.5873 83.5304 78.667 83.5409 78.7629 83.6368ZM84.5976 83.9563C86.7643 84.4407 86.8815 84.4727 87.4671 84.7761C88.5959 85.3563 89.4477 86.4104 89.7936 87.6615C89.9 88.0502 89.9108 88.2313 89.932 90.0679L89.9533 92.0485H88.2443H86.5354V91.1967V90.3448H86.1094H85.6835V91.1967V92.0485H80.9989H76.3139V90.0574V88.0663L78.4327 87.2254L80.5463 86.3789L80.5622 85.591L80.5781 84.8084H80.9985H81.4245V84.2761C81.4245 83.5573 81.4512 83.5306 82.1591 83.5306C82.6173 83.5304 82.9152 83.5834 84.5976 83.9563Z" fill="#393185" stroke="#393185" stroke-width="0.3"/>
<path d="M77.3943 88.7053C77.1069 88.8437 77.1174 89.2855 77.4102 89.424C77.7615 89.5945 78.113 89.2643 77.9638 88.9022C77.8682 88.6732 77.6338 88.5881 77.3943 88.7053Z" fill="#393185" stroke="#393185" stroke-width="0.3"/>
<path d="M77.3842 90.4144C77.0967 90.5582 77.1285 91.0213 77.4375 91.1436C77.9114 91.3405 78.2414 90.6167 77.7729 90.4036C77.6078 90.3292 77.5436 90.3292 77.3842 90.4144Z" fill="#393185" stroke="#393185" stroke-width="0.3"/>
<path d="M31.3973 37.2274L26.147 35.4685C25.9055 35.408 25.6636 35.3472 25.3624 35.3472C25.061 35.3472 24.8193 35.408 24.5776 35.4685L19.3274 37.2274V33.6503C18.9056 33.4077 18.4829 33.1651 18.1208 32.8627V37.2882C18.1208 37.9545 18.6639 38.5 19.3274 38.5C19.4487 38.5 19.5692 38.5 19.6894 38.4395L24.9395 36.6815C25.0608 36.6208 25.1812 36.6208 25.3017 36.6208C25.4229 36.6208 25.5434 36.6208 25.6636 36.6815L30.9137 38.4395C31.035 38.5 31.1554 38.5 31.2758 38.5C31.5965 38.4986 31.9037 38.3702 32.1299 38.1428C32.3562 37.9156 32.4833 37.6079 32.4833 37.2872V32.8619C32.1212 33.1651 31.6985 33.4077 31.2758 33.6503V37.2274H31.3973ZM25.3622 12.25C19.388 12.25 14.5 17.1605 14.5 23.1619C14.5 29.1633 19.388 34.0748 25.3622 34.0748C31.3365 34.0748 36.2243 29.1644 36.2243 23.1619C36.2243 17.1605 31.3365 12.25 25.3622 12.25ZM25.3622 32.8619C20.0516 32.8619 15.7067 28.4971 15.7067 23.1619C15.7067 17.8277 20.0516 13.4628 25.3622 13.4628C30.673 13.4628 35.0177 17.8277 35.0177 23.1619C35.0177 28.4971 30.673 32.8619 25.3622 32.8619ZM25.3622 14.6759C20.7159 14.6759 16.9142 18.4959 16.9142 23.163C16.9142 27.8319 20.7161 31.6509 25.3622 31.6509C30.0085 31.6509 33.8103 27.8311 33.8103 23.163C33.8105 18.495 30.0085 14.6759 25.3622 14.6759ZM25.3622 30.4379C21.3795 30.4379 18.1208 27.1648 18.1208 23.1631C18.1208 19.1622 21.3794 15.8881 25.3622 15.8881C29.345 15.8881 32.6037 19.1622 32.6037 23.1631C32.6037 27.1638 29.345 30.4379 25.3622 30.4379Z" fill="#393185"/>
<path d="M28.18 27.3681C27.5368 27.7066 26.73 27.8759 25.7596 27.8759C24.5071 27.8759 23.5066 27.4782 22.7581 26.6826C22.0096 25.887 21.6354 24.8349 21.6354 23.526C21.6354 22.1193 22.0566 20.9871 22.8991 20.1297C23.7418 19.2721 24.8117 18.8433 26.1094 18.8433C26.9443 18.8433 27.6344 18.9617 28.18 19.1987V20.3778C27.5555 20.0318 26.8692 19.8588 26.1206 19.8588C25.1465 19.8588 24.3528 20.1832 23.7397 20.832C23.1267 21.4807 22.8202 22.3563 22.8202 23.4582C22.8202 24.504 23.106 25.3341 23.6776 25.9491C24.2494 26.5642 24.9979 26.8716 25.9231 26.8716C26.7882 26.8716 27.5404 26.676 28.18 26.2848V27.3681Z" fill="#393185"/>
<path d="M79.7284 121.664C79.3572 121.835 78.9722 122.22 78.8279 122.571C78.7454 122.757 78.6697 122.812 78.2777 122.942C77.329 123.245 76.5933 123.712 75.8714 124.462C75.1976 125.17 74.5926 126.105 74.2488 126.971C74.1527 127.212 74.1115 127.253 73.9738 127.226C73.7262 127.177 73.5064 127.397 73.4582 127.741L73.417 128.037L74.0495 128.628L74.682 129.213L74.4964 129.453C74.077 130.003 73.9396 130.828 74.1664 131.488C74.297 131.873 74.737 132.389 75.0877 132.567C75.3078 132.677 75.3695 132.767 75.4659 133.063C76.2773 135.538 77.5424 137.456 78.6905 137.965C79.653 138.391 81.3649 138.37 82.2862 137.923C83.3931 137.387 84.5757 135.579 85.3594 133.207C85.5038 132.767 85.5794 132.643 85.6961 132.609C85.9644 132.547 86.418 132.093 86.6036 131.708C86.9681 130.966 86.8854 130.065 86.3973 129.495C86.2667 129.336 86.1567 129.199 86.1567 129.178C86.1567 129.165 86.4522 128.91 86.81 128.614C87.4975 128.058 87.5387 127.989 87.3875 127.57C87.3393 127.425 87.2432 127.329 87.0575 127.26C86.817 127.164 86.748 127.075 86.4251 126.442C85.8338 125.287 84.9607 124.249 84.0599 123.63C83.6816 123.369 82.8705 122.984 82.4786 122.881C82.2447 122.819 82.1831 122.764 82.1073 122.558C82.0591 122.413 81.8805 122.173 81.7157 122.008C81.186 121.492 80.3884 121.354 79.7284 121.664ZM80.8835 122.736C80.9867 122.819 81.0966 122.998 81.1378 123.135C81.1723 123.279 81.2065 124.118 81.2065 125.019V126.655H81.7221H82.2377V125.315C82.2377 124.221 82.2582 123.974 82.3339 123.974C82.3818 123.974 82.6776 124.097 82.9802 124.249C83.6676 124.593 84.4997 125.356 84.9809 126.078C85.3176 126.58 85.9983 127.872 85.9434 127.92C85.9296 127.927 85.4894 128.285 84.9739 128.704L84.0323 129.474H80.306H76.5796L75.8027 128.745C75.3695 128.346 75.019 127.975 75.019 127.927C75.019 127.886 75.2183 127.446 75.4659 126.951C75.9541 125.968 76.4492 125.321 77.1159 124.778C77.5009 124.469 78.4017 123.974 78.5873 123.974C78.6422 123.974 78.663 124.352 78.663 125.315V126.655H79.2131H79.7626V124.971C79.7626 123.156 79.7971 122.936 80.1131 122.709C80.3334 122.557 80.6702 122.571 80.8835 122.736ZM85.4623 130.134C85.7373 130.485 85.7303 131.11 85.4485 131.44C85.3523 131.544 85.1597 131.653 84.9604 131.702L84.6304 131.784L84.3004 132.788C83.9499 133.854 83.3584 135.16 82.9871 135.703C82.6502 136.198 82.0313 136.824 81.7221 136.989C81.4953 137.112 81.296 137.14 80.5877 137.16C80.0926 137.174 79.6045 137.153 79.4464 137.112C78.4014 136.83 77.3562 135.311 76.5176 132.829L76.1531 131.757L75.8851 131.722C75.5618 131.674 75.2456 131.392 75.1564 131.055C75.074 130.753 75.1701 130.326 75.3557 130.141L75.4931 130.003L75.8231 130.258C76.0017 130.395 76.2081 130.526 76.2905 130.547C76.3662 130.56 78.243 130.567 80.4568 130.56L84.4857 130.539L84.8225 130.251C85.0081 130.093 85.1937 129.962 85.2419 129.955C85.2836 129.955 85.3865 130.038 85.4623 130.134Z" fill="#393185"/>
<path d="M71.6364 136.926C71.2377 137.731 71.0933 137.786 70.2065 137.456L69.6909 137.256L68.9277 138.013L68.1578 138.769L68.3572 139.312C68.6802 140.206 68.6389 140.336 67.8278 140.735L67.25 141.024V142.11V143.197L67.8068 143.465C68.3362 143.726 68.5492 143.933 68.5562 144.201C68.5562 144.249 68.4738 144.545 68.3706 144.861L68.178 145.425L68.9479 146.195L69.7178 146.958L70.3091 146.745C70.866 146.545 70.9142 146.538 71.141 146.635C71.3403 146.717 71.416 146.82 71.6499 147.316L71.9179 147.9H73.0043H74.0977L74.3865 147.316C74.7785 146.518 74.8954 146.47 75.734 146.752L76.339 146.958L77.0952 146.195L77.8584 145.439L77.6521 144.834C77.3703 143.995 77.4182 143.878 78.2158 143.486L78.8001 143.197V142.104V141.018L78.2296 140.757C77.7619 140.536 77.6453 140.447 77.5489 140.248C77.4319 140.007 77.4389 139.993 77.645 139.409L77.8581 138.818L77.095 138.048L76.325 137.278L75.7612 137.47C75.4449 137.573 75.1494 137.656 75.1012 137.656C74.8332 137.649 74.6269 137.436 74.3656 136.906L74.0977 136.349H73.0113H71.9252L71.6364 136.926ZM73.6783 137.923C73.8985 138.363 73.9396 138.405 74.2422 138.515C74.4207 138.576 74.6821 138.68 74.8127 138.749C75.0466 138.879 75.0533 138.872 75.5484 138.7L76.0573 138.522L76.3323 138.803L76.6141 139.079L76.4285 139.601C76.2703 140.034 76.2566 140.151 76.3253 140.233C76.3735 140.288 76.4834 140.529 76.5658 140.769C76.7103 141.182 76.7308 141.203 77.2051 141.457L77.7003 141.718V142.11V142.509L77.1847 142.763C76.8339 142.935 76.669 143.059 76.669 143.135C76.669 143.203 76.5729 143.458 76.4627 143.699L76.2564 144.132L76.4282 144.62L76.6071 145.108L76.3253 145.383L76.0503 145.665L75.5346 145.486C75.0948 145.335 74.9983 145.321 74.8951 145.397C74.8332 145.445 74.5856 145.555 74.3451 145.637C73.9189 145.782 73.9119 145.789 73.678 146.256L73.4375 146.731H73.0251H72.6126L72.3721 146.256C72.152 145.816 72.1108 145.775 71.8083 145.665C71.6297 145.603 71.3751 145.5 71.2444 145.431C71.0106 145.307 71.0039 145.307 70.5912 145.466C70.3644 145.555 70.1305 145.631 70.0686 145.631C70.0066 145.631 69.8485 145.514 69.7041 145.37L69.4565 145.115L69.6354 144.606C69.8073 144.125 69.814 144.097 69.7041 143.884C69.6354 143.767 69.5322 143.513 69.4565 143.328C69.3396 143.011 69.2984 142.963 68.8582 142.743L68.3838 142.503L68.3634 142.111L68.3426 141.712L68.8582 141.458C69.2981 141.244 69.3808 141.169 69.4221 140.99C69.4495 140.88 69.5457 140.626 69.6421 140.433L69.814 140.076L69.6354 139.594L69.4565 139.12L69.759 138.824L70.0616 138.529L70.543 138.707C71.0311 138.886 71.0311 138.886 71.2512 138.762C71.3748 138.687 71.6361 138.577 71.8287 138.515C72.1725 138.405 72.1932 138.384 72.3926 137.923L72.6057 137.449H73.0181H73.4378L73.6783 137.923Z" fill="#393185"/>
<path d="M72.1662 139.423C71.3344 139.725 70.8188 140.179 70.4543 140.949C70.255 141.368 70.2412 141.458 70.2412 142.125C70.2412 142.792 70.255 142.881 70.4613 143.307C70.7431 143.912 71.2382 144.407 71.8432 144.689C72.2694 144.896 72.3588 144.909 73.0258 144.909C73.6929 144.909 73.782 144.896 74.2084 144.689C74.8479 144.387 75.2466 144.002 75.5559 143.376C75.8034 142.874 75.8102 142.826 75.8102 142.132C75.8102 141.458 75.7965 141.368 75.5901 140.942C75.3084 140.337 74.8132 139.842 74.2082 139.56C73.8162 139.381 73.6513 139.34 73.1287 139.326C72.6684 139.306 72.4208 139.333 72.1662 139.423ZM73.5897 140.488C73.9542 140.598 74.4972 141.093 74.6416 141.451C74.8272 141.905 74.8068 142.448 74.5797 142.909C73.9679 144.16 72.2557 144.229 71.5407 143.032C71.0593 142.242 71.2519 141.293 72.0084 140.729C72.4345 140.413 73.0326 140.323 73.5897 140.488Z" fill="#393185"/>
<path d="M82.5824 138.797C82.1562 139.223 81.6132 139.574 81.111 139.732C80.2791 140 79.2822 139.801 78.6429 139.237C78.4985 139.113 78.3749 139.024 78.3612 139.038C78.3199 139.1 78.0449 139.911 78.0449 139.987C78.0449 140.035 78.3336 140.207 78.6912 140.371C79.0486 140.537 79.3511 140.709 79.3649 140.75C79.3993 140.86 79.8667 140.956 80.3481 140.956C81.2145 140.956 82.1013 140.619 82.9127 139.98L83.3526 139.636L84.1639 139.849C86.9278 140.557 89.1761 142.194 90.2211 144.27C90.5303 144.882 90.7919 145.748 90.8606 146.367L90.9085 146.8H84.081H77.2607L76.855 147.192L76.4563 147.591L75.8168 147.364C75.4661 147.247 75.1568 147.144 75.1361 147.144C75.0948 147.144 74.7441 147.783 74.7441 147.866C74.7441 147.886 78.6286 147.9 83.3725 147.9H92.0009V147.192C92.0009 145.019 91.2515 143.28 89.6015 141.637C88.4463 140.489 87.0302 139.636 85.3182 139.066C84.679 138.852 83.1869 138.481 82.9668 138.481C82.9191 138.481 82.7472 138.625 82.5824 138.797Z" fill="#393185"/>
<path d="M76.7094 35.2817H74.2417V36.1043H76.7094V35.2817Z" fill="#393185"/>
<path d="M83.7016 16.3629V14.3065C83.7016 13.1725 82.7791 12.25 81.6451 12.25H69.3065C68.1725 12.25 67.25 13.1725 67.25 14.3065V35.6936C67.25 36.8275 68.1725 37.75 69.3065 37.75H81.6451C82.7791 37.75 83.7016 36.8275 83.7016 35.6936V32.8145H92.75V16.3629H83.7016ZM68.0726 14.3065C68.0726 13.6262 68.6262 13.0726 69.3065 13.0726H81.6451C82.3255 13.0726 82.879 13.6262 82.879 14.3065V14.7177H68.0726V14.3065ZM82.879 35.6936C82.879 36.3738 82.3255 36.9274 81.6451 36.9274H69.3065C68.6262 36.9274 68.0726 36.3738 68.0726 35.6936V34.4597H82.879V35.6936ZM82.879 33.6371H68.0726V15.5403H82.879V16.3629H80.4113V30.3467H74.242C74.0149 30.3467 73.8307 30.1626 73.8307 29.9355V25.3903C76.1331 25.1818 77.9436 23.243 77.9436 20.8871V19.242C77.9436 18.2491 77.2357 17.4183 76.2984 17.227V16.3629H73.8307V18.8307H76.2984V18.0837C76.7759 18.2541 77.121 18.7065 77.121 19.242V20.8871C77.121 22.9283 75.4606 24.5887 73.4193 24.5887C71.3781 24.5887 69.7177 22.9283 69.7177 20.8871V19.242C69.7177 18.7065 70.0624 18.2541 70.5403 18.0837V18.8307H73.008V16.3629H70.5403V17.227C69.603 17.4183 68.8952 18.2491 68.8952 19.242V20.8871C68.8952 23.243 70.7057 25.1818 73.008 25.3903V29.9355C73.008 30.6158 73.5616 31.1693 74.242 31.1693H80.4113V32.8145H82.879V33.6371ZM81.2339 31.1693H82.0564V31.9919H81.2339V31.1693ZM75.4758 17.1855V18.008H74.6533V17.1855H75.4758ZM71.3629 18.008V17.1855H72.1855V18.008H71.3629ZM90.2823 31.9919H82.879V31.1693H85.7581C86.4384 31.1693 86.9919 30.6158 86.9919 29.9355V29.0545C87.6993 28.8707 88.2258 28.2324 88.2258 27.4677C88.2258 26.5605 87.4879 25.8226 86.5807 25.8226C85.6734 25.8226 84.9355 26.5605 84.9355 27.4677C84.9355 28.2324 85.4615 28.8707 86.1693 29.0545V29.9355C86.1693 30.1626 85.9851 30.3467 85.7581 30.3467H82.879V29.1129C82.879 27.0717 84.5394 25.4113 86.5807 25.4113C88.6219 25.4113 90.2823 27.0717 90.2823 29.1129V31.9919ZM86.5807 28.2903C86.127 28.2903 85.7581 27.9214 85.7581 27.4677C85.7581 27.0141 86.127 26.6451 86.5807 26.6451C87.0339 26.6451 87.4033 27.0141 87.4033 27.4677C87.4033 27.9214 87.0339 28.2903 86.5807 28.2903ZM91.9274 31.9919H91.1049V29.1129C91.1049 26.6184 89.0752 24.5887 86.5807 24.5887C84.0862 24.5887 82.0564 26.6184 82.0564 29.1129V30.3467H81.2339V17.1855H91.9274V31.9919Z" fill="#393185"/>
<path d="M89.8707 21.2991C89.8707 19.4849 88.3945 18.0088 86.5804 18.0088C84.7661 18.0088 83.29 19.4849 83.29 21.2991C83.29 23.1134 84.7661 24.5894 86.5804 24.5894C88.3945 24.5894 89.8707 23.1134 89.8707 21.2991ZM86.5804 23.7668C85.2193 23.7668 84.1126 22.6601 84.1126 21.2991C84.1126 19.9382 85.2193 18.8314 86.5804 18.8314C87.9413 18.8314 89.0481 19.9382 89.0481 21.2991C89.0481 22.6601 87.9413 23.7668 86.5804 23.7668Z" fill="#393185"/>
<path fill-rule="evenodd" clip-rule="evenodd" d="M147.913 147H122.087C121.762 147 121.5 146.743 121.5 146.425C121.5 146.107 121.762 145.85 122.087 145.85H147.913C148.238 145.85 148.5 146.107 148.5 146.425C148.5 146.743 148.238 147 147.913 147ZM130.304 141.25C130.629 141.25 130.891 141.507 130.891 141.825C130.891 142.143 130.629 142.4 130.304 142.4H125.609C125.284 142.4 125.022 142.143 125.022 141.825C125.022 141.507 125.284 141.25 125.609 141.25H126.196V133.776H125.609C125.284 133.776 125.022 133.519 125.022 133.201C125.022 132.884 125.284 132.626 125.609 132.626H130.304C130.629 132.626 130.891 132.884 130.891 133.201C130.891 133.519 130.629 133.776 130.304 133.776H129.717V141.25H130.304ZM128.543 133.776H127.37V141.25H128.543V133.776ZM137.348 141.25C137.672 141.25 137.935 141.507 137.935 141.825C137.935 142.143 137.672 142.4 137.348 142.4H132.652C132.328 142.4 132.065 142.143 132.065 141.825C132.065 141.507 132.328 141.25 132.652 141.25H133.239V133.776H132.652C132.328 133.776 132.065 133.519 132.065 133.201C132.065 132.884 132.328 132.626 132.652 132.626H137.348C137.672 132.626 137.935 132.884 137.935 133.201C137.935 133.519 137.672 133.776 137.348 133.776H136.761V141.25H137.348ZM135.587 133.776H134.413V141.25H135.587V133.776ZM146.739 144.125C146.739 144.443 146.477 144.7 146.152 144.7H123.848C123.523 144.7 123.261 144.443 123.261 144.125C123.261 143.807 123.523 143.55 123.848 143.55H146.152C146.477 143.55 146.739 143.807 146.739 144.125ZM144.391 141.25C144.716 141.25 144.978 141.507 144.978 141.825C144.978 142.143 144.716 142.4 144.391 142.4H139.696C139.371 142.4 139.109 142.143 139.109 141.825C139.109 141.507 139.371 141.25 139.696 141.25H140.283V133.776H139.696C139.371 133.776 139.109 133.519 139.109 133.201C139.109 132.884 139.371 132.626 139.696 132.626H144.391C144.716 132.626 144.978 132.884 144.978 133.201C144.978 133.519 144.716 133.776 144.391 133.776H143.804V141.25H144.391ZM142.63 133.776H141.457V141.25H142.63V133.776ZM122.674 130.326L135 123.75L147.326 130.326V131.476H122.674V130.326ZM144.709 130.326L135 125.409L125.254 130.326H144.709Z" fill="#393185"/>
<path d="M145.335 93.4994C144.836 93.4994 144.369 93.3063 144.019 92.9557L135.251 84.1881L134.466 84.9723L124.595 75.1005C122.97 73.4762 122.97 70.8332 124.595 69.2089L125.067 68.7373L146.652 90.3226C147.002 90.6729 147.195 91.1404 147.195 91.6389C147.195 92.1373 147.002 92.6049 146.652 92.9554C146.301 93.306 145.834 93.4994 145.335 93.4994ZM135.251 82.9724L144.626 92.3478C145.003 92.7244 145.667 92.7244 146.044 92.3478C146.233 92.1594 146.336 91.9077 146.336 91.6389C146.336 91.3699 146.233 91.1185 146.044 90.9301L125.07 69.9567C123.915 71.2535 123.959 73.2493 125.202 74.493L134.466 83.757L135.251 82.9724Z" fill="#393185"/>
<path d="M124.11 93.5002C123.633 93.5002 123.157 93.3188 122.794 92.9557C122.443 92.6054 122.25 92.1379 122.25 91.6391C122.25 91.1404 122.443 90.6731 122.794 90.3229L130.605 82.5112L133.239 85.1444L125.427 92.956C125.064 93.319 124.587 93.5002 124.11 93.5002ZM130.605 83.7266L123.401 90.9304C123.213 91.1188 123.109 91.3702 123.109 91.6391C123.109 91.908 123.213 92.1597 123.401 92.3482C123.778 92.7247 124.442 92.7247 124.819 92.3482L132.023 85.1441L130.605 83.7266Z" fill="#393185"/>
<path d="M140.432 81.4699C139.923 81.4699 139.446 81.2733 139.089 80.9155L138.277 80.1044L137.841 80.541L135.207 77.9079L135.644 77.4713L134.833 76.6599C134.093 75.9193 134.093 74.7145 134.833 73.974L141.557 67.25L143.65 69.3427L139.112 73.8803C139.058 73.9346 139.028 74.0075 139.028 74.0854C139.028 74.1636 139.058 74.2365 139.112 74.2907C139.221 74.3992 139.414 74.3992 139.522 74.2907L144.06 69.753L145.995 71.6885L141.458 76.2261C141.347 76.3373 141.347 76.5251 141.458 76.6365C141.571 76.7497 141.756 76.7494 141.868 76.6365L146.406 72.0989L148.499 74.1915L141.775 80.9158C141.417 81.2733 140.94 81.4699 140.432 81.4699ZM138.277 78.8887L139.696 80.3077C140.087 80.6982 140.776 80.6977 141.167 80.3077L147.283 74.1915L146.406 73.3142L142.476 77.2443C142.028 77.6923 141.298 77.6926 140.85 77.2443C140.402 76.7961 140.402 76.0666 140.85 75.6187L144.78 71.6885L144.06 70.9684L140.13 74.8982C139.914 75.1147 139.625 75.2342 139.317 75.2342C139.01 75.2342 138.721 75.115 138.504 74.8982C138.288 74.6818 138.168 74.3931 138.168 74.0854C138.168 73.7777 138.288 73.4889 138.504 73.2725L142.434 69.3427L141.557 68.4654L135.441 74.5815C135.036 74.9869 135.036 75.6466 135.441 76.0521L136.86 77.471L136.423 77.9076L137.841 79.3254L138.277 78.8887Z" fill="#393185"/>
</svg>
