<svg width="32" height="32" viewBox="0 0 32 32" fill="none" xmlns="http://www.w3.org/2000/svg">
<path d="M32 16C32 17.8687 31.675 19.6625 31.0875 21.3375C28.8813 27.5438 22.9562 32 16 32C9.04375 32 3.11875 27.5438 0.9125 21.3375C0.325 19.6625 0 17.8687 0 16C0 14.1313 0.325 12.3375 0.9125 10.6625C3.11875 4.45625 9.04375 0 16 0C22.9562 0 28.8813 4.45625 31.0875 10.6625C31.675 12.3375 32 14.1313 32 16Z" fill="white"/>
<path d="M31.0876 10.6625H0.912598C3.11885 4.45625 9.04385 0 16.0001 0C22.9563 0 28.8813 4.45625 31.0876 10.6625Z" fill="#FF9933"/>
<path d="M31.0876 21.3375C28.8813 27.5438 22.9563 32 16.0001 32C9.04385 32 3.11885 27.5438 0.912598 21.3375H31.0876Z" fill="#128807"/>
<path d="M16.5688 16.4813L16.5812 16.475L16.5875 16.4688L16.6 16.4563C16.6063 16.45 16.6063 16.4438 16.6063 16.4438L16.6187 16.4313L16.625 16.425C16.625 16.425 16.6313 16.4188 16.6375 16.4125L16.6437 16.4063L17.225 16.85L19.2437 17.8688L17.3563 16.625L16.6875 16.3438L16.6938 16.3375L16.7 16.325C16.7 16.325 16.7062 16.3188 16.7062 16.3125L16.7125 16.3C16.7125 16.3 16.7188 16.2938 16.7188 16.2875L16.725 16.275L16.7313 16.2625L16.7375 16.25L16.7437 16.2375C16.7437 16.2313 16.7437 16.2313 16.7437 16.2313L17.4188 16.5063L19.6313 16.9688L17.4875 16.2563L16.7687 16.1563L16.775 16.15V16.1375C16.775 16.1313 16.7812 16.1313 16.7812 16.1313V16.1188L16.7875 16.1063C16.7875 16.1 16.7875 16.1 16.7875 16.1L16.7938 16.0875V16.0625C16.7938 16.0563 16.7938 16.05 16.7938 16.05V16.0375L17.5187 16.125L19.775 15.9938L17.5187 15.8625L16.7938 15.95V15.9438C16.7938 15.9375 16.7938 15.9313 16.7938 15.9313V15.9188L16.7875 15.9063C16.7875 15.9 16.7875 15.9 16.7875 15.9L16.7812 15.8813V15.875C16.7812 15.8688 16.775 15.8625 16.775 15.8625V15.85L16.7687 15.8375L17.4875 15.7375L19.6313 15.0313L17.4188 15.4938L16.7437 15.7688V15.7625L16.7375 15.75L16.7313 15.7375C16.7313 15.7313 16.7313 15.7313 16.7313 15.7313L16.725 15.7188C16.7188 15.7125 16.7188 15.7063 16.7188 15.7063C16.7125 15.7 16.7125 15.6938 16.7125 15.6938L16.7062 15.6813L16.7 15.6688L16.6938 15.6625L17.3625 15.3813L19.25 14.1438L17.2313 15.1625L16.65 15.6C16.65 15.5938 16.6437 15.5938 16.6437 15.5938L16.6313 15.5813L16.625 15.5688L16.6187 15.5625C16.6125 15.5563 16.6125 15.5563 16.6125 15.5563L16.6 15.5438L16.5938 15.5375C16.5938 15.5375 16.5875 15.5313 16.5812 15.525L16.575 15.5125L16.5688 15.5063L17.1437 15.0625L18.65 13.375L16.95 14.875L16.5 15.45L16.4937 15.4438L16.4813 15.4375L16.475 15.4313C16.4688 15.425 16.4688 15.425 16.4688 15.425L16.4562 15.4125L16.4438 15.4L16.4375 15.3938L16.425 15.3875L16.4125 15.3813L16.4062 15.375L16.8438 14.7938L17.8625 12.775L16.6187 14.6625L16.3375 15.3313L16.3312 15.325C16.325 15.325 16.325 15.3188 16.325 15.3188L16.3125 15.3125L16.3 15.3063L16.2875 15.3L16.275 15.2938L16.2625 15.2875L16.25 15.2813L16.2375 15.275L16.225 15.2688L16.5 14.5938L16.9625 12.3813L16.2563 14.525L16.1562 15.2438H16.15C16.1437 15.2375 16.1375 15.2375 16.1375 15.2375L16.125 15.2313C16.125 15.2313 16.1187 15.2313 16.1125 15.2313L16.1 15.225H16.0875H16.0812L16.0688 15.2188H16.0562C16.0562 15.2188 16.05 15.2188 16.0438 15.2188L16.1313 14.5L16 12.2438L15.8687 14.5L15.9563 15.2188H15.95H15.9375L15.925 15.225H15.9125H15.9L15.8875 15.2313H15.875L15.8625 15.2375C15.8625 15.2375 15.8563 15.2375 15.85 15.2438H15.8438L15.7437 14.525L15.0375 12.3813L15.5 14.5938L15.775 15.2688L15.7625 15.275L15.75 15.2813L15.7375 15.2875L15.725 15.2938C15.725 15.2938 15.7187 15.3 15.7125 15.3L15.7 15.3063L15.6875 15.3125L15.6812 15.3188C15.675 15.325 15.6687 15.325 15.6687 15.325L15.6562 15.3313L15.375 14.6625L14.1375 12.775L15.1562 14.7938L15.5938 15.375C15.5875 15.3813 15.5875 15.3813 15.5875 15.3813L15.575 15.3938C15.5687 15.3938 15.5688 15.4 15.5688 15.4L15.5562 15.4063L15.5437 15.4188L15.5312 15.425L15.525 15.4313L15.5188 15.4375L15.5063 15.4438L15.5 15.45L15.05 14.875L13.3687 13.3688L14.875 15.0563L15.45 15.5L15.4438 15.5063L15.4375 15.5188C15.4313 15.525 15.4312 15.525 15.4312 15.525L15.425 15.5375L15.4125 15.55C15.4125 15.55 15.4062 15.5563 15.4062 15.5625L15.4 15.5688L15.3938 15.5813L15.3813 15.5938L15.375 15.6L14.7937 15.1625L12.775 14.1438L14.6625 15.3813L15.3313 15.6625C15.3313 15.6688 15.325 15.6688 15.325 15.6688L15.3188 15.6813L15.3125 15.6938L15.3062 15.7L15.3 15.7125L15.2937 15.725L15.2875 15.7313L15.2812 15.7438L15.275 15.7563V15.7625L14.6 15.4875L12.3875 15.025L14.5375 15.7313L15.2563 15.8313L15.25 15.8438V15.8563L15.2437 15.8688V15.875L15.2375 15.8875V15.9L15.2312 15.9125V15.925C15.2312 15.925 15.2312 15.9313 15.2312 15.9375V15.9438L14.5063 15.8563L12.25 15.9875L14.5063 16.1188L15.2312 16.0313V16.0438C15.2312 16.0438 15.2312 16.05 15.2312 16.0563V16.0688L15.2375 16.075V16.0875L15.2437 16.1V16.1125C15.2437 16.1125 15.25 16.1188 15.25 16.125V16.1375L15.2563 16.1438L14.5375 16.2438L12.3875 16.9563L14.6 16.4938L15.275 16.2188C15.275 16.2188 15.275 16.225 15.275 16.2313L15.2812 16.2438L15.2875 16.2563L15.2937 16.2688C15.2937 16.275 15.3 16.275 15.3 16.275L15.3062 16.2938L15.3125 16.3063C15.3125 16.3125 15.3188 16.3125 15.3188 16.3125L15.325 16.325L15.3313 16.3313L14.6625 16.6125L12.775 17.8563L14.7937 16.8375L15.375 16.3938L15.3813 16.4C15.3875 16.4063 15.3875 16.4125 15.3875 16.4125L15.3938 16.425C15.4 16.4313 15.4 16.4313 15.4 16.4313C15.4 16.4313 15.4063 16.4375 15.4125 16.4438L15.425 16.4563L15.4312 16.4625C15.4312 16.4625 15.4375 16.4688 15.4438 16.4688C15.4438 16.4688 15.45 16.475 15.45 16.4813L15.4563 16.4875L14.8813 16.9375L13.375 18.6188L15.0562 17.1188L15.5063 16.5438C15.5125 16.5438 15.5125 16.55 15.5125 16.55C15.5187 16.5563 15.525 16.5563 15.525 16.5563L15.5375 16.5688L15.5437 16.575L15.5562 16.5875L15.5688 16.5938L15.575 16.6C15.575 16.6 15.5812 16.6063 15.5875 16.6063L15.6 16.6125L15.6062 16.6188L15.1687 17.2L14.15 19.2188L15.3875 17.3313L15.6687 16.6625L15.675 16.6688C15.6813 16.675 15.6875 16.675 15.6875 16.675L15.6938 16.6813L15.7063 16.6875L15.7188 16.6938C15.725 16.7 15.725 16.7 15.725 16.7L15.7375 16.7063L15.75 16.7125C15.75 16.7125 15.7562 16.7188 15.7625 16.7188L15.775 16.725L15.5 17.4L15.0375 19.6125L15.7437 17.4688L15.8438 16.75L15.85 16.7563H15.8625L15.875 16.7625H15.8875L15.9 16.7688H15.9125C15.9188 16.775 15.9187 16.775 15.9187 16.775H15.9312H15.9438H15.95L15.8625 17.5L15.9937 19.7563L16.125 17.5L16.0375 16.775C16.0438 16.775 16.0438 16.775 16.0438 16.775H16.0562H16.0688C16.0688 16.775 16.075 16.775 16.075 16.7688H16.0875L16.1 16.7625C16.1063 16.7625 16.1063 16.7625 16.1063 16.7625L16.1187 16.7563H16.1313L16.1375 16.75L16.2375 17.4688L16.9438 19.6125L16.4813 17.4L16.2062 16.725L16.2188 16.7188C16.225 16.7125 16.225 16.7125 16.225 16.7125L16.2375 16.7063L16.25 16.7L16.2625 16.6938L16.275 16.6875L16.2875 16.6813L16.2938 16.675L16.3062 16.6688L16.3125 16.6625L16.5938 17.3313L17.8375 19.2188L16.8188 17.2L16.3813 16.6188L16.3875 16.6125L16.4 16.6063L16.4125 16.6C16.4188 16.5938 16.4188 16.5938 16.4188 16.5938L16.4312 16.5813L16.4438 16.5688L16.45 16.5625L16.4562 16.5563C16.4562 16.5563 16.4625 16.55 16.4688 16.5438L16.475 16.5375L16.925 17.1125L18.6063 18.6125L17.125 16.95L16.55 16.5L16.5562 16.4938C16.5625 16.4875 16.5688 16.4875 16.5688 16.4813Z" fill="#000088"/>
<path d="M16 11.7188C13.6312 11.7188 11.7188 13.6375 11.7188 16C11.7188 18.3625 13.6375 20.2812 16 20.2812C18.3625 20.2812 20.2812 18.3625 20.2812 16C20.2812 13.6375 18.3688 11.7188 16 11.7188ZM19.6562 16.6875L19.6812 16.6938C19.6437 16.8938 19.5937 17.0875 19.525 17.275C19.4375 17.2375 19.3313 17.2688 19.2875 17.35C19.2313 17.4438 19.2625 17.5562 19.3563 17.6125C19.3563 17.6125 19.375 17.6188 19.3813 17.625C19.2938 17.8063 19.1937 17.9812 19.0812 18.1437C19.0062 18.0812 18.8938 18.0875 18.825 18.1562C18.7563 18.225 18.7563 18.35 18.825 18.425C18.825 18.425 18.8375 18.4375 18.8438 18.4438C18.7125 18.6 18.5688 18.7375 18.4188 18.8687C18.3625 18.7937 18.2563 18.7688 18.1688 18.8188C18.0813 18.875 18.0438 18.9875 18.1 19.075C18.1063 19.0875 18.1125 19.0875 18.1125 19.0875C17.95 19.2125 17.7812 19.3125 17.5938 19.3937C17.5625 19.3062 17.4625 19.2562 17.3687 19.2812C17.2687 19.3125 17.2062 19.4125 17.2375 19.5125L17.2437 19.5375C17.0562 19.6 16.8625 19.6563 16.6625 19.6938C16.65 19.5938 16.575 19.525 16.475 19.525C16.3688 19.525 16.2875 19.6062 16.2875 19.7125L16.2938 19.7375C16.1938 19.7437 16.1 19.75 16 19.75C15.8938 19.75 15.7938 19.7437 15.6938 19.7375C15.7063 19.6375 15.65 19.55 15.5562 19.525C15.45 19.4937 15.35 19.5563 15.325 19.6562L15.3188 19.6812C15.1188 19.6437 14.925 19.5937 14.7375 19.525C14.775 19.4375 14.7438 19.3375 14.6625 19.2875C14.5688 19.2313 14.4562 19.2688 14.4062 19.3563C14.4 19.3625 14.3938 19.375 14.3938 19.375C14.2125 19.2937 14.0375 19.1937 13.875 19.0812C13.9313 19.0062 13.9313 18.9 13.8625 18.825C13.7875 18.7563 13.6687 18.7563 13.5875 18.825C13.5875 18.825 13.575 18.8375 13.575 18.8438C13.425 18.7125 13.2812 18.5688 13.15 18.4188C13.225 18.3625 13.25 18.2562 13.2 18.175C13.1437 18.0812 13.0313 18.05 12.9438 18.1063C12.9313 18.1125 12.9312 18.1187 12.9312 18.1187C12.8062 17.9625 12.7125 17.7875 12.625 17.6C12.7125 17.5688 12.7625 17.4688 12.7375 17.375C12.7125 17.275 12.6063 17.2125 12.5063 17.2437C12.4938 17.2437 12.4875 17.25 12.475 17.25C12.4125 17.0625 12.3563 16.8687 12.3188 16.675C12.4188 16.6625 12.4937 16.5875 12.4937 16.4875C12.4937 16.3812 12.4063 16.3 12.3 16.3C12.3 16.3 12.2875 16.3 12.275 16.3062C12.2687 16.2062 12.2625 16.1125 12.2625 16.0125C12.2625 15.9063 12.2687 15.8063 12.275 15.7063C12.3687 15.7188 12.4625 15.6625 12.4875 15.5688C12.5125 15.4625 12.45 15.3625 12.35 15.3375L12.3125 15.3125C12.35 15.1125 12.4 14.9188 12.4688 14.7375C12.5562 14.775 12.6625 14.7438 12.7063 14.6562C12.7625 14.5687 12.725 14.45 12.6375 14.4L12.6125 14.3875C12.7 14.2062 12.8 14.0375 12.9125 13.8687C12.9875 13.925 13.1 13.925 13.1687 13.8562C13.2375 13.7812 13.2375 13.6625 13.1687 13.5875C13.1625 13.5812 13.1562 13.575 13.1562 13.575C13.2812 13.4125 13.425 13.275 13.575 13.1438C13.6312 13.2188 13.7375 13.2438 13.825 13.1938C13.9125 13.1438 13.95 13.025 13.8938 12.9375L13.8813 12.9187C14.0438 12.8062 14.2187 12.7062 14.4 12.6187C14.4312 12.7062 14.5312 12.7562 14.625 12.7312C14.725 12.7 14.7875 12.6 14.7563 12.5C14.7563 12.5 14.75 12.4812 14.75 12.4688C14.9375 12.4062 15.1313 12.35 15.3313 12.3188C15.3438 12.4125 15.4188 12.4875 15.5188 12.4875C15.625 12.4875 15.7063 12.4 15.7063 12.3C15.7063 12.2875 15.7063 12.2812 15.7063 12.2812C15.8 12.2625 15.8937 12.2625 15.9937 12.2625C16.1 12.2625 16.2 12.2687 16.3062 12.275C16.2937 12.3687 16.35 12.4563 16.4438 12.4875C16.55 12.5125 16.65 12.45 16.675 12.35C16.675 12.35 16.6812 12.3312 16.6812 12.325C16.8812 12.3625 17.075 12.4125 17.2625 12.4812C17.225 12.5687 17.2562 12.675 17.3375 12.725C17.4312 12.775 17.5437 12.7437 17.5938 12.6562L17.6063 12.6313C17.7875 12.7188 17.9625 12.8188 18.125 12.9375C18.0625 13.0063 18.0688 13.1187 18.1375 13.1875C18.2125 13.2625 18.3375 13.2625 18.4062 13.1875L18.425 13.1687C18.575 13.3 18.7188 13.4438 18.85 13.5938C18.775 13.65 18.75 13.7562 18.8 13.8438C18.8562 13.9313 18.9687 13.9688 19.0562 13.9125L19.075 13.9C19.1875 14.0625 19.2875 14.2375 19.375 14.4187C19.2875 14.4562 19.2375 14.55 19.2625 14.6438C19.2938 14.7438 19.3937 14.8063 19.4937 14.7812L19.5187 14.7688C19.5812 14.9563 19.6375 15.15 19.675 15.35C19.575 15.3625 19.5063 15.4375 19.5063 15.5375C19.5063 15.6438 19.5875 15.725 19.6938 15.725H19.7188C19.725 15.8188 19.7313 15.9125 19.7313 16.0125C19.7313 16.1188 19.725 16.2188 19.7188 16.325C19.6188 16.3125 19.5313 16.3687 19.5063 16.4625C19.4938 16.55 19.5563 16.6562 19.6562 16.6875Z" fill="#000088"/>
</svg>
