<svg id="Layer_1" data-name="Layer 1" xmlns="http://www.w3.org/2000/svg" viewBox="0 0 1846.74 1830"><defs><style>.cls-1{fill:#010101;}.cls-2{fill:#fff;}.cls-3{fill:#4b449b;}.cls-4{fill:#128dc9;}</style></defs><g id="Stay_connected_to_people" data-name="Stay connected to people"><path class="cls-1" d="M655.34,505.72a2.23,2.23,0,0,1-1.56-3.82l7.25-7.13a2.23,2.23,0,0,1,3.13,3.18l-7.26,7.13A2.23,2.23,0,0,1,655.34,505.72Z" transform="translate(454.77 225.91)"/><path class="cls-1" d="M620.61,539.87a2.19,2.19,0,0,1-1.59-.67,2.23,2.23,0,0,1,0-3.15l7.26-7.13a2.23,2.23,0,1,1,3.12,3.18l-7.25,7.13A2.25,2.25,0,0,1,620.61,539.87Z" transform="translate(454.77 225.91)"/><path class="cls-1" d="M628.1,505.37a2.19,2.19,0,0,1-1.59-.67l-7.13-7.32a2.23,2.23,0,0,1,3.2-3.11l7.12,7.32a2.23,2.23,0,0,1,0,3.15A2.25,2.25,0,0,1,628.1,505.37Z" transform="translate(454.77 225.91)"/><path class="cls-1" d="M662.22,540.4a2.24,2.24,0,0,1-1.6-.68l-7.12-7.31a2.23,2.23,0,0,1,3.19-3.11l7.13,7.32a2.23,2.23,0,0,1-1.6,3.78Z" transform="translate(454.77 225.91)"/><path class="cls-1" d="M855,1410.79a2.23,2.23,0,0,1,0-4.46l10.17-.06h0a2.23,2.23,0,0,1,0,4.46l-10.18.06Z" transform="translate(454.77 225.91)"/><path class="cls-1" d="M806.33,1411.08a2.23,2.23,0,1,1,0-4.45l10.17-.06h0a2.23,2.23,0,1,1,0,4.45l-10.17.06Z" transform="translate(454.77 225.91)"/><path class="cls-1" d="M835.75,1391.56a2.23,2.23,0,0,1-2.23-2.23l0-10.21a2.23,2.23,0,0,1,4.46,0v10.21A2.22,2.22,0,0,1,835.75,1391.56Z" transform="translate(454.77 225.91)"/><path class="cls-1" d="M835.81,1440.46a2.23,2.23,0,0,1-2.23-2.23V1428a2.23,2.23,0,1,1,4.45,0l0,10.21A2.23,2.23,0,0,1,835.81,1440.46Z" transform="translate(454.77 225.91)"/><path class="cls-1" d="M994.84,485.29s22.85-3.11,30-54.47,8.56-96.49,55.68-110.5,105.24,8.55,103.82,58.36,6,92.38,35.76,114.45c38.55,28.53,53.64,12.4,125,81.91C1435,662.56,1408.89,928.85,1149,855.7Z" transform="translate(454.77 225.91)"/><path class="cls-2" d="M1059,441.29s7.75,8.53,23.94,5.53Z" transform="translate(454.77 225.91)"/><path class="cls-1" d="M1076.21,449.69c-12.42,0-18.57-6.58-18.87-6.91a2.23,2.23,0,0,1,3.29-3c.31.33,7.26,7.55,21.9,4.85a2.23,2.23,0,0,1,.81,4.39A39.62,39.62,0,0,1,1076.21,449.69Z" transform="translate(454.77 225.91)"/><path class="cls-2" d="M1064.91,1452.25s-13.5,41.37-27,54-67.19,37.46-67.94,64.45c-.87,31.36,17.35,37.16,66.12,25.83,35.23-8.17,64.31-29.72,74.7-42,9.18-10.86,4.06-20.1,1.81-32.83-2.75-15.62-3.28-31.55-3.28-47.41v-25.93Z" transform="translate(454.77 225.91)"/><path class="cls-1" d="M999.4,1604.09c-10.25,0-17.49-2.07-22.57-6.23-6.56-5.36-9.45-14-9.08-27.23.57-20.71,29.46-39.51,50.56-53.23,7.78-5.06,14.5-9.43,18.07-12.78,12.93-12.09,26.27-52.66,26.41-53.07a2.23,2.23,0,0,1,1.92-1.52l44.42-3.92a2.18,2.18,0,0,1,1.7.58,2.21,2.21,0,0,1,.72,1.64v25.93c0,14.14.39,30.79,3.25,47,.44,2.51,1,4.89,1.54,7.19,2.16,9.23,4.21,17.94-3.85,27.47-10.21,12.09-39.85,34.39-75.9,42.75C1021.12,1602.29,1009,1604.09,999.4,1604.09Zm67.16-149.75c-2.54,7.49-14.64,41.84-27.13,53.53-3.87,3.62-10.74,8.09-18.7,13.27-20.26,13.18-48,31.24-48.53,49.62-.33,11.71,2,19.23,7.45,23.65,8.52,7,25.78,6.95,55.93-.06,35-8.12,63.67-29.63,73.51-41.29,6.61-7.81,5.06-14.42,2.91-23.57-.55-2.36-1.13-4.81-1.59-7.44-2.92-16.57-3.31-33.45-3.31-47.79v-23.5Z" transform="translate(454.77 225.91)"/><path class="cls-1" d="M971.89,1585.91a2.23,2.23,0,0,1-.16-4.45l17.34-1.25a180.07,180.07,0,0,0,115.43-53.14c4.1-4.16,6.39-6.83,6.42-6.85a2.22,2.22,0,1,1,3.37,2.9c-.09.11-2.4,2.79-6.61,7.07a184.49,184.49,0,0,1-118.29,54.46l-17.34,1.26Z" transform="translate(454.77 225.91)"/><path class="cls-1" d="M1076.55,1519.38l-.36,0c-1-.17-24.32-4.18-33.7-16.41a2.23,2.23,0,0,1,3.54-2.71c8.32,10.85,30.66,14.69,30.89,14.72a2.23,2.23,0,0,1-.37,4.43Z" transform="translate(454.77 225.91)"/><path class="cls-1" d="M1055.93,1533.39a2.49,2.49,0,0,1-.46-.05c-.94-.2-23.22-5-30.38-17.13a2.23,2.23,0,0,1,3.84-2.27c6.16,10.43,27.25,15,27.46,15a2.23,2.23,0,0,1-.46,4.41Z" transform="translate(454.77 225.91)"/><path class="cls-1" d="M1033.75,1546.62a2.32,2.32,0,0,1-.77-.14c-.78-.29-19.07-7.2-24.84-19.29a2.23,2.23,0,0,1,4-1.92c5,10.45,22.2,17,22.37,17a2.23,2.23,0,0,1-.78,4.32Z" transform="translate(454.77 225.91)"/><path class="cls-2" d="M1169,1350.49c1.65,0,25.12-2.33,38.69-3.69a9.64,9.64,0,0,1,10.54,8.56l2.66,24.59a149.52,149.52,0,0,0,5.14,25.66c4.46,15.24,11,41.48,7.42,53.46-3.84,12.81-15.85,30.65-23.78,40.81a14,14,0,0,1-15.48,4.65c-10.08-3.38-26.18-9.88-35.64-19.33-14.51-14.52,1.16-42.39,1.16-42.39Z" transform="translate(454.77 225.91)"/><path class="cls-1" d="M1198.6,1507.48a16,16,0,0,1-5.14-.84c-11.42-3.83-27-10.39-36.5-19.87-14.7-14.7-1.47-40.86.56-44.63l9.25-91.87a2.23,2.23,0,0,1,2.21-2c1.21,0,15.59-1.38,38.47-3.67a11.91,11.91,0,0,1,13,10.53l2.67,24.59a146.81,146.81,0,0,0,5.06,25.28c5.37,18.36,11,42.75,7.42,54.72-3.81,12.7-15.4,30.31-24.17,41.54A16.26,16.26,0,0,1,1198.6,1507.48ZM1171,1352.58l-9.1,90.45a2.21,2.21,0,0,1-.27.87c-.15.27-14.68,26.58-1.53,39.72,9.34,9.34,25.79,15.79,34.77,18.8a11.78,11.78,0,0,0,13-3.91c9.2-11.79,20-28.75,23.41-40.08,3.45-11.5-3.17-37.64-7.42-52.19a151,151,0,0,1-5.22-26L1216,1355.6a7.43,7.43,0,0,0-8.1-6.58C1188.05,1351,1175.7,1352.2,1171,1352.58Zm-11.32,90.23h0Z" transform="translate(454.77 225.91)"/><path class="cls-1" d="M1187.83,1503.43a2.27,2.27,0,0,1-1.29-.41,2.23,2.23,0,0,1-.52-3.11c27.67-38.93,25.83-49,21.79-70.92-.88-4.81-1.89-10.27-2.71-16.67-2.16-16.74-8.64-62.8-8.71-63.26a2.23,2.23,0,1,1,4.41-.62c.07.46,6.55,46.55,8.72,63.31.81,6.29,1.8,11.68,2.67,16.43,4.14,22.53,6.22,33.84-22.54,74.31A2.24,2.24,0,0,1,1187.83,1503.43Z" transform="translate(454.77 225.91)"/><path class="cls-1" d="M1191.72,1433l-.32,0-26.46-3.89a2.23,2.23,0,0,1-1.88-2.53,2.19,2.19,0,0,1,2.53-1.88l26.46,3.89a2.23,2.23,0,0,1-.33,4.43Z" transform="translate(454.77 225.91)"/><path class="cls-1" d="M1189,1452.07l-.33,0-26.45-3.89a2.23,2.23,0,0,1-1.88-2.53,2.2,2.2,0,0,1,2.53-1.88l26.45,3.9a2.23,2.23,0,0,1-.32,4.43Z" transform="translate(454.77 225.91)"/><path class="cls-1" d="M1160.24,1460.64c-15.43,10.64-48.08,24.34-103,7.88l25.18-556.4,103.35-19.75s13.49,138.34-1.16,277.54A2559.8,2559.8,0,0,0,1171,1439.7,25.18,25.18,0,0,1,1160.24,1460.64Z" transform="translate(454.77 225.91)"/><path class="cls-1" d="M1181.18,876.12,933.83,890.05l8.42,270.48a169.92,169.92,0,0,0,28.18,88.59c28,42.23,72.64,104.37,108,128.66C1134.15,1416.1,1181.18,876.12,1181.18,876.12Z" transform="translate(454.77 225.91)"/><path class="cls-2" d="M1058.27,1368.61h-.11a2.23,2.23,0,0,1-2.12-2.33l8.17-175.29a2.2,2.2,0,0,1,2.33-2.12,2.23,2.23,0,0,1,2.12,2.33l-8.17,175.28A2.22,2.22,0,0,1,1058.27,1368.61Z" transform="translate(454.77 225.91)"/><path class="cls-2" d="M775.23,433a3.41,3.41,0,0,0,2.77-3.4c-.19-8.63-2-34.49-16.49-46.36-17.56-14.36-32.46-47.35-43.1-44.16s12.77,31.92,10.11,35.12-8.27-7.74-14.13-18.38-.64-13-9.14-12.32c-11.65,1-19.4,2.77-4,37.36,14.68,32.91,43.94,31.88,47.77,53.74a3.38,3.38,0,0,0,4,2.71Z" transform="translate(454.77 225.91)"/><path class="cls-1" d="M752.37,439.65a5.64,5.64,0,0,1-5.52-4.62c-1.66-9.54-8.71-14.34-17.63-20.43-9.83-6.7-22.06-15.05-30-32.79-8.45-18.94-10.64-29.41-7.32-35,2.72-4.6,8.5-5.08,13.15-5.47,5.71-.48,7.33.51,8.22,5a26.2,26.2,0,0,0,3.06,8.44l1.34,2.46c2.18,4,5.13,9.37,7.38,12.6-1-1.92-2.24-4.23-3.31-6.15-5.86-10.54-9.86-18.37-7.86-23.3a5.78,5.78,0,0,1,3.87-3.4c7.65-2.3,15.24,8,24.84,20.95,6.15,8.31,13.11,17.73,20.31,23.62,15,12.23,17.08,37.66,17.3,48a5.6,5.6,0,0,1-4.56,5.63h0l-22.2,4.32A5.68,5.68,0,0,1,752.37,439.65Zm-44.82-94c-.48,0-1.16,0-2.11.11-4.61.39-8.25.87-9.69,3.3-2.39,4.05.08,14.16,7.56,30.93,7.4,16.59,18.57,24.21,28.42,30.93,9.4,6.41,17.52,11.95,19.52,23.34a1.1,1.1,0,0,0,.46.72,1.16,1.16,0,0,0,.9.19l22.2-4.32a1.17,1.17,0,0,0,1-1.17c-.16-7.6-1.78-33.3-15.67-44.67-7.63-6.24-14.77-15.9-21.07-24.42-7.54-10.19-15.33-20.74-20-19.33a1.33,1.33,0,0,0-1,.81c-1.35,3.33,4.05,13,7.62,19.45,4.66,8.38,6.48,11.87,4.58,14.14a3.53,3.53,0,0,1-3.15,1.35c-3.68-.36-7.1-6.29-13.3-17.63l-1.34-2.45a30.51,30.51,0,0,1-3.52-9.73,12.19,12.19,0,0,0-.34-1.47A4.55,4.55,0,0,0,707.55,345.65ZM775.24,433h0Z" transform="translate(454.77 225.91)"/><path class="cls-2" d="M1298.15,945.13a3.41,3.41,0,0,1,3.71,2c2.86,6.67,10.93,23.22,23.46,29.4,8.91,4.4,16.92,7.19,27.77,17.47s29.47,36.94,25.4,43.51c-4.82,7.79-20.29-.15-32.17-7.4s-23.69-24.65-35.26-26.4,12.9,26.07,9.4,30.46-16-2.12-24-15.29c-3.15-5.2-22-51-27.71-64.89a3.42,3.42,0,0,1,2.61-4.67Z" transform="translate(454.77 225.91)"/><path class="cls-1" d="M1372,1043c-7.51,0-17.78-5.48-26.79-11-4.94-3-9.83-7.67-14.55-12.17-6.7-6.38-13.63-13-19.89-13.93a3.64,3.64,0,0,0-.58,0c.11,2.21,3.93,8.68,6.28,12.64,5.27,8.92,8.14,14.11,5.79,17.06a6.26,6.26,0,0,1-5.59,2.18c-6.79-.42-16-7.87-22-17.7-3.14-5.17-20.54-47.32-27.87-65.21A5.58,5.58,0,0,1,1267,950a5.66,5.66,0,0,1,4-2.83l26.75-4.21a5.61,5.61,0,0,1,6.12,3.34c2.82,6.58,10.64,22.49,22.4,28.29,1.41.69,2.81,1.35,4.19,2,7.25,3.43,14.75,7,24.12,15.85,8.54,8.09,31.27,37.4,25.77,46.29C1378.48,1041.77,1375.53,1043,1372,1043Zm-61.83-41.59a8.41,8.41,0,0,1,1.27.1c7.65,1.16,15.1,8.26,22.3,15.12,4.55,4.33,9.25,8.82,13.79,11.58,16.45,10,26.25,12.78,29.12,8.13,2.66-4.29-12.32-28.64-25-40.71-8.85-8.39-15.71-11.63-23-15-1.41-.66-2.82-1.33-4.26-2-13.1-6.45-21.51-23.49-24.52-30.52a1.22,1.22,0,0,0-1.3-.71h0l-26.75,4.21a1.19,1.19,0,0,0-.84.6,1.16,1.16,0,0,0-.06,1c11.73,28.6,25.13,60.58,27.56,64.58,5.7,9.38,13.87,15.29,18.49,15.58a2.27,2.27,0,0,0,1.69-.38c.07-1.87-3.72-8.28-6-12.15-5.39-9.12-8.34-14.43-6.18-17.63A4.16,4.16,0,0,1,1310.12,1001.42Zm-12-56.29h0Z" transform="translate(454.77 225.91)"/><path class="cls-3" d="M1053.91,481.65c-22.05-5-38.35-9.77-60.92-8.55-25.82,1.4-39-1.15-60.41,9.54-40.06,20-56,74.76-79.49,65.18s-71.53-135.13-71.53-135.13l-42.13,17.69s53.5,232.27,96.18,246.2,94.59-52.46,94.59-52.46,1.89,168.39-26,279.87c0,0,44-.24,72.58,11.61C1129.26,978.76,1193.62,904,1193.62,904c-1-43.28-10.46-73-41.65-121.24-17.06-26.4-21.94-69,11.79-107.53,0,0,82.17,253.82,97.48,283.72,1,2,51.64-9.19,51.75-10.37,8.19-91-54.24-260.82-63.32-302A214.85,214.85,0,0,0,1238.32,610c-15.39-36.8-49.81-97.13-114-112.48Z" transform="translate(454.77 225.91)"/><path class="cls-1" d="M1262.47,961.42c-2.47,0-2.79-.64-3.21-1.46-14.38-28.07-85.69-247.27-96.39-280.25-30.81,37.63-24.34,78.14-9,101.83,30.8,47.68,41,77.42,42,122.4a2.23,2.23,0,0,1-.54,1.5c-.67.79-16.92,19.31-52.27,30.17-32.42,9.95-87.73,14.93-167.1-18-27.84-11.54-71.22-11.43-71.71-11.45h0a2.21,2.21,0,0,1-2.16-2.76C926.55,805.47,928,661.6,928,630.29c-11.59,13.52-46.32,50.45-79.93,50.46a42.12,42.12,0,0,1-13.14-2c-43.38-14.16-95.46-238.29-97.66-247.82a2.24,2.24,0,0,1,1.31-2.56l42.13-17.68a2.28,2.28,0,0,1,1.74,0,2.25,2.25,0,0,1,1.2,1.26c13.26,34.66,51.74,126.29,70.29,133.85,11,4.47,20.78-8,33.22-23.66,11.82-14.92,25.21-31.83,44.43-41.44,17.15-8.58,29.25-8.86,46-9.25,4.75-.1,9.67-.22,15.29-.52,19.86-1.09,35.21,2.49,53,6.63,2.77.65,5.61,1.31,8.55,2l70.37,15.89c65.75,15.72,100.65,78,115.6,113.8a213.75,213.75,0,0,1,11.47,36.92c2.12,9.61,7.2,26.37,13.62,47.59,21,69.22,56,185.06,49.75,255.09-.16,1.76-.2,2.13-13.12,5.21-7,1.68-15.52,3.51-22.67,4.9C1269.86,960.74,1265,961.42,1262.47,961.42ZM1163.76,673a2.3,2.3,0,0,1,.45,0,2.24,2.24,0,0,1,1.67,1.49c.81,2.51,80.66,249,96.87,282.45,6.42-.1,41.36-7.59,48.13-9.88,5.69-69.3-28.94-183.64-49.68-252.12-6.46-21.31-11.55-38.15-13.71-47.92a210.3,210.3,0,0,0-11.23-36.17c-14.63-35-48.69-95.93-112.5-111.18l-70.34-15.88c-3-.67-5.8-1.33-8.58-2-18.16-4.23-32.5-7.58-51.73-6.52-5.69.3-10.86.42-15.43.53-16.77.39-27.86.65-44.1,8.77-18.34,9.17-31.41,25.67-42.94,40.23-13.06,16.49-24.35,30.75-38.39,25-22.68-9.24-65.26-117-71.94-134.25L742,431.7c5.14,21.82,55.22,230,94.27,242.76,40.68,13.29,91.63-51.06,92.14-51.71a2.22,2.22,0,0,1,4,1.34c0,1.68,1.55,167.19-25.36,277.69,10.3.16,45.78,1.48,70.59,11.76,78,32.3,132.08,27.56,163.77,17.9,30.71-9.36,46.84-25,49.95-28.3-1.09-43.52-11.2-72.62-41.27-119.18-16.57-25.63-23.36-69.88,12-110.21A2.23,2.23,0,0,1,1163.76,673Z" transform="translate(454.77 225.91)"/><path class="cls-1" d="M1026.73,901.57a2.23,2.23,0,0,1-2-1.25L964.34,777.23a2.23,2.23,0,1,1,4-2l60.39,123.09a2.22,2.22,0,0,1-1,3A2.17,2.17,0,0,1,1026.73,901.57Z" transform="translate(454.77 225.91)"/><path class="cls-1" d="M973.89,860.93a2.22,2.22,0,0,1-2-1.38l-16.55-40.06a2.23,2.23,0,1,1,4.11-1.71L976,857.85a2.23,2.23,0,0,1-1.21,2.91A2.26,2.26,0,0,1,973.89,860.93Z" transform="translate(454.77 225.91)"/><path class="cls-1" d="M760.85,409.92H709.66a6.75,6.75,0,0,1-6.75-6.4L698,310.1a6.76,6.76,0,0,1,6.75-7.11h60.44a6.75,6.75,0,0,1,6.74,7.07l-4.38,93.42A6.74,6.74,0,0,1,760.85,409.92Z" transform="translate(454.77 225.91)"/><path class="cls-1" d="M760.05,397.11a2.2,2.2,0,0,1-1.8-.92,2.23,2.23,0,0,1,.49-3.11c33.4-24.25,43.37-56.9,35.57-68.72-5.11-7.73-17.18-6.71-33.12,2.82a2.23,2.23,0,0,1-2.28-3.83c25.93-15.5,36-6.17,39.11-1.44,10.15,15.36-3.38,50.61-36.66,74.78A2.24,2.24,0,0,1,760.05,397.11Z" transform="translate(454.77 225.91)"/><path class="cls-2" d="M703.28,392.06c-23-33.9-18.82-49.84-5.7-59.88a2.27,2.27,0,0,1,2.66,0c25.32,17.68,31.63,37.59,13.36,60.38A6.44,6.44,0,0,1,703.28,392.06Z" transform="translate(454.77 225.91)"/><path class="cls-1" d="M708.66,397.13h-.36a8.63,8.63,0,0,1-6.86-3.81c-20.66-30.44-22.27-49.84-5.21-62.9a4.53,4.53,0,0,1,5.29-.09c14.61,10.21,22.85,21.15,24.49,32.55,1.43,10-2.16,20.43-10.67,31.06A8.52,8.52,0,0,1,708.66,397.13ZM699,334c-10,7.57-18.23,20.9,6.16,56.83a4.22,4.22,0,0,0,3.35,1.86,4,4,0,0,0,3.38-1.53c7.71-9.63,11-18.92,9.74-27.64C720.14,353.38,712.53,343.44,699,334Z" transform="translate(454.77 225.91)"/><path class="cls-2" d="M1060.12,442.39c-15.75-10.85,2.17-75.78,20-85.36s55.3.87,55.3.87C1121.52,403.63,1146.56,415,1150,415s14.59.65,7.62,15.46-22.64,6.75-22.64,6.75c-3.15,2.78-9.06,5.93-16.31,8.61-8.65,25.7.84,45.91,9,57.31a10,10,0,0,1-5.67,15.63c-11.07,2.64-28,4.2-49.29-1.42-16.29-4.3-27.18-10.21-34.36-15.67a10,10,0,0,1,1.78-16.93C1058.35,476.36,1070.54,449.56,1060.12,442.39Z" transform="translate(454.77 225.91)"/><path class="cls-1" d="M1101,523.31a112.89,112.89,0,0,1-28.84-3.87c-14.28-3.76-26.1-9.16-35.14-16.05a12.14,12.14,0,0,1-4.71-11.09,11.93,11.93,0,0,1,6.91-9.63c12.33-5.66,21.55-20.16,22.42-30.16.24-2.74-.06-6.39-2.81-8.29-5.2-3.58-7.59-12-6.9-24.35,1.3-23.45,13.7-57.58,27.15-64.8,18.43-9.89,55.39.25,57,.69a2.23,2.23,0,0,1,1.54,2.8c-7.59,24.87-3.21,38.66,1.79,45.84,4.25,6.11,9.56,8.26,10.68,8.32,6.49,0,9.42,2.47,10.73,4.53,2.11,3.32,1.73,8.06-1.11,14.11-2.24,4.75-5.52,7.89-9.77,9.33-5.88,2-11.9.13-14.54-.94-3.35,2.6-8.64,5.34-14.88,7.73-7.61,23.79.67,42.63,9,54.31a12.37,12.37,0,0,1,1.54,11.56,12,12,0,0,1-8.5,7.52A92.64,92.64,0,0,1,1101,523.31Zm-39.64-82.76c3.52,2.43,5.2,6.81,4.72,12.34-1,11.2-10.81,27.32-25,33.83a7.5,7.5,0,0,0-4.34,6.07,7.7,7.7,0,0,0,3,7c8.57,6.53,19.87,11.68,33.57,15.29,21.25,5.61,38,3.86,48.21,1.41a7.52,7.52,0,0,0,5.37-4.75,8,8,0,0,0-1-7.41c-9.08-12.69-18.06-33.28-9.29-59.32a2.19,2.19,0,0,1,1.34-1.38c6.83-2.53,12.66-5.59,15.6-8.19a2.23,2.23,0,0,1,2.5-.31c.06,0,6.61,3.29,12.45,1.29,3.06-1.05,5.46-3.41,7.15-7,2.13-4.51,2.61-7.91,1.39-9.82-1-1.61-3.44-2.46-7-2.46-2.11,0-8.53-2.39-13.79-9.49-5.75-7.77-10.93-22.39-3.59-48.2-8.15-2-37-8.24-51.46-.5-10.73,5.76-23.48,37.18-24.8,61.13C1055.81,430.68,1057.58,437.94,1061.38,440.55Z" transform="translate(454.77 225.91)"/><path class="cls-2" d="M624.74,5.47c-2.92-37.74,0-91.5,32.37-136.38,89.57-124.12,351-105.93,401.83-4.63,25.79,51.42-2.11,125.39-43.78,166.1C953.55,90.77,849.62,90.2,786.18,54,725.78,19.55,707-44.4,668.66-38.45,647.34-35.14,633.14-12.28,624.74,5.47Z" transform="translate(454.77 225.91)"/><path class="cls-1" d="M886.36,81.18c-36.49,0-72.71-8.94-101.28-25.24C757.19,40,738.5,18.4,722-.68c-18.64-21.57-33.36-38.63-53-35.57-15.79,2.45-30,16.8-42.24,42.67a2.23,2.23,0,0,1-4.24-.78c-4.29-55.39,6.74-101.77,32.78-137.86,23-31.89,59.17-56.67,104.57-71.67,40.52-13.38,88.26-18.71,134.44-15,80.54,6.47,144.39,38,166.62,82.36,26.44,52.72-1.72,127.17-44.21,168.69C987.91,60.31,947,77.53,901.51,80.66,896.47,81,891.41,81.18,886.36,81.18ZM673.69-41.08c19.3,0,33.77,16.75,51.69,37.49,16.25,18.81,34.68,40.13,61.91,55.66C848.83,87.19,952.86,88.33,1013.61,29c40.45-39.54,68.53-113.29,43.34-163.51-21.54-43-84-73.57-163-79.91-75.8-6.1-182.83,12.48-235.05,84.84-24.12,33.43-35,76-32.47,126.74,12.11-22.65,26.17-35.35,41.88-37.79A35.68,35.68,0,0,1,673.69-41.08Z" transform="translate(454.77 225.91)"/><path class="cls-1" d="M970.12-96.93H750a2.23,2.23,0,0,1-2.23-2.23,2.22,2.22,0,0,1,2.23-2.22H970.12a2.21,2.21,0,0,1,2.22,2.22A2.22,2.22,0,0,1,970.12-96.93Z" transform="translate(454.77 225.91)"/><path class="cls-1" d="M911.55-58.24H800.79a2.22,2.22,0,0,1-2.23-2.22,2.23,2.23,0,0,1,2.23-2.23H911.55a2.23,2.23,0,0,1,2.23,2.23A2.22,2.22,0,0,1,911.55-58.24Z" transform="translate(454.77 225.91)"/><path class="cls-2" d="M1202,246.25c5.6-7.88,68.7-99.83,29.07-204.69-27.82-73.63-98.59-133.28-180.76-136.49C1036.44-95.47,949-98.88,902.1-29c-31.59,47-35.05,112.74-4.34,160.54,36.5,56.81,106.2,64.91,116.54,65.95,72.4,7.28,112.3-39.16,151.78-16.73C1190.24,194.42,1198.59,225,1202,246.25Z" transform="translate(454.77 225.91)"/><path class="cls-1" d="M1202,248.47a2.23,2.23,0,0,1-2.2-1.87c-5.17-32.26-16.88-53.78-34.81-64-19.51-11.08-39.17-4.59-64.06,3.64-24.06,7.94-51.33,16.95-86.84,13.38-18.86-1.9-83.1-12.35-118.19-67-30.26-47.1-28.46-114.12,4.36-163,43-63.95,119.29-68.08,150.13-66.86,39.81,1.55,78.55,16.18,112,42.31a223.11,223.11,0,0,1,70.72,95.61c39.72,105.11-22.16,196.67-29.35,206.77A2.22,2.22,0,0,1,1202,248.47Zm-59.57-76.14a48.84,48.84,0,0,1,24.77,6.44c18.1,10.28,30.21,31,36,61.67,14-21.52,61.17-104.33,25.74-198.1-29.38-77.74-101.22-132-178.76-135C1020.13-93.86,945.67-89.89,904-27.8c-31.86,47.43-33.64,112.44-4.31,158.09,34.88,54.3,101.82,63.62,114.89,64.93,34.57,3.49,61.36-5.37,85-13.18C1114.87,177,1128.93,172.33,1142.42,172.33Z" transform="translate(454.77 225.91)"/><path class="cls-1" d="M1161.08,38.28h-207a2.23,2.23,0,0,1,0-4.46h207a2.23,2.23,0,0,1,0,4.46Z" transform="translate(454.77 225.91)"/><path class="cls-1" d="M1094.22,65.25h-74.05a2.23,2.23,0,0,1,0-4.45h74.05a2.23,2.23,0,1,1,0,4.45Z" transform="translate(454.77 225.91)"/><path class="cls-1" d="M-317.31,1513.62H470.28c33.51,0,60.67-27.56,60.67-61.56L454.17-163.81c0-34-27.17-61.56-60.67-61.56H-394.09c-33.51,0-60.68,27.56-60.68,61.56L-378,1452.06C-378,1486.06-350.82,1513.62-317.31,1513.62Z" transform="translate(454.77 225.91)"/><path class="cls-2" d="M-263.93,1514H523.66c33.51,0,60.67-27.44,60.67-61.29l-76.78-1613c0-33.85-27.16-61.29-60.67-61.29H-340.71c-33.51,0-60.67,27.44-60.67,61.29l76.78,1613C-324.6,1486.52-297.43,1514-263.93,1514Z" transform="translate(454.77 225.91)"/><path class="cls-1" d="M445.08,1514.09H282.83a2.23,2.23,0,1,1,0-4.45H445.08a2.23,2.23,0,0,1,0,4.45Z" transform="translate(454.77 225.91)"/><path class="cls-1" d="M197.84,1514.09H-263.93c-34.68,0-62.9-28.49-62.9-63.51l-29.24-546a2.23,2.23,0,0,1,2.11-2.34,2.22,2.22,0,0,1,2.34,2.1l29.25,546.09c0,32.68,26.22,59.18,58.44,59.18H197.84a2.23,2.23,0,1,1,0,4.45Z" transform="translate(454.77 225.91)"/><path class="cls-1" d="M-376.12,389.87a2.22,2.22,0,0,1-2.22-2.12l-25.27-550c0-35.13,28.22-63.62,62.9-63.62H446.88c34.68,0,62.9,28.49,62.9,63.52l6,146.71a2.23,2.23,0,0,1-2.14,2.32,2.15,2.15,0,0,1-2.32-2.13L505.33-162.3c0-32.66-26.22-59.16-58.45-59.16H-340.71c-32.23,0-58.44,26.5-58.44,59.07l25.26,549.93a2.24,2.24,0,0,1-2.13,2.33Z" transform="translate(454.77 225.91)"/><path class="cls-2" d="M-227.4,1467.86H491.84c30.6,0,55.41-25.06,55.41-56L471.44-115.59c0-30.91-24.8-56-55.4-56H-303.2c-30.6,0-55.41,25.06-55.41,56l75.81,1527.47C-282.8,1442.8-258,1467.86-227.4,1467.86Z" transform="translate(454.77 225.91)"/><path class="cls-1" d="M491.84,1470.08H-227.4c-31.78,0-57.63-26.11-57.63-58.2L-360.84-115.48c0-32.2,25.86-58.31,57.64-58.31H416c31.77,0,57.63,26.11,57.63,58.2l75.8,1527.36C549.48,1444,523.62,1470.08,491.84,1470.08Zm-795-1639.41c-29.33,0-53.18,24.11-53.18,53.74l75.8,1527.36c0,29.75,23.86,53.86,53.18,53.86H491.84c29.33,0,53.18-24.11,53.18-53.75L469.22-115.48c0-29.74-23.86-53.85-53.18-53.85Z" transform="translate(454.77 225.91)"/><path class="cls-1" d="M-306.1,316.48a2.22,2.22,0,0,1-2.22-2.12l-6.86-144.86a2.22,2.22,0,0,1,2.12-2.33,2.19,2.19,0,0,1,2.33,2.12l6.86,144.86a2.23,2.23,0,0,1-2.12,2.33Z" transform="translate(454.77 225.91)"/><path class="cls-1" d="M453.33,182.94a2.24,2.24,0,0,1-2.23-2.12L438.33-88.72c0-28.69-21.93-51.95-48.89-51.95H-274.08c-27,0-48.89,23.26-48.89,51.85l9.7,204.65a2.23,2.23,0,0,1-2.12,2.33,2.25,2.25,0,0,1-2.33-2.12l-9.7-204.76c0-31.15,23.93-56.41,53.34-56.41H389.44c29.42,0,53.34,25.26,53.34,56.31l12.77,269.43a2.23,2.23,0,0,1-2.12,2.33Z" transform="translate(454.77 225.91)"/><path class="cls-2" d="M510.14,1156.46a2.22,2.22,0,0,1-2.22-2.13L497.15,927.14a2.24,2.24,0,0,1,2.12-2.33,2.26,2.26,0,0,1,2.33,2.12l10.77,227.19a2.23,2.23,0,0,1-2.12,2.33Z" transform="translate(454.77 225.91)"/><path class="cls-1" d="M394.9,1443.35H-32.81a2.23,2.23,0,0,1-2.23-2.23,2.23,2.23,0,0,1,2.23-2.23H394.9a2.23,2.23,0,1,1,0,4.46Z" transform="translate(454.77 225.91)"/><path class="cls-1" d="M-86.28,1443.35H-204.15c-29.41,0-53.34-25.26-53.34-56.31l-9.34-197.11a2.22,2.22,0,0,1,2.12-2.33,2.22,2.22,0,0,1,2.33,2.12l9.35,197.22c0,28.69,21.93,52,48.88,52H-86.28a2.23,2.23,0,0,1,2.23,2.23A2.23,2.23,0,0,1-86.28,1443.35Z" transform="translate(454.77 225.91)"/><path class="cls-1" d="M186.38-221.5l-15.17,25.26C162-180.9,146.55-171.69,130-171.69H-23.17c-16.17,0-31.33-8.82-40.62-23.62L-80.22-221.5Z" transform="translate(454.77 225.91)"/><path class="cls-1" d="M548.41,739.63a2.22,2.22,0,0,1-2.22-2.11L535.05,517a2.23,2.23,0,1,1,4.45-.23l11.14,220.55a2.23,2.23,0,0,1-2.11,2.34Z" transform="translate(454.77 225.91)"/><circle class="cls-2" cx="529.77" cy="780.73" r="396.46"/><path class="cls-1" d="M75,953.5c-219.84,0-398.69-178.85-398.69-398.69S-144.83,156.13,75,156.13,473.69,335,473.69,554.81,294.84,953.5,75,953.5Zm0-792.92c-217.38,0-394.24,176.85-394.24,394.23S-142.37,949,75,949,469.24,772.19,469.24,554.81,292.39,160.58,75,160.58Z" transform="translate(454.77 225.91)"/><path class="cls-1" d="M295.38,830.61-72.9,851.35s-.18,32.33-1,69.19C-21.49,946.1,37,951.27,99.25,951.27c75,0,144.48-36.37,204.27-72.53Z" transform="translate(454.77 225.91)"/><path class="cls-2" d="M608,118.16c-.88-7.49,3.38-15.78,4.89-23.31,3.27-16.34,6.06-32.91,5.58-49.57-.42-14.74-1.05-28-7.11-41.37C607.2-5.23,600.61-16.67,588-15.47c-9.16.88-17.69,6.69-22.76,14.22-7,10.36-8.6,23.44-8.24,35.92.32,11.22,4.41,24.91,2,35.94-2.54,11.7-9.32,10.68-15.19,1.59C529,49.33,504.4,45,513.07,53.09s24.27,40.45,30,49.35c2.1,3.23,8.56,7.16,16,10.87a226.84,226.84,0,0,1-17.61,89.13c-17.89,42.23-46,71.28-69.21,89.9,19,33.25,60.39,87.58,131.33,96.64A307.74,307.74,0,0,0,627,326.26a311.23,311.23,0,0,0-7.08-176.58C616.65,140,612,130.9,608.7,121.33A14.4,14.4,0,0,1,608,118.16Z" transform="translate(454.77 225.91)"/><path class="cls-1" d="M603.58,391.2h-.28c-72.39-9.24-114.39-65.21-133-97.75a2.24,2.24,0,0,1,.54-2.84c31-24.87,54.06-54.83,68.55-89a223.16,223.16,0,0,0,17.43-86.89c-8.5-4.36-13.6-8-15.59-11s-4.76-8.19-8.09-14.3c-6.74-12.4-16-29.37-21.62-34.63-.77-.73-3.11-2.92-2.36-5.29a3.44,3.44,0,0,1,3.07-2.28c5.75-.8,22.36,6.74,33.42,23.84,3.1,4.8,5.85,6.22,7.22,6,1.6-.29,3.06-2.83,3.92-6.8,1.45-6.69.35-14.66-.72-22.36a126.21,126.21,0,0,1-1.35-13.05C554.29,19,557.11,6.8,563.36-2.49c5.71-8.48,15.06-14.31,24.4-15.19C601.58-19,608.69-7.33,613.37,3c6,13.28,6.87,26.42,7.32,42.22s-1.92,31.56-5.62,50.08a81.91,81.91,0,0,1-2.25,8.12c-1.54,4.93-3.15,10-2.62,14.49a12.22,12.22,0,0,0,.61,2.7c1.59,4.58,3.54,9.18,5.41,13.63,2,4.77,4.11,9.71,5.82,14.73a313.39,313.39,0,0,1,7.13,177.85A310.83,310.83,0,0,1,605.57,390,2.22,2.22,0,0,1,603.58,391.2ZM475.13,292.87c18.5,31.79,58.84,84.25,127.17,93.69a305.63,305.63,0,0,0,22.54-60.85,308.67,308.67,0,0,0-7-175.31c-1.66-4.88-3.71-9.74-5.7-14.44-1.91-4.51-3.88-9.18-5.52-13.89a17.32,17.32,0,0,1-.83-3.65c-.63-5.41,1.11-11,2.8-16.35a77,77,0,0,0,2.13-7.65c3.65-18.23,6-33.55,5.54-49.08-.46-15.81-1.22-28-6.92-40.51-4.07-9-10.16-19.13-21.14-18.08-8,.77-16.14,5.84-21.13,13.25-5.71,8.49-8.28,19.81-7.86,34.61a123.46,123.46,0,0,0,1.31,12.56c1.13,8.09,2.28,16.46.67,23.91-1.66,7.64-5,9.79-7.48,10.24-3.83.7-8-2.11-11.76-7.91-9.24-14.29-21.79-20.45-27-21.66,6.16,6,15,22.32,22.19,35.47,3.28,6,6.11,11.24,7.91,14,.91,1.4,4.07,4.57,15.08,10.09a2.23,2.23,0,0,1,1.22,2,227.63,227.63,0,0,1-17.78,90C529,237.65,506,267.78,475.13,292.87ZM513.46,50.13Z" transform="translate(454.77 225.91)"/><path class="cls-4" d="M472.25,292.34a287.79,287.79,0,0,1-34.67,23.72c-112.92,67.06-181.66-9.85-366.66-4.9-67.65,1.81-114-7.81-234.66,44.55,0,0-219.8,70.47-219.8,295.56,0,63.12,41.58,116.58,90.59,133.66,43.82-54.77,57.85-86,92.08-99.5-.25-2.58-24-18.85-23.76-21.54,5.94-57.18,25.25-73.52,47.42-84,10.15-4.83,22.08,1,23.25,12.19,5.16,49.13-2,88.15,8.92,204.88,6.36,67.76,13.16,77.75,19.69,84.39,43,43.79,116.38-14.81,287.81-17.43,81.37-1.24,135,10.89,150.28-17.24,11-20.29-7.32-44.28-20.69-79.55-16.52-43.57-28-110.83.76-210.56,114.13,12.65,226.16-38.6,290.42-133A306.49,306.49,0,0,0,603.58,389C532.64,379.92,491.25,325.59,472.25,292.34Z" transform="translate(454.77 225.91)"/><path class="cls-1" d="M-82.67,899.78c-17.89,0-32.11-4.54-44.27-16.91-7.42-7.55-14.07-19.22-20.32-85.75A1413.32,1413.32,0,0,1-154,653c-.07-22.79-.11-40.79-2.2-60.68a13,13,0,0,0-6.61-10.11,14.68,14.68,0,0,0-13.47-.31c-20,9.48-40,23.63-46.11,81.77,1.24,1.74,7.49,6.7,11.69,10,9.42,7.48,11.83,9.59,12,11.54a2.23,2.23,0,0,1-1.4,2.29c-24.34,9.56-38.14,28.25-61,59.21-8.54,11.58-18.23,24.7-30.16,39.61a2.24,2.24,0,0,1-2.47.72c-53.36-18.6-92.09-75.7-92.09-135.77,0-117.14,60.2-191.85,110.7-233.9,54.66-45.5,110.1-63.6,110.65-63.78,102.08-44.32,152-44.34,205-44.37,9.75,0,19.84,0,30.33-.29,76-2,131.3,9.47,180.15,19.61,69.34,14.39,119.44,24.79,185.43-14.39a284,284,0,0,0,34.42-23.55,2.23,2.23,0,0,1,3.33.63c18.18,31.82,59.2,86.54,129.67,95.54a2.22,2.22,0,0,1,1.71,3.21,310.86,310.86,0,0,1-20.5,34.83C520.45,519.7,409.22,571,294.44,558.94c-22.44,78.95-22.54,148.7-.3,207.35,3.55,9.36,7.37,17.75,11.07,25.87,10.1,22.18,18.07,39.69,9.49,55.53-11.82,21.82-44.2,20.8-93.2,19.26-17.49-.56-37.31-1.19-59-.85C86.24,867.26,28.33,879.78-14,888.91-41.9,895-64.23,899.78-82.67,899.78Zm-87.07-323.87a18.67,18.67,0,0,1,9.14,2.36,17.41,17.41,0,0,1,8.86,13.53c2.11,20.12,2.16,38.22,2.22,61.14a1410.31,1410.31,0,0,0,6.7,143.76c6.1,65,12.5,76.37,19.06,83,23,23.38,55.3,16.39,108.86,4.82,42.47-9.18,100.63-21.75,177.32-22.92,21.8-.32,41.68.3,59.22.85C269,864,300.27,865,310.78,845.57c7.53-13.89,0-30.51-9.63-51.56-3.55-7.8-7.58-16.65-11.18-26.14-22.75-60-22.52-131.33.7-212a2.22,2.22,0,0,1,2.39-1.6c113.8,12.61,224.29-38,288.33-132a306.47,306.47,0,0,0,18.78-31.55C531.31,380.57,490.54,328,471.62,295.69A289.57,289.57,0,0,1,438.72,318C371.24,358,320.43,347.5,250.1,332.9,201.49,322.81,146.38,311.36,71,313.39c-10.55.28-20.66.28-30.44.29-52.43,0-101.95.05-203.39,44.08-.75.25-55.49,18.14-109.49,63.14-49.71,41.43-109,115-109,230.37,0,57.68,36.76,112.51,87.62,131,11.42-14.33,20.78-27,29.07-38.24,22.46-30.42,36.35-49.23,60.14-59.55-2.13-1.94-5.95-5-8.95-7.36-11.63-9.24-13.64-11.26-13.41-13.49,6.33-60.86,28.45-76.22,48.68-85.84A19.75,19.75,0,0,1-169.74,575.91Zm-52.77,87.48Z" transform="translate(454.77 225.91)"/><path class="cls-1" d="M.32,671.53a2.22,2.22,0,0,1-1.16-.33c-45-27.7-65.9-71.4-54.48-92,3.46-6.25,15.25-18.92,49.74-1.75a2.23,2.23,0,0,1,1,3,2.23,2.23,0,0,1-3,1c-21.86-10.88-37.84-10.92-43.86-.08-9,16.24,7.11,57.82,52.92,86a2.23,2.23,0,0,1,.73,3.07A2.23,2.23,0,0,1,.32,671.53Z" transform="translate(454.77 225.91)"/><path class="cls-1" d="M.79,688.78l66-5.08a8.74,8.74,0,0,0,8.07-8.93l-3-121a8.73,8.73,0,0,0-9.4-8.5l-78,6a8.73,8.73,0,0,0-8,9.79L-8.55,681.14A8.74,8.74,0,0,0,.79,688.78Z" transform="translate(454.77 225.91)"/><path class="cls-2" d="M51.1,618.2a13.4,13.4,0,0,0-1.51-2.54c-11.84-15.6-37.68.56-51.19,4.88l-31.81,10.15-40.41,47.77c-21.89,5.8-88.45,28.22-137.15-3.52-15.65-10.2-36.6-5.88-47.72,9.13-16.62,22.43-32.22,51.61-42.29,97.26,78.19,23.45,189.94-5.25,240.15-50C-38,732.22-20,710.06-6.3,694.73c7.74-8.64,15-18.93,24.81-25.29,9-5.83,19.91-9.41,26.68-18.16,4.35-5.62,6.32-12.74,7.17-19.8C52.9,627,52.92,622.2,51.1,618.2Z" transform="translate(454.77 225.91)"/><path class="cls-1" d="M-238.24,792.07c-22,0-43.55-2.66-63.38-8.61a2.22,2.22,0,0,1-1.54-2.61c8.68-39.35,22.24-70.52,42.68-98.11,12-16.15,34.25-20.4,50.72-9.66,44.07,28.71,103.9,12,129.45,4.86l5.24-1.45,40-47.23a2.29,2.29,0,0,1,1-.69l31.81-10.15c2.67-.86,6-2.24,9.44-3.7,14.24-6,33.74-14.19,44.21-.4a16.17,16.17,0,0,1,1.76,3c1.72,3.77,2.17,8.37,1.44,14.47-1,8.8-3.54,15.63-7.61,20.89-5,6.44-12,10.19-18.73,13.81-2.86,1.53-5.82,3.11-8.5,4.85C12.56,676,6.67,682.94,1,689.69c-1.87,2.22-3.72,4.42-5.61,6.52l-2.84,3.21c-13.55,15.26-30.33,34.18-52,34.18H-60C-97.26,766.32-169.83,792.06-238.24,792.07Zm-60.11-12.29c80.26,23,188.42-7.67,236-50.1a2.08,2.08,0,0,1,1.57-.56c20.25.72,36.7-17.76,49.92-32.66L-8,693.24c1.86-2.07,3.69-4.24,5.53-6.42,5.9-7,12-14.25,19.73-19.25,2.85-1.85,5.89-3.48,8.82-5.05C32.76,659,39,655.6,43.43,649.91c3.56-4.6,5.76-10.72,6.72-18.69.62-5.19.27-9.14-1.08-12.09h0A11.37,11.37,0,0,0,47.82,617c-8.38-11-25.32-3.91-38.93,1.82-3.58,1.5-7,2.92-9.82,3.83l-31.19,10-40,47.28a2.26,2.26,0,0,1-1.14.72c-1.69.44-3.65,1-5.86,1.61-26.13,7.3-87.33,24.4-133.08-5.42-14.5-9.45-34.14-5.68-44.71,8.58C-276.6,712-289.8,742-298.35,779.78Z" transform="translate(454.77 225.91)"/><path class="cls-1" d="M38.51,206.92c-13.45,6.78-23.58,7.76-30.88,7.34-26.39-1.52-43.31-22.79-46.7-27-17.49-22-25.92-58.1-11.1-79.3C-39.49,92.64-26,98.4-13.75,81.32c14-19.38-.36-35.19,12.52-52.16,14.82-19.53,47.49-18,53.36-17.77,20.16.92,22.56,10.92,41.62,10.4,19.45-.52,22-10.3,39.88-10.4,14.18-.08,34.85,6,44.11,22.36,11.63,20.59-.26,47.71-14.06,62-16.57,17.19-28.23,8-51.44,22C72,142,81.64,185.2,38.51,206.92Z" transform="translate(454.77 225.91)"/><path class="cls-2" d="M113.4,298.45l-10.89-67.73c2.4-.27,22.45-3.76,24.74-4.91,18.57-9.24,13.41-55.85,13.41-55.85L151,157.63l-30.79-68.9c-32.7,27.25-44.36.49-76.72,13.9s-14.81,49.44-14.81,49.44S2.22,140.42,7.87,166c4.27,19.32,18.34,20.53,27.61,19.75L18.23,301.89s-33.79,9.6-53.75,15.18a3,3,0,0,0,.09,5.82c31,7.75,108.76,29.82,196.49-2.57a4.09,4.09,0,0,0-.29-7.75Z" transform="translate(454.77 225.91)"/><path class="cls-1" d="M63.68,339.61c-42.13,0-76.34-8.66-95.48-13.5L-36,325.06a5.19,5.19,0,0,1-4-5,5.19,5.19,0,0,1,3.83-5.12C-18.56,310,9.69,302,16.24,300.14l16.63-112c-14.78.35-23.92-6.9-27.18-21.64-1.76-8-.73-13.64,3.07-16.76,4.46-3.65,11.36-2.67,16-1.37-2.25-6.46-5.17-18.52-1-29.65,3.09-8.14,9.41-14.23,18.81-18.13C57.16,94.55,68,96.35,77.51,98,90.09,100,101,101.86,118.77,87a2.23,2.23,0,0,1,1.93-.46,2.26,2.26,0,0,1,1.53,1.26L153,156.73a2.22,2.22,0,0,1-.33,2.33L143,170.67c.66,7,3.7,48-14.72,57.14-2.41,1.19-17.3,3.81-23.18,4.77l10.31,64.14,46,13.71a6.32,6.32,0,0,1,.42,12A282.19,282.19,0,0,1,63.68,339.61ZM35.48,183.52a2.22,2.22,0,0,1,2.2,2.55L20.43,302.22A2.23,2.23,0,0,1,18.84,304s-33.8,9.6-53.76,15.17a.72.72,0,0,0-.57.77.72.72,0,0,0,.6.75l4.19,1.06c32.2,8.14,107.61,27.23,191-3.56a1.77,1.77,0,0,0,1.18-1.78,1.82,1.82,0,0,0-1.33-1.75l-47.38-14.11a2.23,2.23,0,0,1-1.56-1.78l-10.89-67.74a2.21,2.21,0,0,1,.43-1.7,2.24,2.24,0,0,1,1.52-.87c2.88-.32,21.94-3.72,24-4.68,14.08-7,13.56-41.08,12.18-53.61a2.2,2.2,0,0,1,.5-1.67l9.43-11.27-29-65c-18.09,14.15-30,12.16-42.57,10.06-9.38-1.56-19.08-3.19-32.45,2.35-8.21,3.4-13.71,8.65-16.34,15.59-5.33,14.07,2.61,30.65,2.69,30.81a2.23,2.23,0,0,1-2.9,3c-3.15-1.38-12.18-4.24-16.19-.94-3,2.45-2.48,8.07-1.53,12.35,3,13.49,11,19.2,25.24,18Z" transform="translate(454.77 225.91)"/><path class="cls-1" d="M95.15,233.46c-27.5,0-40.37-21.33-40.51-21.56a2.23,2.23,0,0,1,3.84-2.26c.56.93,14,22.94,43.73,18.87a2.23,2.23,0,1,1,.6,4.42A57.28,57.28,0,0,1,95.15,233.46Z" transform="translate(454.77 225.91)"/><path class="cls-1" d="M-12.6,1120.7a47.93,47.93,0,0,1-47.87-47.87A47.93,47.93,0,0,1-12.6,1025a47.92,47.92,0,0,1,47.87,47.87A47.92,47.92,0,0,1-12.6,1120.7Zm0-91.28A43.46,43.46,0,0,0-56,1072.83a43.46,43.46,0,0,0,43.41,43.41,43.45,43.45,0,0,0,43.41-43.41A43.45,43.45,0,0,0-12.6,1029.42Z" transform="translate(454.77 225.91)"/><path class="cls-1" d="M116.12,1120.7A47.87,47.87,0,1,1,164,1072.83,47.92,47.92,0,0,1,116.12,1120.7Zm0-91.28a43.41,43.41,0,1,0,43.42,43.41A43.46,43.46,0,0,0,116.12,1029.42Z" transform="translate(454.77 225.91)"/><path class="cls-1" d="M247.19,1116a47.87,47.87,0,1,1,47.87-47.87A47.93,47.93,0,0,1,247.19,1116Zm0-91.28a43.41,43.41,0,1,0,43.41,43.41A43.45,43.45,0,0,0,247.19,1024.74Z" transform="translate(454.77 225.91)"/><path class="cls-2" d="M567.24,1460.4s51-15.93,134.47-177.94c70.48-136.76,7.64-268.93-5-357.34-1.3-9-13.64-10.33-16.69-1.74-21.13,59.39-55.13,167.41-49.63,233.91C638.28,1253.13,567.24,1460.4,567.24,1460.4Z" transform="translate(454.77 225.91)"/><path class="cls-1" d="M567.24,1462.63a2.22,2.22,0,0,1-2.11-3c.71-2.07,70.8-207.93,63-302.21-5.55-67,28.79-175.91,49.75-234.84a10.85,10.85,0,0,1,21,2.18c2.86,19.94,8.37,42.44,14.19,66.25,20.27,82.85,45.49,185.94-9.38,292.42-83,161-133.67,178.39-135.78,179A2.22,2.22,0,0,1,567.24,1462.63ZM688.05,919.82a6.12,6.12,0,0,0-6,4.3c-20.84,58.59-55,166.77-49.51,233,7.18,86.86-50.78,266.56-61.54,299,14.1-8,60.73-42.77,128.69-174.63,54.11-105,29.1-207.2,9-289.32-5.86-23.92-11.39-46.52-14.28-66.68a6.33,6.33,0,0,0-5.74-5.58C688.5,919.84,688.28,919.82,688.05,919.82Z" transform="translate(454.77 225.91)"/><path class="cls-2" d="M622.49,1371.82l18.16-143.56a327.42,327.42,0,0,0-29.36-182.19,327.54,327.54,0,0,1-8.52-262.72l29.17-72.85c3.68-9.21-8.05-16.69-14.71-9.37l-41,45c-92.91,102.21-124.28,246.91-82.15,379l75.46,236.52Z" transform="translate(454.77 225.91)"/><path class="cls-1" d="M622.49,1374.05a2.06,2.06,0,0,1-.42,0l-52.9-10.17a2.27,2.27,0,0,1-1.71-1.51L492,1125.81c-42.27-132.51-10.61-278.55,82.63-381.13l41-45a10.75,10.75,0,0,1,14-1.94A10.93,10.93,0,0,1,634,711.33l-29.17,72.85a325.93,325.93,0,0,0,8.46,260.93,328.92,328.92,0,0,1,29.56,183.43L624.71,1372.1a2.23,2.23,0,0,1-2.22,2Zm-51.18-14.34,49.27,9.47L638.44,1228a324.35,324.35,0,0,0-29.16-181,330.43,330.43,0,0,1-8.58-264.51l29.17-72.85a6.52,6.52,0,0,0-2.66-8.21,6.34,6.34,0,0,0-8.33,1.17l-41,45c-92.17,101.4-123.47,245.77-81.68,376.77Z" transform="translate(454.77 225.91)"/><path class="cls-2" d="M599.08,1376.53l-63-160.88a159.78,159.78,0,0,0-102.31-94.86l-43-13c-10.43-3.15-17.43,10.62-8.81,17.33l26.4,20.53a120.72,120.72,0,0,1,46.43,92.8A121.12,121.12,0,0,0,472.51,1299l42.68,70Z" transform="translate(454.77 225.91)"/><path class="cls-1" d="M599.08,1378.76h-.2L515,1371.22a2.23,2.23,0,0,1-1.7-1.06l-42.68-70a123.53,123.53,0,0,1-18-61.67,118,118,0,0,0-45.56-91.1l-26.4-20.53a11.9,11.9,0,0,1-3.32-15.21,11.72,11.72,0,0,1,14.13-6l42.95,13a161.12,161.12,0,0,1,103.75,96.19l63,160.88a2.23,2.23,0,0,1-2.08,3Zm-82.57-11.88L595.7,1374,534,1216.47a156.68,156.68,0,0,0-100.89-93.55l-42.95-13a7.32,7.32,0,0,0-8.88,3.79,7.47,7.47,0,0,0,2.09,9.65l26.4,20.53a122.35,122.35,0,0,1,47.28,94.52,119.14,119.14,0,0,0,17.33,59.44Z" transform="translate(454.77 225.91)"/><path class="cls-1" d="M589.76,1303.17h-.21a2.24,2.24,0,0,1-2-2.43c9.61-102.75-11-168.9-29.23-227.27-8.42-27-16.36-52.44-21.08-79.82C515,864.39,590.89,752.24,591.66,751.12a2.23,2.23,0,0,1,3.67,2.53c-.76,1.1-75.66,111.82-53.71,239.23,4.67,27.09,12.57,52.43,20.94,79.26,18.33,58.76,39.11,125.36,29.42,229A2.23,2.23,0,0,1,589.76,1303.17Z" transform="translate(454.77 225.91)"/><path class="cls-1" d="M673.66,1234.48a2.43,2.43,0,0,1-.38,0,2.23,2.23,0,0,1-1.82-2.57c17.16-101.46,11.22-257.67,11.16-259.23a2.23,2.23,0,0,1,2.13-2.32,2.2,2.2,0,0,1,2.32,2.14c.06,1.57,6,158.23-11.22,260.15A2.22,2.22,0,0,1,673.66,1234.48Z" transform="translate(454.77 225.91)"/><path class="cls-1" d="M523.27,1318.54a2.23,2.23,0,0,1-2.23-2.21c-1.22-126.44-102.2-181.93-103.22-182.48a2.23,2.23,0,1,1,2.1-3.93c1,.56,104.33,57.32,105.57,186.37a2.22,2.22,0,0,1-2.2,2.25Z" transform="translate(454.77 225.91)"/><path class="cls-1" d="M536.94,1082.05a2.21,2.21,0,0,1-1.76-.86c-27.31-35.09-39.43-82.52-39.55-83a2.23,2.23,0,1,1,4.32-1.08c.12.47,12,47,38.75,81.35a2.23,2.23,0,0,1-1.76,3.59Z" transform="translate(454.77 225.91)"/><path class="cls-2" d="M919.62,1563.55h238.63a0,0,0,0,1,0,0V1675.8a113.57,113.57,0,0,1-113.57,113.57h-11.49A113.57,113.57,0,0,1,919.62,1675.8V1563.55A0,0,0,0,1,919.62,1563.55Z"/><path class="cls-1" d="M589.91,1565.68H578.42a115.92,115.92,0,0,1-115.79-115.79V1337.64a2.22,2.22,0,0,1,2.22-2.23H703.48a2.23,2.23,0,0,1,2.23,2.23v112.25A115.93,115.93,0,0,1,589.91,1565.68ZM467.08,1339.86v110a111.47,111.47,0,0,0,111.34,111.34h11.49a111.47,111.47,0,0,0,111.35-111.34v-110Z" transform="translate(454.77 225.91)"/><path class="cls-1" d="M680.08,1379.73H488.24a2.23,2.23,0,0,1,0-4.46H680.08a2.23,2.23,0,0,1,0,4.46Z" transform="translate(454.77 225.91)"/></g></svg>