<svg id="Layer_1" data-name="Layer 1" xmlns="http://www.w3.org/2000/svg" viewBox="0 0 1830.47 1830"><defs><style>.cls-1{fill:#fff;}.cls-2{fill:#010101;}.cls-3{fill:#128dc9;}.cls-4{fill:#272361;}.cls-5{fill:#4b449b;}</style></defs><g id="Overweight_kids_training_plan" data-name="Overweight kids training plan"><path class="cls-1" d="M-12.7,359.11c34.11-13,59.89-59.76,68.85-92.82,2.77-10.22,22.56-83.29-13.91-128.1C11.45,100.36-32.38,115.93-45.2,86.54c-14-32.13,25.5-65.22,31.85-95,9.74-45.7-36.36-61.74-65-85.13-45.16-36.87-23.79-81.46,2.24-123.78,12.5-20.33,26-44.44,23.43-69.25C-55.42-312.3-73.83-330-69.3-358.49c2.9-18.22,12.23-35.38,12-53.83-.25-20.27-11.94-38.4-23.21-55.26C-108.87-510-137.06-580.72-188.24-597.13c-59.9-19.21-113.78,26.82-145.42,73.39-30.84,45.38-27.27,108.47-67.1,148.57-14.88,15-34.58,24.58-49,40-50.06,53.85-2.75,126.24,32.18,173.19,25.17,33.84,51,73,40.18,117.11-3.26,13.27-9.46,26.09-9.32,39.76.44,42.48,39,66.92,74.91,79.57,19.17,6.76,39.27,11,59.41,13.6,14.52,1.86,46-1.5,53.58,14.27,3.22,6.69.43,14.68-3.21,21.16-7.22,12.83-17.78,23.85-22.94,37.65-33.41,89.3,134.13,99.34,182.64,115.31,11.12,3.66,22.6,8.24,30,17.36C4,314.14-9,337.61-12.7,359.11Z" transform="translate(479.97 624.29)"/><path class="cls-2" d="M-12.7,361.31a2.18,2.18,0,0,1-1.4-.5,2.23,2.23,0,0,1-.78-2.08c.89-5.18,2.32-10.53,3.71-15.71,4.57-17,8.89-33.16-2.89-47.79-7.2-8.94-18.7-13.28-28.92-16.64-9.62-3.17-24.06-6.12-40.79-9.53-51-10.41-120.88-24.67-141.7-62.27-7.48-13.5-8-29.11-1.53-46.39,3.27-8.74,8.65-16.41,13.86-23.84,3.19-4.55,6.5-9.26,9.23-14.12,4.42-7.84,5.47-14.28,3.14-19.12-5.3-11-25.17-11.74-39.68-12.27-4.53-.17-8.8-.33-12.19-.77a293.42,293.42,0,0,1-59.87-13.7c-28.31-10-75.89-33.84-76.37-81.63C-389-14.72-386-24-383.17-32.92c1.3-4.08,2.65-8.29,3.67-12.44,10.51-42.85-13.9-80.43-39.81-115.26-40.49-54.43-80.72-123.62-32-176,7.67-8.25,16.88-14.9,25.8-21.34,8-5.77,16.24-11.74,23.21-18.76,21.87-22,30.65-51.86,39.15-80.72,6.83-23.22,13.9-47.22,27.7-67.53,15.92-23.44,73.65-98.07,147.91-74.25,40.07,12.85,66,57.73,88.88,97.33,6.92,12,13.45,23.27,20,33.1,10.38,15.53,23.31,34.86,23.58,56.46.14,11.33-3.23,22.23-6.49,32.77-2.16,7-4.39,14.21-5.54,21.42-2.58,16.22,2.5,28.68,7.88,41.88,3.73,9.13,7.58,18.57,8.72,29.38,2.66,25.22-10.86,49.68-23.75,70.63-25.5,41.48-46.73,85-2.71,120.92,6.26,5.11,13.56,10,20.62,14.72C-30.27-63.15-3.29-45.09-11.19-8c-2.43,11.41-9.31,22.86-16.59,35-11.68,19.44-23.76,39.55-15.4,58.73,5.79,13.26,18.23,16.67,34,21C8.06,111.38,27.62,116.73,44,136.8,77.51,178,65.15,241.49,58.28,266.86c-8.2,30.3-33.67,80.41-70.2,94.31A2.33,2.33,0,0,1-12.7,361.31ZM-216.57-599.43c-57.92,0-101.84,57.17-115.26,76.93s-20.38,43.4-27.12,66.3c-8.65,29.39-17.6,59.78-40.25,82.58-7.23,7.28-15.63,13.35-23.76,19.22-8.74,6.32-17.77,12.85-25.14,20.77-46.49,50-7.14,117.32,32.33,170.38,25.37,34.1,51.52,74.24,40.55,119-1,4.29-2.42,8.58-3.75,12.72-2.87,9-5.6,17.52-5.5,26.48C-384,40-338.27,62.83-311,72.42a289.31,289.31,0,0,0,59,13.49c3.19.41,7.37.56,11.79.73,16.5.61,37,1.37,43.49,14.77,3,6.21,1.9,14-3.27,23.2-2.84,5-6.2,9.84-9.46,14.49-5.28,7.52-10.26,14.64-13.34,22.85-6,16-5.56,30.38,1.26,42.7,19.84,35.82,88.55,49.85,138.72,60.09,16.86,3.44,31.43,6.41,41.29,9.66,11.61,3.82,23.4,8.66,31,18.06,13.18,16.37,8.37,34.33,3.71,51.71-1,3.89-2,7.62-2.84,11.3,33-15.21,56.09-61.4,63.77-89.76,5.22-19.28,19.69-85.37-13.49-126.13-15.44-19-34.27-24.12-50.89-28.68-16.22-4.44-30.23-8.28-36.86-23.48-9.28-21.26,3.4-42.36,15.66-62.76C-24.47,12.87-17.78,1.73-15.51-9c7.28-34.13-18.44-51.35-43.31-68-7.14-4.78-14.53-9.72-20.95-15-46.77-38.18-23.62-85.39,1.75-126.64,12.5-20.33,25.63-44,23.11-67.86-1.07-10.18-4.8-19.33-8.41-28.18-5.37-13.17-10.93-26.8-8.16-44.23,1.2-7.52,3.48-14.9,5.69-22,3.3-10.69,6.42-20.78,6.29-31.42-.26-20.28-12.78-39-22.84-54.06-6.65-9.95-13.21-21.31-20.17-33.35-22.48-38.9-48-83-86.41-95.33A90.07,90.07,0,0,0-216.57-599.43Z" transform="translate(479.97 624.29)"/><path class="cls-2" d="M-33.95,400.6a2.22,2.22,0,0,1-1.64-.72,2.21,2.21,0,0,1,.16-3.12c13.66-12.41,31.84-34.89,40.86-71.55C6,323,18.53,270.5,1.15,213.27c-14.92-49.12-43.07-73.73-82-107.8-18.78-16.41-40.07-35-63.1-59.41-30.19-32-122-129.19-151.42-238.81-17-63.48-12.9-131,12.22-200.55,14.56-40.34,36.35-81.16,63-118a2.2,2.2,0,0,1,3.08-.49,2.2,2.2,0,0,1,.49,3.08c-34.86,48.21-111.91,175.4-74.55,314.86C-262.06-85.35-170.78,11.27-140.78,43c22.9,24.25,44.1,42.78,62.8,59.13C-39.95,135.4-9.92,161.66,5.37,212c17.43,57.39,5.74,108.62,4.35,114.28C.43,364-18.35,387.21-32.47,400A2.2,2.2,0,0,1-33.95,400.6Z" transform="translate(479.97 624.29)"/><path class="cls-1" d="M-44.47,444.64c1.58-2.77,42.47-3.95,48.24-5.08a252.86,252.86,0,0,0,47-13.9C78.18,414.46,104,398,123.8,375.82c18.48-20.67,22.72-38.57,28.49-64.18,7.29-32.37,20.17-59.58,19.74-93.85-.44-36.26-16.06-70.6-15.88-106.87.17-33.16,21.62-60.26,31.57-90.95,10.7-33,8.15-69.32-1.83-102.58-11.08-36.93-29.49-81-60.38-105.26C100.33-207.6,54.14-218.68,49.64-256c-1.85-15.28,5.48-29.93,10.22-44.57,12.9-39.83,2.08-73.55-9.86-111.29-11.37-35.93-36.49-70.87-72.78-84.51-94.55-35.55-222.88,79.58-181.94,175.1a129.22,129.22,0,0,1-4.41,109.57c-7.48,14.19-17.66,27-23.37,42-15.57,40.88,15.81,78.76,45.64,102.09,29.28,22.9,66.34,46.12,69.29,87.12,3,42-32.62,49.31-29.46,90.08,5.2,67,103.76,78.05,136.17,151.74C4.84,297.05,7.59,353.29-44.47,444.64Z" transform="translate(479.97 624.29)"/><path class="cls-2" d="M-44.47,446.85a2.15,2.15,0,0,1-1.09-.29,2.21,2.21,0,0,1-.83-3h0C-4,369.12,7.3,308.12-12.88,262.24-28,227.91-57.34,207.63-85.73,188c-31.21-21.56-60.68-41.93-63.5-78.23-1.63-21,6.78-33.6,14.91-45.76,8.23-12.32,16-24,14.55-44.34C-122.32-15.66-150.61-37.18-178-58c-3.47-2.64-6.91-5.26-10.24-7.86-20-15.62-64.45-57.08-46.34-104.62,3.62-9.51,9-18.22,14.29-26.64,3.14-5.06,6.4-10.29,9.19-15.59a126.29,126.29,0,0,0,4.34-107.67c-18-41.94-5.46-91.31,33.48-132.07,36-37.66,96.72-66.47,151.26-46,33.34,12.54,61.05,44.65,74.1,85.91l.2.63C64-375,75-340.14,62-299.86c-1,3.19-2.2,6.42-3.33,9.54-4,11.12-8.19,22.62-6.8,34.08,3.05,25.3,26.38,38.13,48.93,50.53,9.58,5.27,18.63,10.25,26.11,16.11C152.23-169.73,172.8-133.94,188-83.24c7.78,25.92,14.4,65,1.81,103.89-3.56,11-8.63,21.63-13.53,31.91-9.17,19.25-17.83,37.43-17.93,58.37-.09,18.24,4,36.42,7.89,54,3.82,17.13,7.77,34.84,8,52.85.29,23.77-5.6,43.78-11.85,65-2.78,9.45-5.66,19.23-7.95,29.38-5.51,24.46-9.86,43.77-29,65.17-18.66,20.88-44.21,38.31-73.86,50.41a256.38,256.38,0,0,1-47.39,14c-2.14.42-8.23.8-15.92,1.29-10.63.68-28.32,1.81-31.15,3.15A2.2,2.2,0,0,1-44.47,446.85ZM-60.21-500.82c-41.62,0-82.85,23.17-109.86,51.43-37.68,39.44-49.88,87-32.62,127.28a130.73,130.73,0,0,1-4.48,111.47c-2.88,5.44-6.17,10.74-9.36,15.86-5.13,8.24-10.44,16.77-13.91,25.88-17.06,44.8,25.74,84.56,44.94,99.57,3.32,2.6,6.74,5.2,10.2,7.83,26.83,20.4,57.24,43.53,59.93,80.87,1.57,21.88-7,34.7-15.28,47.1-8.07,12.07-15.69,23.46-14.18,43,2.65,34.2,30,53.08,61.61,74.94,27.55,19,58.78,40.61,74.38,76.08,20.33,46.24,9.89,107-31,180.54,4.79-.75,13.13-1.44,27.88-2.38,6.94-.44,13.49-.86,15.35-1.22a250.84,250.84,0,0,0,46.57-13.79c29-11.85,54-28.88,72.25-49.26,18.37-20.55,22.4-38.44,28-63.2,2.32-10.29,5.22-20.14,8-29.66,6.15-20.86,12-40.56,11.67-63.67-.22-17.54-4.12-35-7.89-51.93-4-17.82-8.09-36.24-8-55,.11-21.93,9.38-41.41,18.36-60.25,4.84-10.15,9.84-20.65,13.31-31.37,12.25-37.82,5.76-75.94-1.84-101.27-14.94-49.81-35-84.85-59.63-104.15-7.19-5.64-16.09-10.53-25.52-15.72-22.43-12.33-47.85-26.31-51.18-53.86-1.51-12.5,2.83-24.51,7-36.11,1.11-3.09,2.27-6.28,3.28-9.4,12.61-38.94,2.29-71.56-9.67-109.32l-.19-.63c-12.65-40-39.37-71.05-71.45-83.11A103.58,103.58,0,0,0-60.21-500.82Z" transform="translate(479.97 624.29)"/><path class="cls-2" d="M-61,459.66a2.19,2.19,0,0,1-1.89-1.07,2.21,2.21,0,0,1,.74-3,250.86,250.86,0,0,0,75.23-69.77C41.7,345.38,57,302.3,58.51,257.74c1.58-46.39-12.59-79.27-36-133.74C6.12,86.08-6.57,66.32-18.85,47.22-30.91,28.45-42.3,10.71-56.35-22.43-67.92-49.73-89.47-100.55-94.71-166S-87-300.56-57.2-365.43a2.21,2.21,0,0,1,2.93-1.09,2.21,2.21,0,0,1,1.08,2.93C-82.68-299.4-95.52-231.2-90.32-166.35s26.56,115.13,38,142.2c13.9,32.8,25.2,50.37,37.15,69C-2.76,64.09,10,84,26.5,122.23c23.72,55.06,38,88.28,36.41,135.66-1.54,45.44-17.1,89.33-46.24,130.45a255.26,255.26,0,0,1-76.54,71A2.26,2.26,0,0,1-61,459.66Z" transform="translate(479.97 624.29)"/><path class="cls-2" d="M945.52-381.87H71.44c-27.57,0-51.84,24.14-54.21,53.91L-84.45,949.6c-2.37,29.77,18.07,53.9,45.64,53.9H835.26c27.57,0,51.85-24.13,54.22-53.9L991.15-328C993.52-357.73,973.09-381.87,945.52-381.87Z" transform="translate(479.97 624.29)"/><path class="cls-2" d="M835.26,1005.71H-38.81a46.23,46.23,0,0,1-34.34-15C-83,980.08-87.89,965-86.65,949.42L15-328.14c2.45-30.84,27.76-55.93,56.41-55.93H945.52a46.25,46.25,0,0,1,34.34,15c9.82,10.63,14.73,25.68,13.49,41.29L891.68,949.77C889.22,980.62,863.91,1005.71,835.26,1005.71ZM71.44-379.66c-26.4,0-49.74,23.27-52,51.87L-82.25,949.77c-1.14,14.39,3.35,28.22,12.34,38a41.9,41.9,0,0,0,31.1,13.58H835.26c26.41,0,49.74-23.27,52-51.88L989-328.14c1.15-14.39-3.35-28.21-12.33-37.94a41.88,41.88,0,0,0-31.1-13.58Z" transform="translate(479.97 624.29)"/><path class="cls-1" d="M917-388H42.91c-27.58,0-51.84,24.36-54.19,54.42l-101,1289.72c-2.35,30,18.09,54.41,45.66,54.41H807.5c27.57,0,51.83-24.36,54.18-54.41l101-1289.72C965-363.65,944.55-388,917-388Z" transform="translate(479.97 624.29)"/><path class="cls-2" d="M807.5,1012.75H-66.58a46.1,46.1,0,0,1-34.18-15c-9.93-10.74-14.92-26-13.68-41.84l101-1289.72c2.44-31.12,27.73-56.45,56.39-56.45H917a46.12,46.12,0,0,1,34.19,15c9.93,10.74,14.91,26,13.67,41.84L863.88,956.3C861.45,987.42,836.15,1012.75,807.5,1012.75ZM42.91-385.8c-26.41,0-49.73,23.5-52,52.38L-110,956.3c-1.15,14.62,3.42,28.65,12.52,38.49a41.67,41.67,0,0,0,30.94,13.55H807.5c26.4,0,49.72-23.5,52-52.39l101-1289.72c1.15-14.62-3.41-28.65-12.51-38.49A41.74,41.74,0,0,0,917-385.8Z" transform="translate(479.97 624.29)"/><polygon class="cls-1" points="1242.98 1495.25 479.73 1495.25 571.52 322.63 1334.78 322.63 1242.98 1495.25"/><path class="cls-2" d="M698.65-157.91H238.19a2.21,2.21,0,0,1-1.65-.74,2.26,2.26,0,0,1-.54-1.73l4.28-35.73a2.21,2.21,0,0,1,2.19-1.94H702.93a2.21,2.21,0,0,1,1.65.74,2.21,2.21,0,0,1,.54,1.72l-4.28,35.74A2.2,2.2,0,0,1,698.65-157.91Zm-458-4.41h456l3.75-31.32h-456Z" transform="translate(479.97 624.29)"/><path class="cls-2" d="M694.73-100.56H234.28a2.19,2.19,0,0,1-1.65-.75,2.17,2.17,0,0,1-.54-1.72l4.28-35.74a2.2,2.2,0,0,1,2.19-1.94H699a2.21,2.21,0,0,1,1.65.74,2.18,2.18,0,0,1,.54,1.73l-4.28,35.73A2.21,2.21,0,0,1,694.73-100.56Zm-458-4.42h456l3.75-31.32h-456Z" transform="translate(479.97 624.29)"/><path class="cls-2" d="M182,878.55a2.21,2.21,0,0,1,0-4.41l439.61-3h0a2.21,2.21,0,0,1,0,4.41l-439.61,3Z" transform="translate(479.97 624.29)"/><path class="cls-2" d="M826,72.53h-.17a2.19,2.19,0,0,1-2-2.37l28.63-369.6H93.59L67.88,10.21a2.2,2.2,0,1,1-4.39-.37L89.35-301.84a2.22,2.22,0,0,1,2.2-2H854.81a2.23,2.23,0,0,1,1.62.71,2.18,2.18,0,0,1,.58,1.67l-28.81,372A2.21,2.21,0,0,1,826,72.53Z" transform="translate(479.97 624.29)"/><path class="cls-2" d="M429.7-10H268.07a2.21,2.21,0,0,1-2.21-2.21,2.2,2.2,0,0,1,2.21-2.2H427.68l2.4-27.19H191a2.21,2.21,0,0,1-2.21-2.21A2.21,2.21,0,0,1,191-46H432.49a2.2,2.2,0,0,1,1.62.72,2.18,2.18,0,0,1,.57,1.68L431.9-12A2.22,2.22,0,0,1,429.7-10Z" transform="translate(479.97 624.29)"/><path class="cls-2" d="M424.12,40.71H234.28a2.21,2.21,0,1,1,0-4.41H422.1l2.4-27.19H247.79a2.21,2.21,0,0,1,0-4.42H426.91a2.21,2.21,0,0,1,2.2,2.4L426.32,38.7A2.2,2.2,0,0,1,424.12,40.71Z" transform="translate(479.97 624.29)"/><path class="cls-2" d="M418.6,90.83H198.23a2.21,2.21,0,1,1,0-4.41H416.58L419,59.23H216.25a2.21,2.21,0,1,1,0-4.41H421.39a2.18,2.18,0,0,1,1.62.72,2.16,2.16,0,0,1,.57,1.68l-2.78,31.6A2.21,2.21,0,0,1,418.6,90.83Z" transform="translate(479.97 624.29)"/><polygon class="cls-1" points="639.05 761.4 596.05 761.4 598.84 729.8 641.84 729.8 639.05 761.4"/><path class="cls-2" d="M415.42,139.33H207.18a2.21,2.21,0,0,1,0-4.42H413.4l2.4-27.19H207.18a2.21,2.21,0,1,1,0-4.41h211a2.21,2.21,0,0,1,2.2,2.4l-2.79,31.6A2.21,2.21,0,0,1,415.42,139.33Z" transform="translate(479.97 624.29)"/><polygon class="cls-1" points="633.53 811.53 590.53 811.53 593.32 779.93 636.32 779.93 633.53 811.53"/><path class="cls-2" d="M409.9,189.45H207.18a2.21,2.21,0,1,1,0-4.41H407.87l2.41-27.19H207.18a2.21,2.21,0,1,1,0-4.41H412.69a2.23,2.23,0,0,1,1.62.71,2.19,2.19,0,0,1,.57,1.69l-2.79,31.6A2.2,2.2,0,0,1,409.9,189.45Z" transform="translate(479.97 624.29)"/><path class="cls-2" d="M521.91-10.7h-43a2.23,2.23,0,0,1-1.63-.71,2.19,2.19,0,0,1-.57-1.69l2.79-31.6a2.2,2.2,0,0,1,2.19-2h43a2.23,2.23,0,0,1,1.63.71,2.23,2.23,0,0,1,.57,1.69l-2.79,31.6A2.2,2.2,0,0,1,521.91-10.7Zm-40.6-4.41h38.57l2.4-27.19H483.71Z" transform="translate(479.97 624.29)"/><path class="cls-2" d="M778.24-10.7H536.79a2.23,2.23,0,0,1-1.63-.71,2.27,2.27,0,0,1-.57-1.69l2.79-31.6a2.2,2.2,0,0,1,2.2-2H781a2.2,2.2,0,0,1,1.63.72,2.19,2.19,0,0,1,.57,1.68l-2.79,31.6A2.2,2.2,0,0,1,778.24-10.7Zm-239-4.41h237l2.4-27.19h-237Z" transform="translate(479.97 624.29)"/><path class="cls-2" d="M516.33,40h-43a2.2,2.2,0,0,1-2.19-2.4L473.92,6a2.21,2.21,0,0,1,2.2-2h43a2.2,2.2,0,0,1,1.63.72,2.23,2.23,0,0,1,.57,1.68L518.53,38A2.21,2.21,0,0,1,516.33,40Zm-40.59-4.41h38.57l2.4-27.19H478.14Z" transform="translate(479.97 624.29)"/><path class="cls-2" d="M772.67,40H531.21a2.23,2.23,0,0,1-1.62-.71,2.19,2.19,0,0,1-.57-1.69L531.81,6A2.2,2.2,0,0,1,534,4H775.46a2.2,2.2,0,0,1,1.63.72,2.23,2.23,0,0,1,.57,1.68L774.87,38A2.21,2.21,0,0,1,772.67,40Zm-239-4.41h237l2.4-27.19H536Z" transform="translate(479.97 624.29)"/><path class="cls-2" d="M510.81,90.1h-43a2.21,2.21,0,0,1-2.2-2.4l2.79-31.6a2.2,2.2,0,0,1,2.19-2h43a2.23,2.23,0,0,1,1.63.71,2.19,2.19,0,0,1,.57,1.69L513,88.09A2.2,2.2,0,0,1,510.81,90.1Zm-40.59-4.41h38.57l2.4-27.19H472.62Z" transform="translate(479.97 624.29)"/><path class="cls-2" d="M767.15,90.1H525.69a2.23,2.23,0,0,1-1.63-.71,2.27,2.27,0,0,1-.57-1.69l2.79-31.6a2.2,2.2,0,0,1,2.2-2H769.93a2.2,2.2,0,0,1,2.2,2.4l-2.79,31.6A2.2,2.2,0,0,1,767.15,90.1Zm-239-4.41h237l2.4-27.19h-237Z" transform="translate(479.97 624.29)"/><path class="cls-2" d="M507.63,138.59h-43a2.17,2.17,0,0,1-1.62-.72,2.2,2.2,0,0,1-.58-1.68l2.79-31.6a2.21,2.21,0,0,1,2.2-2h43a2.23,2.23,0,0,1,1.63.71,2.27,2.27,0,0,1,.57,1.69l-2.79,31.6A2.21,2.21,0,0,1,507.63,138.59ZM467,134.18h38.57L508,107H469.44Z" transform="translate(479.97 624.29)"/><path class="cls-2" d="M764,138.59H522.51a2.2,2.2,0,0,1-2.19-2.4l2.79-31.6a2.2,2.2,0,0,1,2.19-2H766.76a2.19,2.19,0,0,1,1.62.71A2.24,2.24,0,0,1,769,105l-2.79,31.6A2.21,2.21,0,0,1,764,138.59Zm-239.05-4.41H762l2.4-27.19h-237Z" transform="translate(479.97 624.29)"/><path class="cls-2" d="M502.1,188.72h-43a2.2,2.2,0,0,1-1.63-.72,2.17,2.17,0,0,1-.57-1.68l2.79-31.6a2.21,2.21,0,0,1,2.19-2h43a2.21,2.21,0,0,1,2.2,2.4l-2.79,31.61A2.21,2.21,0,0,1,502.1,188.72Zm-40.59-4.41h38.57l2.4-27.19H463.91Z" transform="translate(479.97 624.29)"/><path class="cls-2" d="M758.44,188.72H517a2.21,2.21,0,0,1-2.2-2.4l2.79-31.6a2.2,2.2,0,0,1,2.2-2H761.23a2.19,2.19,0,0,1,1.63.71,2.22,2.22,0,0,1,.57,1.68l-2.79,31.61A2.2,2.2,0,0,1,758.44,188.72Zm-239-4.41h237l2.4-27.19h-237Z" transform="translate(479.97 624.29)"/><path class="cls-2" d="M148.36,291.54h-43a2.21,2.21,0,0,1-2.2-2.4l2.79-31.6a2.21,2.21,0,0,1,2.2-2h43a2.21,2.21,0,0,1,2.19,2.4l-2.79,31.61A2.21,2.21,0,0,1,148.36,291.54Zm-40.59-4.41h38.57l2.4-27.19H110.17Z" transform="translate(479.97 624.29)"/><path class="cls-2" d="M404.7,291.54H163.24a2.2,2.2,0,0,1-1.63-.72,2.23,2.23,0,0,1-.57-1.68l2.79-31.6a2.21,2.21,0,0,1,2.2-2H407.48a2.23,2.23,0,0,1,1.63.71,2.19,2.19,0,0,1,.57,1.69l-2.79,31.6A2.2,2.2,0,0,1,404.7,291.54Zm-239-4.41h237l2.41-27.19h-237Z" transform="translate(479.97 624.29)"/><path class="cls-2" d="M142.78,342.21h-43a2.18,2.18,0,0,1-1.62-.72,2.16,2.16,0,0,1-.57-1.68l2.79-31.6a2.21,2.21,0,0,1,2.19-2h43a2.21,2.21,0,0,1,2.2,2.4L145,340.2A2.2,2.2,0,0,1,142.78,342.21Zm-40.59-4.41h38.57l2.4-27.19H104.59Z" transform="translate(479.97 624.29)"/><path class="cls-2" d="M399.12,342.21H157.67a2.21,2.21,0,0,1-2.2-2.4l2.79-31.6a2.2,2.2,0,0,1,2.19-2H401.91a2.23,2.23,0,0,1,1.63.71,2.27,2.27,0,0,1,.57,1.69l-2.79,31.6A2.2,2.2,0,0,1,399.12,342.21Zm-239-4.41h237l2.4-27.19h-237Z" transform="translate(479.97 624.29)"/><path class="cls-2" d="M137.26,392.34h-43a2.2,2.2,0,0,1-1.63-.72,2.26,2.26,0,0,1-.57-1.68l2.79-31.61a2.21,2.21,0,0,1,2.2-2h43a2.21,2.21,0,0,1,2.19,2.4l-2.79,31.6A2.21,2.21,0,0,1,137.26,392.34Zm-40.59-4.42h38.57l2.4-27.19H99.07Z" transform="translate(479.97 624.29)"/><path class="cls-2" d="M393.6,392.34H152.14a2.2,2.2,0,0,1-1.63-.72,2.26,2.26,0,0,1-.57-1.68l2.79-31.6a2.22,2.22,0,0,1,2.2-2H396.39a2.21,2.21,0,0,1,2.19,2.4l-2.79,31.61A2.21,2.21,0,0,1,393.6,392.34Zm-239-4.41h237l2.4-27.19H157Z" transform="translate(479.97 624.29)"/><path class="cls-2" d="M134.08,440.83h-43a2.17,2.17,0,0,1-1.62-.72,2.23,2.23,0,0,1-.58-1.68l2.79-31.6a2.22,2.22,0,0,1,2.2-2h43a2.2,2.2,0,0,1,1.63.72,2.26,2.26,0,0,1,.57,1.68l-2.79,31.61A2.21,2.21,0,0,1,134.08,440.83Zm-40.59-4.41h38.57l2.4-27.2H95.89Z" transform="translate(479.97 624.29)"/><path class="cls-2" d="M390.42,440.83H149a2.2,2.2,0,0,1-1.63-.72,2.17,2.17,0,0,1-.57-1.68l2.79-31.6a2.2,2.2,0,0,1,2.19-2H393.21a2.16,2.16,0,0,1,1.62.71,2.23,2.23,0,0,1,.58,1.68l-2.79,31.61A2.22,2.22,0,0,1,390.42,440.83Zm-239-4.41h237l2.4-27.19h-237Z" transform="translate(479.97 624.29)"/><path class="cls-2" d="M128.56,491h-43a2.2,2.2,0,0,1-2.2-2.4L86.15,457a2.2,2.2,0,0,1,2.2-2h43a2.21,2.21,0,0,1,2.2,2.4l-2.79,31.6A2.2,2.2,0,0,1,128.56,491ZM88,486.54h38.58l2.4-27.19H90.37Z" transform="translate(479.97 624.29)"/><path class="cls-2" d="M384.9,491H143.44a2.2,2.2,0,0,1-1.63-.72,2.26,2.26,0,0,1-.57-1.68L144,457a2.2,2.2,0,0,1,2.2-2H387.68a2.21,2.21,0,0,1,2.2,2.4l-2.79,31.6A2.21,2.21,0,0,1,384.9,491Zm-239-4.42h237l2.4-27.19h-237Z" transform="translate(479.97 624.29)"/><path class="cls-2" d="M496.9,290.8h-43a2.2,2.2,0,0,1-2.2-2.4l2.79-31.6a2.2,2.2,0,0,1,2.19-2h43a2.21,2.21,0,0,1,2.2,2.4l-2.79,31.6A2.2,2.2,0,0,1,496.9,290.8Zm-40.59-4.41h38.57l2.4-27.19H458.71Z" transform="translate(479.97 624.29)"/><path class="cls-2" d="M669.82,290.81h-158a2.21,2.21,0,0,1-2.2-2.4l2.79-31.61a2.21,2.21,0,0,1,2.2-2H669.82a2.21,2.21,0,1,1,0,4.41H516.6l-2.4,27.19H669.82a2.21,2.21,0,0,1,0,4.42Z" transform="translate(479.97 624.29)"/><path class="cls-2" d="M491.33,341.48h-43a2.2,2.2,0,0,1-1.63-.72,2.26,2.26,0,0,1-.57-1.68l2.79-31.61a2.22,2.22,0,0,1,2.2-2h43a2.21,2.21,0,0,1,2.19,2.4l-2.78,31.6A2.22,2.22,0,0,1,491.33,341.48Zm-40.59-4.42h38.57l2.4-27.19H453.14Z" transform="translate(479.97 624.29)"/><path class="cls-2" d="M674.53,341.48H506.21a2.21,2.21,0,0,1-2.19-2.4l2.78-31.61a2.22,2.22,0,0,1,2.2-2H673a2.21,2.21,0,1,1,0,4.41H511l-2.4,27.19H674.53a2.21,2.21,0,1,1,0,4.42Z" transform="translate(479.97 624.29)"/><path class="cls-2" d="M485.8,391.6h-43a2.2,2.2,0,0,1-2.2-2.4l2.79-31.6a2.2,2.2,0,0,1,2.19-2h43a2.23,2.23,0,0,1,1.63.71,2.19,2.19,0,0,1,.57,1.69L488,389.59A2.2,2.2,0,0,1,485.8,391.6Zm-40.58-4.41h38.56L486.19,360H447.61Z" transform="translate(479.97 624.29)"/><path class="cls-2" d="M669.82,391.6H500.69a2.2,2.2,0,0,1-2.2-2.4l2.79-31.6a2.2,2.2,0,0,1,2.2-2H673a2.21,2.21,0,1,1,0,4.41H505.5l-2.4,27.19H669.82a2.21,2.21,0,1,1,0,4.41Z" transform="translate(479.97 624.29)"/><path class="cls-2" d="M482.63,440.09h-43a2.2,2.2,0,0,1-2.2-2.4l2.79-31.6a2.2,2.2,0,0,1,2.2-2h43a2.2,2.2,0,0,1,1.62.72,2.16,2.16,0,0,1,.57,1.68l-2.78,31.6A2.21,2.21,0,0,1,482.63,440.09ZM442,435.68h38.57l2.4-27.19H444.44Z" transform="translate(479.97 624.29)"/><path class="cls-2" d="M580.66,440.09H497.51a2.16,2.16,0,0,1-1.62-.71,2.19,2.19,0,0,1-.57-1.69l2.78-31.6a2.21,2.21,0,0,1,2.2-2H625a2.21,2.21,0,1,1,0,4.41H502.32l-2.4,27.19h80.74a2.21,2.21,0,1,1,0,4.41Z" transform="translate(479.97 624.29)"/><path class="cls-2" d="M477.1,490.22h-43a2.18,2.18,0,0,1-1.62-.72,2.16,2.16,0,0,1-.57-1.68l2.79-31.6a2.2,2.2,0,0,1,2.19-2h43a2.23,2.23,0,0,1,1.63.71,2.27,2.27,0,0,1,.57,1.69l-2.79,31.6A2.2,2.2,0,0,1,477.1,490.22Zm-40.59-4.41h38.57l2.4-27.19H438.91Z" transform="translate(479.97 624.29)"/><path class="cls-2" d="M558.13,490.22H492a2.2,2.2,0,0,1-2.2-2.4l2.79-31.6a2.2,2.2,0,0,1,2.19-2h76.88a2.21,2.21,0,1,1,0,4.41H496.8l-2.4,27.19h63.73a2.21,2.21,0,1,1,0,4.41Z" transform="translate(479.97 624.29)"/><path class="cls-2" d="M123.36,587.1h-43a2.21,2.21,0,0,1-2.19-2.4L81,553.1a2.21,2.21,0,0,1,2.2-2h43a2.23,2.23,0,0,1,1.63.71,2.27,2.27,0,0,1,.57,1.69l-2.79,31.6A2.21,2.21,0,0,1,123.36,587.1Zm-40.59-4.41h38.57l2.4-27.19H85.17Z" transform="translate(479.97 624.29)"/><path class="cls-2" d="M379.7,587.1H138.24a2.23,2.23,0,0,1-1.62-.71,2.19,2.19,0,0,1-.57-1.69l2.79-31.6a2.2,2.2,0,0,1,2.19-2H382.49a2.23,2.23,0,0,1,1.63.71,2.27,2.27,0,0,1,.57,1.69l-2.79,31.6A2.21,2.21,0,0,1,379.7,587.1Zm-239-4.41h237l2.4-27.19h-237Z" transform="translate(479.97 624.29)"/><path class="cls-2" d="M117.79,637.77h-43a2.21,2.21,0,0,1-2.2-2.4l2.79-31.6a2.2,2.2,0,0,1,2.2-2h43a2.2,2.2,0,0,1,2.19,2.4L120,635.76A2.2,2.2,0,0,1,117.79,637.77ZM77.2,633.36h38.57l2.4-27.19H79.6Z" transform="translate(479.97 624.29)"/><path class="cls-2" d="M374.13,637.77H132.67a2.23,2.23,0,0,1-1.63-.71,2.27,2.27,0,0,1-.57-1.69l2.79-31.6a2.21,2.21,0,0,1,2.2-2H376.92a2.23,2.23,0,0,1,1.62.71,2.19,2.19,0,0,1,.57,1.69l-2.79,31.6A2.2,2.2,0,0,1,374.13,637.77Zm-239-4.41h237l2.41-27.19h-237Z" transform="translate(479.97 624.29)"/><path class="cls-2" d="M112.26,687.9h-43a2.21,2.21,0,0,1-2.19-2.4l2.78-31.6a2.22,2.22,0,0,1,2.2-2h43a2.21,2.21,0,0,1,2.2,2.4l-2.79,31.61A2.22,2.22,0,0,1,112.26,687.9Zm-40.59-4.41h38.57l2.4-27.19H74.07Z" transform="translate(479.97 624.29)"/><path class="cls-2" d="M368.6,687.9H127.15a2.21,2.21,0,0,1-2.2-2.4l2.79-31.6a2.2,2.2,0,0,1,2.19-2H371.39a2.19,2.19,0,0,1,1.63.71,2.27,2.27,0,0,1,.57,1.69l-2.79,31.6A2.22,2.22,0,0,1,368.6,687.9Zm-239-4.41h237L369,656.3H132Z" transform="translate(479.97 624.29)"/><path class="cls-2" d="M109.09,736.39h-43a2.21,2.21,0,0,1-2.2-2.4l2.79-31.6a2.21,2.21,0,0,1,2.2-2h43a2.21,2.21,0,0,1,2.19,2.4l-2.79,31.61A2.21,2.21,0,0,1,109.09,736.39ZM68.5,732h38.56l2.41-27.19H70.9Z" transform="translate(479.97 624.29)"/><path class="cls-2" d="M365.42,736.39H124a2.2,2.2,0,0,1-1.63-.72,2.23,2.23,0,0,1-.57-1.68l2.79-31.6a2.21,2.21,0,0,1,2.2-2H368.21a2.23,2.23,0,0,1,1.63.71,2.19,2.19,0,0,1,.57,1.69l-2.79,31.6A2.2,2.2,0,0,1,365.42,736.39Zm-239-4.41h237l2.41-27.19h-237Z" transform="translate(479.97 624.29)"/><path class="cls-2" d="M103.56,786.52h-43a2.21,2.21,0,0,1-2.19-2.4l2.78-31.61a2.21,2.21,0,0,1,2.2-2h43a2.2,2.2,0,0,1,1.63.72,2.23,2.23,0,0,1,.57,1.68l-2.79,31.6A2.22,2.22,0,0,1,103.56,786.52ZM63,782.1h38.57l2.4-27.19H65.37Z" transform="translate(479.97 624.29)"/><path class="cls-2" d="M359.9,786.52H118.44a2.21,2.21,0,0,1-2.19-2.4l2.79-31.6a2.21,2.21,0,0,1,2.19-2H362.69a2.2,2.2,0,0,1,1.63.72,2.26,2.26,0,0,1,.57,1.68l-2.79,31.6A2.22,2.22,0,0,1,359.9,786.52Zm-239-4.42h237l2.4-27.18h-237Z" transform="translate(479.97 624.29)"/><path class="cls-2" d="M471.91,586.37h-43a2.21,2.21,0,0,1-2.2-2.4l2.79-31.61a2.2,2.2,0,0,1,2.2-2h43a2.21,2.21,0,0,1,2.19,2.4l-2.79,31.6A2.21,2.21,0,0,1,471.91,586.37ZM431.32,582h38.57l2.4-27.19H433.72Z" transform="translate(479.97 624.29)"/><path class="cls-2" d="M728.25,586.37H486.79a2.2,2.2,0,0,1-1.63-.72,2.26,2.26,0,0,1-.57-1.68l2.79-31.6a2.22,2.22,0,0,1,2.2-2H731a2.21,2.21,0,0,1,2.19,2.4l-2.79,31.61A2.21,2.21,0,0,1,728.25,586.37ZM489.2,582h237l2.41-27.19h-237Z" transform="translate(479.97 624.29)"/><path class="cls-2" d="M466.33,637h-43a2.2,2.2,0,0,1-1.63-.72,2.18,2.18,0,0,1-.57-1.68L423.93,603a2.21,2.21,0,0,1,2.19-2h43a2.21,2.21,0,0,1,2.2,2.4L468.53,635A2.21,2.21,0,0,1,466.33,637Zm-40.59-4.42h38.57l2.4-27.19H428.14Z" transform="translate(479.97 624.29)"/><path class="cls-2" d="M722.67,637H481.22a2.21,2.21,0,0,1-2.2-2.4l2.79-31.6a2.21,2.21,0,0,1,2.2-2H725.46a2.21,2.21,0,0,1,2.2,2.4L724.87,635A2.21,2.21,0,0,1,722.67,637Zm-239-4.41h237l2.4-27.19H486Z" transform="translate(479.97 624.29)"/><path class="cls-2" d="M460.81,687.16h-43a2.23,2.23,0,0,1-1.63-.71,2.27,2.27,0,0,1-.57-1.69l2.79-31.6a2.2,2.2,0,0,1,2.2-2h43a2.17,2.17,0,0,1,1.62.72,2.2,2.2,0,0,1,.58,1.68L463,685.15A2.21,2.21,0,0,1,460.81,687.16Zm-40.59-4.41h38.57l2.4-27.19H422.62Z" transform="translate(479.97 624.29)"/><path class="cls-2" d="M717.15,687.16H475.69a2.2,2.2,0,0,1-2.19-2.39l2.78-31.61a2.21,2.21,0,0,1,2.2-2H719.94a2.18,2.18,0,0,1,1.62.72,2.16,2.16,0,0,1,.57,1.68l-2.79,31.6A2.2,2.2,0,0,1,717.15,687.16Zm-239-4.41h237l2.4-27.19h-237Z" transform="translate(479.97 624.29)"/><path class="cls-2" d="M457.63,735.65h-43a2.2,2.2,0,0,1-2.19-2.4l2.79-31.6a2.2,2.2,0,0,1,2.19-2h43a2.21,2.21,0,0,1,2.2,2.4l-2.79,31.6A2.2,2.2,0,0,1,457.63,735.65ZM417,731.24h38.57l2.4-27.19H419.44Z" transform="translate(479.97 624.29)"/><path class="cls-2" d="M714,735.66H472.52a2.21,2.21,0,0,1-2.2-2.4l2.79-31.61a2.21,2.21,0,0,1,2.2-2H716.76A2.21,2.21,0,0,1,719,702l-2.79,31.6A2.21,2.21,0,0,1,714,735.66Zm-239-4.42H712l2.4-27.19h-237Z" transform="translate(479.97 624.29)"/><path class="cls-2" d="M452.11,785.78h-43a2.2,2.2,0,0,1-2.2-2.4l2.79-31.6a2.2,2.2,0,0,1,2.2-2h43a2.2,2.2,0,0,1,2.19,2.4l-2.79,31.6A2.2,2.2,0,0,1,452.11,785.78Zm-40.59-4.41h38.57l2.4-27.19H413.92Z" transform="translate(479.97 624.29)"/><path class="cls-2" d="M708.45,785.78H467a2.23,2.23,0,0,1-1.63-.71,2.27,2.27,0,0,1-.57-1.69l2.79-31.6a2.21,2.21,0,0,1,2.2-2H711.24a2.23,2.23,0,0,1,1.62.71,2.19,2.19,0,0,1,.57,1.69l-2.79,31.6A2.2,2.2,0,0,1,708.45,785.78ZM469.4,781.37h237l2.41-27.19h-237Z" transform="translate(479.97 624.29)"/><path class="cls-2" d="M728.15-233.48h-496c-20.22,0-35.21-17.87-33.49-39.91l4.53-57.82c3.93-50.19,44.45-90.89,90.5-90.89H696.14c46.06,0,80.21,40.7,76.28,90.89l-4.53,57.82C766.17-251.35,748.37-233.48,728.15-233.48Z" transform="translate(479.97 624.29)"/><path class="cls-2" d="M728.15-231.27h-496a34.39,34.39,0,0,1-25.5-11.16c-7.4-8-11.11-19.34-10.19-31.13L201-331.38c4-51.24,45.6-92.92,92.7-92.92H696.14a75.5,75.5,0,0,1,56,24.51c16.31,17.64,24.5,42.7,22.46,68.76l-4.53,57.82C768.28-250.09,749.47-231.27,728.15-231.27ZM293.73-419.89c-44.85,0-84.47,39.86-88.3,88.86l-4.53,57.82c-.82,10.56,2.47,20.68,9,27.78a30,30,0,0,0,22.26,9.74h496c19.07,0,35.91-17,37.54-37.87l4.53-57.82c1.94-24.84-5.82-48.68-21.3-65.41a71.11,71.11,0,0,0-52.78-23.1Z" transform="translate(479.97 624.29)"/><path class="cls-1" d="M715.83-233.48h-496c-20.22,0-35.21-17.87-33.48-39.91l4.52-57.82c3.93-50.19,44.45-90.89,90.51-90.89H683.82c46,0,80.2,40.7,76.27,90.89l-4.53,57.82C753.84-251.35,736.05-233.48,715.83-233.48Z" transform="translate(479.97 624.29)"/><path class="cls-2" d="M715.83-231.27h-496a34.41,34.41,0,0,1-25.51-11.16c-7.39-8-11.11-19.34-10.18-31.13l4.52-57.82c4-51.24,45.6-92.92,92.71-92.92H683.82a75.48,75.48,0,0,1,56,24.51c16.31,17.63,24.5,42.7,22.46,68.76l-4.53,57.82C756-250.09,737.14-231.27,715.83-231.27ZM281.41-419.89c-44.86,0-84.47,39.86-88.31,88.86l-4.53,57.82c-.82,10.56,2.47,20.69,9,27.78a30,30,0,0,0,22.27,9.74h496c19.06,0,35.9-17,37.53-37.87l4.53-57.82c1.94-24.84-5.82-48.68-21.29-65.41a71.14,71.14,0,0,0-52.78-23.1Z" transform="translate(479.97 624.29)"/><path class="cls-2" d="M506.24-622.08c-51.81,0-97.4,45.79-101.82,102.26L391.93-360.35c-1.41,18,10.83,32.56,27.33,32.56H547.15c16.5,0,31-14.58,32.43-32.56l12.48-159.47C596.48-576.29,558.06-622.08,506.24-622.08Zm-8.71,111.35c-16.12,0-28.08-14.24-26.7-31.81s15.56-31.82,31.68-31.82,28.07,14.25,26.7,31.82S513.65-510.73,497.53-510.73Z" transform="translate(479.97 624.29)"/><path class="cls-2" d="M547.15-325.58H419.26a28.44,28.44,0,0,1-21.11-9.24,33.91,33.91,0,0,1-8.42-25.7L402.22-520c4.5-57.51,51.16-104.3,104-104.3a84.71,84.71,0,0,1,62.83,27.5c18.3,19.78,27.48,47.9,25.19,77.15L581.78-360.18C580.28-341.1,564.75-325.58,547.15-325.58ZM506.24-619.87c-50.61,0-95.3,45-99.63,100.23L394.13-360.18c-.66,8.51,2,16.66,7.26,22.36A24.07,24.07,0,0,0,419.26-330H547.15c15.35,0,28.91-13.7,30.23-30.53L589.86-520c2.19-28-6.57-54.92-24-73.81A80.34,80.34,0,0,0,506.24-619.87Zm-8.71,111.35a27.85,27.85,0,0,1-20.67-9,33.16,33.16,0,0,1-8.23-25.15c1.46-18.67,16.65-33.85,33.88-33.85a27.85,27.85,0,0,1,20.66,9,33.13,33.13,0,0,1,8.23,25.15C529.94-523.71,514.75-508.52,497.53-508.52Zm5-63.63c-15,0-28.2,13.36-29.48,29.78a28.75,28.75,0,0,0,7.07,21.81,23.5,23.5,0,0,0,17.43,7.63c15,0,28.19-13.36,29.47-29.78a28.71,28.71,0,0,0-7.07-21.82A23.5,23.5,0,0,0,502.51-572.15Z" transform="translate(479.97 624.29)"/><path class="cls-1" d="M498.27-622.08c-51.82,0-97.41,45.79-101.83,102.26L384-360.35c-1.41,18,10.82,32.56,27.32,32.56H539.17c16.5,0,31-14.58,32.43-32.56l12.48-159.47C588.5-576.29,550.08-622.08,498.27-622.08Zm-8.72,111.35c-16.12,0-28.08-14.24-26.7-31.81s15.56-31.82,31.68-31.82,28.07,14.25,26.7,31.82S505.67-510.73,489.55-510.73Z" transform="translate(479.97 624.29)"/><path class="cls-2" d="M539.17-325.58H411.28a28.46,28.46,0,0,1-21.11-9.24,33.86,33.86,0,0,1-8.41-25.7L394.24-520c4.5-57.51,51.16-104.3,104-104.3a84.69,84.69,0,0,1,62.83,27.5c18.3,19.78,27.48,47.9,25.19,77.15L573.8-360.18C572.31-341.1,556.77-325.58,539.17-325.58ZM498.26-619.87c-50.6,0-95.3,45-99.62,100.23L386.16-360.18c-.67,8.51,2,16.66,7.25,22.36A24.07,24.07,0,0,0,411.28-330H539.17c15.35,0,28.91-13.7,30.23-30.53L581.88-520c2.2-28-6.56-54.92-24-73.81A80.34,80.34,0,0,0,498.26-619.87Zm-8.71,111.35a27.85,27.85,0,0,1-20.66-9,33.2,33.2,0,0,1-8.24-25.15c1.46-18.67,16.66-33.85,33.88-33.85a27.85,27.85,0,0,1,20.66,9c6,6.46,9,15.63,8.24,25.15C522-523.71,506.77-508.52,489.55-508.52Zm5-63.63c-15,0-28.2,13.36-29.48,29.78a28.75,28.75,0,0,0,7.07,21.81,23.5,23.5,0,0,0,17.43,7.63c15,0,28.19-13.36,29.48-29.78A28.76,28.76,0,0,0,512-564.53,23.49,23.49,0,0,0,494.53-572.15Z" transform="translate(479.97 624.29)"/><path class="cls-2" d="M-295,768.27a2.22,2.22,0,0,1-1.82-1C-347.88,693-413.11,573.76-433.59,427.37a2.2,2.2,0,0,1,1.88-2.49,2.2,2.2,0,0,1,2.49,1.88c20.36,145.53,85.24,264.16,136.08,338a2.21,2.21,0,0,1-.57,3.07A2.22,2.22,0,0,1-295,768.27Z" transform="translate(479.97 624.29)"/><path class="cls-2" d="M-349.85,763.93a2.23,2.23,0,0,1-1.75-.86c-.71-.92-71.41-93.72-95.64-218.88a2.2,2.2,0,0,1,1.75-2.58,2.2,2.2,0,0,1,2.58,1.75c24,124.09,94.1,216.1,94.81,217a2.21,2.21,0,0,1-.4,3.09A2.23,2.23,0,0,1-349.85,763.93Z" transform="translate(479.97 624.29)"/><path class="cls-2" d="M1060.71-440a16.9,16.9,0,0,1-8-2,17.29,17.29,0,0,1-8.44-10.48,17.75,17.75,0,0,1,11.63-21.92,16.87,16.87,0,0,1,13.09,1.27,17.3,17.3,0,0,1,8.45,10.48,17.76,17.76,0,0,1-11.63,21.93A17.19,17.19,0,0,1,1060.71-440Zm4.4-2.88h0Zm-4.22-27.93a12.67,12.67,0,0,0-3.74.57,13.32,13.32,0,0,0-8.7,16.47,13,13,0,0,0,6.3,7.84,12.54,12.54,0,0,0,9.71.94,13.33,13.33,0,0,0,8.7-16.47,13,13,0,0,0-6.31-7.83A12.46,12.46,0,0,0,1060.89-470.79Z" transform="translate(479.97 624.29)"/><path class="cls-2" d="M966.05-504a2.2,2.2,0,0,1-2.2-2.2,2.2,2.2,0,0,1,2.2-2.21h12.16a2.2,2.2,0,0,1,2.21,2.2,2.21,2.21,0,0,1-2.21,2.21Z" transform="translate(479.97 624.29)"/><path class="cls-2" d="M1008.6-504a2.21,2.21,0,0,1-2.21-2.21,2.21,2.21,0,0,1,2.21-2.21h12.16a2.2,2.2,0,0,1,2.2,2.2,2.21,2.21,0,0,1-2.2,2.21Z" transform="translate(479.97 624.29)"/><path class="cls-2" d="M993.39-476.63a2.2,2.2,0,0,1-2.2-2.2V-491a2.21,2.21,0,0,1,2.21-2.21,2.2,2.2,0,0,1,2.2,2.21v12.16A2.2,2.2,0,0,1,993.39-476.63Z" transform="translate(479.97 624.29)"/><path class="cls-2" d="M1473.38,88.54h0a2.2,2.2,0,0,1,2.2,2.2v12.16a2.21,2.21,0,0,1-2.21,2.21h0a2.2,2.2,0,0,1-2.2-2.2V90.75a2.21,2.21,0,0,1,2.21-2.21Z"/><polygon class="cls-1" points="1675.6 1620.22 1687.38 1702.96 1717.54 1703.07 1718.96 1621.7 1675.6 1620.22"/><path class="cls-2" d="M1237.56,1081h0l-30.16-.11a2.21,2.21,0,0,1-2.17-1.9l-11.79-82.74a2.19,2.19,0,0,1,.55-1.78,2.22,2.22,0,0,1,1.71-.73l43.36,1.48a2.21,2.21,0,0,1,2.13,2.24l-1.42,81.37A2.2,2.2,0,0,1,1237.56,1081Zm-28.23-4.52,26.07.1,1.34-77-38.56-1.31Z" transform="translate(479.97 624.29)"/><path class="cls-1" d="M1206.39,1157.77c11.83,1.27,29.45,1.77,53-.3a14.54,14.54,0,0,0,13-16.88c-3.65-22.46-13.86-62.07-29.94-80.25l-8,11.33-4.71-11.7c-.76-1.27-20.74-2.1-21.16.27l-1.22,11.43L1196.07,1059l.62,41.75a63.33,63.33,0,0,1-1.3,13.73l-3,14.43a27.48,27.48,0,0,0,6.49,24.35C1201.28,1155.74,1203.91,1157.51,1206.39,1157.77Z" transform="translate(479.97 624.29)"/><path class="cls-2" d="M1229.3,1161.08a216.67,216.67,0,0,1-23.14-1.12c-2.87-.3-5.94-2.12-8.87-5.24a29.64,29.64,0,0,1-7-26.31l3-14.43a61.48,61.48,0,0,0,1.26-13.25l-.63-41.74a2.21,2.21,0,0,1,3.85-1.51l8,9,.68-6.47c.41-2.32,3-2.8,4-3,2.92-.53,19.47-1.15,21.24,1.81.06.1.11.21.16.31l3.19,7.93,5.62-8a2.17,2.17,0,0,1,1.68-.94,2.26,2.26,0,0,1,1.77.74c20.52,23.19,29.51,75.47,30.47,81.35a17,17,0,0,1-3.33,13.08,16.46,16.46,0,0,1-11.66,6.36C1247.83,1160.7,1237.75,1161.08,1229.3,1161.08Zm-30.94-96.24.54,35.83a65.23,65.23,0,0,1-1.35,14.2l-3,14.43a25.22,25.22,0,0,0,5.94,22.4c2.17,2.31,4.34,3.69,6.12,3.88,10.09,1.08,27.4,1.91,52.57-.31a12.09,12.09,0,0,0,8.56-4.67,12.51,12.51,0,0,0,2.45-9.66c-3.27-20.09-12.66-58-27.61-77l-6.29,9a2.24,2.24,0,0,1-2.06.93,2.2,2.2,0,0,1-1.79-1.37l-4.38-10.87c-3.19-.75-14.29-1-17.37-.17l-1.1,10.45a2.21,2.21,0,0,1-1.52,1.87,2.19,2.19,0,0,1-2.32-.64Z" transform="translate(479.97 624.29)"/><path class="cls-2" d="M1227.94,1146.32a118.26,118.26,0,0,1-21.69-1.7,2.21,2.21,0,0,1,.87-4.33c.21,0,21.06,4.13,50.2-1a2.2,2.2,0,0,1,.76,4.34A174.87,174.87,0,0,1,1227.94,1146.32Z" transform="translate(479.97 624.29)"/><path class="cls-2" d="M1245.67,1114.59h-27.36a2.21,2.21,0,0,1,0-4.41h27.36a2.21,2.21,0,1,1,0,4.41Z" transform="translate(479.97 624.29)"/><polygon class="cls-1" points="1459.17 1627.61 1448.56 1724.04 1408 1732.53 1410.47 1619.46 1459.17 1627.61"/><path class="cls-2" d="M928,1110.45a2.21,2.21,0,0,1-2.21-2.25l2.47-113.08a2.24,2.24,0,0,1,.8-1.65,2.18,2.18,0,0,1,1.77-.47l48.71,8.14a2.23,2.23,0,0,1,1.83,2.42L970.78,1100a2.19,2.19,0,0,1-1.74,1.92l-40.56,8.5A2.28,2.28,0,0,1,928,1110.45Zm4.62-112.68-2.35,107.75,36.27-7.6,10.21-92.77Z" transform="translate(479.97 624.29)"/><path class="cls-1" d="M985.75,1145.74c.89-16.9.91-48-9.38-63l-32.45,11.55v-6.93a4,4,0,0,0-3.62-4.19l-18.1-1a39.35,39.35,0,0,0-19.65,4.05c-18.2,8.94-73.55,31.88-81.22,57.68-2.26,7.61,3.69,15.22,11.62,15.44,18.22.53,62,1.1,140.61-1.59A12.63,12.63,0,0,0,985.75,1145.74Z" transform="translate(479.97 624.29)"/><path class="cls-2" d="M869.26,1161.93c-16.66,0-28.56-.22-36.37-.44a14.85,14.85,0,0,1-11.54-6.12,13.84,13.84,0,0,1-2.13-12.16c7-23.65,50.85-44.21,74.4-55.25,3.08-1.45,5.78-2.72,8-3.78a41.65,41.65,0,0,1,20.76-4.27l18.09,1a6.25,6.25,0,0,1,5.71,6.39v3.81l29.5-10.51a2.2,2.2,0,0,1,2.56.83c10.63,15.5,10.68,47,9.76,64.38a14.76,14.76,0,0,1-14.31,14.05C927.54,1161.47,893.41,1161.93,869.26,1161.93ZM920,1084.26a37.36,37.36,0,0,0-16.5,3.88c-2.19,1.07-4.92,2.35-8,3.81-21.28,10-65.57,30.76-72,52.52a9.5,9.5,0,0,0,1.48,8.32,10.43,10.43,0,0,0,8.09,4.29c19.09.55,62.71,1.06,140.48-1.59a10.37,10.37,0,0,0,10-9.87c.87-16.3.9-45.32-8.08-60.24l-30.8,11a2.21,2.21,0,0,1-2-.27,2.24,2.24,0,0,1-.93-1.81v-6.93a1.88,1.88,0,0,0-1.55-2l-18.1-1C921.39,1084.28,920.7,1084.26,920,1084.26Z" transform="translate(479.97 624.29)"/><path class="cls-2" d="M891.88,1118.31a2.21,2.21,0,0,1-1.29-4l31.24-22.47a2.2,2.2,0,1,1,2.57,3.58l-31.23,22.47A2.21,2.21,0,0,1,891.88,1118.31Z" transform="translate(479.97 624.29)"/><path class="cls-2" d="M973.6,337.15s-65.2,439.34-52.81,705.56l18.14,1.82a195.82,195.82,0,0,0,29.36.72l17.21-.86c77.3-450.83,96.9-472.12,111.94-521.79,0,0,86.18,409.86,89.8,507.29,0,0,41.86,4.21,58.54-1.8,9-94,11.55-191.36,12-252.46,1.29-174.87-15.43-254.31-24.59-292-8.41-34.61-17.44-62.73-24-81.75l-22-62.8Z" transform="translate(479.97 624.29)"/><path class="cls-1" d="M1097.35,538.82a2.21,2.21,0,0,1-2.16-1.79l-9.58-49.22a23.8,23.8,0,0,0-18.2-16.93l-9.05-1.87a2.21,2.21,0,1,1,.89-4.32l9,1.87a28.21,28.21,0,0,1,21.6,20.25l9.62,49.38a2.22,2.22,0,0,1-1.74,2.59A3.28,3.28,0,0,1,1097.35,538.82Z" transform="translate(479.97 624.29)"/><path class="cls-1" d="M1212.25,459.22l-.36,0c-42.23-7-57.84-34.67-62.59-46.23a2.21,2.21,0,0,1,4.08-1.68c4.47,10.87,19.19,36.88,59.23,43.56a2.21,2.21,0,0,1-.36,4.38Z" transform="translate(479.97 624.29)"/><path class="cls-1" d="M974.25,433a2.21,2.21,0,0,1-.88-4.23c28.76-12.49,32.13-38.23,32.16-38.49a2.21,2.21,0,1,1,4.38.52c-.14,1.15-3.72,28.53-34.78,42A2.15,2.15,0,0,1,974.25,433Z" transform="translate(479.97 624.29)"/><path class="cls-3" d="M1025.87-21.81c38.69.9,121.08,4.29,176.33,17,16.68,3.85,39.65,17.49,51,30.32,33.38,37.81,95,119.45,95.1,207.36a24.65,24.65,0,0,1-22.63,24.58l-67.94,5.62s12.16,107.2,7.6,124.8-63.19,40.63-127.92,6.36c-50.47-26.73-115-56.48-165-46.19-.48.1-5.46,38.92-5.94,38.93-15.63.14-43.42-6.69-40.12-28.19l22.53-110.9L863,224.46l-7.45-3.66a43.84,43.84,0,0,1-18.93-60.74C864.31,110.6,906.82,30.22,970.58-8.69,984.21-17,1009.9-22.18,1025.87-21.81Z" transform="translate(479.97 624.29)"/><path class="cls-2" d="M1205.4,414.22c-20.51,0-44.35-4.94-69-18C1086.43,369.77,1023,340.72,974.21,350c-.52,3-1.64,11-2.57,17.58-3,21.64-3,21.64-5.18,21.66-9.56.08-28.25-2.61-37.47-13.26a20.7,20.7,0,0,1-4.85-17.46l22.14-109-83.83-22.92a2.62,2.62,0,0,1-.39-.15l-7.45-3.67A46,46,0,0,1,834.72,159l4.31-7.72c27.62-49.62,69.37-124.59,130.4-161.83,14.39-8.78,40.56-13.8,56.49-13.45,42.65,1,122.34,4.54,176.78,17.1,17.15,4,40.54,17.87,52.14,31,35.66,40.39,95.5,121.23,95.66,208.82a27,27,0,0,1-24.66,26.77l-65.68,5.44c1.78,16,11.59,106.78,7.3,123.35-1.65,6.36-8.92,12.8-19.93,17.65S1222.09,414.22,1205.4,414.22ZM993.81,343.81c46.38,0,100.68,25.24,144.63,48.51,43.37,23,83.87,20.1,107.31,9.77,9.48-4.19,16.17-9.83,17.44-14.73,4.4-17-7.54-122.94-7.66-124a2.21,2.21,0,0,1,.48-1.64,2.18,2.18,0,0,1,1.53-.8l67.94-5.62a22.57,22.57,0,0,0,20.61-22.37c-.16-86.14-59.31-166-94.56-205.91-11.08-12.56-33.44-25.85-49.82-29.63-54.06-12.48-133.41-16-175.89-17C1010.33-20,985-14.9,971.73-6.8c-60,36.63-101.45,111-128.85,160.2l-4.31,7.73a41.63,41.63,0,0,0,18,57.68l7.27,3.58,85.62,23.41a2.2,2.2,0,0,1,1.58,2.56l-22.54,110.9a16.48,16.48,0,0,0,3.84,13.8c6.76,7.8,21.13,11.47,32.35,11.73.56-3.31,1.67-11.24,2.6-17.85,2.9-20.66,2.9-20.66,4.66-21A108.26,108.26,0,0,1,993.81,343.81Z" transform="translate(479.97 624.29)"/><path class="cls-2" d="M1018.62,328,882.05,309.32a13,13,0,0,1-11.19-11.51l-21.27-197a13,13,0,0,1,14.72-14.31l136.57,18.63a13,13,0,0,1,11.19,11.51l21.27,197A13,13,0,0,1,1018.62,328Z" transform="translate(479.97 624.29)"/><path class="cls-1" d="M860.71,185.24l2,19.85,17.26-3.25a129.37,129.37,0,0,0,27.68-8.49l10.25-4.45a13.13,13.13,0,0,1,18.07,9.46c3.58,17.37-1.36,45-63.21,54.32-34.14,5.15-37.8-38.19-30.37-61a19.83,19.83,0,0,1,8.7-11.24A6.41,6.41,0,0,1,860.71,185.24Z" transform="translate(479.97 624.29)"/><path class="cls-2" d="M867.42,255.29c-8.48,0-15.6-3.16-20.8-9.3-11-13-11.86-38.13-6.36-55a21.9,21.9,0,0,1,9.66-12.45,8.61,8.61,0,0,1,13,6.41v0l1.73,17.46,14.9-2.8a128.28,128.28,0,0,0,27.2-8.35L917,186.88a15.33,15.33,0,0,1,21.11,11c2.24,10.85.33,21-5.51,29.39-9.61,13.78-29.64,23-59.53,27.56A38.09,38.09,0,0,1,867.42,255.29Zm-13.09-73.53a4.21,4.21,0,0,0-2.15.6,17.71,17.71,0,0,0-7.73,10c-5.12,15.68-4.45,38.94,5.54,50.74,5.35,6.32,12.89,8.79,22.4,7.35,28.65-4.32,47.68-13,56.57-25.72,5.2-7.46,6.82-16.2,4.81-26a10.94,10.94,0,0,0-5.7-7.55,10.79,10.79,0,0,0-9.33-.32l-10.25,4.45A132,132,0,0,1,880.34,204l-17.26,3.25a2.21,2.21,0,0,1-2.6-1.95l-2-19.83a4.21,4.21,0,0,0-4.18-3.72Z" transform="translate(479.97 624.29)"/><path class="cls-1" d="M1191.6,118a105.68,105.68,0,0,0,20.67,21c26.45,20.24,89.55,69.11,104.6,86,19.18,21.51,28.62,29.84,4.67,75.17-39,73.9-144.42-143.84-144.42-143.84s-39.91,1.73-44-33.6c0,0-20.82,1-28.78-3.78-6.11-3.69-4.32-14.66,4.5-14.69l57.45-2.81a23.88,23.88,0,0,1,20.17,9.64Z" transform="translate(479.97 624.29)"/><path class="cls-2" d="M1300.89,317.68h-.41c-45.89-.81-116.9-143.13-124.74-159.15-7.33-.13-39.61-2.49-44.54-33.52-5.56.13-21,.07-28-4.17a10.16,10.16,0,0,1-4.27-11.45,9.88,9.88,0,0,1,9.91-7.34l57.34-2.8a26.06,26.06,0,0,1,22,10.52l5.15,6.94a103.39,103.39,0,0,0,20.23,20.55c26.49,20.27,89.73,69.25,104.91,86.27l1.69,1.89c18.13,20.28,27.23,30.45,3.28,75.78C1317.71,312.14,1310.11,317.68,1300.89,317.68ZM1177.12,154.12a2.2,2.2,0,0,1,2,1.24c.76,1.58,76.55,157.11,121.45,157.91,7.81.15,14-4.49,19-14.13,22.52-42.62,15.15-50.86-2.67-70.78l-1.69-1.89c-14.93-16.74-77.91-65.52-104.3-85.71a107.87,107.87,0,0,1-21.1-21.42l-5.14-6.94a21.68,21.68,0,0,0-18.31-8.74l-57.43,2.8a5.54,5.54,0,0,0-5.77,4.11,5.78,5.78,0,0,0,2.3,6.5c6.06,3.67,21.93,3.74,27.53,3.46a2.24,2.24,0,0,1,2.3,2c3.81,32.91,40.16,31.71,41.71,31.64Z" transform="translate(479.97 624.29)"/><path class="cls-1" d="M1048.79-8.89s14.69-6.9,11.2-30.77a.4.4,0,0,1,.12-.26l-9.46-54.92,58.25-15.06,11.2,60.35c2.87,15.48,13.23,28.74,27.84,34.42a87.68,87.68,0,0,0,12.71,3.81c5,1.11-2.65,12.52-18.09,16.93-37.36,10.67-64.5,7.63-91.94-.82C1042.67,2.34,1041.5-5,1048.79-8.89Z" transform="translate(479.97 624.29)"/><path class="cls-2" d="M1097,14.68c-18.17,0-33.26-3.53-47.07-7.78-4.76-1.47-7.83-4.61-8.2-8.42-.36-3.62,1.87-7.1,6-9.31l.1-.05c.58-.28,13.15-6.68,10-28.47a2,2,0,0,1,0-.81l-9.36-54.3A2.2,2.2,0,0,1,1050.1-97L1108.35-112a2.27,2.27,0,0,1,1.74.28,2.19,2.19,0,0,1,1,1.46l11.2,60.35c2.77,14.93,12.91,27.49,26.47,32.77a86.72,86.72,0,0,0,12.39,3.71,4,4,0,0,1,3.24,3.85c.15,5.3-8.52,13.73-21.21,17.35C1125.62,12.75,1110.49,14.68,1097,14.68Zm-47.25-21.6c-2.49,1.35-3.81,3.16-3.63,5s2.15,3.72,5.11,4.63c23.38,7.2,50.55,12.28,90.68.81C1153.45.21,1159.6-7,1160-9.21a90.63,90.63,0,0,1-12.81-3.86c-15-5.83-26.16-19.65-29.21-36.08l-10.76-58-54,14,9.11,52.92a2.23,2.23,0,0,1,0,.89C1065.53-15.22,1051.07-7.55,1049.79-6.92ZM1062.16-40l0,.09Z" transform="translate(479.97 624.29)"/><path class="cls-2" d="M1049.8-219.49c23.47-.16,30.34,25.51,58.29,24.64,12.8-.4,18.46-6,30.4-2.22,7.91,2.51,19.9,9.57,22.63,20.79,3.47,14.29-11.89,19.68-24,49.88-8.53,21.21-7.35,34.42-16.16,37.13s-14.8-9.34-24.77-7.08c-12.89,2.92-11.46,25-24.29,33.54-8.08,5.35-26.38,7.1-54.79-8.54a10.94,10.94,0,0,1-5.12-13c2.11-6.41,4.81-14.5,8-22,15.4-35.78,28.8-43.37,24.56-53-6.51-14.85-34.32-7.94-38.27-20.06C1002.17-192.06,1025.71-219.33,1049.8-219.49Z" transform="translate(479.97 624.29)"/><path class="cls-1" d="M1096.79-157.66l-6.58-2.32s-13.89,44.49-20.13,56.27-44-4.92-44-4.92l-2-7.57-4.54-2.12a5.14,5.14,0,0,1-2.82-3.44,5.19,5.19,0,0,1,.88-4.36c7.18-9.54,22.24-31,28.24-50.67A56.51,56.51,0,0,1,1096.79-157.66Z" transform="translate(479.97 624.29)"/><path class="cls-2" d="M1098.62-156.42c-1.27-.1-2.76-.08-4.42-.28a22.51,22.51,0,0,1-4.74-1.15l2.92-1.46c-2.66,8.51-5.33,17-8.22,25.43s-5.83,16.83-9.25,25.17c-.9,2.1-1.78,4.12-2.92,6.3a8.89,8.89,0,0,1-3.1,3.17,12.45,12.45,0,0,1-3.77,1.49c-5,1.06-9.68.33-14.18-.48a135.26,135.26,0,0,1-25.8-8.37,2.14,2.14,0,0,1-1.24-1.45v0c-.63-2.53-1.33-5-1.9-7.58l1.18,1.42c-1.34-.69-2.64-1.49-4-2.24a13.21,13.21,0,0,1-1.15-.71,7.62,7.62,0,0,1-1.12-1,7.46,7.46,0,0,1-1.51-2.52,6.82,6.82,0,0,1,.5-5.68,12.84,12.84,0,0,1,.74-1.08l.67-.91,1.33-1.82c3.52-4.85,6.84-9.87,9.94-15,6.16-10.25,11.75-21,15.14-32.24v0a2.09,2.09,0,0,1,1.65-1.46,53.17,53.17,0,0,1,14.83-.31,58.44,58.44,0,0,1,14.32,3.38,58,58,0,0,1,13,6.86,60.67,60.67,0,0,1,5.72,4.64c.93.81,1.76,1.7,2.64,2.56l.33.32c.14.15.33.37.5.58a7.57,7.57,0,0,1,1,1.48A11.56,11.56,0,0,1,1098.62-156.42Zm-3.65-2.47a1.83,1.83,0,0,0-1.54.39c-.13.12-.19.19-.24.18s0,0-.1-.07l-.3-.3c-.83-.79-1.61-1.62-2.49-2.35a54.15,54.15,0,0,0-5.33-4.24,53.67,53.67,0,0,0-12-6.37,55.15,55.15,0,0,0-13.23-3.17,50.84,50.84,0,0,0-13.46.18l1.66-1.51a114.86,114.86,0,0,1-7.2,17c-2.8,5.44-5.88,10.7-9.17,15.82s-6.77,10.1-10.36,15l-1.36,1.83-.69.91a9.5,9.5,0,0,0-.55.78,3.52,3.52,0,0,0-.28,3,3.14,3.14,0,0,0,.9,1.27,3,3,0,0,0,.66.41c.21.1.45.17.85.33,1.42.53,2.86,1,4.25,1.6a2,2,0,0,1,1.14,1.27l0,.15c.73,2.5,1.33,5,2,7.56l-1.25-1.48a130.78,130.78,0,0,0,24.87,8c4.18.77,8.57,1.3,12.28.47a5.69,5.69,0,0,0,3.91-2.48c.91-1.76,1.82-3.81,2.66-5.81,3.3-8.12,6.22-16.51,9.06-24.9s5.66-16.82,8.34-25.27v0a2.26,2.26,0,0,1,2.83-1.46l.08,0a4.18,4.18,0,0,1,1.83,1.18A15.7,15.7,0,0,0,1095-158.89Z" transform="translate(479.97 624.29)"/><path class="cls-1" d="M1088.09-125.32s13.16-21.93,21.83-13.79S1103.5-107.2,1088.09-125.32Z" transform="translate(479.97 624.29)"/><path class="cls-1" d="M833.8,399.55s-36.93-12-38.16-63.58c-.64-26.7-54.49,6.34-54.49,6.34s-9.34,1.55-8.26,28.41c1,24.25-24.57,35.24-24.57,35.24S780.61,456,833.8,399.55Z" transform="translate(479.97 624.29)"/><path class="cls-2" d="M773.28,428.45c-35.69,0-65.74-20.35-66.21-20.67a2.21,2.21,0,0,1,.38-3.84c.24-.11,24.13-10.72,23.23-33.13-1-25.49,7.24-29.84,9.6-30.56,5-3.05,38.18-22.63,51.79-15.23,3.71,2,5.65,5.68,5.78,10.9C799,385.19,833,397,834.49,397.46a2.2,2.2,0,0,1,.91,3.61C815.84,421.82,793.64,428.45,773.28,428.45Zm-60.5-22.29c14.18,8.45,72.46,38.6,117.2-5.84-9.21-4.41-35.51-20.8-36.55-64.3-.08-3.57-1.22-5.9-3.47-7.13-9.88-5.38-37.75,9.22-47.66,15.3a2.42,2.42,0,0,1-.79.29s-7.37,2.24-6.42,26.15C735.89,390.66,720.1,402,712.78,406.16Z" transform="translate(479.97 624.29)"/><path class="cls-1" d="M791.7,350.14S763.82,381,731.78,376c-24.9-3.93-21.54-13.29-23.56-21.11s-13-14.92-6.69-44.85c0,0,2.13-7.33-4.65-15.93-5.41-6.87,1.43-31.43,10-44.58,13.32-20.41,107.1-47,107,16.5C813.75,316.83,793.94,347.38,791.7,350.14Z" transform="translate(479.97 624.29)"/><path class="cls-2" d="M739.06,378.72a48.25,48.25,0,0,1-7.62-.59c-20.83-3.29-23.45-10.28-24.7-19.09a34.25,34.25,0,0,0-.66-3.64,25.12,25.12,0,0,0-2.43-5.31c-3.67-6.76-9.23-17-4.28-40.55.11-.41,1.7-6.6-4.22-14.12-6.52-8.26,1.52-34.3,9.91-47.15,9.39-14.38,54.2-30.59,83.52-21.83,12.57,3.76,27.55,13.67,27.49,39.55-.13,54.33-22.43,85.26-22.66,85.54l-.07.09C792.26,352.81,768.48,378.72,739.06,378.72Zm30.87-150.34c-25.26,0-54.32,11.81-61.18,22.3-8.79,13.46-14.38,36.63-10.13,42,7.4,9.39,5.13,17.58,5,17.92-4.58,21.82.31,30.81,3.88,37.38a28.09,28.09,0,0,1,2.82,6.3,36.3,36.3,0,0,1,.75,4.13c.91,6.33,1.76,12.31,21,15.35,29.87,4.71,56.52-23.58,57.88-25,.84-1.16,21.53-30.69,21.65-82.74,0-18.59-8.15-30.48-24.34-35.31A61.14,61.14,0,0,0,769.93,228.38ZM791.7,350.14h0Z" transform="translate(479.97 624.29)"/><path class="cls-2" d="M791.39,328a2.21,2.21,0,0,1-.53-4.35c4.34-1.08,9.11-5.7,12.44-12.08,4.09-7.82,2.86-14.44,2.84-14.5a2.21,2.21,0,1,1,4.33-.85c.07.33,1.55,8.22-3.26,17.4-4,7.57-9.67,12.92-15.28,14.31A2,2,0,0,1,791.39,328Z" transform="translate(479.97 624.29)"/><path class="cls-2" d="M703.88,242.5c19-11.75,28.37-32.63,58.47-36.92,16.92-2.41,27.77,2.36,34.45,6.15,1.73,1,4.17-12.56,5.65-10.3,2.88,4.42,6.48,22.72,6.48,22.72l19.44-5.68-9.65,14.35s14.13,28-2.6,68.58a55.35,55.35,0,0,1-6.79,12.39,2.66,2.66,0,0,1-4.68-2.4c3.19-9.6,2-20.89-7.74-23.63-11.36-3.22-14.63,6.62-15.93,12.87-.75,3.57.41,5.68-2.31,7.36,0,0-4.72,2.53-6.86-1.6-3.17-6.13-9.06-17.34-25.38-26.85-22.85-13.33-39.16-.3-52.16-10.05C681.78,260.13,687.6,252.57,703.88,242.5Z" transform="translate(479.97 624.29)"/><path class="cls-1" d="M815.57,853.94S798.27,910,810,938.47c15.71,38.31,16.68,172.06,16.68,172.06l29.58,5.48s52-163.81,41.44-229.31S815.57,853.94,815.57,853.94Z" transform="translate(479.97 624.29)"/><path class="cls-2" d="M856.21,1118.21l-.4,0-29.59-5.48a2.2,2.2,0,0,1-1.8-2.15c0-1.34-1.14-133.77-16.51-171.24-11.84-28.87,4.83-83.7,5.55-86a2.21,2.21,0,0,1,1.19-1.35c1.48-.68,36.66-16.51,62-3,12.45,6.65,20.25,19.23,23.17,37.38,10.53,65.27-39.37,223.62-41.5,230.33A2.22,2.22,0,0,1,856.21,1118.21Zm-27.4-9.52,25.88,4.79c5.67-18.3,50.54-165.92,40.78-226.43-2.7-16.71-9.72-28.21-20.89-34.18-21.27-11.37-51.59.35-57.19,2.69-2.19,7.51-15.81,56.68-5.4,82.07C826.87,973.91,828.64,1091.88,828.81,1108.69Z" transform="translate(479.97 624.29)"/><path class="cls-1" d="M825.69,1071.51c.75,20.8.91,36.14.93,38.65l31.2.68c1.21-3.95,3-10,5.28-17.72.72-2.72,1.38-5,1.81-6.38l.21-.68c1.24-4.34,2.57-9.06,4-14.09Z" transform="translate(479.97 624.29)"/><path class="cls-2" d="M857.82,1113.05h-.05l-31.19-.68a2.21,2.21,0,0,1-2.16-2.19c0-2.87-.2-18.23-.93-38.6a2.23,2.23,0,0,1,.62-1.62,2.19,2.19,0,0,1,1.6-.66l43.38.46a2.21,2.21,0,0,1,1.74.88,2.18,2.18,0,0,1,.36,1.91c-1.38,5-2.7,9.77-4,14.12l-.23.74c-.39,1.23-1,3.45-1.78,6.28-2.26,7.75-4.09,13.84-5.31,17.8A2.2,2.2,0,0,1,857.82,1113.05Zm-29-5,27.38.6c1.19-3.91,2.84-9.39,4.79-16.1.53-2,1.3-4.78,1.83-6.43l.21-.68c1-3.48,2.06-7.25,3.16-11.25l-38.2-.4C828.54,1090,828.74,1102.74,828.81,1108Z" transform="translate(479.97 624.29)"/><path class="cls-1" d="M820.91,1197.67a209.14,209.14,0,0,0,58.14-1.67,14,14,0,0,0,11-17.49c-6-22.31-17.11-64.15-28.59-84l-8.08,10.82-5.75-9.93a4.83,4.83,0,0,0-3.7-2.41l-8.56-.4a4.88,4.88,0,0,0-5.26,4.06l-1.66,9.34-9.63-12.86-2.49,36.1a330.26,330.26,0,0,1-4.15,34.21l-3.28,18.87A13.89,13.89,0,0,0,820.91,1197.67Z" transform="translate(479.97 624.29)"/><path class="cls-2" d="M843.91,1201.16a205.69,205.69,0,0,1-23.25-1.3,16.14,16.14,0,0,1-13.95-17.75l3.31-19a331,331,0,0,0,4.12-34l2.49-36.09a2.19,2.19,0,0,1,1.57-2,2.22,2.22,0,0,1,2.4.79l6.58,8.79.77-4.34a7.11,7.11,0,0,1,7.65-5.86l8.44.38a7.15,7.15,0,0,1,5.51,3.51l4.08,7,6.07-8.14a2.2,2.2,0,0,1,3.68.21c11.32,19.56,22,59.08,28.32,82.69l.49,1.82a16.36,16.36,0,0,1-2,13.08,16,16,0,0,1-10.76,7.16A211,211,0,0,1,843.91,1201.16Zm-23.29-101.93-2.08,30.17a336.81,336.81,0,0,1-4.17,34.44l-3.29,18.87a11.68,11.68,0,0,0,10.09,12.76,206.25,206.25,0,0,0,57.51-1.65,11.44,11.44,0,0,0,7.79-5.19,12,12,0,0,0,1.46-9.55l-.49-1.82c-5.6-20.79-15.78-58.61-26.26-78.67l-6,8.08a2.21,2.21,0,0,1-3.67-.21l-5.76-9.94a2.67,2.67,0,0,0-2-1.32l-8.45-.39a2.7,2.7,0,0,0-3,2.24l-1.66,9.35a2.21,2.21,0,0,1-3.94.94Z" transform="translate(479.97 624.29)"/><path class="cls-2" d="M852.13,1186.06a146.59,146.59,0,0,1-34-3.93,2.21,2.21,0,0,1,1.12-4.27c.31.08,31.82,8.14,61.45.34a2.21,2.21,0,1,1,1.13,4.27A117.73,117.73,0,0,1,852.13,1186.06Z" transform="translate(479.97 624.29)"/><path class="cls-2" d="M862.36,1151.39h0l-28.69-.16a2.21,2.21,0,1,1,0-4.41h0l28.69.16a2.21,2.21,0,0,1,0,4.41Z" transform="translate(479.97 624.29)"/><path class="cls-1" d="M760.9,850.43s21.25,62.25,8.46,90.23c-19.08,41.72-17.23,189.91-17.23,189.91l-38.61-5.38S671.1,954.4,681.66,888.89,760.9,850.43,760.9,850.43Z" transform="translate(479.97 624.29)"/><path class="cls-2" d="M752.13,1132.78a1.55,1.55,0,0,1-.31,0l-38.6-5.37a2.23,2.23,0,0,1-1.84-1.65c-1.74-7-42.41-172-31.9-237.19,3-18.82,11.08-32.07,23.9-39.37,24.39-13.89,57-1.33,58.33-.79a2.23,2.23,0,0,1,1.28,1.34c.88,2.58,21.38,63.41,8.37,91.86-18.65,40.8-17.05,187.48-17,189a2.23,2.23,0,0,1-2.2,2.24Zm-36.82-9.57,34.58,4.82c-.16-20.49-.45-149.12,17.46-188.28,11.42-25-5.59-79.57-8.21-87.61-5.46-1.92-33.26-10.72-53.59.87-11.59,6.62-18.9,18.81-21.71,36.23C674,950.39,711.24,1106.48,715.31,1123.21Z" transform="translate(479.97 624.29)"/><path class="cls-1" d="M702.17,1075c6.24,29.63,11.35,50.22,11.35,50.22l21.23,3,15.44.54,2-28.39c.1-7.71.26-16.52.54-26Z" transform="translate(479.97 624.29)"/><path class="cls-2" d="M750.19,1130.9h-.08l-15.44-.54-.23,0-21.22-2.95a2.21,2.21,0,0,1-1.84-1.65c0-.21-5.2-21-11.37-50.3a2.22,2.22,0,0,1,.44-1.83,2.19,2.19,0,0,1,1.69-.83l50.57-.67a2.1,2.1,0,0,1,1.6.65,2.21,2.21,0,0,1,.63,1.62c-.24,8.43-.42,17.16-.53,26l-2,28.52A2.2,2.2,0,0,1,750.19,1130.9Zm-15.25-5,13.2.46,1.86-26.27c.1-7.9.26-15.86.47-23.6l-45.59.61c5,23.51,9.21,41.06,10.42,46.06Z" transform="translate(479.97 624.29)"/><path class="cls-1" d="M758.61,1166.8a13.49,13.49,0,0,1-10.86,13c-21.62,4.24-70.32,13.66-84.17,15.23-18,2-44-5.2-48.85-15-6.22-12.65,22.4-34.69,37.25-43.27,22-12.74,43.72-38.7,52.45-39.6S728.51,1122,728.51,1122l26.92-10.21S759.25,1134.68,758.61,1166.8Z" transform="translate(479.97 624.29)"/><path class="cls-2" d="M657,1197.54c-17.68,0-39.42-6.67-44.29-16.58-7.53-15.34,25.84-39.06,38.12-46.16,10.81-6.24,21.43-15.64,30.8-23.92,10.13-9,17.45-15.44,22.54-16q.3,0,.63,0c8.74,0,20.56,17.86,24.6,24.4l25.21-9.56a2.2,2.2,0,0,1,3,1.7c0,.23,3.86,23.46,3.21,55.41a15.76,15.76,0,0,1-12.64,15.08c-20.69,4.06-70.34,13.67-84.34,15.26A61.74,61.74,0,0,1,657,1197.54Zm47.89-98.25-.27,0c-3.68.37-11.64,7.42-20.07,14.87-9.53,8.43-20.32,18-31.51,24.44-17.89,10.34-41.14,30.68-36.37,40.39,4.15,8.44,29,15.78,46.62,13.78,13.84-1.56,63.35-11.15,84-15.2a11.31,11.31,0,0,0,9.08-10.83,345.41,345.41,0,0,0-2.75-51.93l-24.36,9.24a2.23,2.23,0,0,1-2.68-.94C720.65,1113.11,710.1,1099.29,704.93,1099.29Z" transform="translate(479.97 624.29)"/><path class="cls-2" d="M656.76,1181.07c-14.71,0-26.66-2.27-31.44-8.59a2.21,2.21,0,0,1,3.51-2.67c12.13,16,90.42-.15,119.56-7.73a2.21,2.21,0,0,1,1.11,4.27C741.76,1168.37,691.53,1181.07,656.76,1181.07Z" transform="translate(479.97 624.29)"/><path class="cls-2" d="M697.77,1146.19a2.18,2.18,0,0,1-1.54-.62l-18.37-17.77a2.21,2.21,0,1,1,3.07-3.17l18.37,17.77a2.21,2.21,0,0,1-1.53,3.79Z" transform="translate(479.97 624.29)"/><path class="cls-1" d="M636,679.18a812.61,812.61,0,0,0,8.35,93.8c7.93,52.31,22.71,109.89,31.67,120.84,17.39,21.26,83.15,10.7,97.64-4.76,8.39-8.95,11.32-29.2,12.31-44.68a1.31,1.31,0,0,1,2.62,0l3.22,29.12a30.79,30.79,0,0,0,16.44,21.65,130.11,130.11,0,0,0,57.4,13.6C886.5,908.74,904,893,915.06,878l9.2-76.67a985,985,0,0,0,6.92-103.14l.53-36.43Z" transform="translate(479.97 624.29)"/><path class="cls-2" d="M865.76,910.91h-.08a132.5,132.5,0,0,1-58.38-13.83,33.19,33.19,0,0,1-17.62-23.2l-2.26-20.31c-1.53,14-4.89,29.29-12.12,37-9.63,10.27-39.41,18.21-65,17.35-12-.4-27.94-2.93-35.93-12.7-10-12.27-24.72-72.94-32.14-121.91a818.21,818.21,0,0,1-8.37-94.09A2.2,2.2,0,0,1,635.9,677l295.68-17.4a2.21,2.21,0,0,1,2.33,2.24l-.52,36.43a989.78,989.78,0,0,1-6.94,103.38l-9.2,76.66a2.14,2.14,0,0,1-.42,1.05C908.06,891.14,889.77,910.9,865.76,910.91Zm-78.45-70a3.47,3.47,0,0,1,3.5,3.14L794,873.21a28.69,28.69,0,0,0,15.22,19.92,128,128,0,0,0,56.43,13.36h.07c21.78,0,38.78-18.14,47.18-29.31l9.13-76.08A983.68,983.68,0,0,0,929,698.19l.49-34.06L638.29,681.26a828,828,0,0,0,8.27,91.39c8,52.44,22.82,109.53,31.2,119.77,5.42,6.63,17,10.56,32.65,11.09,24.12.8,52.94-6.64,61.67-16,7.94-8.47,10.76-28.23,11.72-43.31a3.45,3.45,0,0,1,3.42-3.29Z" transform="translate(479.97 624.29)"/><path class="cls-2" d="M904.4,758.28h-.14c-27.28-1.75-44.38-28.06-45.09-29.18a2.21,2.21,0,1,1,3.72-2.38c.16.26,16.63,25.56,41.65,27.15a2.21,2.21,0,0,1-.14,4.41Z" transform="translate(479.97 624.29)"/><path class="cls-2" d="M661.45,761.15a2.2,2.2,0,0,1-.14-4.4c32.73-2.15,44.81-25,44.93-25.28a2.21,2.21,0,1,1,3.93,2c-.53,1-13.37,25.36-48.58,27.67Z" transform="translate(479.97 624.29)"/><path class="cls-1" d="M669.82,412.28s-58.25,8.59-80.76,61.76c-6.35,15-13.38,29.76-22.17,43.49C552.34,540.28,534,587,545.66,670.13c0,0-22.8,71.19,19.25,76a11.53,11.53,0,0,0,11.9-7,77.72,77.72,0,0,0,5.69-27.86c.63-22.48,1.88,9.37,11.87,17.49,8.52,6.92,5.23-31.57-1-50-1.81-5.4-4.17-10.77-3.6-16.45,2.4-23.75,9.06-36.19,21.49-56,12.54-19.94,25.41-24.43,32.22-57.09C651.75,509.84,669.82,412.28,669.82,412.28Z" transform="translate(479.97 624.29)"/><path class="cls-2" d="M566.2,748.46a13.25,13.25,0,0,1-1.54-.09c-9.25-1.07-16.28-5.25-20.91-12.43-13.55-21-1.92-60.88-.34-66-11.3-81.34,5.51-128.42,21.62-153.6,7.62-11.92,14.41-25.23,22-43.17,22.73-53.7,81.88-63,82.47-63.08a2.2,2.2,0,0,1,2.49,2.58c-.18,1-18.17,98-26.31,137.06-4.82,23.11-12.75,32.62-21.15,42.7a134.32,134.32,0,0,0-11.36,15.11c-12.64,20.11-18.85,32.09-21.16,55-.44,4.31,1,8.52,2.61,13,.3.85.6,1.7.88,2.55,4.47,13.33,9.88,48.22,2.89,53.07-.76.52-2.78,1.5-5.41-.63-4-3.27-6.65-9.57-8.46-15.3a78.53,78.53,0,0,1-5.68,24.82A13.79,13.79,0,0,1,566.2,748.46ZM667.06,415.07c-12.18,2.68-57.16,15.4-76,59.83-7.58,17.94-14.69,31.86-22.34,43.82-15.75,24.61-32.15,70.8-20.9,151.11a2.28,2.28,0,0,1-.09,1c-.13.43-13.37,42.51-.3,62.76,3.94,6.09,9.72,9.5,17.7,10.42a9.31,9.31,0,0,0,9.61-5.63,75.55,75.55,0,0,0,5.53-27.07c.21-7.68.27-9.74,2.66-10,2.23-.25,2.68,1.44,3.88,6,1.49,5.62,4.26,16.08,8.92,19.86a2.73,2.73,0,0,0,.3.22c2.61-3.6,1.05-30.54-4.74-47.82-.28-.84-.57-1.67-.86-2.5-1.66-4.72-3.37-9.6-2.84-14.88,2.41-23.86,8.8-36.22,21.81-56.92a139.63,139.63,0,0,1,11.71-15.6c8.39-10.06,15.63-18.74,20.22-40.77C648.65,513.88,663.87,432.22,667.06,415.07Z" transform="translate(479.97 624.29)"/><path class="cls-4" d="M645.41,412.14s39.86-16.88,66.76-18.79c0,0,26.09,20.25,51.67,22,29.51,2.05,51.67-8,64.37-28.3a369.43,369.43,0,0,1,52.52,7.28S883,458.73,895.2,508.56c8,32.79,54.89,48,54.89,48s-4.37,31.23-4.41,31.43c-6.47,32.14-14.52,31.6-7.54,55.44A67.37,67.37,0,0,1,939.68,675s-66.58,58-217.35,43.59c0,0-75.38-8.47-94.86-36.43,0,0-1.7-23.71,10.16-41.5s-3.23-62-3.23-62,18.63-74.54,21.18-105S645.41,412.14,645.41,412.14Z" transform="translate(479.97 624.29)"/><path class="cls-1" d="M768.7,723.08c-14.55,0-30.06-.7-46.58-2.28-3.15-.35-76.64-8.91-96.46-37.35a2.13,2.13,0,0,1-.39-1.11c-.08-1-1.62-24.68,10.52-42.88,11.13-16.69-3.33-59.63-3.48-60.06a2.31,2.31,0,0,1,0-1.25c.19-.74,18.62-74.71,21.12-104.68,2.46-29.58-9.89-60.19-10-60.49a2.21,2.21,0,0,1,1.18-2.87c1.64-.7,40.51-17,67.46-19a2.16,2.16,0,0,1,1.51.46c.26.19,25.88,19.85,50.47,21.56,28.4,2,50-7.46,62.35-27.27a2.16,2.16,0,0,1,2-1,375.44,375.44,0,0,1,52.86,7.32,2.2,2.2,0,0,1,1.76,2.08c0,.65,2.42,64.73,14.41,113.76,7.63,31.21,53,46.28,53.44,46.43a2.21,2.21,0,0,1,1.5,2.4c-4.38,31.3-4.42,31.49-4.43,31.57A179.59,179.59,0,0,1,941.06,613c-3.52,10.32-5.13,15-.8,29.79a69,69,0,0,1,1.56,32.72,2.19,2.19,0,0,1-.7,1.15C940.53,677.2,886.32,723.08,768.7,723.08ZM629.64,681.43c19.25,26.41,92.2,34.9,92.94,35,141,13.47,208.39-37.22,215.09-42.6A66.62,66.62,0,0,0,936,644.05c-4.71-16.1-2.73-21.91.87-32.46a173.32,173.32,0,0,0,6.63-24c.08-.51,2.61-18.6,4.14-29.51-8.84-3.19-47.19-18.64-54.6-49-11-44.93-14-102.27-14.47-112.91a379.93,379.93,0,0,0-49.22-6.82c-13.4,20.52-36.1,30.28-65.69,28.22-23.93-1.66-47.77-18.67-52.18-22-22.81,1.87-55,14.41-63.25,17.75,2.79,7.5,11.73,33.95,9.52,60.48-2.43,29.19-19.15,97-21.07,104.76,1.88,5.71,14.44,45.79,2.77,63.3C629.18,657.33,629.48,677.7,629.64,681.43Z" transform="translate(479.97 624.29)"/><path class="cls-1" d="M870.18,564.81c0,28-32.95,51-75.16,51s-73.11-23-73.11-51S752.8,514.46,795,514.46,870.18,536.81,870.18,564.81Z" transform="translate(479.97 624.29)"/><path class="cls-1" d="M868.33,555.87c-.19,2.38-1.26,4.61-2.07,6.86-1.67,4.71,1.89,13.37-3.66,16.29-2.25,1.17-5,.55-7.46.15s-5.48-.36-7.07,1.61c-1.88,2.34-.65,5.76-.85,8.75a8,8,0,0,1-5.39,7.08c-5.76,1.73-11.82-4.14-17.56-2.33-6.42,2-5.21,11.24-11.8,12.32-3.27.53-6.26-1.9-8.44-4.39s-4.33-5.39-7.53-6.27-6.57.51-9.37,2.28-5.39,4-8.54,5-7.17.48-8.91-2.34-1-7.84-4.28-9.08-5.83,3-8.92,4.71c-4.69,2.6-10.85-1.62-12.1-6.83-.57-2.35-.46-4.86-1.33-7.11a8.8,8.8,0,0,0-7.33-5.2c-3.13-.33-6.19,2.58-9,.84-2.15-1.35-2.28-4.37-2.18-6.91l.68-16c.53-12.65,11.47-24.38,21.66-30.61,14.3-8.75,31.65-12,48.23-12,15.93,0,32.37,3,46.53,10.51,10.47,5.57,27.43,18.82,26.67,32.4A2.45,2.45,0,0,1,868.33,555.87Z" transform="translate(479.97 624.29)"/><path class="cls-2" d="M811.53,608.88c-3,0-6.12-1.75-9.16-5.22l-.81-.93c-1.79-2.09-3.48-4.07-5.65-4.67s-4.6.12-7.6,2c-.73.47-1.44,1-2.16,1.45a26.82,26.82,0,0,1-6.88,3.8c-3.89,1.28-9.09.56-11.47-3.28a14.7,14.7,0,0,1-1.6-4.65c-.44-2-.77-3.22-1.59-3.53s-2,.56-3.76,2.08a19.35,19.35,0,0,1-3.3,2.5,9,9,0,0,1-8.18.18,12.85,12.85,0,0,1-7.14-8.43,28.39,28.39,0,0,1-.51-3.16,15.31,15.31,0,0,0-.73-3.66,6.58,6.58,0,0,0-5.5-3.81,7.69,7.69,0,0,0-2.94.61c-2,.66-4.46,1.48-7-.09-3.49-2.19-3.29-6.87-3.21-8.87l.67-16c.59-14,12.61-26.22,22.72-32.41,13.15-8,30.23-12.29,49.38-12.29h0c17.87,0,34.32,3.72,47.57,10.76,10.73,5.71,28.67,19.39,27.83,34.48V556a.06.06,0,0,0,0,0A21.55,21.55,0,0,1,868.9,562c-.19.49-.38,1-.56,1.48a16.65,16.65,0,0,0-.31,5.42c.16,4.27.35,9.58-4.41,12.08-2.67,1.4-5.55.92-8.08.5l-.75-.12c-1.44-.23-4-.43-5,.81-.73.92-.61,2.48-.47,4.28a21.68,21.68,0,0,1,.1,3.24,10.18,10.18,0,0,1-7,9c-3.55,1.07-7-.14-10.1-1.21-2.7-.93-5.24-1.81-7.43-1.13s-3.23,2.77-4.41,5.16c-1.42,2.9-3.19,6.5-7.69,7.24A8,8,0,0,1,811.53,608.88Zm-17.08-15.42a10.07,10.07,0,0,1,2.64.35c3.46,1,5.78,3.66,7.82,6.05l.78.89c1.65,1.89,4.13,4,6.42,3.67s3-2,4.45-4.82,3-6.16,7.05-7.43c3.57-1.12,7.09.1,10.2,1.18,2.67.92,5.2,1.81,7.39,1.15a5.79,5.79,0,0,0,3.81-5.12,16.61,16.61,0,0,0-.09-2.59c-.19-2.39-.4-5.1,1.43-7.39s4.9-3.08,9.13-2.41l.78.13c2,.34,4,.66,5.31-.06,2.15-1.12,2.2-3.77,2-8-.09-2.44-.19-5,.57-7.07.19-.53.39-1.06.59-1.58a18.37,18.37,0,0,0,1.36-4.71s0-.21,0-.22c.66-12-14.89-24.69-25.5-30.33-12.62-6.71-28.35-10.25-45.5-10.25-18.34,0-34.62,4-47.08,11.65-9.91,6.06-20.12,17.32-20.61,28.82l-.67,16c-.08,1.76,0,4.2,1.15,4.94.66.42,1.49.22,3.22-.36a11.45,11.45,0,0,1,4.78-.81,11,11,0,0,1,9.17,6.61,19,19,0,0,1,1,4.72,22.8,22.8,0,0,0,.42,2.66,8.46,8.46,0,0,0,4.62,5.43,4.76,4.76,0,0,0,4.27,0,16.12,16.12,0,0,0,2.53-2c2.14-1.88,4.8-4.21,8.24-2.89,3.11,1.18,3.78,4.24,4.33,6.7a10.91,10.91,0,0,0,1,3.28c1.16,1.88,4.14,2.13,6.34,1.41a23.59,23.59,0,0,0,5.75-3.24c.76-.53,1.52-1,2.3-1.54A16.13,16.13,0,0,1,794.45,593.46Zm73.88-37.59h0Z" transform="translate(479.97 624.29)"/><ellipse class="cls-1" cx="1276.53" cy="1175.84" rx="30.22" ry="13.29"/><path class="cls-2" d="M796.56,567.05c-18.49,0-32.43-6.66-32.43-15.49s13.94-15.5,32.43-15.5S829,542.72,829,551.56,815,567.05,796.56,567.05Zm0-26.57c-16.51,0-28,5.83-28,11.08s11.5,11.08,28,11.08,28-5.84,28-11.08S813.06,540.48,796.56,540.48Z" transform="translate(479.97 624.29)"/><path class="cls-2" d="M825.4,554.27c0,5.66-17.26,10.78-29.62,10.78s-27-4.2-27-9.86,14.63-10.63,27-10.63S825.4,548.61,825.4,554.27Z" transform="translate(479.97 624.29)"/><path class="cls-2" d="M768.36,578.71a2.15,2.15,0,0,1-.61-.09c-13-3.75-22.71-9.83-27.47-17.12a2.21,2.21,0,0,1,3.7-2.41c4.17,6.4,13,11.83,25,15.29a2.21,2.21,0,0,1-.62,4.33Z" transform="translate(479.97 624.29)"/><path class="cls-2" d="M750.75,541.63c0,1.86-.87,3.36-2,3.36s-1.95-1.5-1.95-3.36.88-3.36,1.95-3.36S750.75,539.77,750.75,541.63Z" transform="translate(479.97 624.29)"/><path class="cls-2" d="M848.89,551.3c0,1.86-.87,3.36-1.95,3.36s-1.94-1.5-1.94-3.36.87-3.36,1.94-3.36S848.89,549.45,848.89,551.3Z" transform="translate(479.97 624.29)"/><path class="cls-2" d="M829.66,566.7c0,1.85-.87,3.36-1.94,3.36s-2-1.51-2-3.36.87-3.36,2-3.36S829.66,564.84,829.66,566.7Z" transform="translate(479.97 624.29)"/><path class="cls-2" d="M787.24,529.44c1.73-.69,3.45-.43,3.85.57s-.68,2.36-2.41,3-3.44.43-3.84-.57S785.52,530.13,787.24,529.44Z" transform="translate(479.97 624.29)"/><path class="cls-2" d="M820.24,529.52c1.64.85,2.58,2.32,2.09,3.27s-2.23,1-3.88.19-2.59-2.32-2.1-3.27S818.59,528.67,820.24,529.52Z" transform="translate(479.97 624.29)"/><path class="cls-2" d="M801.13,567c1.65.85,2.58,2.32,2.09,3.27s-2.23,1-3.88.19-2.59-2.32-2.09-3.27S799.48,566.18,801.13,567Z" transform="translate(479.97 624.29)"/><path class="cls-2" d="M769.14,567.13c1.83-.29,3.45.33,3.62,1.39s-1.17,2.16-3,2.46-3.45-.33-3.62-1.39S767.3,567.43,769.14,567.13Z" transform="translate(479.97 624.29)"/><path class="cls-2" d="M761.35,558.81a2.09,2.09,0,1,1-.42-4.09,2.09,2.09,0,1,1,.42,4.09Z" transform="translate(479.97 624.29)"/><path class="cls-2" d="M844.87,536.64a2.1,2.1,0,1,1,2.25-2.3A2.3,2.3,0,0,1,844.87,536.64Z" transform="translate(479.97 624.29)"/><path class="cls-1" d="M792.26,587.48a2.1,2.1,0,1,1,2.25-2.3A2.3,2.3,0,0,1,792.26,587.48Z" transform="translate(479.97 624.29)"/><path class="cls-2" d="M770.44,534.75a2.09,2.09,0,1,1,2.25-2.3A2.3,2.3,0,0,1,770.44,534.75Z" transform="translate(479.97 624.29)"/><path class="cls-2" d="M797.21,521.54a2.1,2.1,0,1,1,2.26-2.3A2.29,2.29,0,0,1,797.21,521.54Z" transform="translate(479.97 624.29)"/><path class="cls-2" d="M738.75,552a2.09,2.09,0,1,1,2.25-2.3A2.3,2.3,0,0,1,738.75,552Z" transform="translate(479.97 624.29)"/><path class="cls-2" d="M856.24,541.38a2.1,2.1,0,1,1,2.25-2.3A2.31,2.31,0,0,1,856.24,541.38Z" transform="translate(479.97 624.29)"/><path class="cls-1" d="M880.6,397.17c5.69-.38,17.14,8.49,20.86,10.85a205.1,205.1,0,0,1,61,59.62,229.69,229.69,0,0,1,20.15,37.78c5.91,14,13.42,28.48,16,43.48,1.85,10.57.92,22-4.6,31.16-3.64,6.06-9,10.84-14.65,15.14-25.73,19.71-59.49,31.07-92,26.28-7-1-13.75-3.94-20.75-4.37-7.75-.48-15.34,2.43-23.06,2.84A69.89,69.89,0,0,1,798,606.05c-6.86-5.22-16.32-16.62-8.87-24.83,4.63-5.09,13.17-4.18,19-3,14.38,2.89,33.06,14.38,47.78,7.6a27.57,27.57,0,0,1,5.35-2.34c3.64-.83,7.33,2.07,11.21,1.84,7.64-.45,14.23-6.37,19.66-11.18A196.51,196.51,0,0,1,918,554.68c2.29-1.44,5-3.64,4.21-6.23a6.42,6.42,0,0,0-2.5-3c-8.8-6.92-20.36-17-24.08-27.86-3.91-11.35-6.28-24.65-8.45-36.52-3.67-19.82-7.38-39.75-8.33-59.93-.25-5.28-1.55-15.19.65-21.26C879.93,398.77,879.36,397.26,880.6,397.17Z" transform="translate(479.97 624.29)"/><path class="cls-2" d="M902.68,624.79a105.55,105.55,0,0,1-15.53-1.13,82,82,0,0,1-9.21-2.08,58.81,58.81,0,0,0-11.35-2.27c-4.2-.25-8.34.54-12.73,1.38a74.15,74.15,0,0,1-10.08,1.46,72.52,72.52,0,0,1-47.1-14.35c-5.31-4-11.75-11.31-12.41-18.49a12.07,12.07,0,0,1,3.25-9.57c4.09-4.51,11-5.72,21.07-3.68a111.07,111.07,0,0,1,14,4.2c11.25,3.91,22.89,8,32.45,3.55.49-.22,1-.47,1.46-.72a18,18,0,0,1,4.33-1.76c2.55-.58,5,.2,7.1.88a13,13,0,0,0,4.47.91c6.78-.4,12.8-5.73,18.12-10.44l.21-.19a197.74,197.74,0,0,1,26.13-19.68c2.31-1.44,3.52-2.84,3.26-3.75-.17-.58-1-1.24-1.75-1.83-8.75-6.89-20.85-17.38-24.8-28.87-3.84-11.17-6.23-24.25-8.34-35.8L885,481.2c-3.62-19.51-7.36-39.69-8.31-59.91,0-.94-.12-2-.21-3.25-.4-5.68-1-13.46,1-18.86a3.29,3.29,0,0,0,.07-.65c.17-2.79,1.71-3.47,3-3.56,5-.34,12.4,4.46,19.55,9.4,1.07.74,2,1.37,2.63,1.79a205.87,205.87,0,0,1,61.71,60.26,233.83,233.83,0,0,1,20.35,38.14c1.24,2.93,2.55,5.89,3.87,8.87,5,11.3,10.19,23,12.31,35.09s.4,23.86-4.89,32.68c-4,6.71-9.94,11.73-15.19,15.75C957.21,615,929.46,624.79,902.68,624.79ZM865,614.85q.93,0,1.89.06a63.09,63.09,0,0,1,12.22,2.4,77.45,77.45,0,0,0,8.71,2c30.16,4.44,63.07-5,90.32-25.85,4.92-3.77,10.45-8.45,14.09-14.52,4.75-7.91,6.29-18.44,4.33-29.65-2-11.57-7.09-23-12-34.06-1.34-3-2.66-6-3.91-8.94a228.14,228.14,0,0,0-20-37.42,201.64,201.64,0,0,0-60.39-59c-.7-.44-1.65-1.1-2.78-1.88-3.82-2.63-11.41-7.88-15.65-8.56a5.55,5.55,0,0,1-.27,1.24c-1.65,4.52-1.13,11.76-.75,17.05.09,1.24.18,2.38.22,3.36C882,441,885.7,461,889.29,480.4l.25,1.37c2.08,11.39,4.44,24.3,8.17,35.15,3.58,10.4,15,20.3,23.36,26.85a8.33,8.33,0,0,1,3.25,4.05c.91,3.09-.83,6-5.15,8.73a193.62,193.62,0,0,0-25.55,19.25l-.21.18c-5.56,4.93-12.47,11-20.78,11.54a16.53,16.53,0,0,1-6.08-1.11c-1.83-.59-3.41-1.09-4.77-.78a14.65,14.65,0,0,0-3.29,1.38c-.54.28-1.08.56-1.63.81-11.18,5.15-24.23.61-35.75-3.39a108,108,0,0,0-13.39-4c-8.43-1.7-14-.94-16.94,2.33a7.71,7.71,0,0,0-2.11,6.19c.49,5.39,5.72,11.62,10.68,15.39a68,68,0,0,0,44.19,13.46,70.21,70.21,0,0,0,9.48-1.39A63.84,63.84,0,0,1,865,614.85Zm15.64-217.68h0Z" transform="translate(479.97 624.29)"/><path class="cls-2" d="M-130.5-40.41c4.42-1.81,20.46-6.71,30.3-21.65,7-10.56,12.21-28.23,4.33-38.95-2-2.68-8.42-9.91-39-8.66-38.7,1.59-65.9,14.39-65.9,14.39C-263.79-65.61-277.11-28.93-328.54-.37c-65.86,36.57-98,5.4-126.62,36.79-46.51,51-28.75,190.8,62.77,247.83,61.81,38.51,158.58,39.62,202.37-8.66C-118.53,196.77-183.85-18.58-130.5-40.41Z" transform="translate(479.97 624.29)"/><polygon class="cls-1" points="374.92 1659.08 372.68 1742.48 343.22 1745.67 328.64 1655.91 374.92 1659.08"/><path class="cls-2" d="M-136.75,1123.59a2.22,2.22,0,0,1-2.18-1.85L-153.51,1032a2.23,2.23,0,0,1,.55-1.84,2.19,2.19,0,0,1,1.78-.72l46.28,3.17a2.21,2.21,0,0,1,2.06,2.26l-2.25,83.41a2.21,2.21,0,0,1-2,2.13l-29.45,3.19ZM-148.7,1034l13.79,85,25.46-2.75,2.14-79.36Z" transform="translate(479.97 624.29)"/><polygon class="cls-1" points="542.08 1686.46 546.78 1752.89 507.85 1756.08 493.95 1686.46 542.08 1686.46"/><path class="cls-2" d="M27.88,1134a2.21,2.21,0,0,1-2.16-1.78l-13.9-69.61a2.23,2.23,0,0,1,.46-1.84,2.19,2.19,0,0,1,1.7-.8H62.11a2.2,2.2,0,0,1,2.2,2l4.7,66.43a2.2,2.2,0,0,1-2,2.36L28.06,1134Zm-11.2-69.62,13,65,34.8-2.84-4.4-62.21Z" transform="translate(479.97 624.29)"/><path class="cls-1" d="M17.48,1160.41a10,10,0,0,1-4.43-8.07c-.25-9.74-.29-30.51,3.65-38.31,5.21-10.35,26.73,4.08,26.73,4.08s12.6-17.46,20-21.13c3.82-1.9,26.15,13,48.67,33.24,24.68,22.21,35.82,29.3,41.14,48.46a14.92,14.92,0,0,1-13.41,18.69C117.15,1199,71.4,1196.28,17.48,1160.41Z" transform="translate(479.97 624.29)"/><path class="cls-2" d="M129.84,1199.92c-25,0-66.19-6.15-113.58-37.68a12.2,12.2,0,0,1-5.42-9.84c-.29-11.24-.18-31.31,3.89-39.37a8.65,8.65,0,0,1,5.67-4.57c7.32-1.91,18.13,4,22.48,6.68,3.43-4.56,13.1-16.93,19.55-20.14s34.81,18.89,51.13,33.58c3.89,3.5,7.44,6.62,10.68,9.48,17.61,15.49,26.45,23.26,31.11,40a16.75,16.75,0,0,1-2.51,14.19,17.21,17.21,0,0,1-12.87,7.29C137,1199.78,133.6,1199.92,129.84,1199.92ZM23.57,1112.49a7.9,7.9,0,0,0-2.05.24,4.16,4.16,0,0,0-2.85,2.29c-2.65,5.26-3.89,18.84-3.41,37.27a7.76,7.76,0,0,0,3.44,6.28c53.44,35.55,98.71,38.19,121,36.6a12.86,12.86,0,0,0,9.58-5.43,12.4,12.4,0,0,0,1.86-10.47c-4.31-15.5-12.29-22.52-29.77-37.9-3.26-2.87-6.82-6-10.72-9.51C86.27,1110,67.87,1099,64.36,1099h-.17c-5.45,2.74-15.55,15.64-19,20.38a2.2,2.2,0,0,1-3,.54C38.84,1117.68,29.66,1112.49,23.57,1112.49Z" transform="translate(479.97 624.29)"/><path class="cls-2" d="M119.27,1181.94c-23.62,0-62.12-5.57-99.4-35.32a2.21,2.21,0,0,1,2.76-3.45c57.58,45.95,118,32.61,118.61,32.47a2.2,2.2,0,1,1,1,4.29C142,1180,133.24,1181.94,119.27,1181.94Z" transform="translate(479.97 624.29)"/><path class="cls-1" d="M-93.41,1138.48l-.43-45.66s-9.16-13.86-21.72-2.6c0,0-11.6-16.27-33.15,4,0,0-30.31,56.51-43.73,90.12a13.89,13.89,0,0,0,12.51,19.08c13.91.33,31.91-.42,39.75-5.72,12.24-8.28,33.21-34.39,42.35-46.16A21,21,0,0,0-93.41,1138.48Z" transform="translate(479.97 624.29)"/><path class="cls-2" d="M-174.33,1205.71c-1.83,0-3.71,0-5.65-.06a15.85,15.85,0,0,1-13-7.19,16.17,16.17,0,0,1-1.52-14.92c13.31-33.34,43.54-89.78,43.84-90.35a2.14,2.14,0,0,1,.43-.56c8.31-7.83,16.27-11.43,23.7-10.7a18.69,18.69,0,0,1,11.19,5.25c3.71-2.79,7.52-4,11.37-3.47,7.29.94,11.77,7.61,12,7.89a2.2,2.2,0,0,1,.36,1.2l.43,45.66a23.32,23.32,0,0,1-4.87,14.46c-10.79,13.88-30.71,38.41-42.87,46.63C-145,1203.64-156.9,1205.71-174.33,1205.71Zm27.4-110.11c-2.47,4.62-30.76,57.76-43.46,89.57a11.65,11.65,0,0,0,1.1,10.86,11.47,11.47,0,0,0,9.41,5.21c19,.44,32.71-1.46,38.46-5.35,12.09-8.17,33.3-34.67,41.85-45.68a18.86,18.86,0,0,0,3.95-11.71h0l-.42-45c-1-1.32-4.2-4.92-8.51-5.46-3.1-.38-6.3.88-9.53,3.77a2.21,2.21,0,0,1-1.72.55,2.17,2.17,0,0,1-1.55-.91,14.17,14.17,0,0,0-9.68-5.19C-133,1085.74-139.72,1088.88-146.93,1095.6Z" transform="translate(479.97 624.29)"/><path class="cls-2" d="M-115.54,1117a2.2,2.2,0,0,1-2.21-2.2v-24.62a2.2,2.2,0,0,1,2.2-2.2h0a2.2,2.2,0,0,1,2.21,2.2v24.62a2.19,2.19,0,0,1-2.2,2.2Z" transform="translate(479.97 624.29)"/><path class="cls-2" d="M73.93,1066S85,898.25,66.81,747.41s-86-366.24-86-366.24-72.94-3.31-126,3.82-74.1-.2-74.1-.2S-259,430.17-255.76,515.5s95.73,445.23,92.22,529.7c0,0,31.11,15.63,71.39,7.86l-16.69-485s34.55,99.85,50.77,168.26c13.22,55.77,36.16,91.84,36.16,91.84s-1,129.64,28.78,237.23C6.87,1065.34,42,1076.34,73.93,1066Z" transform="translate(479.97 624.29)"/><path class="cls-1" d="M15.61,886a2.21,2.21,0,0,1-1.82-1l-25.47-37.07a2.2,2.2,0,0,1,.57-3.06,2.21,2.21,0,0,1,3.07.56l25.46,37.07A2.19,2.19,0,0,1,15.61,886Z" transform="translate(479.97 624.29)"/><path class="cls-1" d="M-155.69,795.85c-8.84,0-20.06-1.73-29.42-8.66a2.22,2.22,0,0,1-.46-3.09,2.22,2.22,0,0,1,3.09-.46c16.52,12.26,40.57,6.32,40.81,6.26a2.2,2.2,0,0,1,2.68,1.59,2.21,2.21,0,0,1-1.59,2.69A66.57,66.57,0,0,1-155.69,795.85Z" transform="translate(479.97 624.29)"/><path class="cls-1" d="M209.86,17.2s33-30.57,42.35-38.36c10.67-8.86-13.75-11.78-45,16.88Z" transform="translate(479.97 624.29)"/><path class="cls-2" d="M209.86,19.4a2.19,2.19,0,0,1-2.19-1.93L205-4a2.2,2.2,0,0,1,.7-1.9c21.56-19.75,41-25.4,47.91-23.09a4.43,4.43,0,0,1,3.29,3.36c.37,2-.73,4.06-3.28,6.18-9.23,7.66-41.92,38-42.25,38.28A2.22,2.22,0,0,1,209.86,19.4Zm-.35-22.82,2,16.08C220,4.79,243.09-16.46,250.8-22.86a6.06,6.06,0,0,0,1.68-1.88C249.75-26.39,232.13-23.81,209.51-3.42Z" transform="translate(479.97 624.29)"/><path class="cls-1" d="M212.61,11c.2,1.7.41,3.39.71,5.06.51,2.83,1.2,9.69-2.91,14.05S187,44.9,177.87,49.76a25.75,25.75,0,0,0-8.09,6.69c-3.05,3.82,5.24,44.33,5.24,44.33L141.74,88.89s4-55.29,11.3-77.76S179.64-22,184.63-21.29,191.14-11,191.14-11s10.81-8.34,17.37-3.88c3.44,2.34,1.77,6.31,2.3,10.14Z" transform="translate(479.97 624.29)"/><path class="cls-2" d="M175,103a2.1,2.1,0,0,1-.74-.13L141,91a2.18,2.18,0,0,1-1.45-2.23c.16-2.27,4.09-55.82,11.39-78.28,7.49-23,27.22-34.86,34-33.92,4.37.61,6.59,5.45,7.62,8.85,4-2.42,11.62-5.91,17.2-2.11,3.4,2.31,3.28,5.78,3.19,8.56A17.49,17.49,0,0,0,213-5.08l1.81,15.83c.18,1.59.39,3.28.68,4.92.56,3.1,1.33,10.85-3.47,16-3.91,4.15-20.17,13.21-33.12,20.08a23.84,23.84,0,0,0-7.4,6.13c-1.26,2.75,1.95,24.25,5.68,42.51a2.21,2.21,0,0,1-.71,2.11A2.25,2.25,0,0,1,175,103Zm-31-15.61,28,10c-3.12-15.71-7-38.61-4-42.32a27.79,27.79,0,0,1,8.78-7.26c17.37-9.22,29.32-16.4,32-19.21,3.43-3.64,2.78-9.71,2.34-12.15-.32-1.76-.54-3.54-.73-5.19l-1.8-15.78a22.23,22.23,0,0,1-.09-3.8c.09-2.77,0-3.9-1.26-4.76-5.1-3.47-14.69,3.72-14.78,3.8a2.21,2.21,0,0,1-2.16.3,2.22,2.22,0,0,1-1.37-1.7c-.52-3.21-2.35-8.1-4.64-8.43-4-.52-22.26,9.63-29.18,30.93C148.71,31.6,144.81,78,144.07,87.38Z" transform="translate(479.97 624.29)"/><path class="cls-2" d="M182.64,33.07a8.22,8.22,0,0,1-2.13-.29c-4.09-1.14-8.61-5.94-9-16-.58-15.08,18.19-29.48,19-30.08a2.21,2.21,0,0,1,3.1.42,2.21,2.21,0,0,1-.43,3.09c-.17.14-17.73,13.62-17.24,26.41.27,7.2,3.09,11.17,5.76,11.92,1.68.46,3.33-.33,4.54-2.17a18.89,18.89,0,0,0,3-11.92,2.21,2.21,0,0,1,4.37-.66,23.13,23.13,0,0,1-3.69,15A8.79,8.79,0,0,1,182.64,33.07Z" transform="translate(479.97 624.29)"/><path class="cls-5" d="M182,93.7C167.73,85.8,148.62,79.85,131.38,76c-3.39,12.81-.38,3.2-8.27,23.84-15.31,40-23,60-36.94,63.1-17.12,3.78-39.43-16.84-56.06-46.85L11.59,94.71A91.18,91.18,0,0,0-28,68.06a566.29,566.29,0,0,0-108.19.9,545.57,545.57,0,0,0-75.33,13.15c-27.6,6.93-71.69,23.5-71.69,23.5s-116.79,68-114.62,177.1,71.14,145,71.14,145l38.76-53.35s-72.49-79.22,34.63-151.46c-4.42,48.82-19.11,176.85-5.18,192.45,8.65,9.69,26.17,8,60.85,4.15,54.18-6,63.48-18.19,98.48-21.64,62.4-6.15,88.06,27.26,110.39,11.9,13.58-9.34,24.8-35.93,4.65-118q-7.17-34-14.11-68.58C52.26,260,103.4,271.84,133.52,252.38c18.7-12.07,27.09-34.75,34.22-54C184.94,151.92,186.19,114.76,182,93.7Z" transform="translate(479.97 624.29)"/><path class="cls-2" d="M-326.67,429.93a2.16,2.16,0,0,1-1-.25c-.71-.36-70.16-37.82-72.33-146.93s114.54-178.36,115.72-179a2.41,2.41,0,0,1,.33-.15c.45-.17,44.52-16.7,71.93-23.58a554.14,554.14,0,0,1,75.64-13.21,570.07,570.07,0,0,1,108.61-.89,2.28,2.28,0,0,1,.52.1A93.56,93.56,0,0,1,13.26,93.26l18.52,21.41A1.9,1.9,0,0,1,32,115c17,30.7,38.57,49.1,53.65,45.77C98.51,158,106,138.3,121,99.09c2.6-6.79,4-10.31,4.87-12.44a32.9,32.9,0,0,0,2-6.23c.29-1.15.69-2.71,1.29-5a2.19,2.19,0,0,1,2.61-1.59c11.77,2.61,34.06,8.41,51.17,17.9a2.22,2.22,0,0,1,1.09,1.49c2.06,10.22,7.1,48-14.31,105.87-7,19-15.78,42.63-35.09,55.1-29.91,19.32-79.24,9.32-129.64-26,4.75,23.45,9,44.13,13,63.07,16.45,67,14.64,106.39-5.56,120.28-11.61,8-24.13,3.79-40-1.52-17.55-5.86-39.38-13.16-71.43-10-15.61,1.54-25.9,4.81-37.81,8.59-14.42,4.58-30.76,9.76-60.65,13.06-34.27,3.77-53.15,5.85-62.73-4.88-11.82-13.24-5.23-92.31,2.53-172.16.61-6.32,1.18-12.13,1.66-17.27-32,22.58-49.93,48-53.22,75.52-4.69,39.28,22.57,69.66,22.85,70a2.2,2.2,0,0,1,.16,2.78L-324.88,429A2.21,2.21,0,0,1-326.67,429.93Zm44.45-322.32C-287,110.49-397.67,178-395.6,282.66c1.93,97,58,135.81,68.32,142.16l36.57-50.32c-5.47-6.53-27.18-35.09-22.8-72.05,3.56-30,23.41-57.35,59-81.36a2.23,2.23,0,0,1,2.36-.07,2.24,2.24,0,0,1,1.08,2.1c-.57,6.19-1.29,13.65-2.1,22-5.3,54.48-15.15,155.89-3.63,168.79,7.74,8.67,23.67,7.32,59,3.43A271.57,271.57,0,0,0-138,404.45c12.15-3.85,22.65-7.18,38.72-8.77,33-3.25,56.26,4.54,73.25,10.22C-10.23,411.2.24,414.69,10,408c18.26-12.55,19.52-51.46,3.76-115.66C9.46,271.81,4.84,249.38-.35,223.63a2.2,2.2,0,0,1,3.46-2.21c50.47,36.84,100,48,129.22,29.11,18.08-11.68,26.19-33.6,33.35-52.93,20.34-55,16.39-91.24,14.31-102.47-11.84-6.4-28.42-12.21-47-16.49-.31,1.19-.54,2.12-.74,2.88A35.61,35.61,0,0,1,130,88.3c-.85,2.11-2.26,5.62-4.83,12.34-15.57,40.71-23.38,61.14-38.53,64.48-17.2,3.79-40.12-14.93-58.34-47.74L9.92,96.15A89,89,0,0,0-28.43,70.24a565.83,565.83,0,0,0-107.5.91,548.56,548.56,0,0,0-75,13.1C-237.23,90.84-279.11,106.44-282.22,107.61Z" transform="translate(479.97 624.29)"/><path class="cls-1" d="M-293.91,382.84l37.26,33.92,18.26-29.43,52.51-12.95s-2,14.3-29,17.79l43.48-1S-177.85,403.47-205,402l27.91,4.76s-18.08,4.07-26.82,7.82l-8.74,3.76s-8.88,5.48-14.71,12.15-15.2,14.08-27.82,16.28-66.33-25.34-66.33-25.34Z" transform="translate(479.97 624.29)"/><path class="cls-2" d="M-256.67,449.1c-15.26,0-60.5-23-65.82-25.7a2.18,2.18,0,0,1-1.14-1.44,2.18,2.18,0,0,1,.35-1.8l27.57-38.6a2.22,2.22,0,0,1,1.56-.92,2.21,2.21,0,0,1,1.72.57l35.31,32.13,16.86-27.17a2.21,2.21,0,0,1,1.35-1l52.51-13a2.22,2.22,0,0,1,2,.51,2.2,2.2,0,0,1,.71,1.95c-.07.48-1.45,9-13.6,14.88l25.87-.56a2.31,2.31,0,0,1,1.93,1,2.2,2.2,0,0,1,.07,2.19c-.21.41-4.14,7.5-17.4,10.63l10.12,1.73a2.2,2.2,0,0,1,1.84,2.11,2.19,2.19,0,0,1-1.72,2.21c-.18,0-18,4.07-26.44,7.7l-8.58,3.68c-1.11.71-8.92,5.75-14.08,11.65-4.6,5.25-14.49,14.45-29.1,17A10.87,10.87,0,0,1-256.67,449.1Zm-61.53-28.46c16.26,8.2,53.37,25.57,62.66,24,13.28-2.32,22.32-10.75,26.54-15.56,6-6.84,14.84-12.35,15.21-12.58a1.59,1.59,0,0,1,.29-.15l8.74-3.76a138.34,138.34,0,0,1,16.88-5.39l-17.47-3a2.21,2.21,0,0,1-1.83-2.42,2.21,2.21,0,0,1,2.31-2c15.86.86,24.24-3.17,28.29-6.28l-38.22.84a2.21,2.21,0,0,1-2.25-2,2.2,2.2,0,0,1,1.92-2.35c16.66-2.16,23.12-8.42,25.59-12.43L-237,389.26l-17.78,28.66a2.2,2.2,0,0,1-1.57,1,2.16,2.16,0,0,1-1.79-.55l-35.43-32.25Z" transform="translate(479.97 624.29)"/><path class="cls-1" d="M-98.77,71.47A27.3,27.3,0,0,1-121.62,43.1l1.12-21.59c13-1,23.88-7.23,23.85-11.35,0-2-4.8-21.62-7.79-29.73,2.52-2.05,5.59-7.71.15-11.18s-17.65-25.54-17.65-25.54c-15.08-17.52-19.43,7.18-30.69,9.23-7.8,1.43-12,6.18-9.08,16.37s-2.66,5.08-8.39,2.17-9.64-.65-6.49,8.62S-162-5.07-162-5.07l5.44,10.67L-168,58.08a29.46,29.46,0,0,1-18.86,21.44l-15.79,5.63,83,43.44,40.07-54Z" transform="translate(479.97 624.29)"/><path class="cls-2" d="M-119.68,130.8a2.23,2.23,0,0,1-1-.25l-83-43.45A2.2,2.2,0,0,1-204.84,85a2.2,2.2,0,0,1,1.45-1.92l15.79-5.63a27.09,27.09,0,0,0,17.45-19.83L-158.86,5.9l-4.76-9.34c-2.65-1.41-12.08-7-15.06-15.75-1.88-5.53-1.63-9.38.75-11.43,1.18-1,3.88-2.37,8.82.13,1.08.55,2.14,1.16,3.16,1.75.83.48,1.93,1.12,2.78,1.52a21.54,21.54,0,0,0-.66-2.86c-1.58-5.44-1.33-9.87.71-13.18,1.91-3.08,5.31-5.09,10.09-6,3.28-.6,6.19-4,9-7.25,3.5-4.07,7.12-8.27,12.21-8.27h0c3.7,0,7.47,2.3,11.53,7a2,2,0,0,1,.26.37c4.61,8.34,13.29,22.44,16.91,24.74a8,8,0,0,1,4,6.35A10.42,10.42,0,0,1-101.89-19c3,8.77,7.43,26.78,7.44,29.12,0,5.75-11.14,11.88-23.94,13.37l-1,19.69a25.06,25.06,0,0,0,21,26.08l19.17,3.14a2.16,2.16,0,0,1,1.68,1.35,2.19,2.19,0,0,1-.27,2.14l-40.07,54A2.24,2.24,0,0,1-119.68,130.8Zm-77.48-45.27,76.84,40.23L-83.53,76.2l-15.59-2.56A29.48,29.48,0,0,1-123.83,43l1.13-21.58a2.22,2.22,0,0,1,2-2.09c13.28-1,21.83-7.22,21.81-9.13s-4.67-20.89-7.65-29a2.19,2.19,0,0,1,.68-2.47A6.56,6.56,0,0,0-103.48-26a3.66,3.66,0,0,0-2-2.89c-5.61-3.57-16.57-23-18.29-26.13-3.07-3.52-5.77-5.3-8-5.31h0c-3.07,0-5.89,3.28-8.87,6.74-3.32,3.85-6.75,7.83-11.56,8.71-3.5.64-5.9,2-7.12,3.94-1.37,2.2-1.45,5.45-.23,9.63,1.1,3.84,1.45,6.7-.46,8.19-2.13,1.66-4.9.06-8.11-1.8-1-.55-1.94-1.13-2.94-1.63-2.08-1.06-3.51-1.12-3.94-.74s-1,2.31.54,6.68C-171.7-12.35-161.12-7.11-161-7a2.21,2.21,0,0,1,1,1l5.43,10.67a2.2,2.2,0,0,1,.19,1.47l-11.45,52.48a31.45,31.45,0,0,1-20.28,23Z" transform="translate(479.97 624.29)"/><path class="cls-2" d="M-125.17,24.29c-9.83,0-15.92-7.12-18-11.49A2.2,2.2,0,0,1-142,9.87a2.2,2.2,0,0,1,2.92,1.07c.24.49,5.6,11.4,18.12,8.43A2.2,2.2,0,0,1-118.35,21,2.21,2.21,0,0,1-120,23.66,22.65,22.65,0,0,1-125.17,24.29Z" transform="translate(479.97 624.29)"/><rect class="cls-2" x="713.77" y="1587.95" width="45.58" height="143.55" rx="9.19"/><rect class="cls-2" x="941.3" y="1589.38" width="46.65" height="143.55" rx="9.19"/><rect class="cls-2" x="249.6" y="1009.6" width="241.17" height="53.11" transform="translate(1220.33 2696.6) rotate(180)"/><rect class="cls-1" x="318.35" y="1062.74" width="241.16" height="53.11" transform="translate(1357.83 2802.89) rotate(180)"/><path class="cls-2" d="M559.52,1118.06H318.35a2.2,2.2,0,0,1-2.21-2.2v-53.12a2.21,2.21,0,0,1,2.21-2.2H559.52a2.21,2.21,0,0,1,2.2,2.2v53.12A2.2,2.2,0,0,1,559.52,1118.06Zm-239-4.41H557.31V1065H320.56Z" transform="translate(479.97 624.29)"/><rect class="cls-1" x="302.56" y="1016.81" width="45.58" height="143.55" rx="9.19" transform="translate(1130.67 2801.45) rotate(180)"/><path class="cls-2" d="M338.94,1162.56H311.75a11.41,11.41,0,0,1-11.4-11.39V1026a11.42,11.42,0,0,1,11.4-11.4h27.19a11.41,11.41,0,0,1,11.4,11.4v125.17A11.41,11.41,0,0,1,338.94,1162.56ZM311.75,1019a7,7,0,0,0-7,7v125.17a7,7,0,0,0,7,7h27.19a7,7,0,0,0,7-7V1026a7,7,0,0,0-7-7Z" transform="translate(479.97 624.29)"/><rect class="cls-1" x="530.09" y="1018.24" width="46.65" height="143.55" rx="9.19" transform="translate(1586.8 2804.32) rotate(180)"/><path class="cls-2" d="M567.55,1164H539.28a11.41,11.41,0,0,1-11.4-11.4V1027.43a11.41,11.41,0,0,1,11.4-11.4h28.27a11.42,11.42,0,0,1,11.4,11.4V1152.6A11.42,11.42,0,0,1,567.55,1164Zm-28.27-143.55a7,7,0,0,0-7,7V1152.6a7,7,0,0,0,7,7h28.27a7,7,0,0,0,7-7V1027.43a7,7,0,0,0-7-7Z" transform="translate(479.97 624.29)"/></g></svg>