<svg id="Layer_1" data-name="Layer 1" xmlns="http://www.w3.org/2000/svg" viewBox="0 0 1777.69 1830"><defs><style>.cls-1{fill:#010101;}.cls-2{fill:#fff;}.cls-3{fill:#128dc9;}.cls-4{fill:#4b449b;}</style></defs><g id="Online_workshop" data-name="Online workshop"><path class="cls-1" d="M-81.83,1006.11-60,994l-7.63-26.2A103.92,103.92,0,0,0-55,955.75l25.87,8.57,12.89-21.41L-36,924a105,105,0,0,0,4.8-16.71l26.73-5.52.46-25-26.48-6.48a103.58,103.58,0,0,0-4.23-16.89l20.39-18.14-12.1-21.86-26.2,7.63a103.24,103.24,0,0,0-12.07-12.55l8.58-25.87-21.41-12.89-18.88,19.72a104.52,104.52,0,0,0-16.71-4.8L-118.65,758l-25-.45L-150.11,784A102.31,102.31,0,0,0-167,788.21l-18.15-20.39L-207,779.92l7.64,26.2a103.92,103.92,0,0,0-12.55,12.06l-25.88-8.57L-250.68,831-231,849.9a105.6,105.6,0,0,0-4.81,16.71l-26.73,5.52-.45,25,26.47,6.48a104.35,104.35,0,0,0,4.23,16.89l-20.38,18.14,12.1,21.87,26.2-7.64a102.41,102.41,0,0,0,12.06,12.55l-8.57,25.88,21.41,12.88,18.87-19.72a105.6,105.6,0,0,0,16.71,4.81l5.53,26.73,25,.45,6.48-26.47A104.61,104.61,0,0,0-100,985.73Zm-107.94-88a64.31,64.31,0,0,1,25.14-87.42,64.32,64.32,0,0,1,87.42,25.13,64.33,64.33,0,0,1-25.13,87.43A64.33,64.33,0,0,1-189.77,918.11Z" transform="translate(381.61 470.96)"/><path class="cls-1" d="M259.85,1293.13l35.72-19.77-12.48-42.81a168,168,0,0,0,20.51-19.71l42.28,14,21.05-35L334.71,1159a170.57,170.57,0,0,0,7.85-27.3l43.68-9,.74-40.82-43.26-10.59a169,169,0,0,0-6.91-27.59l33.31-29.65-19.77-35.72-42.81,12.48a169.46,169.46,0,0,0-19.71-20.51l14-42.27-35-21L236,939.19a172.66,172.66,0,0,0-27.3-7.85l-9-43.68-40.82-.74-10.59,43.26a170,170,0,0,0-27.59,6.91L91,903.79,55.32,923.56l12.48,42.8a170.23,170.23,0,0,0-20.51,19.71L5,972.07l-21,35,32.22,30.84a171.61,171.61,0,0,0-7.85,27.3l-43.68,9-.74,40.82,43.26,10.58a170.16,170.16,0,0,0,6.91,27.6l-33.3,29.64L.54,1218.58l42.81-12.47a169.4,169.4,0,0,0,19.71,20.5l-14,42.28,35,21,30.84-32.22a170.57,170.57,0,0,0,27.3,7.85l9,43.68L192,1310l10.58-43.26a168.11,168.11,0,0,0,27.6-6.91ZM83.49,1149.35a105.1,105.1,0,1,1,142.85,41.06A105.11,105.11,0,0,1,83.49,1149.35Z" transform="translate(381.61 470.96)"/><path class="cls-2" d="M-350.36-180.73H936.49c17.25,0,32.31,14,33.63,31.24l63.9,835c1.32,17.25-11.59,31.23-28.85,31.23H-281.67c-17.25,0-32.31-14-33.63-31.23l-63.91-835C-380.53-166.74-367.61-180.73-350.36-180.73Z" transform="translate(381.61 470.96)"/><path class="cls-1" d="M1005.17,719H-281.67c-18.41,0-34.52-15-35.93-33.37l-63.91-835a31.16,31.16,0,0,1,8.1-23.86A31,31,0,0,1-350.36-183H936.49c18.4,0,34.52,15,35.93,33.37l63.91,835A30.84,30.84,0,0,1,1005.17,719ZM-350.36-178.42A26.39,26.39,0,0,0-370-170a26.57,26.57,0,0,0-6.88,20.37l63.9,835c1.23,16.05,15.28,29.1,31.33,29.1H1005.17a26.21,26.21,0,0,0,26.55-28.75l-63.9-835c-1.23-16.05-15.29-29.1-31.33-29.1Z" transform="translate(381.61 470.96)"/><path class="cls-1" d="M653.71,474.5a2.32,2.32,0,0,1-2.3-2.14L647,415a2.31,2.31,0,1,1,4.6-.35L656,472a2.32,2.32,0,0,1-2.13,2.48Z" transform="translate(381.61 470.96)"/><path class="cls-1" d="M619,669.18H-193.37a48.5,48.5,0,0,1-48.14-44.6L-257.56,415a2.32,2.32,0,0,1,2.13-2.48A2.32,2.32,0,0,1-253,414.6l16.05,209.63a43.87,43.87,0,0,0,43.54,40.33H619a43.67,43.67,0,0,0,43.54-47l-5.19-67.79a2.29,2.29,0,0,1,2.12-2.47,2.33,2.33,0,0,1,2.48,2.12l5.19,67.79a48.28,48.28,0,0,1-48.14,52Z" transform="translate(381.61 470.96)"/><path class="cls-1" d="M-279.06,106.08a2.3,2.3,0,0,1-2.3-2.13l-9.21-120.27a48.42,48.42,0,0,1,12.73-36.49,48.37,48.37,0,0,1,35.42-15.47H-213A2.3,2.3,0,0,1-210.66-66a2.3,2.3,0,0,1-2.31,2.3h-29.45a43.24,43.24,0,0,0-32,14,43.22,43.22,0,0,0-11.5,33l9.2,120.27a2.29,2.29,0,0,1-2.12,2.47Z" transform="translate(381.61 470.96)"/><path class="cls-1" d="M124.15-63.67h-260a2.3,2.3,0,0,1-2.3-2.3,2.3,2.3,0,0,1,2.3-2.31h260A2.3,2.3,0,0,1,126.46-66,2.3,2.3,0,0,1,124.15-63.67Z" transform="translate(381.61 470.96)"/><path class="cls-1" d="M930.81,244.24H705.32a2.3,2.3,0,0,1-2.3-2.14l-5.95-77.69a2.3,2.3,0,0,1,2.3-2.48H924.86a2.3,2.3,0,0,1,2.3,2.13l6,77.69a2.31,2.31,0,0,1-2.3,2.49Zm-223.35-4.62H928.32l-5.6-73.08H701.86Z" transform="translate(381.61 470.96)"/><path class="cls-1" d="M941.65,385.88H716.16a2.3,2.3,0,0,1-2.3-2.13l-6-77.69a2.31,2.31,0,0,1,2.3-2.49H935.7a2.3,2.3,0,0,1,2.3,2.13l6,77.7a2.31,2.31,0,0,1-2.3,2.48ZM718.3,381.27H939.16l-5.6-73.08H712.7Z" transform="translate(381.61 470.96)"/><path class="cls-1" d="M952.49,527.53H727a2.31,2.31,0,0,1-2.3-2.13l-6-77.7a2.28,2.28,0,0,1,.61-1.74,2.32,2.32,0,0,1,1.69-.74H946.54a2.32,2.32,0,0,1,2.31,2.13l5.94,77.7a2.31,2.31,0,0,1-2.3,2.48Zm-223.35-4.62H950l-5.59-73.07H723.54Z" transform="translate(381.61 470.96)"/><path class="cls-1" d="M963.33,669.18H737.84a2.31,2.31,0,0,1-2.3-2.14l-5.95-77.69a2.32,2.32,0,0,1,.61-1.74,2.29,2.29,0,0,1,1.7-.74H957.38a2.31,2.31,0,0,1,2.31,2.13l5.94,77.69a2.31,2.31,0,0,1-2.3,2.49ZM740,664.56H960.84l-5.59-73.08H734.39Z" transform="translate(381.61 470.96)"/><path class="cls-1" d="M920.24,106.07H694.75a2.3,2.3,0,0,1-2.3-2.14l-13-169.73a2.28,2.28,0,0,1,.61-1.74,2.32,2.32,0,0,1,1.69-.74H907.24a2.3,2.3,0,0,1,2.3,2.13l13,169.73a2.31,2.31,0,0,1-2.3,2.49Zm-223.35-4.62H917.74L905.1-63.67H684.24Z" transform="translate(381.61 470.96)"/><path class="cls-2" d="M585.43,56s104.4,40.28,230-61.71c57.62-46.81,92.69-115.9,97.6-190a56.66,56.66,0,0,1,18.07-37.88L1009-283.2a4.16,4.16,0,0,1,4.89.3c1.52,1.24,1.32,3.73,1.24,4.74-.74,9-25.08,31-33.79,50.67-2.74,6.16-5.67,16-4.33,30.29l32.83-9.79a6.47,6.47,0,0,1,6.56,1.76c2,2.09,1.55,5.33,1.38,6.64-1.41,10.91-27.08,29-41.51,44.06a114.87,114.87,0,0,0-21.44,32.17c3.1,37.53,4.61,122-44.57,207.24-92,159.48-278.43,178-298,179.65Z" transform="translate(381.61 470.96)"/><path class="cls-1" d="M612.28,266.84a2.31,2.31,0,0,1-2.28-2L583.14,56.32a2.31,2.31,0,0,1,3.12-2.45c1,.4,104.7,38.53,227.7-61.35,56.6-46,91.87-114.62,96.75-188.34a58.79,58.79,0,0,1,18.81-39.42,2.1,2.1,0,0,1,.33-.26l77.91-49.65a6.46,6.46,0,0,1,7.6.46c2.45,2,2.17,5.43,2.07,6.71-.42,5.12-6.4,12.61-14,22.09-7.35,9.19-15.69,19.6-20,29.33-3.44,7.74-4.9,16.58-4.36,26.33l30.09-9a8.72,8.72,0,0,1,8.89,2.38c2.74,2.89,2.2,7,2,8.53-1.06,8.18-13,18.78-25.66,30-5.8,5.15-11.79,10.46-16.47,15.36a113.29,113.29,0,0,0-20.76,31C961.41-69.76,957,8.49,912.26,86c-91.83,159.19-278.77,179-299.78,180.79ZM588.2,59.39,614.29,262c29.14-2.77,205.92-25.67,294-178.3,44.31-76.81,48.53-154.37,44.27-205.9a2.28,2.28,0,0,1,.2-1.15,118,118,0,0,1,21.88-32.8c4.8-5,10.87-10.41,16.73-15.62,10.93-9.69,23.32-20.68,24.16-27.15.13-1,.45-3.46-.78-4.76a4.16,4.16,0,0,0-4.22-1.13L977.67-195a2.31,2.31,0,0,1-2-.3,2.3,2.3,0,0,1-1-1.7c-1.09-11.66.43-22.23,4.52-31.44,4.56-10.27,13.09-20.94,20.61-30.35,6.52-8.15,12.68-15.86,13-19.57.15-1.9-.14-2.55-.4-2.77a1.83,1.83,0,0,0-2.18-.13l-77.74,49.54a54.18,54.18,0,0,0-17.19,36.19c-5,75-40.85,144.84-98.45,191.62C751.52,49.17,692,63.25,653.48,65.72,620.06,67.85,596.76,62,588.2,59.39Z" transform="translate(381.61 470.96)"/><path class="cls-3" d="M-78,667.25H423.12c2.13-179.52,73.63-398.84,73.63-398.84L636.53,278.8,653.07,31.51S510.59,21,395.27,11c-77.86-6.71-222.18,21.5-307.7,40.54A188,188,0,0,0-22.06,122.42l-80.12,107,87,49.4C-89.74,404.61-89.08,564.59-78,667.25Z" transform="translate(381.61 470.96)"/><path class="cls-1" d="M267.9,314.2l21.43,355a13.05,13.05,0,0,1-7.42,12.68l-415.14,194a12.35,12.35,0,0,1-12-.84c-3.32-2.14-13.09-8.3-13.09-8.3l-14.31-357A13.07,13.07,0,0,1-165.24,497L251.59,296.63s7.36,5.11,10.87,7.62A13.15,13.15,0,0,1,267.9,314.2Z" transform="translate(381.61 470.96)"/><path class="cls-2" d="M254.7,306.33l21.44,355A13.08,13.08,0,0,1,268.72,674l-414,192.83c-8.12,3.78-17.44-2-18-11.15l-21.44-355A13.08,13.08,0,0,1-177.3,488l414-192.84C244.83,291.4,254.15,297.17,254.7,306.33Z" transform="translate(381.61 470.96)"/><path class="cls-1" d="M-150.55,870.36a14.68,14.68,0,0,1-7.56-2.12,15.46,15.46,0,0,1-7.48-12.39l-21.43-355a15.47,15.47,0,0,1,8.75-14.91l414-192.84a14.57,14.57,0,0,1,13.8.71A15.49,15.49,0,0,1,257,306.19l21.43,355a15.48,15.48,0,0,1-8.75,14.92L-144.31,869A14.74,14.74,0,0,1-150.55,870.36ZM242,296.31a10.22,10.22,0,0,0-4.29,1l-414,192.84a10.84,10.84,0,0,0-6.1,10.46l21.44,355a10.83,10.83,0,0,0,5.23,8.7,10,10,0,0,0,9.49.5l414-192.84a10.84,10.84,0,0,0,6.09-10.45l-21.44-355a10.83,10.83,0,0,0-5.23-8.7A10.11,10.11,0,0,0,242,296.31Z" transform="translate(381.61 470.96)"/><path class="cls-2" d="M226.48,278.32l21.43,355A13.08,13.08,0,0,1,240.49,646l-414,192.83c-8.12,3.79-17.44-2-18-11.15l-21.43-355A13.06,13.06,0,0,1-205.52,460l414-192.84C216.61,263.39,225.93,269.16,226.48,278.32Z" transform="translate(381.61 470.96)"/><path class="cls-1" d="M-178.78,842.35a14.68,14.68,0,0,1-7.56-2.12,15.45,15.45,0,0,1-7.47-12.39l-21.44-355a15.49,15.49,0,0,1,8.75-14.92l414-192.84a14.57,14.57,0,0,1,13.8.71,15.45,15.45,0,0,1,7.47,12.39l21.44,355a15.5,15.5,0,0,1-8.75,14.92l-414,192.83A14.7,14.7,0,0,1-178.78,842.35Zm392.52-574a10.14,10.14,0,0,0-4.28,1l-414,192.84a10.83,10.83,0,0,0-6.09,10.46l21.44,355a10.86,10.86,0,0,0,5.22,8.71,10.05,10.05,0,0,0,9.49.49l414-192.84a10.82,10.82,0,0,0,6.09-10.45l-21.43-355a10.87,10.87,0,0,0-5.24-8.7A10.11,10.11,0,0,0,213.74,268.3Z" transform="translate(381.61 470.96)"/><path class="cls-2" d="M202.89,309l18.89,312.79A11.56,11.56,0,0,1,215.24,633L-149.54,802.88a11.26,11.26,0,0,1-15.86-9.83l-18.89-312.79a11.54,11.54,0,0,1,6.54-11.18L187,299.17C194.19,295.84,202.4,300.92,202.89,309Z" transform="translate(381.61 470.96)"/><path class="cls-1" d="M-154.18,806.23a13.27,13.27,0,0,1-6.8-1.9,13.92,13.92,0,0,1-6.72-11.14L-186.59,480.4A13.92,13.92,0,0,1-178.72,467l364.78-169.9a13.06,13.06,0,0,1,12.41.64,13.89,13.89,0,0,1,6.72,11.14l18.89,312.79a13.92,13.92,0,0,1-7.87,13.41L-148.57,805A13.32,13.32,0,0,1-154.18,806.23ZM191.66,300.44a8.62,8.62,0,0,0-3.65.82L-176.77,471.17a9.26,9.26,0,0,0-5.21,8.95l18.89,312.79a9.27,9.27,0,0,0,4.47,7.45,8.54,8.54,0,0,0,8.1.42l364.79-169.9a9.28,9.28,0,0,0,5.2-9L200.59,309.14a9.29,9.29,0,0,0-4.48-7.45A8.64,8.64,0,0,0,191.66,300.44Z" transform="translate(381.61 470.96)"/><path class="cls-1" d="M124.15,677.6a2.31,2.31,0,0,1-1-4.4l90.48-42.15a9.28,9.28,0,0,0,5.21-8.95l-2.09-34.72a2.3,2.3,0,1,1,4.6-.28l2.1,34.73a13.92,13.92,0,0,1-7.87,13.41l-90.49,42.14A2.22,2.22,0,0,1,124.15,677.6Z" transform="translate(381.61 470.96)"/><path class="cls-1" d="M-165.8,466.22a2.31,2.31,0,0,1-2.09-1.33,2.31,2.31,0,0,1,1.11-3.07l59.86-28.06a2.3,2.3,0,0,1,3.07,1.11,2.3,2.3,0,0,1-1.1,3.07L-164.82,466A2.29,2.29,0,0,1-165.8,466.22Z" transform="translate(381.61 470.96)"/><path class="cls-2" d="M-75.64,242.31l125.79,74s-105,171.44,54.58,353l103.12-12.66s-22.17,16.54-45,20.68-27.72,28.46-27.72,28.46L182,731.45s-57.64,53.62-93.73,32.71S-248.18,518.26-75.64,242.31Z" transform="translate(381.61 470.96)"/><path class="cls-1" d="M107.41,771.34a39.74,39.74,0,0,1-20.3-5.19c-32.5-18.84-171.84-127.27-208.9-276.58-21-84.44-6.1-168,44.2-248.48a2.3,2.3,0,0,1,3.12-.77l125.79,74a2.31,2.31,0,0,1,1.07,1.43,2.34,2.34,0,0,1-.27,1.77c-.26.42-26.1,43.31-32.24,107.64-5.63,59.1,4.71,148.93,85.78,241.68l101.9-12.51a2.28,2.28,0,0,1,2.43,1.43,2.31,2.31,0,0,1-.77,2.71c-.92.69-22.86,16.91-46,21.1-17.73,3.21-23.91,19.76-25.44,25l45.29,24.86a2.29,2.29,0,0,1,1.18,1.74,2.31,2.31,0,0,1-.72,2C181.57,735,142,771.34,107.41,771.34ZM-74.87,245.44c-48.65,78.75-62.93,160.5-42.44,243C-80.63,636.2,57.26,743.51,89.43,762.16c30.15,17.47,77.42-20.64,88.58-30.26l-44-24.14a2.32,2.32,0,0,1-1.15-2.48c0-.26,5.47-25.92,29.57-30.29,13.86-2.51,27.61-9.8,36-14.92L105,671.54a2.26,2.26,0,0,1-2-.77c-83-94.39-93.48-186-87.69-246.3,5.51-57.38,26.5-98,31.7-107.36Z" transform="translate(381.61 470.96)"/><path class="cls-1" d="M274.05-63.45C261.53-55.65,241.87-43.4,220-49.94c-23.32-7-42.68-33.29-38.35-50.91,3.79-15.44,23.53-15.09,26.55-31.17,2.84-15.14-13.62-20.88-14.75-39.48-1.5-24.79,25.3-54.36,50.15-55.07,15.25-.43,16.79,10.37,34.42,11.43,24,1.44,28.79-18.14,56-20.78,19.64-1.9,35.67,6.46,49.17,13.51,20,10.45,33.18,17.31,34.42,28,2.54,22-48.88,25.51-96.37,81C304-93.13,297.49-78,274.05-63.45Z" transform="translate(381.61 470.96)"/><path class="cls-2" d="M355.08-45.09c18.53-50.28-21.89-114.21-24.86-119.48,0,0-22.86,19-53.35,17s-28,39.24-28,39.24c-16.58-3.66-19.47,7.49-15.37,30.26S260.25-62,260.25-62a80.93,80.93,0,0,0,9.86,9.9L231.39,5.22a100.27,100.27,0,0,1-42.6,35.6l-15.7,6.93a4.43,4.43,0,0,0,1.17,8.44C204.93,60.31,276.94,65.45,331,34a4.13,4.13,0,0,0-1.27-7.59l-12.58-2.68a13.82,13.82,0,0,1-9.36-19.91l19.63-37.55a106.48,106.48,0,0,0,17-2.08A14.53,14.53,0,0,0,355.08-45.09Z" transform="translate(381.61 470.96)"/><path class="cls-1" d="M220.26,61.55A353.65,353.65,0,0,1,174,58.48a6.73,6.73,0,0,1-1.8-12.84l15.69-6.93A97.8,97.8,0,0,0,229.48,3.93l37.58-55.59a83.39,83.39,0,0,1-7.65-7.74c-3.32.69-11.56,1.76-18.48-2.52-5.09-3.14-8.34-8.44-9.66-15.75C228.33-94,229.2-103.35,234.09-108c2.88-2.78,7-3.8,12.46-3.06,0-6.57,1.14-22.63,10.52-32,5.09-5.07,11.8-7.36,19.95-6.81,29.2,2,51.5-16.28,51.73-16.47a2.34,2.34,0,0,1,1.89-.49,2.28,2.28,0,0,1,1.59,1.14c.15.27.4.69.74,1.26,15.76,26.69,39.88,77.8,24.28,120.15a16.77,16.77,0,0,1-12.38,10.73,107.77,107.77,0,0,1-16,2.06l-19,36.38a11.5,11.5,0,0,0,7.81,16.58l12.56,2.68a6.42,6.42,0,0,1,5,5.32A6.32,6.32,0,0,1,332.16,36C297,56.44,254.23,61.55,220.26,61.55Zm40-125.83a2.27,2.27,0,0,1,1.77.83,79.13,79.13,0,0,0,9.58,9.62,2.3,2.3,0,0,1,.43,3L233.3,6.52a102.42,102.42,0,0,1-43.58,36.41L174,49.86a2.07,2.07,0,0,0-1.25,2.26,2,2,0,0,0,1.8,1.79C203.31,57.76,276,63.34,329.83,32a1.69,1.69,0,0,0,.84-1.81,1.8,1.8,0,0,0-1.44-1.53L316.67,26A16.12,16.12,0,0,1,305.73,2.74l19.64-37.55A2.32,2.32,0,0,1,327.32-36a104.27,104.27,0,0,0,16.62-2,12.19,12.19,0,0,0,9-7.8c15.27-41.45-10.78-93.72-23.37-115.26-6.48,4.71-26.8,17.6-52.84,15.88-6.76-.45-12.27,1.38-16.38,5.47-10.26,10.19-9.13,31.11-9.12,31.32a2.28,2.28,0,0,1-.8,1.89,2.32,2.32,0,0,1-2,.5c-5.32-1.17-9-.72-11.13,1.37-3.56,3.42-4,12-1.48,26.23,1.08,5.95,3.61,10.2,7.52,12.63,6.94,4.31,16.18,1.7,16.28,1.67A2.3,2.3,0,0,1,260.25-64.28Zm94.83,19.19h0Z" transform="translate(381.61 470.96)"/><path class="cls-1" d="M322.48-31.13c-16.53,0-31.79-9.12-32.5-9.55a2.31,2.31,0,0,1-.78-3.17,2.32,2.32,0,0,1,3.17-.78c.18.11,18,10.74,34.75,8.6a2.31,2.31,0,0,1,2.58,2,2.31,2.31,0,0,1-2,2.58A41.68,41.68,0,0,1,322.48-31.13Z" transform="translate(381.61 470.96)"/><path class="cls-2" d="M243.54,91.21a255.48,255.48,0,0,1-48.63-4.61c-43-8.34-68.25-24.7-69.31-25.39a2.31,2.31,0,0,1,2.53-3.86c1,.66,102.54,65.28,239.89-.15a2.31,2.31,0,0,1,2,4.17C322.18,84.15,278.86,91.21,243.54,91.21Z" transform="translate(381.61 470.96)"/><path class="cls-1" d="M1014.41,196.48c-1.83,0-3.66,0-5.48,0a2.31,2.31,0,0,1,0-4.61h0c9.1.14,18.38-.09,27.49-.69a2.31,2.31,0,0,1,.3,4.61C1029.38,196.23,1021.85,196.48,1014.41,196.48Zm-33.08-1.63-.23,0c-9.2-.91-18.49-2.22-27.59-3.9a2.31,2.31,0,1,1,.83-4.54c9,1.66,18.14,3,27.22,3.85a2.31,2.31,0,0,1-.23,4.61Zm82.82-2.08a2.31,2.31,0,0,1-.34-4.59c9-1.36,18.11-3.12,27-5.23a2.31,2.31,0,0,1,1.07,4.49c-9,2.14-18.2,3.93-27.36,5.31Zm-137.21-8a2.18,2.18,0,0,1-.61-.08c-8.92-2.43-17.86-5.28-26.56-8.46a2.31,2.31,0,0,1,1.59-4.34c8.58,3.14,17.39,5.95,26.18,8.35a2.3,2.3,0,0,1-.6,4.53ZM1118,180a2.31,2.31,0,0,1-.72-4.5c8.66-2.85,17.31-6.1,25.71-9.67a2.31,2.31,0,1,1,1.8,4.25c-8.51,3.62-17.28,6.91-26.07,9.8A2.27,2.27,0,0,1,1118,180ZM875,165.8a2.27,2.27,0,0,1-1-.21c-8.4-3.91-16.74-8.21-24.78-12.8a2.31,2.31,0,1,1,2.29-4c7.93,4.53,16.15,8.77,24.44,12.62a2.31,2.31,0,0,1-1,4.4Zm293.88-7.43a2.28,2.28,0,0,1-2-1.23,2.31,2.31,0,0,1,1-3.12c8.07-4.26,16.07-8.91,23.75-13.83a2.31,2.31,0,1,1,2.49,3.89c-7.79,5-15.9,9.71-24.08,14A2.29,2.29,0,0,1,1168.85,158.37Zm-341.94-20a2.3,2.3,0,0,1-1.3-.41c-7.63-5.24-15.13-10.87-22.3-16.74a2.31,2.31,0,1,1,2.92-3.57c7.07,5.78,14.47,11.34,22,16.5a2.31,2.31,0,0,1-1.31,4.22Zm388.53-9.81a2.31,2.31,0,0,1-1.4-4.15c7.25-5.53,14.36-11.45,21.13-17.58a2.31,2.31,0,0,1,3.1,3.42c-6.87,6.22-14.08,12.22-21.43,17.83A2.3,2.3,0,0,1,1215.44,128.57ZM784.08,103.35a2.29,2.29,0,0,1-1.61-.65c-6.65-6.43-13.12-13.22-19.21-20.19a2.31,2.31,0,0,1,3.47-3c6,6.87,12.39,13.57,18.95,19.92a2.3,2.3,0,0,1-1.6,4Zm472.38-11.9a2.3,2.3,0,0,1-1.69-3.88c6.25-6.69,12.29-13.7,17.94-20.85a2.31,2.31,0,1,1,3.62,2.87c-5.73,7.24-11.85,14.35-18.19,21.13A2.31,2.31,0,0,1,1256.46,91.45ZM747.64,61.74a2.31,2.31,0,0,1-1.86-.94c-5.5-7.45-10.75-15.22-15.61-23.09a2.31,2.31,0,1,1,3.93-2.43c4.79,7.77,10,15.43,15.39,22.78a2.31,2.31,0,0,1-1.85,3.68Zm543.13-13.69a2.32,2.32,0,0,1-1.92-3.59c5-7.6,9.83-15.52,14.23-23.53a2.31,2.31,0,1,1,4.05,2.23c-4.46,8.12-9.32,16.15-14.44,23.86A2.29,2.29,0,0,1,1290.77,48.05ZM718.61,14.66a2.29,2.29,0,0,1-2.06-1.26C712.37,5.15,708.49-3.38,705-12a2.31,2.31,0,0,1,1.27-3,2.31,2.31,0,0,1,3,1.28c3.43,8.45,7.25,16.87,11.37,25a2.3,2.3,0,0,1-2,3.35ZM1317.41-.46a2.21,2.21,0,0,1-.94-.2,2.3,2.3,0,0,1-1.17-3c3.71-8.35,7.11-17,10.1-25.59a2.31,2.31,0,0,1,2.94-1.42,2.31,2.31,0,0,1,1.42,2.94c-3,8.74-6.48,17.47-10.24,25.94A2.32,2.32,0,0,1,1317.41-.46ZM697.84-36.59a2.31,2.31,0,0,1-2.21-1.62c-2.74-8.84-5.14-17.9-7.13-26.95a2.3,2.3,0,0,1,1.76-2.75A2.31,2.31,0,0,1,693-66.15c2,8.92,4.33,17.86,7,26.57a2.31,2.31,0,0,1-1.52,2.89A2.33,2.33,0,0,1,697.84-36.59Zm637.71-16.14a2.22,2.22,0,0,1-.57-.07,2.31,2.31,0,0,1-1.67-2.81c2.26-8.83,4.17-17.88,5.67-26.89a2.3,2.3,0,0,1,2.66-1.9,2.31,2.31,0,0,1,1.9,2.66c-1.53,9.14-3.47,18.31-5.76,27.27A2.29,2.29,0,0,1,1335.55-52.73ZM685.94-90.6a2.32,2.32,0,0,1-2.29-2c-1.22-9.15-2.07-18.49-2.54-27.76a2.31,2.31,0,0,1,2.19-2.42,2.28,2.28,0,0,1,2.42,2.19c.46,9.14,1.3,18.35,2.51,27.37a2.31,2.31,0,0,1-2,2.6Zm658.75-16.68h-.19a2.31,2.31,0,0,1-2.11-2.49c.75-9.07,1.13-18.31,1.13-27.46a2.3,2.3,0,0,1,2.3-2.31,2.3,2.3,0,0,1,2.31,2.31c0,9.28-.38,18.65-1.14,27.84A2.32,2.32,0,0,1,1344.69-107.28Zm1.08-33.51a2.31,2.31,0,0,1-2.31-2.26c-.15-9.14-.69-18.37-1.6-27.45a2.31,2.31,0,0,1,2.06-2.52,2.31,2.31,0,0,1,2.53,2.06c.92,9.2,1.47,18.56,1.63,27.82a2.31,2.31,0,0,1-2.27,2.35Zm-662.59-5.06h-.08a2.31,2.31,0,0,1-2.23-2.38c.3-9.26,1-18.61,2-27.79a2.32,2.32,0,0,1,2.56-2,2.31,2.31,0,0,1,2,2.56c-1,9.05-1.73,18.28-2,27.41A2.3,2.3,0,0,1,683.18-145.85Zm657.06-50a2.29,2.29,0,0,1-2.26-1.88c-1.67-9-3.74-18-6.15-26.79a2.31,2.31,0,0,1,1.61-2.84,2.32,2.32,0,0,1,2.84,1.62c2.45,8.92,4.55,18.06,6.24,27.17a2.32,2.32,0,0,1-1.85,2.69A3.11,3.11,0,0,1,1340.24-195.82Zm-650.69-5a2.38,2.38,0,0,1-.46,0,2.32,2.32,0,0,1-1.81-2.72c1.84-9.1,4.07-18.2,6.66-27.07a2.29,2.29,0,0,1,2.86-1.57,2.31,2.31,0,0,1,1.57,2.86c-2.55,8.74-4.75,17.72-6.56,26.69A2.32,2.32,0,0,1,689.55-200.79Zm636.06-48.37a2.31,2.31,0,0,1-2.16-1.51c-3.14-8.55-6.68-17.08-10.54-25.37a2.3,2.3,0,0,1,1.11-3.06,2.3,2.3,0,0,1,3.07,1.11c3.92,8.41,7.51,17.06,10.69,25.73a2.3,2.3,0,0,1-1.37,3A2.21,2.21,0,0,1,1325.61-249.16ZM705-253.9a2.26,2.26,0,0,1-.83-.16,2.31,2.31,0,0,1-1.32-3c3.32-8.63,7-17.24,11.1-25.59a2.3,2.3,0,0,1,3.08-1.06,2.3,2.3,0,0,1,1.07,3.08c-4,8.23-7.67,16.72-10.94,25.23A2.32,2.32,0,0,1,705-253.9Zm597.28-45.38a2.3,2.3,0,0,1-2-1.16c-4.53-7.91-9.45-15.74-14.63-23.26a2.3,2.3,0,0,1,.59-3.21,2.31,2.31,0,0,1,3.21.59c5.25,7.63,10.25,15.57,14.84,23.59a2.32,2.32,0,0,1-.86,3.15A2.38,2.38,0,0,1,1302.27-299.28ZM729.13-303.7A2.32,2.32,0,0,1,728-304a2.31,2.31,0,0,1-.81-3.16c4.72-8,9.84-15.82,15.21-23.37a2.31,2.31,0,0,1,3.22-.54,2.31,2.31,0,0,1,.54,3.22c-5.3,7.44-10.34,15.2-15,23.05A2.32,2.32,0,0,1,729.13-303.7Zm541.77-41.13a2.3,2.3,0,0,1-1.79-.84c-5.78-7.06-11.93-14-18.29-20.53a2.31,2.31,0,0,1,.06-3.26,2.31,2.31,0,0,1,3.26,0c6.44,6.66,12.68,13.66,18.55,20.81a2.31,2.31,0,0,1-.33,3.25A2.29,2.29,0,0,1,1270.9-344.83Zm-509.69-3.95a2.27,2.27,0,0,1-1.48-.55,2.3,2.3,0,0,1-.28-3.25c6-7.06,12.32-14,18.87-20.53a2.32,2.32,0,0,1,3.27,0,2.32,2.32,0,0,1,0,3.27c-6.46,6.46-12.72,13.27-18.61,20.24A2.32,2.32,0,0,1,761.21-348.78Zm471.2-35.78a2.32,2.32,0,0,1-1.52-.57c-6.87-6-14.09-11.81-21.43-17.22a2.3,2.3,0,0,1-.49-3.23,2.32,2.32,0,0,1,3.23-.49c7.44,5.49,14.76,11.37,21.73,17.46a2.31,2.31,0,0,1,.22,3.26A2.32,2.32,0,0,1,1232.41-384.56Zm-432.09-3.36a2.28,2.28,0,0,1-1.76-.82,2.29,2.29,0,0,1,.27-3.25c7.08-6,14.48-11.76,22-17.12a2.32,2.32,0,0,1,3.22.54,2.31,2.31,0,0,1-.54,3.22c-7.41,5.29-14.71,11-21.69,16.88A2.31,2.31,0,0,1,800.32-387.92Zm387.55-29.47a2.31,2.31,0,0,1-1.21-.34c-7.78-4.79-15.86-9.3-24-13.42a2.32,2.32,0,0,1-1-3.1,2.33,2.33,0,0,1,3.11-1c8.26,4.17,16.45,8.76,24.34,13.61a2.31,2.31,0,0,1,.75,3.18A2.3,2.3,0,0,1,1187.87-417.39ZM845.35-420a2.3,2.3,0,0,1-2-1.13,2.3,2.3,0,0,1,.81-3.16c8-4.73,16.2-9.17,24.52-13.22a2.31,2.31,0,0,1,3.09,1.06,2.31,2.31,0,0,1-1.07,3.09c-8.2,4-16.34,8.38-24.19,13A2.27,2.27,0,0,1,845.35-420Zm293.12-22.31a2.34,2.34,0,0,1-.86-.16c-8.49-3.43-17.21-6.53-25.92-9.22a2.31,2.31,0,0,1-1.52-2.89,2.29,2.29,0,0,1,2.88-1.52c8.84,2.73,17.68,5.87,26.29,9.35a2.3,2.3,0,0,1,1.27,3A2.29,2.29,0,0,1,1138.47-442.35Zm-243.4-1.86a2.31,2.31,0,0,1-2.15-1.47,2.31,2.31,0,0,1,1.32-3c8.64-3.33,17.52-6.34,26.41-8.94a2.31,2.31,0,0,1,2.86,1.57,2.32,2.32,0,0,1-1.57,2.87c-8.76,2.55-17.52,5.52-26,8.81A2.39,2.39,0,0,1,895.07-444.21Zm190.54-14.47a2.83,2.83,0,0,1-.5-.05c-8.89-1.95-18-3.55-27.07-4.75a2.31,2.31,0,0,1-2-2.59,2.31,2.31,0,0,1,2.59-2c9.19,1.22,18.43,2.84,27.45,4.82a2.3,2.3,0,0,1,1.76,2.75A2.32,2.32,0,0,1,1085.61-458.68Zm-137.45-1a2.32,2.32,0,0,1-2.26-1.85,2.33,2.33,0,0,1,1.81-2.73c9-1.83,18.31-3.31,27.52-4.39a2.32,2.32,0,0,1,2.56,2,2.31,2.31,0,0,1-2,2.56c-9.09,1.06-18.22,2.52-27.15,4.33A2.4,2.4,0,0,1,948.16-459.72Zm82.62-6.23h-.11c-9.12-.44-18.5-.51-27.5-.21h-.08a2.31,2.31,0,0,1-2.3-2.24,2.3,2.3,0,0,1,2.23-2.38c9.11-.31,18.62-.24,27.87.21a2.3,2.3,0,0,1,2.19,2.41A2.31,2.31,0,0,1,1030.78-465.95Z" transform="translate(381.61 470.96)"/><path class="cls-2" d="M1014.41-420.35c-156.35,0-283.11,126.75-283.11,283.11s126.76,283.11,283.11,283.11,283.11-126.76,283.11-283.11S1170.77-420.35,1014.41-420.35Zm0,513.25c-127.1,0-230.14-103-230.14-230.14s103-230.15,230.14-230.15,230.15,103,230.15,230.15S1141.52,92.9,1014.41,92.9Z" transform="translate(381.61 470.96)"/><path class="cls-1" d="M1014.41,148.17C857,148.17,729,20.14,729-137.24s128-285.42,285.41-285.42,285.42,128,285.42,285.42S1171.79,148.17,1014.41,148.17Zm0-566.21c-154.83,0-280.8,126-280.8,280.8s126,280.8,280.8,280.8,280.8-126,280.8-280.8S1169.24-418,1014.41-418Zm0,513.25C886.24,95.21,782-9.07,782-137.24S886.24-369.7,1014.41-369.7s232.46,104.28,232.46,232.46S1142.59,95.21,1014.41,95.21Zm0-460.29c-125.63,0-227.84,102.2-227.84,227.84S888.78,90.6,1014.41,90.6s227.84-102.21,227.84-227.84S1140-365.08,1014.41-365.08Z" transform="translate(381.61 470.96)"/><path class="cls-2" d="M845.93-294l-37.47-37.47a284.37,284.37,0,0,0-34.24,44.34L820-260.41A231.52,231.52,0,0,1,845.93-294Z" transform="translate(381.61 470.96)"/><path class="cls-1" d="M820-258.1a2.26,2.26,0,0,1-1.16-.32l-45.75-26.73a2.29,2.29,0,0,1-1.08-1.44,2.26,2.26,0,0,1,.29-1.77,287,287,0,0,1,34.51-44.7,2.3,2.3,0,0,1,1.65-.73,2.48,2.48,0,0,1,1.66.68l37.47,37.47a2.31,2.31,0,0,1,.06,3.21,229.7,229.7,0,0,0-25.7,33.26A2.29,2.29,0,0,1,820-258.1Zm-42.52-29.83,41.78,24.41a233.68,233.68,0,0,1,23.5-30.42l-34.21-34.22A282.92,282.92,0,0,0,777.45-287.93Z" transform="translate(381.61 470.96)"/><path class="cls-2" d="M1022.7-420.22v53A229.2,229.2,0,0,1,1166.43-310l36.41-38.5A281.91,281.91,0,0,0,1022.7-420.22Z" transform="translate(381.61 470.96)"/><path class="cls-1" d="M1166.43-307.72a2.27,2.27,0,0,1-1.52-.57,228,228,0,0,0-142.29-56.63,2.3,2.3,0,0,1-2.23-2.31v-53a2.31,2.31,0,0,1,.7-1.66,2.49,2.49,0,0,1,1.67-.65,285.5,285.5,0,0,1,181.62,72.29,2.28,2.28,0,0,1,.76,1.63,2.31,2.31,0,0,1-.62,1.68l-36.41,38.49A2.3,2.3,0,0,1,1166.43-307.72ZM1025-369.44a232.77,232.77,0,0,1,141.27,56.22l33.24-35.15A280.9,280.9,0,0,0,1025-417.84Z" transform="translate(381.61 470.96)"/><path class="cls-1" d="M1178.47-298.63a229.36,229.36,0,0,1,66.09,161.39,230.38,230.38,0,0,1-7.28,57.62L1288-64.1a283.16,283.16,0,0,0,9.56-73.14,282.22,282.22,0,0,0-82.63-199.9Z" transform="translate(381.61 470.96)"/><path class="cls-1" d="M1182.89,19.52,1220.36,57a282.8,282.8,0,0,0,62.86-105.21l-50.65-15.51A230,230,0,0,1,1182.89,19.52Z" transform="translate(381.61 470.96)"/><path class="cls-1" d="M850.36,24.15a229.39,229.39,0,0,1-66.09-161.39A229.17,229.17,0,0,1,811.6-246.11l-45.76-26.73a281.77,281.77,0,0,0-34.54,135.6A282.22,282.22,0,0,0,813.94,62.65Z" transform="translate(381.61 470.96)"/><path class="cls-2" d="M1171.18,31.24a229.31,229.31,0,0,1-148.48,61.5v53a282.13,282.13,0,0,0,186-77Z" transform="translate(381.61 470.96)"/><path class="cls-1" d="M1022.7,148a2.3,2.3,0,0,1-2.31-2.3v-53a2.31,2.31,0,0,1,2.23-2.31,227.55,227.55,0,0,0,147-60.88,2.3,2.3,0,0,1,3.21.06l37.47,37.47a2.35,2.35,0,0,1,.68,1.66,2.3,2.3,0,0,1-.73,1.65A284.85,284.85,0,0,1,1022.76,148ZM1025,95v48.39a280.22,280.22,0,0,0,180.32-74.7l-34.22-34.21A232.28,232.28,0,0,1,1025,95Z" transform="translate(381.61 470.96)"/><path class="cls-1" d="M857.65-305.72a229.24,229.24,0,0,1,148.48-61.51v-53a282.05,282.05,0,0,0-186,77Z" transform="translate(381.61 470.96)"/><path class="cls-2" d="M1006.13,145.74v-53a229.24,229.24,0,0,1-143.74-57.2L826,74A282,282,0,0,0,1006.13,145.74Z" transform="translate(381.61 470.96)"/><path class="cls-1" d="M1006.13,148h-.07A285.42,285.42,0,0,1,824.45,75.75a2.29,2.29,0,0,1-.77-1.62,2.32,2.32,0,0,1,.63-1.69L860.72,34a2.31,2.31,0,0,1,3.2-.15,228,228,0,0,0,142.29,56.63,2.32,2.32,0,0,1,2.23,2.31v53a2.3,2.3,0,0,1-2.31,2.3ZM829.3,73.88a280.9,280.9,0,0,0,174.52,69.47V95A232.74,232.74,0,0,1,862.55,38.73Z" transform="translate(381.61 470.96)"/><path class="cls-1" d="M1014.41,46.42a182.68,182.68,0,0,1-68.08-13A2.31,2.31,0,0,1,948,29.1a178.15,178.15,0,0,0,66.37,12.7A178.48,178.48,0,0,0,1184.92-82.45a2.32,2.32,0,0,1,2.9-1.49,2.31,2.31,0,0,1,1.5,2.9A183.1,183.1,0,0,1,1014.41,46.42Z" transform="translate(381.61 470.96)"/><path class="cls-1" d="M1190.77-177.39a2.3,2.3,0,0,1-2.24-1.77,177.64,177.64,0,0,0-17-44,2.32,2.32,0,0,1,.92-3.14,2.31,2.31,0,0,1,3.13.92A182.83,182.83,0,0,1,1193-180.24a2.32,2.32,0,0,1-1.71,2.79A2.48,2.48,0,0,1,1190.77-177.39Z" transform="translate(381.61 470.96)"/><path class="cls-1" d="M897.82,4a2.34,2.34,0,0,1-1.49-.54,183.36,183.36,0,0,1-65.58-140.68c0-101.28,82.39-183.67,183.66-183.67a183.78,183.78,0,0,1,56,8.69,2.31,2.31,0,0,1,1.49,2.9,2.28,2.28,0,0,1-2.9,1.49,179.16,179.16,0,0,0-54.57-8.46c-98.73,0-179,80.32-179,179.05A178.78,178.78,0,0,0,899.3-.09a2.3,2.3,0,0,1,.29,3.25A2.33,2.33,0,0,1,897.82,4Z" transform="translate(381.61 470.96)"/><polygon class="cls-2" points="1701.98 1240.01 631.91 1240.01 631.91 1281.8 798.76 1281.8 668.58 1825.99 696.99 1825.99 815.53 1334.11 934.07 1825.99 962.49 1825.99 832.3 1281.8 1701.98 1281.8 1701.98 1240.01"/><path class="cls-1" d="M580.88,1357.34H552.46a2.31,2.31,0,0,1-2.24-1.76L433.92,873,317.63,1355.58a2.31,2.31,0,0,1-2.25,1.76H287a2.27,2.27,0,0,1-1.81-.88,2.3,2.3,0,0,1-.44-2L414.23,813.15H250.3a2.3,2.3,0,0,1-2.3-2.31V769.05a2.3,2.3,0,0,1,2.3-2.3H1320.37a2.3,2.3,0,0,1,2.31,2.3v41.79a2.3,2.3,0,0,1-2.31,2.31H453.62l129.5,541.35a2.26,2.26,0,0,1-.43,2A2.29,2.29,0,0,1,580.88,1357.34Zm-26.6-4.61H578L448.45,811.38a2.29,2.29,0,0,1,.43-2,2.33,2.33,0,0,1,1.81-.88h867.37V771.36H252.61v37.17H417.15a2.31,2.31,0,0,1,2.25,2.85L289.89,1352.73h23.67L431.68,862.61a2.31,2.31,0,0,1,4.49,0Z" transform="translate(381.61 470.96)"/><polygon class="cls-2" points="1435.58 1825.99 1554.12 1334.05 1672.66 1825.99 1701.07 1825.99 1570.83 1281.49 1537.42 1281.44 1407.16 1825.99 1435.58 1825.99"/><path class="cls-1" d="M1319.47,1357.34h-28.42a2.31,2.31,0,0,1-2.24-1.76l-116.3-482.64-116.29,482.64a2.31,2.31,0,0,1-2.25,1.76h-28.41a2.27,2.27,0,0,1-1.81-.88,2.3,2.3,0,0,1-.44-2L1153.57,810a2.3,2.3,0,0,1,2.24-1.77l33.41.05a2.31,2.31,0,0,1,2.25,1.77l130.24,544.5a2.26,2.26,0,0,1-.43,2A2.3,2.3,0,0,1,1319.47,1357.34Zm-26.6-4.61h23.67L1187.4,812.84l-29.77,0-129.15,539.93h23.67l118.12-490.18a2.31,2.31,0,0,1,4.49,0Z" transform="translate(381.61 470.96)"/><path class="cls-2" d="M1044.17,804.56a2.3,2.3,0,0,1-2.31-2.3V776.48a2.31,2.31,0,1,1,4.62,0v25.78A2.3,2.3,0,0,1,1044.17,804.56Z" transform="translate(381.61 470.96)"/><path class="cls-2" d="M972.26,1248.14l-11,55a3.24,3.24,0,0,1-3.73,2.71l-32.31-8.22a2.85,2.85,0,0,1-1.91-3.43l9.31-49.19Z" transform="translate(381.61 470.96)"/><path class="cls-1" d="M958.11,1308.28a4.5,4.5,0,0,1-1.2-.16l-32.3-8.21a5.13,5.13,0,0,1-3.62-6.1l9.31-49.19a2.35,2.35,0,0,1,2.45-1.87l39.69,3.09a2.29,2.29,0,0,1,2.08,2.75l-11,55.05a5.88,5.88,0,0,1-2.61,3.82A5.13,5.13,0,0,1,958.11,1308.28Zm-23.66-60.77-8.92,47.16c-.08.42.07.73.21.77l32.31,8.21a.51.51,0,0,0,.35-.09,1.28,1.28,0,0,0,.54-.83l10.54-52.49Z" transform="translate(381.61 470.96)"/><polygon class="cls-2" points="1458.01 1671.88 1485.23 1716.63 1454.13 1733.11 1426.13 1693.08 1458.01 1671.88"/><path class="cls-1" d="M1072.52,1264.46a2.29,2.29,0,0,1-1.89-1l-28-40a2.32,2.32,0,0,1,.62-3.25l31.88-21.19a2.29,2.29,0,0,1,1.78-.33,2.32,2.32,0,0,1,1.47,1l27.22,44.75a2.3,2.3,0,0,1,.25,1.81,2.33,2.33,0,0,1-1.14,1.43l-31.11,16.48A2.3,2.3,0,0,1,1072.52,1264.46Zm-24.75-41.73,25.47,36.42,27.14-14.38-24.7-40.6Z" transform="translate(381.61 470.96)"/><path class="cls-2" d="M972.71,1279c2.21,7.91,6.87,30.22,8.82,43.64a16.8,16.8,0,0,1-12.24,18.58c-23,6.23-78.06,6-123.87,8-3.14.14-8.92-1.39-11.49-9-8.72-25.78,39.43-33.77,87-60a2.76,2.76,0,0,1,2.95.15c.54.39,1.24.87,2.06,1.39,8.28,5.27,22,5.27,30.45.22l9.5-5.71A4.58,4.58,0,0,1,972.71,1279Z" transform="translate(381.61 470.96)"/><path class="cls-1" d="M845,1351.51c-4.59,0-10.63-2.73-13.28-10.57-6.75-20,16.72-30.14,46.44-43,12.81-5.54,27.33-11.83,41.67-19.73a5,5,0,0,1,5.4.3c.52.38,1.18.83,2,1.32,7.47,4.75,20.3,4.84,28,.19l9.5-5.71a6.89,6.89,0,0,1,10.2,4.08h0c2.3,8.23,6.94,30.56,8.88,43.92a19.09,19.09,0,0,1-13.92,21.15c-17.38,4.7-51.71,5.73-88,6.81-12.09.36-24.59.73-36.32,1.25Zm77.3-69.34a.47.47,0,0,0-.25.07c-14.53,8-29.15,14.33-42.05,19.92-31.49,13.63-49,22.09-43.91,37.3,2.49,7.34,8.08,7.47,9.21,7.43,11.76-.52,24.28-.89,36.38-1.25,34.48-1,70.13-2.1,87-6.65a14.49,14.49,0,0,0,10.55-16c-1.86-12.86-6.51-35.32-8.75-43.35a2.3,2.3,0,0,0-1.37-1.53,2.27,2.27,0,0,0-2,.17l-9.5,5.71c-9.2,5.53-24,5.42-32.88-.25-.86-.56-1.6-1.06-2.17-1.47A.4.4,0,0,0,922.32,1282.17Z" transform="translate(381.61 470.96)"/><path class="cls-2" d="M982.92,1328.7c0,.23.07.4.08.47,1.22,8.42-6.77,13.59-14.41,17.18-22.68,10.65-114.28,4.55-117.82,4.31h-.19c-1.14,0-12.77,0-16.12-7.21a12,12,0,0,1-.83-3.35,16.42,16.42,0,0,1,.3-5.8,2.79,2.79,0,0,1,3.4-2.13c17,4.35,56.88,7.19,96.37,1.42,14.57-2.12,37.83-8.65,43.95-12.31a2.79,2.79,0,0,1,4.17,1.89C982.14,1324.76,982.53,1326.71,982.92,1328.7Z" transform="translate(381.61 470.96)"/><path class="cls-1" d="M908.17,1354.91c-28.37,0-55.48-1.81-57.56-2-1.43,0-14.3,0-18.25-8.55a14.16,14.16,0,0,1-1-4,18.76,18.76,0,0,1,.34-6.6,5.19,5.19,0,0,1,2.33-3.28,5,5,0,0,1,3.9-.58c14.73,3.77,53.68,7.47,95.46,1.37,14.23-2.08,37.18-8.47,43.09-12a5.1,5.1,0,0,1,4.68-.28,5.15,5.15,0,0,1,3,3.7l1.09,5.55h0l.1.54c1.5,10.29-8.25,16.13-15.71,19.63C958.73,1353.53,933,1354.91,908.17,1354.91Zm-57.61-6.57h.36c32.61,2.22,99,4.23,116.69-4.09,9.87-4.63,13.92-9.18,13.11-14.76l-1.16-5.89a.51.51,0,0,0-.3-.38.42.42,0,0,0-.43,0c-6.4,3.83-29.85,10.42-44.79,12.61-37.85,5.52-78.37,3.36-97.28-1.47a.42.42,0,0,0-.34,0,.56.56,0,0,0-.24.35,14.17,14.17,0,0,0-.26,5,9.29,9.29,0,0,0,.63,2.68c2.78,6,13.52,5.9,14,5.87Z" transform="translate(381.61 470.96)"/><path class="cls-1" d="M917.7,1303.36a2.29,2.29,0,0,1-1.4-.47l-13.89-10.58a2.31,2.31,0,0,1,2.79-3.68l13.9,10.58a2.31,2.31,0,0,1-1.4,4.15Z" transform="translate(381.61 470.96)"/><path class="cls-1" d="M899.23,1310.93a2.32,2.32,0,0,1-1.38-.47l-12.16-9.12a2.31,2.31,0,1,1,2.78-3.69l12.15,9.12a2.31,2.31,0,0,1-1.39,4.16Z" transform="translate(381.61 470.96)"/><path class="cls-2" d="M1070.48,1252.6l35.78-5.18,21.12,44.82a15.75,15.75,0,0,1-5.65,19.41,154.49,154.49,0,0,1-34.49,16.46c-26.51,8.52-53,33-75.77,21s-21.29-12.91-22.43-21.14,21.45-24.44,36.74-35.1C1038.26,1284.11,1070.48,1252.6,1070.48,1252.6Z" transform="translate(381.61 470.96)"/><path class="cls-1" d="M1024.83,1354.6a30.31,30.31,0,0,1-14.44-3.5c-20.75-10.93-22.42-13-23.43-21.26-.07-.5-.13-1-.21-1.61-1.15-8.32,14.24-20.93,37.71-37.3,12.18-8.5,44.09-39.66,44.41-40a2.32,2.32,0,0,1,1.28-.63l35.78-5.18a2.26,2.26,0,0,1,2.42,1.3l21.12,44.81a18.15,18.15,0,0,1-6.5,22.35,158.16,158.16,0,0,1-35,16.71c-8.19,2.63-16.54,6.9-24.63,11C1050.51,1347.89,1037.38,1354.6,1024.83,1354.6Zm46.73-99.82c-4.41,4.3-32.71,31.73-44.46,39.93-9.1,6.35-36.78,25.66-35.78,32.89.08.6.15,1.15.22,1.68.73,5.9.88,7.13,21,17.74,14.55,7.67,31.13-.81,48.68-9.79,8.25-4.21,16.77-8.57,25.32-11.32a152.9,152.9,0,0,0,34-16.21,13.38,13.38,0,0,0,4.79-16.49L1104.9,1250Z" transform="translate(381.61 470.96)"/><path class="cls-1" d="M1058.74,1291.52a2.24,2.24,0,0,1-1.26-.38l-16.13-10.49a2.31,2.31,0,1,1,2.51-3.87l16.14,10.49a2.31,2.31,0,0,1-1.26,4.25Z" transform="translate(381.61 470.96)"/><path class="cls-1" d="M1047.26,1303.54a2.28,2.28,0,0,1-1.25-.37l-16.14-10.5a2.3,2.3,0,1,1,2.52-3.86l16.13,10.49a2.31,2.31,0,0,1-1.26,4.24Z" transform="translate(381.61 470.96)"/><path class="cls-2" d="M990.59,1334.08s17.94,13.07,37.69,6.25,99.1-48.62,99.1-48.62l4.1,9a9.68,9.68,0,0,1-4.08,12.43c-19.77,11.14-72.54,39.52-100,41.39C993.19,1356.84,990.59,1334.08,990.59,1334.08Z" transform="translate(381.61 470.96)"/><path class="cls-1" d="M1022.67,1357c-31.41,0-34.34-22.41-34.37-22.64a2.31,2.31,0,0,1,3.65-2.13c.17.12,17.24,12.26,35.57,5.93,19.36-6.69,98-48.07,98.78-48.48a2.29,2.29,0,0,1,1.83-.14,2.26,2.26,0,0,1,1.35,1.22l4.1,9a12.06,12.06,0,0,1-5,15.4c-21.13,11.91-73.27,39.79-101,41.68Q1025,1357,1022.67,1357Zm-27.94-17.79c3.1,5.94,11.29,14.44,32.52,13,26.75-1.82,78.16-29.35,99-41.1a7.4,7.4,0,0,0,3.12-9.46l-3.09-6.76c-13.1,6.87-79.17,41.37-97.26,47.62C1014.88,1347.39,1001.81,1342.78,994.73,1339.2Z" transform="translate(381.61 470.96)"/><path class="cls-1" d="M1046.6,896.74s-123.23,50.11-168.7,105.19c-43.44,52.62,152.24,243.74,152.24,243.74.24.9,66.49-36.53,66.49-37.68l-50.75-110.69c-20-43.17-60.08-67.84-43.74-83,14.86-13.8,97.5-6.67,139.91-8.15,75.35-2.62,74.63-112.46,74.63-112.46Z" transform="translate(381.61 470.96)"/><path class="cls-1" d="M941.62,1033.18c-10.64,39.79-20.75,159.5-23.08,226.45,0,.92,67.81,1.57,68,.36.68-5.89,50.83-187.18,78.84-235.12,14.88-25.46,110.85-18.16,132.26-22.41,57.16-11.35,53.42-126.75,53.42-126.75L983.39,982.58C960.51,986.07,947.65,1010.63,941.62,1033.18Z" transform="translate(381.61 470.96)"/><path class="cls-2" d="M997.77,1214.42a2.32,2.32,0,0,1-1.81-.87l-53.66-67.12a2.31,2.31,0,0,1,3.61-2.88l53.66,67.12a2.31,2.31,0,0,1-1.8,3.75Z" transform="translate(381.61 470.96)"/><path class="cls-4" d="M1268.15,693s-2.3-92.07-56.44-109.94a51.53,51.53,0,0,0-14.26-2.46l-47.77-1.8c-14.17-.11-25.92,3.31-41.08,8.87-12.68,4.64-26.8,13.28-35,20.77-36.33,33-36.7,143.8-68.12,141.19-10.55-.88-28.2-18.51-45.68-40.07-14-17.27-38.11-38.47-38.11-38.47l-42,21.2A394.34,394.34,0,0,1,906,745c15.36,38.12,40.57,70.12,72.15,97.44a34.26,34.26,0,0,0,37.77,4.76c20.14-10,50.31-26.2,69.06-41.48a71.43,71.43,0,0,1-16.24,68.19,107.73,107.73,0,0,1-16.44,14.7,13.12,13.12,0,0,0-3.14,18c6.33,9.41,19,20.24,43.11,17.71,31.7-3.34,122-3,161.85-2.63A18.81,18.81,0,0,0,1273,902.24Z" transform="translate(381.61 470.96)"/><path class="cls-1" d="M1085.27,926.9c-20.6,0-32-10.1-38-19.1a15.47,15.47,0,0,1,3.73-21.12A105.43,105.43,0,0,0,1067,872.29a69.37,69.37,0,0,0,16.59-62.61C1065,824.14,1037.34,839,1017,849.22a36.53,36.53,0,0,1-40.32-5.09c-33.78-29.23-58.27-62.3-72.78-98.31a390.35,390.35,0,0,0-26.18-52.4,2.28,2.28,0,0,1-.23-1.82,2.33,2.33,0,0,1,1.18-1.41l42-21.2a2.32,2.32,0,0,1,2.56.33c.25.22,24.42,21.52,38.38,38.75,19.93,24.58,35.58,38.51,44.08,39.22,14.45,1.1,22.39-28.2,30.83-59.34,8.25-30.45,17.61-65,35.54-81.26,9-8.14,23.36-16.68,35.8-21.23,15.81-5.79,27.67-9.19,41.9-9l47.84,1.81a54.19,54.19,0,0,1,14.89,2.56c55.06,18.18,57.93,108.26,58,112.09h0l4.84,209.28a21.08,21.08,0,0,1-6.11,15.45,20.75,20.75,0,0,1-15.09,6.25c-38-.32-129.8-.72-161.59,2.62A68.08,68.08,0,0,1,1085.27,926.9Zm-.3-123.53a2.35,2.35,0,0,1,.69.1,2.32,2.32,0,0,1,1.53,1.56,74,74,0,0,1-16.76,70.4,109.77,109.77,0,0,1-16.8,15,10.81,10.81,0,0,0-2.57,14.77c6,8.95,18,19.1,41,16.7,32-3.37,124-3,162.12-2.64a16.39,16.39,0,0,0,11.76-4.88,16.6,16.6,0,0,0,4.79-12.11L1265.84,693c0-1-2.92-90.67-54.85-107.81a49.25,49.25,0,0,0-13.63-2.34l-47.76-1.8h-.66c-13.17,0-24.12,3.09-39.55,8.73-11.75,4.3-25.85,12.66-34.28,20.32-16.94,15.39-26.11,49.21-34.19,79-9.35,34.47-17.39,64.26-35.67,62.73-10-.84-26-14.61-47.29-40.92-12-14.77-31.7-32.7-36.67-37.15l-38.4,19.38a389.3,389.3,0,0,1,25.24,50.89c14.24,35.32,38.3,67.81,71.52,96.55a31.94,31.94,0,0,0,35.23,4.45c21.24-10.59,50.38-26.34,68.63-41.21A2.3,2.3,0,0,1,1085,803.37Z" transform="translate(381.61 470.96)"/><path class="cls-1" d="M1084.36,808.47a2.31,2.31,0,0,1-1.43-4.13c5.4-4.23,21.83-19.48,30.43-32.1a2.31,2.31,0,0,1,3.82,2.6c-8.9,13-25.84,28.77-31.4,33.13A2.24,2.24,0,0,1,1084.36,808.47Z" transform="translate(381.61 470.96)"/><path class="cls-2" d="M916.4,672.23,910,637.5s-5.25-26.5-11.66-30c-4.72-2.6-7.86,7.24-6.87,19.65A1.83,1.83,0,0,1,888,628c-3.34-7.39-6.84-16.06-7.14-20.57-.58-8.83-2.33-27.08-10.5-25.31s-22.74,30-11.66,54.16,36.74,46.51,36.74,46.51Z" transform="translate(381.61 470.96)"/><path class="cls-1" d="M895.4,685.14a2.33,2.33,0,0,1-1.51-.57c-1.07-.93-26.17-23-37.33-47.29-7.35-16-3.94-33.73,1.69-45,3.47-6.93,7.8-11.56,11.58-12.38a6.87,6.87,0,0,1,5.73,1.25c4.19,3.16,6.59,11.48,7.56,26.17.21,3.06,2.28,9.18,5.88,17.37-.27-7.63.91-16.4,5.14-19.13a5,5,0,0,1,5.29-.11c7,3.85,11.91,27,12.82,31.6l6.42,34.76a2.29,2.29,0,0,1-1.23,2.48l-21,10.6A2.25,2.25,0,0,1,895.4,685.14Zm-24-100.8a3.26,3.26,0,0,0-.6.07c-1.87.4-5.31,3.69-8.43,9.93-5.15,10.31-8.29,26.5-1.62,41,9.43,20.54,29.94,40.06,35,44.7L913.82,671l-6.11-33c-2.09-10.54-6.73-26.35-10.5-28.43-.35-.19-.44-.14-.56-.06-1.71,1.11-3.68,7.81-2.9,17.5a4.14,4.14,0,0,1-7.89,2.06c-4.61-10.17-7.08-17.36-7.34-21.37-1.06-16-3.71-21.25-5.74-22.78A2.19,2.19,0,0,0,871.41,584.34Z" transform="translate(381.61 470.96)"/><path class="cls-2" d="M1132.82,592.94a1.48,1.48,0,0,1-.48-2.72c4-2.3,9.6-6.48,9.25-11.52l.86-19.48a5.48,5.48,0,0,0-3.88-5.13l-14-4.26a5.07,5.07,0,0,1-3.57-5l.43-20.66-6.79-5.48a1.27,1.27,0,0,1-.21-1.76l9.82-13c3.18-4.87,6.1-16.34,8.9-15.68,0,0,58-9.15,62.72,19.69a17.94,17.94,0,0,1-2.8,12.66l-4.91,7.53a37.4,37.4,0,0,0-6,25.64c.42,2.82,7,28.73,7,28.73s11.65,5.28,18.77,7.25A1.65,1.65,0,0,1,1208,593l-13,3.11a97,97,0,0,1-39.67,1Z" transform="translate(381.61 470.96)"/><path class="cls-1" d="M1172.8,601a99.34,99.34,0,0,1-17.9-1.64l-22.49-4.11a3.79,3.79,0,0,1-1.23-7c5.35-3.09,8.31-6.51,8.11-9.36a2.25,2.25,0,0,1,0-.26l.85-19.49a3.14,3.14,0,0,0-2.24-2.82l-14-4.25a7.41,7.41,0,0,1-5.21-7.23l.41-19.52-5.91-4.78a3.55,3.55,0,0,1-.6-4.94l9.82-13a51.51,51.51,0,0,0,3.22-6.86c2.34-5.6,4.23-10.08,7.52-9.77,5.45-.81,60.16-8.19,65,21.66a20.2,20.2,0,0,1-3.14,14.28l-4.91,7.54a34.87,34.87,0,0,0-5.66,24c.28,1.91,4,17,6.65,27.41,3,1.3,11.76,5.11,17.43,6.67a4,4,0,0,1,.3,7.53l-.26.08-13,3.11A98.9,98.9,0,0,1,1172.8,601Zm-37.43-9.9,20.36,3.72a94,94,0,0,0,38.73-1l10.44-2.49c-7.09-2.3-16.3-6.46-16.73-6.66a2.33,2.33,0,0,1-1.29-1.53c-.67-2.67-6.6-26.11-7-29a39.51,39.51,0,0,1,6.36-27.24l4.91-7.54a15.58,15.58,0,0,0,2.45-11c-4.25-26.27-59.52-17.87-60.08-17.78l-.23,0c-.9,1-2.39,4.51-3.39,6.91a51.29,51.29,0,0,1-3.71,7.73l-9.3,12.29,6,4.86a2.28,2.28,0,0,1,.86,1.84l-.43,20.66a2.77,2.77,0,0,0,1.94,2.71l14,4.26a7.78,7.78,0,0,1,5.52,7.28l-.86,19.52C1144.19,584,1139.78,588.18,1135.37,591.07Zm-19.29-74.15Z" transform="translate(381.61 470.96)"/><path class="cls-1" d="M1129.29,443.45c13.4-1.25-3,13.22,46.17-3.09,19.58-6.49,10.37,17,15.45,15.36,18.78-6.17,18.13-6,27.48-3.86,6.18,1.4,10.56,12.6,9.7,21.12-1.14,11.24-13,29.51-23.51,48.73-5.44,10-15.76,11.27-28.9-2.65-1.4-1.48,5-10.83,1.32-14.58-9.68-9.77-13.14,5.74-20.8,1.32-7.36-4.24-10.44-7.06-18.3-13.61-9.52-7.93-24.36,5.66-30.45-12.83C1104.27,469.71,1110.93,445.16,1129.29,443.45Z" transform="translate(381.61 470.96)"/><path class="cls-2" d="M1259.26,1303.37h-80.39V1010.76h-42v292.61h-80.39a46.42,46.42,0,0,0-46.42,46.42v6.94h295.62v-6.94A46.42,46.42,0,0,0,1259.26,1303.37Z" transform="translate(381.61 470.96)"/><path class="cls-1" d="M1305.68,1359H1010.05a2.3,2.3,0,0,1-2.3-2.31v-6.94a48.78,48.78,0,0,1,48.72-48.73h78.09v-290.3a2.31,2.31,0,0,1,2.31-2.31h42a2.3,2.3,0,0,1,2.31,2.31v290.3h78.09a48.78,48.78,0,0,1,48.73,48.73v6.94A2.3,2.3,0,0,1,1305.68,1359Zm-293.32-4.62h291v-4.63a44.16,44.16,0,0,0-44.11-44.11h-80.4a2.3,2.3,0,0,1-2.3-2.31v-290.3h-37.38v290.3a2.3,2.3,0,0,1-2.31,2.31h-80.4a44.16,44.16,0,0,0-44.11,44.11Z" transform="translate(381.61 470.96)"/><path class="cls-2" d="M1283.26,699.51h-21.13c-56.33,0-105.06,39.59-117.1,95.14L1120.44,908.1a57.4,57.4,0,0,1-56,45.47h-44.41a42.43,42.43,0,0,0,0,84.86h72.13l0,.19h126.9c44.41,0,82.83-31.21,92.33-75l39-179.92C1359.75,740.43,1327.12,699.51,1283.26,699.51Z" transform="translate(381.61 470.96)"/><path class="cls-1" d="M1219.06,1040.93h-126.9a2.24,2.24,0,0,1-.93-.19h-71.16c-24.45,0-44.34-20.07-44.34-44.74s19.89-44.74,44.34-44.74h44.41c25.64,0,48.23-18.36,53.71-43.65l24.58-113.45c12.18-56.18,62.37-97,119.36-97h21.12a70.47,70.47,0,0,1,55.08,26.43,71.77,71.77,0,0,1,14.3,60.55l-39,179.92C1304,1008.62,1264.21,1040.93,1219.06,1040.93Zm-125.93-4.61h125.93c43,0,80.88-30.78,90.07-73.19l39-179.93a67.22,67.22,0,0,0-13.38-56.68,65.89,65.89,0,0,0-51.49-24.7h-21.12c-54.83,0-103.13,39.25-114.85,93.32L1122.7,908.59c-5.94,27.4-30.42,47.29-58.22,47.29h-44.41a40.12,40.12,0,0,0,0,80.24h72.13A2.29,2.29,0,0,1,1093.13,1036.32Z" transform="translate(381.61 470.96)"/><path class="cls-1" d="M696.12,984.75c-13.21,60.5,39.17,226,50.15,266.34a12.19,12.19,0,0,0,11.78,9h48.8a12.16,12.16,0,0,0,12.21-12.22c-.45-47.86-9.15-222.33,20.69-272.57,17.27-29.08,48.91-42.19,70.07-56,50.77-33.22,31.66-106.77,31.66-106.77L749.69,926.31C723.12,930.28,701.81,958.68,696.12,984.75Z" transform="translate(381.61 470.96)"/><path class="cls-1" d="M768.86,831.49s-167.42,1.5-220.21,64.4c-47.44,56.53,22.89,305.41,37.62,355.22a12.18,12.18,0,0,0,11.71,8.7h62.9a2.39,2.39,0,0,0,2.4-2.38V993.72c0-16.61,3.26-7.7,17.32-16.71,19.71-12.62,55.47-1.9,104.74-1.54C941.8,976.64,916.6,829.33,916.6,829.33Z" transform="translate(381.61 470.96)"/><polygon class="cls-2" points="1188.89 1731.24 1192.18 1773.95 1153.07 1774.15 1144.99 1731.54 1188.89 1731.24"/><path class="cls-1" d="M771.46,1305.5a2.29,2.29,0,0,1-2.26-1.88L761.11,1261a2.27,2.27,0,0,1,.49-1.89,2.32,2.32,0,0,1,1.76-.85l43.91-.29h0a2.3,2.3,0,0,1,2.3,2.13l3.28,42.7a2.31,2.31,0,0,1-2.29,2.49l-39.11.2Zm-5.3-42.63,7.21,38,34.71-.18-2.93-38.08Z" transform="translate(381.61 470.96)"/><polygon class="cls-2" points="1034.26 1731.24 1033.66 1773.95 993.34 1774.15 986.17 1731.54 1034.26 1731.24"/><path class="cls-1" d="M611.73,1305.5a2.31,2.31,0,0,1-2.27-1.93L602.29,1261a2.28,2.28,0,0,1,.51-1.86,2.31,2.31,0,0,1,1.75-.83l48.09-.29a2.11,2.11,0,0,1,1.65.68,2.29,2.29,0,0,1,.67,1.66l-.6,42.7a2.31,2.31,0,0,1-2.29,2.28l-40.32.2Zm-4.44-42.63,6.39,38,36.1-.18.53-38.08Z" transform="translate(381.61 470.96)"/><path class="cls-2" d="M612.31,1297.74h37.5a6.55,6.55,0,0,1,6.07,4c3.33,8,10.1,26.8,9.19,44.6a9.2,9.2,0,0,1-9.23,8.68h-110a8,8,0,0,1-7.89-9.52c1.21-5.89,5.39-13.65,17.46-20.62,19.54-11.28,44.09-22.57,51.83-26.06A12.36,12.36,0,0,1,612.31,1297.74Z" transform="translate(381.61 470.96)"/><path class="cls-1" d="M655.84,1357.34h-110a10.36,10.36,0,0,1-8.07-3.82,10.15,10.15,0,0,1-2.09-8.46c1.22-5.92,5.43-14.56,18.58-22.16,19.78-11.43,44.83-22.92,52-26.17a14.7,14.7,0,0,1,6.06-1.3h37.5a8.83,8.83,0,0,1,8.2,5.45c3.13,7.56,10.31,27.13,9.36,45.6A11.49,11.49,0,0,1,655.84,1357.34Zm-43.53-57.29a10.06,10.06,0,0,0-4.16.89c-7.16,3.23-32,14.64-51.63,26-9.22,5.33-14.88,11.93-16.35,19.09a5.5,5.5,0,0,0,1.14,4.61,5.78,5.78,0,0,0,4.49,2.13h110a6.87,6.87,0,0,0,6.92-6.49c.9-17.53-6-36.33-9-43.59a4.24,4.24,0,0,0-3.94-2.6Z" transform="translate(381.61 470.96)"/><path class="cls-2" d="M772.8,1297.74h37.5a6.55,6.55,0,0,1,6.07,4c3.33,8,10.1,26.8,9.19,44.6a9.2,9.2,0,0,1-9.23,8.68h-110a8,8,0,0,1-7.89-9.52c1.21-5.89,5.39-13.65,17.46-20.62,19.54-11.28,44.09-22.57,51.83-26.06A12.36,12.36,0,0,1,772.8,1297.74Z" transform="translate(381.61 470.96)"/><path class="cls-1" d="M816.33,1357.34h-110a10.36,10.36,0,0,1-8.07-3.82,10.11,10.11,0,0,1-2.08-8.46c1.21-5.92,5.43-14.56,18.57-22.16,19.78-11.43,44.83-22.92,52-26.17a14.66,14.66,0,0,1,6-1.3h37.5a8.83,8.83,0,0,1,8.2,5.45c3.13,7.55,10.31,27.12,9.37,45.6A11.5,11.5,0,0,1,816.33,1357.34Zm-43.53-57.29a10.05,10.05,0,0,0-4.15.89c-7.16,3.23-32,14.64-51.63,26-9.23,5.33-14.89,11.93-16.36,19.09a5.5,5.5,0,0,0,1.14,4.61,5.78,5.78,0,0,0,4.49,2.13h110a6.87,6.87,0,0,0,6.92-6.49c.9-17.54-6-36.33-9-43.59a4.24,4.24,0,0,0-3.94-2.6Z" transform="translate(381.61 470.96)"/><path class="cls-2" d="M614.33,749.33l-19.84-7.4a35.55,35.55,0,0,0-26,.36c-10.38,4.25-24.46,11.14-34.11,20.28-2.42,2.29-.93,6.48,2.33,6.48h76.65Z" transform="translate(381.61 470.96)"/><path class="cls-1" d="M613.41,771.36H536.76a5.73,5.73,0,0,1-5.39-3.7,6.15,6.15,0,0,1,1.48-6.77c9.95-9.42,24.43-16.47,34.82-20.73a37.79,37.79,0,0,1,27.62-.4l19.85,7.41a2.3,2.3,0,0,1,1.49,2.27l-.92,19.72A2.31,2.31,0,0,1,613.41,771.36ZM582,742a33,33,0,0,0-12.54,2.47c-10,4.11-24,10.88-33.4,19.81a1.53,1.53,0,0,0-.36,1.71,1.16,1.16,0,0,0,1.1.8H611.2l.74-15.84-18.26-6.82A33.48,33.48,0,0,0,582,742Z" transform="translate(381.61 470.96)"/><path class="cls-4" d="M952.09,661.05s2.14-76.92-50.92-86.21a2,2,0,0,0,.08-.22l-56.2-3.18s-36.12-5-69.39,23.64c-30,25.83-36.61,92.08-55.8,108.94-16.64,14.62-88.27,33.62-107,38.42a6,6,0,0,0-4.5,5.8l.06,18.16H722a58.59,58.59,0,0,0,42-17.72c6.63-6.83,14.79-15.22,23.8-24.66a71.1,71.1,0,0,0,4.65,26.28c8.3,21.72,4.34,46.33-11.56,63.38-6.67,7.15-14.21,13.57-22.19,17.42,0,0,5.08,24,42.08,25.65,15,.67,54.77,2.11,84.32.43,40.35-2.29,70.14-9.72,70.14-9.72Z" transform="translate(381.61 470.96)"/><path class="cls-1" d="M852.63,860.27c-22.45,0-43.87-.85-52-1.21-38.34-1.7-44-26.43-44.24-27.48a2.33,2.33,0,0,1,1.26-2.56c6.91-3.33,14.14-9,21.5-16.92,15.05-16.13,19.3-39.5,11.1-61a73.1,73.1,0,0,1-4.67-21.49c-6.83,7.12-13.08,13.56-18.43,19.06l-1.55,1.59A61.18,61.18,0,0,1,722,768.71H608.39a2.32,2.32,0,0,1-2.31-2.3L606,748.25a8.27,8.27,0,0,1,6.24-8c42.9-11,93.3-26.69,106.08-37.92,8-7.07,14.13-24.39,20.57-42.73,8.47-24.11,18.07-51.44,35.24-66.22,33.68-29,69.7-24.39,71.22-24.17l56,3.15a2.4,2.4,0,0,1,1.25.45c52.69,10.22,51.82,85.76,51.77,88.29l3.12,186.37a2.3,2.3,0,0,1-1.75,2.28,425.47,425.47,0,0,1-70.56,9.78C875.09,860.06,863.73,860.27,852.63,860.27Zm-91.18-28c1.9,5.23,10,20.86,39.41,22.17,12,.53,53.71,2.14,84.09.43a432.78,432.78,0,0,0,67.93-9.24l-3.1-184.55V661c0-.75,1.46-75-49-83.87a2.58,2.58,0,0,1-.72-.26l-55.13-3.11c-.53-.07-35.72-4.49-67.75,23.08-16.25,14-25.63,40.68-33.9,64.25-6.93,19.75-12.93,36.8-21.89,44.67-16.84,14.8-86.91,33.53-108,38.92a3.66,3.66,0,0,0-2.76,3.56l.05,15.87H722a56.55,56.55,0,0,0,40.35-17l1.54-1.59c6.34-6.52,13.94-14.34,22.25-23.06a2.31,2.31,0,0,1,4,1.64,68.35,68.35,0,0,0,4.5,25.42c8.84,23.13,4.23,48.34-12,65.77C775.42,822.91,768.33,828.63,761.45,832.28Z" transform="translate(381.61 470.96)"/><path class="cls-1" d="M785.34,732.85a2.25,2.25,0,0,1-1.57-.62,2.3,2.3,0,0,1-.12-3.26,168.11,168.11,0,0,0,33.85-54.2,2.31,2.31,0,0,1,4.31,1.66A172.68,172.68,0,0,1,787,732.11,2.32,2.32,0,0,1,785.34,732.85Z" transform="translate(381.61 470.96)"/><path class="cls-2" d="M811.55,474.08s-2.1,18.79-11.53,29.23a2.44,2.44,0,0,0-.33,2.88l3.89,6.49a9.57,9.57,0,0,1,.82,1.78l6.45,18.95a4.62,4.62,0,0,0,4,3.12c4,.33,14.26-1.23,15.09,1.46.93,3,.21,27.35-.15,37.94a5.68,5.68,0,0,0,4.65,5.78l21.82,4a49.55,49.55,0,0,0,29-3.39,5.72,5.72,0,0,0,2.89-7.66c-5-10.65-15.91-36.1-14.46-51.67l9.69-27.12a23.53,23.53,0,0,0-24.19-23Z" transform="translate(381.61 470.96)"/><path class="cls-1" d="M865.28,588.87a52.19,52.19,0,0,1-9.46-.87L834,584a7.94,7.94,0,0,1-6.53-8.13c.8-23.54.68-34.34.32-36.81-1.38-.51-5.65-.34-8-.25a47.19,47.19,0,0,1-5.14,0,6.93,6.93,0,0,1-6-4.68l-6.44-18.95a7.1,7.1,0,0,0-.62-1.34l-3.89-6.49a4.72,4.72,0,0,1,.6-5.6c8.82-9.78,10.93-27.77,11-27.95a2.31,2.31,0,0,1,2.23-2.05l47.64-1.19a25.79,25.79,0,0,1,18.63,7.2,25.52,25.52,0,0,1,7.92,18.06,2.27,2.27,0,0,1-.13.82L876,523.51c-1.24,15.1,9.56,40.1,14.28,50.19a8.06,8.06,0,0,1-4.05,10.76A51.89,51.89,0,0,1,865.28,588.87Zm-41.37-54.81c4.16,0,7.38.55,8.21,3.24.76,2.46.75,15.48,0,38.71a3.35,3.35,0,0,0,2.76,3.43l21.82,4a47.12,47.12,0,0,0,27.65-3.23,3.44,3.44,0,0,0,1.84-1.94,3.34,3.34,0,0,0-.1-2.63c-4.91-10.5-16.17-36.66-14.67-52.86a2.15,2.15,0,0,1,.12-.56l9.55-26.72a20.88,20.88,0,0,0-6.49-14.4,21.21,21.21,0,0,0-15.32-5.92l-45.68,1.14c-.83,5.26-3.77,19.59-11.82,28.52l3.82,6.63a12.14,12.14,0,0,1,1,2.22l6.44,19a2.32,2.32,0,0,0,2,1.56,45.19,45.19,0,0,0,4.57-.05C821.1,534.12,822.55,534.06,823.91,534.06Z" transform="translate(381.61 470.96)"/><path class="cls-1" d="M807.14,467.43a5.78,5.78,0,0,0,2.46,8.42l1.95.9L849,495.18a2.87,2.87,0,0,0,2.95-.21c1.55-1.12,4.33-2.5,7.12-.72,3.89,2.48,4.68,15.73-5.32,19.25a2.38,2.38,0,0,0-1.51,3.14,44.16,44.16,0,0,0,2.61,5.25c8.82,15.16,30.62,16.06,41.12,2,7.75-10.36,14.84-27.4,6.11-50.7C888.36,436.65,832.43,428.79,807.14,467.43Z" transform="translate(381.61 470.96)"/><path class="cls-1" d="M898.27,459s16.33-19.37,40.22-11.86,25.11,48,27.88,73.16c9.75,88.77,31.43,121.08,38.43,129.1,7.76,8.9-53.3,2.86-73.88-4.15-59.3-20.21-28.07-77.31-25.29-87.59s24.89-67.81-2.58-74.53l-13.94-11.87Z" transform="translate(381.61 470.96)"/><path class="cls-2" d="M905.78,486.67l-.29.1a5,5,0,0,1-6.45-3l-7.28-19.68a5,5,0,0,1,3-6.4l.29-.1a5,5,0,0,1,6.45,3l7.28,19.68A5,5,0,0,1,905.78,486.67Z" transform="translate(381.61 470.96)"/><path class="cls-1" d="M903.76,489.39a7.34,7.34,0,0,1-6.88-4.77l-7.29-19.69a7.28,7.28,0,0,1,4.35-9.36l.31-.11a7.34,7.34,0,0,1,9.39,4.32l7.28,19.69a7.18,7.18,0,0,1-.22,5.57,7.26,7.26,0,0,1-4.13,3.79l-.29.11A7.17,7.17,0,0,1,903.76,489.39Zm-7-29.76a2.6,2.6,0,0,0-.94.17l-.3.1a2.71,2.71,0,0,0-1.52,1.4,2.65,2.65,0,0,0-.08,2L901.2,483a2.73,2.73,0,0,0,3.49,1.59l.3-.11h0a2.68,2.68,0,0,0,1.52-1.4,2.65,2.65,0,0,0,.09-2l-7.29-19.68A2.7,2.7,0,0,0,896.76,459.63Z" transform="translate(381.61 470.96)"/><path class="cls-2" d="M919.89,1303.37H839.5V1010.76h-42v292.61H717.11a46.42,46.42,0,0,0-46.42,46.42v6.94H966.31v-6.94A46.42,46.42,0,0,0,919.89,1303.37Z" transform="translate(381.61 470.96)"/><path class="cls-1" d="M966.31,1359H670.68a2.3,2.3,0,0,1-2.3-2.31v-6.94a48.78,48.78,0,0,1,48.72-48.73h78.09v-290.3a2.31,2.31,0,0,1,2.31-2.31h42a2.3,2.3,0,0,1,2.31,2.31v290.3h78.09a48.78,48.78,0,0,1,48.73,48.73v6.94A2.3,2.3,0,0,1,966.31,1359ZM673,1354.42H964v-4.63a44.16,44.16,0,0,0-44.11-44.11h-80.4a2.3,2.3,0,0,1-2.3-2.31v-290.3H799.81v290.3a2.3,2.3,0,0,1-2.31,2.31H717.1A44.16,44.16,0,0,0,673,1349.79Z" transform="translate(381.61 470.96)"/><path class="cls-2" d="M943.89,699.51H922.76c-56.33,0-105.06,39.59-117.1,95.14L781.07,908.1a57.4,57.4,0,0,1-56,45.47H680.7a42.43,42.43,0,0,0,0,84.86h72.13l0,.19h126.9c44.41,0,82.83-31.21,92.32-75l39-179.92C1020.38,740.43,987.75,699.51,943.89,699.51Z" transform="translate(381.61 470.96)"/><path class="cls-1" d="M879.69,1040.93H752.79a2.24,2.24,0,0,1-.93-.19H680.7c-24.45,0-44.34-20.07-44.34-44.74s19.89-44.74,44.34-44.74h44.41c25.64,0,48.22-18.36,53.71-43.65L803.4,794.16c12.18-56.18,62.37-97,119.36-97h21.12A70.47,70.47,0,0,1,999,723.63a71.77,71.77,0,0,1,14.3,60.55l-39,179.92C964.62,1008.62,924.84,1040.93,879.69,1040.93Zm-125.93-4.61H879.69c43,0,80.88-30.78,90.07-73.19l39-179.93a67.22,67.22,0,0,0-13.38-56.68,65.89,65.89,0,0,0-51.49-24.7H922.76c-54.83,0-103.13,39.25-114.85,93.32L783.33,908.59c-5.94,27.4-30.43,47.29-58.22,47.29H680.7a40.12,40.12,0,0,0,0,80.24h72.13A2.29,2.29,0,0,1,753.76,1036.32Z" transform="translate(381.61 470.96)"/><path class="cls-1" d="M1376.55,671.06a2.21,2.21,0,0,1-.51,0,2.32,2.32,0,0,1-1.74-2.77c37.1-162.23,7.14-288-24.53-364.86-34.33-83.35-78-128.93-78.44-129.38a2.31,2.31,0,0,1,3.32-3.22c.44.46,44.63,46.53,79.3,130.64,32,77.55,62.25,204.33,24.85,367.85A2.31,2.31,0,0,1,1376.55,671.06Z" transform="translate(381.61 470.96)"/><path class="cls-1" d="M1273,904.55a2.43,2.43,0,0,1-.83-.15,2.31,2.31,0,0,1-1.33-3c70-184.13,82.77-304.76,81.14-373.54-1.76-74.45-20.29-105.8-20.48-106.11a2.31,2.31,0,1,1,3.94-2.4c.79,1.28,19.25,32.33,21.14,107.76,1.74,69.26-11,190.7-81.43,375.93A2.3,2.3,0,0,1,1273,904.55Z" transform="translate(381.61 470.96)"/><path class="cls-1" d="M-148.59-260.07a2.27,2.27,0,0,1-1.65-.7,2.31,2.31,0,0,1,0-3.26c1.56-1.52,158.09-152.32,328.55-184.4a2.31,2.31,0,0,1,2.7,1.84,2.31,2.31,0,0,1-1.85,2.69C10.13-412.07-145.43-262.23-147-260.72A2.29,2.29,0,0,1-148.59-260.07Z" transform="translate(381.61 470.96)"/><path class="cls-1" d="M-234.1-222a2.31,2.31,0,0,1-1.5-.56,2.31,2.31,0,0,1-.25-3.26C-121.42-359.08-2.48-406.38-1.3-406.84a2.3,2.3,0,0,1,3,1.32,2.31,2.31,0,0,1-1.31,3c-1.18.46-119.1,47.4-232.73,179.74A2.31,2.31,0,0,1-234.1-222Z" transform="translate(381.61 470.96)"/></g></svg>