<svg width="24" height="25" viewBox="0 0 24 25" fill="none" xmlns="http://www.w3.org/2000/svg">
<path d="M17.4334 24.3705C16.5168 24.3637 15.6042 24.2487 14.7146 24.0277C11.6426 23.2865 8.4791 21.4063 5.80839 18.7332C3.13769 16.0602 1.25507 12.8961 0.513863 9.82697C-0.266606 6.59845 0.290034 3.83634 2.07949 2.04689L2.59043 1.53595C3.054 1.07331 3.68217 0.813477 4.33711 0.813477C4.99204 0.813477 5.62022 1.07331 6.08379 1.53595L9.01992 4.4715C9.48285 4.93491 9.74288 5.56315 9.74288 6.21818C9.74288 6.8732 9.48285 7.50144 9.01992 7.96486L7.28554 9.69864C8.11699 11.1576 9.24785 12.6178 10.5844 13.9543C11.9209 15.2908 13.3822 16.4223 14.8406 17.2537L16.5744 15.5193C16.8038 15.2899 17.0761 15.1079 17.3758 14.9837C17.6755 14.8596 17.9967 14.7957 18.3211 14.7957C18.6455 14.7957 18.9667 14.8596 19.2664 14.9837C19.5661 15.1079 19.8384 15.2899 20.0678 15.5193L23.0033 18.4549C23.4664 18.9181 23.7265 19.5463 23.7265 20.2013C23.7265 20.8563 23.4664 21.4844 23.0033 21.9477L22.4918 22.4586C21.2303 23.7225 19.4842 24.3705 17.4334 24.3705ZM4.33711 2.57013C4.24355 2.56967 4.15085 2.58788 4.06442 2.62369C3.97799 2.65951 3.89958 2.71222 3.83378 2.77872L3.32226 3.28966C1.98222 4.6297 1.59082 6.80528 2.22011 9.41212C2.88632 12.1736 4.60136 15.043 7.04882 17.4899C9.49629 19.9367 12.365 21.65 15.1271 22.3186C17.7346 22.9479 19.909 22.5565 21.249 21.2164L21.76 20.7055C21.8935 20.5719 21.9684 20.3907 21.9684 20.2019C21.9684 20.013 21.8935 19.8319 21.76 19.6983L18.825 16.7627C18.6914 16.6292 18.5103 16.5542 18.3214 16.5542C18.1325 16.5542 17.9514 16.6292 17.8178 16.7627L15.6199 18.9606C15.488 19.0925 15.3176 19.1791 15.1333 19.2077C14.9489 19.2364 14.7602 19.2056 14.5945 19.1199C12.7928 18.1883 10.9764 16.8318 9.3416 15.1971C7.70683 13.5623 6.35332 11.7471 5.41933 9.94532C5.33356 9.77968 5.30272 9.59103 5.33126 9.4067C5.35981 9.22236 5.44627 9.05188 5.57812 8.91993L7.77656 6.72208C7.91006 6.58848 7.98505 6.40734 7.98505 6.21847C7.98505 6.0296 7.91006 5.84846 7.77656 5.71486L4.84101 2.77872C4.77501 2.71233 4.69647 2.65971 4.60997 2.6239C4.52347 2.58809 4.43072 2.56982 4.33711 2.57013Z" fill="#494B4C"/>
<path d="M18.3721 13.8043C18.139 13.8043 17.9154 13.7117 17.7506 13.5469C17.5858 13.382 17.4932 13.1585 17.4932 12.9254C17.4915 11.3835 16.8782 9.90527 15.788 8.81494C14.6978 7.72461 13.2196 7.11124 11.6777 7.10938C11.4446 7.10938 11.2211 7.01678 11.0563 6.85195C10.8914 6.68712 10.7988 6.46357 10.7988 6.23047C10.7988 5.99737 10.8914 5.77382 11.0563 5.60899C11.2211 5.44416 11.4446 5.35156 11.6777 5.35156C15.8537 5.35156 19.251 8.75 19.251 12.9254C19.251 13.1585 19.1584 13.382 18.9936 13.5469C18.8287 13.7117 18.6052 13.8043 18.3721 13.8043Z" fill="#494B4C"/>
<path d="M22.0869 13.8043C21.8538 13.8043 21.6303 13.7117 21.4654 13.5469C21.3006 13.382 21.208 13.1585 21.208 12.9254C21.208 7.67011 16.9307 3.39453 11.6777 3.39453C11.4446 3.39453 11.2211 3.30193 11.0563 3.13711C10.8914 2.97228 10.7988 2.74873 10.7988 2.51562C10.7988 2.28252 10.8914 2.05897 11.0563 1.89414C11.2211 1.72932 11.4446 1.63672 11.6777 1.63672C17.9021 1.63672 22.9658 6.70097 22.9658 12.9254C22.9658 13.1585 22.8732 13.382 22.7084 13.5469C22.5436 13.7117 22.32 13.8043 22.0869 13.8043Z" fill="#494B4C"/>
</svg>
