<svg width="26" height="28" viewBox="0 0 26 28" fill="none" xmlns="http://www.w3.org/2000/svg">
<g clip-path="url(#clip0_2_4)">
<path d="M16.9964 13.4509H14.4863C14.21 13.4509 13.9836 13.6802 13.9836 13.9624V15.9199C13.9836 16.202 14.207 16.4313 14.4863 16.4313H16.9964C17.2726 16.4313 17.499 16.202 17.499 15.9199V13.9624C17.499 13.6802 17.2726 13.4509 16.9964 13.4509Z" fill="black"/>
<path d="M21.2612 13.4509H18.7511C18.4749 13.4509 18.2485 13.6802 18.2485 13.9624V15.9199C18.2485 16.202 18.4719 16.4313 18.7511 16.4313H21.2612C21.5375 16.4313 21.7639 16.202 21.7639 15.9199V13.9624C21.7639 13.6802 21.5405 13.4509 21.2612 13.4509Z" fill="black"/>
<path d="M8.46394 17.1104H5.95384C5.67755 17.1104 5.45123 17.3396 5.45123 17.6218V19.5793C5.45123 19.8615 5.67461 20.0907 5.95384 20.0907H8.46394C8.74023 20.0907 8.96655 19.8615 8.96655 19.5793V17.6218C8.96655 17.3396 8.74317 17.1104 8.46394 17.1104Z" fill="black"/>
<path d="M12.7319 17.1104H10.2218C9.94556 17.1104 9.71924 17.3396 9.71924 17.6218V19.5793C9.71924 19.8615 9.94262 20.0907 10.2218 20.0907H12.7319C13.0082 20.0907 13.2346 19.8615 13.2346 19.5793V17.6218C13.2316 17.3396 13.0082 17.1104 12.7319 17.1104Z" fill="black"/>
<path d="M16.9964 17.1104H14.4863C14.21 17.1104 13.9836 17.3396 13.9836 17.6218V19.5793C13.9836 19.8615 14.207 20.0907 14.4863 20.0907H16.9964C17.2726 20.0907 17.499 19.8615 17.499 19.5793V17.6218C17.499 17.3396 17.2726 17.1104 16.9964 17.1104Z" fill="black"/>
<path d="M21.2612 17.1104H18.7511C18.4749 17.1104 18.2485 17.3396 18.2485 17.6218V19.5793C18.2485 19.8615 18.4719 20.0907 18.7511 20.0907H21.2612C21.5375 20.0907 21.7639 19.8615 21.7639 19.5793V17.6218C21.7639 17.3396 21.5405 17.1104 21.2612 17.1104Z" fill="black"/>
<path d="M8.46394 20.7695H5.95384C5.67755 20.7695 5.45123 20.9988 5.45123 21.281V23.2385C5.45123 23.5207 5.67461 23.7499 5.95384 23.7499H8.46394C8.74023 23.7499 8.96655 23.5207 8.96655 23.2385V21.281C8.96655 20.9988 8.74317 20.7695 8.46394 20.7695Z" fill="black"/>
<path d="M12.7319 20.7695H10.2218C9.94556 20.7695 9.71924 20.9988 9.71924 21.281V23.2385C9.71924 23.5207 9.94262 23.7499 10.2218 23.7499H12.7319C13.0082 23.7499 13.2346 23.5207 13.2346 23.2385V21.281C13.2316 20.9988 13.0082 20.7695 12.7319 20.7695Z" fill="black"/>
<path d="M16.9964 20.7695H14.4863C14.21 20.7695 13.9836 20.9988 13.9836 21.281V23.2385C13.9836 23.5207 14.207 23.7499 14.4863 23.7499H16.9964C17.2726 23.7499 17.499 23.5207 17.499 23.2385V21.281C17.499 20.9988 17.2726 20.7695 16.9964 20.7695Z" fill="black"/>
<path d="M19.3067 6.90811H20.0179C20.6734 6.90811 21.2054 6.46428 21.2054 5.92053V1.90848C21.2054 1.36178 20.6734 0.920898 20.0179 0.920898H19.3067C18.6512 0.920898 18.1192 1.36472 18.1192 1.90848V5.91759C18.1192 6.46428 18.6512 6.90811 19.3067 6.90811Z" fill="black"/>
<path d="M24.1476 3.17236H21.661V6.20859C21.661 7.05802 20.9732 7.74874 20.1209 7.74874H19.2038C18.3514 7.74874 17.6637 7.06096 17.6637 6.20859V3.17236H9.15166V6.20859C9.15166 7.05802 8.46388 7.74874 7.6115 7.74874H6.69446C5.84209 7.74874 5.15431 7.06096 5.15431 6.20859V3.17236H2.66772C1.92116 3.17236 1.31567 3.77784 1.31567 4.52441V25.7221C1.31567 26.4687 1.92116 27.0742 2.66772 27.0742H24.1476C24.8942 27.0742 25.4996 26.4687 25.4996 25.7221V4.52441C25.4996 3.77784 24.8942 3.17236 24.1476 3.17236ZM23.2541 23.2502C23.2541 24.0673 22.6486 24.7257 21.902 24.7257H4.91329C4.16673 24.7257 3.56125 24.0644 3.56125 23.2502V13.6507C3.56125 12.8336 4.16673 12.1752 4.91329 12.1752H21.902C22.6486 12.1752 23.2541 12.8365 23.2541 13.6507V23.2502Z" fill="black"/>
<path d="M6.79731 6.90811H7.50861C8.16405 6.90811 8.69605 6.46428 8.69605 5.92053V1.90848C8.69605 1.36178 8.16405 0.920898 7.50861 0.920898H6.79731C6.14186 0.920898 5.60986 1.36472 5.60986 1.90848V5.91759C5.60986 6.46428 6.14186 6.90811 6.79731 6.90811Z" fill="black"/>
</g>
<defs>
<clipPath id="clip0_2_4">
<rect width="25" height="28" fill="white" transform="translate(0.5)"/>
</clipPath>
</defs>
</svg>
