<svg width="27" height="19" viewBox="0 0 27 19" fill="none" xmlns="http://www.w3.org/2000/svg">
<g clip-path="url(#clip0_2_2)">
<path d="M22.2912 0.427734H5.64184C3.35255 0.427734 1.47949 2.20496 1.47949 4.37712V14.2506C1.47949 16.4228 3.35255 18.2 5.64184 18.2H22.2912C24.5805 18.2 26.4536 16.4228 26.4536 14.2506V4.37712C26.4536 2.20496 24.5805 0.427734 22.2912 0.427734ZM23.9562 6.15435L15.7355 11.3873C15.2152 11.6835 14.5909 11.881 13.9665 11.881C13.3422 11.881 12.7178 11.6835 12.1975 11.3873L3.9769 6.15435C3.56066 5.85814 3.45661 5.26573 3.76878 4.77206C4.08096 4.37712 4.70531 4.27839 5.2256 4.57459L13.4462 9.80753C13.7584 10.005 14.2787 10.005 14.5909 9.80753L22.8115 4.57459C23.3318 4.27839 23.9562 4.37712 24.2683 4.8708C24.4764 5.26573 24.3724 5.85814 23.9562 6.15435Z" fill="black"/>
</g>
<defs>
<clipPath id="clip0_2_2">
<rect width="26" height="19" fill="white" transform="translate(0.5)"/>
</clipPath>
</defs>
</svg>
