<svg width="32" height="32" viewBox="0 0 32 32" fill="none" xmlns="http://www.w3.org/2000/svg">
<path d="M12.6207 14.8035C13.7537 16.5045 15.2129 17.9638 16.9139 19.0968C17.4504 19.3961 18.07 19.5116 18.6782 19.4258C19.2865 19.3399 19.8499 19.0573 20.2825 18.6212C20.7141 18.1898 21.299 17.9468 21.9093 17.9456C22.5195 17.9444 23.1054 18.1849 23.5388 18.6146L26.2402 21.3161C27.7466 22.8175 26.455 24.7574 25.0908 25.8075C24.4733 26.3168 23.742 26.6698 22.959 26.8366C22.1761 27.0033 21.3644 26.9788 20.5929 26.7652C16.8753 25.7048 13.5048 23.6789 10.8241 20.8933C8.03859 18.2127 6.01262 14.8422 4.95222 11.1245C4.67976 9.99935 4.77672 8.81634 5.22877 7.75053C5.68081 6.68473 6.46392 5.79274 7.46224 5.20653C7.90639 4.90054 8.44379 4.76005 8.98086 4.80952C9.51793 4.859 10.0206 5.0953 10.4014 5.47727L13.1028 8.17871C13.3171 8.39248 13.4865 8.64692 13.6011 8.92709C13.7157 9.20725 13.7731 9.50749 13.77 9.81016C13.7693 10.4196 13.5271 11.0039 13.0963 11.435C12.6601 11.8676 12.3776 12.431 12.2917 13.0392C12.2058 13.6475 12.3214 14.2671 12.6207 14.8035Z" fill="black"/>
</svg>
